%TF.GenerationSoftware,KiCad,Pcbnew,8.0.5*%
%TF.CreationDate,2025-10-12T21:41:40-04:00*%
%TF.ProjectId,DisplayDriver,44697370-6c61-4794-9472-697665722e6b,1.0*%
%TF.SameCoordinates,Original*%
%TF.FileFunction,Copper,L1,Top*%
%TF.FilePolarity,Positive*%
%FSLAX46Y46*%
G04 Gerber Fmt 4.6, Leading zero omitted, Abs format (unit mm)*
G04 Created by KiCad (PCBNEW 8.0.5) date 2025-10-12 21:41:40*
%MOMM*%
%LPD*%
G01*
G04 APERTURE LIST*
G04 Aperture macros list*
%AMRoundRect*
0 Rectangle with rounded corners*
0 $1 Rounding radius*
0 $2 $3 $4 $5 $6 $7 $8 $9 X,Y pos of 4 corners*
0 Add a 4 corners polygon primitive as box body*
4,1,4,$2,$3,$4,$5,$6,$7,$8,$9,$2,$3,0*
0 Add four circle primitives for the rounded corners*
1,1,$1+$1,$2,$3*
1,1,$1+$1,$4,$5*
1,1,$1+$1,$6,$7*
1,1,$1+$1,$8,$9*
0 Add four rect primitives between the rounded corners*
20,1,$1+$1,$2,$3,$4,$5,0*
20,1,$1+$1,$4,$5,$6,$7,0*
20,1,$1+$1,$6,$7,$8,$9,0*
20,1,$1+$1,$8,$9,$2,$3,0*%
%AMFreePoly0*
4,1,19,0.550000,-0.750000,0.000000,-0.750000,0.000000,-0.744911,-0.071157,-0.744911,-0.207708,-0.704816,-0.327430,-0.627875,-0.420627,-0.520320,-0.479746,-0.390866,-0.500000,-0.250000,-0.500000,0.250000,-0.479746,0.390866,-0.420627,0.520320,-0.327430,0.627875,-0.207708,0.704816,-0.071157,0.744911,0.000000,0.744911,0.000000,0.750000,0.550000,0.750000,0.550000,-0.750000,0.550000,-0.750000,
$1*%
%AMFreePoly1*
4,1,19,0.000000,0.744911,0.071157,0.744911,0.207708,0.704816,0.327430,0.627875,0.420627,0.520320,0.479746,0.390866,0.500000,0.250000,0.500000,-0.250000,0.479746,-0.390866,0.420627,-0.520320,0.327430,-0.627875,0.207708,-0.704816,0.071157,-0.744911,0.000000,-0.744911,0.000000,-0.750000,-0.550000,-0.750000,-0.550000,0.750000,0.000000,0.750000,0.000000,0.744911,0.000000,0.744911,
$1*%
G04 Aperture macros list end*
%ADD10C,0.300000*%
%TA.AperFunction,NonConductor*%
%ADD11C,0.300000*%
%TD*%
%TA.AperFunction,NonConductor*%
%ADD12C,0.200000*%
%TD*%
%TA.AperFunction,ComponentPad*%
%ADD13R,1.700000X1.700000*%
%TD*%
%TA.AperFunction,ComponentPad*%
%ADD14O,1.700000X1.700000*%
%TD*%
%TA.AperFunction,SMDPad,CuDef*%
%ADD15RoundRect,0.250000X-0.450000X0.350000X-0.450000X-0.350000X0.450000X-0.350000X0.450000X0.350000X0*%
%TD*%
%TA.AperFunction,SMDPad,CuDef*%
%ADD16RoundRect,0.200000X-0.275000X0.200000X-0.275000X-0.200000X0.275000X-0.200000X0.275000X0.200000X0*%
%TD*%
%TA.AperFunction,SMDPad,CuDef*%
%ADD17R,1.270000X0.900000*%
%TD*%
%TA.AperFunction,SMDPad,CuDef*%
%ADD18R,0.800000X1.450000*%
%TD*%
%TA.AperFunction,SMDPad,CuDef*%
%ADD19RoundRect,0.200000X-0.200000X-0.275000X0.200000X-0.275000X0.200000X0.275000X-0.200000X0.275000X0*%
%TD*%
%TA.AperFunction,SMDPad,CuDef*%
%ADD20RoundRect,0.250000X-0.337500X-0.475000X0.337500X-0.475000X0.337500X0.475000X-0.337500X0.475000X0*%
%TD*%
%TA.AperFunction,SMDPad,CuDef*%
%ADD21RoundRect,0.150000X-0.875000X-0.150000X0.875000X-0.150000X0.875000X0.150000X-0.875000X0.150000X0*%
%TD*%
%TA.AperFunction,ComponentPad*%
%ADD22RoundRect,0.250000X-0.600000X-0.600000X0.600000X-0.600000X0.600000X0.600000X-0.600000X0.600000X0*%
%TD*%
%TA.AperFunction,ComponentPad*%
%ADD23C,1.700000*%
%TD*%
%TA.AperFunction,SMDPad,CuDef*%
%ADD24RoundRect,0.225000X-0.250000X0.225000X-0.250000X-0.225000X0.250000X-0.225000X0.250000X0.225000X0*%
%TD*%
%TA.AperFunction,SMDPad,CuDef*%
%ADD25RoundRect,0.250000X0.475000X-0.337500X0.475000X0.337500X-0.475000X0.337500X-0.475000X-0.337500X0*%
%TD*%
%TA.AperFunction,SMDPad,CuDef*%
%ADD26R,1.500000X0.900000*%
%TD*%
%TA.AperFunction,SMDPad,CuDef*%
%ADD27RoundRect,0.250000X-0.350000X-0.450000X0.350000X-0.450000X0.350000X0.450000X-0.350000X0.450000X0*%
%TD*%
%TA.AperFunction,SMDPad,CuDef*%
%ADD28RoundRect,0.218750X0.256250X-0.218750X0.256250X0.218750X-0.256250X0.218750X-0.256250X-0.218750X0*%
%TD*%
%TA.AperFunction,SMDPad,CuDef*%
%ADD29RoundRect,0.250000X-0.475000X0.337500X-0.475000X-0.337500X0.475000X-0.337500X0.475000X0.337500X0*%
%TD*%
%TA.AperFunction,SMDPad,CuDef*%
%ADD30FreePoly0,270.000000*%
%TD*%
%TA.AperFunction,SMDPad,CuDef*%
%ADD31R,1.500000X1.000000*%
%TD*%
%TA.AperFunction,SMDPad,CuDef*%
%ADD32FreePoly1,270.000000*%
%TD*%
%TA.AperFunction,SMDPad,CuDef*%
%ADD33RoundRect,0.250000X0.450000X-0.350000X0.450000X0.350000X-0.450000X0.350000X-0.450000X-0.350000X0*%
%TD*%
%TA.AperFunction,SMDPad,CuDef*%
%ADD34R,0.900000X1.500000*%
%TD*%
%TA.AperFunction,HeatsinkPad*%
%ADD35C,0.600000*%
%TD*%
%TA.AperFunction,SMDPad,CuDef*%
%ADD36R,3.900000X3.900000*%
%TD*%
%TA.AperFunction,SMDPad,CuDef*%
%ADD37RoundRect,0.250000X0.350000X0.450000X-0.350000X0.450000X-0.350000X-0.450000X0.350000X-0.450000X0*%
%TD*%
%TA.AperFunction,SMDPad,CuDef*%
%ADD38RoundRect,0.045000X-0.630000X-0.255000X0.630000X-0.255000X0.630000X0.255000X-0.630000X0.255000X0*%
%TD*%
%TA.AperFunction,ComponentPad*%
%ADD39R,0.650000X0.650000*%
%TD*%
%TA.AperFunction,ComponentPad*%
%ADD40C,0.650000*%
%TD*%
%TA.AperFunction,ComponentPad*%
%ADD41O,0.900000X1.700000*%
%TD*%
%TA.AperFunction,ComponentPad*%
%ADD42O,0.900000X2.400000*%
%TD*%
%TA.AperFunction,SMDPad,CuDef*%
%ADD43RoundRect,0.225000X0.225000X0.250000X-0.225000X0.250000X-0.225000X-0.250000X0.225000X-0.250000X0*%
%TD*%
%TA.AperFunction,ComponentPad*%
%ADD44C,2.000000*%
%TD*%
%TA.AperFunction,ViaPad*%
%ADD45C,0.600000*%
%TD*%
%TA.AperFunction,Conductor*%
%ADD46C,0.200000*%
%TD*%
%TA.AperFunction,Conductor*%
%ADD47C,0.400000*%
%TD*%
%TA.AperFunction,Conductor*%
%ADD48C,0.500000*%
%TD*%
G04 APERTURE END LIST*
D10*
D11*
X108357144Y-129521184D02*
X108214287Y-129449756D01*
X108214287Y-129449756D02*
X108142858Y-129378327D01*
X108142858Y-129378327D02*
X108071430Y-129235470D01*
X108071430Y-129235470D02*
X108071430Y-129164041D01*
X108071430Y-129164041D02*
X108142858Y-129021184D01*
X108142858Y-129021184D02*
X108214287Y-128949756D01*
X108214287Y-128949756D02*
X108357144Y-128878327D01*
X108357144Y-128878327D02*
X108642858Y-128878327D01*
X108642858Y-128878327D02*
X108785716Y-128949756D01*
X108785716Y-128949756D02*
X108857144Y-129021184D01*
X108857144Y-129021184D02*
X108928573Y-129164041D01*
X108928573Y-129164041D02*
X108928573Y-129235470D01*
X108928573Y-129235470D02*
X108857144Y-129378327D01*
X108857144Y-129378327D02*
X108785716Y-129449756D01*
X108785716Y-129449756D02*
X108642858Y-129521184D01*
X108642858Y-129521184D02*
X108357144Y-129521184D01*
X108357144Y-129521184D02*
X108214287Y-129592613D01*
X108214287Y-129592613D02*
X108142858Y-129664041D01*
X108142858Y-129664041D02*
X108071430Y-129806899D01*
X108071430Y-129806899D02*
X108071430Y-130092613D01*
X108071430Y-130092613D02*
X108142858Y-130235470D01*
X108142858Y-130235470D02*
X108214287Y-130306899D01*
X108214287Y-130306899D02*
X108357144Y-130378327D01*
X108357144Y-130378327D02*
X108642858Y-130378327D01*
X108642858Y-130378327D02*
X108785716Y-130306899D01*
X108785716Y-130306899D02*
X108857144Y-130235470D01*
X108857144Y-130235470D02*
X108928573Y-130092613D01*
X108928573Y-130092613D02*
X108928573Y-129806899D01*
X108928573Y-129806899D02*
X108857144Y-129664041D01*
X108857144Y-129664041D02*
X108785716Y-129592613D01*
X108785716Y-129592613D02*
X108642858Y-129521184D01*
X109857144Y-128878327D02*
X110000001Y-128878327D01*
X110000001Y-128878327D02*
X110142858Y-128949756D01*
X110142858Y-128949756D02*
X110214287Y-129021184D01*
X110214287Y-129021184D02*
X110285715Y-129164041D01*
X110285715Y-129164041D02*
X110357144Y-129449756D01*
X110357144Y-129449756D02*
X110357144Y-129806899D01*
X110357144Y-129806899D02*
X110285715Y-130092613D01*
X110285715Y-130092613D02*
X110214287Y-130235470D01*
X110214287Y-130235470D02*
X110142858Y-130306899D01*
X110142858Y-130306899D02*
X110000001Y-130378327D01*
X110000001Y-130378327D02*
X109857144Y-130378327D01*
X109857144Y-130378327D02*
X109714287Y-130306899D01*
X109714287Y-130306899D02*
X109642858Y-130235470D01*
X109642858Y-130235470D02*
X109571429Y-130092613D01*
X109571429Y-130092613D02*
X109500001Y-129806899D01*
X109500001Y-129806899D02*
X109500001Y-129449756D01*
X109500001Y-129449756D02*
X109571429Y-129164041D01*
X109571429Y-129164041D02*
X109642858Y-129021184D01*
X109642858Y-129021184D02*
X109714287Y-128949756D01*
X109714287Y-128949756D02*
X109857144Y-128878327D01*
X111000000Y-130235470D02*
X111071429Y-130306899D01*
X111071429Y-130306899D02*
X111000000Y-130378327D01*
X111000000Y-130378327D02*
X110928572Y-130306899D01*
X110928572Y-130306899D02*
X111000000Y-130235470D01*
X111000000Y-130235470D02*
X111000000Y-130378327D01*
X112000001Y-128878327D02*
X112142858Y-128878327D01*
X112142858Y-128878327D02*
X112285715Y-128949756D01*
X112285715Y-128949756D02*
X112357144Y-129021184D01*
X112357144Y-129021184D02*
X112428572Y-129164041D01*
X112428572Y-129164041D02*
X112500001Y-129449756D01*
X112500001Y-129449756D02*
X112500001Y-129806899D01*
X112500001Y-129806899D02*
X112428572Y-130092613D01*
X112428572Y-130092613D02*
X112357144Y-130235470D01*
X112357144Y-130235470D02*
X112285715Y-130306899D01*
X112285715Y-130306899D02*
X112142858Y-130378327D01*
X112142858Y-130378327D02*
X112000001Y-130378327D01*
X112000001Y-130378327D02*
X111857144Y-130306899D01*
X111857144Y-130306899D02*
X111785715Y-130235470D01*
X111785715Y-130235470D02*
X111714286Y-130092613D01*
X111714286Y-130092613D02*
X111642858Y-129806899D01*
X111642858Y-129806899D02*
X111642858Y-129449756D01*
X111642858Y-129449756D02*
X111714286Y-129164041D01*
X111714286Y-129164041D02*
X111785715Y-129021184D01*
X111785715Y-129021184D02*
X111857144Y-128949756D01*
X111857144Y-128949756D02*
X112000001Y-128878327D01*
X113428572Y-128878327D02*
X113571429Y-128878327D01*
X113571429Y-128878327D02*
X113714286Y-128949756D01*
X113714286Y-128949756D02*
X113785715Y-129021184D01*
X113785715Y-129021184D02*
X113857143Y-129164041D01*
X113857143Y-129164041D02*
X113928572Y-129449756D01*
X113928572Y-129449756D02*
X113928572Y-129806899D01*
X113928572Y-129806899D02*
X113857143Y-130092613D01*
X113857143Y-130092613D02*
X113785715Y-130235470D01*
X113785715Y-130235470D02*
X113714286Y-130306899D01*
X113714286Y-130306899D02*
X113571429Y-130378327D01*
X113571429Y-130378327D02*
X113428572Y-130378327D01*
X113428572Y-130378327D02*
X113285715Y-130306899D01*
X113285715Y-130306899D02*
X113214286Y-130235470D01*
X113214286Y-130235470D02*
X113142857Y-130092613D01*
X113142857Y-130092613D02*
X113071429Y-129806899D01*
X113071429Y-129806899D02*
X113071429Y-129449756D01*
X113071429Y-129449756D02*
X113142857Y-129164041D01*
X113142857Y-129164041D02*
X113214286Y-129021184D01*
X113214286Y-129021184D02*
X113285715Y-128949756D01*
X113285715Y-128949756D02*
X113428572Y-128878327D01*
X114857143Y-128878327D02*
X115000000Y-128878327D01*
X115000000Y-128878327D02*
X115142857Y-128949756D01*
X115142857Y-128949756D02*
X115214286Y-129021184D01*
X115214286Y-129021184D02*
X115285714Y-129164041D01*
X115285714Y-129164041D02*
X115357143Y-129449756D01*
X115357143Y-129449756D02*
X115357143Y-129806899D01*
X115357143Y-129806899D02*
X115285714Y-130092613D01*
X115285714Y-130092613D02*
X115214286Y-130235470D01*
X115214286Y-130235470D02*
X115142857Y-130306899D01*
X115142857Y-130306899D02*
X115000000Y-130378327D01*
X115000000Y-130378327D02*
X114857143Y-130378327D01*
X114857143Y-130378327D02*
X114714286Y-130306899D01*
X114714286Y-130306899D02*
X114642857Y-130235470D01*
X114642857Y-130235470D02*
X114571428Y-130092613D01*
X114571428Y-130092613D02*
X114500000Y-129806899D01*
X114500000Y-129806899D02*
X114500000Y-129449756D01*
X114500000Y-129449756D02*
X114571428Y-129164041D01*
X114571428Y-129164041D02*
X114642857Y-129021184D01*
X114642857Y-129021184D02*
X114714286Y-128949756D01*
X114714286Y-128949756D02*
X114857143Y-128878327D01*
X116285714Y-128878327D02*
X116428571Y-128878327D01*
X116428571Y-128878327D02*
X116571428Y-128949756D01*
X116571428Y-128949756D02*
X116642857Y-129021184D01*
X116642857Y-129021184D02*
X116714285Y-129164041D01*
X116714285Y-129164041D02*
X116785714Y-129449756D01*
X116785714Y-129449756D02*
X116785714Y-129806899D01*
X116785714Y-129806899D02*
X116714285Y-130092613D01*
X116714285Y-130092613D02*
X116642857Y-130235470D01*
X116642857Y-130235470D02*
X116571428Y-130306899D01*
X116571428Y-130306899D02*
X116428571Y-130378327D01*
X116428571Y-130378327D02*
X116285714Y-130378327D01*
X116285714Y-130378327D02*
X116142857Y-130306899D01*
X116142857Y-130306899D02*
X116071428Y-130235470D01*
X116071428Y-130235470D02*
X115999999Y-130092613D01*
X115999999Y-130092613D02*
X115928571Y-129806899D01*
X115928571Y-129806899D02*
X115928571Y-129449756D01*
X115928571Y-129449756D02*
X115999999Y-129164041D01*
X115999999Y-129164041D02*
X116071428Y-129021184D01*
X116071428Y-129021184D02*
X116142857Y-128949756D01*
X116142857Y-128949756D02*
X116285714Y-128878327D01*
X118571427Y-130378327D02*
X118571427Y-129378327D01*
X118571427Y-129521184D02*
X118642856Y-129449756D01*
X118642856Y-129449756D02*
X118785713Y-129378327D01*
X118785713Y-129378327D02*
X118999999Y-129378327D01*
X118999999Y-129378327D02*
X119142856Y-129449756D01*
X119142856Y-129449756D02*
X119214285Y-129592613D01*
X119214285Y-129592613D02*
X119214285Y-130378327D01*
X119214285Y-129592613D02*
X119285713Y-129449756D01*
X119285713Y-129449756D02*
X119428570Y-129378327D01*
X119428570Y-129378327D02*
X119642856Y-129378327D01*
X119642856Y-129378327D02*
X119785713Y-129449756D01*
X119785713Y-129449756D02*
X119857142Y-129592613D01*
X119857142Y-129592613D02*
X119857142Y-130378327D01*
X120571427Y-130378327D02*
X120571427Y-129378327D01*
X120571427Y-129521184D02*
X120642856Y-129449756D01*
X120642856Y-129449756D02*
X120785713Y-129378327D01*
X120785713Y-129378327D02*
X120999999Y-129378327D01*
X120999999Y-129378327D02*
X121142856Y-129449756D01*
X121142856Y-129449756D02*
X121214285Y-129592613D01*
X121214285Y-129592613D02*
X121214285Y-130378327D01*
X121214285Y-129592613D02*
X121285713Y-129449756D01*
X121285713Y-129449756D02*
X121428570Y-129378327D01*
X121428570Y-129378327D02*
X121642856Y-129378327D01*
X121642856Y-129378327D02*
X121785713Y-129449756D01*
X121785713Y-129449756D02*
X121857142Y-129592613D01*
X121857142Y-129592613D02*
X121857142Y-130378327D01*
D12*
X75000000Y-125500000D02*
X75000000Y-132086419D01*
X155000000Y-125500000D02*
X155000000Y-132086419D01*
X75000000Y-131499999D02*
X155000000Y-131499999D01*
X75000000Y-131499999D02*
X155000000Y-131499999D01*
X75000000Y-131499999D02*
X76126504Y-130913578D01*
X75000000Y-131499999D02*
X76126504Y-132086420D01*
X155000000Y-131499999D02*
X153873496Y-132086420D01*
X155000000Y-131499999D02*
X153873496Y-130913578D01*
D10*
D11*
X66751217Y-91642855D02*
X66679789Y-91785712D01*
X66679789Y-91785712D02*
X66608360Y-91857141D01*
X66608360Y-91857141D02*
X66465503Y-91928569D01*
X66465503Y-91928569D02*
X66394074Y-91928569D01*
X66394074Y-91928569D02*
X66251217Y-91857141D01*
X66251217Y-91857141D02*
X66179789Y-91785712D01*
X66179789Y-91785712D02*
X66108360Y-91642855D01*
X66108360Y-91642855D02*
X66108360Y-91357141D01*
X66108360Y-91357141D02*
X66179789Y-91214284D01*
X66179789Y-91214284D02*
X66251217Y-91142855D01*
X66251217Y-91142855D02*
X66394074Y-91071426D01*
X66394074Y-91071426D02*
X66465503Y-91071426D01*
X66465503Y-91071426D02*
X66608360Y-91142855D01*
X66608360Y-91142855D02*
X66679789Y-91214284D01*
X66679789Y-91214284D02*
X66751217Y-91357141D01*
X66751217Y-91357141D02*
X66751217Y-91642855D01*
X66751217Y-91642855D02*
X66822646Y-91785712D01*
X66822646Y-91785712D02*
X66894074Y-91857141D01*
X66894074Y-91857141D02*
X67036932Y-91928569D01*
X67036932Y-91928569D02*
X67322646Y-91928569D01*
X67322646Y-91928569D02*
X67465503Y-91857141D01*
X67465503Y-91857141D02*
X67536932Y-91785712D01*
X67536932Y-91785712D02*
X67608360Y-91642855D01*
X67608360Y-91642855D02*
X67608360Y-91357141D01*
X67608360Y-91357141D02*
X67536932Y-91214284D01*
X67536932Y-91214284D02*
X67465503Y-91142855D01*
X67465503Y-91142855D02*
X67322646Y-91071426D01*
X67322646Y-91071426D02*
X67036932Y-91071426D01*
X67036932Y-91071426D02*
X66894074Y-91142855D01*
X66894074Y-91142855D02*
X66822646Y-91214284D01*
X66822646Y-91214284D02*
X66751217Y-91357141D01*
X66108360Y-90142855D02*
X66108360Y-89999998D01*
X66108360Y-89999998D02*
X66179789Y-89857141D01*
X66179789Y-89857141D02*
X66251217Y-89785713D01*
X66251217Y-89785713D02*
X66394074Y-89714284D01*
X66394074Y-89714284D02*
X66679789Y-89642855D01*
X66679789Y-89642855D02*
X67036932Y-89642855D01*
X67036932Y-89642855D02*
X67322646Y-89714284D01*
X67322646Y-89714284D02*
X67465503Y-89785713D01*
X67465503Y-89785713D02*
X67536932Y-89857141D01*
X67536932Y-89857141D02*
X67608360Y-89999998D01*
X67608360Y-89999998D02*
X67608360Y-90142855D01*
X67608360Y-90142855D02*
X67536932Y-90285713D01*
X67536932Y-90285713D02*
X67465503Y-90357141D01*
X67465503Y-90357141D02*
X67322646Y-90428570D01*
X67322646Y-90428570D02*
X67036932Y-90499998D01*
X67036932Y-90499998D02*
X66679789Y-90499998D01*
X66679789Y-90499998D02*
X66394074Y-90428570D01*
X66394074Y-90428570D02*
X66251217Y-90357141D01*
X66251217Y-90357141D02*
X66179789Y-90285713D01*
X66179789Y-90285713D02*
X66108360Y-90142855D01*
X67465503Y-88999999D02*
X67536932Y-88928570D01*
X67536932Y-88928570D02*
X67608360Y-88999999D01*
X67608360Y-88999999D02*
X67536932Y-89071427D01*
X67536932Y-89071427D02*
X67465503Y-88999999D01*
X67465503Y-88999999D02*
X67608360Y-88999999D01*
X66108360Y-87999998D02*
X66108360Y-87857141D01*
X66108360Y-87857141D02*
X66179789Y-87714284D01*
X66179789Y-87714284D02*
X66251217Y-87642856D01*
X66251217Y-87642856D02*
X66394074Y-87571427D01*
X66394074Y-87571427D02*
X66679789Y-87499998D01*
X66679789Y-87499998D02*
X67036932Y-87499998D01*
X67036932Y-87499998D02*
X67322646Y-87571427D01*
X67322646Y-87571427D02*
X67465503Y-87642856D01*
X67465503Y-87642856D02*
X67536932Y-87714284D01*
X67536932Y-87714284D02*
X67608360Y-87857141D01*
X67608360Y-87857141D02*
X67608360Y-87999998D01*
X67608360Y-87999998D02*
X67536932Y-88142856D01*
X67536932Y-88142856D02*
X67465503Y-88214284D01*
X67465503Y-88214284D02*
X67322646Y-88285713D01*
X67322646Y-88285713D02*
X67036932Y-88357141D01*
X67036932Y-88357141D02*
X66679789Y-88357141D01*
X66679789Y-88357141D02*
X66394074Y-88285713D01*
X66394074Y-88285713D02*
X66251217Y-88214284D01*
X66251217Y-88214284D02*
X66179789Y-88142856D01*
X66179789Y-88142856D02*
X66108360Y-87999998D01*
X66108360Y-86571427D02*
X66108360Y-86428570D01*
X66108360Y-86428570D02*
X66179789Y-86285713D01*
X66179789Y-86285713D02*
X66251217Y-86214285D01*
X66251217Y-86214285D02*
X66394074Y-86142856D01*
X66394074Y-86142856D02*
X66679789Y-86071427D01*
X66679789Y-86071427D02*
X67036932Y-86071427D01*
X67036932Y-86071427D02*
X67322646Y-86142856D01*
X67322646Y-86142856D02*
X67465503Y-86214285D01*
X67465503Y-86214285D02*
X67536932Y-86285713D01*
X67536932Y-86285713D02*
X67608360Y-86428570D01*
X67608360Y-86428570D02*
X67608360Y-86571427D01*
X67608360Y-86571427D02*
X67536932Y-86714285D01*
X67536932Y-86714285D02*
X67465503Y-86785713D01*
X67465503Y-86785713D02*
X67322646Y-86857142D01*
X67322646Y-86857142D02*
X67036932Y-86928570D01*
X67036932Y-86928570D02*
X66679789Y-86928570D01*
X66679789Y-86928570D02*
X66394074Y-86857142D01*
X66394074Y-86857142D02*
X66251217Y-86785713D01*
X66251217Y-86785713D02*
X66179789Y-86714285D01*
X66179789Y-86714285D02*
X66108360Y-86571427D01*
X66108360Y-85142856D02*
X66108360Y-84999999D01*
X66108360Y-84999999D02*
X66179789Y-84857142D01*
X66179789Y-84857142D02*
X66251217Y-84785714D01*
X66251217Y-84785714D02*
X66394074Y-84714285D01*
X66394074Y-84714285D02*
X66679789Y-84642856D01*
X66679789Y-84642856D02*
X67036932Y-84642856D01*
X67036932Y-84642856D02*
X67322646Y-84714285D01*
X67322646Y-84714285D02*
X67465503Y-84785714D01*
X67465503Y-84785714D02*
X67536932Y-84857142D01*
X67536932Y-84857142D02*
X67608360Y-84999999D01*
X67608360Y-84999999D02*
X67608360Y-85142856D01*
X67608360Y-85142856D02*
X67536932Y-85285714D01*
X67536932Y-85285714D02*
X67465503Y-85357142D01*
X67465503Y-85357142D02*
X67322646Y-85428571D01*
X67322646Y-85428571D02*
X67036932Y-85499999D01*
X67036932Y-85499999D02*
X66679789Y-85499999D01*
X66679789Y-85499999D02*
X66394074Y-85428571D01*
X66394074Y-85428571D02*
X66251217Y-85357142D01*
X66251217Y-85357142D02*
X66179789Y-85285714D01*
X66179789Y-85285714D02*
X66108360Y-85142856D01*
X66108360Y-83714285D02*
X66108360Y-83571428D01*
X66108360Y-83571428D02*
X66179789Y-83428571D01*
X66179789Y-83428571D02*
X66251217Y-83357143D01*
X66251217Y-83357143D02*
X66394074Y-83285714D01*
X66394074Y-83285714D02*
X66679789Y-83214285D01*
X66679789Y-83214285D02*
X67036932Y-83214285D01*
X67036932Y-83214285D02*
X67322646Y-83285714D01*
X67322646Y-83285714D02*
X67465503Y-83357143D01*
X67465503Y-83357143D02*
X67536932Y-83428571D01*
X67536932Y-83428571D02*
X67608360Y-83571428D01*
X67608360Y-83571428D02*
X67608360Y-83714285D01*
X67608360Y-83714285D02*
X67536932Y-83857143D01*
X67536932Y-83857143D02*
X67465503Y-83928571D01*
X67465503Y-83928571D02*
X67322646Y-84000000D01*
X67322646Y-84000000D02*
X67036932Y-84071428D01*
X67036932Y-84071428D02*
X66679789Y-84071428D01*
X66679789Y-84071428D02*
X66394074Y-84000000D01*
X66394074Y-84000000D02*
X66251217Y-83928571D01*
X66251217Y-83928571D02*
X66179789Y-83857143D01*
X66179789Y-83857143D02*
X66108360Y-83714285D01*
X67608360Y-81428572D02*
X66608360Y-81428572D01*
X66751217Y-81428572D02*
X66679789Y-81357143D01*
X66679789Y-81357143D02*
X66608360Y-81214286D01*
X66608360Y-81214286D02*
X66608360Y-81000000D01*
X66608360Y-81000000D02*
X66679789Y-80857143D01*
X66679789Y-80857143D02*
X66822646Y-80785715D01*
X66822646Y-80785715D02*
X67608360Y-80785715D01*
X66822646Y-80785715D02*
X66679789Y-80714286D01*
X66679789Y-80714286D02*
X66608360Y-80571429D01*
X66608360Y-80571429D02*
X66608360Y-80357143D01*
X66608360Y-80357143D02*
X66679789Y-80214286D01*
X66679789Y-80214286D02*
X66822646Y-80142857D01*
X66822646Y-80142857D02*
X67608360Y-80142857D01*
X67608360Y-79428572D02*
X66608360Y-79428572D01*
X66751217Y-79428572D02*
X66679789Y-79357143D01*
X66679789Y-79357143D02*
X66608360Y-79214286D01*
X66608360Y-79214286D02*
X66608360Y-79000000D01*
X66608360Y-79000000D02*
X66679789Y-78857143D01*
X66679789Y-78857143D02*
X66822646Y-78785715D01*
X66822646Y-78785715D02*
X67608360Y-78785715D01*
X66822646Y-78785715D02*
X66679789Y-78714286D01*
X66679789Y-78714286D02*
X66608360Y-78571429D01*
X66608360Y-78571429D02*
X66608360Y-78357143D01*
X66608360Y-78357143D02*
X66679789Y-78214286D01*
X66679789Y-78214286D02*
X66822646Y-78142857D01*
X66822646Y-78142857D02*
X67608360Y-78142857D01*
D12*
X74500000Y-125000000D02*
X68143612Y-125000000D01*
X74500000Y-45000000D02*
X68143612Y-45000000D01*
X68730032Y-125000000D02*
X68730032Y-45000000D01*
X68730032Y-125000000D02*
X68730032Y-45000000D01*
X68730032Y-125000000D02*
X68143611Y-123873496D01*
X68730032Y-125000000D02*
X69316453Y-123873496D01*
X68730032Y-45000000D02*
X69316453Y-46126504D01*
X68730032Y-45000000D02*
X68143611Y-46126504D01*
D13*
%TO.P,J2,1,Pin_1*%
%TO.N,/~{RESET}*%
X105000000Y-122750000D03*
D14*
%TO.P,J2,2,Pin_2*%
%TO.N,/BOOT0*%
X107540000Y-122750000D03*
%TO.P,J2,3,Pin_3*%
%TO.N,/UART_RX*%
X110080000Y-122750000D03*
%TO.P,J2,4,Pin_4*%
%TO.N,/UART_TX*%
X112620000Y-122750000D03*
%TO.P,J2,5,Pin_5*%
%TO.N,unconnected-(J2-Pin_5-Pad5)*%
X115160000Y-122750000D03*
%TO.P,J2,6,Pin_6*%
%TO.N,unconnected-(J2-Pin_6-Pad6)*%
X117700000Y-122750000D03*
%TO.P,J2,7,Pin_7*%
%TO.N,unconnected-(J2-Pin_7-Pad7)*%
X120240000Y-122750000D03*
%TO.P,J2,8,Pin_8*%
%TO.N,unconnected-(J2-Pin_8-Pad8)*%
X122780000Y-122750000D03*
%TO.P,J2,9,Pin_9*%
%TO.N,unconnected-(J2-Pin_9-Pad9)*%
X125320000Y-122750000D03*
%TO.P,J2,10,Pin_10*%
%TO.N,unconnected-(J2-Pin_10-Pad10)*%
X127860000Y-122750000D03*
%TO.P,J2,11,Pin_11*%
%TO.N,/NEOPIX*%
X130400000Y-122750000D03*
%TO.P,J2,12,Pin_12*%
%TO.N,+5V*%
X132940000Y-122750000D03*
%TO.P,J2,13,Pin_13*%
%TO.N,3.3V*%
X135480000Y-122750000D03*
%TO.P,J2,14,Pin_14*%
%TO.N,GND*%
X138020000Y-122750000D03*
%TD*%
D15*
%TO.P,R11,1*%
%TO.N,/LAT_3V*%
X98500000Y-95750000D03*
%TO.P,R11,2*%
%TO.N,Net-(U2-A1)*%
X98500000Y-97750000D03*
%TD*%
D16*
%TO.P,R22,1*%
%TO.N,Net-(U3-B8)*%
X145750000Y-93250000D03*
%TO.P,R22,2*%
%TO.N,/M1_A*%
X145750000Y-94900000D03*
%TD*%
D17*
%TO.P,RST1,1,P*%
%TO.N,GND*%
X78385000Y-76300000D03*
%TO.P,RST1,2,S*%
%TO.N,/~{RESET}*%
X78385000Y-80500000D03*
D18*
%TO.P,RST1,S1,S1*%
%TO.N,unconnected-(RST1-PadS1)*%
X76500000Y-75025000D03*
%TO.P,RST1,S2,S2*%
%TO.N,unconnected-(RST1-PadS2)*%
X76500000Y-81775000D03*
%TD*%
D19*
%TO.P,R12,1*%
%TO.N,Net-(U2-B2)*%
X124850000Y-93750000D03*
%TO.P,R12,2*%
%TO.N,/M1_R1*%
X126500000Y-93750000D03*
%TD*%
%TO.P,R17,1*%
%TO.N,Net-(U2-B7)*%
X120175000Y-115000000D03*
%TO.P,R17,2*%
%TO.N,/M1_B2*%
X121825000Y-115000000D03*
%TD*%
D20*
%TO.P,C8,1,1*%
%TO.N,GND*%
X82712500Y-72500000D03*
%TO.P,C8,2,2*%
%TO.N,3.3V*%
X84787500Y-72500000D03*
%TD*%
D19*
%TO.P,R15,1*%
%TO.N,Net-(U2-B5)*%
X123350000Y-106500000D03*
%TO.P,R15,2*%
%TO.N,/M1_R2*%
X125000000Y-106500000D03*
%TD*%
D21*
%TO.P,U2,1,T/R*%
%TO.N,+5V*%
X106775000Y-104635000D03*
%TO.P,U2,2,A1*%
%TO.N,Net-(U2-A1)*%
X106775000Y-105905000D03*
%TO.P,U2,3,A2*%
%TO.N,/R1_3V*%
X106775000Y-107175000D03*
%TO.P,U2,4,A3*%
%TO.N,/G1_3V*%
X106775000Y-108445000D03*
%TO.P,U2,5,A4*%
%TO.N,/B1_3V*%
X106775000Y-109715000D03*
%TO.P,U2,6,A5*%
%TO.N,/R2_3V*%
X106775000Y-110985000D03*
%TO.P,U2,7,A6*%
%TO.N,/G2_3V*%
X106775000Y-112255000D03*
%TO.P,U2,8,A7*%
%TO.N,/B2_3V*%
X106775000Y-113525000D03*
%TO.P,U2,9,A8*%
%TO.N,Net-(U2-A8)*%
X106775000Y-114795000D03*
%TO.P,U2,10,GND*%
%TO.N,GND*%
X106775000Y-116065000D03*
%TO.P,U2,11,B8*%
%TO.N,/OE*%
X116075000Y-116065000D03*
%TO.P,U2,12,B7*%
%TO.N,Net-(U2-B7)*%
X116075000Y-114795000D03*
%TO.P,U2,13,B6*%
%TO.N,Net-(U2-B6)*%
X116075000Y-113525000D03*
%TO.P,U2,14,B5*%
%TO.N,Net-(U2-B5)*%
X116075000Y-112255000D03*
%TO.P,U2,15,B4*%
%TO.N,Net-(U2-B4)*%
X116075000Y-110985000D03*
%TO.P,U2,16,B3*%
%TO.N,Net-(U2-B3)*%
X116075000Y-109715000D03*
%TO.P,U2,17,B2*%
%TO.N,Net-(U2-B2)*%
X116075000Y-108445000D03*
%TO.P,U2,18,B1*%
%TO.N,/LAT*%
X116075000Y-107175000D03*
%TO.P,U2,19,/OE*%
%TO.N,GND*%
X116075000Y-105905000D03*
%TO.P,U2,20,VCC*%
%TO.N,+5V*%
X116075000Y-104635000D03*
%TD*%
D15*
%TO.P,R6,1,1*%
%TO.N,Net-(D1-K)*%
X107000000Y-97500000D03*
%TO.P,R6,2,2*%
%TO.N,GND*%
X107000000Y-99500000D03*
%TD*%
D21*
%TO.P,U3,1,T/R*%
%TO.N,+5V*%
X129975000Y-72245000D03*
%TO.P,U3,2,A1*%
%TO.N,GND*%
X129975000Y-73515000D03*
%TO.P,U3,3,A2*%
X129975000Y-74785000D03*
%TO.P,U3,4,A3*%
%TO.N,Net-(U3-A3)*%
X129975000Y-76055000D03*
%TO.P,U3,5,A4*%
%TO.N,/ADDRE_3V*%
X129975000Y-77325000D03*
%TO.P,U3,6,A5*%
%TO.N,/ADDRD_3V*%
X129975000Y-78595000D03*
%TO.P,U3,7,A6*%
%TO.N,/ADDRC_3V*%
X129975000Y-79865000D03*
%TO.P,U3,8,A7*%
%TO.N,/ADDRB_3V*%
X129975000Y-81135000D03*
%TO.P,U3,9,A8*%
%TO.N,/ADDRA_3V*%
X129975000Y-82405000D03*
%TO.P,U3,10,GND*%
%TO.N,GND*%
X129975000Y-83675000D03*
%TO.P,U3,11,B8*%
%TO.N,Net-(U3-B8)*%
X139275000Y-83675000D03*
%TO.P,U3,12,B7*%
%TO.N,Net-(U3-B7)*%
X139275000Y-82405000D03*
%TO.P,U3,13,B6*%
%TO.N,Net-(U3-B6)*%
X139275000Y-81135000D03*
%TO.P,U3,14,B5*%
%TO.N,Net-(U3-B5)*%
X139275000Y-79865000D03*
%TO.P,U3,15,B4*%
%TO.N,Net-(U3-B4)*%
X139275000Y-78595000D03*
%TO.P,U3,16,B3*%
%TO.N,/CLK*%
X139275000Y-77325000D03*
%TO.P,U3,17,B2*%
%TO.N,unconnected-(U3-B2-Pad17)*%
X139275000Y-76055000D03*
%TO.P,U3,18,B1*%
%TO.N,unconnected-(U3-B1-Pad18)*%
X139275000Y-74785000D03*
%TO.P,U3,19,/OE*%
%TO.N,GND*%
X139275000Y-73515000D03*
%TO.P,U3,20,VCC*%
%TO.N,+5V*%
X139275000Y-72245000D03*
%TD*%
D16*
%TO.P,R20,1*%
%TO.N,Net-(U3-B6)*%
X146500000Y-82925000D03*
%TO.P,R20,2*%
%TO.N,/M1_C*%
X146500000Y-84575000D03*
%TD*%
D15*
%TO.P,R23,1*%
%TO.N,/CC2A*%
X94000000Y-120500000D03*
%TO.P,R23,2*%
%TO.N,GND*%
X94000000Y-118500000D03*
%TD*%
D22*
%TO.P,J1,01,01*%
%TO.N,/M1_R1*%
X136250000Y-93750000D03*
D23*
%TO.P,J1,02,02*%
%TO.N,/M1_G1*%
X138790000Y-93750000D03*
%TO.P,J1,03,03*%
%TO.N,/M1_B1*%
X136250000Y-96290000D03*
%TO.P,J1,04,04*%
%TO.N,GND*%
X138790000Y-96290000D03*
%TO.P,J1,05,05*%
%TO.N,/M1_R2*%
X136250000Y-98830000D03*
%TO.P,J1,06,06*%
%TO.N,/M1_G2*%
X138790000Y-98830000D03*
%TO.P,J1,07,07*%
%TO.N,/M1_B2*%
X136250000Y-101370000D03*
%TO.P,J1,08,08*%
%TO.N,/M1_E8*%
X138790000Y-101370000D03*
%TO.P,J1,09,09*%
%TO.N,/M1_A*%
X136250000Y-103910000D03*
%TO.P,J1,10,10*%
%TO.N,/M1_B*%
X138790000Y-103910000D03*
%TO.P,J1,11,11*%
%TO.N,/M1_C*%
X136250000Y-106450000D03*
%TO.P,J1,12,12*%
%TO.N,/M1_D*%
X138790000Y-106450000D03*
%TO.P,J1,13,13*%
%TO.N,/CLK*%
X136250000Y-108990000D03*
%TO.P,J1,14,14*%
%TO.N,/LAT*%
X138790000Y-108990000D03*
%TO.P,J1,15,15*%
%TO.N,/OE*%
X136250000Y-111530000D03*
%TO.P,J1,16,16*%
%TO.N,/M1_E16*%
X138790000Y-111530000D03*
%TD*%
D24*
%TO.P,C15,1*%
%TO.N,+5V*%
X78250000Y-120225000D03*
%TO.P,C15,2*%
%TO.N,GND*%
X78250000Y-121775000D03*
%TD*%
D25*
%TO.P,C14,1,1*%
%TO.N,GND*%
X111500000Y-100750000D03*
%TO.P,C14,2,2*%
%TO.N,+5V*%
X111500000Y-98675000D03*
%TD*%
D26*
%TO.P,LED1,1,DI*%
%TO.N,Net-(LED1-DI)*%
X145100000Y-67500000D03*
%TO.P,LED1,2,VDD*%
%TO.N,3.3V*%
X145100000Y-70800000D03*
%TO.P,LED1,3,DO*%
%TO.N,unconnected-(LED1-DO-Pad3)*%
X150000000Y-70800000D03*
%TO.P,LED1,4,GND*%
%TO.N,GND*%
X150000000Y-67500000D03*
%TD*%
D15*
%TO.P,R4,1,1*%
%TO.N,+5V*%
X147750000Y-103500000D03*
%TO.P,R4,2,2*%
%TO.N,Net-(D2-A)*%
X147750000Y-105500000D03*
%TD*%
D17*
%TO.P,DOWN1,1,P*%
%TO.N,GND*%
X78385000Y-96300000D03*
%TO.P,DOWN1,2,S*%
%TO.N,/DOWN*%
X78385000Y-100500000D03*
D18*
%TO.P,DOWN1,S1,S1*%
%TO.N,unconnected-(DOWN1-PadS1)*%
X76500000Y-95025000D03*
%TO.P,DOWN1,S2,S2*%
%TO.N,unconnected-(DOWN1-PadS2)*%
X76500000Y-101775000D03*
%TD*%
D27*
%TO.P,R7,1*%
%TO.N,/NEOPIX*%
X114250000Y-94500000D03*
%TO.P,R7,2*%
%TO.N,Net-(LED1-DI)*%
X116250000Y-94500000D03*
%TD*%
D28*
%TO.P,D1,1,K*%
%TO.N,Net-(D1-K)*%
X102750000Y-97287500D03*
%TO.P,D1,2,A*%
%TO.N,/D13*%
X102750000Y-95712500D03*
%TD*%
D25*
%TO.P,C13,1,1*%
%TO.N,GND*%
X151250000Y-83500000D03*
%TO.P,C13,2,2*%
%TO.N,3.3V*%
X151250000Y-81425000D03*
%TD*%
D29*
%TO.P,C6,1,1*%
%TO.N,/~{RESET}*%
X83250000Y-106175000D03*
%TO.P,C6,2,2*%
%TO.N,GND*%
X83250000Y-108250000D03*
%TD*%
D24*
%TO.P,C16,1*%
%TO.N,3.3V*%
X151250000Y-75725000D03*
%TO.P,C16,2*%
%TO.N,GND*%
X151250000Y-77275000D03*
%TD*%
D30*
%TO.P,SJ1,1,1*%
%TO.N,/M1_E8*%
X126500000Y-112000000D03*
D31*
%TO.P,SJ1,2,2*%
%TO.N,/M1_E*%
X126500000Y-113300000D03*
D32*
%TO.P,SJ1,3,3*%
%TO.N,/M1_E16*%
X126500000Y-114600000D03*
%TD*%
D24*
%TO.P,C1,1*%
%TO.N,+5V*%
X124750000Y-72225000D03*
%TO.P,C1,2*%
%TO.N,GND*%
X124750000Y-73775000D03*
%TD*%
D20*
%TO.P,C7,1,1*%
%TO.N,GND*%
X82712500Y-76250000D03*
%TO.P,C7,2,2*%
%TO.N,3.3V*%
X84787500Y-76250000D03*
%TD*%
D33*
%TO.P,R25,1*%
%TO.N,/CC2B*%
X137250000Y-55750000D03*
%TO.P,R25,2*%
%TO.N,GND*%
X137250000Y-57750000D03*
%TD*%
D27*
%TO.P,R1,1,1*%
%TO.N,/BOOT0*%
X145250000Y-62750000D03*
%TO.P,R1,2,2*%
%TO.N,3.3V*%
X147250000Y-62750000D03*
%TD*%
D26*
%TO.P,U1,1,GND*%
%TO.N,GND*%
X93250000Y-72590000D03*
%TO.P,U1,2,3V3*%
%TO.N,3.3V*%
X93250000Y-73860000D03*
%TO.P,U1,3,EN*%
%TO.N,/~{RESET}*%
X93250000Y-75130000D03*
%TO.P,U1,4,IO4*%
%TO.N,/CLK_3V*%
X93250000Y-76400000D03*
%TO.P,U1,5,IO5*%
%TO.N,/NC*%
X93250000Y-77670000D03*
%TO.P,U1,6,IO6*%
%TO.N,/NC1*%
X93250000Y-78940000D03*
%TO.P,U1,7,IO7*%
%TO.N,/NC2*%
X93250000Y-80210000D03*
%TO.P,U1,8,IO15*%
%TO.N,/NC4*%
X93250000Y-81480000D03*
%TO.P,U1,9,IO16*%
%TO.N,/NC5*%
X93250000Y-82750000D03*
%TO.P,U1,10,IO17*%
%TO.N,/OE_3V*%
X93250000Y-84020000D03*
%TO.P,U1,11,IO18*%
%TO.N,/B2_3V*%
X93250000Y-85290000D03*
%TO.P,U1,12,IO8*%
%TO.N,/G2_3V*%
X93250000Y-86560000D03*
%TO.P,U1,13,IO19*%
%TO.N,/DA-*%
X93250000Y-87830000D03*
%TO.P,U1,14,IO20*%
%TO.N,/DA+*%
X93250000Y-89100000D03*
D34*
%TO.P,U1,15,IO3*%
%TO.N,/R2_3V*%
X95015000Y-90350000D03*
%TO.P,U1,16,IO46*%
%TO.N,/NC8*%
X96285000Y-90350000D03*
%TO.P,U1,17,IO9*%
%TO.N,/B1_3V*%
X97555000Y-90350000D03*
%TO.P,U1,18,IO10*%
%TO.N,/G1_3V*%
X98825000Y-90350000D03*
%TO.P,U1,19,IO11*%
%TO.N,/R1_3V*%
X100095000Y-90350000D03*
%TO.P,U1,20,IO12*%
%TO.N,/LAT_3V*%
X101365000Y-90350000D03*
%TO.P,U1,21,IO13*%
%TO.N,/D13*%
X102635000Y-90350000D03*
%TO.P,U1,22,IO14*%
%TO.N,/NC3*%
X103905000Y-90350000D03*
%TO.P,U1,23,IO21*%
%TO.N,/NC9*%
X105175000Y-90350000D03*
%TO.P,U1,24,IO47*%
%TO.N,/NC7*%
X106445000Y-90350000D03*
%TO.P,U1,25,IO48*%
%TO.N,/NC6*%
X107715000Y-90350000D03*
%TO.P,U1,26,IO45*%
%TO.N,/NEOPIX*%
X108985000Y-90350000D03*
D26*
%TO.P,U1,27,IO0*%
%TO.N,/BOOT0*%
X110750000Y-89100000D03*
%TO.P,U1,28,IO35*%
%TO.N,unconnected-(U1-IO35-Pad28)*%
X110750000Y-87830000D03*
%TO.P,U1,29,IO36*%
%TO.N,unconnected-(U1-IO36-Pad29)*%
X110750000Y-86560000D03*
%TO.P,U1,30,IO37*%
%TO.N,unconnected-(U1-IO37-Pad30)*%
X110750000Y-85290000D03*
%TO.P,U1,31,IO38*%
%TO.N,/ADDRA_3V*%
X110750000Y-84020000D03*
%TO.P,U1,32,IO39*%
%TO.N,/ADDRB_3V*%
X110750000Y-82750000D03*
%TO.P,U1,33,IO40*%
%TO.N,/ADDRC_3V*%
X110750000Y-81480000D03*
%TO.P,U1,34,IO41*%
%TO.N,/ADDRD_3V*%
X110750000Y-80210000D03*
%TO.P,U1,35,IO42*%
%TO.N,/ADDRE_3V*%
X110750000Y-78940000D03*
%TO.P,U1,36,RXD0*%
%TO.N,/UART_RX*%
X110750000Y-77670000D03*
%TO.P,U1,37,TXD0*%
%TO.N,/UART_TX*%
X110750000Y-76400000D03*
%TO.P,U1,38,IO2*%
%TO.N,/DOWN*%
X110750000Y-75130000D03*
%TO.P,U1,39,IO1*%
%TO.N,/UP*%
X110750000Y-73860000D03*
%TO.P,U1,40,GND*%
%TO.N,GND*%
X110750000Y-72590000D03*
D35*
%TO.P,U1,41,GND*%
X99100000Y-79610000D03*
X99100000Y-81010000D03*
X99800000Y-78910000D03*
X99800000Y-80310000D03*
X99800000Y-81710000D03*
X100500000Y-79610000D03*
D36*
X100500000Y-80310000D03*
D35*
X100500000Y-81010000D03*
X101200000Y-78910000D03*
X101200000Y-80310000D03*
X101200000Y-81710000D03*
X101900000Y-79610000D03*
X101900000Y-81010000D03*
%TD*%
D33*
%TO.P,R27,1*%
%TO.N,/DP_A*%
X93000000Y-97250000D03*
%TO.P,R27,2*%
%TO.N,/DA+*%
X93000000Y-95250000D03*
%TD*%
D24*
%TO.P,C5,1*%
%TO.N,3.3V*%
X98250000Y-118962500D03*
%TO.P,C5,2*%
%TO.N,GND*%
X98250000Y-120512500D03*
%TD*%
D28*
%TO.P,D2,1,K*%
%TO.N,GND*%
X147750000Y-111037500D03*
%TO.P,D2,2,A*%
%TO.N,Net-(D2-A)*%
X147750000Y-109462500D03*
%TD*%
D16*
%TO.P,R3,1*%
%TO.N,/CLK_3V*%
X88750000Y-76425000D03*
%TO.P,R3,2*%
%TO.N,Net-(U3-A3)*%
X88750000Y-78075000D03*
%TD*%
D17*
%TO.P,UP1,1,P*%
%TO.N,GND*%
X78500000Y-86300000D03*
%TO.P,UP1,2,S*%
%TO.N,/UP*%
X78500000Y-90500000D03*
D18*
%TO.P,UP1,S1,S1*%
%TO.N,unconnected-(UP1-PadS1)*%
X76615000Y-85025000D03*
%TO.P,UP1,S2,S2*%
%TO.N,unconnected-(UP1-PadS2)*%
X76615000Y-91775000D03*
%TD*%
D15*
%TO.P,R26,1*%
%TO.N,/CC1B*%
X150750000Y-57750000D03*
%TO.P,R26,2*%
%TO.N,GND*%
X150750000Y-55750000D03*
%TD*%
D37*
%TO.P,R10,1*%
%TO.N,/OE_3V*%
X89250000Y-84000000D03*
%TO.P,R10,2*%
%TO.N,Net-(U2-A8)*%
X87250000Y-84000000D03*
%TD*%
D25*
%TO.P,C4,1,1*%
%TO.N,GND*%
X98500000Y-114787500D03*
%TO.P,C4,2,2*%
%TO.N,3.3V*%
X98500000Y-112712500D03*
%TD*%
D24*
%TO.P,C2,1*%
%TO.N,+5V*%
X116000000Y-98725000D03*
%TO.P,C2,2*%
%TO.N,GND*%
X116000000Y-100275000D03*
%TD*%
D38*
%TO.P,U4,1,VIN*%
%TO.N,+5V*%
X88565000Y-108300000D03*
%TO.P,U4,2,GND*%
%TO.N,GND*%
X88565000Y-109250000D03*
%TO.P,U4,3,EN*%
%TO.N,+5V*%
X88565000Y-110200000D03*
%TO.P,U4,4,NC*%
%TO.N,unconnected-(U4-NC-Pad4)*%
X90935000Y-110200000D03*
%TO.P,U4,5,VOUT*%
%TO.N,3.3V*%
X90935000Y-108300000D03*
%TD*%
D15*
%TO.P,R28,1*%
%TO.N,/DN_B*%
X141750000Y-55750000D03*
%TO.P,R28,2*%
%TO.N,/DB-*%
X141750000Y-57750000D03*
%TD*%
%TO.P,R8,1*%
%TO.N,/DN_A*%
X88500000Y-94250000D03*
%TO.P,R8,2*%
%TO.N,/DA-*%
X88500000Y-92250000D03*
%TD*%
%TO.P,R5,1,1*%
%TO.N,Net-(D3-K)*%
X147750000Y-120500000D03*
%TO.P,R5,2,2*%
%TO.N,GND*%
X147750000Y-122500000D03*
%TD*%
D28*
%TO.P,D3,1,K*%
%TO.N,Net-(D3-K)*%
X147750000Y-116537500D03*
%TO.P,D3,2,A*%
%TO.N,3.3V*%
X147750000Y-114962500D03*
%TD*%
D19*
%TO.P,R14,1*%
%TO.N,Net-(U2-B4)*%
X123350000Y-102750000D03*
%TO.P,R14,2*%
%TO.N,/M1_B1*%
X125000000Y-102750000D03*
%TD*%
%TO.P,R19,1*%
%TO.N,Net-(U3-B5)*%
X145425000Y-79750000D03*
%TO.P,R19,2*%
%TO.N,/M1_D*%
X147075000Y-79750000D03*
%TD*%
D39*
%TO.P,X1,A1,GND*%
%TO.N,GND*%
X84250000Y-118890000D03*
D40*
%TO.P,X1,A4,VBUS*%
%TO.N,+5V*%
X85100000Y-118890000D03*
%TO.P,X1,A5,CC1*%
%TO.N,/CC1A*%
X85950000Y-118890000D03*
%TO.P,X1,A6,DP1*%
%TO.N,/DP_A*%
X86800000Y-118890000D03*
%TO.P,X1,A7,DN1*%
%TO.N,/DN_A*%
X87650000Y-118890000D03*
%TO.P,X1,A8,SBU1*%
%TO.N,unconnected-(X1-SBU1-PadA8)*%
X88500000Y-118890000D03*
%TO.P,X1,A9,VBUS*%
%TO.N,+5V*%
X89350000Y-118890000D03*
%TO.P,X1,A12,GND*%
%TO.N,GND*%
X90200000Y-118890000D03*
%TO.P,X1,B1,GND*%
X90200000Y-120240000D03*
%TO.P,X1,B4,VBUS*%
%TO.N,+5V*%
X89350000Y-120240000D03*
%TO.P,X1,B5,CC2*%
%TO.N,/CC2A*%
X88500000Y-120240000D03*
%TO.P,X1,B6,DP2*%
%TO.N,/DP_A*%
X87650000Y-120240000D03*
%TO.P,X1,B7,DN2*%
%TO.N,/DN_A*%
X86800000Y-120240000D03*
%TO.P,X1,B8,SBU2*%
%TO.N,unconnected-(X1-SBU2-PadB8)*%
X85950000Y-120240000D03*
%TO.P,X1,B9,VBUS*%
%TO.N,+5V*%
X85100000Y-120240000D03*
%TO.P,X1,B12,GND*%
%TO.N,GND*%
X84250000Y-120240000D03*
D41*
%TO.P,X1,SH1,SHIELD*%
%TO.N,unconnected-(X1-SHIELD-PadSH1)_1*%
X82900000Y-123250000D03*
%TO.P,X1,SH2,SHIELD*%
%TO.N,unconnected-(X1-SHIELD-PadSH1)_3*%
X91550000Y-123250000D03*
D42*
%TO.P,X1,SH3,SHIELD*%
%TO.N,unconnected-(X1-SHIELD-PadSH1)*%
X82900000Y-119870000D03*
%TO.P,X1,SH4,SHIELD*%
%TO.N,unconnected-(X1-SHIELD-PadSH1)_2*%
X91550000Y-119870000D03*
%TD*%
D25*
%TO.P,C3,1,1*%
%TO.N,GND*%
X78500000Y-114500000D03*
%TO.P,C3,2,2*%
%TO.N,+5V*%
X78500000Y-112425000D03*
%TD*%
D43*
%TO.P,C17,1*%
%TO.N,3.3V*%
X84525000Y-81000000D03*
%TO.P,C17,2*%
%TO.N,GND*%
X82975000Y-81000000D03*
%TD*%
D44*
%TO.P,SW1,1,1*%
%TO.N,/BOOT0*%
X133500000Y-62750000D03*
X140000000Y-62750000D03*
%TO.P,SW1,2,2*%
%TO.N,GND*%
X133500000Y-67250000D03*
X140000000Y-67250000D03*
%TD*%
D19*
%TO.P,R16,1*%
%TO.N,Net-(U2-B6)*%
X120250000Y-111750000D03*
%TO.P,R16,2*%
%TO.N,/M1_G2*%
X121900000Y-111750000D03*
%TD*%
D15*
%TO.P,R29,1*%
%TO.N,/DP_B*%
X146250000Y-55750000D03*
%TO.P,R29,2*%
%TO.N,/DB+*%
X146250000Y-57750000D03*
%TD*%
%TO.P,R2,1,1*%
%TO.N,/~{RESET}*%
X78500000Y-106212500D03*
%TO.P,R2,2,2*%
%TO.N,3.3V*%
X78500000Y-108212500D03*
%TD*%
D19*
%TO.P,R18,1*%
%TO.N,Net-(U3-B4)*%
X145425000Y-75750000D03*
%TO.P,R18,2*%
%TO.N,/M1_E*%
X147075000Y-75750000D03*
%TD*%
D16*
%TO.P,R21,1*%
%TO.N,Net-(U3-B7)*%
X146500000Y-88175000D03*
%TO.P,R21,2*%
%TO.N,/M1_B*%
X146500000Y-89825000D03*
%TD*%
D15*
%TO.P,R24,1*%
%TO.N,/CC1A*%
X94000000Y-112000000D03*
%TO.P,R24,2*%
%TO.N,GND*%
X94000000Y-114000000D03*
%TD*%
D25*
%TO.P,PC1,+,+*%
%TO.N,+5V*%
X83000000Y-112425000D03*
%TO.P,PC1,-,-*%
%TO.N,GND*%
X83000000Y-114500000D03*
%TD*%
D39*
%TO.P,X2,A1,GND*%
%TO.N,GND*%
X146600000Y-51100000D03*
D40*
%TO.P,X2,A4,VBUS*%
%TO.N,Net-(X2-VBUS-PadA4)*%
X145750000Y-51100000D03*
%TO.P,X2,A5,CC1*%
%TO.N,/CC1B*%
X144900000Y-51100000D03*
%TO.P,X2,A6,DP1*%
%TO.N,/DP_B*%
X144050000Y-51100000D03*
%TO.P,X2,A7,DN1*%
%TO.N,/DN_B*%
X143200000Y-51100000D03*
%TO.P,X2,A8,SBU1*%
%TO.N,unconnected-(X2-SBU1-PadA8)*%
X142350000Y-51100000D03*
%TO.P,X2,A9,VBUS*%
%TO.N,Net-(X2-VBUS-PadA4)*%
X141500000Y-51100000D03*
%TO.P,X2,A12,GND*%
%TO.N,GND*%
X140650000Y-51100000D03*
%TO.P,X2,B1,GND*%
X140650000Y-49750000D03*
%TO.P,X2,B4,VBUS*%
%TO.N,Net-(X2-VBUS-PadA4)*%
X141500000Y-49750000D03*
%TO.P,X2,B5,CC2*%
%TO.N,/CC2B*%
X142350000Y-49750000D03*
%TO.P,X2,B6,DP2*%
%TO.N,/DP_B*%
X143200000Y-49750000D03*
%TO.P,X2,B7,DN2*%
%TO.N,/DN_B*%
X144050000Y-49750000D03*
%TO.P,X2,B8,SBU2*%
%TO.N,unconnected-(X2-SBU2-PadB8)*%
X144900000Y-49750000D03*
%TO.P,X2,B9,VBUS*%
%TO.N,Net-(X2-VBUS-PadA4)*%
X145750000Y-49750000D03*
%TO.P,X2,B12,GND*%
%TO.N,GND*%
X146600000Y-49750000D03*
D41*
%TO.P,X2,SH1,SHIELD*%
X147950000Y-46740000D03*
%TO.P,X2,SH2,SHIELD*%
X139300000Y-46740000D03*
D42*
%TO.P,X2,SH3,SHIELD*%
X147950000Y-50120000D03*
%TO.P,X2,SH4,SHIELD*%
X139300000Y-50120000D03*
%TD*%
D19*
%TO.P,R13,1*%
%TO.N,Net-(U2-B3)*%
X124850000Y-98250000D03*
%TO.P,R13,2*%
%TO.N,/M1_G1*%
X126500000Y-98250000D03*
%TD*%
D45*
%TO.N,/~{RESET}*%
X100000000Y-112000000D03*
%TO.N,GND*%
X153000000Y-78500000D03*
X80250000Y-76300000D03*
X127000000Y-74750000D03*
X87250000Y-109250000D03*
%TO.N,/~{RESET}*%
X91244269Y-75130000D03*
%TO.N,/UP*%
X112500000Y-74000000D03*
X80250000Y-90500000D03*
%TO.N,/UART_TX*%
X105250000Y-119000000D03*
X114250000Y-76750000D03*
%TO.N,/UART_RX*%
X105250000Y-120000000D03*
X114250000Y-77670000D03*
%TO.N,/DOWN*%
X112500000Y-75130000D03*
X80250000Y-100500000D03*
%TO.N,/BOOT0*%
X114625000Y-87375000D03*
%TO.N,/NEOPIX*%
X106875000Y-94125000D03*
X129250000Y-119750000D03*
X129250000Y-119750000D03*
%TO.N,+5V*%
X80500000Y-116250000D03*
%TO.N,Net-(LED1-DI)*%
X118250000Y-90500000D03*
X141625000Y-69625000D03*
%TO.N,/CLK*%
X141500000Y-77500000D03*
%TO.N,/LAT*%
X118900000Y-106150000D03*
X129875000Y-108875000D03*
%TO.N,/OE*%
X130000000Y-112750000D03*
X128875000Y-116125000D03*
%TO.N,/M1_E*%
X145000000Y-78000000D03*
X131250000Y-105000000D03*
%TO.N,/DP_A*%
X86574265Y-114024265D03*
X92272794Y-101125000D03*
%TO.N,/DN_A*%
X87650000Y-115250000D03*
X92250000Y-100250000D03*
%TO.N,Net-(U3-A3)*%
X91500000Y-78000000D03*
X118000000Y-76055000D03*
%TD*%
D46*
%TO.N,/~{RESET}*%
X94175000Y-106175000D02*
X100000000Y-112000000D01*
X83250000Y-106175000D02*
X94175000Y-106175000D01*
%TO.N,Net-(U3-A3)*%
X88825000Y-78000000D02*
X88750000Y-78075000D01*
X91500000Y-78000000D02*
X88825000Y-78000000D01*
%TO.N,GND*%
X83375000Y-101625000D02*
X83375000Y-97250000D01*
X77950736Y-103950736D02*
X81049264Y-103950736D01*
X81049264Y-103950736D02*
X83375000Y-101625000D01*
X77825736Y-104075736D02*
X77950736Y-103950736D01*
X76500000Y-105401471D02*
X77825736Y-104075736D01*
X76500000Y-111250000D02*
X76500000Y-105401471D01*
X83375000Y-97250000D02*
X83375000Y-97625000D01*
X83375000Y-89425000D02*
X83375000Y-97250000D01*
X78500000Y-86300000D02*
X80250000Y-86300000D01*
X83375000Y-97625000D02*
X82875000Y-97125000D01*
X80250000Y-86300000D02*
X83375000Y-89425000D01*
X82875000Y-97125000D02*
X82625000Y-96875000D01*
X82050000Y-96300000D02*
X82875000Y-97125000D01*
X77500000Y-110250000D02*
X76500000Y-111250000D01*
X112500000Y-72590000D02*
X114660000Y-74750000D01*
X81250000Y-75462500D02*
X80412500Y-76300000D01*
X151250000Y-83500000D02*
X150250000Y-83500000D01*
X93000000Y-117500000D02*
X91590000Y-117500000D01*
X125750000Y-74750000D02*
X127000000Y-74750000D01*
X80750000Y-76250000D02*
X81500000Y-77000000D01*
X94000000Y-116262500D02*
X92827500Y-116262500D01*
X116000000Y-100275000D02*
X113750000Y-100275000D01*
X137250000Y-57750000D02*
X140650000Y-54350000D01*
X119250000Y-97750000D02*
X119250000Y-101750000D01*
X149500000Y-81750000D02*
X149500000Y-82750000D01*
X153000000Y-70500000D02*
X153000000Y-78750000D01*
X144334314Y-73650000D02*
X142342157Y-71657843D01*
X149500000Y-75750000D02*
X147400000Y-73650000D01*
X81500000Y-80500000D02*
X82000000Y-81000000D01*
X82712500Y-72500000D02*
X81750000Y-72500000D01*
X113275000Y-100750000D02*
X113750000Y-100275000D01*
X127000000Y-74785000D02*
X127000000Y-74785000D01*
X91420000Y-117670000D02*
X90200000Y-118890000D01*
X94000000Y-118500000D02*
X93000000Y-117500000D01*
X140650000Y-54350000D02*
X140650000Y-51100000D01*
X92827500Y-116262500D02*
X91420000Y-117670000D01*
X98500000Y-114787500D02*
X99606250Y-115893750D01*
X80300000Y-76300000D02*
X80350000Y-76250000D01*
X116000000Y-100275000D02*
X117775000Y-100275000D01*
X127000000Y-74750000D02*
X127000000Y-74785000D01*
X151250000Y-83359314D02*
X151250000Y-83500000D01*
X119250000Y-103754999D02*
X117099999Y-105905000D01*
X117099999Y-105905000D02*
X116075000Y-105905000D01*
X83737500Y-71475000D02*
X87975000Y-71475000D01*
X149500000Y-84000000D02*
X149500000Y-111750000D01*
X99000000Y-120512500D02*
X99606250Y-119906250D01*
X124775000Y-73775000D02*
X125750000Y-74750000D01*
X84250000Y-117440000D02*
X83000000Y-116190000D01*
X88565000Y-109250000D02*
X87250000Y-109250000D01*
X153000000Y-78750000D02*
X153000000Y-82500000D01*
X149500000Y-111750000D02*
X149500000Y-121250000D01*
X87975000Y-71475000D02*
X89090000Y-72590000D01*
X129975000Y-83675000D02*
X127825000Y-83675000D01*
X82712500Y-72500000D02*
X83737500Y-71475000D01*
X129975000Y-74785000D02*
X127000000Y-74785000D01*
X129975000Y-73515000D02*
X128270000Y-73515000D01*
X111500000Y-100750000D02*
X113275000Y-100750000D01*
X81250000Y-73000000D02*
X81250000Y-75462500D01*
X78385000Y-96300000D02*
X80250000Y-96300000D01*
X84250000Y-118890000D02*
X84250000Y-117440000D01*
X150750000Y-55750000D02*
X146600000Y-51600000D01*
X140000000Y-67250000D02*
X140000000Y-69315686D01*
X127035000Y-74750000D02*
X127000000Y-74750000D01*
X108250000Y-100750000D02*
X107000000Y-99500000D01*
X149500000Y-121250000D02*
X148250000Y-122500000D01*
X138020000Y-122750000D02*
X147500000Y-122750000D01*
X77750000Y-114500000D02*
X78500000Y-114500000D01*
X150000000Y-67500000D02*
X153000000Y-70500000D01*
X76500000Y-120025000D02*
X76500000Y-113000000D01*
X147500000Y-122750000D02*
X147750000Y-122500000D01*
X76500000Y-113000000D02*
X76500000Y-113250000D01*
X82000000Y-81000000D02*
X82975000Y-81000000D01*
X149500000Y-84000000D02*
X149500000Y-81609314D01*
X81250000Y-110250000D02*
X77500000Y-110250000D01*
X153000000Y-78500000D02*
X153000000Y-78750000D01*
X140985000Y-73515000D02*
X142342157Y-72157843D01*
X146600000Y-51600000D02*
X146600000Y-51100000D01*
X149500000Y-81609314D02*
X149500000Y-75750000D01*
X150250000Y-83500000D02*
X149500000Y-82750000D01*
X140000000Y-69315686D02*
X142342157Y-71657843D01*
X81750000Y-72500000D02*
X81250000Y-73000000D01*
X151250000Y-83500000D02*
X152000000Y-83500000D01*
X148250000Y-122500000D02*
X147750000Y-122500000D01*
X152000000Y-83500000D02*
X153000000Y-82500000D01*
X78250000Y-121775000D02*
X76500000Y-120025000D01*
X124750000Y-73775000D02*
X124775000Y-73775000D01*
X78385000Y-76300000D02*
X80250000Y-76300000D01*
X147400000Y-73650000D02*
X144334314Y-73650000D01*
X83000000Y-114500000D02*
X78500000Y-114500000D01*
X110750000Y-72590000D02*
X112500000Y-72590000D01*
X139275000Y-73515000D02*
X140985000Y-73515000D01*
X101541250Y-116065000D02*
X99606250Y-118000000D01*
X80412500Y-76300000D02*
X80250000Y-76300000D01*
X119250000Y-101750000D02*
X119250000Y-103754999D01*
X76500000Y-113250000D02*
X77750000Y-114500000D01*
X81000000Y-76250000D02*
X82712500Y-76250000D01*
X76500000Y-111250000D02*
X76500000Y-113000000D01*
X80250000Y-76300000D02*
X80300000Y-76300000D01*
X147750000Y-111037500D02*
X148787500Y-111037500D01*
X94000000Y-115090000D02*
X94000000Y-114000000D01*
X91590000Y-117500000D02*
X91420000Y-117670000D01*
X151775000Y-77275000D02*
X153000000Y-78500000D01*
X122750000Y-88750000D02*
X122750000Y-94250000D01*
X80350000Y-76250000D02*
X80750000Y-76250000D01*
X114660000Y-74750000D02*
X125750000Y-74750000D01*
X127825000Y-83675000D02*
X122750000Y-88750000D01*
X149500000Y-81609314D02*
X149500000Y-82750000D01*
X99000000Y-120512500D02*
X98250000Y-120512500D01*
X80250000Y-96300000D02*
X82050000Y-96300000D01*
X111500000Y-100750000D02*
X108250000Y-100750000D01*
X149500000Y-82750000D02*
X149500000Y-84000000D01*
X83000000Y-116190000D02*
X83000000Y-114500000D01*
X94000000Y-116262500D02*
X98250000Y-120512500D01*
X128270000Y-73515000D02*
X127035000Y-74750000D01*
X117775000Y-100275000D02*
X119250000Y-101750000D01*
X106775000Y-116065000D02*
X101541250Y-116065000D01*
X137250000Y-63500000D02*
X137250000Y-57750000D01*
X81500000Y-77000000D02*
X81500000Y-80500000D01*
X148787500Y-111037500D02*
X149500000Y-111750000D01*
X83250000Y-108250000D02*
X81250000Y-110250000D01*
X89090000Y-72590000D02*
X93250000Y-72590000D01*
X142342157Y-72157843D02*
X142342157Y-71657843D01*
X122750000Y-94250000D02*
X119250000Y-97750000D01*
X99606250Y-118000000D02*
X99606250Y-115893750D01*
X133500000Y-67250000D02*
X137250000Y-63500000D01*
X99606250Y-119906250D02*
X99606250Y-118000000D01*
X151250000Y-77275000D02*
X151775000Y-77275000D01*
X92827500Y-116262500D02*
X94000000Y-115090000D01*
X80750000Y-76250000D02*
X81000000Y-76250000D01*
%TO.N,/~{RESET}*%
X91244269Y-75130000D02*
X93250000Y-75130000D01*
X78500000Y-106212500D02*
X83212500Y-106212500D01*
X78385000Y-80115000D02*
X78385000Y-80500000D01*
X83212500Y-106212500D02*
X83250000Y-106175000D01*
%TO.N,/ADDRE_3V*%
X129975000Y-77325000D02*
X118350000Y-77325000D01*
X118350000Y-77325000D02*
X116595000Y-79080000D01*
X116595000Y-79080000D02*
X110775000Y-79080000D01*
%TO.N,/OE_3V*%
X93230000Y-84000000D02*
X93250000Y-84020000D01*
X89250000Y-84000000D02*
X93230000Y-84000000D01*
%TO.N,/D13*%
X102635000Y-95597500D02*
X102750000Y-95712500D01*
X102635000Y-90350000D02*
X102635000Y-95597500D01*
%TO.N,unconnected-(U1-IO37-Pad30)*%
X110750000Y-85290000D02*
X120710000Y-85290000D01*
%TO.N,/UP*%
X110775000Y-74000000D02*
X112500000Y-74000000D01*
X80250000Y-90500000D02*
X78500000Y-90500000D01*
%TO.N,/ADDRD_3V*%
X116825000Y-80350000D02*
X110775000Y-80350000D01*
X118580000Y-78595000D02*
X116825000Y-80350000D01*
X129975000Y-78595000D02*
X118580000Y-78595000D01*
%TO.N,/CLK_3V*%
X88750000Y-76425000D02*
X93225000Y-76425000D01*
X93225000Y-76425000D02*
X93250000Y-76400000D01*
%TO.N,/ADDRA_3V*%
X129975000Y-82405000D02*
X119270000Y-82405000D01*
X119270000Y-82405000D02*
X117515000Y-84160000D01*
X117515000Y-84160000D02*
X110775000Y-84160000D01*
%TO.N,/ADDRB_3V*%
X117285000Y-82890000D02*
X110775000Y-82890000D01*
X129975000Y-81135000D02*
X119040000Y-81135000D01*
X119040000Y-81135000D02*
X117285000Y-82890000D01*
%TO.N,/R1_3V*%
X96215000Y-102418628D02*
X100971372Y-107175000D01*
X100095000Y-90880000D02*
X96215000Y-94760000D01*
X100971372Y-107175000D02*
X106775000Y-107175000D01*
X96215000Y-94760000D02*
X96215000Y-102418628D01*
X100095000Y-90350000D02*
X100095000Y-90880000D01*
%TO.N,/G1_3V*%
X95815000Y-102584314D02*
X101637058Y-108406372D01*
X95815000Y-94310000D02*
X95815000Y-102584314D01*
X101637058Y-108406372D02*
X101637058Y-108445000D01*
X98825000Y-91300000D02*
X95815000Y-94310000D01*
X98825000Y-90350000D02*
X98825000Y-91300000D01*
X101637058Y-108445000D02*
X106775000Y-108445000D01*
%TO.N,/UART_TX*%
X108870000Y-119000000D02*
X108750000Y-119000000D01*
X110750000Y-76400000D02*
X113900000Y-76400000D01*
X108750000Y-119000000D02*
X110500000Y-119000000D01*
X112620000Y-121120000D02*
X112620000Y-122750000D01*
X108750000Y-119000000D02*
X105250000Y-119000000D01*
X110500000Y-119000000D02*
X112620000Y-121120000D01*
X113900000Y-76400000D02*
X114250000Y-76750000D01*
%TO.N,/UART_RX*%
X108750000Y-120000000D02*
X110080000Y-121330000D01*
X110750000Y-77670000D02*
X114250000Y-77670000D01*
X110080000Y-121330000D02*
X110080000Y-122750000D01*
X105250000Y-120000000D02*
X108750000Y-120000000D01*
%TO.N,/B2_3V*%
X86050000Y-96418628D02*
X103156372Y-113525000D01*
X89460000Y-85290000D02*
X86050000Y-88700000D01*
X86050000Y-88700000D02*
X86050000Y-96418628D01*
X93250000Y-85290000D02*
X89460000Y-85290000D01*
X103156372Y-113525000D02*
X106775000Y-113525000D01*
%TO.N,/R2_3V*%
X95015000Y-102954314D02*
X103045686Y-110985000D01*
X103045686Y-110985000D02*
X106775000Y-110985000D01*
X95015000Y-90350000D02*
X95015000Y-102954314D01*
%TO.N,/DOWN*%
X80250000Y-100500000D02*
X78385000Y-100500000D01*
X110750000Y-75130000D02*
X112500000Y-75130000D01*
%TO.N,/BOOT0*%
X114625000Y-87375000D02*
X112900000Y-89100000D01*
X140000000Y-62750000D02*
X145250000Y-62750000D01*
X110750000Y-89130000D02*
X110750000Y-89100000D01*
X111000000Y-89350000D02*
X110750000Y-89100000D01*
X110850000Y-89000000D02*
X110750000Y-89100000D01*
X133150000Y-62850000D02*
X133250000Y-62750000D01*
X111000000Y-89380000D02*
X110750000Y-89130000D01*
X112900000Y-89100000D02*
X110750000Y-89100000D01*
%TO.N,3.3V*%
X90935000Y-108300000D02*
X93500000Y-108300000D01*
X95850000Y-109150000D02*
X95000000Y-108300000D01*
X94250000Y-108300000D02*
X95000000Y-108300000D01*
X151250000Y-81425000D02*
X151250000Y-79500000D01*
X150250000Y-75750000D02*
X150250000Y-74725000D01*
X151250000Y-79500000D02*
X150250000Y-78500000D01*
X95850000Y-109150000D02*
X96250000Y-109550000D01*
X151250000Y-75725000D02*
X149887500Y-74362500D01*
X147750000Y-73250000D02*
X144500000Y-73250000D01*
X93250000Y-73860000D02*
X89500000Y-73860000D01*
X150250000Y-78500000D02*
X150250000Y-75750000D01*
X144500000Y-73250000D02*
X143375000Y-72125000D01*
X143375000Y-72125000D02*
X143375000Y-71375000D01*
X148775000Y-73250000D02*
X147750000Y-73250000D01*
X149887500Y-74362500D02*
X148775000Y-73250000D01*
X84525000Y-76512500D02*
X84787500Y-76250000D01*
X96250000Y-109550000D02*
X96250000Y-115750000D01*
X96250000Y-115750000D02*
X98250000Y-117750000D01*
X98500000Y-112712500D02*
X98500000Y-111800000D01*
X150250000Y-74725000D02*
X149887500Y-74362500D01*
X98500000Y-111800000D02*
X95850000Y-109150000D01*
X84525000Y-81000000D02*
X84525000Y-76512500D01*
X88140000Y-72500000D02*
X89500000Y-73860000D01*
X84787500Y-72500000D02*
X88140000Y-72500000D01*
X98250000Y-117750000D02*
X98250000Y-118962500D01*
X93500000Y-108300000D02*
X94250000Y-108300000D01*
X143950000Y-70800000D02*
X145100000Y-70800000D01*
X84787500Y-76250000D02*
X84787500Y-72500000D01*
X143375000Y-71375000D02*
X143950000Y-70800000D01*
%TO.N,/NEOPIX*%
X108985000Y-91500000D02*
X108985000Y-90350000D01*
X130400000Y-122750000D02*
X130400000Y-120900000D01*
X130400000Y-120900000D02*
X129250000Y-119750000D01*
X108985000Y-93485000D02*
X110000000Y-94500000D01*
X106875000Y-94125000D02*
X108985000Y-92015000D01*
X108985000Y-92015000D02*
X108985000Y-91500000D01*
X108985000Y-91500000D02*
X108985000Y-93485000D01*
X110000000Y-94500000D02*
X114250000Y-94500000D01*
%TO.N,/G2_3V*%
X106775000Y-112255000D02*
X106772500Y-112252500D01*
X102452058Y-112255000D02*
X106775000Y-112255000D01*
X93250000Y-86560000D02*
X89940000Y-86560000D01*
X86500000Y-96302942D02*
X102452058Y-112255000D01*
X86500000Y-90000000D02*
X86500000Y-96302942D01*
X89940000Y-86560000D02*
X86500000Y-90000000D01*
%TO.N,unconnected-(U1-IO35-Pad28)*%
X110750000Y-87830000D02*
X111670000Y-87830000D01*
X111670000Y-87830000D02*
X113410000Y-86090000D01*
X113410000Y-86090000D02*
X121041372Y-86090000D01*
%TO.N,/B1_3V*%
X102341372Y-109714999D02*
X102341372Y-109715000D01*
X95415000Y-93440000D02*
X95415000Y-102788626D01*
X102341372Y-109715000D02*
X106775000Y-109715000D01*
X97555000Y-91300000D02*
X95415000Y-93440000D01*
X95415000Y-102788626D02*
X97063187Y-104436813D01*
X97063187Y-104436813D02*
X102341372Y-109714999D01*
X97555000Y-90350000D02*
X97555000Y-91300000D01*
%TO.N,unconnected-(U1-IO36-Pad29)*%
X110750000Y-86560000D02*
X111690000Y-86560000D01*
X112560000Y-85690000D02*
X120875686Y-85690000D01*
X111690000Y-86560000D02*
X112560000Y-85690000D01*
%TO.N,/ADDRC_3V*%
X129975000Y-79865000D02*
X118810000Y-79865000D01*
X117055000Y-81620000D02*
X110775000Y-81620000D01*
X118810000Y-79865000D02*
X117055000Y-81620000D01*
%TO.N,/LAT_3V*%
X98500000Y-94750000D02*
X98500000Y-95750000D01*
X101365000Y-91885000D02*
X98500000Y-94750000D01*
X101365000Y-90350000D02*
X101365000Y-91885000D01*
D47*
%TO.N,+5V*%
X86800000Y-110200000D02*
X88565000Y-110200000D01*
X90530381Y-117250000D02*
X90780381Y-117000000D01*
X85100000Y-113500000D02*
X85100000Y-115500000D01*
X78500000Y-112425000D02*
X83000000Y-112425000D01*
X85100000Y-116750000D02*
X85100000Y-118890000D01*
X85100000Y-113250000D02*
X84275000Y-112425000D01*
X86800000Y-110200000D02*
X85100000Y-111900000D01*
D48*
X78250000Y-118500000D02*
X78250000Y-120225000D01*
D47*
X129975000Y-72245000D02*
X124770000Y-72245000D01*
X84275000Y-112425000D02*
X83000000Y-112425000D01*
D48*
X116000000Y-98725000D02*
X111550000Y-98725000D01*
D47*
X89350000Y-118430381D02*
X90530381Y-117250000D01*
D48*
X106775000Y-104635000D02*
X112250000Y-104635000D01*
D47*
X85100000Y-109700000D02*
X86500000Y-108300000D01*
X85100000Y-113250000D02*
X85100000Y-112500000D01*
D48*
X112250000Y-104635000D02*
X113000000Y-104635000D01*
D47*
X85100000Y-111900000D02*
X85100000Y-112500000D01*
D48*
X80500000Y-116250000D02*
X78250000Y-118500000D01*
D47*
X85100000Y-112500000D02*
X85100000Y-109700000D01*
X139275000Y-72245000D02*
X129975000Y-72245000D01*
X124770000Y-72245000D02*
X124750000Y-72225000D01*
D48*
X113000000Y-104635000D02*
X116075000Y-104635000D01*
X111550000Y-98725000D02*
X111500000Y-98675000D01*
D47*
X86500000Y-108300000D02*
X88565000Y-108300000D01*
X85100000Y-115500000D02*
X85100000Y-116750000D01*
X85100000Y-113250000D02*
X85100000Y-113500000D01*
X89350000Y-118890000D02*
X89350000Y-118430381D01*
D48*
X112665000Y-104635000D02*
X112250000Y-104635000D01*
D46*
%TO.N,Net-(D1-K)*%
X102750000Y-97287500D02*
X106787500Y-97287500D01*
X106787500Y-97287500D02*
X107000000Y-97500000D01*
%TO.N,Net-(LED1-DI)*%
X118250000Y-93500000D02*
X118250000Y-90500000D01*
X141625000Y-69625000D02*
X143750000Y-67500000D01*
X116250000Y-94500000D02*
X117250000Y-94500000D01*
X143750000Y-67500000D02*
X145100000Y-67500000D01*
X117250000Y-94500000D02*
X118250000Y-93500000D01*
%TO.N,/M1_E16*%
X135720000Y-114600000D02*
X126500000Y-114600000D01*
X138820000Y-111500000D02*
X138790000Y-111530000D01*
X138790000Y-111530000D02*
X135720000Y-114600000D01*
%TO.N,/CLK*%
X139275000Y-77325000D02*
X141325000Y-77325000D01*
X141325000Y-77325000D02*
X141500000Y-77500000D01*
%TO.N,/LAT*%
X129875000Y-108875000D02*
X131250000Y-110250000D01*
X131250000Y-110250000D02*
X137530000Y-110250000D01*
X118900000Y-106150000D02*
X117875000Y-107175000D01*
X137530000Y-110250000D02*
X138790000Y-108990000D01*
X117875000Y-107175000D02*
X116075000Y-107175000D01*
X138835000Y-108600000D02*
X138715000Y-108720000D01*
%TO.N,/M1_D*%
X148287500Y-80962500D02*
X148287500Y-100962500D01*
X147075000Y-79750000D02*
X148287500Y-80962500D01*
X148287500Y-100962500D02*
X142800000Y-106450000D01*
X142800000Y-106450000D02*
X138790000Y-106450000D01*
%TO.N,/OE*%
X130000000Y-112750000D02*
X131220000Y-111530000D01*
X131220000Y-111530000D02*
X136250000Y-111530000D01*
X116075000Y-116065000D02*
X128815000Y-116065000D01*
X128815000Y-116065000D02*
X128875000Y-116125000D01*
%TO.N,/M1_B*%
X147330000Y-90670000D02*
X147330000Y-99330000D01*
X146500000Y-89825000D02*
X147337500Y-90662500D01*
X147337500Y-90662500D02*
X147330000Y-90670000D01*
X142750000Y-103910000D02*
X138790000Y-103910000D01*
X147330000Y-99330000D02*
X142750000Y-103910000D01*
%TO.N,/M1_C*%
X146500000Y-84575000D02*
X147737500Y-85812500D01*
X147737500Y-100237500D02*
X147750000Y-100250000D01*
X142814396Y-105185604D02*
X137514396Y-105185604D01*
X147750000Y-100250000D02*
X142814396Y-105185604D01*
X147737500Y-85812500D02*
X147737500Y-100237500D01*
X137514396Y-105185604D02*
X136250000Y-106450000D01*
%TO.N,/M1_B2*%
X123000000Y-115000000D02*
X124250000Y-113750000D01*
X124250000Y-113750000D02*
X124250000Y-109934314D01*
X132814314Y-101370000D02*
X136250000Y-101370000D01*
X121825000Y-115000000D02*
X123000000Y-115000000D01*
X124250000Y-109934314D02*
X132814314Y-101370000D01*
%TO.N,/M1_R2*%
X133250000Y-98830000D02*
X136250000Y-98830000D01*
X125580000Y-106500000D02*
X133250000Y-98830000D01*
X125000000Y-106500000D02*
X125580000Y-106500000D01*
%TO.N,/M1_R1*%
X126500000Y-93750000D02*
X136250000Y-93750000D01*
%TO.N,/M1_G1*%
X129000000Y-95000000D02*
X126500000Y-97500000D01*
X126500000Y-97500000D02*
X126500000Y-98250000D01*
X138790000Y-93750000D02*
X137540000Y-95000000D01*
X137540000Y-95000000D02*
X129000000Y-95000000D01*
%TO.N,/M1_G2*%
X137490741Y-100129259D02*
X138790000Y-98830000D01*
X121900000Y-111750000D02*
X121900000Y-111275000D01*
X133045741Y-100129259D02*
X137490741Y-100129259D01*
X121900000Y-111275000D02*
X133045741Y-100129259D01*
%TO.N,/M1_B1*%
X125000000Y-102750000D02*
X125000000Y-101750000D01*
X129145000Y-100145000D02*
X133000000Y-96290000D01*
X126605000Y-100145000D02*
X129145000Y-100145000D01*
X125000000Y-101750000D02*
X126605000Y-100145000D01*
X133000000Y-96290000D02*
X136250000Y-96290000D01*
%TO.N,/M1_A*%
X145750000Y-94900000D02*
X145750000Y-99750000D01*
X145750000Y-99750000D02*
X142859540Y-102640460D01*
X142859540Y-102640460D02*
X137519540Y-102640460D01*
X137519540Y-102640460D02*
X136250000Y-103910000D01*
%TO.N,/M1_E*%
X131250000Y-105000000D02*
X128750000Y-107500000D01*
X128750000Y-107500000D02*
X128750000Y-112750000D01*
X145000000Y-78000000D02*
X147075000Y-75925000D01*
X128750000Y-112750000D02*
X128200000Y-113300000D01*
X128200000Y-113300000D02*
X126500000Y-113300000D01*
X147075000Y-75925000D02*
X147075000Y-75750000D01*
%TO.N,/M1_E8*%
X126500000Y-108750000D02*
X132490000Y-102760000D01*
X132490000Y-102760000D02*
X136490000Y-102760000D01*
X137880000Y-101370000D02*
X138790000Y-101370000D01*
X136490000Y-102760000D02*
X137880000Y-101370000D01*
X126500000Y-112000000D02*
X126500000Y-108750000D01*
%TO.N,Net-(D2-A)*%
X147750000Y-105500000D02*
X147750000Y-109462500D01*
%TO.N,Net-(D3-K)*%
X147750000Y-120500000D02*
X147750000Y-116537500D01*
%TO.N,/CC2A*%
X88500000Y-121090000D02*
X89160000Y-121750000D01*
X88500000Y-120240000D02*
X88500000Y-121090000D01*
X89160000Y-121750000D02*
X93000000Y-121750000D01*
X94000000Y-120750000D02*
X94000000Y-120500000D01*
X93000000Y-121750000D02*
X94000000Y-120750000D01*
%TO.N,/CC1A*%
X87750000Y-112000000D02*
X94000000Y-112000000D01*
X85950000Y-113800000D02*
X87750000Y-112000000D01*
X85950000Y-118890000D02*
X85950000Y-113800000D01*
%TO.N,/DP_A*%
X86574265Y-118664265D02*
X86800000Y-118890000D01*
X86800000Y-119390000D02*
X87650000Y-120240000D01*
X86574265Y-114024265D02*
X86574265Y-118664265D01*
X86800000Y-118890000D02*
X86800000Y-119390000D01*
X93500000Y-97250000D02*
X93000000Y-97750000D01*
X93000000Y-100397794D02*
X93000000Y-97250000D01*
X92272794Y-101125000D02*
X93000000Y-100397794D01*
%TO.N,/DA+*%
X92000000Y-89100000D02*
X93250000Y-89100000D01*
X93000000Y-95250000D02*
X93000000Y-93750000D01*
X93000000Y-93750000D02*
X91500000Y-92250000D01*
X91500000Y-89600000D02*
X92000000Y-89100000D01*
X91500000Y-92250000D02*
X91500000Y-89600000D01*
%TO.N,/DN_B*%
X143200000Y-54300000D02*
X141750000Y-55750000D01*
X143200000Y-51100000D02*
X143200000Y-54300000D01*
%TO.N,/DN_A*%
X92250000Y-100250000D02*
X88500000Y-96500000D01*
X88500000Y-96500000D02*
X88500000Y-94250000D01*
X87650000Y-118890000D02*
X87650000Y-117900000D01*
X87650000Y-115250000D02*
X87650000Y-118890000D01*
%TO.N,/DA-*%
X88500000Y-89500000D02*
X88500000Y-92250000D01*
X90170000Y-87830000D02*
X93250000Y-87830000D01*
X88500000Y-89500000D02*
X90170000Y-87830000D01*
%TO.N,/DP_B*%
X144050000Y-50600000D02*
X143200000Y-49750000D01*
X144050000Y-53550000D02*
X146250000Y-55750000D01*
X144050000Y-51100000D02*
X144050000Y-50600000D01*
X144050000Y-51100000D02*
X144050000Y-53550000D01*
%TO.N,/CC2B*%
X141679619Y-48620000D02*
X138880000Y-48620000D01*
X142350000Y-49750000D02*
X142350000Y-49290381D01*
X138880000Y-48620000D02*
X137250000Y-50250000D01*
X137250000Y-50250000D02*
X137250000Y-55750000D01*
X142350000Y-49290381D02*
X141679619Y-48620000D01*
%TO.N,/CC1B*%
X144900000Y-51100000D02*
X144900000Y-51900000D01*
X144900000Y-51900000D02*
X150750000Y-57750000D01*
%TO.N,Net-(U2-A1)*%
X98500000Y-97750000D02*
X98500000Y-104137942D01*
X98500000Y-104137942D02*
X100267058Y-105905000D01*
X100267058Y-105905000D02*
X106775000Y-105905000D01*
%TO.N,Net-(U2-A8)*%
X85650000Y-96584314D02*
X85650000Y-86000000D01*
X106775000Y-114795000D02*
X103860686Y-114795000D01*
X106775000Y-114795000D02*
X106752500Y-114772500D01*
X85650000Y-86000000D02*
X87250000Y-84400000D01*
X87250000Y-84400000D02*
X87250000Y-84000000D01*
X103860686Y-114795000D02*
X85650000Y-96584314D01*
%TO.N,Net-(U2-B2)*%
X119900000Y-98750000D02*
X124850000Y-93800000D01*
X119900000Y-106545000D02*
X119900000Y-98750000D01*
X118000000Y-108445000D02*
X119900000Y-106545000D01*
X116075000Y-108445000D02*
X118000000Y-108445000D01*
X124850000Y-93800000D02*
X124850000Y-93750000D01*
%TO.N,Net-(U2-B3)*%
X124762500Y-98337500D02*
X124637500Y-98337500D01*
X120525000Y-101775000D02*
X120525000Y-106940000D01*
X117750000Y-109715000D02*
X116075000Y-109715000D01*
X124850000Y-98250000D02*
X124050000Y-98250000D01*
X124850000Y-98250000D02*
X124762500Y-98337500D01*
X120525000Y-106940000D02*
X117750000Y-109715000D01*
X124050000Y-98250000D02*
X120525000Y-101775000D01*
%TO.N,Net-(U2-B4)*%
X116075000Y-110985000D02*
X117765000Y-110985000D01*
X121125000Y-104975000D02*
X123350000Y-102750000D01*
X117765000Y-110985000D02*
X121125000Y-107625000D01*
X121125000Y-107625000D02*
X121125000Y-104975000D01*
%TO.N,Net-(U2-B5)*%
X117595000Y-112255000D02*
X123350000Y-106500000D01*
X116075000Y-112255000D02*
X117595000Y-112255000D01*
%TO.N,Net-(U2-B6)*%
X118475000Y-113525000D02*
X120250000Y-111750000D01*
X116075000Y-113525000D02*
X118475000Y-113525000D01*
%TO.N,Net-(U2-B7)*%
X120175000Y-115000000D02*
X116280000Y-115000000D01*
X116280000Y-115000000D02*
X116075000Y-114795000D01*
%TO.N,Net-(U3-B4)*%
X143250000Y-78595000D02*
X139275000Y-78595000D01*
X145425000Y-75750000D02*
X145425000Y-76420000D01*
X145425000Y-76420000D02*
X143250000Y-78595000D01*
%TO.N,Net-(U3-B5)*%
X139390000Y-79750000D02*
X139275000Y-79865000D01*
X145425000Y-79750000D02*
X139390000Y-79750000D01*
%TO.N,Net-(U3-B6)*%
X143460000Y-81135000D02*
X145250000Y-82925000D01*
X139275000Y-81135000D02*
X143460000Y-81135000D01*
X145250000Y-82925000D02*
X146500000Y-82925000D01*
%TO.N,Net-(U3-B7)*%
X146500000Y-86500000D02*
X142405000Y-82405000D01*
X146500000Y-88175000D02*
X146500000Y-86500000D01*
X142405000Y-82405000D02*
X139275000Y-82405000D01*
%TO.N,Net-(U3-B8)*%
X144375000Y-86625000D02*
X144375000Y-89625000D01*
X141425000Y-83675000D02*
X144375000Y-86625000D01*
X145750000Y-91000000D02*
X145750000Y-93250000D01*
X144375000Y-89625000D02*
X145750000Y-91000000D01*
X139275000Y-83675000D02*
X141425000Y-83675000D01*
%TO.N,Net-(U3-A3)*%
X129975000Y-76055000D02*
X118000000Y-76055000D01*
%TO.N,/~{RESET}*%
X80250000Y-80500000D02*
X78385000Y-80500000D01*
%TD*%
M02*
