%TF.GenerationSoftware,KiCad,Pcbnew,8.0.5*%
%TF.CreationDate,2025-10-12T21:41:41-04:00*%
%TF.ProjectId,DisplayDriver,44697370-6c61-4794-9472-697665722e6b,1.0*%
%TF.SameCoordinates,Original*%
%TF.FileFunction,Soldermask,Top*%
%TF.FilePolarity,Negative*%
%FSLAX46Y46*%
G04 Gerber Fmt 4.6, Leading zero omitted, Abs format (unit mm)*
G04 Created by KiCad (PCBNEW 8.0.5) date 2025-10-12 21:41:41*
%MOMM*%
%LPD*%
G01*
G04 APERTURE LIST*
G04 Aperture macros list*
%AMRoundRect*
0 Rectangle with rounded corners*
0 $1 Rounding radius*
0 $2 $3 $4 $5 $6 $7 $8 $9 X,Y pos of 4 corners*
0 Add a 4 corners polygon primitive as box body*
4,1,4,$2,$3,$4,$5,$6,$7,$8,$9,$2,$3,0*
0 Add four circle primitives for the rounded corners*
1,1,$1+$1,$2,$3*
1,1,$1+$1,$4,$5*
1,1,$1+$1,$6,$7*
1,1,$1+$1,$8,$9*
0 Add four rect primitives between the rounded corners*
20,1,$1+$1,$2,$3,$4,$5,0*
20,1,$1+$1,$4,$5,$6,$7,0*
20,1,$1+$1,$6,$7,$8,$9,0*
20,1,$1+$1,$8,$9,$2,$3,0*%
%AMFreePoly0*
4,1,19,0.550000,-0.750000,0.000000,-0.750000,0.000000,-0.744911,-0.071157,-0.744911,-0.207708,-0.704816,-0.327430,-0.627875,-0.420627,-0.520320,-0.479746,-0.390866,-0.500000,-0.250000,-0.500000,0.250000,-0.479746,0.390866,-0.420627,0.520320,-0.327430,0.627875,-0.207708,0.704816,-0.071157,0.744911,0.000000,0.744911,0.000000,0.750000,0.550000,0.750000,0.550000,-0.750000,0.550000,-0.750000,
$1*%
%AMFreePoly1*
4,1,19,0.000000,0.744911,0.071157,0.744911,0.207708,0.704816,0.327430,0.627875,0.420627,0.520320,0.479746,0.390866,0.500000,0.250000,0.500000,-0.250000,0.479746,-0.390866,0.420627,-0.520320,0.327430,-0.627875,0.207708,-0.704816,0.071157,-0.744911,0.000000,-0.744911,0.000000,-0.750000,-0.550000,-0.750000,-0.550000,0.750000,0.000000,0.750000,0.000000,0.744911,0.000000,0.744911,
$1*%
G04 Aperture macros list end*
%ADD10R,1.700000X1.700000*%
%ADD11O,1.700000X1.700000*%
%ADD12RoundRect,0.250000X-0.450000X0.350000X-0.450000X-0.350000X0.450000X-0.350000X0.450000X0.350000X0*%
%ADD13RoundRect,0.200000X-0.275000X0.200000X-0.275000X-0.200000X0.275000X-0.200000X0.275000X0.200000X0*%
%ADD14RoundRect,0.102000X-0.635000X0.450000X-0.635000X-0.450000X0.635000X-0.450000X0.635000X0.450000X0*%
%ADD15RoundRect,0.102000X-0.400000X0.725000X-0.400000X-0.725000X0.400000X-0.725000X0.400000X0.725000X0*%
%ADD16RoundRect,0.200000X-0.200000X-0.275000X0.200000X-0.275000X0.200000X0.275000X-0.200000X0.275000X0*%
%ADD17RoundRect,0.250000X-0.337500X-0.475000X0.337500X-0.475000X0.337500X0.475000X-0.337500X0.475000X0*%
%ADD18RoundRect,0.150000X-0.875000X-0.150000X0.875000X-0.150000X0.875000X0.150000X-0.875000X0.150000X0*%
%ADD19RoundRect,0.250000X-0.600000X-0.600000X0.600000X-0.600000X0.600000X0.600000X-0.600000X0.600000X0*%
%ADD20C,1.700000*%
%ADD21RoundRect,0.225000X-0.250000X0.225000X-0.250000X-0.225000X0.250000X-0.225000X0.250000X0.225000X0*%
%ADD22RoundRect,0.250000X0.475000X-0.337500X0.475000X0.337500X-0.475000X0.337500X-0.475000X-0.337500X0*%
%ADD23R,1.500000X0.900000*%
%ADD24RoundRect,0.250000X-0.350000X-0.450000X0.350000X-0.450000X0.350000X0.450000X-0.350000X0.450000X0*%
%ADD25RoundRect,0.218750X0.256250X-0.218750X0.256250X0.218750X-0.256250X0.218750X-0.256250X-0.218750X0*%
%ADD26RoundRect,0.250000X-0.475000X0.337500X-0.475000X-0.337500X0.475000X-0.337500X0.475000X0.337500X0*%
%ADD27FreePoly0,270.000000*%
%ADD28R,1.500000X1.000000*%
%ADD29FreePoly1,270.000000*%
%ADD30RoundRect,0.250000X0.450000X-0.350000X0.450000X0.350000X-0.450000X0.350000X-0.450000X-0.350000X0*%
%ADD31R,0.900000X1.500000*%
%ADD32C,0.600000*%
%ADD33R,3.900000X3.900000*%
%ADD34RoundRect,0.250000X0.350000X0.450000X-0.350000X0.450000X-0.350000X-0.450000X0.350000X-0.450000X0*%
%ADD35RoundRect,0.060300X-0.716700X-0.341700X0.716700X-0.341700X0.716700X0.341700X-0.716700X0.341700X0*%
%ADD36RoundRect,0.102000X-0.325000X-0.325000X0.325000X-0.325000X0.325000X0.325000X-0.325000X0.325000X0*%
%ADD37C,0.854000*%
%ADD38O,1.104000X1.904000*%
%ADD39O,1.104000X2.604000*%
%ADD40RoundRect,0.225000X0.225000X0.250000X-0.225000X0.250000X-0.225000X-0.250000X0.225000X-0.250000X0*%
%ADD41C,2.000000*%
%ADD42RoundRect,0.102000X0.325000X0.325000X-0.325000X0.325000X-0.325000X-0.325000X0.325000X-0.325000X0*%
G04 APERTURE END LIST*
D10*
%TO.C,J2*%
X105000000Y-122750000D03*
D11*
X107540000Y-122750000D03*
X110080000Y-122750000D03*
X112620000Y-122750000D03*
X115160000Y-122750000D03*
X117700000Y-122750000D03*
X120240000Y-122750000D03*
X122780000Y-122750000D03*
X125320000Y-122750000D03*
X127860000Y-122750000D03*
X130400000Y-122750000D03*
X132940000Y-122750000D03*
X135480000Y-122750000D03*
X138020000Y-122750000D03*
%TD*%
D12*
%TO.C,R11*%
X98500000Y-95750000D03*
X98500000Y-97750000D03*
%TD*%
D13*
%TO.C,R22*%
X145750000Y-93250000D03*
X145750000Y-94900000D03*
%TD*%
D14*
%TO.C,RST1*%
X78385000Y-76300000D03*
X78385000Y-80500000D03*
D15*
X76500000Y-75025000D03*
X76500000Y-81775000D03*
%TD*%
D16*
%TO.C,R12*%
X124850000Y-93750000D03*
X126500000Y-93750000D03*
%TD*%
%TO.C,R17*%
X120175000Y-115000000D03*
X121825000Y-115000000D03*
%TD*%
D17*
%TO.C,C8*%
X82712500Y-72500000D03*
X84787500Y-72500000D03*
%TD*%
D16*
%TO.C,R15*%
X123350000Y-106500000D03*
X125000000Y-106500000D03*
%TD*%
D18*
%TO.C,U2*%
X106775000Y-104635000D03*
X106775000Y-105905000D03*
X106775000Y-107175000D03*
X106775000Y-108445000D03*
X106775000Y-109715000D03*
X106775000Y-110985000D03*
X106775000Y-112255000D03*
X106775000Y-113525000D03*
X106775000Y-114795000D03*
X106775000Y-116065000D03*
X116075000Y-116065000D03*
X116075000Y-114795000D03*
X116075000Y-113525000D03*
X116075000Y-112255000D03*
X116075000Y-110985000D03*
X116075000Y-109715000D03*
X116075000Y-108445000D03*
X116075000Y-107175000D03*
X116075000Y-105905000D03*
X116075000Y-104635000D03*
%TD*%
D12*
%TO.C,R6*%
X107000000Y-97500000D03*
X107000000Y-99500000D03*
%TD*%
D18*
%TO.C,U3*%
X129975000Y-72245000D03*
X129975000Y-73515000D03*
X129975000Y-74785000D03*
X129975000Y-76055000D03*
X129975000Y-77325000D03*
X129975000Y-78595000D03*
X129975000Y-79865000D03*
X129975000Y-81135000D03*
X129975000Y-82405000D03*
X129975000Y-83675000D03*
X139275000Y-83675000D03*
X139275000Y-82405000D03*
X139275000Y-81135000D03*
X139275000Y-79865000D03*
X139275000Y-78595000D03*
X139275000Y-77325000D03*
X139275000Y-76055000D03*
X139275000Y-74785000D03*
X139275000Y-73515000D03*
X139275000Y-72245000D03*
%TD*%
D13*
%TO.C,R20*%
X146500000Y-82925000D03*
X146500000Y-84575000D03*
%TD*%
D12*
%TO.C,R23*%
X94000000Y-120500000D03*
X94000000Y-118500000D03*
%TD*%
D19*
%TO.C,J1*%
X136250000Y-93750000D03*
D20*
X138790000Y-93750000D03*
X136250000Y-96290000D03*
X138790000Y-96290000D03*
X136250000Y-98830000D03*
X138790000Y-98830000D03*
X136250000Y-101370000D03*
X138790000Y-101370000D03*
X136250000Y-103910000D03*
X138790000Y-103910000D03*
X136250000Y-106450000D03*
X138790000Y-106450000D03*
X136250000Y-108990000D03*
X138790000Y-108990000D03*
X136250000Y-111530000D03*
X138790000Y-111530000D03*
%TD*%
D21*
%TO.C,C15*%
X78250000Y-120225000D03*
X78250000Y-121775000D03*
%TD*%
D22*
%TO.C,C14*%
X111500000Y-100750000D03*
X111500000Y-98675000D03*
%TD*%
D23*
%TO.C,LED1*%
X145100000Y-67500000D03*
X145100000Y-70800000D03*
X150000000Y-70800000D03*
X150000000Y-67500000D03*
%TD*%
D12*
%TO.C,R4*%
X147750000Y-103500000D03*
X147750000Y-105500000D03*
%TD*%
D14*
%TO.C,DOWN1*%
X78385000Y-96300000D03*
X78385000Y-100500000D03*
D15*
X76500000Y-95025000D03*
X76500000Y-101775000D03*
%TD*%
D24*
%TO.C,R7*%
X114250000Y-94500000D03*
X116250000Y-94500000D03*
%TD*%
D25*
%TO.C,D1*%
X102750000Y-97287500D03*
X102750000Y-95712500D03*
%TD*%
D22*
%TO.C,C13*%
X151250000Y-83500000D03*
X151250000Y-81425000D03*
%TD*%
D26*
%TO.C,C6*%
X83250000Y-106175000D03*
X83250000Y-108250000D03*
%TD*%
D21*
%TO.C,C16*%
X151250000Y-75725000D03*
X151250000Y-77275000D03*
%TD*%
D27*
%TO.C,SJ1*%
X126500000Y-112000000D03*
D28*
X126500000Y-113300000D03*
D29*
X126500000Y-114600000D03*
%TD*%
D21*
%TO.C,C1*%
X124750000Y-72225000D03*
X124750000Y-73775000D03*
%TD*%
D17*
%TO.C,C7*%
X82712500Y-76250000D03*
X84787500Y-76250000D03*
%TD*%
D30*
%TO.C,R25*%
X137250000Y-55750000D03*
X137250000Y-57750000D03*
%TD*%
D24*
%TO.C,R1*%
X145250000Y-62750000D03*
X147250000Y-62750000D03*
%TD*%
D23*
%TO.C,U1*%
X93250000Y-72590000D03*
X93250000Y-73860000D03*
X93250000Y-75130000D03*
X93250000Y-76400000D03*
X93250000Y-77670000D03*
X93250000Y-78940000D03*
X93250000Y-80210000D03*
X93250000Y-81480000D03*
X93250000Y-82750000D03*
X93250000Y-84020000D03*
X93250000Y-85290000D03*
X93250000Y-86560000D03*
X93250000Y-87830000D03*
X93250000Y-89100000D03*
D31*
X95015000Y-90350000D03*
X96285000Y-90350000D03*
X97555000Y-90350000D03*
X98825000Y-90350000D03*
X100095000Y-90350000D03*
X101365000Y-90350000D03*
X102635000Y-90350000D03*
X103905000Y-90350000D03*
X105175000Y-90350000D03*
X106445000Y-90350000D03*
X107715000Y-90350000D03*
X108985000Y-90350000D03*
D23*
X110750000Y-89100000D03*
X110750000Y-87830000D03*
X110750000Y-86560000D03*
X110750000Y-85290000D03*
X110750000Y-84020000D03*
X110750000Y-82750000D03*
X110750000Y-81480000D03*
X110750000Y-80210000D03*
X110750000Y-78940000D03*
X110750000Y-77670000D03*
X110750000Y-76400000D03*
X110750000Y-75130000D03*
X110750000Y-73860000D03*
X110750000Y-72590000D03*
D32*
X99100000Y-79610000D03*
X99100000Y-81010000D03*
X99800000Y-78910000D03*
X99800000Y-80310000D03*
X99800000Y-81710000D03*
X100500000Y-79610000D03*
D33*
X100500000Y-80310000D03*
D32*
X100500000Y-81010000D03*
X101200000Y-78910000D03*
X101200000Y-80310000D03*
X101200000Y-81710000D03*
X101900000Y-79610000D03*
X101900000Y-81010000D03*
%TD*%
D30*
%TO.C,R27*%
X93000000Y-97250000D03*
X93000000Y-95250000D03*
%TD*%
D21*
%TO.C,C5*%
X98250000Y-118962500D03*
X98250000Y-120512500D03*
%TD*%
D25*
%TO.C,D2*%
X147750000Y-111037500D03*
X147750000Y-109462500D03*
%TD*%
D13*
%TO.C,R3*%
X88750000Y-76425000D03*
X88750000Y-78075000D03*
%TD*%
D14*
%TO.C,UP1*%
X78500000Y-86300000D03*
X78500000Y-90500000D03*
D15*
X76615000Y-85025000D03*
X76615000Y-91775000D03*
%TD*%
D12*
%TO.C,R26*%
X150750000Y-57750000D03*
X150750000Y-55750000D03*
%TD*%
D34*
%TO.C,R10*%
X89250000Y-84000000D03*
X87250000Y-84000000D03*
%TD*%
D22*
%TO.C,C4*%
X98500000Y-114787500D03*
X98500000Y-112712500D03*
%TD*%
D21*
%TO.C,C2*%
X116000000Y-98725000D03*
X116000000Y-100275000D03*
%TD*%
D35*
%TO.C,U4*%
X88565000Y-108300000D03*
X88565000Y-109250000D03*
X88565000Y-110200000D03*
X90935000Y-110200000D03*
X90935000Y-108300000D03*
%TD*%
D12*
%TO.C,R28*%
X141750000Y-55750000D03*
X141750000Y-57750000D03*
%TD*%
%TO.C,R8*%
X88500000Y-94250000D03*
X88500000Y-92250000D03*
%TD*%
%TO.C,R5*%
X147750000Y-120500000D03*
X147750000Y-122500000D03*
%TD*%
D25*
%TO.C,D3*%
X147750000Y-116537500D03*
X147750000Y-114962500D03*
%TD*%
D16*
%TO.C,R14*%
X123350000Y-102750000D03*
X125000000Y-102750000D03*
%TD*%
%TO.C,R19*%
X145425000Y-79750000D03*
X147075000Y-79750000D03*
%TD*%
D36*
%TO.C,X1*%
X84250000Y-118890000D03*
D37*
X85100000Y-118890000D03*
X85950000Y-118890000D03*
X86800000Y-118890000D03*
X87650000Y-118890000D03*
X88500000Y-118890000D03*
X89350000Y-118890000D03*
X90200000Y-118890000D03*
X90200000Y-120240000D03*
X89350000Y-120240000D03*
X88500000Y-120240000D03*
X87650000Y-120240000D03*
X86800000Y-120240000D03*
X85950000Y-120240000D03*
X85100000Y-120240000D03*
X84250000Y-120240000D03*
D38*
X82900000Y-123250000D03*
X91550000Y-123250000D03*
D39*
X82900000Y-119870000D03*
X91550000Y-119870000D03*
%TD*%
D22*
%TO.C,C3*%
X78500000Y-114500000D03*
X78500000Y-112425000D03*
%TD*%
D40*
%TO.C,C17*%
X84525000Y-81000000D03*
X82975000Y-81000000D03*
%TD*%
D41*
%TO.C,SW1*%
X133500000Y-62750000D03*
X140000000Y-62750000D03*
X133500000Y-67250000D03*
X140000000Y-67250000D03*
%TD*%
D16*
%TO.C,R16*%
X120250000Y-111750000D03*
X121900000Y-111750000D03*
%TD*%
D12*
%TO.C,R29*%
X146250000Y-55750000D03*
X146250000Y-57750000D03*
%TD*%
%TO.C,R2*%
X78500000Y-106212500D03*
X78500000Y-108212500D03*
%TD*%
D16*
%TO.C,R18*%
X145425000Y-75750000D03*
X147075000Y-75750000D03*
%TD*%
D13*
%TO.C,R21*%
X146500000Y-88175000D03*
X146500000Y-89825000D03*
%TD*%
D12*
%TO.C,R24*%
X94000000Y-112000000D03*
X94000000Y-114000000D03*
%TD*%
D22*
%TO.C,PC1*%
X83000000Y-112425000D03*
X83000000Y-114500000D03*
%TD*%
D42*
%TO.C,X2*%
X146600000Y-51100000D03*
D37*
X145750000Y-51100000D03*
X144900000Y-51100000D03*
X144050000Y-51100000D03*
X143200000Y-51100000D03*
X142350000Y-51100000D03*
X141500000Y-51100000D03*
X140650000Y-51100000D03*
X140650000Y-49750000D03*
X141500000Y-49750000D03*
X142350000Y-49750000D03*
X143200000Y-49750000D03*
X144050000Y-49750000D03*
X144900000Y-49750000D03*
X145750000Y-49750000D03*
X146600000Y-49750000D03*
D38*
X147950000Y-46740000D03*
X139300000Y-46740000D03*
D39*
X147950000Y-50120000D03*
X139300000Y-50120000D03*
%TD*%
D16*
%TO.C,R13*%
X124850000Y-98250000D03*
X126500000Y-98250000D03*
%TD*%
M02*
