%TF.GenerationSoftware,KiCad,Pcbnew,8.0.5*%
%TF.CreationDate,2025-10-12T21:41:40-04:00*%
%TF.ProjectId,DisplayDriver,44697370-6c61-4794-9472-697665722e6b,1.0*%
%TF.SameCoordinates,Original*%
%TF.FileFunction,Copper,L2,Bot*%
%TF.FilePolarity,Positive*%
%FSLAX46Y46*%
G04 Gerber Fmt 4.6, Leading zero omitted, Abs format (unit mm)*
G04 Created by KiCad (PCBNEW 8.0.5) date 2025-10-12 21:41:40*
%MOMM*%
%LPD*%
G01*
G04 APERTURE LIST*
G04 Aperture macros list*
%AMRoundRect*
0 Rectangle with rounded corners*
0 $1 Rounding radius*
0 $2 $3 $4 $5 $6 $7 $8 $9 X,Y pos of 4 corners*
0 Add a 4 corners polygon primitive as box body*
4,1,4,$2,$3,$4,$5,$6,$7,$8,$9,$2,$3,0*
0 Add four circle primitives for the rounded corners*
1,1,$1+$1,$2,$3*
1,1,$1+$1,$4,$5*
1,1,$1+$1,$6,$7*
1,1,$1+$1,$8,$9*
0 Add four rect primitives between the rounded corners*
20,1,$1+$1,$2,$3,$4,$5,0*
20,1,$1+$1,$4,$5,$6,$7,0*
20,1,$1+$1,$6,$7,$8,$9,0*
20,1,$1+$1,$8,$9,$2,$3,0*%
G04 Aperture macros list end*
%TA.AperFunction,ComponentPad*%
%ADD10R,1.700000X1.700000*%
%TD*%
%TA.AperFunction,ComponentPad*%
%ADD11O,1.700000X1.700000*%
%TD*%
%TA.AperFunction,ComponentPad*%
%ADD12RoundRect,0.250000X-0.600000X-0.600000X0.600000X-0.600000X0.600000X0.600000X-0.600000X0.600000X0*%
%TD*%
%TA.AperFunction,ComponentPad*%
%ADD13C,1.700000*%
%TD*%
%TA.AperFunction,HeatsinkPad*%
%ADD14C,0.600000*%
%TD*%
%TA.AperFunction,ComponentPad*%
%ADD15R,0.650000X0.650000*%
%TD*%
%TA.AperFunction,ComponentPad*%
%ADD16C,0.650000*%
%TD*%
%TA.AperFunction,ComponentPad*%
%ADD17O,0.900000X1.700000*%
%TD*%
%TA.AperFunction,ComponentPad*%
%ADD18O,0.900000X2.400000*%
%TD*%
%TA.AperFunction,ComponentPad*%
%ADD19C,2.000000*%
%TD*%
%TA.AperFunction,ViaPad*%
%ADD20C,0.600000*%
%TD*%
%TA.AperFunction,Conductor*%
%ADD21C,0.200000*%
%TD*%
%TA.AperFunction,Conductor*%
%ADD22C,0.500000*%
%TD*%
G04 APERTURE END LIST*
D10*
%TO.P,J2,1,Pin_1*%
%TO.N,/~{RESET}*%
X105000000Y-122750000D03*
D11*
%TO.P,J2,2,Pin_2*%
%TO.N,/BOOT0*%
X107540000Y-122750000D03*
%TO.P,J2,3,Pin_3*%
%TO.N,/UART_RX*%
X110080000Y-122750000D03*
%TO.P,J2,4,Pin_4*%
%TO.N,/UART_TX*%
X112620000Y-122750000D03*
%TO.P,J2,5,Pin_5*%
%TO.N,unconnected-(J2-Pin_5-Pad5)*%
X115160000Y-122750000D03*
%TO.P,J2,6,Pin_6*%
%TO.N,unconnected-(J2-Pin_6-Pad6)*%
X117700000Y-122750000D03*
%TO.P,J2,7,Pin_7*%
%TO.N,unconnected-(J2-Pin_7-Pad7)*%
X120240000Y-122750000D03*
%TO.P,J2,8,Pin_8*%
%TO.N,unconnected-(J2-Pin_8-Pad8)*%
X122780000Y-122750000D03*
%TO.P,J2,9,Pin_9*%
%TO.N,unconnected-(J2-Pin_9-Pad9)*%
X125320000Y-122750000D03*
%TO.P,J2,10,Pin_10*%
%TO.N,unconnected-(J2-Pin_10-Pad10)*%
X127860000Y-122750000D03*
%TO.P,J2,11,Pin_11*%
%TO.N,/NEOPIX*%
X130400000Y-122750000D03*
%TO.P,J2,12,Pin_12*%
%TO.N,+5V*%
X132940000Y-122750000D03*
%TO.P,J2,13,Pin_13*%
%TO.N,3.3V*%
X135480000Y-122750000D03*
%TO.P,J2,14,Pin_14*%
%TO.N,GND*%
X138020000Y-122750000D03*
%TD*%
D12*
%TO.P,J1,01,01*%
%TO.N,/M1_R1*%
X136250000Y-93750000D03*
D13*
%TO.P,J1,02,02*%
%TO.N,/M1_G1*%
X138790000Y-93750000D03*
%TO.P,J1,03,03*%
%TO.N,/M1_B1*%
X136250000Y-96290000D03*
%TO.P,J1,04,04*%
%TO.N,GND*%
X138790000Y-96290000D03*
%TO.P,J1,05,05*%
%TO.N,/M1_R2*%
X136250000Y-98830000D03*
%TO.P,J1,06,06*%
%TO.N,/M1_G2*%
X138790000Y-98830000D03*
%TO.P,J1,07,07*%
%TO.N,/M1_B2*%
X136250000Y-101370000D03*
%TO.P,J1,08,08*%
%TO.N,/M1_E8*%
X138790000Y-101370000D03*
%TO.P,J1,09,09*%
%TO.N,/M1_A*%
X136250000Y-103910000D03*
%TO.P,J1,10,10*%
%TO.N,/M1_B*%
X138790000Y-103910000D03*
%TO.P,J1,11,11*%
%TO.N,/M1_C*%
X136250000Y-106450000D03*
%TO.P,J1,12,12*%
%TO.N,/M1_D*%
X138790000Y-106450000D03*
%TO.P,J1,13,13*%
%TO.N,/CLK*%
X136250000Y-108990000D03*
%TO.P,J1,14,14*%
%TO.N,/LAT*%
X138790000Y-108990000D03*
%TO.P,J1,15,15*%
%TO.N,/OE*%
X136250000Y-111530000D03*
%TO.P,J1,16,16*%
%TO.N,/M1_E16*%
X138790000Y-111530000D03*
%TD*%
D14*
%TO.P,U1,41,GND*%
%TO.N,GND*%
X99100000Y-79610000D03*
X99100000Y-81010000D03*
X99800000Y-78910000D03*
X99800000Y-80310000D03*
X99800000Y-81710000D03*
X100500000Y-79610000D03*
X100500000Y-81010000D03*
X101200000Y-78910000D03*
X101200000Y-80310000D03*
X101200000Y-81710000D03*
X101900000Y-79610000D03*
X101900000Y-81010000D03*
%TD*%
D15*
%TO.P,X1,A1,GND*%
%TO.N,GND*%
X84250000Y-118890000D03*
D16*
%TO.P,X1,A4,VBUS*%
%TO.N,+5V*%
X85100000Y-118890000D03*
%TO.P,X1,A5,CC1*%
%TO.N,/CC1A*%
X85950000Y-118890000D03*
%TO.P,X1,A6,DP1*%
%TO.N,/DP_A*%
X86800000Y-118890000D03*
%TO.P,X1,A7,DN1*%
%TO.N,/DN_A*%
X87650000Y-118890000D03*
%TO.P,X1,A8,SBU1*%
%TO.N,unconnected-(X1-SBU1-PadA8)*%
X88500000Y-118890000D03*
%TO.P,X1,A9,VBUS*%
%TO.N,+5V*%
X89350000Y-118890000D03*
%TO.P,X1,A12,GND*%
%TO.N,GND*%
X90200000Y-118890000D03*
%TO.P,X1,B1,GND*%
X90200000Y-120240000D03*
%TO.P,X1,B4,VBUS*%
%TO.N,+5V*%
X89350000Y-120240000D03*
%TO.P,X1,B5,CC2*%
%TO.N,/CC2A*%
X88500000Y-120240000D03*
%TO.P,X1,B6,DP2*%
%TO.N,/DP_A*%
X87650000Y-120240000D03*
%TO.P,X1,B7,DN2*%
%TO.N,/DN_A*%
X86800000Y-120240000D03*
%TO.P,X1,B8,SBU2*%
%TO.N,unconnected-(X1-SBU2-PadB8)*%
X85950000Y-120240000D03*
%TO.P,X1,B9,VBUS*%
%TO.N,+5V*%
X85100000Y-120240000D03*
%TO.P,X1,B12,GND*%
%TO.N,GND*%
X84250000Y-120240000D03*
D17*
%TO.P,X1,SH1,SHIELD*%
%TO.N,unconnected-(X1-SHIELD-PadSH1)_1*%
X82900000Y-123250000D03*
%TO.P,X1,SH2,SHIELD*%
%TO.N,unconnected-(X1-SHIELD-PadSH1)_3*%
X91550000Y-123250000D03*
D18*
%TO.P,X1,SH3,SHIELD*%
%TO.N,unconnected-(X1-SHIELD-PadSH1)*%
X82900000Y-119870000D03*
%TO.P,X1,SH4,SHIELD*%
%TO.N,unconnected-(X1-SHIELD-PadSH1)_2*%
X91550000Y-119870000D03*
%TD*%
D19*
%TO.P,SW1,1,1*%
%TO.N,/BOOT0*%
X133500000Y-62750000D03*
X140000000Y-62750000D03*
%TO.P,SW1,2,2*%
%TO.N,GND*%
X133500000Y-67250000D03*
X140000000Y-67250000D03*
%TD*%
D15*
%TO.P,X2,A1,GND*%
%TO.N,GND*%
X146600000Y-51100000D03*
D16*
%TO.P,X2,A4,VBUS*%
%TO.N,Net-(X2-VBUS-PadA4)*%
X145750000Y-51100000D03*
%TO.P,X2,A5,CC1*%
%TO.N,/CC1B*%
X144900000Y-51100000D03*
%TO.P,X2,A6,DP1*%
%TO.N,/DP_B*%
X144050000Y-51100000D03*
%TO.P,X2,A7,DN1*%
%TO.N,/DN_B*%
X143200000Y-51100000D03*
%TO.P,X2,A8,SBU1*%
%TO.N,unconnected-(X2-SBU1-PadA8)*%
X142350000Y-51100000D03*
%TO.P,X2,A9,VBUS*%
%TO.N,Net-(X2-VBUS-PadA4)*%
X141500000Y-51100000D03*
%TO.P,X2,A12,GND*%
%TO.N,GND*%
X140650000Y-51100000D03*
%TO.P,X2,B1,GND*%
X140650000Y-49750000D03*
%TO.P,X2,B4,VBUS*%
%TO.N,Net-(X2-VBUS-PadA4)*%
X141500000Y-49750000D03*
%TO.P,X2,B5,CC2*%
%TO.N,/CC2B*%
X142350000Y-49750000D03*
%TO.P,X2,B6,DP2*%
%TO.N,/DP_B*%
X143200000Y-49750000D03*
%TO.P,X2,B7,DN2*%
%TO.N,/DN_B*%
X144050000Y-49750000D03*
%TO.P,X2,B8,SBU2*%
%TO.N,unconnected-(X2-SBU2-PadB8)*%
X144900000Y-49750000D03*
%TO.P,X2,B9,VBUS*%
%TO.N,Net-(X2-VBUS-PadA4)*%
X145750000Y-49750000D03*
%TO.P,X2,B12,GND*%
%TO.N,GND*%
X146600000Y-49750000D03*
D17*
%TO.P,X2,SH1,SHIELD*%
X147950000Y-46740000D03*
%TO.P,X2,SH2,SHIELD*%
X139300000Y-46740000D03*
D18*
%TO.P,X2,SH3,SHIELD*%
X147950000Y-50120000D03*
%TO.P,X2,SH4,SHIELD*%
X139300000Y-50120000D03*
%TD*%
D20*
%TO.N,/~{RESET}*%
X100000000Y-112000000D03*
%TO.N,GND*%
X153000000Y-78500000D03*
X80250000Y-76300000D03*
X127000000Y-74750000D03*
X87250000Y-109250000D03*
%TO.N,/~{RESET}*%
X91244269Y-75130000D03*
%TO.N,/UP*%
X112500000Y-74000000D03*
X80250000Y-90500000D03*
%TO.N,/UART_TX*%
X105250000Y-119000000D03*
X114250000Y-76750000D03*
%TO.N,/UART_RX*%
X105250000Y-120000000D03*
X114250000Y-77670000D03*
%TO.N,/DOWN*%
X112500000Y-75130000D03*
X80250000Y-100500000D03*
%TO.N,/BOOT0*%
X114625000Y-87375000D03*
%TO.N,/NEOPIX*%
X106875000Y-94125000D03*
X129250000Y-119750000D03*
X129250000Y-119750000D03*
%TO.N,+5V*%
X80500000Y-116250000D03*
%TO.N,Net-(LED1-DI)*%
X118250000Y-90500000D03*
X141625000Y-69625000D03*
%TO.N,/CLK*%
X141500000Y-77500000D03*
%TO.N,/LAT*%
X118900000Y-106150000D03*
X129875000Y-108875000D03*
%TO.N,/OE*%
X130000000Y-112750000D03*
X128875000Y-116125000D03*
%TO.N,/M1_E*%
X145000000Y-78000000D03*
X131250000Y-105000000D03*
%TO.N,/DP_A*%
X86574265Y-114024265D03*
X92272794Y-101125000D03*
%TO.N,/DN_A*%
X87650000Y-115250000D03*
X92250000Y-100250000D03*
%TO.N,Net-(U3-A3)*%
X91500000Y-78000000D03*
X118000000Y-76055000D03*
%TD*%
D21*
%TO.N,/DOWN*%
X86750000Y-74500000D02*
X111870000Y-74500000D01*
X111870000Y-74500000D02*
X112500000Y-75130000D01*
X82750000Y-78500000D02*
X86750000Y-74500000D01*
X82750000Y-98000000D02*
X82750000Y-78500000D01*
X80250000Y-100500000D02*
X82750000Y-98000000D01*
%TO.N,/UP*%
X82000000Y-88750000D02*
X80250000Y-90500000D01*
X85500000Y-73250000D02*
X82000000Y-76750000D01*
X82000000Y-76750000D02*
X82000000Y-88750000D01*
X111750000Y-73250000D02*
X85500000Y-73250000D01*
X112500000Y-74000000D02*
X111750000Y-73250000D01*
%TO.N,/~{RESET}*%
X100000000Y-96000000D02*
X100000000Y-112000000D01*
X96125000Y-92125000D02*
X100000000Y-96000000D01*
X92125000Y-92125000D02*
X96125000Y-92125000D01*
X90375000Y-75999268D02*
X90375000Y-90375000D01*
X90562134Y-75812134D02*
X90375000Y-75999268D01*
X91244269Y-75130000D02*
X90562134Y-75812134D01*
X90375000Y-90375000D02*
X92125000Y-92125000D01*
%TO.N,Net-(U3-A3)*%
X97000000Y-76055000D02*
X118000000Y-76055000D01*
X95055000Y-78000000D02*
X97000000Y-76055000D01*
X91500000Y-78000000D02*
X95055000Y-78000000D01*
%TO.N,/~{RESET}*%
X100000000Y-115743750D02*
X101125000Y-116868750D01*
X100000000Y-112000000D02*
X100000000Y-115743750D01*
D22*
%TO.N,GND*%
X90200000Y-120890000D02*
X89750000Y-121340000D01*
X146600000Y-51100000D02*
X146600000Y-49750000D01*
X84250000Y-120840000D02*
X84250000Y-120240000D01*
X89750000Y-121340000D02*
X84750000Y-121340000D01*
D21*
X133500000Y-67250000D02*
X140000000Y-67250000D01*
D22*
X140650000Y-49100000D02*
X141100000Y-48650000D01*
X146100000Y-48650000D02*
X146600000Y-49150000D01*
X84750000Y-121340000D02*
X84250000Y-120840000D01*
X146600000Y-49150000D02*
X146600000Y-49750000D01*
X141100000Y-48650000D02*
X146100000Y-48650000D01*
X90200000Y-118890000D02*
X90200000Y-120240000D01*
X140650000Y-49750000D02*
X140650000Y-49100000D01*
X90200000Y-120240000D02*
X90200000Y-120890000D01*
X84250000Y-118890000D02*
X84250000Y-120240000D01*
X140650000Y-51100000D02*
X140650000Y-49750000D01*
D21*
%TO.N,/~{RESET}*%
X101125000Y-116875000D02*
X105000000Y-120750000D01*
X105000000Y-120750000D02*
X105000000Y-122750000D01*
%TO.N,/UART_TX*%
X101100000Y-96650000D02*
X101100000Y-114850000D01*
X111665686Y-92400000D02*
X105350000Y-92400000D01*
X112900000Y-88165685D02*
X112900000Y-91165686D01*
X116900000Y-84165686D02*
X114315685Y-86750000D01*
X117000000Y-84065685D02*
X116900000Y-84165685D01*
X116900000Y-84165685D02*
X116900000Y-84165686D01*
X112900000Y-91165686D02*
X111665686Y-92400000D01*
X101100000Y-114850000D02*
X105250000Y-119000000D01*
X117000000Y-79500000D02*
X117000000Y-84065685D01*
X105350000Y-92400000D02*
X101100000Y-96650000D01*
X114250000Y-76750000D02*
X117000000Y-79500000D01*
X114315685Y-86750000D02*
X112900000Y-88165685D01*
%TO.N,/UART_RX*%
X116500000Y-79920000D02*
X114250000Y-77670000D01*
X112500000Y-91000000D02*
X112500000Y-88000000D01*
X116500000Y-84000000D02*
X116500000Y-79920000D01*
X100700000Y-96050000D02*
X104750000Y-92000000D01*
X111500000Y-92000000D02*
X112500000Y-91000000D01*
X112500000Y-88000000D02*
X116500000Y-84000000D01*
X105250000Y-120000000D02*
X100700000Y-115450000D01*
X100700000Y-115450000D02*
X100700000Y-96050000D01*
X104750000Y-92000000D02*
X111500000Y-92000000D01*
%TO.N,/BOOT0*%
X133500000Y-62750000D02*
X140000000Y-62750000D01*
X117500000Y-84500000D02*
X117500000Y-79741422D01*
X114625000Y-87375000D02*
X114625000Y-90125000D01*
X101500000Y-97631372D02*
X101500000Y-114401470D01*
X111950000Y-92800000D02*
X106331372Y-92800000D01*
X106331372Y-92800000D02*
X101500000Y-97631372D01*
X133241422Y-63008578D02*
X133500000Y-62750000D01*
X117500000Y-79741422D02*
X133241422Y-64000000D01*
X114625000Y-87375000D02*
X117500000Y-84500000D01*
X107540000Y-120441471D02*
X107540000Y-122750000D01*
X133241422Y-64000000D02*
X133241422Y-63008578D01*
X127250000Y-69991422D02*
X127250000Y-69991422D01*
X114625000Y-90125000D02*
X111950000Y-92800000D01*
X101924265Y-114825735D02*
X107540000Y-120441471D01*
X101500000Y-114401470D02*
X101924265Y-114825735D01*
%TO.N,/NEOPIX*%
X106000000Y-95000000D02*
X104150000Y-96850000D01*
X105414215Y-117750000D02*
X127250000Y-117750000D01*
X104150000Y-96850000D02*
X104150000Y-116485785D01*
X127250000Y-117750000D02*
X129250000Y-119750000D01*
X104150000Y-116485785D02*
X105414215Y-117750000D01*
X106875000Y-94125000D02*
X106000000Y-95000000D01*
D22*
%TO.N,+5V*%
X87410000Y-116250000D02*
X89350000Y-118190000D01*
X85100000Y-118890000D02*
X85100000Y-120240000D01*
X85750000Y-117590000D02*
X88750000Y-117590000D01*
X80500000Y-116250000D02*
X87410000Y-116250000D01*
X85100000Y-118890000D02*
X85100000Y-118240000D01*
X89350000Y-118190000D02*
X89350000Y-118890000D01*
X88750000Y-117590000D02*
X89350000Y-118190000D01*
X89350000Y-118890000D02*
X89350000Y-120240000D01*
X85100000Y-118240000D02*
X85750000Y-117590000D01*
D21*
%TO.N,Net-(LED1-DI)*%
X128875000Y-69625000D02*
X118250000Y-80250000D01*
X118250000Y-80250000D02*
X118250000Y-90500000D01*
X141625000Y-69625000D02*
X128875000Y-69625000D01*
%TO.N,/CLK*%
X132750000Y-108990000D02*
X130505000Y-106745000D01*
X142750000Y-78750000D02*
X141500000Y-77500000D01*
X140750000Y-85750000D02*
X142750000Y-83750000D01*
X130505000Y-106745000D02*
X130505000Y-87245000D01*
X130505000Y-87245000D02*
X132000000Y-85750000D01*
X136250000Y-108990000D02*
X132750000Y-108990000D01*
X142750000Y-83750000D02*
X142750000Y-78750000D01*
X132000000Y-85750000D02*
X140750000Y-85750000D01*
%TO.N,/LAT*%
X125750000Y-104750000D02*
X129875000Y-108875000D01*
X118900000Y-106100000D02*
X120250000Y-104750000D01*
X120250000Y-104750000D02*
X125750000Y-104750000D01*
X118900000Y-106150000D02*
X118900000Y-106100000D01*
%TO.N,/OE*%
X130000000Y-115000000D02*
X128875000Y-116125000D01*
X130000000Y-112750000D02*
X130000000Y-115000000D01*
%TO.N,/M1_E*%
X131250000Y-87250000D02*
X131250000Y-105000000D01*
X143227499Y-84022501D02*
X141000000Y-86250000D01*
X145000000Y-78000000D02*
X143227499Y-79772501D01*
X141000000Y-86250000D02*
X132250000Y-86250000D01*
X143227499Y-79772501D02*
X143227499Y-84022501D01*
X132250000Y-86250000D02*
X131250000Y-87250000D01*
%TO.N,/DP_A*%
X89975735Y-114024265D02*
X92250000Y-111750000D01*
X92250000Y-111750000D02*
X92250000Y-101147794D01*
X92250000Y-101147794D02*
X92272794Y-101125000D01*
X86574265Y-114024265D02*
X89975735Y-114024265D01*
%TO.N,/DN_B*%
X143200000Y-51100000D02*
X143200000Y-50600000D01*
X143200000Y-50600000D02*
X144050000Y-49750000D01*
%TO.N,/DN_A*%
X89750000Y-115250000D02*
X92872794Y-112127206D01*
X87650000Y-115250000D02*
X89750000Y-115250000D01*
X87650000Y-119390000D02*
X86800000Y-120240000D01*
X92872794Y-100872794D02*
X92250000Y-100250000D01*
X87650000Y-118890000D02*
X87650000Y-119390000D01*
X92872794Y-112127206D02*
X92872794Y-100872794D01*
D22*
%TO.N,Net-(X2-VBUS-PadA4)*%
X141500000Y-51800000D02*
X141500000Y-51100000D01*
X145100000Y-52400000D02*
X142100000Y-52400000D01*
X142100000Y-52400000D02*
X141500000Y-51800000D01*
X145750000Y-51750000D02*
X145100000Y-52400000D01*
X145750000Y-51100000D02*
X145750000Y-51750000D01*
X141500000Y-51100000D02*
X141500000Y-49750000D01*
X145750000Y-51100000D02*
X145750000Y-49750000D01*
%TD*%
%TA.AperFunction,Conductor*%
%TO.N,GND*%
G36*
X111761206Y-74820185D02*
G01*
X111781848Y-74836819D01*
X111960604Y-75015575D01*
X111994089Y-75076898D01*
X111995661Y-75120902D01*
X111994353Y-75129999D01*
X112014834Y-75272456D01*
X112074622Y-75403371D01*
X112074623Y-75403373D01*
X112168872Y-75512143D01*
X112168874Y-75512144D01*
X112190721Y-75526185D01*
X112236476Y-75578989D01*
X112246419Y-75648148D01*
X112217393Y-75711703D01*
X112158615Y-75749477D01*
X112123681Y-75754500D01*
X96960438Y-75754500D01*
X96922224Y-75764739D01*
X96884009Y-75774979D01*
X96884004Y-75774982D01*
X96815495Y-75814535D01*
X96815487Y-75814541D01*
X94966848Y-77663181D01*
X94905525Y-77696666D01*
X94879167Y-77699500D01*
X91958501Y-77699500D01*
X91891462Y-77679815D01*
X91864788Y-77656703D01*
X91831128Y-77617857D01*
X91710053Y-77540047D01*
X91710051Y-77540046D01*
X91710049Y-77540045D01*
X91710050Y-77540045D01*
X91571963Y-77499500D01*
X91571961Y-77499500D01*
X91428039Y-77499500D01*
X91428036Y-77499500D01*
X91289949Y-77540045D01*
X91168873Y-77617856D01*
X91074623Y-77726626D01*
X91074622Y-77726628D01*
X91014834Y-77857543D01*
X90994353Y-78000000D01*
X91014834Y-78142456D01*
X91074622Y-78273371D01*
X91074623Y-78273373D01*
X91168872Y-78382143D01*
X91289947Y-78459953D01*
X91289950Y-78459954D01*
X91289949Y-78459954D01*
X91397107Y-78491417D01*
X91425280Y-78499690D01*
X91428036Y-78500499D01*
X91428038Y-78500500D01*
X91428039Y-78500500D01*
X91571962Y-78500500D01*
X91571962Y-78500499D01*
X91679121Y-78469035D01*
X91710050Y-78459954D01*
X91710050Y-78459953D01*
X91710053Y-78459953D01*
X91831128Y-78382143D01*
X91864788Y-78343296D01*
X91923567Y-78305523D01*
X91958501Y-78300500D01*
X95094560Y-78300500D01*
X95094562Y-78300500D01*
X95170989Y-78280021D01*
X95239511Y-78240460D01*
X95286634Y-78193337D01*
X99436891Y-78193337D01*
X99436891Y-78193338D01*
X99800000Y-78556446D01*
X99800001Y-78556446D01*
X100163107Y-78193338D01*
X100163105Y-78193337D01*
X100836891Y-78193337D01*
X100836891Y-78193338D01*
X101200000Y-78556446D01*
X101200001Y-78556446D01*
X101563107Y-78193338D01*
X101549304Y-78184665D01*
X101379138Y-78125121D01*
X101200003Y-78104938D01*
X101199997Y-78104938D01*
X101020861Y-78125121D01*
X101020858Y-78125122D01*
X100850701Y-78184662D01*
X100850691Y-78184667D01*
X100836891Y-78193337D01*
X100163105Y-78193337D01*
X100149304Y-78184665D01*
X99979138Y-78125121D01*
X99800003Y-78104938D01*
X99799997Y-78104938D01*
X99620861Y-78125121D01*
X99620858Y-78125122D01*
X99450701Y-78184662D01*
X99450691Y-78184667D01*
X99436891Y-78193337D01*
X95286634Y-78193337D01*
X95295460Y-78184511D01*
X97088152Y-76391819D01*
X97149475Y-76358334D01*
X97175833Y-76355500D01*
X113686992Y-76355500D01*
X113754031Y-76375185D01*
X113799786Y-76427989D01*
X113809730Y-76497147D01*
X113799786Y-76531012D01*
X113764834Y-76607543D01*
X113744353Y-76750000D01*
X113764834Y-76892456D01*
X113824622Y-77023371D01*
X113824625Y-77023377D01*
X113915973Y-77128798D01*
X113944998Y-77192353D01*
X113935054Y-77261512D01*
X113915973Y-77291202D01*
X113824625Y-77396622D01*
X113824622Y-77396628D01*
X113764834Y-77527543D01*
X113744353Y-77670000D01*
X113764834Y-77812456D01*
X113785425Y-77857543D01*
X113824623Y-77943373D01*
X113918872Y-78052143D01*
X114039947Y-78129953D01*
X114039950Y-78129954D01*
X114039949Y-78129954D01*
X114147107Y-78161417D01*
X114175280Y-78169690D01*
X114178036Y-78170499D01*
X114178038Y-78170500D01*
X114274167Y-78170500D01*
X114341206Y-78190185D01*
X114361848Y-78206819D01*
X116163181Y-80008152D01*
X116196666Y-80069475D01*
X116199500Y-80095833D01*
X116199500Y-83824167D01*
X116179815Y-83891206D01*
X116163181Y-83911848D01*
X112259541Y-87815487D01*
X112259535Y-87815495D01*
X112219982Y-87884004D01*
X112219979Y-87884009D01*
X112199500Y-87960439D01*
X112199500Y-90824167D01*
X112179815Y-90891206D01*
X112163181Y-90911848D01*
X111411848Y-91663181D01*
X111350525Y-91696666D01*
X111324167Y-91699500D01*
X104710438Y-91699500D01*
X104672224Y-91709739D01*
X104634009Y-91719979D01*
X104634004Y-91719982D01*
X104565495Y-91759535D01*
X104565487Y-91759541D01*
X100453793Y-95871236D01*
X100451449Y-95868892D01*
X100407369Y-95900979D01*
X100337617Y-95905031D01*
X100276747Y-95870728D01*
X100258207Y-95846228D01*
X100245417Y-95824075D01*
X100240460Y-95815489D01*
X98276597Y-93851626D01*
X96309513Y-91884541D01*
X96308586Y-91884006D01*
X96308586Y-91884005D01*
X96240989Y-91844979D01*
X96240990Y-91844979D01*
X96215513Y-91838152D01*
X96164562Y-91824500D01*
X96164560Y-91824500D01*
X92300833Y-91824500D01*
X92233794Y-91804815D01*
X92213152Y-91788181D01*
X90711819Y-90286848D01*
X90678334Y-90225525D01*
X90675500Y-90199167D01*
X90675500Y-82426660D01*
X99436892Y-82426660D01*
X99436892Y-82426661D01*
X99450692Y-82435333D01*
X99450691Y-82435333D01*
X99620861Y-82494878D01*
X99799997Y-82515062D01*
X99800003Y-82515062D01*
X99979138Y-82494878D01*
X99979141Y-82494877D01*
X100149305Y-82435334D01*
X100149306Y-82435334D01*
X100163106Y-82426661D01*
X100163106Y-82426660D01*
X100836892Y-82426660D01*
X100836892Y-82426661D01*
X100850692Y-82435333D01*
X100850691Y-82435333D01*
X101020861Y-82494878D01*
X101199997Y-82515062D01*
X101200003Y-82515062D01*
X101379138Y-82494878D01*
X101379141Y-82494877D01*
X101549305Y-82435334D01*
X101549306Y-82435334D01*
X101563106Y-82426661D01*
X101563106Y-82426660D01*
X101200001Y-82063553D01*
X101200000Y-82063553D01*
X100836892Y-82426660D01*
X100163106Y-82426660D01*
X99800001Y-82063553D01*
X99800000Y-82063553D01*
X99436892Y-82426660D01*
X90675500Y-82426660D01*
X90675500Y-81726660D01*
X98736892Y-81726660D01*
X98736892Y-81726661D01*
X98750692Y-81735333D01*
X98750691Y-81735333D01*
X98920862Y-81794878D01*
X98921644Y-81795057D01*
X98922097Y-81795310D01*
X98927431Y-81797177D01*
X98927104Y-81798111D01*
X98982623Y-81829166D01*
X99011952Y-81882874D01*
X99012822Y-81882570D01*
X99014670Y-81887852D01*
X99014940Y-81888346D01*
X99015121Y-81889142D01*
X99074663Y-82059300D01*
X99074663Y-82059301D01*
X99083338Y-82073107D01*
X99446446Y-81710000D01*
X99426555Y-81690109D01*
X99700000Y-81690109D01*
X99700000Y-81729891D01*
X99715224Y-81766645D01*
X99743355Y-81794776D01*
X99780109Y-81810000D01*
X99819891Y-81810000D01*
X99856645Y-81794776D01*
X99884776Y-81766645D01*
X99900000Y-81729891D01*
X99900000Y-81709999D01*
X100153553Y-81709999D01*
X100153553Y-81710000D01*
X100500000Y-82056446D01*
X100500001Y-82056446D01*
X100846446Y-81710000D01*
X100826555Y-81690109D01*
X101100000Y-81690109D01*
X101100000Y-81729891D01*
X101115224Y-81766645D01*
X101143355Y-81794776D01*
X101180109Y-81810000D01*
X101219891Y-81810000D01*
X101256645Y-81794776D01*
X101284776Y-81766645D01*
X101300000Y-81729891D01*
X101300000Y-81709999D01*
X101553553Y-81709999D01*
X101553553Y-81710000D01*
X101916660Y-82073106D01*
X101916661Y-82073106D01*
X101925334Y-82059306D01*
X101925334Y-82059305D01*
X101984876Y-81889144D01*
X101985056Y-81888358D01*
X101985311Y-81887901D01*
X101987177Y-81882570D01*
X101988110Y-81882896D01*
X102019164Y-81827379D01*
X102072875Y-81798049D01*
X102072570Y-81797177D01*
X102077870Y-81795322D01*
X102078358Y-81795056D01*
X102079144Y-81794876D01*
X102249305Y-81735334D01*
X102249306Y-81735334D01*
X102263106Y-81726661D01*
X102263106Y-81726660D01*
X101900000Y-81363553D01*
X101834240Y-81429314D01*
X101834239Y-81429314D01*
X101553553Y-81709999D01*
X101300000Y-81709999D01*
X101300000Y-81690109D01*
X101284776Y-81653355D01*
X101256645Y-81625224D01*
X101219891Y-81610000D01*
X101180109Y-81610000D01*
X101143355Y-81625224D01*
X101115224Y-81653355D01*
X101100000Y-81690109D01*
X100826555Y-81690109D01*
X100565760Y-81429314D01*
X100500000Y-81363553D01*
X100434240Y-81429314D01*
X100434239Y-81429314D01*
X100153553Y-81709999D01*
X99900000Y-81709999D01*
X99900000Y-81690109D01*
X99884776Y-81653355D01*
X99856645Y-81625224D01*
X99819891Y-81610000D01*
X99780109Y-81610000D01*
X99743355Y-81625224D01*
X99715224Y-81653355D01*
X99700000Y-81690109D01*
X99426555Y-81690109D01*
X99099999Y-81363553D01*
X99099998Y-81363553D01*
X98736892Y-81726660D01*
X90675500Y-81726660D01*
X90675500Y-81009997D01*
X98294938Y-81009997D01*
X98294938Y-81010002D01*
X98315121Y-81189138D01*
X98374665Y-81359304D01*
X98383338Y-81373107D01*
X98746446Y-81010000D01*
X98746446Y-81009999D01*
X98726556Y-80990109D01*
X99000000Y-80990109D01*
X99000000Y-81029891D01*
X99015224Y-81066645D01*
X99043355Y-81094776D01*
X99080109Y-81110000D01*
X99119891Y-81110000D01*
X99156645Y-81094776D01*
X99184776Y-81066645D01*
X99200000Y-81029891D01*
X99200000Y-81009999D01*
X99453553Y-81009999D01*
X99800000Y-81356446D01*
X100146446Y-81010000D01*
X100126555Y-80990109D01*
X100400000Y-80990109D01*
X100400000Y-81029891D01*
X100415224Y-81066645D01*
X100443355Y-81094776D01*
X100480109Y-81110000D01*
X100519891Y-81110000D01*
X100556645Y-81094776D01*
X100584776Y-81066645D01*
X100600000Y-81029891D01*
X100600000Y-81009999D01*
X100853553Y-81009999D01*
X101200000Y-81356446D01*
X101546446Y-81010000D01*
X101526555Y-80990109D01*
X101800000Y-80990109D01*
X101800000Y-81029891D01*
X101815224Y-81066645D01*
X101843355Y-81094776D01*
X101880109Y-81110000D01*
X101919891Y-81110000D01*
X101956645Y-81094776D01*
X101984776Y-81066645D01*
X102000000Y-81029891D01*
X102000000Y-81010000D01*
X102253553Y-81010000D01*
X102616660Y-81373106D01*
X102616661Y-81373106D01*
X102625334Y-81359306D01*
X102625334Y-81359305D01*
X102684877Y-81189141D01*
X102684878Y-81189138D01*
X102705062Y-81010002D01*
X102705062Y-81009997D01*
X102684878Y-80830861D01*
X102625333Y-80660692D01*
X102616661Y-80646892D01*
X102616660Y-80646892D01*
X102253553Y-81010000D01*
X102000000Y-81010000D01*
X102000000Y-80990109D01*
X101984776Y-80953355D01*
X101956645Y-80925224D01*
X101919891Y-80910000D01*
X101880109Y-80910000D01*
X101843355Y-80925224D01*
X101815224Y-80953355D01*
X101800000Y-80990109D01*
X101526555Y-80990109D01*
X101265760Y-80729314D01*
X101200000Y-80663553D01*
X101134240Y-80729314D01*
X101134239Y-80729314D01*
X100853553Y-81009999D01*
X100600000Y-81009999D01*
X100600000Y-80990109D01*
X100584776Y-80953355D01*
X100556645Y-80925224D01*
X100519891Y-80910000D01*
X100480109Y-80910000D01*
X100443355Y-80925224D01*
X100415224Y-80953355D01*
X100400000Y-80990109D01*
X100126555Y-80990109D01*
X99865760Y-80729314D01*
X99800000Y-80663553D01*
X99734240Y-80729314D01*
X99734239Y-80729314D01*
X99453553Y-81009999D01*
X99200000Y-81009999D01*
X99200000Y-80990109D01*
X99184776Y-80953355D01*
X99156645Y-80925224D01*
X99119891Y-80910000D01*
X99080109Y-80910000D01*
X99043355Y-80925224D01*
X99015224Y-80953355D01*
X99000000Y-80990109D01*
X98726556Y-80990109D01*
X98383338Y-80646891D01*
X98383337Y-80646891D01*
X98374667Y-80660691D01*
X98374662Y-80660701D01*
X98315122Y-80830858D01*
X98315121Y-80830861D01*
X98294938Y-81009997D01*
X90675500Y-81009997D01*
X90675500Y-80309999D01*
X98753553Y-80309999D01*
X98753553Y-80310001D01*
X99099998Y-80656446D01*
X99099999Y-80656446D01*
X99381975Y-80374471D01*
X99446446Y-80310000D01*
X99426555Y-80290109D01*
X99700000Y-80290109D01*
X99700000Y-80329891D01*
X99715224Y-80366645D01*
X99743355Y-80394776D01*
X99780109Y-80410000D01*
X99819891Y-80410000D01*
X99856645Y-80394776D01*
X99884776Y-80366645D01*
X99900000Y-80329891D01*
X99900000Y-80309999D01*
X100153553Y-80309999D01*
X100500000Y-80656446D01*
X100846446Y-80310000D01*
X100826555Y-80290109D01*
X101100000Y-80290109D01*
X101100000Y-80329891D01*
X101115224Y-80366645D01*
X101143355Y-80394776D01*
X101180109Y-80410000D01*
X101219891Y-80410000D01*
X101256645Y-80394776D01*
X101284776Y-80366645D01*
X101300000Y-80329891D01*
X101300000Y-80309999D01*
X101553553Y-80309999D01*
X101900000Y-80656446D01*
X102246446Y-80310000D01*
X102246446Y-80309999D01*
X101900000Y-79963553D01*
X101854016Y-80009539D01*
X101854014Y-80009540D01*
X101553553Y-80309999D01*
X101300000Y-80309999D01*
X101300000Y-80290109D01*
X101284776Y-80253355D01*
X101256645Y-80225224D01*
X101219891Y-80210000D01*
X101180109Y-80210000D01*
X101143355Y-80225224D01*
X101115224Y-80253355D01*
X101100000Y-80290109D01*
X100826555Y-80290109D01*
X100545985Y-80009539D01*
X100500000Y-79963553D01*
X100454015Y-80009539D01*
X100454014Y-80009540D01*
X100153553Y-80309999D01*
X99900000Y-80309999D01*
X99900000Y-80290109D01*
X99884776Y-80253355D01*
X99856645Y-80225224D01*
X99819891Y-80210000D01*
X99780109Y-80210000D01*
X99743355Y-80225224D01*
X99715224Y-80253355D01*
X99700000Y-80290109D01*
X99426555Y-80290109D01*
X99099999Y-79963553D01*
X99099998Y-79963553D01*
X98753553Y-80309999D01*
X90675500Y-80309999D01*
X90675500Y-79609997D01*
X98294938Y-79609997D01*
X98294938Y-79610002D01*
X98315121Y-79789138D01*
X98374665Y-79959304D01*
X98383338Y-79973107D01*
X98746446Y-79610000D01*
X98746446Y-79609999D01*
X98726556Y-79590109D01*
X99000000Y-79590109D01*
X99000000Y-79629891D01*
X99015224Y-79666645D01*
X99043355Y-79694776D01*
X99080109Y-79710000D01*
X99119891Y-79710000D01*
X99156645Y-79694776D01*
X99184776Y-79666645D01*
X99200000Y-79629891D01*
X99200000Y-79609999D01*
X99453553Y-79609999D01*
X99800000Y-79956446D01*
X100146446Y-79610000D01*
X100126555Y-79590109D01*
X100400000Y-79590109D01*
X100400000Y-79629891D01*
X100415224Y-79666645D01*
X100443355Y-79694776D01*
X100480109Y-79710000D01*
X100519891Y-79710000D01*
X100556645Y-79694776D01*
X100584776Y-79666645D01*
X100600000Y-79629891D01*
X100600000Y-79609999D01*
X100853553Y-79609999D01*
X101200000Y-79956446D01*
X101546446Y-79610000D01*
X101526555Y-79590109D01*
X101800000Y-79590109D01*
X101800000Y-79629891D01*
X101815224Y-79666645D01*
X101843355Y-79694776D01*
X101880109Y-79710000D01*
X101919891Y-79710000D01*
X101956645Y-79694776D01*
X101984776Y-79666645D01*
X102000000Y-79629891D01*
X102000000Y-79610000D01*
X102253553Y-79610000D01*
X102616660Y-79973106D01*
X102616661Y-79973106D01*
X102625334Y-79959306D01*
X102625334Y-79959305D01*
X102684877Y-79789141D01*
X102684878Y-79789138D01*
X102705062Y-79610002D01*
X102705062Y-79609997D01*
X102684878Y-79430861D01*
X102625333Y-79260692D01*
X102616661Y-79246892D01*
X102616660Y-79246892D01*
X102253553Y-79610000D01*
X102000000Y-79610000D01*
X102000000Y-79590109D01*
X101984776Y-79553355D01*
X101956645Y-79525224D01*
X101919891Y-79510000D01*
X101880109Y-79510000D01*
X101843355Y-79525224D01*
X101815224Y-79553355D01*
X101800000Y-79590109D01*
X101526555Y-79590109D01*
X101251934Y-79315488D01*
X101200000Y-79263553D01*
X101148066Y-79315488D01*
X101148065Y-79315489D01*
X100853553Y-79609999D01*
X100600000Y-79609999D01*
X100600000Y-79590109D01*
X100584776Y-79553355D01*
X100556645Y-79525224D01*
X100519891Y-79510000D01*
X100480109Y-79510000D01*
X100443355Y-79525224D01*
X100415224Y-79553355D01*
X100400000Y-79590109D01*
X100126555Y-79590109D01*
X99851934Y-79315488D01*
X99800000Y-79263553D01*
X99748066Y-79315488D01*
X99748065Y-79315489D01*
X99453553Y-79609999D01*
X99200000Y-79609999D01*
X99200000Y-79590109D01*
X99184776Y-79553355D01*
X99156645Y-79525224D01*
X99119891Y-79510000D01*
X99080109Y-79510000D01*
X99043355Y-79525224D01*
X99015224Y-79553355D01*
X99000000Y-79590109D01*
X98726556Y-79590109D01*
X98383338Y-79246891D01*
X98383337Y-79246891D01*
X98374667Y-79260691D01*
X98374662Y-79260701D01*
X98315122Y-79430858D01*
X98315121Y-79430861D01*
X98294938Y-79609997D01*
X90675500Y-79609997D01*
X90675500Y-78893337D01*
X98736891Y-78893337D01*
X98736891Y-78893338D01*
X99099998Y-79256446D01*
X99099999Y-79256446D01*
X99375868Y-78980577D01*
X99446446Y-78909998D01*
X99426557Y-78890109D01*
X99700000Y-78890109D01*
X99700000Y-78929891D01*
X99715224Y-78966645D01*
X99743355Y-78994776D01*
X99780109Y-79010000D01*
X99819891Y-79010000D01*
X99856645Y-78994776D01*
X99884776Y-78966645D01*
X99900000Y-78929891D01*
X99900000Y-78909998D01*
X100153553Y-78909998D01*
X100153553Y-78909999D01*
X100500000Y-79256446D01*
X100775870Y-78980577D01*
X100846446Y-78909999D01*
X100846446Y-78909998D01*
X100826557Y-78890109D01*
X101100000Y-78890109D01*
X101100000Y-78929891D01*
X101115224Y-78966645D01*
X101143355Y-78994776D01*
X101180109Y-79010000D01*
X101219891Y-79010000D01*
X101256645Y-78994776D01*
X101284776Y-78966645D01*
X101300000Y-78929891D01*
X101300000Y-78909998D01*
X101553553Y-78909998D01*
X101553553Y-78909999D01*
X101900000Y-79256446D01*
X101900001Y-79256446D01*
X102263107Y-78893338D01*
X102249301Y-78884663D01*
X102079142Y-78825121D01*
X102078346Y-78824940D01*
X102077883Y-78824681D01*
X102072570Y-78822822D01*
X102072895Y-78821890D01*
X102017370Y-78790827D01*
X101988049Y-78737125D01*
X101987177Y-78737431D01*
X101985321Y-78732128D01*
X101985057Y-78731644D01*
X101984878Y-78730862D01*
X101925333Y-78560692D01*
X101916661Y-78546892D01*
X101916660Y-78546892D01*
X101553553Y-78909998D01*
X101300000Y-78909998D01*
X101300000Y-78890109D01*
X101284776Y-78853355D01*
X101256645Y-78825224D01*
X101219891Y-78810000D01*
X101180109Y-78810000D01*
X101143355Y-78825224D01*
X101115224Y-78853355D01*
X101100000Y-78890109D01*
X100826557Y-78890109D01*
X100500001Y-78563553D01*
X100500000Y-78563553D01*
X100153553Y-78909998D01*
X99900000Y-78909998D01*
X99900000Y-78890109D01*
X99884776Y-78853355D01*
X99856645Y-78825224D01*
X99819891Y-78810000D01*
X99780109Y-78810000D01*
X99743355Y-78825224D01*
X99715224Y-78853355D01*
X99700000Y-78890109D01*
X99426557Y-78890109D01*
X99083338Y-78546891D01*
X99083337Y-78546891D01*
X99074667Y-78560691D01*
X99074662Y-78560701D01*
X99015119Y-78730866D01*
X99014939Y-78731656D01*
X99014682Y-78732113D01*
X99012823Y-78737429D01*
X99011891Y-78737103D01*
X98980824Y-78792631D01*
X98927124Y-78821952D01*
X98927429Y-78822823D01*
X98922145Y-78824671D01*
X98921656Y-78824939D01*
X98920866Y-78825119D01*
X98750701Y-78884662D01*
X98750691Y-78884667D01*
X98736891Y-78893337D01*
X90675500Y-78893337D01*
X90675500Y-76175101D01*
X90695185Y-76108062D01*
X90711814Y-76087424D01*
X90802594Y-75996645D01*
X90802593Y-75996645D01*
X91132421Y-75666816D01*
X91193743Y-75633334D01*
X91220101Y-75630500D01*
X91316231Y-75630500D01*
X91316231Y-75630499D01*
X91454322Y-75589953D01*
X91575397Y-75512143D01*
X91669646Y-75403373D01*
X91729434Y-75272457D01*
X91749916Y-75130000D01*
X91729434Y-74987543D01*
X91724166Y-74976009D01*
X91714224Y-74906852D01*
X91743249Y-74843297D01*
X91802028Y-74805523D01*
X91836962Y-74800500D01*
X111694167Y-74800500D01*
X111761206Y-74820185D01*
G37*
%TD.AperFunction*%
%TA.AperFunction,Conductor*%
G36*
X154943039Y-45019685D02*
G01*
X154988794Y-45072489D01*
X155000000Y-45124000D01*
X155000000Y-124876000D01*
X154980315Y-124943039D01*
X154927511Y-124988794D01*
X154876000Y-125000000D01*
X75124000Y-125000000D01*
X75056961Y-124980315D01*
X75011206Y-124927511D01*
X75000000Y-124876000D01*
X75000000Y-123714071D01*
X82249499Y-123714071D01*
X82274497Y-123839738D01*
X82274499Y-123839744D01*
X82323533Y-123958124D01*
X82323538Y-123958133D01*
X82394723Y-124064668D01*
X82394726Y-124064672D01*
X82485327Y-124155273D01*
X82485331Y-124155276D01*
X82591866Y-124226461D01*
X82591872Y-124226464D01*
X82591873Y-124226465D01*
X82710256Y-124275501D01*
X82710260Y-124275501D01*
X82710261Y-124275502D01*
X82835928Y-124300500D01*
X82835931Y-124300500D01*
X82964071Y-124300500D01*
X83048615Y-124283682D01*
X83089744Y-124275501D01*
X83208127Y-124226465D01*
X83314669Y-124155276D01*
X83405276Y-124064669D01*
X83476465Y-123958127D01*
X83525501Y-123839744D01*
X83536331Y-123785300D01*
X83550500Y-123714071D01*
X90899499Y-123714071D01*
X90924497Y-123839738D01*
X90924499Y-123839744D01*
X90973533Y-123958124D01*
X90973538Y-123958133D01*
X91044723Y-124064668D01*
X91044726Y-124064672D01*
X91135327Y-124155273D01*
X91135331Y-124155276D01*
X91241866Y-124226461D01*
X91241872Y-124226464D01*
X91241873Y-124226465D01*
X91360256Y-124275501D01*
X91360260Y-124275501D01*
X91360261Y-124275502D01*
X91485928Y-124300500D01*
X91485931Y-124300500D01*
X91614071Y-124300500D01*
X91698615Y-124283682D01*
X91739744Y-124275501D01*
X91858127Y-124226465D01*
X91964669Y-124155276D01*
X92055276Y-124064669D01*
X92126465Y-123958127D01*
X92175501Y-123839744D01*
X92186331Y-123785300D01*
X92200500Y-123714071D01*
X92200500Y-122785928D01*
X92175502Y-122660261D01*
X92175501Y-122660260D01*
X92175501Y-122660256D01*
X92127374Y-122544067D01*
X92126466Y-122541875D01*
X92126461Y-122541866D01*
X92055276Y-122435331D01*
X92055273Y-122435327D01*
X91964672Y-122344726D01*
X91964668Y-122344723D01*
X91858133Y-122273538D01*
X91858124Y-122273533D01*
X91739744Y-122224499D01*
X91739738Y-122224497D01*
X91614071Y-122199500D01*
X91614069Y-122199500D01*
X91485931Y-122199500D01*
X91485929Y-122199500D01*
X91360261Y-122224497D01*
X91360255Y-122224499D01*
X91241875Y-122273533D01*
X91241866Y-122273538D01*
X91135331Y-122344723D01*
X91135327Y-122344726D01*
X91044726Y-122435327D01*
X91044723Y-122435331D01*
X90973538Y-122541866D01*
X90973533Y-122541875D01*
X90924499Y-122660255D01*
X90924497Y-122660261D01*
X90899500Y-122785928D01*
X90899500Y-122785931D01*
X90899500Y-123714069D01*
X90899500Y-123714071D01*
X90899499Y-123714071D01*
X83550500Y-123714071D01*
X83550500Y-122785928D01*
X83525502Y-122660261D01*
X83525501Y-122660260D01*
X83525501Y-122660256D01*
X83477374Y-122544067D01*
X83476466Y-122541875D01*
X83476461Y-122541866D01*
X83405276Y-122435331D01*
X83405273Y-122435327D01*
X83314672Y-122344726D01*
X83314668Y-122344723D01*
X83208133Y-122273538D01*
X83208124Y-122273533D01*
X83089744Y-122224499D01*
X83089738Y-122224497D01*
X82964071Y-122199500D01*
X82964069Y-122199500D01*
X82835931Y-122199500D01*
X82835929Y-122199500D01*
X82710261Y-122224497D01*
X82710255Y-122224499D01*
X82591875Y-122273533D01*
X82591866Y-122273538D01*
X82485331Y-122344723D01*
X82485327Y-122344726D01*
X82394726Y-122435327D01*
X82394723Y-122435331D01*
X82323538Y-122541866D01*
X82323533Y-122541875D01*
X82274499Y-122660255D01*
X82274497Y-122660261D01*
X82249500Y-122785928D01*
X82249500Y-122785931D01*
X82249500Y-123714069D01*
X82249500Y-123714071D01*
X82249499Y-123714071D01*
X75000000Y-123714071D01*
X75000000Y-116250000D01*
X79994353Y-116250000D01*
X80014834Y-116392456D01*
X80067211Y-116507143D01*
X80074623Y-116523373D01*
X80168872Y-116632143D01*
X80289947Y-116709953D01*
X80289950Y-116709954D01*
X80289949Y-116709954D01*
X80428036Y-116750499D01*
X80428038Y-116750500D01*
X80428039Y-116750500D01*
X80571962Y-116750500D01*
X80571962Y-116750499D01*
X80624797Y-116734985D01*
X80718563Y-116707455D01*
X80718995Y-116708926D01*
X80757727Y-116700500D01*
X87172035Y-116700500D01*
X87239074Y-116720185D01*
X87259716Y-116736819D01*
X87450716Y-116927819D01*
X87484201Y-116989142D01*
X87479217Y-117058834D01*
X87437345Y-117114767D01*
X87371881Y-117139184D01*
X87363035Y-117139500D01*
X85690691Y-117139500D01*
X85600325Y-117163713D01*
X85600324Y-117163712D01*
X85576115Y-117170200D01*
X85576106Y-117170204D01*
X85473392Y-117229505D01*
X85473384Y-117229511D01*
X84739513Y-117963383D01*
X84739509Y-117963389D01*
X84716640Y-118003000D01*
X84666073Y-118051215D01*
X84609253Y-118065000D01*
X84500000Y-118065000D01*
X84500000Y-119016000D01*
X84480315Y-119083039D01*
X84427511Y-119128794D01*
X84376000Y-119140000D01*
X84124000Y-119140000D01*
X84056961Y-119120315D01*
X84011206Y-119067511D01*
X84000000Y-119016000D01*
X84000000Y-118850218D01*
X84050000Y-118850218D01*
X84050000Y-118929782D01*
X84080448Y-119003291D01*
X84136709Y-119059552D01*
X84210218Y-119090000D01*
X84289782Y-119090000D01*
X84363291Y-119059552D01*
X84419552Y-119003291D01*
X84450000Y-118929782D01*
X84450000Y-118850218D01*
X84419552Y-118776709D01*
X84363291Y-118720448D01*
X84289782Y-118690000D01*
X84210218Y-118690000D01*
X84136709Y-118720448D01*
X84080448Y-118776709D01*
X84050000Y-118850218D01*
X84000000Y-118850218D01*
X84000000Y-118065000D01*
X83877155Y-118065000D01*
X83817627Y-118071401D01*
X83817620Y-118071403D01*
X83682913Y-118121645D01*
X83682906Y-118121649D01*
X83567812Y-118207809D01*
X83567809Y-118207812D01*
X83481649Y-118322906D01*
X83481645Y-118322913D01*
X83431403Y-118457620D01*
X83431401Y-118457626D01*
X83429712Y-118473339D01*
X83402972Y-118537889D01*
X83345578Y-118577736D01*
X83275753Y-118580227D01*
X83237533Y-118563182D01*
X83208138Y-118543541D01*
X83208124Y-118543533D01*
X83089744Y-118494499D01*
X83089738Y-118494497D01*
X82964071Y-118469500D01*
X82964069Y-118469500D01*
X82835931Y-118469500D01*
X82835929Y-118469500D01*
X82710261Y-118494497D01*
X82710255Y-118494499D01*
X82591875Y-118543533D01*
X82591866Y-118543538D01*
X82485331Y-118614723D01*
X82485327Y-118614726D01*
X82394726Y-118705327D01*
X82394723Y-118705331D01*
X82323538Y-118811866D01*
X82323533Y-118811875D01*
X82274499Y-118930255D01*
X82274497Y-118930261D01*
X82249500Y-119055928D01*
X82249500Y-119055931D01*
X82249500Y-120684069D01*
X82249500Y-120684071D01*
X82249499Y-120684071D01*
X82274497Y-120809738D01*
X82274499Y-120809744D01*
X82323533Y-120928124D01*
X82323538Y-120928133D01*
X82394723Y-121034668D01*
X82394726Y-121034672D01*
X82485327Y-121125273D01*
X82485331Y-121125276D01*
X82591866Y-121196461D01*
X82591872Y-121196464D01*
X82591873Y-121196465D01*
X82710256Y-121245501D01*
X82710260Y-121245501D01*
X82710261Y-121245502D01*
X82835928Y-121270500D01*
X82835931Y-121270500D01*
X82964071Y-121270500D01*
X83048615Y-121253682D01*
X83089744Y-121245501D01*
X83208127Y-121196465D01*
X83314669Y-121125276D01*
X83405276Y-121034669D01*
X83445959Y-120973783D01*
X83869767Y-120973783D01*
X83993659Y-121028943D01*
X84163289Y-121065000D01*
X84336711Y-121065000D01*
X84506342Y-121028943D01*
X84506347Y-121028941D01*
X84630230Y-120973784D01*
X84630230Y-120973783D01*
X89819767Y-120973783D01*
X89943659Y-121028943D01*
X90113289Y-121065000D01*
X90286711Y-121065000D01*
X90456342Y-121028943D01*
X90456347Y-121028941D01*
X90580230Y-120973784D01*
X90580230Y-120973783D01*
X90200001Y-120593553D01*
X90200000Y-120593553D01*
X89819767Y-120973783D01*
X84630230Y-120973783D01*
X84250001Y-120593553D01*
X84250000Y-120593553D01*
X83869767Y-120973783D01*
X83445959Y-120973783D01*
X83476465Y-120928127D01*
X83525501Y-120809744D01*
X83533682Y-120768615D01*
X83550500Y-120684071D01*
X83550500Y-120637309D01*
X83570185Y-120570270D01*
X83586819Y-120549628D01*
X83936229Y-120200218D01*
X84050000Y-120200218D01*
X84050000Y-120279782D01*
X84080448Y-120353291D01*
X84136709Y-120409552D01*
X84210218Y-120440000D01*
X84289782Y-120440000D01*
X84363291Y-120409552D01*
X84419552Y-120353291D01*
X84450000Y-120279782D01*
X84450000Y-120200218D01*
X84419552Y-120126709D01*
X84363291Y-120070448D01*
X84289782Y-120040000D01*
X84210218Y-120040000D01*
X84136709Y-120070448D01*
X84080448Y-120126709D01*
X84050000Y-120200218D01*
X83936229Y-120200218D01*
X84162319Y-119974128D01*
X84223642Y-119940643D01*
X84293334Y-119945627D01*
X84337681Y-119974128D01*
X84535108Y-120171555D01*
X84568593Y-120232878D01*
X84570366Y-120243050D01*
X84581218Y-120325475D01*
X84584880Y-120353291D01*
X84588026Y-120377181D01*
X84588027Y-120377186D01*
X84640974Y-120505015D01*
X84640975Y-120505017D01*
X84640976Y-120505018D01*
X84725209Y-120614791D01*
X84834982Y-120699024D01*
X84962817Y-120751974D01*
X85085702Y-120768152D01*
X85099999Y-120770035D01*
X85100000Y-120770035D01*
X85100001Y-120770035D01*
X85112947Y-120768330D01*
X85237183Y-120751974D01*
X85365018Y-120699024D01*
X85407627Y-120666328D01*
X85449513Y-120634188D01*
X85514682Y-120608993D01*
X85583127Y-120623031D01*
X85600487Y-120634188D01*
X85684980Y-120699023D01*
X85684981Y-120699023D01*
X85684982Y-120699024D01*
X85812817Y-120751974D01*
X85935702Y-120768152D01*
X85949999Y-120770035D01*
X85950000Y-120770035D01*
X85950001Y-120770035D01*
X85962947Y-120768330D01*
X86087183Y-120751974D01*
X86215018Y-120699024D01*
X86257627Y-120666328D01*
X86299513Y-120634188D01*
X86364682Y-120608993D01*
X86433127Y-120623031D01*
X86450487Y-120634188D01*
X86534980Y-120699023D01*
X86534981Y-120699023D01*
X86534982Y-120699024D01*
X86662817Y-120751974D01*
X86785702Y-120768152D01*
X86799999Y-120770035D01*
X86800000Y-120770035D01*
X86800001Y-120770035D01*
X86812947Y-120768330D01*
X86937183Y-120751974D01*
X87065018Y-120699024D01*
X87107627Y-120666328D01*
X87149513Y-120634188D01*
X87214682Y-120608993D01*
X87283127Y-120623031D01*
X87300487Y-120634188D01*
X87384980Y-120699023D01*
X87384981Y-120699023D01*
X87384982Y-120699024D01*
X87512817Y-120751974D01*
X87635702Y-120768152D01*
X87649999Y-120770035D01*
X87650000Y-120770035D01*
X87650001Y-120770035D01*
X87662947Y-120768330D01*
X87787183Y-120751974D01*
X87915018Y-120699024D01*
X87957627Y-120666328D01*
X87999513Y-120634188D01*
X88064682Y-120608993D01*
X88133127Y-120623031D01*
X88150487Y-120634188D01*
X88234980Y-120699023D01*
X88234981Y-120699023D01*
X88234982Y-120699024D01*
X88362817Y-120751974D01*
X88485702Y-120768152D01*
X88499999Y-120770035D01*
X88500000Y-120770035D01*
X88500001Y-120770035D01*
X88512947Y-120768330D01*
X88637183Y-120751974D01*
X88765018Y-120699024D01*
X88807627Y-120666328D01*
X88849513Y-120634188D01*
X88914682Y-120608993D01*
X88983127Y-120623031D01*
X89000487Y-120634188D01*
X89084980Y-120699023D01*
X89084981Y-120699023D01*
X89084982Y-120699024D01*
X89212817Y-120751974D01*
X89335702Y-120768152D01*
X89349999Y-120770035D01*
X89350000Y-120770035D01*
X89350001Y-120770035D01*
X89362947Y-120768330D01*
X89487183Y-120751974D01*
X89615018Y-120699024D01*
X89724791Y-120614791D01*
X89809024Y-120505018D01*
X89861974Y-120377183D01*
X89879633Y-120243048D01*
X89898581Y-120200218D01*
X90000000Y-120200218D01*
X90000000Y-120279782D01*
X90030448Y-120353291D01*
X90086709Y-120409552D01*
X90160218Y-120440000D01*
X90239782Y-120440000D01*
X90313291Y-120409552D01*
X90369552Y-120353291D01*
X90400000Y-120279782D01*
X90400000Y-120200218D01*
X90369552Y-120126709D01*
X90313291Y-120070448D01*
X90239782Y-120040000D01*
X90160218Y-120040000D01*
X90086709Y-120070448D01*
X90030448Y-120126709D01*
X90000000Y-120200218D01*
X89898581Y-120200218D01*
X89907900Y-120179153D01*
X89914891Y-120171554D01*
X90112318Y-119974127D01*
X90173641Y-119940642D01*
X90243333Y-119945626D01*
X90287680Y-119974127D01*
X90863181Y-120549628D01*
X90896666Y-120610951D01*
X90899500Y-120637309D01*
X90899500Y-120684069D01*
X90899500Y-120684071D01*
X90899499Y-120684071D01*
X90924497Y-120809738D01*
X90924499Y-120809744D01*
X90973533Y-120928124D01*
X90973538Y-120928133D01*
X91044723Y-121034668D01*
X91044726Y-121034672D01*
X91135327Y-121125273D01*
X91135331Y-121125276D01*
X91241866Y-121196461D01*
X91241872Y-121196464D01*
X91241873Y-121196465D01*
X91360256Y-121245501D01*
X91360260Y-121245501D01*
X91360261Y-121245502D01*
X91485928Y-121270500D01*
X91485931Y-121270500D01*
X91614071Y-121270500D01*
X91698615Y-121253682D01*
X91739744Y-121245501D01*
X91858127Y-121196465D01*
X91964669Y-121125276D01*
X92055276Y-121034669D01*
X92126465Y-120928127D01*
X92175501Y-120809744D01*
X92183682Y-120768615D01*
X92200500Y-120684071D01*
X92200500Y-119055928D01*
X92175502Y-118930261D01*
X92175501Y-118930260D01*
X92175501Y-118930256D01*
X92126465Y-118811873D01*
X92126464Y-118811872D01*
X92126461Y-118811866D01*
X92055276Y-118705331D01*
X92055273Y-118705327D01*
X91964672Y-118614726D01*
X91964668Y-118614723D01*
X91858133Y-118543538D01*
X91858124Y-118543533D01*
X91739744Y-118494499D01*
X91739738Y-118494497D01*
X91614071Y-118469500D01*
X91614069Y-118469500D01*
X91485931Y-118469500D01*
X91485929Y-118469500D01*
X91360261Y-118494497D01*
X91360255Y-118494499D01*
X91241875Y-118543533D01*
X91241866Y-118543538D01*
X91142174Y-118610151D01*
X91075496Y-118631029D01*
X91008116Y-118612544D01*
X90961426Y-118560565D01*
X90960004Y-118557485D01*
X90957827Y-118552597D01*
X90933349Y-118510202D01*
X90287680Y-119155871D01*
X90226357Y-119189356D01*
X90156665Y-119184372D01*
X90112318Y-119155871D01*
X89934127Y-118977680D01*
X89900642Y-118916357D01*
X89905372Y-118850218D01*
X90000000Y-118850218D01*
X90000000Y-118929782D01*
X90030448Y-119003291D01*
X90086709Y-119059552D01*
X90160218Y-119090000D01*
X90239782Y-119090000D01*
X90313291Y-119059552D01*
X90369552Y-119003291D01*
X90400000Y-118929782D01*
X90400000Y-118850218D01*
X90369552Y-118776709D01*
X90313291Y-118720448D01*
X90239782Y-118690000D01*
X90160218Y-118690000D01*
X90086709Y-118720448D01*
X90030448Y-118776709D01*
X90000000Y-118850218D01*
X89905372Y-118850218D01*
X89905626Y-118846665D01*
X89934127Y-118802318D01*
X90580231Y-118156215D01*
X90456340Y-118101056D01*
X90286711Y-118065000D01*
X90113289Y-118065000D01*
X89943659Y-118101056D01*
X89943654Y-118101057D01*
X89941291Y-118102110D01*
X89939802Y-118102309D01*
X89937477Y-118103065D01*
X89937338Y-118102639D01*
X89872040Y-118111391D01*
X89808765Y-118081759D01*
X89771555Y-118022623D01*
X89771134Y-118021097D01*
X89769799Y-118016113D01*
X89710489Y-117913386D01*
X89026614Y-117229511D01*
X87734957Y-115937854D01*
X87701472Y-115876531D01*
X87706456Y-115806839D01*
X87748328Y-115750906D01*
X87787699Y-115731197D01*
X87860053Y-115709953D01*
X87981128Y-115632143D01*
X88014788Y-115593296D01*
X88073567Y-115555523D01*
X88108501Y-115550500D01*
X89789560Y-115550500D01*
X89789562Y-115550500D01*
X89865989Y-115530021D01*
X89934511Y-115490460D01*
X89990460Y-115434511D01*
X93113254Y-112311717D01*
X93152816Y-112243194D01*
X93173294Y-112166768D01*
X93173294Y-112087644D01*
X93173294Y-100833232D01*
X93152816Y-100756806D01*
X93113254Y-100688283D01*
X92789395Y-100364424D01*
X92755910Y-100303101D01*
X92754339Y-100259094D01*
X92755647Y-100250000D01*
X92735165Y-100107543D01*
X92675377Y-99976627D01*
X92581128Y-99867857D01*
X92460053Y-99790047D01*
X92460051Y-99790046D01*
X92460049Y-99790045D01*
X92460050Y-99790045D01*
X92321963Y-99749500D01*
X92321961Y-99749500D01*
X92178039Y-99749500D01*
X92178036Y-99749500D01*
X92039949Y-99790045D01*
X91918873Y-99867856D01*
X91824623Y-99976626D01*
X91824622Y-99976628D01*
X91764834Y-100107543D01*
X91744353Y-100250000D01*
X91764834Y-100392456D01*
X91824622Y-100523371D01*
X91824625Y-100523377D01*
X91907873Y-100619450D01*
X91936898Y-100683005D01*
X91926954Y-100752164D01*
X91907874Y-100781853D01*
X91847419Y-100851622D01*
X91847416Y-100851628D01*
X91787628Y-100982543D01*
X91767147Y-101125000D01*
X91787628Y-101267456D01*
X91834459Y-101370000D01*
X91847417Y-101398373D01*
X91919214Y-101481232D01*
X91948238Y-101544784D01*
X91949500Y-101562432D01*
X91949500Y-111574167D01*
X91929815Y-111641206D01*
X91913181Y-111661848D01*
X89887583Y-113687446D01*
X89826260Y-113720931D01*
X89799902Y-113723765D01*
X87032766Y-113723765D01*
X86965727Y-113704080D01*
X86939053Y-113680968D01*
X86905393Y-113642122D01*
X86784318Y-113564312D01*
X86784316Y-113564311D01*
X86784314Y-113564310D01*
X86784315Y-113564310D01*
X86646228Y-113523765D01*
X86646226Y-113523765D01*
X86502304Y-113523765D01*
X86502301Y-113523765D01*
X86364214Y-113564310D01*
X86243138Y-113642121D01*
X86148888Y-113750891D01*
X86148887Y-113750893D01*
X86089099Y-113881808D01*
X86068618Y-114024265D01*
X86089099Y-114166721D01*
X86116006Y-114225637D01*
X86148888Y-114297638D01*
X86243137Y-114406408D01*
X86364212Y-114484218D01*
X86364215Y-114484219D01*
X86364214Y-114484219D01*
X86502301Y-114524764D01*
X86502303Y-114524765D01*
X86502304Y-114524765D01*
X86646227Y-114524765D01*
X86646227Y-114524764D01*
X86784318Y-114484218D01*
X86905393Y-114406408D01*
X86939053Y-114367561D01*
X86997832Y-114329788D01*
X87032766Y-114324765D01*
X89950902Y-114324765D01*
X90017941Y-114344450D01*
X90063696Y-114397254D01*
X90073640Y-114466412D01*
X90044615Y-114529968D01*
X90038583Y-114536446D01*
X89661848Y-114913181D01*
X89600525Y-114946666D01*
X89574167Y-114949500D01*
X88108501Y-114949500D01*
X88041462Y-114929815D01*
X88014788Y-114906703D01*
X88001359Y-114891205D01*
X87981128Y-114867857D01*
X87860053Y-114790047D01*
X87860051Y-114790046D01*
X87860049Y-114790045D01*
X87860050Y-114790045D01*
X87721963Y-114749500D01*
X87721961Y-114749500D01*
X87578039Y-114749500D01*
X87578036Y-114749500D01*
X87439949Y-114790045D01*
X87318873Y-114867856D01*
X87224623Y-114976626D01*
X87224622Y-114976628D01*
X87164834Y-115107543D01*
X87144353Y-115250000D01*
X87164834Y-115392456D01*
X87209182Y-115489562D01*
X87224623Y-115523373D01*
X87248128Y-115550500D01*
X87286079Y-115594297D01*
X87315104Y-115657853D01*
X87305160Y-115727012D01*
X87259405Y-115779816D01*
X87192366Y-115799500D01*
X80757727Y-115799500D01*
X80718995Y-115791073D01*
X80718563Y-115792545D01*
X80571963Y-115749500D01*
X80571961Y-115749500D01*
X80428039Y-115749500D01*
X80428036Y-115749500D01*
X80289949Y-115790045D01*
X80168873Y-115867856D01*
X80074623Y-115976626D01*
X80074622Y-115976628D01*
X80014834Y-116107543D01*
X79994353Y-116250000D01*
X75000000Y-116250000D01*
X75000000Y-71100000D01*
X78000000Y-71100000D01*
X125417089Y-71100000D01*
X125484128Y-71119685D01*
X125529883Y-71172489D01*
X125539827Y-71241647D01*
X125510802Y-71305203D01*
X125504770Y-71311681D01*
X117450078Y-79366372D01*
X117388755Y-79399857D01*
X117319063Y-79394873D01*
X117263130Y-79353001D01*
X117255009Y-79340689D01*
X117240460Y-79315489D01*
X114789395Y-76864424D01*
X114755910Y-76803101D01*
X114754339Y-76759094D01*
X114755647Y-76750000D01*
X114735165Y-76607543D01*
X114700213Y-76531011D01*
X114690270Y-76461853D01*
X114719295Y-76398298D01*
X114778073Y-76360523D01*
X114813008Y-76355500D01*
X117541499Y-76355500D01*
X117608538Y-76375185D01*
X117635211Y-76398296D01*
X117668872Y-76437143D01*
X117789947Y-76514953D01*
X117789950Y-76514954D01*
X117789949Y-76514954D01*
X117928036Y-76555499D01*
X117928038Y-76555500D01*
X117928039Y-76555500D01*
X118071962Y-76555500D01*
X118071962Y-76555499D01*
X118210053Y-76514953D01*
X118331128Y-76437143D01*
X118425377Y-76328373D01*
X118485165Y-76197457D01*
X118505647Y-76055000D01*
X118485165Y-75912543D01*
X118425377Y-75781627D01*
X118331128Y-75672857D01*
X118210053Y-75595047D01*
X118210051Y-75595046D01*
X118210049Y-75595045D01*
X118210050Y-75595045D01*
X118071963Y-75554500D01*
X118071961Y-75554500D01*
X117928039Y-75554500D01*
X117928036Y-75554500D01*
X117789949Y-75595045D01*
X117668873Y-75672856D01*
X117635212Y-75711703D01*
X117576433Y-75749477D01*
X117541499Y-75754500D01*
X112876319Y-75754500D01*
X112809280Y-75734815D01*
X112763525Y-75682011D01*
X112753581Y-75612853D01*
X112782606Y-75549297D01*
X112809279Y-75526185D01*
X112817243Y-75521066D01*
X112831128Y-75512143D01*
X112925377Y-75403373D01*
X112985165Y-75272457D01*
X113005647Y-75130000D01*
X112985165Y-74987543D01*
X112925377Y-74856627D01*
X112831128Y-74747857D01*
X112710053Y-74670047D01*
X112710052Y-74670046D01*
X112708915Y-74669316D01*
X112663160Y-74616512D01*
X112653216Y-74547353D01*
X112682241Y-74483797D01*
X112708915Y-74460684D01*
X112710051Y-74459953D01*
X112710053Y-74459953D01*
X112831128Y-74382143D01*
X112925377Y-74273373D01*
X112985165Y-74142457D01*
X113005647Y-74000000D01*
X112985165Y-73857543D01*
X112925377Y-73726627D01*
X112831128Y-73617857D01*
X112710053Y-73540047D01*
X112710051Y-73540046D01*
X112710049Y-73540045D01*
X112710050Y-73540045D01*
X112571963Y-73499500D01*
X112571961Y-73499500D01*
X112475833Y-73499500D01*
X112408794Y-73479815D01*
X112388152Y-73463181D01*
X111934512Y-73009541D01*
X111934504Y-73009535D01*
X111865995Y-72969982D01*
X111865990Y-72969979D01*
X111840513Y-72963152D01*
X111789562Y-72949500D01*
X85460438Y-72949500D01*
X85422224Y-72959739D01*
X85384009Y-72969979D01*
X85384004Y-72969982D01*
X85315495Y-73009535D01*
X85315487Y-73009541D01*
X81759541Y-76565487D01*
X81759535Y-76565495D01*
X81719982Y-76634004D01*
X81719979Y-76634009D01*
X81699500Y-76710439D01*
X81699500Y-88574166D01*
X81679815Y-88641205D01*
X81663181Y-88661847D01*
X80361847Y-89963181D01*
X80300524Y-89996666D01*
X80274166Y-89999500D01*
X80178036Y-89999500D01*
X80039949Y-90040045D01*
X79918873Y-90117856D01*
X79824623Y-90226626D01*
X79824622Y-90226628D01*
X79764834Y-90357543D01*
X79744353Y-90500000D01*
X79764834Y-90642456D01*
X79824622Y-90773371D01*
X79824623Y-90773373D01*
X79918872Y-90882143D01*
X80039947Y-90959953D01*
X80039950Y-90959954D01*
X80039949Y-90959954D01*
X80178036Y-91000499D01*
X80178038Y-91000500D01*
X80178039Y-91000500D01*
X80321962Y-91000500D01*
X80321962Y-91000499D01*
X80460053Y-90959953D01*
X80581128Y-90882143D01*
X80675377Y-90773373D01*
X80735165Y-90642457D01*
X80755647Y-90500000D01*
X80754339Y-90490905D01*
X80764279Y-90421749D01*
X80789392Y-90385577D01*
X82237821Y-88937149D01*
X82299142Y-88903666D01*
X82368834Y-88908650D01*
X82424767Y-88950522D01*
X82449184Y-89015986D01*
X82449500Y-89024832D01*
X82449500Y-97824166D01*
X82429815Y-97891205D01*
X82413181Y-97911847D01*
X80361847Y-99963181D01*
X80300524Y-99996666D01*
X80274166Y-99999500D01*
X80178036Y-99999500D01*
X80039949Y-100040045D01*
X79918873Y-100117856D01*
X79824623Y-100226626D01*
X79824622Y-100226628D01*
X79764834Y-100357543D01*
X79744353Y-100500000D01*
X79764834Y-100642456D01*
X79814937Y-100752164D01*
X79824623Y-100773373D01*
X79918872Y-100882143D01*
X80039947Y-100959953D01*
X80039950Y-100959954D01*
X80039949Y-100959954D01*
X80178036Y-101000499D01*
X80178038Y-101000500D01*
X80178039Y-101000500D01*
X80321962Y-101000500D01*
X80321962Y-101000499D01*
X80460053Y-100959953D01*
X80581128Y-100882143D01*
X80675377Y-100773373D01*
X80735165Y-100642457D01*
X80755647Y-100500000D01*
X80754339Y-100490905D01*
X80764279Y-100421749D01*
X80789392Y-100385577D01*
X82990460Y-98184511D01*
X83001773Y-98164916D01*
X83030021Y-98115989D01*
X83050500Y-98039562D01*
X83050500Y-78675833D01*
X83070185Y-78608794D01*
X83086819Y-78588152D01*
X86838152Y-74836819D01*
X86899475Y-74803334D01*
X86925833Y-74800500D01*
X90651576Y-74800500D01*
X90718615Y-74820185D01*
X90764370Y-74872989D01*
X90774314Y-74942147D01*
X90764371Y-74976011D01*
X90759103Y-74987545D01*
X90738622Y-75130000D01*
X90739930Y-75139101D01*
X90729983Y-75208259D01*
X90704872Y-75244423D01*
X90360182Y-75589114D01*
X90360181Y-75589115D01*
X90190489Y-75758808D01*
X90134541Y-75814755D01*
X90134535Y-75814763D01*
X90094982Y-75883272D01*
X90094979Y-75883277D01*
X90081326Y-75934230D01*
X90074500Y-75959706D01*
X90074500Y-90414562D01*
X90088152Y-90465513D01*
X90094979Y-90490990D01*
X90094982Y-90490995D01*
X90134535Y-90559504D01*
X90134539Y-90559509D01*
X90134540Y-90559511D01*
X91940489Y-92365460D01*
X92009012Y-92405022D01*
X92085438Y-92425500D01*
X92164562Y-92425500D01*
X95949167Y-92425500D01*
X96016206Y-92445185D01*
X96036848Y-92461819D01*
X99663181Y-96088152D01*
X99696666Y-96149475D01*
X99699500Y-96175833D01*
X99699500Y-111536260D01*
X99679815Y-111603299D01*
X99669213Y-111617462D01*
X99574625Y-111726622D01*
X99574622Y-111726628D01*
X99514834Y-111857543D01*
X99494353Y-112000000D01*
X99514834Y-112142456D01*
X99560841Y-112243195D01*
X99574623Y-112273373D01*
X99668872Y-112382143D01*
X99668875Y-112382144D01*
X99669213Y-112382535D01*
X99698238Y-112446091D01*
X99699500Y-112463738D01*
X99699500Y-115783312D01*
X99710326Y-115823713D01*
X99719979Y-115859739D01*
X99724665Y-115867856D01*
X99724667Y-115867858D01*
X99759539Y-115928259D01*
X99759541Y-115928262D01*
X100864457Y-117033178D01*
X100884160Y-117058853D01*
X100884537Y-117059507D01*
X100884542Y-117059513D01*
X104663181Y-120838152D01*
X104696666Y-120899475D01*
X104699500Y-120925833D01*
X104699500Y-121575500D01*
X104679815Y-121642539D01*
X104627011Y-121688294D01*
X104575500Y-121699500D01*
X104130247Y-121699500D01*
X104071770Y-121711131D01*
X104071769Y-121711132D01*
X104005447Y-121755447D01*
X103961132Y-121821769D01*
X103961131Y-121821770D01*
X103949500Y-121880247D01*
X103949500Y-123619752D01*
X103961131Y-123678229D01*
X103961132Y-123678230D01*
X104005447Y-123744552D01*
X104071769Y-123788867D01*
X104071770Y-123788868D01*
X104130247Y-123800499D01*
X104130250Y-123800500D01*
X104130252Y-123800500D01*
X105869750Y-123800500D01*
X105869751Y-123800499D01*
X105884568Y-123797552D01*
X105928229Y-123788868D01*
X105928229Y-123788867D01*
X105928231Y-123788867D01*
X105994552Y-123744552D01*
X106038867Y-123678231D01*
X106038867Y-123678229D01*
X106038868Y-123678229D01*
X106048922Y-123627682D01*
X106050500Y-123619748D01*
X106050500Y-121880252D01*
X106050500Y-121880249D01*
X106050499Y-121880247D01*
X106038868Y-121821770D01*
X106038867Y-121821769D01*
X105994552Y-121755447D01*
X105928230Y-121711132D01*
X105928229Y-121711131D01*
X105869752Y-121699500D01*
X105869748Y-121699500D01*
X105424500Y-121699500D01*
X105357461Y-121679815D01*
X105311706Y-121627011D01*
X105300500Y-121575500D01*
X105300500Y-120710438D01*
X105300499Y-120710435D01*
X105297442Y-120699024D01*
X105295158Y-120690500D01*
X105281254Y-120638610D01*
X105282917Y-120568762D01*
X105322079Y-120510900D01*
X105366092Y-120487542D01*
X105460053Y-120459953D01*
X105581128Y-120382143D01*
X105675377Y-120273373D01*
X105735165Y-120142457D01*
X105755647Y-120000000D01*
X105735165Y-119857543D01*
X105675377Y-119726627D01*
X105581128Y-119617857D01*
X105581125Y-119617855D01*
X105581125Y-119617854D01*
X105560058Y-119604316D01*
X105514302Y-119551513D01*
X105504358Y-119482354D01*
X105533382Y-119418798D01*
X105560058Y-119395684D01*
X105581125Y-119382145D01*
X105581125Y-119382144D01*
X105581128Y-119382143D01*
X105675377Y-119273373D01*
X105686321Y-119249408D01*
X105732072Y-119196605D01*
X105799110Y-119176918D01*
X105866151Y-119196600D01*
X105886796Y-119213237D01*
X107203181Y-120529622D01*
X107236666Y-120590945D01*
X107239500Y-120617303D01*
X107239500Y-121651421D01*
X107219815Y-121718460D01*
X107167011Y-121764215D01*
X107151496Y-121770081D01*
X107136046Y-121774767D01*
X107048112Y-121821770D01*
X106953550Y-121872315D01*
X106953548Y-121872316D01*
X106953547Y-121872317D01*
X106793589Y-122003589D01*
X106662317Y-122163547D01*
X106564769Y-122346043D01*
X106504699Y-122544067D01*
X106484417Y-122750000D01*
X106504699Y-122955932D01*
X106504700Y-122955934D01*
X106564768Y-123153954D01*
X106662315Y-123336450D01*
X106662317Y-123336452D01*
X106793589Y-123496410D01*
X106890209Y-123575702D01*
X106953550Y-123627685D01*
X107136046Y-123725232D01*
X107334066Y-123785300D01*
X107334065Y-123785300D01*
X107352529Y-123787118D01*
X107540000Y-123805583D01*
X107745934Y-123785300D01*
X107943954Y-123725232D01*
X108126450Y-123627685D01*
X108286410Y-123496410D01*
X108417685Y-123336450D01*
X108515232Y-123153954D01*
X108575300Y-122955934D01*
X108595583Y-122750000D01*
X109024417Y-122750000D01*
X109044699Y-122955932D01*
X109044700Y-122955934D01*
X109104768Y-123153954D01*
X109202315Y-123336450D01*
X109202317Y-123336452D01*
X109333589Y-123496410D01*
X109430209Y-123575702D01*
X109493550Y-123627685D01*
X109676046Y-123725232D01*
X109874066Y-123785300D01*
X109874065Y-123785300D01*
X109892529Y-123787118D01*
X110080000Y-123805583D01*
X110285934Y-123785300D01*
X110483954Y-123725232D01*
X110666450Y-123627685D01*
X110826410Y-123496410D01*
X110957685Y-123336450D01*
X111055232Y-123153954D01*
X111115300Y-122955934D01*
X111135583Y-122750000D01*
X111564417Y-122750000D01*
X111584699Y-122955932D01*
X111584700Y-122955934D01*
X111644768Y-123153954D01*
X111742315Y-123336450D01*
X111742317Y-123336452D01*
X111873589Y-123496410D01*
X111970209Y-123575702D01*
X112033550Y-123627685D01*
X112216046Y-123725232D01*
X112414066Y-123785300D01*
X112414065Y-123785300D01*
X112432529Y-123787118D01*
X112620000Y-123805583D01*
X112825934Y-123785300D01*
X113023954Y-123725232D01*
X113206450Y-123627685D01*
X113366410Y-123496410D01*
X113497685Y-123336450D01*
X113595232Y-123153954D01*
X113655300Y-122955934D01*
X113675583Y-122750000D01*
X114104417Y-122750000D01*
X114124699Y-122955932D01*
X114124700Y-122955934D01*
X114184768Y-123153954D01*
X114282315Y-123336450D01*
X114282317Y-123336452D01*
X114413589Y-123496410D01*
X114510209Y-123575702D01*
X114573550Y-123627685D01*
X114756046Y-123725232D01*
X114954066Y-123785300D01*
X114954065Y-123785300D01*
X114972529Y-123787118D01*
X115160000Y-123805583D01*
X115365934Y-123785300D01*
X115563954Y-123725232D01*
X115746450Y-123627685D01*
X115906410Y-123496410D01*
X116037685Y-123336450D01*
X116135232Y-123153954D01*
X116195300Y-122955934D01*
X116215583Y-122750000D01*
X116644417Y-122750000D01*
X116664699Y-122955932D01*
X116664700Y-122955934D01*
X116724768Y-123153954D01*
X116822315Y-123336450D01*
X116822317Y-123336452D01*
X116953589Y-123496410D01*
X117050209Y-123575702D01*
X117113550Y-123627685D01*
X117296046Y-123725232D01*
X117494066Y-123785300D01*
X117494065Y-123785300D01*
X117512529Y-123787118D01*
X117700000Y-123805583D01*
X117905934Y-123785300D01*
X118103954Y-123725232D01*
X118286450Y-123627685D01*
X118446410Y-123496410D01*
X118577685Y-123336450D01*
X118675232Y-123153954D01*
X118735300Y-122955934D01*
X118755583Y-122750000D01*
X119184417Y-122750000D01*
X119204699Y-122955932D01*
X119204700Y-122955934D01*
X119264768Y-123153954D01*
X119362315Y-123336450D01*
X119362317Y-123336452D01*
X119493589Y-123496410D01*
X119590209Y-123575702D01*
X119653550Y-123627685D01*
X119836046Y-123725232D01*
X120034066Y-123785300D01*
X120034065Y-123785300D01*
X120052529Y-123787118D01*
X120240000Y-123805583D01*
X120445934Y-123785300D01*
X120643954Y-123725232D01*
X120826450Y-123627685D01*
X120986410Y-123496410D01*
X121117685Y-123336450D01*
X121215232Y-123153954D01*
X121275300Y-122955934D01*
X121295583Y-122750000D01*
X121724417Y-122750000D01*
X121744699Y-122955932D01*
X121744700Y-122955934D01*
X121804768Y-123153954D01*
X121902315Y-123336450D01*
X121902317Y-123336452D01*
X122033589Y-123496410D01*
X122130209Y-123575702D01*
X122193550Y-123627685D01*
X122376046Y-123725232D01*
X122574066Y-123785300D01*
X122574065Y-123785300D01*
X122592529Y-123787118D01*
X122780000Y-123805583D01*
X122985934Y-123785300D01*
X123183954Y-123725232D01*
X123366450Y-123627685D01*
X123526410Y-123496410D01*
X123657685Y-123336450D01*
X123755232Y-123153954D01*
X123815300Y-122955934D01*
X123835583Y-122750000D01*
X124264417Y-122750000D01*
X124284699Y-122955932D01*
X124284700Y-122955934D01*
X124344768Y-123153954D01*
X124442315Y-123336450D01*
X124442317Y-123336452D01*
X124573589Y-123496410D01*
X124670209Y-123575702D01*
X124733550Y-123627685D01*
X124916046Y-123725232D01*
X125114066Y-123785300D01*
X125114065Y-123785300D01*
X125132529Y-123787118D01*
X125320000Y-123805583D01*
X125525934Y-123785300D01*
X125723954Y-123725232D01*
X125906450Y-123627685D01*
X126066410Y-123496410D01*
X126197685Y-123336450D01*
X126295232Y-123153954D01*
X126355300Y-122955934D01*
X126375583Y-122750000D01*
X126804417Y-122750000D01*
X126824699Y-122955932D01*
X126824700Y-122955934D01*
X126884768Y-123153954D01*
X126982315Y-123336450D01*
X126982317Y-123336452D01*
X127113589Y-123496410D01*
X127210209Y-123575702D01*
X127273550Y-123627685D01*
X127456046Y-123725232D01*
X127654066Y-123785300D01*
X127654065Y-123785300D01*
X127672529Y-123787118D01*
X127860000Y-123805583D01*
X128065934Y-123785300D01*
X128263954Y-123725232D01*
X128446450Y-123627685D01*
X128606410Y-123496410D01*
X128737685Y-123336450D01*
X128835232Y-123153954D01*
X128895300Y-122955934D01*
X128915583Y-122750000D01*
X129344417Y-122750000D01*
X129364699Y-122955932D01*
X129364700Y-122955934D01*
X129424768Y-123153954D01*
X129522315Y-123336450D01*
X129522317Y-123336452D01*
X129653589Y-123496410D01*
X129750209Y-123575702D01*
X129813550Y-123627685D01*
X129996046Y-123725232D01*
X130194066Y-123785300D01*
X130194065Y-123785300D01*
X130212529Y-123787118D01*
X130400000Y-123805583D01*
X130605934Y-123785300D01*
X130803954Y-123725232D01*
X130986450Y-123627685D01*
X131146410Y-123496410D01*
X131277685Y-123336450D01*
X131375232Y-123153954D01*
X131435300Y-122955934D01*
X131455583Y-122750000D01*
X131884417Y-122750000D01*
X131904699Y-122955932D01*
X131904700Y-122955934D01*
X131964768Y-123153954D01*
X132062315Y-123336450D01*
X132062317Y-123336452D01*
X132193589Y-123496410D01*
X132290209Y-123575702D01*
X132353550Y-123627685D01*
X132536046Y-123725232D01*
X132734066Y-123785300D01*
X132734065Y-123785300D01*
X132752529Y-123787118D01*
X132940000Y-123805583D01*
X133145934Y-123785300D01*
X133343954Y-123725232D01*
X133526450Y-123627685D01*
X133686410Y-123496410D01*
X133817685Y-123336450D01*
X133915232Y-123153954D01*
X133975300Y-122955934D01*
X133995583Y-122750000D01*
X134424417Y-122750000D01*
X134444699Y-122955932D01*
X134444700Y-122955934D01*
X134504768Y-123153954D01*
X134602315Y-123336450D01*
X134602317Y-123336452D01*
X134733589Y-123496410D01*
X134830209Y-123575702D01*
X134893550Y-123627685D01*
X135076046Y-123725232D01*
X135274066Y-123785300D01*
X135274065Y-123785300D01*
X135292529Y-123787118D01*
X135480000Y-123805583D01*
X135685934Y-123785300D01*
X135883954Y-123725232D01*
X136066450Y-123627685D01*
X136226410Y-123496410D01*
X136357685Y-123336450D01*
X136455232Y-123153954D01*
X136475406Y-123087446D01*
X136513702Y-123029010D01*
X136577514Y-123000553D01*
X136646581Y-123011112D01*
X136698975Y-123057336D01*
X136713841Y-123091349D01*
X136746567Y-123213486D01*
X136746570Y-123213492D01*
X136846399Y-123427578D01*
X136981894Y-123621082D01*
X137148917Y-123788105D01*
X137342421Y-123923600D01*
X137556507Y-124023429D01*
X137556516Y-124023433D01*
X137770000Y-124080634D01*
X137770000Y-123183012D01*
X137827007Y-123215925D01*
X137954174Y-123250000D01*
X138085826Y-123250000D01*
X138212993Y-123215925D01*
X138270000Y-123183012D01*
X138270000Y-124080633D01*
X138483483Y-124023433D01*
X138483492Y-124023429D01*
X138697578Y-123923600D01*
X138891082Y-123788105D01*
X139058105Y-123621082D01*
X139193600Y-123427578D01*
X139293429Y-123213492D01*
X139293432Y-123213486D01*
X139350636Y-123000000D01*
X138453012Y-123000000D01*
X138485925Y-122942993D01*
X138520000Y-122815826D01*
X138520000Y-122684174D01*
X138485925Y-122557007D01*
X138453012Y-122500000D01*
X139350636Y-122500000D01*
X139350635Y-122499999D01*
X139293432Y-122286513D01*
X139293429Y-122286507D01*
X139193600Y-122072422D01*
X139193599Y-122072420D01*
X139058113Y-121878926D01*
X139058108Y-121878920D01*
X138891082Y-121711894D01*
X138697578Y-121576399D01*
X138483492Y-121476570D01*
X138483486Y-121476567D01*
X138270000Y-121419364D01*
X138270000Y-122316988D01*
X138212993Y-122284075D01*
X138085826Y-122250000D01*
X137954174Y-122250000D01*
X137827007Y-122284075D01*
X137770000Y-122316988D01*
X137770000Y-121419364D01*
X137769999Y-121419364D01*
X137556513Y-121476567D01*
X137556507Y-121476570D01*
X137342422Y-121576399D01*
X137342420Y-121576400D01*
X137148926Y-121711886D01*
X137148920Y-121711891D01*
X136981891Y-121878920D01*
X136981886Y-121878926D01*
X136846400Y-122072420D01*
X136846399Y-122072422D01*
X136746570Y-122286507D01*
X136746567Y-122286514D01*
X136713841Y-122408650D01*
X136677476Y-122468310D01*
X136614629Y-122498839D01*
X136545253Y-122490544D01*
X136491375Y-122446059D01*
X136475406Y-122412553D01*
X136455232Y-122346046D01*
X136357685Y-122163550D01*
X136282897Y-122072420D01*
X136226410Y-122003589D01*
X136076121Y-121880252D01*
X136066450Y-121872315D01*
X135883954Y-121774768D01*
X135685934Y-121714700D01*
X135685932Y-121714699D01*
X135685934Y-121714699D01*
X135480000Y-121694417D01*
X135274067Y-121714699D01*
X135139736Y-121755448D01*
X135076050Y-121774767D01*
X135076043Y-121774769D01*
X134988114Y-121821769D01*
X134893550Y-121872315D01*
X134893548Y-121872316D01*
X134893547Y-121872317D01*
X134733589Y-122003589D01*
X134602317Y-122163547D01*
X134504769Y-122346043D01*
X134444699Y-122544067D01*
X134424417Y-122750000D01*
X133995583Y-122750000D01*
X133975300Y-122544066D01*
X133915232Y-122346046D01*
X133817685Y-122163550D01*
X133742897Y-122072420D01*
X133686410Y-122003589D01*
X133536121Y-121880252D01*
X133526450Y-121872315D01*
X133343954Y-121774768D01*
X133145934Y-121714700D01*
X133145932Y-121714699D01*
X133145934Y-121714699D01*
X132940000Y-121694417D01*
X132734067Y-121714699D01*
X132599736Y-121755448D01*
X132536050Y-121774767D01*
X132536043Y-121774769D01*
X132448114Y-121821769D01*
X132353550Y-121872315D01*
X132353548Y-121872316D01*
X132353547Y-121872317D01*
X132193589Y-122003589D01*
X132062317Y-122163547D01*
X131964769Y-122346043D01*
X131904699Y-122544067D01*
X131884417Y-122750000D01*
X131455583Y-122750000D01*
X131435300Y-122544066D01*
X131375232Y-122346046D01*
X131277685Y-122163550D01*
X131202897Y-122072420D01*
X131146410Y-122003589D01*
X130996121Y-121880252D01*
X130986450Y-121872315D01*
X130803954Y-121774768D01*
X130605934Y-121714700D01*
X130605932Y-121714699D01*
X130605934Y-121714699D01*
X130400000Y-121694417D01*
X130194067Y-121714699D01*
X130059736Y-121755448D01*
X129996050Y-121774767D01*
X129996043Y-121774769D01*
X129908114Y-121821769D01*
X129813550Y-121872315D01*
X129813548Y-121872316D01*
X129813547Y-121872317D01*
X129653589Y-122003589D01*
X129522317Y-122163547D01*
X129424769Y-122346043D01*
X129364699Y-122544067D01*
X129344417Y-122750000D01*
X128915583Y-122750000D01*
X128895300Y-122544066D01*
X128835232Y-122346046D01*
X128737685Y-122163550D01*
X128662897Y-122072420D01*
X128606410Y-122003589D01*
X128456121Y-121880252D01*
X128446450Y-121872315D01*
X128263954Y-121774768D01*
X128065934Y-121714700D01*
X128065932Y-121714699D01*
X128065934Y-121714699D01*
X127860000Y-121694417D01*
X127654067Y-121714699D01*
X127519736Y-121755448D01*
X127456050Y-121774767D01*
X127456043Y-121774769D01*
X127368114Y-121821769D01*
X127273550Y-121872315D01*
X127273548Y-121872316D01*
X127273547Y-121872317D01*
X127113589Y-122003589D01*
X126982317Y-122163547D01*
X126884769Y-122346043D01*
X126824699Y-122544067D01*
X126804417Y-122750000D01*
X126375583Y-122750000D01*
X126355300Y-122544066D01*
X126295232Y-122346046D01*
X126197685Y-122163550D01*
X126122897Y-122072420D01*
X126066410Y-122003589D01*
X125916121Y-121880252D01*
X125906450Y-121872315D01*
X125723954Y-121774768D01*
X125525934Y-121714700D01*
X125525932Y-121714699D01*
X125525934Y-121714699D01*
X125320000Y-121694417D01*
X125114067Y-121714699D01*
X124979736Y-121755448D01*
X124916050Y-121774767D01*
X124916043Y-121774769D01*
X124828114Y-121821769D01*
X124733550Y-121872315D01*
X124733548Y-121872316D01*
X124733547Y-121872317D01*
X124573589Y-122003589D01*
X124442317Y-122163547D01*
X124344769Y-122346043D01*
X124284699Y-122544067D01*
X124264417Y-122750000D01*
X123835583Y-122750000D01*
X123815300Y-122544066D01*
X123755232Y-122346046D01*
X123657685Y-122163550D01*
X123582897Y-122072420D01*
X123526410Y-122003589D01*
X123376121Y-121880252D01*
X123366450Y-121872315D01*
X123183954Y-121774768D01*
X122985934Y-121714700D01*
X122985932Y-121714699D01*
X122985934Y-121714699D01*
X122780000Y-121694417D01*
X122574067Y-121714699D01*
X122439736Y-121755448D01*
X122376050Y-121774767D01*
X122376043Y-121774769D01*
X122288114Y-121821769D01*
X122193550Y-121872315D01*
X122193548Y-121872316D01*
X122193547Y-121872317D01*
X122033589Y-122003589D01*
X121902317Y-122163547D01*
X121804769Y-122346043D01*
X121744699Y-122544067D01*
X121724417Y-122750000D01*
X121295583Y-122750000D01*
X121275300Y-122544066D01*
X121215232Y-122346046D01*
X121117685Y-122163550D01*
X121042897Y-122072420D01*
X120986410Y-122003589D01*
X120836121Y-121880252D01*
X120826450Y-121872315D01*
X120643954Y-121774768D01*
X120445934Y-121714700D01*
X120445932Y-121714699D01*
X120445934Y-121714699D01*
X120240000Y-121694417D01*
X120034067Y-121714699D01*
X119899736Y-121755448D01*
X119836050Y-121774767D01*
X119836043Y-121774769D01*
X119748114Y-121821769D01*
X119653550Y-121872315D01*
X119653548Y-121872316D01*
X119653547Y-121872317D01*
X119493589Y-122003589D01*
X119362317Y-122163547D01*
X119264769Y-122346043D01*
X119204699Y-122544067D01*
X119184417Y-122750000D01*
X118755583Y-122750000D01*
X118735300Y-122544066D01*
X118675232Y-122346046D01*
X118577685Y-122163550D01*
X118502897Y-122072420D01*
X118446410Y-122003589D01*
X118296121Y-121880252D01*
X118286450Y-121872315D01*
X118103954Y-121774768D01*
X117905934Y-121714700D01*
X117905932Y-121714699D01*
X117905934Y-121714699D01*
X117700000Y-121694417D01*
X117494067Y-121714699D01*
X117359736Y-121755448D01*
X117296050Y-121774767D01*
X117296043Y-121774769D01*
X117208114Y-121821769D01*
X117113550Y-121872315D01*
X117113548Y-121872316D01*
X117113547Y-121872317D01*
X116953589Y-122003589D01*
X116822317Y-122163547D01*
X116724769Y-122346043D01*
X116664699Y-122544067D01*
X116644417Y-122750000D01*
X116215583Y-122750000D01*
X116195300Y-122544066D01*
X116135232Y-122346046D01*
X116037685Y-122163550D01*
X115962897Y-122072420D01*
X115906410Y-122003589D01*
X115756121Y-121880252D01*
X115746450Y-121872315D01*
X115563954Y-121774768D01*
X115365934Y-121714700D01*
X115365932Y-121714699D01*
X115365934Y-121714699D01*
X115160000Y-121694417D01*
X114954067Y-121714699D01*
X114819736Y-121755448D01*
X114756050Y-121774767D01*
X114756043Y-121774769D01*
X114668114Y-121821769D01*
X114573550Y-121872315D01*
X114573548Y-121872316D01*
X114573547Y-121872317D01*
X114413589Y-122003589D01*
X114282317Y-122163547D01*
X114184769Y-122346043D01*
X114124699Y-122544067D01*
X114104417Y-122750000D01*
X113675583Y-122750000D01*
X113655300Y-122544066D01*
X113595232Y-122346046D01*
X113497685Y-122163550D01*
X113422897Y-122072420D01*
X113366410Y-122003589D01*
X113216121Y-121880252D01*
X113206450Y-121872315D01*
X113023954Y-121774768D01*
X112825934Y-121714700D01*
X112825932Y-121714699D01*
X112825934Y-121714699D01*
X112620000Y-121694417D01*
X112414067Y-121714699D01*
X112279736Y-121755448D01*
X112216050Y-121774767D01*
X112216043Y-121774769D01*
X112128114Y-121821769D01*
X112033550Y-121872315D01*
X112033548Y-121872316D01*
X112033547Y-121872317D01*
X111873589Y-122003589D01*
X111742317Y-122163547D01*
X111644769Y-122346043D01*
X111584699Y-122544067D01*
X111564417Y-122750000D01*
X111135583Y-122750000D01*
X111115300Y-122544066D01*
X111055232Y-122346046D01*
X110957685Y-122163550D01*
X110882897Y-122072420D01*
X110826410Y-122003589D01*
X110676121Y-121880252D01*
X110666450Y-121872315D01*
X110483954Y-121774768D01*
X110285934Y-121714700D01*
X110285932Y-121714699D01*
X110285934Y-121714699D01*
X110080000Y-121694417D01*
X109874067Y-121714699D01*
X109739736Y-121755448D01*
X109676050Y-121774767D01*
X109676043Y-121774769D01*
X109588114Y-121821769D01*
X109493550Y-121872315D01*
X109493548Y-121872316D01*
X109493547Y-121872317D01*
X109333589Y-122003589D01*
X109202317Y-122163547D01*
X109104769Y-122346043D01*
X109044699Y-122544067D01*
X109024417Y-122750000D01*
X108595583Y-122750000D01*
X108575300Y-122544066D01*
X108515232Y-122346046D01*
X108417685Y-122163550D01*
X108342897Y-122072420D01*
X108286410Y-122003589D01*
X108136121Y-121880252D01*
X108126450Y-121872315D01*
X108004786Y-121807283D01*
X107943953Y-121774767D01*
X107928504Y-121770081D01*
X107870066Y-121731784D01*
X107841609Y-121667971D01*
X107840500Y-121651421D01*
X107840500Y-120401910D01*
X107840500Y-120401909D01*
X107820021Y-120325482D01*
X107820017Y-120325475D01*
X107780464Y-120256966D01*
X107780458Y-120256958D01*
X105785681Y-118262181D01*
X105752196Y-118200858D01*
X105757180Y-118131166D01*
X105799052Y-118075233D01*
X105864516Y-118050816D01*
X105873362Y-118050500D01*
X127074167Y-118050500D01*
X127141206Y-118070185D01*
X127161848Y-118086819D01*
X128710604Y-119635575D01*
X128744089Y-119696898D01*
X128745661Y-119740902D01*
X128744353Y-119749999D01*
X128764834Y-119892456D01*
X128789117Y-119945627D01*
X128824623Y-120023373D01*
X128918872Y-120132143D01*
X129039947Y-120209953D01*
X129039950Y-120209954D01*
X129039949Y-120209954D01*
X129178036Y-120250499D01*
X129178038Y-120250500D01*
X129178039Y-120250500D01*
X129321962Y-120250500D01*
X129321962Y-120250499D01*
X129460053Y-120209953D01*
X129581128Y-120132143D01*
X129675377Y-120023373D01*
X129735165Y-119892457D01*
X129755647Y-119750000D01*
X129735165Y-119607543D01*
X129675377Y-119476627D01*
X129581128Y-119367857D01*
X129460053Y-119290047D01*
X129460051Y-119290046D01*
X129460049Y-119290045D01*
X129460050Y-119290045D01*
X129321963Y-119249500D01*
X129321961Y-119249500D01*
X129225833Y-119249500D01*
X129158794Y-119229815D01*
X129138152Y-119213181D01*
X127434512Y-117509541D01*
X127434504Y-117509535D01*
X127365995Y-117469982D01*
X127365990Y-117469979D01*
X127340513Y-117463152D01*
X127289562Y-117449500D01*
X127289560Y-117449500D01*
X105590048Y-117449500D01*
X105523009Y-117429815D01*
X105502367Y-117413181D01*
X104486819Y-116397633D01*
X104453334Y-116336310D01*
X104450500Y-116309952D01*
X104450500Y-116125000D01*
X128369353Y-116125000D01*
X128389834Y-116267456D01*
X128446921Y-116392456D01*
X128449623Y-116398373D01*
X128543872Y-116507143D01*
X128664947Y-116584953D01*
X128664950Y-116584954D01*
X128664949Y-116584954D01*
X128803036Y-116625499D01*
X128803038Y-116625500D01*
X128803039Y-116625500D01*
X128946962Y-116625500D01*
X128946962Y-116625499D01*
X129085053Y-116584953D01*
X129206128Y-116507143D01*
X129300377Y-116398373D01*
X129360165Y-116267457D01*
X129380647Y-116125000D01*
X129379339Y-116115905D01*
X129389279Y-116046749D01*
X129414392Y-116010577D01*
X130240460Y-115184511D01*
X130260096Y-115150500D01*
X130280021Y-115115989D01*
X130300500Y-115039562D01*
X130300500Y-113213738D01*
X130320185Y-113146699D01*
X130330787Y-113132535D01*
X130331124Y-113132144D01*
X130331128Y-113132143D01*
X130425377Y-113023373D01*
X130485165Y-112892457D01*
X130505647Y-112750000D01*
X130485165Y-112607543D01*
X130425377Y-112476627D01*
X130331128Y-112367857D01*
X130210053Y-112290047D01*
X130210051Y-112290046D01*
X130210049Y-112290045D01*
X130210050Y-112290045D01*
X130071963Y-112249500D01*
X130071961Y-112249500D01*
X129928039Y-112249500D01*
X129928036Y-112249500D01*
X129789949Y-112290045D01*
X129668873Y-112367856D01*
X129574623Y-112476626D01*
X129574622Y-112476628D01*
X129514834Y-112607543D01*
X129494353Y-112750000D01*
X129514834Y-112892456D01*
X129574622Y-113023371D01*
X129574623Y-113023373D01*
X129668872Y-113132143D01*
X129668875Y-113132144D01*
X129669213Y-113132535D01*
X129698238Y-113196091D01*
X129699500Y-113213738D01*
X129699500Y-114824166D01*
X129679815Y-114891205D01*
X129663181Y-114911847D01*
X128986847Y-115588181D01*
X128925524Y-115621666D01*
X128899166Y-115624500D01*
X128803036Y-115624500D01*
X128664949Y-115665045D01*
X128543873Y-115742856D01*
X128449623Y-115851626D01*
X128449622Y-115851628D01*
X128389834Y-115982543D01*
X128369353Y-116125000D01*
X104450500Y-116125000D01*
X104450500Y-111530000D01*
X135194417Y-111530000D01*
X135214699Y-111735932D01*
X135214700Y-111735934D01*
X135274768Y-111933954D01*
X135372315Y-112116450D01*
X135393658Y-112142457D01*
X135503589Y-112276410D01*
X135546614Y-112311719D01*
X135663550Y-112407685D01*
X135846046Y-112505232D01*
X136044066Y-112565300D01*
X136044065Y-112565300D01*
X136062529Y-112567118D01*
X136250000Y-112585583D01*
X136455934Y-112565300D01*
X136653954Y-112505232D01*
X136836450Y-112407685D01*
X136996410Y-112276410D01*
X137127685Y-112116450D01*
X137225232Y-111933954D01*
X137285300Y-111735934D01*
X137305583Y-111530000D01*
X137734417Y-111530000D01*
X137754699Y-111735932D01*
X137754700Y-111735934D01*
X137814768Y-111933954D01*
X137912315Y-112116450D01*
X137933658Y-112142457D01*
X138043589Y-112276410D01*
X138086614Y-112311719D01*
X138203550Y-112407685D01*
X138386046Y-112505232D01*
X138584066Y-112565300D01*
X138584065Y-112565300D01*
X138602529Y-112567118D01*
X138790000Y-112585583D01*
X138995934Y-112565300D01*
X139193954Y-112505232D01*
X139376450Y-112407685D01*
X139536410Y-112276410D01*
X139667685Y-112116450D01*
X139765232Y-111933954D01*
X139825300Y-111735934D01*
X139845583Y-111530000D01*
X139825300Y-111324066D01*
X139765232Y-111126046D01*
X139667685Y-110943550D01*
X139615702Y-110880209D01*
X139536410Y-110783589D01*
X139376452Y-110652317D01*
X139376453Y-110652317D01*
X139376450Y-110652315D01*
X139193954Y-110554768D01*
X138995934Y-110494700D01*
X138995932Y-110494699D01*
X138995934Y-110494699D01*
X138790000Y-110474417D01*
X138584067Y-110494699D01*
X138386043Y-110554769D01*
X138275898Y-110613643D01*
X138203550Y-110652315D01*
X138203548Y-110652316D01*
X138203547Y-110652317D01*
X138043589Y-110783589D01*
X137912317Y-110943547D01*
X137814769Y-111126043D01*
X137754699Y-111324067D01*
X137734417Y-111530000D01*
X137305583Y-111530000D01*
X137285300Y-111324066D01*
X137225232Y-111126046D01*
X137127685Y-110943550D01*
X137075702Y-110880209D01*
X136996410Y-110783589D01*
X136836452Y-110652317D01*
X136836453Y-110652317D01*
X136836450Y-110652315D01*
X136653954Y-110554768D01*
X136455934Y-110494700D01*
X136455932Y-110494699D01*
X136455934Y-110494699D01*
X136250000Y-110474417D01*
X136044067Y-110494699D01*
X135846043Y-110554769D01*
X135735898Y-110613643D01*
X135663550Y-110652315D01*
X135663548Y-110652316D01*
X135663547Y-110652317D01*
X135503589Y-110783589D01*
X135372317Y-110943547D01*
X135274769Y-111126043D01*
X135214699Y-111324067D01*
X135194417Y-111530000D01*
X104450500Y-111530000D01*
X104450500Y-106150000D01*
X118394353Y-106150000D01*
X118414834Y-106292456D01*
X118474622Y-106423371D01*
X118474623Y-106423373D01*
X118568872Y-106532143D01*
X118689947Y-106609953D01*
X118689950Y-106609954D01*
X118689949Y-106609954D01*
X118828036Y-106650499D01*
X118828038Y-106650500D01*
X118828039Y-106650500D01*
X118971962Y-106650500D01*
X118971962Y-106650499D01*
X119110053Y-106609953D01*
X119231128Y-106532143D01*
X119325377Y-106423373D01*
X119385165Y-106292457D01*
X119405647Y-106150000D01*
X119398053Y-106097185D01*
X119407996Y-106028030D01*
X119433107Y-105991862D01*
X120338152Y-105086819D01*
X120399475Y-105053334D01*
X120425833Y-105050500D01*
X125574167Y-105050500D01*
X125641206Y-105070185D01*
X125661848Y-105086819D01*
X129335604Y-108760575D01*
X129369089Y-108821898D01*
X129370661Y-108865902D01*
X129369353Y-108874999D01*
X129389834Y-109017456D01*
X129449622Y-109148371D01*
X129449623Y-109148373D01*
X129543872Y-109257143D01*
X129664947Y-109334953D01*
X129664950Y-109334954D01*
X129664949Y-109334954D01*
X129803036Y-109375499D01*
X129803038Y-109375500D01*
X129803039Y-109375500D01*
X129946962Y-109375500D01*
X129946962Y-109375499D01*
X130085053Y-109334953D01*
X130206128Y-109257143D01*
X130300377Y-109148373D01*
X130360165Y-109017457D01*
X130380647Y-108875000D01*
X130360165Y-108732543D01*
X130300377Y-108601627D01*
X130206128Y-108492857D01*
X130085053Y-108415047D01*
X130085051Y-108415046D01*
X130085049Y-108415045D01*
X130085050Y-108415045D01*
X129946963Y-108374500D01*
X129946961Y-108374500D01*
X129850833Y-108374500D01*
X129783794Y-108354815D01*
X129763152Y-108338181D01*
X125934512Y-104509541D01*
X125934511Y-104509540D01*
X125911838Y-104496450D01*
X125911838Y-104496448D01*
X125911835Y-104496448D01*
X125865994Y-104469981D01*
X125865991Y-104469979D01*
X125827775Y-104459739D01*
X125789562Y-104449500D01*
X120210438Y-104449500D01*
X120179867Y-104457691D01*
X120134008Y-104469979D01*
X120134007Y-104469980D01*
X120088163Y-104496449D01*
X120088162Y-104496450D01*
X120065490Y-104509539D01*
X120065487Y-104509541D01*
X118961848Y-105613181D01*
X118900525Y-105646666D01*
X118874167Y-105649500D01*
X118828036Y-105649500D01*
X118689949Y-105690045D01*
X118568873Y-105767856D01*
X118474623Y-105876626D01*
X118474622Y-105876628D01*
X118414834Y-106007543D01*
X118394353Y-106150000D01*
X104450500Y-106150000D01*
X104450500Y-97025833D01*
X104470185Y-96958794D01*
X104486819Y-96938152D01*
X106240460Y-95184511D01*
X106477495Y-94947476D01*
X106763151Y-94661818D01*
X106824474Y-94628334D01*
X106850832Y-94625500D01*
X106946962Y-94625500D01*
X106946962Y-94625499D01*
X107085053Y-94584953D01*
X107206128Y-94507143D01*
X107300377Y-94398373D01*
X107360165Y-94267457D01*
X107380647Y-94125000D01*
X107360165Y-93982543D01*
X107300377Y-93851627D01*
X107206128Y-93742857D01*
X107085053Y-93665047D01*
X107085051Y-93665046D01*
X107085049Y-93665045D01*
X107085050Y-93665045D01*
X106946963Y-93624500D01*
X106946961Y-93624500D01*
X106803039Y-93624500D01*
X106803036Y-93624500D01*
X106664949Y-93665045D01*
X106543873Y-93742856D01*
X106449623Y-93851626D01*
X106449622Y-93851628D01*
X106389834Y-93982543D01*
X106369353Y-94125000D01*
X106369353Y-94125001D01*
X106370661Y-94134103D01*
X106360713Y-94203261D01*
X106335603Y-94239424D01*
X105815489Y-94759540D01*
X103909541Y-96665487D01*
X103909535Y-96665495D01*
X103869982Y-96734004D01*
X103869979Y-96734009D01*
X103856326Y-96784962D01*
X103854977Y-96790000D01*
X103849500Y-96810439D01*
X103849500Y-116026637D01*
X103829815Y-116093676D01*
X103777011Y-116139431D01*
X103707853Y-116149375D01*
X103644297Y-116120350D01*
X103637819Y-116114318D01*
X101836819Y-114313318D01*
X101803334Y-114251995D01*
X101800500Y-114225637D01*
X101800500Y-97807205D01*
X101820185Y-97740166D01*
X101836819Y-97719524D01*
X106419524Y-93136819D01*
X106480847Y-93103334D01*
X106507205Y-93100500D01*
X111989560Y-93100500D01*
X111989562Y-93100500D01*
X112065989Y-93080021D01*
X112134511Y-93040460D01*
X112190460Y-92984511D01*
X114865460Y-90309511D01*
X114905021Y-90240989D01*
X114925500Y-90164562D01*
X114925500Y-87838738D01*
X114945185Y-87771699D01*
X114955787Y-87757535D01*
X114956124Y-87757144D01*
X114956128Y-87757143D01*
X115050377Y-87648373D01*
X115110165Y-87517457D01*
X115130647Y-87375000D01*
X115129339Y-87365905D01*
X115139279Y-87296749D01*
X115164392Y-87260577D01*
X117737821Y-84687149D01*
X117799142Y-84653666D01*
X117868834Y-84658650D01*
X117924767Y-84700522D01*
X117949184Y-84765986D01*
X117949500Y-84774832D01*
X117949500Y-90036260D01*
X117929815Y-90103299D01*
X117919213Y-90117462D01*
X117824625Y-90226622D01*
X117824622Y-90226628D01*
X117764834Y-90357543D01*
X117744353Y-90500000D01*
X117764834Y-90642456D01*
X117824622Y-90773371D01*
X117824623Y-90773373D01*
X117918872Y-90882143D01*
X118039947Y-90959953D01*
X118039950Y-90959954D01*
X118039949Y-90959954D01*
X118178036Y-91000499D01*
X118178038Y-91000500D01*
X118178039Y-91000500D01*
X118321962Y-91000500D01*
X118321962Y-91000499D01*
X118460053Y-90959953D01*
X118581128Y-90882143D01*
X118675377Y-90773373D01*
X118735165Y-90642457D01*
X118755647Y-90500000D01*
X118735165Y-90357543D01*
X118675377Y-90226627D01*
X118675375Y-90226625D01*
X118675374Y-90226622D01*
X118580787Y-90117462D01*
X118551762Y-90053906D01*
X118550500Y-90036260D01*
X118550500Y-87205438D01*
X130204500Y-87205438D01*
X130204500Y-106784562D01*
X130218152Y-106835513D01*
X130224979Y-106860990D01*
X130241118Y-106888942D01*
X130263899Y-106928401D01*
X130263904Y-106928418D01*
X130263908Y-106928416D01*
X130264540Y-106929511D01*
X132509540Y-109174511D01*
X132565489Y-109230460D01*
X132565491Y-109230461D01*
X132565495Y-109230464D01*
X132634004Y-109270017D01*
X132634011Y-109270021D01*
X132710438Y-109290500D01*
X135151421Y-109290500D01*
X135218460Y-109310185D01*
X135264215Y-109362989D01*
X135270081Y-109378503D01*
X135274768Y-109393954D01*
X135372315Y-109576450D01*
X135372317Y-109576452D01*
X135503589Y-109736410D01*
X135600209Y-109815702D01*
X135663550Y-109867685D01*
X135846046Y-109965232D01*
X136044066Y-110025300D01*
X136044065Y-110025300D01*
X136062529Y-110027118D01*
X136250000Y-110045583D01*
X136455934Y-110025300D01*
X136653954Y-109965232D01*
X136836450Y-109867685D01*
X136996410Y-109736410D01*
X137127685Y-109576450D01*
X137225232Y-109393954D01*
X137285300Y-109195934D01*
X137305583Y-108990000D01*
X137734417Y-108990000D01*
X137754699Y-109195932D01*
X137777173Y-109270020D01*
X137814768Y-109393954D01*
X137912315Y-109576450D01*
X137912317Y-109576452D01*
X138043589Y-109736410D01*
X138140209Y-109815702D01*
X138203550Y-109867685D01*
X138386046Y-109965232D01*
X138584066Y-110025300D01*
X138584065Y-110025300D01*
X138602529Y-110027118D01*
X138790000Y-110045583D01*
X138995934Y-110025300D01*
X139193954Y-109965232D01*
X139376450Y-109867685D01*
X139536410Y-109736410D01*
X139667685Y-109576450D01*
X139765232Y-109393954D01*
X139825300Y-109195934D01*
X139845583Y-108990000D01*
X139825300Y-108784066D01*
X139765232Y-108586046D01*
X139667685Y-108403550D01*
X139614038Y-108338181D01*
X139536410Y-108243589D01*
X139376452Y-108112317D01*
X139376453Y-108112317D01*
X139376450Y-108112315D01*
X139193954Y-108014768D01*
X138995934Y-107954700D01*
X138995932Y-107954699D01*
X138995934Y-107954699D01*
X138790000Y-107934417D01*
X138584067Y-107954699D01*
X138386043Y-108014769D01*
X138275898Y-108073643D01*
X138203550Y-108112315D01*
X138203548Y-108112316D01*
X138203547Y-108112317D01*
X138043589Y-108243589D01*
X137912317Y-108403547D01*
X137814769Y-108586043D01*
X137754699Y-108784067D01*
X137734417Y-108990000D01*
X137305583Y-108990000D01*
X137285300Y-108784066D01*
X137225232Y-108586046D01*
X137127685Y-108403550D01*
X137074038Y-108338181D01*
X136996410Y-108243589D01*
X136836452Y-108112317D01*
X136836453Y-108112317D01*
X136836450Y-108112315D01*
X136653954Y-108014768D01*
X136455934Y-107954700D01*
X136455932Y-107954699D01*
X136455934Y-107954699D01*
X136250000Y-107934417D01*
X136044067Y-107954699D01*
X135846043Y-108014769D01*
X135735898Y-108073643D01*
X135663550Y-108112315D01*
X135663548Y-108112316D01*
X135663547Y-108112317D01*
X135503589Y-108243589D01*
X135372317Y-108403547D01*
X135274769Y-108586043D01*
X135274768Y-108586046D01*
X135270081Y-108601497D01*
X135231783Y-108659935D01*
X135167970Y-108688391D01*
X135151421Y-108689500D01*
X132925833Y-108689500D01*
X132858794Y-108669815D01*
X132838152Y-108653181D01*
X130841819Y-106656848D01*
X130808334Y-106595525D01*
X130805500Y-106569167D01*
X130805500Y-106450000D01*
X135194417Y-106450000D01*
X135214699Y-106655932D01*
X135214700Y-106655934D01*
X135274768Y-106853954D01*
X135372315Y-107036450D01*
X135372317Y-107036452D01*
X135503589Y-107196410D01*
X135600209Y-107275702D01*
X135663550Y-107327685D01*
X135846046Y-107425232D01*
X136044066Y-107485300D01*
X136044065Y-107485300D01*
X136062529Y-107487118D01*
X136250000Y-107505583D01*
X136455934Y-107485300D01*
X136653954Y-107425232D01*
X136836450Y-107327685D01*
X136996410Y-107196410D01*
X137127685Y-107036450D01*
X137225232Y-106853954D01*
X137285300Y-106655934D01*
X137305583Y-106450000D01*
X137734417Y-106450000D01*
X137754699Y-106655932D01*
X137754700Y-106655934D01*
X137814768Y-106853954D01*
X137912315Y-107036450D01*
X137912317Y-107036452D01*
X138043589Y-107196410D01*
X138140209Y-107275702D01*
X138203550Y-107327685D01*
X138386046Y-107425232D01*
X138584066Y-107485300D01*
X138584065Y-107485300D01*
X138602529Y-107487118D01*
X138790000Y-107505583D01*
X138995934Y-107485300D01*
X139193954Y-107425232D01*
X139376450Y-107327685D01*
X139536410Y-107196410D01*
X139667685Y-107036450D01*
X139765232Y-106853954D01*
X139825300Y-106655934D01*
X139845583Y-106450000D01*
X139825300Y-106244066D01*
X139765232Y-106046046D01*
X139667685Y-105863550D01*
X139615702Y-105800209D01*
X139536410Y-105703589D01*
X139376452Y-105572317D01*
X139376453Y-105572317D01*
X139376450Y-105572315D01*
X139193954Y-105474768D01*
X138995934Y-105414700D01*
X138995932Y-105414699D01*
X138995934Y-105414699D01*
X138790000Y-105394417D01*
X138584067Y-105414699D01*
X138386043Y-105474769D01*
X138337905Y-105500500D01*
X138203550Y-105572315D01*
X138203548Y-105572316D01*
X138203547Y-105572317D01*
X138043589Y-105703589D01*
X137912317Y-105863547D01*
X137814769Y-106046043D01*
X137754699Y-106244067D01*
X137734417Y-106450000D01*
X137305583Y-106450000D01*
X137285300Y-106244066D01*
X137225232Y-106046046D01*
X137127685Y-105863550D01*
X137075702Y-105800209D01*
X136996410Y-105703589D01*
X136836452Y-105572317D01*
X136836453Y-105572317D01*
X136836450Y-105572315D01*
X136653954Y-105474768D01*
X136455934Y-105414700D01*
X136455932Y-105414699D01*
X136455934Y-105414699D01*
X136250000Y-105394417D01*
X136044067Y-105414699D01*
X135846043Y-105474769D01*
X135797905Y-105500500D01*
X135663550Y-105572315D01*
X135663548Y-105572316D01*
X135663547Y-105572317D01*
X135503589Y-105703589D01*
X135372317Y-105863547D01*
X135274769Y-106046043D01*
X135214699Y-106244067D01*
X135194417Y-106450000D01*
X130805500Y-106450000D01*
X130805500Y-105536372D01*
X130825185Y-105469333D01*
X130877989Y-105423578D01*
X130947147Y-105413634D01*
X130996540Y-105432057D01*
X131039948Y-105459954D01*
X131178036Y-105500499D01*
X131178038Y-105500500D01*
X131178039Y-105500500D01*
X131321962Y-105500500D01*
X131321962Y-105500499D01*
X131460053Y-105459953D01*
X131581128Y-105382143D01*
X131675377Y-105273373D01*
X131735165Y-105142457D01*
X131755647Y-105000000D01*
X131735165Y-104857543D01*
X131675377Y-104726627D01*
X131675375Y-104726625D01*
X131675374Y-104726622D01*
X131580787Y-104617462D01*
X131551762Y-104553906D01*
X131550500Y-104536260D01*
X131550500Y-103910000D01*
X135194417Y-103910000D01*
X135214699Y-104115932D01*
X135214700Y-104115934D01*
X135274768Y-104313954D01*
X135372315Y-104496450D01*
X135404986Y-104536260D01*
X135503589Y-104656410D01*
X135589144Y-104726622D01*
X135663550Y-104787685D01*
X135846046Y-104885232D01*
X136044066Y-104945300D01*
X136044065Y-104945300D01*
X136062529Y-104947118D01*
X136250000Y-104965583D01*
X136455934Y-104945300D01*
X136653954Y-104885232D01*
X136836450Y-104787685D01*
X136996410Y-104656410D01*
X137127685Y-104496450D01*
X137225232Y-104313954D01*
X137285300Y-104115934D01*
X137305583Y-103910000D01*
X137734417Y-103910000D01*
X137754699Y-104115932D01*
X137754700Y-104115934D01*
X137814768Y-104313954D01*
X137912315Y-104496450D01*
X137944986Y-104536260D01*
X138043589Y-104656410D01*
X138129144Y-104726622D01*
X138203550Y-104787685D01*
X138386046Y-104885232D01*
X138584066Y-104945300D01*
X138584065Y-104945300D01*
X138602529Y-104947118D01*
X138790000Y-104965583D01*
X138995934Y-104945300D01*
X139193954Y-104885232D01*
X139376450Y-104787685D01*
X139536410Y-104656410D01*
X139667685Y-104496450D01*
X139765232Y-104313954D01*
X139825300Y-104115934D01*
X139845583Y-103910000D01*
X139825300Y-103704066D01*
X139765232Y-103506046D01*
X139667685Y-103323550D01*
X139615702Y-103260209D01*
X139536410Y-103163589D01*
X139376452Y-103032317D01*
X139376453Y-103032317D01*
X139376450Y-103032315D01*
X139193954Y-102934768D01*
X138995934Y-102874700D01*
X138995932Y-102874699D01*
X138995934Y-102874699D01*
X138790000Y-102854417D01*
X138584067Y-102874699D01*
X138386043Y-102934769D01*
X138275898Y-102993643D01*
X138203550Y-103032315D01*
X138203548Y-103032316D01*
X138203547Y-103032317D01*
X138043589Y-103163589D01*
X137912317Y-103323547D01*
X137814769Y-103506043D01*
X137754699Y-103704067D01*
X137734417Y-103910000D01*
X137305583Y-103910000D01*
X137285300Y-103704066D01*
X137225232Y-103506046D01*
X137127685Y-103323550D01*
X137075702Y-103260209D01*
X136996410Y-103163589D01*
X136836452Y-103032317D01*
X136836453Y-103032317D01*
X136836450Y-103032315D01*
X136653954Y-102934768D01*
X136455934Y-102874700D01*
X136455932Y-102874699D01*
X136455934Y-102874699D01*
X136250000Y-102854417D01*
X136044067Y-102874699D01*
X135846043Y-102934769D01*
X135735898Y-102993643D01*
X135663550Y-103032315D01*
X135663548Y-103032316D01*
X135663547Y-103032317D01*
X135503589Y-103163589D01*
X135372317Y-103323547D01*
X135274769Y-103506043D01*
X135214699Y-103704067D01*
X135194417Y-103910000D01*
X131550500Y-103910000D01*
X131550500Y-101370000D01*
X135194417Y-101370000D01*
X135214699Y-101575932D01*
X135214700Y-101575934D01*
X135274768Y-101773954D01*
X135372315Y-101956450D01*
X135372317Y-101956452D01*
X135503589Y-102116410D01*
X135600209Y-102195702D01*
X135663550Y-102247685D01*
X135846046Y-102345232D01*
X136044066Y-102405300D01*
X136044065Y-102405300D01*
X136062529Y-102407118D01*
X136250000Y-102425583D01*
X136455934Y-102405300D01*
X136653954Y-102345232D01*
X136836450Y-102247685D01*
X136996410Y-102116410D01*
X137127685Y-101956450D01*
X137225232Y-101773954D01*
X137285300Y-101575934D01*
X137305583Y-101370000D01*
X137734417Y-101370000D01*
X137754699Y-101575932D01*
X137754700Y-101575934D01*
X137814768Y-101773954D01*
X137912315Y-101956450D01*
X137912317Y-101956452D01*
X138043589Y-102116410D01*
X138140209Y-102195702D01*
X138203550Y-102247685D01*
X138386046Y-102345232D01*
X138584066Y-102405300D01*
X138584065Y-102405300D01*
X138602529Y-102407118D01*
X138790000Y-102425583D01*
X138995934Y-102405300D01*
X139193954Y-102345232D01*
X139376450Y-102247685D01*
X139536410Y-102116410D01*
X139667685Y-101956450D01*
X139765232Y-101773954D01*
X139825300Y-101575934D01*
X139845583Y-101370000D01*
X139825300Y-101164066D01*
X139765232Y-100966046D01*
X139667685Y-100783550D01*
X139589502Y-100688283D01*
X139536410Y-100623589D01*
X139414299Y-100523377D01*
X139376450Y-100492315D01*
X139193954Y-100394768D01*
X138995934Y-100334700D01*
X138995932Y-100334699D01*
X138995934Y-100334699D01*
X138790000Y-100314417D01*
X138584067Y-100334699D01*
X138416355Y-100385574D01*
X138393665Y-100392457D01*
X138386043Y-100394769D01*
X138321133Y-100429465D01*
X138203550Y-100492315D01*
X138203548Y-100492316D01*
X138203547Y-100492317D01*
X138043589Y-100623589D01*
X137912317Y-100783547D01*
X137814769Y-100966043D01*
X137754699Y-101164067D01*
X137734417Y-101370000D01*
X137305583Y-101370000D01*
X137285300Y-101164066D01*
X137225232Y-100966046D01*
X137127685Y-100783550D01*
X137049502Y-100688283D01*
X136996410Y-100623589D01*
X136874299Y-100523377D01*
X136836450Y-100492315D01*
X136653954Y-100394768D01*
X136455934Y-100334700D01*
X136455932Y-100334699D01*
X136455934Y-100334699D01*
X136250000Y-100314417D01*
X136044067Y-100334699D01*
X135876355Y-100385574D01*
X135853665Y-100392457D01*
X135846043Y-100394769D01*
X135781133Y-100429465D01*
X135663550Y-100492315D01*
X135663548Y-100492316D01*
X135663547Y-100492317D01*
X135503589Y-100623589D01*
X135372317Y-100783547D01*
X135274769Y-100966043D01*
X135214699Y-101164067D01*
X135194417Y-101370000D01*
X131550500Y-101370000D01*
X131550500Y-98830000D01*
X135194417Y-98830000D01*
X135214699Y-99035932D01*
X135214700Y-99035934D01*
X135274768Y-99233954D01*
X135372315Y-99416450D01*
X135372317Y-99416452D01*
X135503589Y-99576410D01*
X135600209Y-99655702D01*
X135663550Y-99707685D01*
X135846046Y-99805232D01*
X136044066Y-99865300D01*
X136044065Y-99865300D01*
X136062529Y-99867118D01*
X136250000Y-99885583D01*
X136455934Y-99865300D01*
X136653954Y-99805232D01*
X136836450Y-99707685D01*
X136996410Y-99576410D01*
X137127685Y-99416450D01*
X137225232Y-99233954D01*
X137285300Y-99035934D01*
X137305583Y-98830000D01*
X137285300Y-98624066D01*
X137225232Y-98426046D01*
X137127685Y-98243550D01*
X137063148Y-98164911D01*
X136996410Y-98083589D01*
X136836452Y-97952317D01*
X136836453Y-97952317D01*
X136836450Y-97952315D01*
X136653954Y-97854768D01*
X136455934Y-97794700D01*
X136455932Y-97794699D01*
X136455934Y-97794699D01*
X136250000Y-97774417D01*
X136044067Y-97794699D01*
X135868692Y-97847898D01*
X135846050Y-97854767D01*
X135846043Y-97854769D01*
X135739260Y-97911847D01*
X135663550Y-97952315D01*
X135663548Y-97952316D01*
X135663547Y-97952317D01*
X135503589Y-98083589D01*
X135372317Y-98243547D01*
X135274769Y-98426043D01*
X135214699Y-98624067D01*
X135194417Y-98830000D01*
X131550500Y-98830000D01*
X131550500Y-96290000D01*
X135194417Y-96290000D01*
X135214699Y-96495932D01*
X135223616Y-96525326D01*
X135274768Y-96693954D01*
X135372315Y-96876450D01*
X135372317Y-96876452D01*
X135503589Y-97036410D01*
X135557739Y-97080849D01*
X135663550Y-97167685D01*
X135846046Y-97265232D01*
X136044066Y-97325300D01*
X136044065Y-97325300D01*
X136062529Y-97327118D01*
X136250000Y-97345583D01*
X136455934Y-97325300D01*
X136653954Y-97265232D01*
X136836450Y-97167685D01*
X136996410Y-97036410D01*
X137127685Y-96876450D01*
X137225232Y-96693954D01*
X137245406Y-96627446D01*
X137283702Y-96569010D01*
X137347514Y-96540553D01*
X137416581Y-96551112D01*
X137468975Y-96597336D01*
X137483841Y-96631349D01*
X137516567Y-96753486D01*
X137516570Y-96753492D01*
X137616400Y-96967579D01*
X137616402Y-96967583D01*
X137675072Y-97051373D01*
X137675073Y-97051373D01*
X138307037Y-96419409D01*
X138324075Y-96482993D01*
X138389901Y-96597007D01*
X138482993Y-96690099D01*
X138597007Y-96755925D01*
X138660590Y-96772962D01*
X138028625Y-97404925D01*
X138112421Y-97463599D01*
X138326507Y-97563429D01*
X138326516Y-97563433D01*
X138448649Y-97596158D01*
X138508310Y-97632523D01*
X138538839Y-97695369D01*
X138530545Y-97764745D01*
X138486059Y-97818623D01*
X138452552Y-97834593D01*
X138386046Y-97854767D01*
X138255358Y-97924622D01*
X138203550Y-97952315D01*
X138203548Y-97952316D01*
X138203547Y-97952317D01*
X138043589Y-98083589D01*
X137912317Y-98243547D01*
X137814769Y-98426043D01*
X137754699Y-98624067D01*
X137734417Y-98830000D01*
X137754699Y-99035932D01*
X137754700Y-99035934D01*
X137814768Y-99233954D01*
X137912315Y-99416450D01*
X137912317Y-99416452D01*
X138043589Y-99576410D01*
X138140209Y-99655702D01*
X138203550Y-99707685D01*
X138386046Y-99805232D01*
X138584066Y-99865300D01*
X138584065Y-99865300D01*
X138602529Y-99867118D01*
X138790000Y-99885583D01*
X138995934Y-99865300D01*
X139193954Y-99805232D01*
X139376450Y-99707685D01*
X139536410Y-99576410D01*
X139667685Y-99416450D01*
X139765232Y-99233954D01*
X139825300Y-99035934D01*
X139845583Y-98830000D01*
X139825300Y-98624066D01*
X139765232Y-98426046D01*
X139667685Y-98243550D01*
X139603148Y-98164911D01*
X139536410Y-98083589D01*
X139376452Y-97952317D01*
X139376453Y-97952317D01*
X139376450Y-97952315D01*
X139193954Y-97854768D01*
X139127447Y-97834593D01*
X139069009Y-97796296D01*
X139040553Y-97732484D01*
X139051113Y-97663417D01*
X139097337Y-97611023D01*
X139131350Y-97596158D01*
X139253483Y-97563433D01*
X139253492Y-97563429D01*
X139467578Y-97463600D01*
X139467582Y-97463598D01*
X139551373Y-97404926D01*
X139551373Y-97404925D01*
X138919409Y-96772962D01*
X138982993Y-96755925D01*
X139097007Y-96690099D01*
X139190099Y-96597007D01*
X139255925Y-96482993D01*
X139272962Y-96419409D01*
X139904925Y-97051373D01*
X139904926Y-97051373D01*
X139963598Y-96967582D01*
X139963600Y-96967578D01*
X140063429Y-96753492D01*
X140063433Y-96753483D01*
X140124567Y-96525326D01*
X140124569Y-96525315D01*
X140145157Y-96290001D01*
X140145157Y-96289998D01*
X140124569Y-96054684D01*
X140124567Y-96054673D01*
X140063433Y-95826516D01*
X140063429Y-95826507D01*
X139963600Y-95612423D01*
X139963599Y-95612421D01*
X139904925Y-95528626D01*
X139904925Y-95528625D01*
X139272962Y-96160589D01*
X139255925Y-96097007D01*
X139190099Y-95982993D01*
X139097007Y-95889901D01*
X138982993Y-95824075D01*
X138919410Y-95807037D01*
X139551373Y-95175073D01*
X139551373Y-95175072D01*
X139467583Y-95116402D01*
X139467579Y-95116400D01*
X139253492Y-95016570D01*
X139253486Y-95016567D01*
X139131349Y-94983841D01*
X139071689Y-94947476D01*
X139041160Y-94884629D01*
X139049455Y-94815253D01*
X139093940Y-94761375D01*
X139127444Y-94745407D01*
X139193954Y-94725232D01*
X139376450Y-94627685D01*
X139536410Y-94496410D01*
X139667685Y-94336450D01*
X139765232Y-94153954D01*
X139825300Y-93955934D01*
X139845583Y-93750000D01*
X139825300Y-93544066D01*
X139765232Y-93346046D01*
X139667685Y-93163550D01*
X139566672Y-93040464D01*
X139536410Y-93003589D01*
X139376452Y-92872317D01*
X139376453Y-92872317D01*
X139376450Y-92872315D01*
X139193954Y-92774768D01*
X138995934Y-92714700D01*
X138995932Y-92714699D01*
X138995934Y-92714699D01*
X138790000Y-92694417D01*
X138584067Y-92714699D01*
X138386043Y-92774769D01*
X138286737Y-92827850D01*
X138203550Y-92872315D01*
X138203548Y-92872316D01*
X138203547Y-92872317D01*
X138043589Y-93003589D01*
X137912317Y-93163547D01*
X137814769Y-93346043D01*
X137754699Y-93544067D01*
X137734417Y-93750000D01*
X137754699Y-93955932D01*
X137784734Y-94054944D01*
X137814768Y-94153954D01*
X137912315Y-94336450D01*
X137912317Y-94336452D01*
X138043589Y-94496410D01*
X138124584Y-94562880D01*
X138203550Y-94627685D01*
X138386046Y-94725232D01*
X138452551Y-94745405D01*
X138510989Y-94783702D01*
X138539446Y-94847514D01*
X138528887Y-94916581D01*
X138482663Y-94968975D01*
X138448650Y-94983841D01*
X138326514Y-95016567D01*
X138326507Y-95016570D01*
X138112419Y-95116401D01*
X138028625Y-95175072D01*
X138660590Y-95807037D01*
X138597007Y-95824075D01*
X138482993Y-95889901D01*
X138389901Y-95982993D01*
X138324075Y-96097007D01*
X138307037Y-96160590D01*
X137675072Y-95528625D01*
X137616401Y-95612419D01*
X137516570Y-95826507D01*
X137516567Y-95826514D01*
X137483841Y-95948650D01*
X137447476Y-96008310D01*
X137384629Y-96038839D01*
X137315253Y-96030544D01*
X137261375Y-95986059D01*
X137245406Y-95952553D01*
X137225232Y-95886046D01*
X137127685Y-95703550D01*
X137075702Y-95640209D01*
X136996410Y-95543589D01*
X136836452Y-95412317D01*
X136836453Y-95412317D01*
X136836450Y-95412315D01*
X136653954Y-95314768D01*
X136455934Y-95254700D01*
X136455932Y-95254699D01*
X136455934Y-95254699D01*
X136250000Y-95234417D01*
X136044067Y-95254699D01*
X135846043Y-95314769D01*
X135735898Y-95373643D01*
X135663550Y-95412315D01*
X135663548Y-95412316D01*
X135663547Y-95412317D01*
X135503589Y-95543589D01*
X135372317Y-95703547D01*
X135274769Y-95886043D01*
X135214699Y-96084067D01*
X135194417Y-96290000D01*
X131550500Y-96290000D01*
X131550500Y-93095730D01*
X135199500Y-93095730D01*
X135199500Y-94404269D01*
X135202353Y-94434699D01*
X135202353Y-94434701D01*
X135247206Y-94562880D01*
X135247207Y-94562882D01*
X135327850Y-94672150D01*
X135437118Y-94752793D01*
X135456400Y-94759540D01*
X135565299Y-94797646D01*
X135595730Y-94800500D01*
X135595734Y-94800500D01*
X136904270Y-94800500D01*
X136934699Y-94797646D01*
X136934701Y-94797646D01*
X136998790Y-94775219D01*
X137062882Y-94752793D01*
X137172150Y-94672150D01*
X137252793Y-94562882D01*
X137276052Y-94496410D01*
X137297646Y-94434701D01*
X137297646Y-94434699D01*
X137300500Y-94404269D01*
X137300500Y-93095730D01*
X137297646Y-93065300D01*
X137297646Y-93065298D01*
X137252793Y-92937119D01*
X137252792Y-92937117D01*
X137172150Y-92827850D01*
X137062882Y-92747207D01*
X137062880Y-92747206D01*
X136934700Y-92702353D01*
X136904270Y-92699500D01*
X136904266Y-92699500D01*
X135595734Y-92699500D01*
X135595730Y-92699500D01*
X135565300Y-92702353D01*
X135565298Y-92702353D01*
X135437119Y-92747206D01*
X135437117Y-92747207D01*
X135327850Y-92827850D01*
X135247207Y-92937117D01*
X135247206Y-92937119D01*
X135202353Y-93065298D01*
X135202353Y-93065300D01*
X135199500Y-93095730D01*
X131550500Y-93095730D01*
X131550500Y-87425833D01*
X131570185Y-87358794D01*
X131586819Y-87338152D01*
X132338152Y-86586819D01*
X132399475Y-86553334D01*
X132425833Y-86550500D01*
X141039560Y-86550500D01*
X141039562Y-86550500D01*
X141115989Y-86530021D01*
X141184511Y-86490460D01*
X141240460Y-86434511D01*
X143467959Y-84207012D01*
X143482588Y-84181673D01*
X143507520Y-84138490D01*
X143527999Y-84062063D01*
X143527999Y-79948333D01*
X143547684Y-79881294D01*
X143564313Y-79860657D01*
X144888151Y-78536818D01*
X144949474Y-78503334D01*
X144975832Y-78500500D01*
X145071962Y-78500500D01*
X145071962Y-78500499D01*
X145179121Y-78469035D01*
X145210050Y-78459954D01*
X145210050Y-78459953D01*
X145210053Y-78459953D01*
X145331128Y-78382143D01*
X145425377Y-78273373D01*
X145485165Y-78142457D01*
X145505647Y-78000000D01*
X145485165Y-77857543D01*
X145425377Y-77726627D01*
X145331128Y-77617857D01*
X145210053Y-77540047D01*
X145210051Y-77540046D01*
X145210049Y-77540045D01*
X145210050Y-77540045D01*
X145071963Y-77499500D01*
X145071961Y-77499500D01*
X144928039Y-77499500D01*
X144928036Y-77499500D01*
X144789949Y-77540045D01*
X144668873Y-77617856D01*
X144574623Y-77726626D01*
X144574622Y-77726628D01*
X144514834Y-77857543D01*
X144494353Y-78000000D01*
X144494353Y-78000001D01*
X144495661Y-78009103D01*
X144485713Y-78078261D01*
X144460603Y-78114424D01*
X143262181Y-79312847D01*
X143200858Y-79346332D01*
X143131166Y-79341348D01*
X143075233Y-79299476D01*
X143050816Y-79234012D01*
X143050500Y-79225166D01*
X143050500Y-78710439D01*
X143030020Y-78634009D01*
X143030017Y-78634004D01*
X142990464Y-78565495D01*
X142990458Y-78565487D01*
X142039395Y-77614424D01*
X142005910Y-77553101D01*
X142004339Y-77509094D01*
X142005647Y-77500000D01*
X141985165Y-77357543D01*
X141925377Y-77226627D01*
X141831128Y-77117857D01*
X141710053Y-77040047D01*
X141710051Y-77040046D01*
X141710049Y-77040045D01*
X141710050Y-77040045D01*
X141571963Y-76999500D01*
X141571961Y-76999500D01*
X141428039Y-76999500D01*
X141428036Y-76999500D01*
X141289949Y-77040045D01*
X141168873Y-77117856D01*
X141074623Y-77226626D01*
X141074622Y-77226628D01*
X141014834Y-77357543D01*
X140994353Y-77500000D01*
X141014834Y-77642456D01*
X141053275Y-77726628D01*
X141074623Y-77773373D01*
X141168872Y-77882143D01*
X141289947Y-77959953D01*
X141289950Y-77959954D01*
X141289949Y-77959954D01*
X141397107Y-77991417D01*
X141426336Y-78000000D01*
X141428036Y-78000499D01*
X141428038Y-78000500D01*
X141524167Y-78000500D01*
X141591206Y-78020185D01*
X141611848Y-78036819D01*
X142413181Y-78838152D01*
X142446666Y-78899475D01*
X142449500Y-78925833D01*
X142449500Y-83574167D01*
X142429815Y-83641206D01*
X142413181Y-83661848D01*
X140661848Y-85413181D01*
X140600525Y-85446666D01*
X140574167Y-85449500D01*
X131960438Y-85449500D01*
X131922224Y-85459739D01*
X131884009Y-85469979D01*
X131884004Y-85469982D01*
X131815495Y-85509535D01*
X131815487Y-85509541D01*
X130264541Y-87060487D01*
X130264535Y-87060495D01*
X130224982Y-87129004D01*
X130224979Y-87129009D01*
X130211326Y-87179962D01*
X130204500Y-87205438D01*
X118550500Y-87205438D01*
X118550500Y-80425833D01*
X118570185Y-80358794D01*
X118586819Y-80338152D01*
X128963152Y-69961819D01*
X129024475Y-69928334D01*
X129050833Y-69925500D01*
X141166499Y-69925500D01*
X141233538Y-69945185D01*
X141260211Y-69968296D01*
X141293872Y-70007143D01*
X141414947Y-70084953D01*
X141414950Y-70084954D01*
X141414949Y-70084954D01*
X141553036Y-70125499D01*
X141553038Y-70125500D01*
X141553039Y-70125500D01*
X141696962Y-70125500D01*
X141696962Y-70125499D01*
X141835053Y-70084953D01*
X141956128Y-70007143D01*
X142050377Y-69898373D01*
X142110165Y-69767457D01*
X142130647Y-69625000D01*
X142110165Y-69482543D01*
X142050377Y-69351627D01*
X141956128Y-69242857D01*
X141835053Y-69165047D01*
X141835051Y-69165046D01*
X141835049Y-69165045D01*
X141835050Y-69165045D01*
X141696963Y-69124500D01*
X141696961Y-69124500D01*
X141553039Y-69124500D01*
X141553036Y-69124500D01*
X141414949Y-69165045D01*
X141293873Y-69242856D01*
X141260212Y-69281703D01*
X141201433Y-69319477D01*
X141166499Y-69324500D01*
X128835438Y-69324500D01*
X128797224Y-69334739D01*
X128759009Y-69344979D01*
X128759004Y-69344982D01*
X128690495Y-69384535D01*
X128690487Y-69384541D01*
X118012181Y-80062848D01*
X117950858Y-80096333D01*
X117881166Y-80091349D01*
X117825233Y-80049477D01*
X117800816Y-79984013D01*
X117800500Y-79975167D01*
X117800500Y-79917255D01*
X117820185Y-79850216D01*
X117836819Y-79829574D01*
X124716893Y-72949500D01*
X130416399Y-67249994D01*
X131994859Y-67249994D01*
X131994859Y-67250005D01*
X132015385Y-67497729D01*
X132015387Y-67497738D01*
X132076412Y-67738717D01*
X132176266Y-67966364D01*
X132276564Y-68119882D01*
X132976212Y-67420234D01*
X132987482Y-67462292D01*
X133059890Y-67587708D01*
X133162292Y-67690110D01*
X133287708Y-67762518D01*
X133329765Y-67773787D01*
X132629942Y-68473609D01*
X132676768Y-68510055D01*
X132676770Y-68510056D01*
X132895385Y-68628364D01*
X132895396Y-68628369D01*
X133130506Y-68709083D01*
X133375707Y-68750000D01*
X133624293Y-68750000D01*
X133869493Y-68709083D01*
X134104603Y-68628369D01*
X134104614Y-68628364D01*
X134323228Y-68510057D01*
X134323231Y-68510055D01*
X134370056Y-68473609D01*
X133670234Y-67773787D01*
X133712292Y-67762518D01*
X133837708Y-67690110D01*
X133940110Y-67587708D01*
X134012518Y-67462292D01*
X134023787Y-67420234D01*
X134723434Y-68119882D01*
X134823731Y-67966369D01*
X134923587Y-67738717D01*
X134984612Y-67497738D01*
X134984614Y-67497729D01*
X135005141Y-67250005D01*
X135005141Y-67249994D01*
X138494859Y-67249994D01*
X138494859Y-67250005D01*
X138515385Y-67497729D01*
X138515387Y-67497738D01*
X138576412Y-67738717D01*
X138676266Y-67966364D01*
X138776564Y-68119882D01*
X139476212Y-67420234D01*
X139487482Y-67462292D01*
X139559890Y-67587708D01*
X139662292Y-67690110D01*
X139787708Y-67762518D01*
X139829765Y-67773787D01*
X139129942Y-68473609D01*
X139176768Y-68510055D01*
X139176770Y-68510056D01*
X139395385Y-68628364D01*
X139395396Y-68628369D01*
X139630506Y-68709083D01*
X139875707Y-68750000D01*
X140124293Y-68750000D01*
X140369493Y-68709083D01*
X140604603Y-68628369D01*
X140604614Y-68628364D01*
X140823228Y-68510057D01*
X140823231Y-68510055D01*
X140870056Y-68473609D01*
X140170234Y-67773787D01*
X140212292Y-67762518D01*
X140337708Y-67690110D01*
X140440110Y-67587708D01*
X140512518Y-67462292D01*
X140523787Y-67420235D01*
X141223434Y-68119882D01*
X141323731Y-67966369D01*
X141423587Y-67738717D01*
X141484612Y-67497738D01*
X141484614Y-67497729D01*
X141505141Y-67250005D01*
X141505141Y-67249994D01*
X141484614Y-67002270D01*
X141484612Y-67002261D01*
X141423587Y-66761282D01*
X141323731Y-66533630D01*
X141223434Y-66380116D01*
X140523787Y-67079764D01*
X140512518Y-67037708D01*
X140440110Y-66912292D01*
X140337708Y-66809890D01*
X140212292Y-66737482D01*
X140170235Y-66726212D01*
X140870057Y-66026390D01*
X140870056Y-66026389D01*
X140823229Y-65989943D01*
X140604614Y-65871635D01*
X140604603Y-65871630D01*
X140369493Y-65790916D01*
X140124293Y-65750000D01*
X139875707Y-65750000D01*
X139630506Y-65790916D01*
X139395396Y-65871630D01*
X139395390Y-65871632D01*
X139176761Y-65989949D01*
X139129942Y-66026388D01*
X139129942Y-66026390D01*
X139829765Y-66726212D01*
X139787708Y-66737482D01*
X139662292Y-66809890D01*
X139559890Y-66912292D01*
X139487482Y-67037708D01*
X139476212Y-67079764D01*
X138776564Y-66380116D01*
X138676267Y-66533632D01*
X138576412Y-66761282D01*
X138515387Y-67002261D01*
X138515385Y-67002270D01*
X138494859Y-67249994D01*
X135005141Y-67249994D01*
X134984614Y-67002270D01*
X134984612Y-67002261D01*
X134923587Y-66761282D01*
X134823731Y-66533630D01*
X134723434Y-66380116D01*
X134023787Y-67079764D01*
X134012518Y-67037708D01*
X133940110Y-66912292D01*
X133837708Y-66809890D01*
X133712292Y-66737482D01*
X133670235Y-66726212D01*
X134370057Y-66026390D01*
X134370056Y-66026389D01*
X134323229Y-65989943D01*
X134104614Y-65871635D01*
X134104603Y-65871630D01*
X133869493Y-65790916D01*
X133624293Y-65750000D01*
X133375707Y-65750000D01*
X133130506Y-65790916D01*
X132895396Y-65871630D01*
X132895390Y-65871632D01*
X132676761Y-65989949D01*
X132629942Y-66026388D01*
X132629942Y-66026390D01*
X133329765Y-66726212D01*
X133287708Y-66737482D01*
X133162292Y-66809890D01*
X133059890Y-66912292D01*
X132987482Y-67037708D01*
X132976212Y-67079764D01*
X132276564Y-66380116D01*
X132176267Y-66533632D01*
X132076412Y-66761282D01*
X132015387Y-67002261D01*
X132015385Y-67002270D01*
X131994859Y-67249994D01*
X130416399Y-67249994D01*
X133481882Y-64184511D01*
X133521443Y-64115989D01*
X133541922Y-64039562D01*
X133541922Y-64039557D01*
X133543173Y-64034889D01*
X133579538Y-63975228D01*
X133640160Y-63945094D01*
X133829940Y-63909618D01*
X134037401Y-63829247D01*
X134226562Y-63712124D01*
X134390981Y-63562236D01*
X134525058Y-63384689D01*
X134624229Y-63185528D01*
X134637022Y-63140564D01*
X134674302Y-63081472D01*
X134737611Y-63051915D01*
X134756288Y-63050500D01*
X138743712Y-63050500D01*
X138810751Y-63070185D01*
X138856506Y-63122989D01*
X138862978Y-63140565D01*
X138875770Y-63185525D01*
X138875774Y-63185534D01*
X138974936Y-63384679D01*
X138974943Y-63384691D01*
X139109020Y-63562238D01*
X139273437Y-63712123D01*
X139273439Y-63712125D01*
X139462595Y-63829245D01*
X139462596Y-63829245D01*
X139462599Y-63829247D01*
X139670060Y-63909618D01*
X139888757Y-63950500D01*
X139888759Y-63950500D01*
X140111241Y-63950500D01*
X140111243Y-63950500D01*
X140329940Y-63909618D01*
X140537401Y-63829247D01*
X140726562Y-63712124D01*
X140890981Y-63562236D01*
X141025058Y-63384689D01*
X141124229Y-63185528D01*
X141185115Y-62971536D01*
X141205643Y-62750000D01*
X141185115Y-62528464D01*
X141124229Y-62314472D01*
X141124224Y-62314461D01*
X141025061Y-62115316D01*
X141025056Y-62115308D01*
X140890979Y-61937761D01*
X140726562Y-61787876D01*
X140726560Y-61787874D01*
X140537404Y-61670754D01*
X140537398Y-61670752D01*
X140329940Y-61590382D01*
X140111243Y-61549500D01*
X139888757Y-61549500D01*
X139670060Y-61590382D01*
X139538864Y-61641207D01*
X139462601Y-61670752D01*
X139462595Y-61670754D01*
X139273439Y-61787874D01*
X139273437Y-61787876D01*
X139109020Y-61937761D01*
X138974943Y-62115308D01*
X138974936Y-62115320D01*
X138875774Y-62314465D01*
X138875770Y-62314474D01*
X138862978Y-62359435D01*
X138825698Y-62418528D01*
X138762389Y-62448085D01*
X138743712Y-62449500D01*
X134756288Y-62449500D01*
X134689249Y-62429815D01*
X134643494Y-62377011D01*
X134637022Y-62359435D01*
X134624230Y-62314476D01*
X134624229Y-62314472D01*
X134574841Y-62215288D01*
X134525063Y-62115320D01*
X134525056Y-62115308D01*
X134390979Y-61937761D01*
X134226562Y-61787876D01*
X134226560Y-61787874D01*
X134037404Y-61670754D01*
X134037398Y-61670752D01*
X133829940Y-61590382D01*
X133611243Y-61549500D01*
X133388757Y-61549500D01*
X133170060Y-61590382D01*
X133038864Y-61641207D01*
X132962601Y-61670752D01*
X132962595Y-61670754D01*
X132773439Y-61787874D01*
X132773437Y-61787876D01*
X132609020Y-61937761D01*
X132474943Y-62115308D01*
X132474938Y-62115316D01*
X132375775Y-62314461D01*
X132375769Y-62314476D01*
X132314885Y-62528462D01*
X132314884Y-62528464D01*
X132294357Y-62749999D01*
X132294357Y-62750000D01*
X132314884Y-62971535D01*
X132314885Y-62971537D01*
X132375769Y-63185523D01*
X132375775Y-63185538D01*
X132474938Y-63384683D01*
X132474943Y-63384691D01*
X132609020Y-63562238D01*
X132773437Y-63712123D01*
X132773439Y-63712125D01*
X132844694Y-63756244D01*
X132891330Y-63808272D01*
X132902434Y-63877253D01*
X132874481Y-63941288D01*
X132867098Y-63949352D01*
X126211681Y-70604770D01*
X126150358Y-70638255D01*
X126080666Y-70633271D01*
X126024733Y-70591399D01*
X126000316Y-70525935D01*
X126000000Y-70517089D01*
X126000000Y-50100000D01*
X78000000Y-50100000D01*
X78000000Y-71100000D01*
X75000000Y-71100000D01*
X75000000Y-49276428D01*
X138350000Y-49276428D01*
X138350000Y-49870000D01*
X139000000Y-49870000D01*
X139000000Y-50370000D01*
X138350000Y-50370000D01*
X138350000Y-50963571D01*
X138386506Y-51147097D01*
X138386508Y-51147105D01*
X138458119Y-51319991D01*
X138458124Y-51320000D01*
X138562086Y-51475589D01*
X138562089Y-51475593D01*
X138694406Y-51607910D01*
X138694410Y-51607913D01*
X138849999Y-51711875D01*
X138850012Y-51711882D01*
X139022889Y-51783489D01*
X139022896Y-51783491D01*
X139050000Y-51788882D01*
X139050000Y-51036988D01*
X139059940Y-51054205D01*
X139115795Y-51110060D01*
X139184204Y-51149556D01*
X139260504Y-51170000D01*
X139339496Y-51170000D01*
X139415796Y-51149556D01*
X139484205Y-51110060D01*
X139540060Y-51054205D01*
X139550000Y-51036988D01*
X139550000Y-51788881D01*
X139577103Y-51783491D01*
X139577110Y-51783489D01*
X139749987Y-51711882D01*
X139750000Y-51711875D01*
X139905588Y-51607913D01*
X139917981Y-51595519D01*
X139917981Y-51571282D01*
X139913650Y-51563350D01*
X139918634Y-51493658D01*
X139947135Y-51449311D01*
X140336229Y-51060218D01*
X140450000Y-51060218D01*
X140450000Y-51139782D01*
X140480448Y-51213291D01*
X140536709Y-51269552D01*
X140610218Y-51300000D01*
X140689782Y-51300000D01*
X140763291Y-51269552D01*
X140819552Y-51213291D01*
X140850000Y-51139782D01*
X140850000Y-51060218D01*
X140819552Y-50986709D01*
X140763291Y-50930448D01*
X140689782Y-50900000D01*
X140610218Y-50900000D01*
X140536709Y-50930448D01*
X140480448Y-50986709D01*
X140450000Y-51060218D01*
X140336229Y-51060218D01*
X140562319Y-50834128D01*
X140623642Y-50800643D01*
X140693334Y-50805627D01*
X140737681Y-50834128D01*
X140915871Y-51012318D01*
X140949356Y-51073641D01*
X140944372Y-51143333D01*
X140915871Y-51187680D01*
X140269767Y-51833783D01*
X140393659Y-51888943D01*
X140563289Y-51925000D01*
X140736711Y-51925000D01*
X140906342Y-51888943D01*
X140908692Y-51887897D01*
X140910175Y-51887697D01*
X140912527Y-51886934D01*
X140912666Y-51887363D01*
X140977941Y-51878606D01*
X141041220Y-51908229D01*
X141078438Y-51967361D01*
X141078911Y-51969076D01*
X141080199Y-51973884D01*
X141080201Y-51973887D01*
X141139511Y-52076614D01*
X141823386Y-52760489D01*
X141926113Y-52819799D01*
X141950321Y-52826284D01*
X141950324Y-52826286D01*
X141950325Y-52826286D01*
X141980447Y-52834357D01*
X142040691Y-52850500D01*
X142040693Y-52850500D01*
X145159308Y-52850500D01*
X145159309Y-52850500D01*
X145249673Y-52826286D01*
X145273887Y-52819799D01*
X145376614Y-52760489D01*
X146110490Y-52026614D01*
X146133360Y-51987000D01*
X146183927Y-51938785D01*
X146240748Y-51925000D01*
X146350000Y-51925000D01*
X146350000Y-51060218D01*
X146400000Y-51060218D01*
X146400000Y-51139782D01*
X146430448Y-51213291D01*
X146486709Y-51269552D01*
X146560218Y-51300000D01*
X146639782Y-51300000D01*
X146713291Y-51269552D01*
X146769552Y-51213291D01*
X146800000Y-51139782D01*
X146800000Y-51060218D01*
X146769552Y-50986709D01*
X146713291Y-50930448D01*
X146639782Y-50900000D01*
X146560218Y-50900000D01*
X146486709Y-50930448D01*
X146430448Y-50986709D01*
X146400000Y-51060218D01*
X146350000Y-51060218D01*
X146350000Y-50974000D01*
X146369685Y-50906961D01*
X146422489Y-50861206D01*
X146474000Y-50850000D01*
X146726000Y-50850000D01*
X146793039Y-50869685D01*
X146838794Y-50922489D01*
X146850000Y-50974000D01*
X146850000Y-51925000D01*
X146972828Y-51925000D01*
X146972844Y-51924999D01*
X147032372Y-51918598D01*
X147032379Y-51918596D01*
X147167086Y-51868354D01*
X147167093Y-51868350D01*
X147282185Y-51782191D01*
X147319462Y-51732396D01*
X147375396Y-51690525D01*
X147445087Y-51685540D01*
X147487622Y-51703605D01*
X147499997Y-51711874D01*
X147500012Y-51711882D01*
X147672889Y-51783489D01*
X147672896Y-51783491D01*
X147700000Y-51788882D01*
X147700000Y-51036988D01*
X147709940Y-51054205D01*
X147765795Y-51110060D01*
X147834204Y-51149556D01*
X147910504Y-51170000D01*
X147989496Y-51170000D01*
X148065796Y-51149556D01*
X148134205Y-51110060D01*
X148190060Y-51054205D01*
X148200000Y-51036988D01*
X148200000Y-51788881D01*
X148227103Y-51783491D01*
X148227110Y-51783489D01*
X148399987Y-51711882D01*
X148400000Y-51711875D01*
X148555589Y-51607913D01*
X148555593Y-51607910D01*
X148687910Y-51475593D01*
X148687913Y-51475589D01*
X148791875Y-51320000D01*
X148791880Y-51319991D01*
X148863491Y-51147105D01*
X148863493Y-51147097D01*
X148899999Y-50963571D01*
X148900000Y-50963569D01*
X148900000Y-50370000D01*
X148250000Y-50370000D01*
X148250000Y-49870000D01*
X148900000Y-49870000D01*
X148900000Y-49276430D01*
X148899999Y-49276428D01*
X148863493Y-49092902D01*
X148863491Y-49092894D01*
X148791880Y-48920008D01*
X148791875Y-48919999D01*
X148687913Y-48764410D01*
X148687910Y-48764406D01*
X148555593Y-48632089D01*
X148555589Y-48632086D01*
X148400000Y-48528124D01*
X148399991Y-48528119D01*
X148227103Y-48456507D01*
X148227100Y-48456506D01*
X148200000Y-48451115D01*
X148200000Y-49203011D01*
X148190060Y-49185795D01*
X148134205Y-49129940D01*
X148065796Y-49090444D01*
X147989496Y-49070000D01*
X147910504Y-49070000D01*
X147834204Y-49090444D01*
X147765795Y-49129940D01*
X147709940Y-49185795D01*
X147700000Y-49203011D01*
X147700000Y-48451116D01*
X147699999Y-48451115D01*
X147672899Y-48456506D01*
X147672896Y-48456507D01*
X147500008Y-48528119D01*
X147499999Y-48528124D01*
X147344410Y-48632086D01*
X147344406Y-48632089D01*
X147212089Y-48764406D01*
X147212083Y-48764414D01*
X147108122Y-48920003D01*
X147108118Y-48920011D01*
X147103269Y-48931716D01*
X147059425Y-48986117D01*
X146993129Y-49008177D01*
X146938275Y-48997536D01*
X146856340Y-48961056D01*
X146686711Y-48925000D01*
X146513289Y-48925000D01*
X146343659Y-48961056D01*
X146219767Y-49016215D01*
X146600000Y-49396447D01*
X147073553Y-49870000D01*
X147650000Y-49870000D01*
X147650000Y-50370000D01*
X147207539Y-50370000D01*
X147124673Y-50452865D01*
X147063349Y-50486349D01*
X146993658Y-50481365D01*
X146949311Y-50452864D01*
X146314891Y-49818444D01*
X146281406Y-49757121D01*
X146279633Y-49746949D01*
X146274797Y-49710218D01*
X146400000Y-49710218D01*
X146400000Y-49789782D01*
X146430448Y-49863291D01*
X146486709Y-49919552D01*
X146560218Y-49950000D01*
X146639782Y-49950000D01*
X146713291Y-49919552D01*
X146769552Y-49863291D01*
X146800000Y-49789782D01*
X146800000Y-49710218D01*
X146769552Y-49636709D01*
X146713291Y-49580448D01*
X146639782Y-49550000D01*
X146560218Y-49550000D01*
X146486709Y-49580448D01*
X146430448Y-49636709D01*
X146400000Y-49710218D01*
X146274797Y-49710218D01*
X146261974Y-49612817D01*
X146209024Y-49484983D01*
X146124791Y-49375209D01*
X146124789Y-49375208D01*
X146124789Y-49375207D01*
X146015015Y-49290974D01*
X145887186Y-49238027D01*
X145887184Y-49238026D01*
X145887183Y-49238026D01*
X145795727Y-49225985D01*
X145750001Y-49219965D01*
X145749999Y-49219965D01*
X145681408Y-49228995D01*
X145612817Y-49238026D01*
X145612816Y-49238026D01*
X145612813Y-49238027D01*
X145484984Y-49290974D01*
X145484982Y-49290976D01*
X145400486Y-49355812D01*
X145335317Y-49381006D01*
X145266872Y-49366967D01*
X145249514Y-49355812D01*
X145165018Y-49290976D01*
X145165016Y-49290975D01*
X145037186Y-49238027D01*
X145037184Y-49238026D01*
X145037183Y-49238026D01*
X144945727Y-49225985D01*
X144900001Y-49219965D01*
X144899999Y-49219965D01*
X144831408Y-49228995D01*
X144762817Y-49238026D01*
X144762816Y-49238026D01*
X144762813Y-49238027D01*
X144634984Y-49290974D01*
X144634982Y-49290976D01*
X144550486Y-49355812D01*
X144485317Y-49381006D01*
X144416872Y-49366967D01*
X144399514Y-49355812D01*
X144315018Y-49290976D01*
X144315016Y-49290975D01*
X144187186Y-49238027D01*
X144187184Y-49238026D01*
X144187183Y-49238026D01*
X144095727Y-49225985D01*
X144050001Y-49219965D01*
X144049999Y-49219965D01*
X143981408Y-49228995D01*
X143912817Y-49238026D01*
X143912816Y-49238026D01*
X143912813Y-49238027D01*
X143784984Y-49290974D01*
X143784982Y-49290976D01*
X143700486Y-49355812D01*
X143635317Y-49381006D01*
X143566872Y-49366967D01*
X143549514Y-49355812D01*
X143465018Y-49290976D01*
X143465016Y-49290975D01*
X143337186Y-49238027D01*
X143337184Y-49238026D01*
X143337183Y-49238026D01*
X143245727Y-49225985D01*
X143200001Y-49219965D01*
X143199999Y-49219965D01*
X143131408Y-49228995D01*
X143062817Y-49238026D01*
X143062816Y-49238026D01*
X143062813Y-49238027D01*
X142934984Y-49290974D01*
X142934982Y-49290976D01*
X142850486Y-49355812D01*
X142785317Y-49381006D01*
X142716872Y-49366967D01*
X142699514Y-49355812D01*
X142615018Y-49290976D01*
X142615016Y-49290975D01*
X142487186Y-49238027D01*
X142487184Y-49238026D01*
X142487183Y-49238026D01*
X142395727Y-49225985D01*
X142350001Y-49219965D01*
X142349999Y-49219965D01*
X142281408Y-49228995D01*
X142212817Y-49238026D01*
X142212816Y-49238026D01*
X142212813Y-49238027D01*
X142084984Y-49290974D01*
X142084982Y-49290976D01*
X142000486Y-49355812D01*
X141935317Y-49381006D01*
X141866872Y-49366967D01*
X141849514Y-49355812D01*
X141765018Y-49290976D01*
X141765016Y-49290975D01*
X141637186Y-49238027D01*
X141637184Y-49238026D01*
X141637183Y-49238026D01*
X141545727Y-49225985D01*
X141500001Y-49219965D01*
X141499999Y-49219965D01*
X141431408Y-49228995D01*
X141362817Y-49238026D01*
X141362816Y-49238026D01*
X141362813Y-49238027D01*
X141234985Y-49290974D01*
X141125209Y-49375209D01*
X141040974Y-49484985D01*
X140988027Y-49612813D01*
X140988026Y-49612817D01*
X140970366Y-49746949D01*
X140942099Y-49810845D01*
X140935109Y-49818443D01*
X140650001Y-50103553D01*
X140650000Y-50103553D01*
X140300688Y-50452864D01*
X140239365Y-50486349D01*
X140169673Y-50481365D01*
X140125326Y-50452864D01*
X140042462Y-50370000D01*
X139600000Y-50370000D01*
X139600000Y-49870000D01*
X140176447Y-49870000D01*
X140176447Y-49869999D01*
X140336228Y-49710218D01*
X140450000Y-49710218D01*
X140450000Y-49789782D01*
X140480448Y-49863291D01*
X140536709Y-49919552D01*
X140610218Y-49950000D01*
X140689782Y-49950000D01*
X140763291Y-49919552D01*
X140819552Y-49863291D01*
X140850000Y-49789782D01*
X140850000Y-49710218D01*
X140819552Y-49636709D01*
X140763291Y-49580448D01*
X140689782Y-49550000D01*
X140610218Y-49550000D01*
X140536709Y-49580448D01*
X140480448Y-49636709D01*
X140450000Y-49710218D01*
X140336228Y-49710218D01*
X141030231Y-49016215D01*
X140906340Y-48961056D01*
X140736711Y-48925000D01*
X140563289Y-48925000D01*
X140393657Y-48961056D01*
X140393656Y-48961056D01*
X140311722Y-48997536D01*
X140242472Y-49006820D01*
X140179195Y-48977191D01*
X140146724Y-48931705D01*
X140141877Y-48920004D01*
X140141875Y-48919999D01*
X140037913Y-48764410D01*
X140037910Y-48764406D01*
X139905593Y-48632089D01*
X139905589Y-48632086D01*
X139750000Y-48528124D01*
X139749991Y-48528119D01*
X139577103Y-48456507D01*
X139577100Y-48456506D01*
X139550000Y-48451115D01*
X139550000Y-49203011D01*
X139540060Y-49185795D01*
X139484205Y-49129940D01*
X139415796Y-49090444D01*
X139339496Y-49070000D01*
X139260504Y-49070000D01*
X139184204Y-49090444D01*
X139115795Y-49129940D01*
X139059940Y-49185795D01*
X139050000Y-49203011D01*
X139050000Y-48451116D01*
X139049999Y-48451115D01*
X139022899Y-48456506D01*
X139022896Y-48456507D01*
X138850008Y-48528119D01*
X138849999Y-48528124D01*
X138694410Y-48632086D01*
X138694406Y-48632089D01*
X138562089Y-48764406D01*
X138562086Y-48764410D01*
X138458124Y-48919999D01*
X138458119Y-48920008D01*
X138386508Y-49092894D01*
X138386506Y-49092902D01*
X138350000Y-49276428D01*
X75000000Y-49276428D01*
X75000000Y-46246428D01*
X138350000Y-46246428D01*
X138350000Y-46490000D01*
X139000000Y-46490000D01*
X139000000Y-46990000D01*
X138350000Y-46990000D01*
X138350000Y-47233571D01*
X138386506Y-47417097D01*
X138386508Y-47417105D01*
X138458119Y-47589991D01*
X138458124Y-47590000D01*
X138562086Y-47745589D01*
X138562089Y-47745593D01*
X138694406Y-47877910D01*
X138694410Y-47877913D01*
X138849999Y-47981875D01*
X138850012Y-47981882D01*
X139022889Y-48053489D01*
X139022896Y-48053491D01*
X139050000Y-48058882D01*
X139050000Y-47306988D01*
X139059940Y-47324205D01*
X139115795Y-47380060D01*
X139184204Y-47419556D01*
X139260504Y-47440000D01*
X139339496Y-47440000D01*
X139415796Y-47419556D01*
X139484205Y-47380060D01*
X139540060Y-47324205D01*
X139550000Y-47306988D01*
X139550000Y-48058881D01*
X139577103Y-48053491D01*
X139577110Y-48053489D01*
X139749987Y-47981882D01*
X139750000Y-47981875D01*
X139905589Y-47877913D01*
X139905593Y-47877910D01*
X140037910Y-47745593D01*
X140037913Y-47745589D01*
X140141875Y-47590000D01*
X140141880Y-47589991D01*
X140213491Y-47417105D01*
X140213493Y-47417097D01*
X140249999Y-47233571D01*
X140250000Y-47233569D01*
X140250000Y-46990000D01*
X139600000Y-46990000D01*
X139600000Y-46490000D01*
X140250000Y-46490000D01*
X140250000Y-46246430D01*
X140249999Y-46246428D01*
X147000000Y-46246428D01*
X147000000Y-46490000D01*
X147650000Y-46490000D01*
X147650000Y-46990000D01*
X147000000Y-46990000D01*
X147000000Y-47233571D01*
X147036506Y-47417097D01*
X147036508Y-47417105D01*
X147108119Y-47589991D01*
X147108124Y-47590000D01*
X147212086Y-47745589D01*
X147212089Y-47745593D01*
X147344406Y-47877910D01*
X147344410Y-47877913D01*
X147499999Y-47981875D01*
X147500012Y-47981882D01*
X147672889Y-48053489D01*
X147672896Y-48053491D01*
X147700000Y-48058882D01*
X147700000Y-47306988D01*
X147709940Y-47324205D01*
X147765795Y-47380060D01*
X147834204Y-47419556D01*
X147910504Y-47440000D01*
X147989496Y-47440000D01*
X148065796Y-47419556D01*
X148134205Y-47380060D01*
X148190060Y-47324205D01*
X148200000Y-47306988D01*
X148200000Y-48058881D01*
X148227103Y-48053491D01*
X148227110Y-48053489D01*
X148399987Y-47981882D01*
X148400000Y-47981875D01*
X148555589Y-47877913D01*
X148555593Y-47877910D01*
X148687910Y-47745593D01*
X148687913Y-47745589D01*
X148791875Y-47590000D01*
X148791880Y-47589991D01*
X148863491Y-47417105D01*
X148863493Y-47417097D01*
X148899999Y-47233571D01*
X148900000Y-47233569D01*
X148900000Y-46990000D01*
X148250000Y-46990000D01*
X148250000Y-46490000D01*
X148900000Y-46490000D01*
X148900000Y-46246430D01*
X148899999Y-46246428D01*
X148863493Y-46062902D01*
X148863491Y-46062894D01*
X148791880Y-45890008D01*
X148791875Y-45889999D01*
X148687913Y-45734410D01*
X148687910Y-45734406D01*
X148555593Y-45602089D01*
X148555589Y-45602086D01*
X148400000Y-45498124D01*
X148399991Y-45498119D01*
X148227103Y-45426507D01*
X148227100Y-45426506D01*
X148200000Y-45421115D01*
X148200000Y-46173011D01*
X148190060Y-46155795D01*
X148134205Y-46099940D01*
X148065796Y-46060444D01*
X147989496Y-46040000D01*
X147910504Y-46040000D01*
X147834204Y-46060444D01*
X147765795Y-46099940D01*
X147709940Y-46155795D01*
X147700000Y-46173011D01*
X147700000Y-45421116D01*
X147699999Y-45421115D01*
X147672899Y-45426506D01*
X147672896Y-45426507D01*
X147500008Y-45498119D01*
X147499999Y-45498124D01*
X147344410Y-45602086D01*
X147344406Y-45602089D01*
X147212089Y-45734406D01*
X147212086Y-45734410D01*
X147108124Y-45889999D01*
X147108119Y-45890008D01*
X147036508Y-46062894D01*
X147036506Y-46062902D01*
X147000000Y-46246428D01*
X140249999Y-46246428D01*
X140213493Y-46062902D01*
X140213491Y-46062894D01*
X140141880Y-45890008D01*
X140141875Y-45889999D01*
X140037913Y-45734410D01*
X140037910Y-45734406D01*
X139905593Y-45602089D01*
X139905589Y-45602086D01*
X139750000Y-45498124D01*
X139749991Y-45498119D01*
X139577103Y-45426507D01*
X139577100Y-45426506D01*
X139550000Y-45421115D01*
X139550000Y-46173011D01*
X139540060Y-46155795D01*
X139484205Y-46099940D01*
X139415796Y-46060444D01*
X139339496Y-46040000D01*
X139260504Y-46040000D01*
X139184204Y-46060444D01*
X139115795Y-46099940D01*
X139059940Y-46155795D01*
X139050000Y-46173011D01*
X139050000Y-45421116D01*
X139049999Y-45421115D01*
X139022899Y-45426506D01*
X139022896Y-45426507D01*
X138850008Y-45498119D01*
X138849999Y-45498124D01*
X138694410Y-45602086D01*
X138694406Y-45602089D01*
X138562089Y-45734406D01*
X138562086Y-45734410D01*
X138458124Y-45889999D01*
X138458119Y-45890008D01*
X138386508Y-46062894D01*
X138386506Y-46062902D01*
X138350000Y-46246428D01*
X75000000Y-46246428D01*
X75000000Y-45124000D01*
X75019685Y-45056961D01*
X75072489Y-45011206D01*
X75124000Y-45000000D01*
X154876000Y-45000000D01*
X154943039Y-45019685D01*
G37*
%TD.AperFunction*%
%TD*%
M02*
