%TF.GenerationSoftware,KiCad,Pcbnew,8.0.5*%
%TF.CreationDate,2025-11-05T16:12:49-05:00*%
%TF.ProjectId,DisplayDriver,44697370-6c61-4794-9472-697665722e6b,1.1*%
%TF.SameCoordinates,Original*%
%TF.FileFunction,Paste,Top*%
%TF.FilePolarity,Positive*%
%FSLAX46Y46*%
G04 Gerber Fmt 4.6, Leading zero omitted, Abs format (unit mm)*
G04 Created by KiCad (PCBNEW 8.0.5) date 2025-11-05 16:12:49*
%MOMM*%
%LPD*%
G01*
G04 APERTURE LIST*
G04 Aperture macros list*
%AMRoundRect*
0 Rectangle with rounded corners*
0 $1 Rounding radius*
0 $2 $3 $4 $5 $6 $7 $8 $9 X,Y pos of 4 corners*
0 Add a 4 corners polygon primitive as box body*
4,1,4,$2,$3,$4,$5,$6,$7,$8,$9,$2,$3,0*
0 Add four circle primitives for the rounded corners*
1,1,$1+$1,$2,$3*
1,1,$1+$1,$4,$5*
1,1,$1+$1,$6,$7*
1,1,$1+$1,$8,$9*
0 Add four rect primitives between the rounded corners*
20,1,$1+$1,$2,$3,$4,$5,0*
20,1,$1+$1,$4,$5,$6,$7,0*
20,1,$1+$1,$6,$7,$8,$9,0*
20,1,$1+$1,$8,$9,$2,$3,0*%
G04 Aperture macros list end*
%ADD10RoundRect,0.225000X0.225000X0.250000X-0.225000X0.250000X-0.225000X-0.250000X0.225000X-0.250000X0*%
%ADD11RoundRect,0.375000X-0.625000X-0.375000X0.625000X-0.375000X0.625000X0.375000X-0.625000X0.375000X0*%
%ADD12RoundRect,0.500000X-0.500000X-1.400000X0.500000X-1.400000X0.500000X1.400000X-0.500000X1.400000X0*%
%ADD13RoundRect,0.250000X0.475000X-0.337500X0.475000X0.337500X-0.475000X0.337500X-0.475000X-0.337500X0*%
%ADD14R,1.676400X0.355600*%
%ADD15R,6.350000X7.340000*%
%ADD16R,1.500000X0.900000*%
%ADD17RoundRect,0.250000X0.350000X0.450000X-0.350000X0.450000X-0.350000X-0.450000X0.350000X-0.450000X0*%
%ADD18RoundRect,0.250000X0.337500X0.475000X-0.337500X0.475000X-0.337500X-0.475000X0.337500X-0.475000X0*%
%ADD19RoundRect,0.250000X-0.450000X0.350000X-0.450000X-0.350000X0.450000X-0.350000X0.450000X0.350000X0*%
%ADD20RoundRect,0.250000X-0.475000X0.337500X-0.475000X-0.337500X0.475000X-0.337500X0.475000X0.337500X0*%
%ADD21RoundRect,0.250000X0.450000X-0.350000X0.450000X0.350000X-0.450000X0.350000X-0.450000X-0.350000X0*%
%ADD22R,0.900000X1.500000*%
%ADD23R,0.900000X0.900000*%
%ADD24RoundRect,0.218750X-0.256250X0.218750X-0.256250X-0.218750X0.256250X-0.218750X0.256250X0.218750X0*%
%ADD25RoundRect,0.225000X0.250000X-0.225000X0.250000X0.225000X-0.250000X0.225000X-0.250000X-0.225000X0*%
%ADD26RoundRect,0.218750X0.218750X0.256250X-0.218750X0.256250X-0.218750X-0.256250X0.218750X-0.256250X0*%
%ADD27RoundRect,0.225000X-0.250000X0.225000X-0.250000X-0.225000X0.250000X-0.225000X0.250000X0.225000X0*%
G04 APERTURE END LIST*
D10*
%TO.C,C5*%
X97425000Y-52225000D03*
X95875000Y-52225000D03*
%TD*%
D11*
%TO.C,U4*%
X64675000Y-81925000D03*
X64675000Y-84225000D03*
D12*
X70975000Y-84225000D03*
D11*
X64675000Y-86525000D03*
%TD*%
D13*
%TO.C,C8*%
X85225000Y-85362500D03*
X85225000Y-83287500D03*
%TD*%
D14*
%TO.C,U2*%
X93805600Y-67700000D03*
X93805600Y-68350001D03*
X93805600Y-68999999D03*
X93805600Y-69650001D03*
X93805600Y-70299999D03*
X93805600Y-70949998D03*
X93805600Y-71599999D03*
X93805600Y-72249998D03*
X93805600Y-72899999D03*
X93805600Y-73549998D03*
X99444400Y-73550000D03*
X99444400Y-72900002D03*
X99444400Y-72250001D03*
X99444400Y-71600002D03*
X99444400Y-70950001D03*
X99444400Y-70300002D03*
X99444400Y-69650001D03*
X99444400Y-69000002D03*
X99444400Y-68350001D03*
X99444400Y-67700002D03*
%TD*%
%TO.C,U3*%
X93786200Y-54928401D03*
X93786200Y-55578402D03*
X93786200Y-56228400D03*
X93786200Y-56878402D03*
X93786200Y-57528400D03*
X93786200Y-58178399D03*
X93786200Y-58828400D03*
X93786200Y-59478399D03*
X93786200Y-60128400D03*
X93786200Y-60778399D03*
X99425000Y-60778401D03*
X99425000Y-60128403D03*
X99425000Y-59478402D03*
X99425000Y-58828403D03*
X99425000Y-58178402D03*
X99425000Y-57528403D03*
X99425000Y-56878402D03*
X99425000Y-56228403D03*
X99425000Y-55578402D03*
X99425000Y-54928403D03*
%TD*%
D15*
%TO.C,BT1*%
X139835000Y-32970000D03*
X125415000Y-95180000D03*
X139835000Y-95180000D03*
X125415000Y-32970000D03*
%TD*%
D16*
%TO.C,LED1*%
X94375000Y-80425000D03*
X94375000Y-83725000D03*
X99275000Y-83725000D03*
X99275000Y-80425000D03*
%TD*%
D17*
%TO.C,R4*%
X113225000Y-42825000D03*
X111225000Y-42825000D03*
%TD*%
D13*
%TO.C,C13*%
X65825000Y-75062500D03*
X65825000Y-72987500D03*
%TD*%
D18*
%TO.C,C12*%
X64862500Y-91225000D03*
X62787500Y-91225000D03*
%TD*%
D19*
%TO.C,R6*%
X87725000Y-78375000D03*
X87725000Y-80375000D03*
%TD*%
D20*
%TO.C,C1*%
X54025000Y-46987500D03*
X54025000Y-49062500D03*
%TD*%
%TO.C,C7*%
X65825000Y-67187500D03*
X65825000Y-69262500D03*
%TD*%
D21*
%TO.C,R10*%
X61475000Y-96625000D03*
X61475000Y-94625000D03*
%TD*%
D17*
%TO.C,R1*%
X105625000Y-44225000D03*
X103625000Y-44225000D03*
%TD*%
D16*
%TO.C,U1*%
X85975000Y-47415000D03*
X85975000Y-48685000D03*
X85975000Y-49955000D03*
X85975000Y-51225000D03*
X85975000Y-52495000D03*
X85975000Y-53765000D03*
X85975000Y-55035000D03*
X85975000Y-56305000D03*
X85975000Y-57575000D03*
X85975000Y-58845000D03*
X85975000Y-60115000D03*
X85975000Y-61385000D03*
X85975000Y-62655000D03*
X85975000Y-63925000D03*
D22*
X84210000Y-65175000D03*
X82940000Y-65175000D03*
X81670000Y-65175000D03*
X80400000Y-65175000D03*
X79130000Y-65175000D03*
X77860000Y-65175000D03*
X76590000Y-65175000D03*
X75320000Y-65175000D03*
X74050000Y-65175000D03*
X72780000Y-65175000D03*
X71510000Y-65175000D03*
X70240000Y-65175000D03*
D16*
X68475000Y-63925000D03*
X68475000Y-62655000D03*
X68475000Y-61385000D03*
X68475000Y-60115000D03*
X68475000Y-58845000D03*
X68475000Y-57575000D03*
X68475000Y-56305000D03*
X68475000Y-55035000D03*
X68475000Y-53765000D03*
X68475000Y-52495000D03*
X68475000Y-51225000D03*
X68475000Y-49955000D03*
X68475000Y-48685000D03*
X68475000Y-47415000D03*
D23*
X77125000Y-56535000D03*
X77125000Y-55135000D03*
X77125000Y-53735000D03*
X75725000Y-56535000D03*
X75725000Y-55135000D03*
X75725000Y-53735000D03*
X74325000Y-56535000D03*
X74325000Y-55135000D03*
X74325000Y-53735000D03*
%TD*%
D24*
%TO.C,D2*%
X111225000Y-35537500D03*
X111225000Y-37112500D03*
%TD*%
D25*
%TO.C,C3*%
X61825000Y-49100000D03*
X61825000Y-47550000D03*
%TD*%
D19*
%TO.C,R9*%
X66225000Y-94605000D03*
X66225000Y-96605000D03*
%TD*%
D10*
%TO.C,C6*%
X97800000Y-65025000D03*
X96250000Y-65025000D03*
%TD*%
D20*
%TO.C,C2*%
X58025000Y-46997500D03*
X58025000Y-49072500D03*
%TD*%
D13*
%TO.C,C4*%
X105025000Y-55662500D03*
X105025000Y-53587500D03*
%TD*%
D21*
%TO.C,R7*%
X61825000Y-78625000D03*
X61825000Y-76625000D03*
%TD*%
%TO.C,R5*%
X78925000Y-83025000D03*
X78925000Y-81025000D03*
%TD*%
D26*
%TO.C,D3*%
X77612500Y-89025000D03*
X76037500Y-89025000D03*
%TD*%
D21*
%TO.C,R3*%
X98425000Y-89025000D03*
X98425000Y-87025000D03*
%TD*%
%TO.C,R8*%
X60225000Y-72825000D03*
X60225000Y-70825000D03*
%TD*%
D19*
%TO.C,R2*%
X75025000Y-81025000D03*
X75025000Y-83025000D03*
%TD*%
D27*
%TO.C,C9*%
X89475000Y-83750000D03*
X89475000Y-85300000D03*
%TD*%
D24*
%TO.C,D1*%
X92225000Y-89137500D03*
X92225000Y-90712500D03*
%TD*%
M02*
