%TF.GenerationSoftware,KiCad,Pcbnew,8.0.5*%
%TF.CreationDate,2025-11-05T16:12:50-05:00*%
%TF.ProjectId,DisplayDriver,44697370-6c61-4794-9472-697665722e6b,1.1*%
%TF.SameCoordinates,Original*%
%TF.FileFunction,Soldermask,Bot*%
%TF.FilePolarity,Negative*%
%FSLAX46Y46*%
G04 Gerber Fmt 4.6, Leading zero omitted, Abs format (unit mm)*
G04 Created by KiCad (PCBNEW 8.0.5) date 2025-11-05 16:12:50*
%MOMM*%
%LPD*%
G01*
G04 APERTURE LIST*
G04 Aperture macros list*
%AMRoundRect*
0 Rectangle with rounded corners*
0 $1 Rounding radius*
0 $2 $3 $4 $5 $6 $7 $8 $9 X,Y pos of 4 corners*
0 Add a 4 corners polygon primitive as box body*
4,1,4,$2,$3,$4,$5,$6,$7,$8,$9,$2,$3,0*
0 Add four circle primitives for the rounded corners*
1,1,$1+$1,$2,$3*
1,1,$1+$1,$4,$5*
1,1,$1+$1,$6,$7*
1,1,$1+$1,$8,$9*
0 Add four rect primitives between the rounded corners*
20,1,$1+$1,$2,$3,$4,$5,0*
20,1,$1+$1,$4,$5,$6,$7,0*
20,1,$1+$1,$6,$7,$8,$9,0*
20,1,$1+$1,$8,$9,$2,$3,0*%
G04 Aperture macros list end*
%ADD10R,1.700000X1.700000*%
%ADD11O,1.700000X1.700000*%
%ADD12C,1.980000*%
%ADD13RoundRect,0.250000X-0.600000X-0.600000X0.600000X-0.600000X0.600000X0.600000X-0.600000X0.600000X0*%
%ADD14C,1.700000*%
%ADD15RoundRect,0.250000X0.845000X-0.620000X0.845000X0.620000X-0.845000X0.620000X-0.845000X-0.620000X0*%
%ADD16O,2.190000X1.740000*%
%ADD17RoundRect,0.250000X-0.620000X-0.845000X0.620000X-0.845000X0.620000X0.845000X-0.620000X0.845000X0*%
%ADD18O,1.740000X2.190000*%
%ADD19C,2.000000*%
%ADD20RoundRect,0.102000X-0.325000X0.325000X-0.325000X-0.325000X0.325000X-0.325000X0.325000X0.325000X0*%
%ADD21C,0.854000*%
%ADD22O,1.904000X1.104000*%
%ADD23O,2.604000X1.104000*%
G04 APERTURE END LIST*
D10*
%TO.C,J2*%
X80250000Y-95675000D03*
D11*
X82790000Y-95675000D03*
X85330000Y-95675000D03*
X87870000Y-95675000D03*
X90410000Y-95675000D03*
X92950000Y-95675000D03*
X95490000Y-95675000D03*
X98030000Y-95675000D03*
X100570000Y-95675000D03*
X103110000Y-95675000D03*
X105650000Y-95675000D03*
X108190000Y-95675000D03*
X110730000Y-95675000D03*
X113270000Y-95675000D03*
%TD*%
D12*
%TO.C,BT1*%
X146565000Y-36640000D03*
%TD*%
D13*
%TO.C,J1*%
X106625000Y-66345000D03*
D14*
X109165000Y-66345000D03*
X106625000Y-68885000D03*
X109165000Y-68885000D03*
X106625000Y-71425000D03*
X109165000Y-71425000D03*
X106625000Y-73965000D03*
X109165000Y-73965000D03*
X106625000Y-76505000D03*
X109165000Y-76505000D03*
X106625000Y-79045000D03*
X109165000Y-79045000D03*
X106625000Y-81585000D03*
X109165000Y-81585000D03*
X106625000Y-84125000D03*
X109165000Y-84125000D03*
%TD*%
D15*
%TO.C,MOL2*%
X54125000Y-67965000D03*
D16*
X54125000Y-65425000D03*
%TD*%
D15*
%TO.C,MOL1*%
X54125000Y-58825000D03*
D16*
X54125000Y-56285000D03*
%TD*%
D17*
%TO.C,MOL4*%
X114475000Y-29075000D03*
D18*
X117015000Y-29075000D03*
%TD*%
D19*
%TO.C,RST1*%
X77825000Y-76425000D03*
X71325000Y-76425000D03*
X77825000Y-71925000D03*
X71325000Y-71925000D03*
%TD*%
%TO.C,BOOT1*%
X108125000Y-28425000D03*
X108125000Y-34925000D03*
X103625000Y-28425000D03*
X103625000Y-34925000D03*
%TD*%
D15*
%TO.C,MOL3*%
X54065000Y-77095000D03*
D16*
X54065000Y-74555000D03*
%TD*%
D20*
%TO.C,X2*%
X58750000Y-86025000D03*
D21*
X58750000Y-86875000D03*
X58750000Y-87725000D03*
X58750000Y-88575000D03*
X58750000Y-89425000D03*
X58750000Y-90275000D03*
X58750000Y-91125000D03*
X58750000Y-91975000D03*
X57400000Y-91975000D03*
X57400000Y-91125000D03*
X57400000Y-90275000D03*
X57400000Y-89425000D03*
X57400000Y-88575000D03*
X57400000Y-87725000D03*
X57400000Y-86875000D03*
X57400000Y-86025000D03*
D22*
X54390000Y-84675000D03*
X54390000Y-93325000D03*
D23*
X57770000Y-84675000D03*
X57770000Y-93325000D03*
%TD*%
M02*
