%TF.GenerationSoftware,KiCad,Pcbnew,8.0.5*%
%TF.CreationDate,2025-10-12T21:41:41-04:00*%
%TF.ProjectId,DisplayDriver,44697370-6c61-4794-9472-697665722e6b,1.0*%
%TF.SameCoordinates,Original*%
%TF.FileFunction,Legend,Top*%
%TF.FilePolarity,Positive*%
%FSLAX46Y46*%
G04 Gerber Fmt 4.6, Leading zero omitted, Abs format (unit mm)*
G04 Created by KiCad (PCBNEW 8.0.5) date 2025-10-12 21:41:41*
%MOMM*%
%LPD*%
G01*
G04 APERTURE LIST*
%ADD10C,0.150000*%
%ADD11C,0.100000*%
%ADD12C,0.120000*%
%ADD13C,0.127000*%
%ADD14C,0.200000*%
G04 APERTURE END LIST*
D10*
X103666666Y-119704819D02*
X103666666Y-120419104D01*
X103666666Y-120419104D02*
X103619047Y-120561961D01*
X103619047Y-120561961D02*
X103523809Y-120657200D01*
X103523809Y-120657200D02*
X103380952Y-120704819D01*
X103380952Y-120704819D02*
X103285714Y-120704819D01*
X104095238Y-119800057D02*
X104142857Y-119752438D01*
X104142857Y-119752438D02*
X104238095Y-119704819D01*
X104238095Y-119704819D02*
X104476190Y-119704819D01*
X104476190Y-119704819D02*
X104571428Y-119752438D01*
X104571428Y-119752438D02*
X104619047Y-119800057D01*
X104619047Y-119800057D02*
X104666666Y-119895295D01*
X104666666Y-119895295D02*
X104666666Y-119990533D01*
X104666666Y-119990533D02*
X104619047Y-120133390D01*
X104619047Y-120133390D02*
X104047619Y-120704819D01*
X104047619Y-120704819D02*
X104666666Y-120704819D01*
D11*
X99742857Y-95429847D02*
X99609524Y-95239371D01*
X99514286Y-95429847D02*
X99514286Y-95029847D01*
X99514286Y-95029847D02*
X99666667Y-95029847D01*
X99666667Y-95029847D02*
X99704762Y-95048895D01*
X99704762Y-95048895D02*
X99723809Y-95067942D01*
X99723809Y-95067942D02*
X99742857Y-95106038D01*
X99742857Y-95106038D02*
X99742857Y-95163180D01*
X99742857Y-95163180D02*
X99723809Y-95201276D01*
X99723809Y-95201276D02*
X99704762Y-95220323D01*
X99704762Y-95220323D02*
X99666667Y-95239371D01*
X99666667Y-95239371D02*
X99514286Y-95239371D01*
X100123809Y-95429847D02*
X99895238Y-95429847D01*
X100009524Y-95429847D02*
X100009524Y-95029847D01*
X100009524Y-95029847D02*
X99971428Y-95086990D01*
X99971428Y-95086990D02*
X99933333Y-95125085D01*
X99933333Y-95125085D02*
X99895238Y-95144133D01*
X100504761Y-95429847D02*
X100276190Y-95429847D01*
X100390476Y-95429847D02*
X100390476Y-95029847D01*
X100390476Y-95029847D02*
X100352380Y-95086990D01*
X100352380Y-95086990D02*
X100314285Y-95125085D01*
X100314285Y-95125085D02*
X100276190Y-95144133D01*
X144742857Y-92429847D02*
X144609524Y-92239371D01*
X144514286Y-92429847D02*
X144514286Y-92029847D01*
X144514286Y-92029847D02*
X144666667Y-92029847D01*
X144666667Y-92029847D02*
X144704762Y-92048895D01*
X144704762Y-92048895D02*
X144723809Y-92067942D01*
X144723809Y-92067942D02*
X144742857Y-92106038D01*
X144742857Y-92106038D02*
X144742857Y-92163180D01*
X144742857Y-92163180D02*
X144723809Y-92201276D01*
X144723809Y-92201276D02*
X144704762Y-92220323D01*
X144704762Y-92220323D02*
X144666667Y-92239371D01*
X144666667Y-92239371D02*
X144514286Y-92239371D01*
X144895238Y-92067942D02*
X144914286Y-92048895D01*
X144914286Y-92048895D02*
X144952381Y-92029847D01*
X144952381Y-92029847D02*
X145047619Y-92029847D01*
X145047619Y-92029847D02*
X145085714Y-92048895D01*
X145085714Y-92048895D02*
X145104762Y-92067942D01*
X145104762Y-92067942D02*
X145123809Y-92106038D01*
X145123809Y-92106038D02*
X145123809Y-92144133D01*
X145123809Y-92144133D02*
X145104762Y-92201276D01*
X145104762Y-92201276D02*
X144876190Y-92429847D01*
X144876190Y-92429847D02*
X145123809Y-92429847D01*
X145276190Y-92067942D02*
X145295238Y-92048895D01*
X145295238Y-92048895D02*
X145333333Y-92029847D01*
X145333333Y-92029847D02*
X145428571Y-92029847D01*
X145428571Y-92029847D02*
X145466666Y-92048895D01*
X145466666Y-92048895D02*
X145485714Y-92067942D01*
X145485714Y-92067942D02*
X145504761Y-92106038D01*
X145504761Y-92106038D02*
X145504761Y-92144133D01*
X145504761Y-92144133D02*
X145485714Y-92201276D01*
X145485714Y-92201276D02*
X145257142Y-92429847D01*
X145257142Y-92429847D02*
X145504761Y-92429847D01*
D10*
X76476190Y-73704819D02*
X76142857Y-73228628D01*
X75904762Y-73704819D02*
X75904762Y-72704819D01*
X75904762Y-72704819D02*
X76285714Y-72704819D01*
X76285714Y-72704819D02*
X76380952Y-72752438D01*
X76380952Y-72752438D02*
X76428571Y-72800057D01*
X76428571Y-72800057D02*
X76476190Y-72895295D01*
X76476190Y-72895295D02*
X76476190Y-73038152D01*
X76476190Y-73038152D02*
X76428571Y-73133390D01*
X76428571Y-73133390D02*
X76380952Y-73181009D01*
X76380952Y-73181009D02*
X76285714Y-73228628D01*
X76285714Y-73228628D02*
X75904762Y-73228628D01*
X76857143Y-73657200D02*
X77000000Y-73704819D01*
X77000000Y-73704819D02*
X77238095Y-73704819D01*
X77238095Y-73704819D02*
X77333333Y-73657200D01*
X77333333Y-73657200D02*
X77380952Y-73609580D01*
X77380952Y-73609580D02*
X77428571Y-73514342D01*
X77428571Y-73514342D02*
X77428571Y-73419104D01*
X77428571Y-73419104D02*
X77380952Y-73323866D01*
X77380952Y-73323866D02*
X77333333Y-73276247D01*
X77333333Y-73276247D02*
X77238095Y-73228628D01*
X77238095Y-73228628D02*
X77047619Y-73181009D01*
X77047619Y-73181009D02*
X76952381Y-73133390D01*
X76952381Y-73133390D02*
X76904762Y-73085771D01*
X76904762Y-73085771D02*
X76857143Y-72990533D01*
X76857143Y-72990533D02*
X76857143Y-72895295D01*
X76857143Y-72895295D02*
X76904762Y-72800057D01*
X76904762Y-72800057D02*
X76952381Y-72752438D01*
X76952381Y-72752438D02*
X77047619Y-72704819D01*
X77047619Y-72704819D02*
X77285714Y-72704819D01*
X77285714Y-72704819D02*
X77428571Y-72752438D01*
X77714286Y-72704819D02*
X78285714Y-72704819D01*
X78000000Y-73704819D02*
X78000000Y-72704819D01*
X79142857Y-73704819D02*
X78571429Y-73704819D01*
X78857143Y-73704819D02*
X78857143Y-72704819D01*
X78857143Y-72704819D02*
X78761905Y-72847676D01*
X78761905Y-72847676D02*
X78666667Y-72942914D01*
X78666667Y-72942914D02*
X78571429Y-72990533D01*
D11*
X124417857Y-92929847D02*
X124284524Y-92739371D01*
X124189286Y-92929847D02*
X124189286Y-92529847D01*
X124189286Y-92529847D02*
X124341667Y-92529847D01*
X124341667Y-92529847D02*
X124379762Y-92548895D01*
X124379762Y-92548895D02*
X124398809Y-92567942D01*
X124398809Y-92567942D02*
X124417857Y-92606038D01*
X124417857Y-92606038D02*
X124417857Y-92663180D01*
X124417857Y-92663180D02*
X124398809Y-92701276D01*
X124398809Y-92701276D02*
X124379762Y-92720323D01*
X124379762Y-92720323D02*
X124341667Y-92739371D01*
X124341667Y-92739371D02*
X124189286Y-92739371D01*
X124798809Y-92929847D02*
X124570238Y-92929847D01*
X124684524Y-92929847D02*
X124684524Y-92529847D01*
X124684524Y-92529847D02*
X124646428Y-92586990D01*
X124646428Y-92586990D02*
X124608333Y-92625085D01*
X124608333Y-92625085D02*
X124570238Y-92644133D01*
X124951190Y-92567942D02*
X124970238Y-92548895D01*
X124970238Y-92548895D02*
X125008333Y-92529847D01*
X125008333Y-92529847D02*
X125103571Y-92529847D01*
X125103571Y-92529847D02*
X125141666Y-92548895D01*
X125141666Y-92548895D02*
X125160714Y-92567942D01*
X125160714Y-92567942D02*
X125179761Y-92606038D01*
X125179761Y-92606038D02*
X125179761Y-92644133D01*
X125179761Y-92644133D02*
X125160714Y-92701276D01*
X125160714Y-92701276D02*
X124932142Y-92929847D01*
X124932142Y-92929847D02*
X125179761Y-92929847D01*
X119742857Y-114179847D02*
X119609524Y-113989371D01*
X119514286Y-114179847D02*
X119514286Y-113779847D01*
X119514286Y-113779847D02*
X119666667Y-113779847D01*
X119666667Y-113779847D02*
X119704762Y-113798895D01*
X119704762Y-113798895D02*
X119723809Y-113817942D01*
X119723809Y-113817942D02*
X119742857Y-113856038D01*
X119742857Y-113856038D02*
X119742857Y-113913180D01*
X119742857Y-113913180D02*
X119723809Y-113951276D01*
X119723809Y-113951276D02*
X119704762Y-113970323D01*
X119704762Y-113970323D02*
X119666667Y-113989371D01*
X119666667Y-113989371D02*
X119514286Y-113989371D01*
X120123809Y-114179847D02*
X119895238Y-114179847D01*
X120009524Y-114179847D02*
X120009524Y-113779847D01*
X120009524Y-113779847D02*
X119971428Y-113836990D01*
X119971428Y-113836990D02*
X119933333Y-113875085D01*
X119933333Y-113875085D02*
X119895238Y-113894133D01*
X120257142Y-113779847D02*
X120523809Y-113779847D01*
X120523809Y-113779847D02*
X120352380Y-114179847D01*
X85641752Y-74066666D02*
X85660800Y-74085714D01*
X85660800Y-74085714D02*
X85679847Y-74142856D01*
X85679847Y-74142856D02*
X85679847Y-74180952D01*
X85679847Y-74180952D02*
X85660800Y-74238095D01*
X85660800Y-74238095D02*
X85622704Y-74276190D01*
X85622704Y-74276190D02*
X85584609Y-74295237D01*
X85584609Y-74295237D02*
X85508419Y-74314285D01*
X85508419Y-74314285D02*
X85451276Y-74314285D01*
X85451276Y-74314285D02*
X85375085Y-74295237D01*
X85375085Y-74295237D02*
X85336990Y-74276190D01*
X85336990Y-74276190D02*
X85298895Y-74238095D01*
X85298895Y-74238095D02*
X85279847Y-74180952D01*
X85279847Y-74180952D02*
X85279847Y-74142856D01*
X85279847Y-74142856D02*
X85298895Y-74085714D01*
X85298895Y-74085714D02*
X85317942Y-74066666D01*
X85451276Y-73838095D02*
X85432228Y-73876190D01*
X85432228Y-73876190D02*
X85413180Y-73895237D01*
X85413180Y-73895237D02*
X85375085Y-73914285D01*
X85375085Y-73914285D02*
X85356038Y-73914285D01*
X85356038Y-73914285D02*
X85317942Y-73895237D01*
X85317942Y-73895237D02*
X85298895Y-73876190D01*
X85298895Y-73876190D02*
X85279847Y-73838095D01*
X85279847Y-73838095D02*
X85279847Y-73761904D01*
X85279847Y-73761904D02*
X85298895Y-73723809D01*
X85298895Y-73723809D02*
X85317942Y-73704761D01*
X85317942Y-73704761D02*
X85356038Y-73685714D01*
X85356038Y-73685714D02*
X85375085Y-73685714D01*
X85375085Y-73685714D02*
X85413180Y-73704761D01*
X85413180Y-73704761D02*
X85432228Y-73723809D01*
X85432228Y-73723809D02*
X85451276Y-73761904D01*
X85451276Y-73761904D02*
X85451276Y-73838095D01*
X85451276Y-73838095D02*
X85470323Y-73876190D01*
X85470323Y-73876190D02*
X85489371Y-73895237D01*
X85489371Y-73895237D02*
X85527466Y-73914285D01*
X85527466Y-73914285D02*
X85603657Y-73914285D01*
X85603657Y-73914285D02*
X85641752Y-73895237D01*
X85641752Y-73895237D02*
X85660800Y-73876190D01*
X85660800Y-73876190D02*
X85679847Y-73838095D01*
X85679847Y-73838095D02*
X85679847Y-73761904D01*
X85679847Y-73761904D02*
X85660800Y-73723809D01*
X85660800Y-73723809D02*
X85641752Y-73704761D01*
X85641752Y-73704761D02*
X85603657Y-73685714D01*
X85603657Y-73685714D02*
X85527466Y-73685714D01*
X85527466Y-73685714D02*
X85489371Y-73704761D01*
X85489371Y-73704761D02*
X85470323Y-73723809D01*
X85470323Y-73723809D02*
X85451276Y-73761904D01*
X122917857Y-105679847D02*
X122784524Y-105489371D01*
X122689286Y-105679847D02*
X122689286Y-105279847D01*
X122689286Y-105279847D02*
X122841667Y-105279847D01*
X122841667Y-105279847D02*
X122879762Y-105298895D01*
X122879762Y-105298895D02*
X122898809Y-105317942D01*
X122898809Y-105317942D02*
X122917857Y-105356038D01*
X122917857Y-105356038D02*
X122917857Y-105413180D01*
X122917857Y-105413180D02*
X122898809Y-105451276D01*
X122898809Y-105451276D02*
X122879762Y-105470323D01*
X122879762Y-105470323D02*
X122841667Y-105489371D01*
X122841667Y-105489371D02*
X122689286Y-105489371D01*
X123298809Y-105679847D02*
X123070238Y-105679847D01*
X123184524Y-105679847D02*
X123184524Y-105279847D01*
X123184524Y-105279847D02*
X123146428Y-105336990D01*
X123146428Y-105336990D02*
X123108333Y-105375085D01*
X123108333Y-105375085D02*
X123070238Y-105394133D01*
X123660714Y-105279847D02*
X123470238Y-105279847D01*
X123470238Y-105279847D02*
X123451190Y-105470323D01*
X123451190Y-105470323D02*
X123470238Y-105451276D01*
X123470238Y-105451276D02*
X123508333Y-105432228D01*
X123508333Y-105432228D02*
X123603571Y-105432228D01*
X123603571Y-105432228D02*
X123641666Y-105451276D01*
X123641666Y-105451276D02*
X123660714Y-105470323D01*
X123660714Y-105470323D02*
X123679761Y-105508419D01*
X123679761Y-105508419D02*
X123679761Y-105603657D01*
X123679761Y-105603657D02*
X123660714Y-105641752D01*
X123660714Y-105641752D02*
X123641666Y-105660800D01*
X123641666Y-105660800D02*
X123603571Y-105679847D01*
X123603571Y-105679847D02*
X123508333Y-105679847D01*
X123508333Y-105679847D02*
X123470238Y-105660800D01*
X123470238Y-105660800D02*
X123451190Y-105641752D01*
D10*
X107738095Y-101704819D02*
X107738095Y-102514342D01*
X107738095Y-102514342D02*
X107785714Y-102609580D01*
X107785714Y-102609580D02*
X107833333Y-102657200D01*
X107833333Y-102657200D02*
X107928571Y-102704819D01*
X107928571Y-102704819D02*
X108119047Y-102704819D01*
X108119047Y-102704819D02*
X108214285Y-102657200D01*
X108214285Y-102657200D02*
X108261904Y-102609580D01*
X108261904Y-102609580D02*
X108309523Y-102514342D01*
X108309523Y-102514342D02*
X108309523Y-101704819D01*
X108738095Y-101800057D02*
X108785714Y-101752438D01*
X108785714Y-101752438D02*
X108880952Y-101704819D01*
X108880952Y-101704819D02*
X109119047Y-101704819D01*
X109119047Y-101704819D02*
X109214285Y-101752438D01*
X109214285Y-101752438D02*
X109261904Y-101800057D01*
X109261904Y-101800057D02*
X109309523Y-101895295D01*
X109309523Y-101895295D02*
X109309523Y-101990533D01*
X109309523Y-101990533D02*
X109261904Y-102133390D01*
X109261904Y-102133390D02*
X108690476Y-102704819D01*
X108690476Y-102704819D02*
X109309523Y-102704819D01*
D11*
X105433333Y-100179847D02*
X105300000Y-99989371D01*
X105204762Y-100179847D02*
X105204762Y-99779847D01*
X105204762Y-99779847D02*
X105357143Y-99779847D01*
X105357143Y-99779847D02*
X105395238Y-99798895D01*
X105395238Y-99798895D02*
X105414285Y-99817942D01*
X105414285Y-99817942D02*
X105433333Y-99856038D01*
X105433333Y-99856038D02*
X105433333Y-99913180D01*
X105433333Y-99913180D02*
X105414285Y-99951276D01*
X105414285Y-99951276D02*
X105395238Y-99970323D01*
X105395238Y-99970323D02*
X105357143Y-99989371D01*
X105357143Y-99989371D02*
X105204762Y-99989371D01*
X105776190Y-99779847D02*
X105700000Y-99779847D01*
X105700000Y-99779847D02*
X105661904Y-99798895D01*
X105661904Y-99798895D02*
X105642857Y-99817942D01*
X105642857Y-99817942D02*
X105604762Y-99875085D01*
X105604762Y-99875085D02*
X105585714Y-99951276D01*
X105585714Y-99951276D02*
X105585714Y-100103657D01*
X105585714Y-100103657D02*
X105604762Y-100141752D01*
X105604762Y-100141752D02*
X105623809Y-100160800D01*
X105623809Y-100160800D02*
X105661904Y-100179847D01*
X105661904Y-100179847D02*
X105738095Y-100179847D01*
X105738095Y-100179847D02*
X105776190Y-100160800D01*
X105776190Y-100160800D02*
X105795238Y-100141752D01*
X105795238Y-100141752D02*
X105814285Y-100103657D01*
X105814285Y-100103657D02*
X105814285Y-100008419D01*
X105814285Y-100008419D02*
X105795238Y-99970323D01*
X105795238Y-99970323D02*
X105776190Y-99951276D01*
X105776190Y-99951276D02*
X105738095Y-99932228D01*
X105738095Y-99932228D02*
X105661904Y-99932228D01*
X105661904Y-99932228D02*
X105623809Y-99951276D01*
X105623809Y-99951276D02*
X105604762Y-99970323D01*
X105604762Y-99970323D02*
X105585714Y-100008419D01*
D10*
X130763095Y-69454819D02*
X130763095Y-70264342D01*
X130763095Y-70264342D02*
X130810714Y-70359580D01*
X130810714Y-70359580D02*
X130858333Y-70407200D01*
X130858333Y-70407200D02*
X130953571Y-70454819D01*
X130953571Y-70454819D02*
X131144047Y-70454819D01*
X131144047Y-70454819D02*
X131239285Y-70407200D01*
X131239285Y-70407200D02*
X131286904Y-70359580D01*
X131286904Y-70359580D02*
X131334523Y-70264342D01*
X131334523Y-70264342D02*
X131334523Y-69454819D01*
X131715476Y-69454819D02*
X132334523Y-69454819D01*
X132334523Y-69454819D02*
X132001190Y-69835771D01*
X132001190Y-69835771D02*
X132144047Y-69835771D01*
X132144047Y-69835771D02*
X132239285Y-69883390D01*
X132239285Y-69883390D02*
X132286904Y-69931009D01*
X132286904Y-69931009D02*
X132334523Y-70026247D01*
X132334523Y-70026247D02*
X132334523Y-70264342D01*
X132334523Y-70264342D02*
X132286904Y-70359580D01*
X132286904Y-70359580D02*
X132239285Y-70407200D01*
X132239285Y-70407200D02*
X132144047Y-70454819D01*
X132144047Y-70454819D02*
X131858333Y-70454819D01*
X131858333Y-70454819D02*
X131763095Y-70407200D01*
X131763095Y-70407200D02*
X131715476Y-70359580D01*
D11*
X145992857Y-82179847D02*
X145859524Y-81989371D01*
X145764286Y-82179847D02*
X145764286Y-81779847D01*
X145764286Y-81779847D02*
X145916667Y-81779847D01*
X145916667Y-81779847D02*
X145954762Y-81798895D01*
X145954762Y-81798895D02*
X145973809Y-81817942D01*
X145973809Y-81817942D02*
X145992857Y-81856038D01*
X145992857Y-81856038D02*
X145992857Y-81913180D01*
X145992857Y-81913180D02*
X145973809Y-81951276D01*
X145973809Y-81951276D02*
X145954762Y-81970323D01*
X145954762Y-81970323D02*
X145916667Y-81989371D01*
X145916667Y-81989371D02*
X145764286Y-81989371D01*
X146145238Y-81817942D02*
X146164286Y-81798895D01*
X146164286Y-81798895D02*
X146202381Y-81779847D01*
X146202381Y-81779847D02*
X146297619Y-81779847D01*
X146297619Y-81779847D02*
X146335714Y-81798895D01*
X146335714Y-81798895D02*
X146354762Y-81817942D01*
X146354762Y-81817942D02*
X146373809Y-81856038D01*
X146373809Y-81856038D02*
X146373809Y-81894133D01*
X146373809Y-81894133D02*
X146354762Y-81951276D01*
X146354762Y-81951276D02*
X146126190Y-82179847D01*
X146126190Y-82179847D02*
X146373809Y-82179847D01*
X146621428Y-81779847D02*
X146659523Y-81779847D01*
X146659523Y-81779847D02*
X146697619Y-81798895D01*
X146697619Y-81798895D02*
X146716666Y-81817942D01*
X146716666Y-81817942D02*
X146735714Y-81856038D01*
X146735714Y-81856038D02*
X146754761Y-81932228D01*
X146754761Y-81932228D02*
X146754761Y-82027466D01*
X146754761Y-82027466D02*
X146735714Y-82103657D01*
X146735714Y-82103657D02*
X146716666Y-82141752D01*
X146716666Y-82141752D02*
X146697619Y-82160800D01*
X146697619Y-82160800D02*
X146659523Y-82179847D01*
X146659523Y-82179847D02*
X146621428Y-82179847D01*
X146621428Y-82179847D02*
X146583333Y-82160800D01*
X146583333Y-82160800D02*
X146564285Y-82141752D01*
X146564285Y-82141752D02*
X146545238Y-82103657D01*
X146545238Y-82103657D02*
X146526190Y-82027466D01*
X146526190Y-82027466D02*
X146526190Y-81932228D01*
X146526190Y-81932228D02*
X146545238Y-81856038D01*
X146545238Y-81856038D02*
X146564285Y-81817942D01*
X146564285Y-81817942D02*
X146583333Y-81798895D01*
X146583333Y-81798895D02*
X146621428Y-81779847D01*
X92992857Y-117429847D02*
X92859524Y-117239371D01*
X92764286Y-117429847D02*
X92764286Y-117029847D01*
X92764286Y-117029847D02*
X92916667Y-117029847D01*
X92916667Y-117029847D02*
X92954762Y-117048895D01*
X92954762Y-117048895D02*
X92973809Y-117067942D01*
X92973809Y-117067942D02*
X92992857Y-117106038D01*
X92992857Y-117106038D02*
X92992857Y-117163180D01*
X92992857Y-117163180D02*
X92973809Y-117201276D01*
X92973809Y-117201276D02*
X92954762Y-117220323D01*
X92954762Y-117220323D02*
X92916667Y-117239371D01*
X92916667Y-117239371D02*
X92764286Y-117239371D01*
X93145238Y-117067942D02*
X93164286Y-117048895D01*
X93164286Y-117048895D02*
X93202381Y-117029847D01*
X93202381Y-117029847D02*
X93297619Y-117029847D01*
X93297619Y-117029847D02*
X93335714Y-117048895D01*
X93335714Y-117048895D02*
X93354762Y-117067942D01*
X93354762Y-117067942D02*
X93373809Y-117106038D01*
X93373809Y-117106038D02*
X93373809Y-117144133D01*
X93373809Y-117144133D02*
X93354762Y-117201276D01*
X93354762Y-117201276D02*
X93126190Y-117429847D01*
X93126190Y-117429847D02*
X93373809Y-117429847D01*
X93507142Y-117029847D02*
X93754761Y-117029847D01*
X93754761Y-117029847D02*
X93621428Y-117182228D01*
X93621428Y-117182228D02*
X93678571Y-117182228D01*
X93678571Y-117182228D02*
X93716666Y-117201276D01*
X93716666Y-117201276D02*
X93735714Y-117220323D01*
X93735714Y-117220323D02*
X93754761Y-117258419D01*
X93754761Y-117258419D02*
X93754761Y-117353657D01*
X93754761Y-117353657D02*
X93735714Y-117391752D01*
X93735714Y-117391752D02*
X93716666Y-117410800D01*
X93716666Y-117410800D02*
X93678571Y-117429847D01*
X93678571Y-117429847D02*
X93564285Y-117429847D01*
X93564285Y-117429847D02*
X93526190Y-117410800D01*
X93526190Y-117410800D02*
X93507142Y-117391752D01*
D10*
X137186666Y-87104819D02*
X137186666Y-87819104D01*
X137186666Y-87819104D02*
X137139047Y-87961961D01*
X137139047Y-87961961D02*
X137043809Y-88057200D01*
X137043809Y-88057200D02*
X136900952Y-88104819D01*
X136900952Y-88104819D02*
X136805714Y-88104819D01*
X138186666Y-88104819D02*
X137615238Y-88104819D01*
X137900952Y-88104819D02*
X137900952Y-87104819D01*
X137900952Y-87104819D02*
X137805714Y-87247676D01*
X137805714Y-87247676D02*
X137710476Y-87342914D01*
X137710476Y-87342914D02*
X137615238Y-87390533D01*
D11*
X77391752Y-122232142D02*
X77410800Y-122251190D01*
X77410800Y-122251190D02*
X77429847Y-122308332D01*
X77429847Y-122308332D02*
X77429847Y-122346428D01*
X77429847Y-122346428D02*
X77410800Y-122403571D01*
X77410800Y-122403571D02*
X77372704Y-122441666D01*
X77372704Y-122441666D02*
X77334609Y-122460713D01*
X77334609Y-122460713D02*
X77258419Y-122479761D01*
X77258419Y-122479761D02*
X77201276Y-122479761D01*
X77201276Y-122479761D02*
X77125085Y-122460713D01*
X77125085Y-122460713D02*
X77086990Y-122441666D01*
X77086990Y-122441666D02*
X77048895Y-122403571D01*
X77048895Y-122403571D02*
X77029847Y-122346428D01*
X77029847Y-122346428D02*
X77029847Y-122308332D01*
X77029847Y-122308332D02*
X77048895Y-122251190D01*
X77048895Y-122251190D02*
X77067942Y-122232142D01*
X77429847Y-121851190D02*
X77429847Y-122079761D01*
X77429847Y-121965475D02*
X77029847Y-121965475D01*
X77029847Y-121965475D02*
X77086990Y-122003571D01*
X77086990Y-122003571D02*
X77125085Y-122041666D01*
X77125085Y-122041666D02*
X77144133Y-122079761D01*
X77029847Y-121489285D02*
X77029847Y-121679761D01*
X77029847Y-121679761D02*
X77220323Y-121698809D01*
X77220323Y-121698809D02*
X77201276Y-121679761D01*
X77201276Y-121679761D02*
X77182228Y-121641666D01*
X77182228Y-121641666D02*
X77182228Y-121546428D01*
X77182228Y-121546428D02*
X77201276Y-121508333D01*
X77201276Y-121508333D02*
X77220323Y-121489285D01*
X77220323Y-121489285D02*
X77258419Y-121470238D01*
X77258419Y-121470238D02*
X77353657Y-121470238D01*
X77353657Y-121470238D02*
X77391752Y-121489285D01*
X77391752Y-121489285D02*
X77410800Y-121508333D01*
X77410800Y-121508333D02*
X77429847Y-121546428D01*
X77429847Y-121546428D02*
X77429847Y-121641666D01*
X77429847Y-121641666D02*
X77410800Y-121679761D01*
X77410800Y-121679761D02*
X77391752Y-121698809D01*
X112992857Y-98104252D02*
X112973809Y-98123300D01*
X112973809Y-98123300D02*
X112916667Y-98142347D01*
X112916667Y-98142347D02*
X112878571Y-98142347D01*
X112878571Y-98142347D02*
X112821428Y-98123300D01*
X112821428Y-98123300D02*
X112783333Y-98085204D01*
X112783333Y-98085204D02*
X112764286Y-98047109D01*
X112764286Y-98047109D02*
X112745238Y-97970919D01*
X112745238Y-97970919D02*
X112745238Y-97913776D01*
X112745238Y-97913776D02*
X112764286Y-97837585D01*
X112764286Y-97837585D02*
X112783333Y-97799490D01*
X112783333Y-97799490D02*
X112821428Y-97761395D01*
X112821428Y-97761395D02*
X112878571Y-97742347D01*
X112878571Y-97742347D02*
X112916667Y-97742347D01*
X112916667Y-97742347D02*
X112973809Y-97761395D01*
X112973809Y-97761395D02*
X112992857Y-97780442D01*
X113373809Y-98142347D02*
X113145238Y-98142347D01*
X113259524Y-98142347D02*
X113259524Y-97742347D01*
X113259524Y-97742347D02*
X113221428Y-97799490D01*
X113221428Y-97799490D02*
X113183333Y-97837585D01*
X113183333Y-97837585D02*
X113145238Y-97856633D01*
X113716666Y-97875680D02*
X113716666Y-98142347D01*
X113621428Y-97723300D02*
X113526190Y-98009014D01*
X113526190Y-98009014D02*
X113773809Y-98009014D01*
D10*
X144380952Y-66204819D02*
X143904762Y-66204819D01*
X143904762Y-66204819D02*
X143904762Y-65204819D01*
X144714286Y-65681009D02*
X145047619Y-65681009D01*
X145190476Y-66204819D02*
X144714286Y-66204819D01*
X144714286Y-66204819D02*
X144714286Y-65204819D01*
X144714286Y-65204819D02*
X145190476Y-65204819D01*
X145619048Y-66204819D02*
X145619048Y-65204819D01*
X145619048Y-65204819D02*
X145857143Y-65204819D01*
X145857143Y-65204819D02*
X146000000Y-65252438D01*
X146000000Y-65252438D02*
X146095238Y-65347676D01*
X146095238Y-65347676D02*
X146142857Y-65442914D01*
X146142857Y-65442914D02*
X146190476Y-65633390D01*
X146190476Y-65633390D02*
X146190476Y-65776247D01*
X146190476Y-65776247D02*
X146142857Y-65966723D01*
X146142857Y-65966723D02*
X146095238Y-66061961D01*
X146095238Y-66061961D02*
X146000000Y-66157200D01*
X146000000Y-66157200D02*
X145857143Y-66204819D01*
X145857143Y-66204819D02*
X145619048Y-66204819D01*
X147142857Y-66204819D02*
X146571429Y-66204819D01*
X146857143Y-66204819D02*
X146857143Y-65204819D01*
X146857143Y-65204819D02*
X146761905Y-65347676D01*
X146761905Y-65347676D02*
X146666667Y-65442914D01*
X146666667Y-65442914D02*
X146571429Y-65490533D01*
D11*
X146933333Y-102467347D02*
X146800000Y-102276871D01*
X146704762Y-102467347D02*
X146704762Y-102067347D01*
X146704762Y-102067347D02*
X146857143Y-102067347D01*
X146857143Y-102067347D02*
X146895238Y-102086395D01*
X146895238Y-102086395D02*
X146914285Y-102105442D01*
X146914285Y-102105442D02*
X146933333Y-102143538D01*
X146933333Y-102143538D02*
X146933333Y-102200680D01*
X146933333Y-102200680D02*
X146914285Y-102238776D01*
X146914285Y-102238776D02*
X146895238Y-102257823D01*
X146895238Y-102257823D02*
X146857143Y-102276871D01*
X146857143Y-102276871D02*
X146704762Y-102276871D01*
X147276190Y-102200680D02*
X147276190Y-102467347D01*
X147180952Y-102048300D02*
X147085714Y-102334014D01*
X147085714Y-102334014D02*
X147333333Y-102334014D01*
D10*
X75892857Y-93954819D02*
X75892857Y-92954819D01*
X75892857Y-92954819D02*
X76130952Y-92954819D01*
X76130952Y-92954819D02*
X76273809Y-93002438D01*
X76273809Y-93002438D02*
X76369047Y-93097676D01*
X76369047Y-93097676D02*
X76416666Y-93192914D01*
X76416666Y-93192914D02*
X76464285Y-93383390D01*
X76464285Y-93383390D02*
X76464285Y-93526247D01*
X76464285Y-93526247D02*
X76416666Y-93716723D01*
X76416666Y-93716723D02*
X76369047Y-93811961D01*
X76369047Y-93811961D02*
X76273809Y-93907200D01*
X76273809Y-93907200D02*
X76130952Y-93954819D01*
X76130952Y-93954819D02*
X75892857Y-93954819D01*
X77083333Y-92954819D02*
X77273809Y-92954819D01*
X77273809Y-92954819D02*
X77369047Y-93002438D01*
X77369047Y-93002438D02*
X77464285Y-93097676D01*
X77464285Y-93097676D02*
X77511904Y-93288152D01*
X77511904Y-93288152D02*
X77511904Y-93621485D01*
X77511904Y-93621485D02*
X77464285Y-93811961D01*
X77464285Y-93811961D02*
X77369047Y-93907200D01*
X77369047Y-93907200D02*
X77273809Y-93954819D01*
X77273809Y-93954819D02*
X77083333Y-93954819D01*
X77083333Y-93954819D02*
X76988095Y-93907200D01*
X76988095Y-93907200D02*
X76892857Y-93811961D01*
X76892857Y-93811961D02*
X76845238Y-93621485D01*
X76845238Y-93621485D02*
X76845238Y-93288152D01*
X76845238Y-93288152D02*
X76892857Y-93097676D01*
X76892857Y-93097676D02*
X76988095Y-93002438D01*
X76988095Y-93002438D02*
X77083333Y-92954819D01*
X77845238Y-92954819D02*
X78083333Y-93954819D01*
X78083333Y-93954819D02*
X78273809Y-93240533D01*
X78273809Y-93240533D02*
X78464285Y-93954819D01*
X78464285Y-93954819D02*
X78702381Y-92954819D01*
X79083333Y-93954819D02*
X79083333Y-92954819D01*
X79083333Y-92954819D02*
X79654761Y-93954819D01*
X79654761Y-93954819D02*
X79654761Y-92954819D01*
X80654761Y-93954819D02*
X80083333Y-93954819D01*
X80369047Y-93954819D02*
X80369047Y-92954819D01*
X80369047Y-92954819D02*
X80273809Y-93097676D01*
X80273809Y-93097676D02*
X80178571Y-93192914D01*
X80178571Y-93192914D02*
X80083333Y-93240533D01*
D11*
X113683333Y-93429847D02*
X113550000Y-93239371D01*
X113454762Y-93429847D02*
X113454762Y-93029847D01*
X113454762Y-93029847D02*
X113607143Y-93029847D01*
X113607143Y-93029847D02*
X113645238Y-93048895D01*
X113645238Y-93048895D02*
X113664285Y-93067942D01*
X113664285Y-93067942D02*
X113683333Y-93106038D01*
X113683333Y-93106038D02*
X113683333Y-93163180D01*
X113683333Y-93163180D02*
X113664285Y-93201276D01*
X113664285Y-93201276D02*
X113645238Y-93220323D01*
X113645238Y-93220323D02*
X113607143Y-93239371D01*
X113607143Y-93239371D02*
X113454762Y-93239371D01*
X113816666Y-93029847D02*
X114083333Y-93029847D01*
X114083333Y-93029847D02*
X113911904Y-93429847D01*
X103704762Y-95467347D02*
X103704762Y-95067347D01*
X103704762Y-95067347D02*
X103800000Y-95067347D01*
X103800000Y-95067347D02*
X103857143Y-95086395D01*
X103857143Y-95086395D02*
X103895238Y-95124490D01*
X103895238Y-95124490D02*
X103914285Y-95162585D01*
X103914285Y-95162585D02*
X103933333Y-95238776D01*
X103933333Y-95238776D02*
X103933333Y-95295919D01*
X103933333Y-95295919D02*
X103914285Y-95372109D01*
X103914285Y-95372109D02*
X103895238Y-95410204D01*
X103895238Y-95410204D02*
X103857143Y-95448300D01*
X103857143Y-95448300D02*
X103800000Y-95467347D01*
X103800000Y-95467347D02*
X103704762Y-95467347D01*
X104314285Y-95467347D02*
X104085714Y-95467347D01*
X104200000Y-95467347D02*
X104200000Y-95067347D01*
X104200000Y-95067347D02*
X104161904Y-95124490D01*
X104161904Y-95124490D02*
X104123809Y-95162585D01*
X104123809Y-95162585D02*
X104085714Y-95181633D01*
X152742857Y-81104252D02*
X152723809Y-81123300D01*
X152723809Y-81123300D02*
X152666667Y-81142347D01*
X152666667Y-81142347D02*
X152628571Y-81142347D01*
X152628571Y-81142347D02*
X152571428Y-81123300D01*
X152571428Y-81123300D02*
X152533333Y-81085204D01*
X152533333Y-81085204D02*
X152514286Y-81047109D01*
X152514286Y-81047109D02*
X152495238Y-80970919D01*
X152495238Y-80970919D02*
X152495238Y-80913776D01*
X152495238Y-80913776D02*
X152514286Y-80837585D01*
X152514286Y-80837585D02*
X152533333Y-80799490D01*
X152533333Y-80799490D02*
X152571428Y-80761395D01*
X152571428Y-80761395D02*
X152628571Y-80742347D01*
X152628571Y-80742347D02*
X152666667Y-80742347D01*
X152666667Y-80742347D02*
X152723809Y-80761395D01*
X152723809Y-80761395D02*
X152742857Y-80780442D01*
X153123809Y-81142347D02*
X152895238Y-81142347D01*
X153009524Y-81142347D02*
X153009524Y-80742347D01*
X153009524Y-80742347D02*
X152971428Y-80799490D01*
X152971428Y-80799490D02*
X152933333Y-80837585D01*
X152933333Y-80837585D02*
X152895238Y-80856633D01*
X153257142Y-80742347D02*
X153504761Y-80742347D01*
X153504761Y-80742347D02*
X153371428Y-80894728D01*
X153371428Y-80894728D02*
X153428571Y-80894728D01*
X153428571Y-80894728D02*
X153466666Y-80913776D01*
X153466666Y-80913776D02*
X153485714Y-80932823D01*
X153485714Y-80932823D02*
X153504761Y-80970919D01*
X153504761Y-80970919D02*
X153504761Y-81066157D01*
X153504761Y-81066157D02*
X153485714Y-81104252D01*
X153485714Y-81104252D02*
X153466666Y-81123300D01*
X153466666Y-81123300D02*
X153428571Y-81142347D01*
X153428571Y-81142347D02*
X153314285Y-81142347D01*
X153314285Y-81142347D02*
X153276190Y-81123300D01*
X153276190Y-81123300D02*
X153257142Y-81104252D01*
X83683333Y-109604252D02*
X83664285Y-109623300D01*
X83664285Y-109623300D02*
X83607143Y-109642347D01*
X83607143Y-109642347D02*
X83569047Y-109642347D01*
X83569047Y-109642347D02*
X83511904Y-109623300D01*
X83511904Y-109623300D02*
X83473809Y-109585204D01*
X83473809Y-109585204D02*
X83454762Y-109547109D01*
X83454762Y-109547109D02*
X83435714Y-109470919D01*
X83435714Y-109470919D02*
X83435714Y-109413776D01*
X83435714Y-109413776D02*
X83454762Y-109337585D01*
X83454762Y-109337585D02*
X83473809Y-109299490D01*
X83473809Y-109299490D02*
X83511904Y-109261395D01*
X83511904Y-109261395D02*
X83569047Y-109242347D01*
X83569047Y-109242347D02*
X83607143Y-109242347D01*
X83607143Y-109242347D02*
X83664285Y-109261395D01*
X83664285Y-109261395D02*
X83683333Y-109280442D01*
X84026190Y-109242347D02*
X83950000Y-109242347D01*
X83950000Y-109242347D02*
X83911904Y-109261395D01*
X83911904Y-109261395D02*
X83892857Y-109280442D01*
X83892857Y-109280442D02*
X83854762Y-109337585D01*
X83854762Y-109337585D02*
X83835714Y-109413776D01*
X83835714Y-109413776D02*
X83835714Y-109566157D01*
X83835714Y-109566157D02*
X83854762Y-109604252D01*
X83854762Y-109604252D02*
X83873809Y-109623300D01*
X83873809Y-109623300D02*
X83911904Y-109642347D01*
X83911904Y-109642347D02*
X83988095Y-109642347D01*
X83988095Y-109642347D02*
X84026190Y-109623300D01*
X84026190Y-109623300D02*
X84045238Y-109604252D01*
X84045238Y-109604252D02*
X84064285Y-109566157D01*
X84064285Y-109566157D02*
X84064285Y-109470919D01*
X84064285Y-109470919D02*
X84045238Y-109432823D01*
X84045238Y-109432823D02*
X84026190Y-109413776D01*
X84026190Y-109413776D02*
X83988095Y-109394728D01*
X83988095Y-109394728D02*
X83911904Y-109394728D01*
X83911904Y-109394728D02*
X83873809Y-109413776D01*
X83873809Y-109413776D02*
X83854762Y-109432823D01*
X83854762Y-109432823D02*
X83835714Y-109470919D01*
X152492857Y-75416752D02*
X152473809Y-75435800D01*
X152473809Y-75435800D02*
X152416667Y-75454847D01*
X152416667Y-75454847D02*
X152378571Y-75454847D01*
X152378571Y-75454847D02*
X152321428Y-75435800D01*
X152321428Y-75435800D02*
X152283333Y-75397704D01*
X152283333Y-75397704D02*
X152264286Y-75359609D01*
X152264286Y-75359609D02*
X152245238Y-75283419D01*
X152245238Y-75283419D02*
X152245238Y-75226276D01*
X152245238Y-75226276D02*
X152264286Y-75150085D01*
X152264286Y-75150085D02*
X152283333Y-75111990D01*
X152283333Y-75111990D02*
X152321428Y-75073895D01*
X152321428Y-75073895D02*
X152378571Y-75054847D01*
X152378571Y-75054847D02*
X152416667Y-75054847D01*
X152416667Y-75054847D02*
X152473809Y-75073895D01*
X152473809Y-75073895D02*
X152492857Y-75092942D01*
X152873809Y-75454847D02*
X152645238Y-75454847D01*
X152759524Y-75454847D02*
X152759524Y-75054847D01*
X152759524Y-75054847D02*
X152721428Y-75111990D01*
X152721428Y-75111990D02*
X152683333Y-75150085D01*
X152683333Y-75150085D02*
X152645238Y-75169133D01*
X153216666Y-75054847D02*
X153140476Y-75054847D01*
X153140476Y-75054847D02*
X153102380Y-75073895D01*
X153102380Y-75073895D02*
X153083333Y-75092942D01*
X153083333Y-75092942D02*
X153045238Y-75150085D01*
X153045238Y-75150085D02*
X153026190Y-75226276D01*
X153026190Y-75226276D02*
X153026190Y-75378657D01*
X153026190Y-75378657D02*
X153045238Y-75416752D01*
X153045238Y-75416752D02*
X153064285Y-75435800D01*
X153064285Y-75435800D02*
X153102380Y-75454847D01*
X153102380Y-75454847D02*
X153178571Y-75454847D01*
X153178571Y-75454847D02*
X153216666Y-75435800D01*
X153216666Y-75435800D02*
X153235714Y-75416752D01*
X153235714Y-75416752D02*
X153254761Y-75378657D01*
X153254761Y-75378657D02*
X153254761Y-75283419D01*
X153254761Y-75283419D02*
X153235714Y-75245323D01*
X153235714Y-75245323D02*
X153216666Y-75226276D01*
X153216666Y-75226276D02*
X153178571Y-75207228D01*
X153178571Y-75207228D02*
X153102380Y-75207228D01*
X153102380Y-75207228D02*
X153064285Y-75226276D01*
X153064285Y-75226276D02*
X153045238Y-75245323D01*
X153045238Y-75245323D02*
X153026190Y-75283419D01*
D10*
X127107143Y-110657200D02*
X127250000Y-110704819D01*
X127250000Y-110704819D02*
X127488095Y-110704819D01*
X127488095Y-110704819D02*
X127583333Y-110657200D01*
X127583333Y-110657200D02*
X127630952Y-110609580D01*
X127630952Y-110609580D02*
X127678571Y-110514342D01*
X127678571Y-110514342D02*
X127678571Y-110419104D01*
X127678571Y-110419104D02*
X127630952Y-110323866D01*
X127630952Y-110323866D02*
X127583333Y-110276247D01*
X127583333Y-110276247D02*
X127488095Y-110228628D01*
X127488095Y-110228628D02*
X127297619Y-110181009D01*
X127297619Y-110181009D02*
X127202381Y-110133390D01*
X127202381Y-110133390D02*
X127154762Y-110085771D01*
X127154762Y-110085771D02*
X127107143Y-109990533D01*
X127107143Y-109990533D02*
X127107143Y-109895295D01*
X127107143Y-109895295D02*
X127154762Y-109800057D01*
X127154762Y-109800057D02*
X127202381Y-109752438D01*
X127202381Y-109752438D02*
X127297619Y-109704819D01*
X127297619Y-109704819D02*
X127535714Y-109704819D01*
X127535714Y-109704819D02*
X127678571Y-109752438D01*
X128392857Y-109704819D02*
X128392857Y-110419104D01*
X128392857Y-110419104D02*
X128345238Y-110561961D01*
X128345238Y-110561961D02*
X128250000Y-110657200D01*
X128250000Y-110657200D02*
X128107143Y-110704819D01*
X128107143Y-110704819D02*
X128011905Y-110704819D01*
X129392857Y-110704819D02*
X128821429Y-110704819D01*
X129107143Y-110704819D02*
X129107143Y-109704819D01*
X129107143Y-109704819D02*
X129011905Y-109847676D01*
X129011905Y-109847676D02*
X128916667Y-109942914D01*
X128916667Y-109942914D02*
X128821429Y-109990533D01*
D11*
X125933333Y-72141752D02*
X125914285Y-72160800D01*
X125914285Y-72160800D02*
X125857143Y-72179847D01*
X125857143Y-72179847D02*
X125819047Y-72179847D01*
X125819047Y-72179847D02*
X125761904Y-72160800D01*
X125761904Y-72160800D02*
X125723809Y-72122704D01*
X125723809Y-72122704D02*
X125704762Y-72084609D01*
X125704762Y-72084609D02*
X125685714Y-72008419D01*
X125685714Y-72008419D02*
X125685714Y-71951276D01*
X125685714Y-71951276D02*
X125704762Y-71875085D01*
X125704762Y-71875085D02*
X125723809Y-71836990D01*
X125723809Y-71836990D02*
X125761904Y-71798895D01*
X125761904Y-71798895D02*
X125819047Y-71779847D01*
X125819047Y-71779847D02*
X125857143Y-71779847D01*
X125857143Y-71779847D02*
X125914285Y-71798895D01*
X125914285Y-71798895D02*
X125933333Y-71817942D01*
X126314285Y-72179847D02*
X126085714Y-72179847D01*
X126200000Y-72179847D02*
X126200000Y-71779847D01*
X126200000Y-71779847D02*
X126161904Y-71836990D01*
X126161904Y-71836990D02*
X126123809Y-71875085D01*
X126123809Y-71875085D02*
X126085714Y-71894133D01*
X85391752Y-77816666D02*
X85410800Y-77835714D01*
X85410800Y-77835714D02*
X85429847Y-77892856D01*
X85429847Y-77892856D02*
X85429847Y-77930952D01*
X85429847Y-77930952D02*
X85410800Y-77988095D01*
X85410800Y-77988095D02*
X85372704Y-78026190D01*
X85372704Y-78026190D02*
X85334609Y-78045237D01*
X85334609Y-78045237D02*
X85258419Y-78064285D01*
X85258419Y-78064285D02*
X85201276Y-78064285D01*
X85201276Y-78064285D02*
X85125085Y-78045237D01*
X85125085Y-78045237D02*
X85086990Y-78026190D01*
X85086990Y-78026190D02*
X85048895Y-77988095D01*
X85048895Y-77988095D02*
X85029847Y-77930952D01*
X85029847Y-77930952D02*
X85029847Y-77892856D01*
X85029847Y-77892856D02*
X85048895Y-77835714D01*
X85048895Y-77835714D02*
X85067942Y-77816666D01*
X85029847Y-77683333D02*
X85029847Y-77416666D01*
X85029847Y-77416666D02*
X85429847Y-77588095D01*
X138492857Y-55429847D02*
X138359524Y-55239371D01*
X138264286Y-55429847D02*
X138264286Y-55029847D01*
X138264286Y-55029847D02*
X138416667Y-55029847D01*
X138416667Y-55029847D02*
X138454762Y-55048895D01*
X138454762Y-55048895D02*
X138473809Y-55067942D01*
X138473809Y-55067942D02*
X138492857Y-55106038D01*
X138492857Y-55106038D02*
X138492857Y-55163180D01*
X138492857Y-55163180D02*
X138473809Y-55201276D01*
X138473809Y-55201276D02*
X138454762Y-55220323D01*
X138454762Y-55220323D02*
X138416667Y-55239371D01*
X138416667Y-55239371D02*
X138264286Y-55239371D01*
X138645238Y-55067942D02*
X138664286Y-55048895D01*
X138664286Y-55048895D02*
X138702381Y-55029847D01*
X138702381Y-55029847D02*
X138797619Y-55029847D01*
X138797619Y-55029847D02*
X138835714Y-55048895D01*
X138835714Y-55048895D02*
X138854762Y-55067942D01*
X138854762Y-55067942D02*
X138873809Y-55106038D01*
X138873809Y-55106038D02*
X138873809Y-55144133D01*
X138873809Y-55144133D02*
X138854762Y-55201276D01*
X138854762Y-55201276D02*
X138626190Y-55429847D01*
X138626190Y-55429847D02*
X138873809Y-55429847D01*
X139235714Y-55029847D02*
X139045238Y-55029847D01*
X139045238Y-55029847D02*
X139026190Y-55220323D01*
X139026190Y-55220323D02*
X139045238Y-55201276D01*
X139045238Y-55201276D02*
X139083333Y-55182228D01*
X139083333Y-55182228D02*
X139178571Y-55182228D01*
X139178571Y-55182228D02*
X139216666Y-55201276D01*
X139216666Y-55201276D02*
X139235714Y-55220323D01*
X139235714Y-55220323D02*
X139254761Y-55258419D01*
X139254761Y-55258419D02*
X139254761Y-55353657D01*
X139254761Y-55353657D02*
X139235714Y-55391752D01*
X139235714Y-55391752D02*
X139216666Y-55410800D01*
X139216666Y-55410800D02*
X139178571Y-55429847D01*
X139178571Y-55429847D02*
X139083333Y-55429847D01*
X139083333Y-55429847D02*
X139045238Y-55410800D01*
X139045238Y-55410800D02*
X139026190Y-55391752D01*
X144683333Y-61679847D02*
X144550000Y-61489371D01*
X144454762Y-61679847D02*
X144454762Y-61279847D01*
X144454762Y-61279847D02*
X144607143Y-61279847D01*
X144607143Y-61279847D02*
X144645238Y-61298895D01*
X144645238Y-61298895D02*
X144664285Y-61317942D01*
X144664285Y-61317942D02*
X144683333Y-61356038D01*
X144683333Y-61356038D02*
X144683333Y-61413180D01*
X144683333Y-61413180D02*
X144664285Y-61451276D01*
X144664285Y-61451276D02*
X144645238Y-61470323D01*
X144645238Y-61470323D02*
X144607143Y-61489371D01*
X144607143Y-61489371D02*
X144454762Y-61489371D01*
X145064285Y-61679847D02*
X144835714Y-61679847D01*
X144950000Y-61679847D02*
X144950000Y-61279847D01*
X144950000Y-61279847D02*
X144911904Y-61336990D01*
X144911904Y-61336990D02*
X144873809Y-61375085D01*
X144873809Y-61375085D02*
X144835714Y-61394133D01*
D10*
X95238095Y-87704819D02*
X95238095Y-88514342D01*
X95238095Y-88514342D02*
X95285714Y-88609580D01*
X95285714Y-88609580D02*
X95333333Y-88657200D01*
X95333333Y-88657200D02*
X95428571Y-88704819D01*
X95428571Y-88704819D02*
X95619047Y-88704819D01*
X95619047Y-88704819D02*
X95714285Y-88657200D01*
X95714285Y-88657200D02*
X95761904Y-88609580D01*
X95761904Y-88609580D02*
X95809523Y-88514342D01*
X95809523Y-88514342D02*
X95809523Y-87704819D01*
X96809523Y-88704819D02*
X96238095Y-88704819D01*
X96523809Y-88704819D02*
X96523809Y-87704819D01*
X96523809Y-87704819D02*
X96428571Y-87847676D01*
X96428571Y-87847676D02*
X96333333Y-87942914D01*
X96333333Y-87942914D02*
X96238095Y-87990533D01*
D11*
X91992857Y-94179847D02*
X91859524Y-93989371D01*
X91764286Y-94179847D02*
X91764286Y-93779847D01*
X91764286Y-93779847D02*
X91916667Y-93779847D01*
X91916667Y-93779847D02*
X91954762Y-93798895D01*
X91954762Y-93798895D02*
X91973809Y-93817942D01*
X91973809Y-93817942D02*
X91992857Y-93856038D01*
X91992857Y-93856038D02*
X91992857Y-93913180D01*
X91992857Y-93913180D02*
X91973809Y-93951276D01*
X91973809Y-93951276D02*
X91954762Y-93970323D01*
X91954762Y-93970323D02*
X91916667Y-93989371D01*
X91916667Y-93989371D02*
X91764286Y-93989371D01*
X92145238Y-93817942D02*
X92164286Y-93798895D01*
X92164286Y-93798895D02*
X92202381Y-93779847D01*
X92202381Y-93779847D02*
X92297619Y-93779847D01*
X92297619Y-93779847D02*
X92335714Y-93798895D01*
X92335714Y-93798895D02*
X92354762Y-93817942D01*
X92354762Y-93817942D02*
X92373809Y-93856038D01*
X92373809Y-93856038D02*
X92373809Y-93894133D01*
X92373809Y-93894133D02*
X92354762Y-93951276D01*
X92354762Y-93951276D02*
X92126190Y-94179847D01*
X92126190Y-94179847D02*
X92373809Y-94179847D01*
X92507142Y-93779847D02*
X92773809Y-93779847D01*
X92773809Y-93779847D02*
X92602380Y-94179847D01*
X97683333Y-118141752D02*
X97664285Y-118160800D01*
X97664285Y-118160800D02*
X97607143Y-118179847D01*
X97607143Y-118179847D02*
X97569047Y-118179847D01*
X97569047Y-118179847D02*
X97511904Y-118160800D01*
X97511904Y-118160800D02*
X97473809Y-118122704D01*
X97473809Y-118122704D02*
X97454762Y-118084609D01*
X97454762Y-118084609D02*
X97435714Y-118008419D01*
X97435714Y-118008419D02*
X97435714Y-117951276D01*
X97435714Y-117951276D02*
X97454762Y-117875085D01*
X97454762Y-117875085D02*
X97473809Y-117836990D01*
X97473809Y-117836990D02*
X97511904Y-117798895D01*
X97511904Y-117798895D02*
X97569047Y-117779847D01*
X97569047Y-117779847D02*
X97607143Y-117779847D01*
X97607143Y-117779847D02*
X97664285Y-117798895D01*
X97664285Y-117798895D02*
X97683333Y-117817942D01*
X98045238Y-117779847D02*
X97854762Y-117779847D01*
X97854762Y-117779847D02*
X97835714Y-117970323D01*
X97835714Y-117970323D02*
X97854762Y-117951276D01*
X97854762Y-117951276D02*
X97892857Y-117932228D01*
X97892857Y-117932228D02*
X97988095Y-117932228D01*
X97988095Y-117932228D02*
X98026190Y-117951276D01*
X98026190Y-117951276D02*
X98045238Y-117970323D01*
X98045238Y-117970323D02*
X98064285Y-118008419D01*
X98064285Y-118008419D02*
X98064285Y-118103657D01*
X98064285Y-118103657D02*
X98045238Y-118141752D01*
X98045238Y-118141752D02*
X98026190Y-118160800D01*
X98026190Y-118160800D02*
X97988095Y-118179847D01*
X97988095Y-118179847D02*
X97892857Y-118179847D01*
X97892857Y-118179847D02*
X97854762Y-118160800D01*
X97854762Y-118160800D02*
X97835714Y-118141752D01*
X146954762Y-108717347D02*
X146954762Y-108317347D01*
X146954762Y-108317347D02*
X147050000Y-108317347D01*
X147050000Y-108317347D02*
X147107143Y-108336395D01*
X147107143Y-108336395D02*
X147145238Y-108374490D01*
X147145238Y-108374490D02*
X147164285Y-108412585D01*
X147164285Y-108412585D02*
X147183333Y-108488776D01*
X147183333Y-108488776D02*
X147183333Y-108545919D01*
X147183333Y-108545919D02*
X147164285Y-108622109D01*
X147164285Y-108622109D02*
X147145238Y-108660204D01*
X147145238Y-108660204D02*
X147107143Y-108698300D01*
X147107143Y-108698300D02*
X147050000Y-108717347D01*
X147050000Y-108717347D02*
X146954762Y-108717347D01*
X147335714Y-108355442D02*
X147354762Y-108336395D01*
X147354762Y-108336395D02*
X147392857Y-108317347D01*
X147392857Y-108317347D02*
X147488095Y-108317347D01*
X147488095Y-108317347D02*
X147526190Y-108336395D01*
X147526190Y-108336395D02*
X147545238Y-108355442D01*
X147545238Y-108355442D02*
X147564285Y-108393538D01*
X147564285Y-108393538D02*
X147564285Y-108431633D01*
X147564285Y-108431633D02*
X147545238Y-108488776D01*
X147545238Y-108488776D02*
X147316666Y-108717347D01*
X147316666Y-108717347D02*
X147564285Y-108717347D01*
X87433333Y-76429847D02*
X87300000Y-76239371D01*
X87204762Y-76429847D02*
X87204762Y-76029847D01*
X87204762Y-76029847D02*
X87357143Y-76029847D01*
X87357143Y-76029847D02*
X87395238Y-76048895D01*
X87395238Y-76048895D02*
X87414285Y-76067942D01*
X87414285Y-76067942D02*
X87433333Y-76106038D01*
X87433333Y-76106038D02*
X87433333Y-76163180D01*
X87433333Y-76163180D02*
X87414285Y-76201276D01*
X87414285Y-76201276D02*
X87395238Y-76220323D01*
X87395238Y-76220323D02*
X87357143Y-76239371D01*
X87357143Y-76239371D02*
X87204762Y-76239371D01*
X87566666Y-76029847D02*
X87814285Y-76029847D01*
X87814285Y-76029847D02*
X87680952Y-76182228D01*
X87680952Y-76182228D02*
X87738095Y-76182228D01*
X87738095Y-76182228D02*
X87776190Y-76201276D01*
X87776190Y-76201276D02*
X87795238Y-76220323D01*
X87795238Y-76220323D02*
X87814285Y-76258419D01*
X87814285Y-76258419D02*
X87814285Y-76353657D01*
X87814285Y-76353657D02*
X87795238Y-76391752D01*
X87795238Y-76391752D02*
X87776190Y-76410800D01*
X87776190Y-76410800D02*
X87738095Y-76429847D01*
X87738095Y-76429847D02*
X87623809Y-76429847D01*
X87623809Y-76429847D02*
X87585714Y-76410800D01*
X87585714Y-76410800D02*
X87566666Y-76391752D01*
D10*
X75988095Y-82954819D02*
X75988095Y-83764342D01*
X75988095Y-83764342D02*
X76035714Y-83859580D01*
X76035714Y-83859580D02*
X76083333Y-83907200D01*
X76083333Y-83907200D02*
X76178571Y-83954819D01*
X76178571Y-83954819D02*
X76369047Y-83954819D01*
X76369047Y-83954819D02*
X76464285Y-83907200D01*
X76464285Y-83907200D02*
X76511904Y-83859580D01*
X76511904Y-83859580D02*
X76559523Y-83764342D01*
X76559523Y-83764342D02*
X76559523Y-82954819D01*
X77035714Y-83954819D02*
X77035714Y-82954819D01*
X77035714Y-82954819D02*
X77416666Y-82954819D01*
X77416666Y-82954819D02*
X77511904Y-83002438D01*
X77511904Y-83002438D02*
X77559523Y-83050057D01*
X77559523Y-83050057D02*
X77607142Y-83145295D01*
X77607142Y-83145295D02*
X77607142Y-83288152D01*
X77607142Y-83288152D02*
X77559523Y-83383390D01*
X77559523Y-83383390D02*
X77511904Y-83431009D01*
X77511904Y-83431009D02*
X77416666Y-83478628D01*
X77416666Y-83478628D02*
X77035714Y-83478628D01*
X78559523Y-83954819D02*
X77988095Y-83954819D01*
X78273809Y-83954819D02*
X78273809Y-82954819D01*
X78273809Y-82954819D02*
X78178571Y-83097676D01*
X78178571Y-83097676D02*
X78083333Y-83192914D01*
X78083333Y-83192914D02*
X77988095Y-83240533D01*
D11*
X151992857Y-55429847D02*
X151859524Y-55239371D01*
X151764286Y-55429847D02*
X151764286Y-55029847D01*
X151764286Y-55029847D02*
X151916667Y-55029847D01*
X151916667Y-55029847D02*
X151954762Y-55048895D01*
X151954762Y-55048895D02*
X151973809Y-55067942D01*
X151973809Y-55067942D02*
X151992857Y-55106038D01*
X151992857Y-55106038D02*
X151992857Y-55163180D01*
X151992857Y-55163180D02*
X151973809Y-55201276D01*
X151973809Y-55201276D02*
X151954762Y-55220323D01*
X151954762Y-55220323D02*
X151916667Y-55239371D01*
X151916667Y-55239371D02*
X151764286Y-55239371D01*
X152145238Y-55067942D02*
X152164286Y-55048895D01*
X152164286Y-55048895D02*
X152202381Y-55029847D01*
X152202381Y-55029847D02*
X152297619Y-55029847D01*
X152297619Y-55029847D02*
X152335714Y-55048895D01*
X152335714Y-55048895D02*
X152354762Y-55067942D01*
X152354762Y-55067942D02*
X152373809Y-55106038D01*
X152373809Y-55106038D02*
X152373809Y-55144133D01*
X152373809Y-55144133D02*
X152354762Y-55201276D01*
X152354762Y-55201276D02*
X152126190Y-55429847D01*
X152126190Y-55429847D02*
X152373809Y-55429847D01*
X152716666Y-55029847D02*
X152640476Y-55029847D01*
X152640476Y-55029847D02*
X152602380Y-55048895D01*
X152602380Y-55048895D02*
X152583333Y-55067942D01*
X152583333Y-55067942D02*
X152545238Y-55125085D01*
X152545238Y-55125085D02*
X152526190Y-55201276D01*
X152526190Y-55201276D02*
X152526190Y-55353657D01*
X152526190Y-55353657D02*
X152545238Y-55391752D01*
X152545238Y-55391752D02*
X152564285Y-55410800D01*
X152564285Y-55410800D02*
X152602380Y-55429847D01*
X152602380Y-55429847D02*
X152678571Y-55429847D01*
X152678571Y-55429847D02*
X152716666Y-55410800D01*
X152716666Y-55410800D02*
X152735714Y-55391752D01*
X152735714Y-55391752D02*
X152754761Y-55353657D01*
X152754761Y-55353657D02*
X152754761Y-55258419D01*
X152754761Y-55258419D02*
X152735714Y-55220323D01*
X152735714Y-55220323D02*
X152716666Y-55201276D01*
X152716666Y-55201276D02*
X152678571Y-55182228D01*
X152678571Y-55182228D02*
X152602380Y-55182228D01*
X152602380Y-55182228D02*
X152564285Y-55201276D01*
X152564285Y-55201276D02*
X152545238Y-55220323D01*
X152545238Y-55220323D02*
X152526190Y-55258419D01*
X86742857Y-82929847D02*
X86609524Y-82739371D01*
X86514286Y-82929847D02*
X86514286Y-82529847D01*
X86514286Y-82529847D02*
X86666667Y-82529847D01*
X86666667Y-82529847D02*
X86704762Y-82548895D01*
X86704762Y-82548895D02*
X86723809Y-82567942D01*
X86723809Y-82567942D02*
X86742857Y-82606038D01*
X86742857Y-82606038D02*
X86742857Y-82663180D01*
X86742857Y-82663180D02*
X86723809Y-82701276D01*
X86723809Y-82701276D02*
X86704762Y-82720323D01*
X86704762Y-82720323D02*
X86666667Y-82739371D01*
X86666667Y-82739371D02*
X86514286Y-82739371D01*
X87123809Y-82929847D02*
X86895238Y-82929847D01*
X87009524Y-82929847D02*
X87009524Y-82529847D01*
X87009524Y-82529847D02*
X86971428Y-82586990D01*
X86971428Y-82586990D02*
X86933333Y-82625085D01*
X86933333Y-82625085D02*
X86895238Y-82644133D01*
X87371428Y-82529847D02*
X87409523Y-82529847D01*
X87409523Y-82529847D02*
X87447619Y-82548895D01*
X87447619Y-82548895D02*
X87466666Y-82567942D01*
X87466666Y-82567942D02*
X87485714Y-82606038D01*
X87485714Y-82606038D02*
X87504761Y-82682228D01*
X87504761Y-82682228D02*
X87504761Y-82777466D01*
X87504761Y-82777466D02*
X87485714Y-82853657D01*
X87485714Y-82853657D02*
X87466666Y-82891752D01*
X87466666Y-82891752D02*
X87447619Y-82910800D01*
X87447619Y-82910800D02*
X87409523Y-82929847D01*
X87409523Y-82929847D02*
X87371428Y-82929847D01*
X87371428Y-82929847D02*
X87333333Y-82910800D01*
X87333333Y-82910800D02*
X87314285Y-82891752D01*
X87314285Y-82891752D02*
X87295238Y-82853657D01*
X87295238Y-82853657D02*
X87276190Y-82777466D01*
X87276190Y-82777466D02*
X87276190Y-82682228D01*
X87276190Y-82682228D02*
X87295238Y-82606038D01*
X87295238Y-82606038D02*
X87314285Y-82567942D01*
X87314285Y-82567942D02*
X87333333Y-82548895D01*
X87333333Y-82548895D02*
X87371428Y-82529847D01*
X97433333Y-111604252D02*
X97414285Y-111623300D01*
X97414285Y-111623300D02*
X97357143Y-111642347D01*
X97357143Y-111642347D02*
X97319047Y-111642347D01*
X97319047Y-111642347D02*
X97261904Y-111623300D01*
X97261904Y-111623300D02*
X97223809Y-111585204D01*
X97223809Y-111585204D02*
X97204762Y-111547109D01*
X97204762Y-111547109D02*
X97185714Y-111470919D01*
X97185714Y-111470919D02*
X97185714Y-111413776D01*
X97185714Y-111413776D02*
X97204762Y-111337585D01*
X97204762Y-111337585D02*
X97223809Y-111299490D01*
X97223809Y-111299490D02*
X97261904Y-111261395D01*
X97261904Y-111261395D02*
X97319047Y-111242347D01*
X97319047Y-111242347D02*
X97357143Y-111242347D01*
X97357143Y-111242347D02*
X97414285Y-111261395D01*
X97414285Y-111261395D02*
X97433333Y-111280442D01*
X97776190Y-111375680D02*
X97776190Y-111642347D01*
X97680952Y-111223300D02*
X97585714Y-111509014D01*
X97585714Y-111509014D02*
X97833333Y-111509014D01*
X117183333Y-98391752D02*
X117164285Y-98410800D01*
X117164285Y-98410800D02*
X117107143Y-98429847D01*
X117107143Y-98429847D02*
X117069047Y-98429847D01*
X117069047Y-98429847D02*
X117011904Y-98410800D01*
X117011904Y-98410800D02*
X116973809Y-98372704D01*
X116973809Y-98372704D02*
X116954762Y-98334609D01*
X116954762Y-98334609D02*
X116935714Y-98258419D01*
X116935714Y-98258419D02*
X116935714Y-98201276D01*
X116935714Y-98201276D02*
X116954762Y-98125085D01*
X116954762Y-98125085D02*
X116973809Y-98086990D01*
X116973809Y-98086990D02*
X117011904Y-98048895D01*
X117011904Y-98048895D02*
X117069047Y-98029847D01*
X117069047Y-98029847D02*
X117107143Y-98029847D01*
X117107143Y-98029847D02*
X117164285Y-98048895D01*
X117164285Y-98048895D02*
X117183333Y-98067942D01*
X117335714Y-98067942D02*
X117354762Y-98048895D01*
X117354762Y-98048895D02*
X117392857Y-98029847D01*
X117392857Y-98029847D02*
X117488095Y-98029847D01*
X117488095Y-98029847D02*
X117526190Y-98048895D01*
X117526190Y-98048895D02*
X117545238Y-98067942D01*
X117545238Y-98067942D02*
X117564285Y-98106038D01*
X117564285Y-98106038D02*
X117564285Y-98144133D01*
X117564285Y-98144133D02*
X117545238Y-98201276D01*
X117545238Y-98201276D02*
X117316666Y-98429847D01*
X117316666Y-98429847D02*
X117564285Y-98429847D01*
D10*
X89138472Y-106280592D02*
X89138472Y-106930340D01*
X89138472Y-106930340D02*
X89176692Y-107006781D01*
X89176692Y-107006781D02*
X89214913Y-107045002D01*
X89214913Y-107045002D02*
X89291354Y-107083222D01*
X89291354Y-107083222D02*
X89444236Y-107083222D01*
X89444236Y-107083222D02*
X89520677Y-107045002D01*
X89520677Y-107045002D02*
X89558897Y-107006781D01*
X89558897Y-107006781D02*
X89597118Y-106930340D01*
X89597118Y-106930340D02*
X89597118Y-106280592D01*
X90323306Y-106548135D02*
X90323306Y-107083222D01*
X90132204Y-106242372D02*
X89941101Y-106815679D01*
X89941101Y-106815679D02*
X90437968Y-106815679D01*
D11*
X142992857Y-55679847D02*
X142859524Y-55489371D01*
X142764286Y-55679847D02*
X142764286Y-55279847D01*
X142764286Y-55279847D02*
X142916667Y-55279847D01*
X142916667Y-55279847D02*
X142954762Y-55298895D01*
X142954762Y-55298895D02*
X142973809Y-55317942D01*
X142973809Y-55317942D02*
X142992857Y-55356038D01*
X142992857Y-55356038D02*
X142992857Y-55413180D01*
X142992857Y-55413180D02*
X142973809Y-55451276D01*
X142973809Y-55451276D02*
X142954762Y-55470323D01*
X142954762Y-55470323D02*
X142916667Y-55489371D01*
X142916667Y-55489371D02*
X142764286Y-55489371D01*
X143145238Y-55317942D02*
X143164286Y-55298895D01*
X143164286Y-55298895D02*
X143202381Y-55279847D01*
X143202381Y-55279847D02*
X143297619Y-55279847D01*
X143297619Y-55279847D02*
X143335714Y-55298895D01*
X143335714Y-55298895D02*
X143354762Y-55317942D01*
X143354762Y-55317942D02*
X143373809Y-55356038D01*
X143373809Y-55356038D02*
X143373809Y-55394133D01*
X143373809Y-55394133D02*
X143354762Y-55451276D01*
X143354762Y-55451276D02*
X143126190Y-55679847D01*
X143126190Y-55679847D02*
X143373809Y-55679847D01*
X143602380Y-55451276D02*
X143564285Y-55432228D01*
X143564285Y-55432228D02*
X143545238Y-55413180D01*
X143545238Y-55413180D02*
X143526190Y-55375085D01*
X143526190Y-55375085D02*
X143526190Y-55356038D01*
X143526190Y-55356038D02*
X143545238Y-55317942D01*
X143545238Y-55317942D02*
X143564285Y-55298895D01*
X143564285Y-55298895D02*
X143602380Y-55279847D01*
X143602380Y-55279847D02*
X143678571Y-55279847D01*
X143678571Y-55279847D02*
X143716666Y-55298895D01*
X143716666Y-55298895D02*
X143735714Y-55317942D01*
X143735714Y-55317942D02*
X143754761Y-55356038D01*
X143754761Y-55356038D02*
X143754761Y-55375085D01*
X143754761Y-55375085D02*
X143735714Y-55413180D01*
X143735714Y-55413180D02*
X143716666Y-55432228D01*
X143716666Y-55432228D02*
X143678571Y-55451276D01*
X143678571Y-55451276D02*
X143602380Y-55451276D01*
X143602380Y-55451276D02*
X143564285Y-55470323D01*
X143564285Y-55470323D02*
X143545238Y-55489371D01*
X143545238Y-55489371D02*
X143526190Y-55527466D01*
X143526190Y-55527466D02*
X143526190Y-55603657D01*
X143526190Y-55603657D02*
X143545238Y-55641752D01*
X143545238Y-55641752D02*
X143564285Y-55660800D01*
X143564285Y-55660800D02*
X143602380Y-55679847D01*
X143602380Y-55679847D02*
X143678571Y-55679847D01*
X143678571Y-55679847D02*
X143716666Y-55660800D01*
X143716666Y-55660800D02*
X143735714Y-55641752D01*
X143735714Y-55641752D02*
X143754761Y-55603657D01*
X143754761Y-55603657D02*
X143754761Y-55527466D01*
X143754761Y-55527466D02*
X143735714Y-55489371D01*
X143735714Y-55489371D02*
X143716666Y-55470323D01*
X143716666Y-55470323D02*
X143678571Y-55451276D01*
X87933333Y-91429847D02*
X87800000Y-91239371D01*
X87704762Y-91429847D02*
X87704762Y-91029847D01*
X87704762Y-91029847D02*
X87857143Y-91029847D01*
X87857143Y-91029847D02*
X87895238Y-91048895D01*
X87895238Y-91048895D02*
X87914285Y-91067942D01*
X87914285Y-91067942D02*
X87933333Y-91106038D01*
X87933333Y-91106038D02*
X87933333Y-91163180D01*
X87933333Y-91163180D02*
X87914285Y-91201276D01*
X87914285Y-91201276D02*
X87895238Y-91220323D01*
X87895238Y-91220323D02*
X87857143Y-91239371D01*
X87857143Y-91239371D02*
X87704762Y-91239371D01*
X88161904Y-91201276D02*
X88123809Y-91182228D01*
X88123809Y-91182228D02*
X88104762Y-91163180D01*
X88104762Y-91163180D02*
X88085714Y-91125085D01*
X88085714Y-91125085D02*
X88085714Y-91106038D01*
X88085714Y-91106038D02*
X88104762Y-91067942D01*
X88104762Y-91067942D02*
X88123809Y-91048895D01*
X88123809Y-91048895D02*
X88161904Y-91029847D01*
X88161904Y-91029847D02*
X88238095Y-91029847D01*
X88238095Y-91029847D02*
X88276190Y-91048895D01*
X88276190Y-91048895D02*
X88295238Y-91067942D01*
X88295238Y-91067942D02*
X88314285Y-91106038D01*
X88314285Y-91106038D02*
X88314285Y-91125085D01*
X88314285Y-91125085D02*
X88295238Y-91163180D01*
X88295238Y-91163180D02*
X88276190Y-91182228D01*
X88276190Y-91182228D02*
X88238095Y-91201276D01*
X88238095Y-91201276D02*
X88161904Y-91201276D01*
X88161904Y-91201276D02*
X88123809Y-91220323D01*
X88123809Y-91220323D02*
X88104762Y-91239371D01*
X88104762Y-91239371D02*
X88085714Y-91277466D01*
X88085714Y-91277466D02*
X88085714Y-91353657D01*
X88085714Y-91353657D02*
X88104762Y-91391752D01*
X88104762Y-91391752D02*
X88123809Y-91410800D01*
X88123809Y-91410800D02*
X88161904Y-91429847D01*
X88161904Y-91429847D02*
X88238095Y-91429847D01*
X88238095Y-91429847D02*
X88276190Y-91410800D01*
X88276190Y-91410800D02*
X88295238Y-91391752D01*
X88295238Y-91391752D02*
X88314285Y-91353657D01*
X88314285Y-91353657D02*
X88314285Y-91277466D01*
X88314285Y-91277466D02*
X88295238Y-91239371D01*
X88295238Y-91239371D02*
X88276190Y-91220323D01*
X88276190Y-91220323D02*
X88238095Y-91201276D01*
X147183333Y-119429847D02*
X147050000Y-119239371D01*
X146954762Y-119429847D02*
X146954762Y-119029847D01*
X146954762Y-119029847D02*
X147107143Y-119029847D01*
X147107143Y-119029847D02*
X147145238Y-119048895D01*
X147145238Y-119048895D02*
X147164285Y-119067942D01*
X147164285Y-119067942D02*
X147183333Y-119106038D01*
X147183333Y-119106038D02*
X147183333Y-119163180D01*
X147183333Y-119163180D02*
X147164285Y-119201276D01*
X147164285Y-119201276D02*
X147145238Y-119220323D01*
X147145238Y-119220323D02*
X147107143Y-119239371D01*
X147107143Y-119239371D02*
X146954762Y-119239371D01*
X147545238Y-119029847D02*
X147354762Y-119029847D01*
X147354762Y-119029847D02*
X147335714Y-119220323D01*
X147335714Y-119220323D02*
X147354762Y-119201276D01*
X147354762Y-119201276D02*
X147392857Y-119182228D01*
X147392857Y-119182228D02*
X147488095Y-119182228D01*
X147488095Y-119182228D02*
X147526190Y-119201276D01*
X147526190Y-119201276D02*
X147545238Y-119220323D01*
X147545238Y-119220323D02*
X147564285Y-119258419D01*
X147564285Y-119258419D02*
X147564285Y-119353657D01*
X147564285Y-119353657D02*
X147545238Y-119391752D01*
X147545238Y-119391752D02*
X147526190Y-119410800D01*
X147526190Y-119410800D02*
X147488095Y-119429847D01*
X147488095Y-119429847D02*
X147392857Y-119429847D01*
X147392857Y-119429847D02*
X147354762Y-119410800D01*
X147354762Y-119410800D02*
X147335714Y-119391752D01*
X146954762Y-114179847D02*
X146954762Y-113779847D01*
X146954762Y-113779847D02*
X147050000Y-113779847D01*
X147050000Y-113779847D02*
X147107143Y-113798895D01*
X147107143Y-113798895D02*
X147145238Y-113836990D01*
X147145238Y-113836990D02*
X147164285Y-113875085D01*
X147164285Y-113875085D02*
X147183333Y-113951276D01*
X147183333Y-113951276D02*
X147183333Y-114008419D01*
X147183333Y-114008419D02*
X147164285Y-114084609D01*
X147164285Y-114084609D02*
X147145238Y-114122704D01*
X147145238Y-114122704D02*
X147107143Y-114160800D01*
X147107143Y-114160800D02*
X147050000Y-114179847D01*
X147050000Y-114179847D02*
X146954762Y-114179847D01*
X147316666Y-113779847D02*
X147564285Y-113779847D01*
X147564285Y-113779847D02*
X147430952Y-113932228D01*
X147430952Y-113932228D02*
X147488095Y-113932228D01*
X147488095Y-113932228D02*
X147526190Y-113951276D01*
X147526190Y-113951276D02*
X147545238Y-113970323D01*
X147545238Y-113970323D02*
X147564285Y-114008419D01*
X147564285Y-114008419D02*
X147564285Y-114103657D01*
X147564285Y-114103657D02*
X147545238Y-114141752D01*
X147545238Y-114141752D02*
X147526190Y-114160800D01*
X147526190Y-114160800D02*
X147488095Y-114179847D01*
X147488095Y-114179847D02*
X147373809Y-114179847D01*
X147373809Y-114179847D02*
X147335714Y-114160800D01*
X147335714Y-114160800D02*
X147316666Y-114141752D01*
X122917857Y-101929847D02*
X122784524Y-101739371D01*
X122689286Y-101929847D02*
X122689286Y-101529847D01*
X122689286Y-101529847D02*
X122841667Y-101529847D01*
X122841667Y-101529847D02*
X122879762Y-101548895D01*
X122879762Y-101548895D02*
X122898809Y-101567942D01*
X122898809Y-101567942D02*
X122917857Y-101606038D01*
X122917857Y-101606038D02*
X122917857Y-101663180D01*
X122917857Y-101663180D02*
X122898809Y-101701276D01*
X122898809Y-101701276D02*
X122879762Y-101720323D01*
X122879762Y-101720323D02*
X122841667Y-101739371D01*
X122841667Y-101739371D02*
X122689286Y-101739371D01*
X123298809Y-101929847D02*
X123070238Y-101929847D01*
X123184524Y-101929847D02*
X123184524Y-101529847D01*
X123184524Y-101529847D02*
X123146428Y-101586990D01*
X123146428Y-101586990D02*
X123108333Y-101625085D01*
X123108333Y-101625085D02*
X123070238Y-101644133D01*
X123641666Y-101663180D02*
X123641666Y-101929847D01*
X123546428Y-101510800D02*
X123451190Y-101796514D01*
X123451190Y-101796514D02*
X123698809Y-101796514D01*
X144992857Y-78929847D02*
X144859524Y-78739371D01*
X144764286Y-78929847D02*
X144764286Y-78529847D01*
X144764286Y-78529847D02*
X144916667Y-78529847D01*
X144916667Y-78529847D02*
X144954762Y-78548895D01*
X144954762Y-78548895D02*
X144973809Y-78567942D01*
X144973809Y-78567942D02*
X144992857Y-78606038D01*
X144992857Y-78606038D02*
X144992857Y-78663180D01*
X144992857Y-78663180D02*
X144973809Y-78701276D01*
X144973809Y-78701276D02*
X144954762Y-78720323D01*
X144954762Y-78720323D02*
X144916667Y-78739371D01*
X144916667Y-78739371D02*
X144764286Y-78739371D01*
X145373809Y-78929847D02*
X145145238Y-78929847D01*
X145259524Y-78929847D02*
X145259524Y-78529847D01*
X145259524Y-78529847D02*
X145221428Y-78586990D01*
X145221428Y-78586990D02*
X145183333Y-78625085D01*
X145183333Y-78625085D02*
X145145238Y-78644133D01*
X145564285Y-78929847D02*
X145640476Y-78929847D01*
X145640476Y-78929847D02*
X145678571Y-78910800D01*
X145678571Y-78910800D02*
X145697619Y-78891752D01*
X145697619Y-78891752D02*
X145735714Y-78834609D01*
X145735714Y-78834609D02*
X145754761Y-78758419D01*
X145754761Y-78758419D02*
X145754761Y-78606038D01*
X145754761Y-78606038D02*
X145735714Y-78567942D01*
X145735714Y-78567942D02*
X145716666Y-78548895D01*
X145716666Y-78548895D02*
X145678571Y-78529847D01*
X145678571Y-78529847D02*
X145602380Y-78529847D01*
X145602380Y-78529847D02*
X145564285Y-78548895D01*
X145564285Y-78548895D02*
X145545238Y-78567942D01*
X145545238Y-78567942D02*
X145526190Y-78606038D01*
X145526190Y-78606038D02*
X145526190Y-78701276D01*
X145526190Y-78701276D02*
X145545238Y-78739371D01*
X145545238Y-78739371D02*
X145564285Y-78758419D01*
X145564285Y-78758419D02*
X145602380Y-78777466D01*
X145602380Y-78777466D02*
X145678571Y-78777466D01*
X145678571Y-78777466D02*
X145716666Y-78758419D01*
X145716666Y-78758419D02*
X145735714Y-78739371D01*
X145735714Y-78739371D02*
X145754761Y-78701276D01*
D10*
X83190476Y-126204819D02*
X83857142Y-127204819D01*
X83857142Y-126204819D02*
X83190476Y-127204819D01*
X84761904Y-127204819D02*
X84190476Y-127204819D01*
X84476190Y-127204819D02*
X84476190Y-126204819D01*
X84476190Y-126204819D02*
X84380952Y-126347676D01*
X84380952Y-126347676D02*
X84285714Y-126442914D01*
X84285714Y-126442914D02*
X84190476Y-126490533D01*
D11*
X77683333Y-111391752D02*
X77664285Y-111410800D01*
X77664285Y-111410800D02*
X77607143Y-111429847D01*
X77607143Y-111429847D02*
X77569047Y-111429847D01*
X77569047Y-111429847D02*
X77511904Y-111410800D01*
X77511904Y-111410800D02*
X77473809Y-111372704D01*
X77473809Y-111372704D02*
X77454762Y-111334609D01*
X77454762Y-111334609D02*
X77435714Y-111258419D01*
X77435714Y-111258419D02*
X77435714Y-111201276D01*
X77435714Y-111201276D02*
X77454762Y-111125085D01*
X77454762Y-111125085D02*
X77473809Y-111086990D01*
X77473809Y-111086990D02*
X77511904Y-111048895D01*
X77511904Y-111048895D02*
X77569047Y-111029847D01*
X77569047Y-111029847D02*
X77607143Y-111029847D01*
X77607143Y-111029847D02*
X77664285Y-111048895D01*
X77664285Y-111048895D02*
X77683333Y-111067942D01*
X77816666Y-111029847D02*
X78064285Y-111029847D01*
X78064285Y-111029847D02*
X77930952Y-111182228D01*
X77930952Y-111182228D02*
X77988095Y-111182228D01*
X77988095Y-111182228D02*
X78026190Y-111201276D01*
X78026190Y-111201276D02*
X78045238Y-111220323D01*
X78045238Y-111220323D02*
X78064285Y-111258419D01*
X78064285Y-111258419D02*
X78064285Y-111353657D01*
X78064285Y-111353657D02*
X78045238Y-111391752D01*
X78045238Y-111391752D02*
X78026190Y-111410800D01*
X78026190Y-111410800D02*
X77988095Y-111429847D01*
X77988095Y-111429847D02*
X77873809Y-111429847D01*
X77873809Y-111429847D02*
X77835714Y-111410800D01*
X77835714Y-111410800D02*
X77816666Y-111391752D01*
X83492857Y-82571752D02*
X83473809Y-82590800D01*
X83473809Y-82590800D02*
X83416667Y-82609847D01*
X83416667Y-82609847D02*
X83378571Y-82609847D01*
X83378571Y-82609847D02*
X83321428Y-82590800D01*
X83321428Y-82590800D02*
X83283333Y-82552704D01*
X83283333Y-82552704D02*
X83264286Y-82514609D01*
X83264286Y-82514609D02*
X83245238Y-82438419D01*
X83245238Y-82438419D02*
X83245238Y-82381276D01*
X83245238Y-82381276D02*
X83264286Y-82305085D01*
X83264286Y-82305085D02*
X83283333Y-82266990D01*
X83283333Y-82266990D02*
X83321428Y-82228895D01*
X83321428Y-82228895D02*
X83378571Y-82209847D01*
X83378571Y-82209847D02*
X83416667Y-82209847D01*
X83416667Y-82209847D02*
X83473809Y-82228895D01*
X83473809Y-82228895D02*
X83492857Y-82247942D01*
X83873809Y-82609847D02*
X83645238Y-82609847D01*
X83759524Y-82609847D02*
X83759524Y-82209847D01*
X83759524Y-82209847D02*
X83721428Y-82266990D01*
X83721428Y-82266990D02*
X83683333Y-82305085D01*
X83683333Y-82305085D02*
X83645238Y-82324133D01*
X84007142Y-82209847D02*
X84273809Y-82209847D01*
X84273809Y-82209847D02*
X84102380Y-82609847D01*
D10*
X135416667Y-61157200D02*
X135559524Y-61204819D01*
X135559524Y-61204819D02*
X135797619Y-61204819D01*
X135797619Y-61204819D02*
X135892857Y-61157200D01*
X135892857Y-61157200D02*
X135940476Y-61109580D01*
X135940476Y-61109580D02*
X135988095Y-61014342D01*
X135988095Y-61014342D02*
X135988095Y-60919104D01*
X135988095Y-60919104D02*
X135940476Y-60823866D01*
X135940476Y-60823866D02*
X135892857Y-60776247D01*
X135892857Y-60776247D02*
X135797619Y-60728628D01*
X135797619Y-60728628D02*
X135607143Y-60681009D01*
X135607143Y-60681009D02*
X135511905Y-60633390D01*
X135511905Y-60633390D02*
X135464286Y-60585771D01*
X135464286Y-60585771D02*
X135416667Y-60490533D01*
X135416667Y-60490533D02*
X135416667Y-60395295D01*
X135416667Y-60395295D02*
X135464286Y-60300057D01*
X135464286Y-60300057D02*
X135511905Y-60252438D01*
X135511905Y-60252438D02*
X135607143Y-60204819D01*
X135607143Y-60204819D02*
X135845238Y-60204819D01*
X135845238Y-60204819D02*
X135988095Y-60252438D01*
X136321429Y-60204819D02*
X136559524Y-61204819D01*
X136559524Y-61204819D02*
X136750000Y-60490533D01*
X136750000Y-60490533D02*
X136940476Y-61204819D01*
X136940476Y-61204819D02*
X137178572Y-60204819D01*
X138083333Y-61204819D02*
X137511905Y-61204819D01*
X137797619Y-61204819D02*
X137797619Y-60204819D01*
X137797619Y-60204819D02*
X137702381Y-60347676D01*
X137702381Y-60347676D02*
X137607143Y-60442914D01*
X137607143Y-60442914D02*
X137511905Y-60490533D01*
D11*
X119817857Y-110929847D02*
X119684524Y-110739371D01*
X119589286Y-110929847D02*
X119589286Y-110529847D01*
X119589286Y-110529847D02*
X119741667Y-110529847D01*
X119741667Y-110529847D02*
X119779762Y-110548895D01*
X119779762Y-110548895D02*
X119798809Y-110567942D01*
X119798809Y-110567942D02*
X119817857Y-110606038D01*
X119817857Y-110606038D02*
X119817857Y-110663180D01*
X119817857Y-110663180D02*
X119798809Y-110701276D01*
X119798809Y-110701276D02*
X119779762Y-110720323D01*
X119779762Y-110720323D02*
X119741667Y-110739371D01*
X119741667Y-110739371D02*
X119589286Y-110739371D01*
X120198809Y-110929847D02*
X119970238Y-110929847D01*
X120084524Y-110929847D02*
X120084524Y-110529847D01*
X120084524Y-110529847D02*
X120046428Y-110586990D01*
X120046428Y-110586990D02*
X120008333Y-110625085D01*
X120008333Y-110625085D02*
X119970238Y-110644133D01*
X120541666Y-110529847D02*
X120465476Y-110529847D01*
X120465476Y-110529847D02*
X120427380Y-110548895D01*
X120427380Y-110548895D02*
X120408333Y-110567942D01*
X120408333Y-110567942D02*
X120370238Y-110625085D01*
X120370238Y-110625085D02*
X120351190Y-110701276D01*
X120351190Y-110701276D02*
X120351190Y-110853657D01*
X120351190Y-110853657D02*
X120370238Y-110891752D01*
X120370238Y-110891752D02*
X120389285Y-110910800D01*
X120389285Y-110910800D02*
X120427380Y-110929847D01*
X120427380Y-110929847D02*
X120503571Y-110929847D01*
X120503571Y-110929847D02*
X120541666Y-110910800D01*
X120541666Y-110910800D02*
X120560714Y-110891752D01*
X120560714Y-110891752D02*
X120579761Y-110853657D01*
X120579761Y-110853657D02*
X120579761Y-110758419D01*
X120579761Y-110758419D02*
X120560714Y-110720323D01*
X120560714Y-110720323D02*
X120541666Y-110701276D01*
X120541666Y-110701276D02*
X120503571Y-110682228D01*
X120503571Y-110682228D02*
X120427380Y-110682228D01*
X120427380Y-110682228D02*
X120389285Y-110701276D01*
X120389285Y-110701276D02*
X120370238Y-110720323D01*
X120370238Y-110720323D02*
X120351190Y-110758419D01*
X147492857Y-55429847D02*
X147359524Y-55239371D01*
X147264286Y-55429847D02*
X147264286Y-55029847D01*
X147264286Y-55029847D02*
X147416667Y-55029847D01*
X147416667Y-55029847D02*
X147454762Y-55048895D01*
X147454762Y-55048895D02*
X147473809Y-55067942D01*
X147473809Y-55067942D02*
X147492857Y-55106038D01*
X147492857Y-55106038D02*
X147492857Y-55163180D01*
X147492857Y-55163180D02*
X147473809Y-55201276D01*
X147473809Y-55201276D02*
X147454762Y-55220323D01*
X147454762Y-55220323D02*
X147416667Y-55239371D01*
X147416667Y-55239371D02*
X147264286Y-55239371D01*
X147645238Y-55067942D02*
X147664286Y-55048895D01*
X147664286Y-55048895D02*
X147702381Y-55029847D01*
X147702381Y-55029847D02*
X147797619Y-55029847D01*
X147797619Y-55029847D02*
X147835714Y-55048895D01*
X147835714Y-55048895D02*
X147854762Y-55067942D01*
X147854762Y-55067942D02*
X147873809Y-55106038D01*
X147873809Y-55106038D02*
X147873809Y-55144133D01*
X147873809Y-55144133D02*
X147854762Y-55201276D01*
X147854762Y-55201276D02*
X147626190Y-55429847D01*
X147626190Y-55429847D02*
X147873809Y-55429847D01*
X148064285Y-55429847D02*
X148140476Y-55429847D01*
X148140476Y-55429847D02*
X148178571Y-55410800D01*
X148178571Y-55410800D02*
X148197619Y-55391752D01*
X148197619Y-55391752D02*
X148235714Y-55334609D01*
X148235714Y-55334609D02*
X148254761Y-55258419D01*
X148254761Y-55258419D02*
X148254761Y-55106038D01*
X148254761Y-55106038D02*
X148235714Y-55067942D01*
X148235714Y-55067942D02*
X148216666Y-55048895D01*
X148216666Y-55048895D02*
X148178571Y-55029847D01*
X148178571Y-55029847D02*
X148102380Y-55029847D01*
X148102380Y-55029847D02*
X148064285Y-55048895D01*
X148064285Y-55048895D02*
X148045238Y-55067942D01*
X148045238Y-55067942D02*
X148026190Y-55106038D01*
X148026190Y-55106038D02*
X148026190Y-55201276D01*
X148026190Y-55201276D02*
X148045238Y-55239371D01*
X148045238Y-55239371D02*
X148064285Y-55258419D01*
X148064285Y-55258419D02*
X148102380Y-55277466D01*
X148102380Y-55277466D02*
X148178571Y-55277466D01*
X148178571Y-55277466D02*
X148216666Y-55258419D01*
X148216666Y-55258419D02*
X148235714Y-55239371D01*
X148235714Y-55239371D02*
X148254761Y-55201276D01*
X79183333Y-109642347D02*
X79050000Y-109451871D01*
X78954762Y-109642347D02*
X78954762Y-109242347D01*
X78954762Y-109242347D02*
X79107143Y-109242347D01*
X79107143Y-109242347D02*
X79145238Y-109261395D01*
X79145238Y-109261395D02*
X79164285Y-109280442D01*
X79164285Y-109280442D02*
X79183333Y-109318538D01*
X79183333Y-109318538D02*
X79183333Y-109375680D01*
X79183333Y-109375680D02*
X79164285Y-109413776D01*
X79164285Y-109413776D02*
X79145238Y-109432823D01*
X79145238Y-109432823D02*
X79107143Y-109451871D01*
X79107143Y-109451871D02*
X78954762Y-109451871D01*
X79335714Y-109280442D02*
X79354762Y-109261395D01*
X79354762Y-109261395D02*
X79392857Y-109242347D01*
X79392857Y-109242347D02*
X79488095Y-109242347D01*
X79488095Y-109242347D02*
X79526190Y-109261395D01*
X79526190Y-109261395D02*
X79545238Y-109280442D01*
X79545238Y-109280442D02*
X79564285Y-109318538D01*
X79564285Y-109318538D02*
X79564285Y-109356633D01*
X79564285Y-109356633D02*
X79545238Y-109413776D01*
X79545238Y-109413776D02*
X79316666Y-109642347D01*
X79316666Y-109642347D02*
X79564285Y-109642347D01*
X144992857Y-74929847D02*
X144859524Y-74739371D01*
X144764286Y-74929847D02*
X144764286Y-74529847D01*
X144764286Y-74529847D02*
X144916667Y-74529847D01*
X144916667Y-74529847D02*
X144954762Y-74548895D01*
X144954762Y-74548895D02*
X144973809Y-74567942D01*
X144973809Y-74567942D02*
X144992857Y-74606038D01*
X144992857Y-74606038D02*
X144992857Y-74663180D01*
X144992857Y-74663180D02*
X144973809Y-74701276D01*
X144973809Y-74701276D02*
X144954762Y-74720323D01*
X144954762Y-74720323D02*
X144916667Y-74739371D01*
X144916667Y-74739371D02*
X144764286Y-74739371D01*
X145373809Y-74929847D02*
X145145238Y-74929847D01*
X145259524Y-74929847D02*
X145259524Y-74529847D01*
X145259524Y-74529847D02*
X145221428Y-74586990D01*
X145221428Y-74586990D02*
X145183333Y-74625085D01*
X145183333Y-74625085D02*
X145145238Y-74644133D01*
X145602380Y-74701276D02*
X145564285Y-74682228D01*
X145564285Y-74682228D02*
X145545238Y-74663180D01*
X145545238Y-74663180D02*
X145526190Y-74625085D01*
X145526190Y-74625085D02*
X145526190Y-74606038D01*
X145526190Y-74606038D02*
X145545238Y-74567942D01*
X145545238Y-74567942D02*
X145564285Y-74548895D01*
X145564285Y-74548895D02*
X145602380Y-74529847D01*
X145602380Y-74529847D02*
X145678571Y-74529847D01*
X145678571Y-74529847D02*
X145716666Y-74548895D01*
X145716666Y-74548895D02*
X145735714Y-74567942D01*
X145735714Y-74567942D02*
X145754761Y-74606038D01*
X145754761Y-74606038D02*
X145754761Y-74625085D01*
X145754761Y-74625085D02*
X145735714Y-74663180D01*
X145735714Y-74663180D02*
X145716666Y-74682228D01*
X145716666Y-74682228D02*
X145678571Y-74701276D01*
X145678571Y-74701276D02*
X145602380Y-74701276D01*
X145602380Y-74701276D02*
X145564285Y-74720323D01*
X145564285Y-74720323D02*
X145545238Y-74739371D01*
X145545238Y-74739371D02*
X145526190Y-74777466D01*
X145526190Y-74777466D02*
X145526190Y-74853657D01*
X145526190Y-74853657D02*
X145545238Y-74891752D01*
X145545238Y-74891752D02*
X145564285Y-74910800D01*
X145564285Y-74910800D02*
X145602380Y-74929847D01*
X145602380Y-74929847D02*
X145678571Y-74929847D01*
X145678571Y-74929847D02*
X145716666Y-74910800D01*
X145716666Y-74910800D02*
X145735714Y-74891752D01*
X145735714Y-74891752D02*
X145754761Y-74853657D01*
X145754761Y-74853657D02*
X145754761Y-74777466D01*
X145754761Y-74777466D02*
X145735714Y-74739371D01*
X145735714Y-74739371D02*
X145716666Y-74720323D01*
X145716666Y-74720323D02*
X145678571Y-74701276D01*
X145492857Y-87179847D02*
X145359524Y-86989371D01*
X145264286Y-87179847D02*
X145264286Y-86779847D01*
X145264286Y-86779847D02*
X145416667Y-86779847D01*
X145416667Y-86779847D02*
X145454762Y-86798895D01*
X145454762Y-86798895D02*
X145473809Y-86817942D01*
X145473809Y-86817942D02*
X145492857Y-86856038D01*
X145492857Y-86856038D02*
X145492857Y-86913180D01*
X145492857Y-86913180D02*
X145473809Y-86951276D01*
X145473809Y-86951276D02*
X145454762Y-86970323D01*
X145454762Y-86970323D02*
X145416667Y-86989371D01*
X145416667Y-86989371D02*
X145264286Y-86989371D01*
X145645238Y-86817942D02*
X145664286Y-86798895D01*
X145664286Y-86798895D02*
X145702381Y-86779847D01*
X145702381Y-86779847D02*
X145797619Y-86779847D01*
X145797619Y-86779847D02*
X145835714Y-86798895D01*
X145835714Y-86798895D02*
X145854762Y-86817942D01*
X145854762Y-86817942D02*
X145873809Y-86856038D01*
X145873809Y-86856038D02*
X145873809Y-86894133D01*
X145873809Y-86894133D02*
X145854762Y-86951276D01*
X145854762Y-86951276D02*
X145626190Y-87179847D01*
X145626190Y-87179847D02*
X145873809Y-87179847D01*
X146254761Y-87179847D02*
X146026190Y-87179847D01*
X146140476Y-87179847D02*
X146140476Y-86779847D01*
X146140476Y-86779847D02*
X146102380Y-86836990D01*
X146102380Y-86836990D02*
X146064285Y-86875085D01*
X146064285Y-86875085D02*
X146026190Y-86894133D01*
X94492857Y-115429847D02*
X94359524Y-115239371D01*
X94264286Y-115429847D02*
X94264286Y-115029847D01*
X94264286Y-115029847D02*
X94416667Y-115029847D01*
X94416667Y-115029847D02*
X94454762Y-115048895D01*
X94454762Y-115048895D02*
X94473809Y-115067942D01*
X94473809Y-115067942D02*
X94492857Y-115106038D01*
X94492857Y-115106038D02*
X94492857Y-115163180D01*
X94492857Y-115163180D02*
X94473809Y-115201276D01*
X94473809Y-115201276D02*
X94454762Y-115220323D01*
X94454762Y-115220323D02*
X94416667Y-115239371D01*
X94416667Y-115239371D02*
X94264286Y-115239371D01*
X94645238Y-115067942D02*
X94664286Y-115048895D01*
X94664286Y-115048895D02*
X94702381Y-115029847D01*
X94702381Y-115029847D02*
X94797619Y-115029847D01*
X94797619Y-115029847D02*
X94835714Y-115048895D01*
X94835714Y-115048895D02*
X94854762Y-115067942D01*
X94854762Y-115067942D02*
X94873809Y-115106038D01*
X94873809Y-115106038D02*
X94873809Y-115144133D01*
X94873809Y-115144133D02*
X94854762Y-115201276D01*
X94854762Y-115201276D02*
X94626190Y-115429847D01*
X94626190Y-115429847D02*
X94873809Y-115429847D01*
X95216666Y-115163180D02*
X95216666Y-115429847D01*
X95121428Y-115010800D02*
X95026190Y-115296514D01*
X95026190Y-115296514D02*
X95273809Y-115296514D01*
X81004762Y-110679847D02*
X81004762Y-110279847D01*
X81004762Y-110279847D02*
X81157143Y-110279847D01*
X81157143Y-110279847D02*
X81195238Y-110298895D01*
X81195238Y-110298895D02*
X81214285Y-110317942D01*
X81214285Y-110317942D02*
X81233333Y-110356038D01*
X81233333Y-110356038D02*
X81233333Y-110413180D01*
X81233333Y-110413180D02*
X81214285Y-110451276D01*
X81214285Y-110451276D02*
X81195238Y-110470323D01*
X81195238Y-110470323D02*
X81157143Y-110489371D01*
X81157143Y-110489371D02*
X81004762Y-110489371D01*
X81633333Y-110641752D02*
X81614285Y-110660800D01*
X81614285Y-110660800D02*
X81557143Y-110679847D01*
X81557143Y-110679847D02*
X81519047Y-110679847D01*
X81519047Y-110679847D02*
X81461904Y-110660800D01*
X81461904Y-110660800D02*
X81423809Y-110622704D01*
X81423809Y-110622704D02*
X81404762Y-110584609D01*
X81404762Y-110584609D02*
X81385714Y-110508419D01*
X81385714Y-110508419D02*
X81385714Y-110451276D01*
X81385714Y-110451276D02*
X81404762Y-110375085D01*
X81404762Y-110375085D02*
X81423809Y-110336990D01*
X81423809Y-110336990D02*
X81461904Y-110298895D01*
X81461904Y-110298895D02*
X81519047Y-110279847D01*
X81519047Y-110279847D02*
X81557143Y-110279847D01*
X81557143Y-110279847D02*
X81614285Y-110298895D01*
X81614285Y-110298895D02*
X81633333Y-110317942D01*
X82014285Y-110679847D02*
X81785714Y-110679847D01*
X81900000Y-110679847D02*
X81900000Y-110279847D01*
X81900000Y-110279847D02*
X81861904Y-110336990D01*
X81861904Y-110336990D02*
X81823809Y-110375085D01*
X81823809Y-110375085D02*
X81785714Y-110394133D01*
D10*
X147065476Y-40029819D02*
X147732142Y-41029819D01*
X147732142Y-40029819D02*
X147065476Y-41029819D01*
X148065476Y-40125057D02*
X148113095Y-40077438D01*
X148113095Y-40077438D02*
X148208333Y-40029819D01*
X148208333Y-40029819D02*
X148446428Y-40029819D01*
X148446428Y-40029819D02*
X148541666Y-40077438D01*
X148541666Y-40077438D02*
X148589285Y-40125057D01*
X148589285Y-40125057D02*
X148636904Y-40220295D01*
X148636904Y-40220295D02*
X148636904Y-40315533D01*
X148636904Y-40315533D02*
X148589285Y-40458390D01*
X148589285Y-40458390D02*
X148017857Y-41029819D01*
X148017857Y-41029819D02*
X148636904Y-41029819D01*
D11*
X124417857Y-97429847D02*
X124284524Y-97239371D01*
X124189286Y-97429847D02*
X124189286Y-97029847D01*
X124189286Y-97029847D02*
X124341667Y-97029847D01*
X124341667Y-97029847D02*
X124379762Y-97048895D01*
X124379762Y-97048895D02*
X124398809Y-97067942D01*
X124398809Y-97067942D02*
X124417857Y-97106038D01*
X124417857Y-97106038D02*
X124417857Y-97163180D01*
X124417857Y-97163180D02*
X124398809Y-97201276D01*
X124398809Y-97201276D02*
X124379762Y-97220323D01*
X124379762Y-97220323D02*
X124341667Y-97239371D01*
X124341667Y-97239371D02*
X124189286Y-97239371D01*
X124798809Y-97429847D02*
X124570238Y-97429847D01*
X124684524Y-97429847D02*
X124684524Y-97029847D01*
X124684524Y-97029847D02*
X124646428Y-97086990D01*
X124646428Y-97086990D02*
X124608333Y-97125085D01*
X124608333Y-97125085D02*
X124570238Y-97144133D01*
X124932142Y-97029847D02*
X125179761Y-97029847D01*
X125179761Y-97029847D02*
X125046428Y-97182228D01*
X125046428Y-97182228D02*
X125103571Y-97182228D01*
X125103571Y-97182228D02*
X125141666Y-97201276D01*
X125141666Y-97201276D02*
X125160714Y-97220323D01*
X125160714Y-97220323D02*
X125179761Y-97258419D01*
X125179761Y-97258419D02*
X125179761Y-97353657D01*
X125179761Y-97353657D02*
X125160714Y-97391752D01*
X125160714Y-97391752D02*
X125141666Y-97410800D01*
X125141666Y-97410800D02*
X125103571Y-97429847D01*
X125103571Y-97429847D02*
X124989285Y-97429847D01*
X124989285Y-97429847D02*
X124951190Y-97410800D01*
X124951190Y-97410800D02*
X124932142Y-97391752D01*
D12*
%TO.C,J2*%
X103670000Y-124080000D02*
X103670000Y-122750000D01*
X105000000Y-124080000D02*
X103670000Y-124080000D01*
X106270000Y-121420000D02*
X139350000Y-121420000D01*
X106270000Y-124080000D02*
X106270000Y-121420000D01*
X106270000Y-124080000D02*
X139350000Y-124080000D01*
X139350000Y-124080000D02*
X139350000Y-121420000D01*
%TO.C,R11*%
X97765000Y-96522936D02*
X97765000Y-96977064D01*
X99235000Y-96522936D02*
X99235000Y-96977064D01*
%TO.C,R22*%
X145227500Y-93837742D02*
X145227500Y-94312258D01*
X146272500Y-93837742D02*
X146272500Y-94312258D01*
D13*
%TO.C,RST1*%
X75250000Y-76900000D02*
X75250000Y-79900000D01*
X75250000Y-79900000D02*
X76250000Y-79900000D01*
X76250000Y-76063500D02*
X76250000Y-76900000D01*
X76250000Y-76900000D02*
X75250000Y-76900000D01*
X76250000Y-76900000D02*
X76250000Y-79900000D01*
X76250000Y-79900000D02*
X76250000Y-80736500D01*
X78750000Y-74950000D02*
X77213500Y-74950000D01*
X78750000Y-75536500D02*
X78750000Y-74950000D01*
X78750000Y-77063500D02*
X78750000Y-79736500D01*
X78750000Y-81263500D02*
X78750000Y-81850000D01*
X78750000Y-81850000D02*
X77213500Y-81850000D01*
D14*
X79600000Y-76300000D02*
G75*
G02*
X79400000Y-76300000I-100000J0D01*
G01*
X79400000Y-76300000D02*
G75*
G02*
X79600000Y-76300000I100000J0D01*
G01*
D12*
%TO.C,R12*%
X125437742Y-93227500D02*
X125912258Y-93227500D01*
X125437742Y-94272500D02*
X125912258Y-94272500D01*
%TO.C,R17*%
X120762742Y-114477500D02*
X121237258Y-114477500D01*
X120762742Y-115522500D02*
X121237258Y-115522500D01*
%TO.C,C8*%
X83488748Y-71765000D02*
X84011252Y-71765000D01*
X83488748Y-73235000D02*
X84011252Y-73235000D01*
%TO.C,R15*%
X123937742Y-105977500D02*
X124412258Y-105977500D01*
X123937742Y-107022500D02*
X124412258Y-107022500D01*
%TO.C,U2*%
X107565000Y-103840000D02*
X107565000Y-104075000D01*
X107565000Y-116860000D02*
X107565000Y-116625000D01*
X111425000Y-103840000D02*
X107565000Y-103840000D01*
X111425000Y-103840000D02*
X115285000Y-103840000D01*
X111425000Y-116860000D02*
X107565000Y-116860000D01*
X111425000Y-116860000D02*
X115285000Y-116860000D01*
X115285000Y-103840000D02*
X115285000Y-104075000D01*
X115285000Y-116860000D02*
X115285000Y-116625000D01*
X106712500Y-104075000D02*
X106372500Y-103605000D01*
X107052500Y-103605000D01*
X106712500Y-104075000D01*
G36*
X106712500Y-104075000D02*
G01*
X106372500Y-103605000D01*
X107052500Y-103605000D01*
X106712500Y-104075000D01*
G37*
%TO.C,R6*%
X106265000Y-98272936D02*
X106265000Y-98727064D01*
X107735000Y-98272936D02*
X107735000Y-98727064D01*
%TO.C,U3*%
X130765000Y-71450000D02*
X130765000Y-71685000D01*
X130765000Y-84470000D02*
X130765000Y-84235000D01*
X134625000Y-71450000D02*
X130765000Y-71450000D01*
X134625000Y-71450000D02*
X138485000Y-71450000D01*
X134625000Y-84470000D02*
X130765000Y-84470000D01*
X134625000Y-84470000D02*
X138485000Y-84470000D01*
X138485000Y-71450000D02*
X138485000Y-71685000D01*
X138485000Y-84470000D02*
X138485000Y-84235000D01*
X129912500Y-71685000D02*
X129572500Y-71215000D01*
X130252500Y-71215000D01*
X129912500Y-71685000D01*
G36*
X129912500Y-71685000D02*
G01*
X129572500Y-71215000D01*
X130252500Y-71215000D01*
X129912500Y-71685000D01*
G37*
%TO.C,R20*%
X145977500Y-83512742D02*
X145977500Y-83987258D01*
X147022500Y-83512742D02*
X147022500Y-83987258D01*
%TO.C,R23*%
X93265000Y-119272936D02*
X93265000Y-119727064D01*
X94735000Y-119272936D02*
X94735000Y-119727064D01*
%TO.C,J1*%
X131570000Y-93250000D02*
X131570000Y-94250000D01*
X131570000Y-94250000D02*
X132570000Y-93750000D01*
X132570000Y-93750000D02*
X131570000Y-93250000D01*
X132960000Y-88540000D02*
X142080000Y-88540000D01*
X132960000Y-100590000D02*
X134270000Y-100590000D01*
X132960000Y-116740000D02*
X132960000Y-88540000D01*
X134270000Y-89840000D02*
X140770000Y-89840000D01*
X134270000Y-100590000D02*
X134270000Y-89840000D01*
X134270000Y-104690000D02*
X132960000Y-104690000D01*
X134270000Y-104690000D02*
X134270000Y-104690000D01*
X134270000Y-115440000D02*
X134270000Y-104690000D01*
X140770000Y-89840000D02*
X140770000Y-115440000D01*
X140770000Y-115440000D02*
X134270000Y-115440000D01*
X142080000Y-88540000D02*
X142080000Y-116740000D01*
X142080000Y-116740000D02*
X132960000Y-116740000D01*
%TO.C,C15*%
X77740000Y-120859420D02*
X77740000Y-121140580D01*
X78760000Y-120859420D02*
X78760000Y-121140580D01*
%TO.C,C14*%
X110765000Y-99973752D02*
X110765000Y-99451248D01*
X112235000Y-99973752D02*
X112235000Y-99451248D01*
%TO.C,LED1*%
X143900000Y-66400000D02*
X151200000Y-66400000D01*
X143900000Y-71900000D02*
X151200000Y-71900000D01*
X151200000Y-71900000D02*
X151200000Y-70750000D01*
%TO.C,R4*%
X147015000Y-104272936D02*
X147015000Y-104727064D01*
X148485000Y-104272936D02*
X148485000Y-104727064D01*
D13*
%TO.C,DOWN1*%
X75250000Y-96900000D02*
X75250000Y-99900000D01*
X75250000Y-99900000D02*
X76250000Y-99900000D01*
X76250000Y-96063500D02*
X76250000Y-96900000D01*
X76250000Y-96900000D02*
X75250000Y-96900000D01*
X76250000Y-96900000D02*
X76250000Y-99900000D01*
X76250000Y-99900000D02*
X76250000Y-100736500D01*
X78750000Y-94950000D02*
X77213500Y-94950000D01*
X78750000Y-95536500D02*
X78750000Y-94950000D01*
X78750000Y-97063500D02*
X78750000Y-99736500D01*
X78750000Y-101263500D02*
X78750000Y-101850000D01*
X78750000Y-101850000D02*
X77213500Y-101850000D01*
D14*
X79600000Y-96300000D02*
G75*
G02*
X79400000Y-96300000I-100000J0D01*
G01*
X79400000Y-96300000D02*
G75*
G02*
X79600000Y-96300000I100000J0D01*
G01*
D12*
%TO.C,R7*%
X115022936Y-93765000D02*
X115477064Y-93765000D01*
X115022936Y-95235000D02*
X115477064Y-95235000D01*
%TO.C,D1*%
X102015000Y-95700000D02*
X102015000Y-97985000D01*
X102015000Y-97985000D02*
X103485000Y-97985000D01*
X103485000Y-97985000D02*
X103485000Y-95700000D01*
%TO.C,C13*%
X150515000Y-82723752D02*
X150515000Y-82201248D01*
X151985000Y-82723752D02*
X151985000Y-82201248D01*
%TO.C,C6*%
X82515000Y-106951248D02*
X82515000Y-107473752D01*
X83985000Y-106951248D02*
X83985000Y-107473752D01*
%TO.C,C16*%
X150740000Y-76359420D02*
X150740000Y-76640580D01*
X151760000Y-76359420D02*
X151760000Y-76640580D01*
%TO.C,SJ1*%
X125500000Y-114700000D02*
X125500000Y-111900000D01*
X126200000Y-111250000D02*
X126800000Y-111250000D01*
X126800000Y-115350000D02*
X126200000Y-115350000D01*
X127500000Y-111900000D02*
X127500000Y-114700000D01*
X125500000Y-111950000D02*
G75*
G02*
X126200000Y-111250000I699999J1D01*
G01*
X126200000Y-115350000D02*
G75*
G02*
X125500000Y-114650000I0J700000D01*
G01*
X126800000Y-111250000D02*
G75*
G02*
X127500000Y-111950000I1J-699999D01*
G01*
X127500000Y-114650000D02*
G75*
G02*
X126800000Y-115350000I-700000J0D01*
G01*
%TO.C,C1*%
X124240000Y-72859420D02*
X124240000Y-73140580D01*
X125260000Y-72859420D02*
X125260000Y-73140580D01*
%TO.C,C7*%
X83488748Y-75515000D02*
X84011252Y-75515000D01*
X83488748Y-76985000D02*
X84011252Y-76985000D01*
%TO.C,R25*%
X136515000Y-56977064D02*
X136515000Y-56522936D01*
X137985000Y-56977064D02*
X137985000Y-56522936D01*
%TO.C,R1*%
X146022936Y-62015000D02*
X146477064Y-62015000D01*
X146022936Y-63485000D02*
X146477064Y-63485000D01*
%TO.C,U1*%
X92800000Y-64950000D02*
X92800000Y-71150000D01*
X92800000Y-64950000D02*
X111200000Y-64950000D01*
X92800000Y-89800000D02*
X92800000Y-90800000D01*
X92800000Y-90800000D02*
X94300000Y-90800000D01*
X111200000Y-64950000D02*
X111200000Y-71150000D01*
X111200000Y-90800000D02*
X109700000Y-90800000D01*
X111200000Y-90800000D02*
X111200000Y-89800000D01*
X92800000Y-71825000D02*
X92300000Y-71825000D01*
X92800000Y-71325000D01*
X92800000Y-71825000D01*
G36*
X92800000Y-71825000D02*
G01*
X92300000Y-71825000D01*
X92800000Y-71325000D01*
X92800000Y-71825000D01*
G37*
%TO.C,R27*%
X92265000Y-96477064D02*
X92265000Y-96022936D01*
X93735000Y-96477064D02*
X93735000Y-96022936D01*
%TO.C,C5*%
X97740000Y-119596920D02*
X97740000Y-119878080D01*
X98760000Y-119596920D02*
X98760000Y-119878080D01*
%TO.C,D2*%
X147015000Y-109450000D02*
X147015000Y-111735000D01*
X147015000Y-111735000D02*
X148485000Y-111735000D01*
X148485000Y-111735000D02*
X148485000Y-109450000D01*
%TO.C,R3*%
X88227500Y-77012742D02*
X88227500Y-77487258D01*
X89272500Y-77012742D02*
X89272500Y-77487258D01*
D13*
%TO.C,UP1*%
X75365000Y-86900000D02*
X75365000Y-89900000D01*
X75365000Y-89900000D02*
X76365000Y-89900000D01*
X76365000Y-86063500D02*
X76365000Y-86900000D01*
X76365000Y-86900000D02*
X75365000Y-86900000D01*
X76365000Y-86900000D02*
X76365000Y-89900000D01*
X76365000Y-89900000D02*
X76365000Y-90736500D01*
X78865000Y-84950000D02*
X77328500Y-84950000D01*
X78865000Y-85536500D02*
X78865000Y-84950000D01*
X78865000Y-87063500D02*
X78865000Y-89736500D01*
X78865000Y-91263500D02*
X78865000Y-91850000D01*
X78865000Y-91850000D02*
X77328500Y-91850000D01*
D14*
X79715000Y-86300000D02*
G75*
G02*
X79515000Y-86300000I-100000J0D01*
G01*
X79515000Y-86300000D02*
G75*
G02*
X79715000Y-86300000I100000J0D01*
G01*
D12*
%TO.C,R26*%
X150015000Y-56522936D02*
X150015000Y-56977064D01*
X151485000Y-56522936D02*
X151485000Y-56977064D01*
%TO.C,R10*%
X88477064Y-83265000D02*
X88022936Y-83265000D01*
X88477064Y-84735000D02*
X88022936Y-84735000D01*
%TO.C,C4*%
X97765000Y-114011252D02*
X97765000Y-113488748D01*
X99235000Y-114011252D02*
X99235000Y-113488748D01*
%TO.C,C2*%
X115490000Y-99359420D02*
X115490000Y-99640580D01*
X116510000Y-99359420D02*
X116510000Y-99640580D01*
D13*
%TO.C,U4*%
X88900000Y-107700000D02*
X88900000Y-107800000D01*
X88900000Y-110800000D02*
X88900000Y-110700000D01*
X90600000Y-107700000D02*
X88900000Y-107700000D01*
X90600000Y-107700000D02*
X90600000Y-107800000D01*
X90600000Y-110800000D02*
X88900000Y-110800000D01*
X90600000Y-110800000D02*
X90600000Y-110700000D01*
D14*
X87381000Y-108300000D02*
G75*
G02*
X87181000Y-108300000I-100000J0D01*
G01*
X87181000Y-108300000D02*
G75*
G02*
X87381000Y-108300000I100000J0D01*
G01*
D12*
%TO.C,R28*%
X141015000Y-56522936D02*
X141015000Y-56977064D01*
X142485000Y-56522936D02*
X142485000Y-56977064D01*
%TO.C,R8*%
X87765000Y-93022936D02*
X87765000Y-93477064D01*
X89235000Y-93022936D02*
X89235000Y-93477064D01*
%TO.C,R5*%
X147015000Y-121272936D02*
X147015000Y-121727064D01*
X148485000Y-121272936D02*
X148485000Y-121727064D01*
%TO.C,D3*%
X147015000Y-114950000D02*
X147015000Y-117235000D01*
X147015000Y-117235000D02*
X148485000Y-117235000D01*
X148485000Y-117235000D02*
X148485000Y-114950000D01*
%TO.C,R14*%
X123937742Y-102227500D02*
X124412258Y-102227500D01*
X123937742Y-103272500D02*
X124412258Y-103272500D01*
%TO.C,R19*%
X146012742Y-79227500D02*
X146487258Y-79227500D01*
X146012742Y-80272500D02*
X146487258Y-80272500D01*
D13*
%TO.C,X1*%
X82750000Y-118330000D02*
X83605000Y-118330000D01*
X82750000Y-118350000D02*
X82750000Y-118330000D01*
X82750000Y-121390000D02*
X82750000Y-122080000D01*
X82750000Y-124990000D02*
X82750000Y-124420000D01*
X82750000Y-124990000D02*
X91700000Y-124990000D01*
X90845000Y-118330000D02*
X91700000Y-118330000D01*
X91700000Y-118330000D02*
X91700000Y-118350000D01*
X91700000Y-121390000D02*
X91700000Y-122080000D01*
X91700000Y-124990000D02*
X91700000Y-124420000D01*
D14*
X84350000Y-117615000D02*
G75*
G02*
X84150000Y-117615000I-100000J0D01*
G01*
X84150000Y-117615000D02*
G75*
G02*
X84350000Y-117615000I100000J0D01*
G01*
D12*
%TO.C,C3*%
X77765000Y-113723752D02*
X77765000Y-113201248D01*
X79235000Y-113723752D02*
X79235000Y-113201248D01*
%TO.C,C17*%
X83890580Y-80490000D02*
X83609420Y-80490000D01*
X83890580Y-81510000D02*
X83609420Y-81510000D01*
%TO.C,SW1*%
X133250000Y-64250000D02*
X133250000Y-65750000D01*
X134500000Y-68250000D02*
X139000000Y-68250000D01*
X139000000Y-61750000D02*
X134500000Y-61750000D01*
X140250000Y-65750000D02*
X140250000Y-64250000D01*
%TO.C,R16*%
X120837742Y-111227500D02*
X121312258Y-111227500D01*
X120837742Y-112272500D02*
X121312258Y-112272500D01*
%TO.C,R29*%
X145515000Y-56522936D02*
X145515000Y-56977064D01*
X146985000Y-56522936D02*
X146985000Y-56977064D01*
%TO.C,R2*%
X77765000Y-106985436D02*
X77765000Y-107439564D01*
X79235000Y-106985436D02*
X79235000Y-107439564D01*
%TO.C,R18*%
X146012742Y-75227500D02*
X146487258Y-75227500D01*
X146012742Y-76272500D02*
X146487258Y-76272500D01*
%TO.C,R21*%
X145977500Y-88762742D02*
X145977500Y-89237258D01*
X147022500Y-88762742D02*
X147022500Y-89237258D01*
%TO.C,R24*%
X93265000Y-112772936D02*
X93265000Y-113227064D01*
X94735000Y-112772936D02*
X94735000Y-113227064D01*
%TO.C,PC1*%
X82265000Y-113723752D02*
X82265000Y-113201248D01*
X83735000Y-113723752D02*
X83735000Y-113201248D01*
D13*
%TO.C,X2*%
X139150000Y-45000000D02*
X139150000Y-45570000D01*
X139150000Y-48600000D02*
X139150000Y-47910000D01*
X139150000Y-51660000D02*
X139150000Y-51640000D01*
X140005000Y-51660000D02*
X139150000Y-51660000D01*
X148100000Y-45000000D02*
X139150000Y-45000000D01*
X148100000Y-45000000D02*
X148100000Y-45570000D01*
X148100000Y-48600000D02*
X148100000Y-47910000D01*
X148100000Y-51640000D02*
X148100000Y-51660000D01*
X148100000Y-51660000D02*
X147245000Y-51660000D01*
D14*
X146700000Y-52375000D02*
G75*
G02*
X146500000Y-52375000I-100000J0D01*
G01*
X146500000Y-52375000D02*
G75*
G02*
X146700000Y-52375000I100000J0D01*
G01*
D12*
%TO.C,R13*%
X125437742Y-97727500D02*
X125912258Y-97727500D01*
X125437742Y-98772500D02*
X125912258Y-98772500D01*
%TD*%
M02*
