%TF.GenerationSoftware,KiCad,Pcbnew,9.0.6*%
%TF.CreationDate,2025-12-10T13:08:18-05:00*%
%TF.ProjectId,DisplayDriver,44697370-6c61-4794-9472-697665722e6b,1.1*%
%TF.SameCoordinates,Original*%
%TF.FileFunction,Legend,Top*%
%TF.FilePolarity,Positive*%
%FSLAX46Y46*%
G04 Gerber Fmt 4.6, Leading zero omitted, Abs format (unit mm)*
G04 Created by KiCad (PCBNEW 9.0.6) date 2025-12-10 13:08:18*
%MOMM*%
%LPD*%
G01*
G04 APERTURE LIST*
G04 Aperture macros list*
%AMRoundRect*
0 Rectangle with rounded corners*
0 $1 Rounding radius*
0 $2 $3 $4 $5 $6 $7 $8 $9 X,Y pos of 4 corners*
0 Add a 4 corners polygon primitive as box body*
4,1,4,$2,$3,$4,$5,$6,$7,$8,$9,$2,$3,0*
0 Add four circle primitives for the rounded corners*
1,1,$1+$1,$2,$3*
1,1,$1+$1,$4,$5*
1,1,$1+$1,$6,$7*
1,1,$1+$1,$8,$9*
0 Add four rect primitives between the rounded corners*
20,1,$1+$1,$2,$3,$4,$5,0*
20,1,$1+$1,$4,$5,$6,$7,0*
20,1,$1+$1,$6,$7,$8,$9,0*
20,1,$1+$1,$8,$9,$2,$3,0*%
G04 Aperture macros list end*
%ADD10C,0.250000*%
%ADD11C,0.150000*%
%ADD12C,0.120000*%
%ADD13C,0.152400*%
%ADD14C,0.000000*%
%ADD15C,0.127000*%
%ADD16C,0.200000*%
%ADD17R,1.700000X1.700000*%
%ADD18O,1.700000X1.700000*%
%ADD19RoundRect,0.225000X0.225000X0.250000X-0.225000X0.250000X-0.225000X-0.250000X0.225000X-0.250000X0*%
%ADD20RoundRect,0.375000X-0.625000X-0.375000X0.625000X-0.375000X0.625000X0.375000X-0.625000X0.375000X0*%
%ADD21RoundRect,0.500000X-0.500000X-1.400000X0.500000X-1.400000X0.500000X1.400000X-0.500000X1.400000X0*%
%ADD22RoundRect,0.250000X0.475000X-0.337500X0.475000X0.337500X-0.475000X0.337500X-0.475000X-0.337500X0*%
%ADD23R,1.676400X0.355600*%
%ADD24C,1.980000*%
%ADD25RoundRect,0.102000X-3.175000X3.670000X-3.175000X-3.670000X3.175000X-3.670000X3.175000X3.670000X0*%
%ADD26RoundRect,0.250000X-0.600000X-0.600000X0.600000X-0.600000X0.600000X0.600000X-0.600000X0.600000X0*%
%ADD27C,1.700000*%
%ADD28R,1.500000X0.900000*%
%ADD29RoundRect,0.250000X0.350000X0.450000X-0.350000X0.450000X-0.350000X-0.450000X0.350000X-0.450000X0*%
%ADD30RoundRect,0.250000X0.337500X0.475000X-0.337500X0.475000X-0.337500X-0.475000X0.337500X-0.475000X0*%
%ADD31RoundRect,0.250000X-0.450000X0.350000X-0.450000X-0.350000X0.450000X-0.350000X0.450000X0.350000X0*%
%ADD32RoundRect,0.250000X-0.475000X0.337500X-0.475000X-0.337500X0.475000X-0.337500X0.475000X0.337500X0*%
%ADD33RoundRect,0.250000X0.845000X-0.620000X0.845000X0.620000X-0.845000X0.620000X-0.845000X-0.620000X0*%
%ADD34O,2.190000X1.740000*%
%ADD35RoundRect,0.250000X0.450000X-0.350000X0.450000X0.350000X-0.450000X0.350000X-0.450000X-0.350000X0*%
%ADD36R,0.900000X1.500000*%
%ADD37C,0.600000*%
%ADD38R,3.900000X3.900000*%
%ADD39RoundRect,0.218750X-0.256250X0.218750X-0.256250X-0.218750X0.256250X-0.218750X0.256250X0.218750X0*%
%ADD40RoundRect,0.225000X0.250000X-0.225000X0.250000X0.225000X-0.250000X0.225000X-0.250000X-0.225000X0*%
%ADD41RoundRect,0.250000X-0.620000X-0.845000X0.620000X-0.845000X0.620000X0.845000X-0.620000X0.845000X0*%
%ADD42O,1.740000X2.190000*%
%ADD43RoundRect,0.218750X0.218750X0.256250X-0.218750X0.256250X-0.218750X-0.256250X0.218750X-0.256250X0*%
%ADD44C,2.000000*%
%ADD45RoundRect,0.102000X-0.325000X0.325000X-0.325000X-0.325000X0.325000X-0.325000X0.325000X0.325000X0*%
%ADD46C,0.854000*%
%ADD47O,1.904000X1.104000*%
%ADD48O,2.604000X1.104000*%
%ADD49RoundRect,0.225000X-0.250000X0.225000X-0.250000X-0.225000X0.250000X-0.225000X0.250000X0.225000X0*%
G04 APERTURE END LIST*
D10*
G36*
X96631367Y-93315000D02*
G01*
X95938389Y-93315000D01*
X95707397Y-92609382D01*
X94648970Y-92609382D01*
X94417978Y-93315000D01*
X93725000Y-93315000D01*
X94160242Y-92071742D01*
X94800279Y-92071742D01*
X95560484Y-92071742D01*
X95350375Y-91420713D01*
X95297801Y-91231852D01*
X95228558Y-90973565D01*
X95173970Y-90757227D01*
X95125610Y-90977779D01*
X95064794Y-91221411D01*
X95014419Y-91420713D01*
X94800279Y-92071742D01*
X94160242Y-92071742D01*
X94779213Y-90303668D01*
X95568728Y-90303668D01*
X96631367Y-93315000D01*
G37*
G36*
X99192437Y-90316125D02*
G01*
X98171929Y-93315000D01*
X97478951Y-93315000D01*
X96462473Y-90316125D01*
X97105076Y-90316125D01*
X97667812Y-92101235D01*
X97716172Y-92271411D01*
X97781202Y-92531713D01*
X97827547Y-92760690D01*
X97871510Y-92531713D01*
X97936540Y-92271411D01*
X97982885Y-92101235D01*
X98549834Y-90316125D01*
X99192437Y-90316125D01*
G37*
G36*
X100690500Y-93315000D02*
G01*
X99325610Y-93315000D01*
X99325610Y-92953764D01*
X99690875Y-92785786D01*
X99690875Y-90845338D01*
X99325610Y-90677360D01*
X99325610Y-90316125D01*
X100690500Y-90316125D01*
X100690500Y-90677360D01*
X100325235Y-90845338D01*
X100325235Y-92785786D01*
X100690500Y-92953764D01*
X100690500Y-93315000D01*
G37*
G36*
X103730041Y-93315000D02*
G01*
X103037063Y-93315000D01*
X102806071Y-92609382D01*
X101747644Y-92609382D01*
X101516652Y-93315000D01*
X100823674Y-93315000D01*
X101258916Y-92071742D01*
X101898953Y-92071742D01*
X102659159Y-92071742D01*
X102449049Y-91420713D01*
X102396475Y-91231852D01*
X102327233Y-90973565D01*
X102272644Y-90757227D01*
X102224284Y-90977779D01*
X102163468Y-91221411D01*
X102113093Y-91420713D01*
X101898953Y-92071742D01*
X101258916Y-92071742D01*
X101877887Y-90303668D01*
X102667402Y-90303668D01*
X103730041Y-93315000D01*
G37*
G36*
X104968169Y-93315000D02*
G01*
X104325566Y-93315000D01*
X104325566Y-90849551D01*
X103514986Y-90849551D01*
X103514986Y-90316125D01*
X105778750Y-90316125D01*
X105778750Y-90849551D01*
X104968169Y-90849551D01*
X104968169Y-93315000D01*
G37*
G36*
X107682840Y-90283329D02*
G01*
X107895936Y-90321202D01*
X108080851Y-90380996D01*
X108241451Y-90461205D01*
X108389886Y-90566674D01*
X108516431Y-90690436D01*
X108622786Y-90833770D01*
X108709665Y-90998845D01*
X108791439Y-91234420D01*
X108842894Y-91503460D01*
X108860973Y-91811441D01*
X108842669Y-92119319D01*
X108790548Y-92388416D01*
X108707650Y-92624220D01*
X108619893Y-92789412D01*
X108513171Y-92933158D01*
X108386819Y-93057557D01*
X108239253Y-93163874D01*
X108079711Y-93244702D01*
X107894995Y-93305072D01*
X107681022Y-93343395D01*
X107433068Y-93356948D01*
X107187426Y-93343466D01*
X106974367Y-93305253D01*
X106789419Y-93244895D01*
X106628715Y-93163874D01*
X106480270Y-93057422D01*
X106353309Y-92932635D01*
X106246211Y-92788219D01*
X106158304Y-92622021D01*
X106075348Y-92384912D01*
X106023253Y-92115096D01*
X106005230Y-91811441D01*
X106681106Y-91811441D01*
X106694128Y-92050751D01*
X106730293Y-92249271D01*
X106786139Y-92413381D01*
X106859525Y-92548565D01*
X106959320Y-92662631D01*
X107084174Y-92744790D01*
X107239366Y-92796637D01*
X107433068Y-92815279D01*
X107631327Y-92796414D01*
X107788231Y-92744243D01*
X107912681Y-92662080D01*
X108010458Y-92548565D01*
X108082078Y-92413636D01*
X108136683Y-92249618D01*
X108172090Y-92051010D01*
X108184848Y-91811441D01*
X108172117Y-91571966D01*
X108136751Y-91372975D01*
X108082147Y-91208219D01*
X108010458Y-91072301D01*
X107912538Y-90957513D01*
X107788564Y-90874711D01*
X107632974Y-90822299D01*
X107437098Y-90803389D01*
X107241362Y-90822223D01*
X107084943Y-90874548D01*
X106959465Y-90957378D01*
X106859525Y-91072301D01*
X106786069Y-91208473D01*
X106730225Y-91373320D01*
X106694101Y-91572223D01*
X106681106Y-91811441D01*
X106005230Y-91811441D01*
X106004980Y-91807227D01*
X106023230Y-91502214D01*
X106075300Y-91234504D01*
X106158304Y-90998845D01*
X106246184Y-90833719D01*
X106353257Y-90690358D01*
X106480217Y-90566613D01*
X106628715Y-90461205D01*
X106789246Y-90381117D01*
X106974720Y-90321313D01*
X107189133Y-90283372D01*
X107437098Y-90269963D01*
X107682840Y-90283329D01*
G37*
G36*
X110685788Y-90334379D02*
G01*
X110933881Y-90384049D01*
X111127865Y-90459116D01*
X111277871Y-90556048D01*
X111391570Y-90674119D01*
X111473583Y-90815507D01*
X111525014Y-90985046D01*
X111543309Y-91189720D01*
X111524600Y-91388797D01*
X111471968Y-91553083D01*
X111387787Y-91689624D01*
X111276188Y-91808785D01*
X111147965Y-91909318D01*
X111001456Y-91992058D01*
X111854169Y-93315000D01*
X111119059Y-93315000D01*
X110451360Y-92164249D01*
X110094338Y-92164249D01*
X110094338Y-93315000D01*
X109451735Y-93315000D01*
X109451735Y-91668558D01*
X110094338Y-91668558D01*
X110358853Y-91668558D01*
X110526972Y-91655154D01*
X110655705Y-91618885D01*
X110753611Y-91563595D01*
X110827588Y-91483544D01*
X110874783Y-91372339D01*
X110892280Y-91219213D01*
X110876722Y-91090875D01*
X110833651Y-90992483D01*
X110764235Y-90916779D01*
X110672834Y-90864933D01*
X110542015Y-90829550D01*
X110358853Y-90816029D01*
X110094338Y-90816029D01*
X110094338Y-91668558D01*
X109451735Y-91668558D01*
X109451735Y-90316125D01*
X110371493Y-90316125D01*
X110685788Y-90334379D01*
G37*
G36*
X113813668Y-93315000D02*
G01*
X112940073Y-91021742D01*
X113603742Y-91021742D01*
X114032021Y-92374176D01*
X114084595Y-92556992D01*
X114124528Y-92752264D01*
X114141198Y-92752264D01*
X114181132Y-92561205D01*
X114237918Y-92378389D01*
X114674624Y-91021742D01*
X115338293Y-91021742D01*
X114464698Y-93315000D01*
X113813668Y-93315000D01*
G37*
G36*
X117072112Y-93315000D02*
G01*
X116437936Y-93315000D01*
X116437936Y-91580448D01*
X116444164Y-91294867D01*
X116454788Y-90984007D01*
X116364480Y-91074316D01*
X116236435Y-91189720D01*
X115891870Y-91467058D01*
X115585406Y-91084757D01*
X116551325Y-90316125D01*
X117072112Y-90316125D01*
X117072112Y-93315000D01*
G37*
G36*
X117964759Y-93020992D02*
G01*
X117978504Y-92897038D01*
X118015122Y-92809259D01*
X118071737Y-92748051D01*
X118187913Y-92688781D01*
X118330207Y-92668183D01*
X118468694Y-92688629D01*
X118584281Y-92748051D01*
X118641003Y-92809275D01*
X118677678Y-92897056D01*
X118691442Y-93020992D01*
X118677945Y-93139217D01*
X118641487Y-93225392D01*
X118584281Y-93287705D01*
X118468551Y-93348673D01*
X118330207Y-93369588D01*
X118188058Y-93348517D01*
X118071737Y-93287705D01*
X118014638Y-93225408D01*
X117978237Y-93139235D01*
X117964759Y-93020992D01*
G37*
G36*
X120325553Y-90287758D02*
G01*
X120506135Y-90338241D01*
X120660686Y-90419133D01*
X120793473Y-90531034D01*
X120906847Y-90677360D01*
X121011487Y-90882637D01*
X121091809Y-91134570D01*
X121144176Y-91442138D01*
X121163119Y-91815654D01*
X121150447Y-92137446D01*
X121115012Y-92411191D01*
X121060170Y-92643087D01*
X120974026Y-92862145D01*
X120863257Y-93036157D01*
X120728428Y-93172301D01*
X120610243Y-93249916D01*
X120471053Y-93307457D01*
X120306948Y-93343974D01*
X120113119Y-93356948D01*
X119898913Y-93338987D01*
X119717638Y-93288128D01*
X119563244Y-93206782D01*
X119431303Y-93094400D01*
X119319391Y-92947536D01*
X119216267Y-92741312D01*
X119137264Y-92489799D01*
X119085878Y-92184495D01*
X119067332Y-91815654D01*
X119697479Y-91815654D01*
X119709562Y-92160285D01*
X119741021Y-92410455D01*
X119785589Y-92586301D01*
X119842642Y-92704547D01*
X119914785Y-92782478D01*
X120003138Y-92828510D01*
X120113119Y-92844588D01*
X120221219Y-92828765D01*
X120309112Y-92783255D01*
X120381892Y-92705940D01*
X120440648Y-92588499D01*
X120487361Y-92413706D01*
X120520422Y-92163129D01*
X120533155Y-91815654D01*
X120520506Y-91471084D01*
X120487518Y-91220092D01*
X120440648Y-91042808D01*
X120381661Y-90923012D01*
X120308742Y-90844424D01*
X120220917Y-90798319D01*
X120113119Y-90782323D01*
X120003293Y-90798488D01*
X119914971Y-90844817D01*
X119842756Y-90923385D01*
X119785589Y-91042808D01*
X119740975Y-91219938D01*
X119709537Y-91470953D01*
X119697479Y-91815654D01*
X119067332Y-91815654D01*
X119079782Y-91490733D01*
X119114510Y-91215688D01*
X119168082Y-90984007D01*
X119253318Y-90765153D01*
X119364121Y-90591134D01*
X119500008Y-90454794D01*
X119619325Y-90376860D01*
X119758694Y-90319275D01*
X119921786Y-90282860D01*
X120113119Y-90269963D01*
X120325553Y-90287758D01*
G37*
D11*
X113991666Y-92679819D02*
X113991666Y-93394104D01*
X113991666Y-93394104D02*
X113944047Y-93536961D01*
X113944047Y-93536961D02*
X113848809Y-93632200D01*
X113848809Y-93632200D02*
X113705952Y-93679819D01*
X113705952Y-93679819D02*
X113610714Y-93679819D01*
X114420238Y-92775057D02*
X114467857Y-92727438D01*
X114467857Y-92727438D02*
X114563095Y-92679819D01*
X114563095Y-92679819D02*
X114801190Y-92679819D01*
X114801190Y-92679819D02*
X114896428Y-92727438D01*
X114896428Y-92727438D02*
X114944047Y-92775057D01*
X114944047Y-92775057D02*
X114991666Y-92870295D01*
X114991666Y-92870295D02*
X114991666Y-92965533D01*
X114991666Y-92965533D02*
X114944047Y-93108390D01*
X114944047Y-93108390D02*
X114372619Y-93679819D01*
X114372619Y-93679819D02*
X114991666Y-93679819D01*
X96458333Y-51184580D02*
X96410714Y-51232200D01*
X96410714Y-51232200D02*
X96267857Y-51279819D01*
X96267857Y-51279819D02*
X96172619Y-51279819D01*
X96172619Y-51279819D02*
X96029762Y-51232200D01*
X96029762Y-51232200D02*
X95934524Y-51136961D01*
X95934524Y-51136961D02*
X95886905Y-51041723D01*
X95886905Y-51041723D02*
X95839286Y-50851247D01*
X95839286Y-50851247D02*
X95839286Y-50708390D01*
X95839286Y-50708390D02*
X95886905Y-50517914D01*
X95886905Y-50517914D02*
X95934524Y-50422676D01*
X95934524Y-50422676D02*
X96029762Y-50327438D01*
X96029762Y-50327438D02*
X96172619Y-50279819D01*
X96172619Y-50279819D02*
X96267857Y-50279819D01*
X96267857Y-50279819D02*
X96410714Y-50327438D01*
X96410714Y-50327438D02*
X96458333Y-50375057D01*
X97363095Y-50279819D02*
X96886905Y-50279819D01*
X96886905Y-50279819D02*
X96839286Y-50756009D01*
X96839286Y-50756009D02*
X96886905Y-50708390D01*
X96886905Y-50708390D02*
X96982143Y-50660771D01*
X96982143Y-50660771D02*
X97220238Y-50660771D01*
X97220238Y-50660771D02*
X97315476Y-50708390D01*
X97315476Y-50708390D02*
X97363095Y-50756009D01*
X97363095Y-50756009D02*
X97410714Y-50851247D01*
X97410714Y-50851247D02*
X97410714Y-51089342D01*
X97410714Y-51089342D02*
X97363095Y-51184580D01*
X97363095Y-51184580D02*
X97315476Y-51232200D01*
X97315476Y-51232200D02*
X97220238Y-51279819D01*
X97220238Y-51279819D02*
X96982143Y-51279819D01*
X96982143Y-51279819D02*
X96886905Y-51232200D01*
X96886905Y-51232200D02*
X96839286Y-51184580D01*
X68263095Y-79479819D02*
X68263095Y-80289342D01*
X68263095Y-80289342D02*
X68310714Y-80384580D01*
X68310714Y-80384580D02*
X68358333Y-80432200D01*
X68358333Y-80432200D02*
X68453571Y-80479819D01*
X68453571Y-80479819D02*
X68644047Y-80479819D01*
X68644047Y-80479819D02*
X68739285Y-80432200D01*
X68739285Y-80432200D02*
X68786904Y-80384580D01*
X68786904Y-80384580D02*
X68834523Y-80289342D01*
X68834523Y-80289342D02*
X68834523Y-79479819D01*
X69739285Y-79813152D02*
X69739285Y-80479819D01*
X69501190Y-79432200D02*
X69263095Y-80146485D01*
X69263095Y-80146485D02*
X69882142Y-80146485D01*
X86958333Y-83384580D02*
X86910714Y-83432200D01*
X86910714Y-83432200D02*
X86767857Y-83479819D01*
X86767857Y-83479819D02*
X86672619Y-83479819D01*
X86672619Y-83479819D02*
X86529762Y-83432200D01*
X86529762Y-83432200D02*
X86434524Y-83336961D01*
X86434524Y-83336961D02*
X86386905Y-83241723D01*
X86386905Y-83241723D02*
X86339286Y-83051247D01*
X86339286Y-83051247D02*
X86339286Y-82908390D01*
X86339286Y-82908390D02*
X86386905Y-82717914D01*
X86386905Y-82717914D02*
X86434524Y-82622676D01*
X86434524Y-82622676D02*
X86529762Y-82527438D01*
X86529762Y-82527438D02*
X86672619Y-82479819D01*
X86672619Y-82479819D02*
X86767857Y-82479819D01*
X86767857Y-82479819D02*
X86910714Y-82527438D01*
X86910714Y-82527438D02*
X86958333Y-82575057D01*
X87529762Y-82908390D02*
X87434524Y-82860771D01*
X87434524Y-82860771D02*
X87386905Y-82813152D01*
X87386905Y-82813152D02*
X87339286Y-82717914D01*
X87339286Y-82717914D02*
X87339286Y-82670295D01*
X87339286Y-82670295D02*
X87386905Y-82575057D01*
X87386905Y-82575057D02*
X87434524Y-82527438D01*
X87434524Y-82527438D02*
X87529762Y-82479819D01*
X87529762Y-82479819D02*
X87720238Y-82479819D01*
X87720238Y-82479819D02*
X87815476Y-82527438D01*
X87815476Y-82527438D02*
X87863095Y-82575057D01*
X87863095Y-82575057D02*
X87910714Y-82670295D01*
X87910714Y-82670295D02*
X87910714Y-82717914D01*
X87910714Y-82717914D02*
X87863095Y-82813152D01*
X87863095Y-82813152D02*
X87815476Y-82860771D01*
X87815476Y-82860771D02*
X87720238Y-82908390D01*
X87720238Y-82908390D02*
X87529762Y-82908390D01*
X87529762Y-82908390D02*
X87434524Y-82956009D01*
X87434524Y-82956009D02*
X87386905Y-83003628D01*
X87386905Y-83003628D02*
X87339286Y-83098866D01*
X87339286Y-83098866D02*
X87339286Y-83289342D01*
X87339286Y-83289342D02*
X87386905Y-83384580D01*
X87386905Y-83384580D02*
X87434524Y-83432200D01*
X87434524Y-83432200D02*
X87529762Y-83479819D01*
X87529762Y-83479819D02*
X87720238Y-83479819D01*
X87720238Y-83479819D02*
X87815476Y-83432200D01*
X87815476Y-83432200D02*
X87863095Y-83384580D01*
X87863095Y-83384580D02*
X87910714Y-83289342D01*
X87910714Y-83289342D02*
X87910714Y-83098866D01*
X87910714Y-83098866D02*
X87863095Y-83003628D01*
X87863095Y-83003628D02*
X87815476Y-82956009D01*
X87815476Y-82956009D02*
X87720238Y-82908390D01*
X98863095Y-65779819D02*
X98863095Y-66589342D01*
X98863095Y-66589342D02*
X98910714Y-66684580D01*
X98910714Y-66684580D02*
X98958333Y-66732200D01*
X98958333Y-66732200D02*
X99053571Y-66779819D01*
X99053571Y-66779819D02*
X99244047Y-66779819D01*
X99244047Y-66779819D02*
X99339285Y-66732200D01*
X99339285Y-66732200D02*
X99386904Y-66684580D01*
X99386904Y-66684580D02*
X99434523Y-66589342D01*
X99434523Y-66589342D02*
X99434523Y-65779819D01*
X99863095Y-65875057D02*
X99910714Y-65827438D01*
X99910714Y-65827438D02*
X100005952Y-65779819D01*
X100005952Y-65779819D02*
X100244047Y-65779819D01*
X100244047Y-65779819D02*
X100339285Y-65827438D01*
X100339285Y-65827438D02*
X100386904Y-65875057D01*
X100386904Y-65875057D02*
X100434523Y-65970295D01*
X100434523Y-65970295D02*
X100434523Y-66065533D01*
X100434523Y-66065533D02*
X100386904Y-66208390D01*
X100386904Y-66208390D02*
X99815476Y-66779819D01*
X99815476Y-66779819D02*
X100434523Y-66779819D01*
X93551600Y-65656218D02*
X93551600Y-65894313D01*
X93313505Y-65799075D02*
X93551600Y-65894313D01*
X93551600Y-65894313D02*
X93789695Y-65799075D01*
X93408743Y-66084789D02*
X93551600Y-65894313D01*
X93551600Y-65894313D02*
X93694457Y-66084789D01*
X94225000Y-65656218D02*
X94225000Y-65894313D01*
X93986905Y-65799075D02*
X94225000Y-65894313D01*
X94225000Y-65894313D02*
X94463095Y-65799075D01*
X94082143Y-66084789D02*
X94225000Y-65894313D01*
X94225000Y-65894313D02*
X94367857Y-66084789D01*
X98963095Y-53079819D02*
X98963095Y-53889342D01*
X98963095Y-53889342D02*
X99010714Y-53984580D01*
X99010714Y-53984580D02*
X99058333Y-54032200D01*
X99058333Y-54032200D02*
X99153571Y-54079819D01*
X99153571Y-54079819D02*
X99344047Y-54079819D01*
X99344047Y-54079819D02*
X99439285Y-54032200D01*
X99439285Y-54032200D02*
X99486904Y-53984580D01*
X99486904Y-53984580D02*
X99534523Y-53889342D01*
X99534523Y-53889342D02*
X99534523Y-53079819D01*
X99915476Y-53079819D02*
X100534523Y-53079819D01*
X100534523Y-53079819D02*
X100201190Y-53460771D01*
X100201190Y-53460771D02*
X100344047Y-53460771D01*
X100344047Y-53460771D02*
X100439285Y-53508390D01*
X100439285Y-53508390D02*
X100486904Y-53556009D01*
X100486904Y-53556009D02*
X100534523Y-53651247D01*
X100534523Y-53651247D02*
X100534523Y-53889342D01*
X100534523Y-53889342D02*
X100486904Y-53984580D01*
X100486904Y-53984580D02*
X100439285Y-54032200D01*
X100439285Y-54032200D02*
X100344047Y-54079819D01*
X100344047Y-54079819D02*
X100058333Y-54079819D01*
X100058333Y-54079819D02*
X99963095Y-54032200D01*
X99963095Y-54032200D02*
X99915476Y-53984580D01*
X94225000Y-52879819D02*
X94225000Y-53117914D01*
X93986905Y-53022676D02*
X94225000Y-53117914D01*
X94225000Y-53117914D02*
X94463095Y-53022676D01*
X94082143Y-53308390D02*
X94225000Y-53117914D01*
X94225000Y-53117914D02*
X94367857Y-53308390D01*
X93532200Y-52884619D02*
X93532200Y-53122714D01*
X93294105Y-53027476D02*
X93532200Y-53122714D01*
X93532200Y-53122714D02*
X93770295Y-53027476D01*
X93389343Y-53313190D02*
X93532200Y-53122714D01*
X93532200Y-53122714D02*
X93675057Y-53313190D01*
X146039285Y-31556009D02*
X146182142Y-31603628D01*
X146182142Y-31603628D02*
X146229761Y-31651247D01*
X146229761Y-31651247D02*
X146277380Y-31746485D01*
X146277380Y-31746485D02*
X146277380Y-31889342D01*
X146277380Y-31889342D02*
X146229761Y-31984580D01*
X146229761Y-31984580D02*
X146182142Y-32032200D01*
X146182142Y-32032200D02*
X146086904Y-32079819D01*
X146086904Y-32079819D02*
X145705952Y-32079819D01*
X145705952Y-32079819D02*
X145705952Y-31079819D01*
X145705952Y-31079819D02*
X146039285Y-31079819D01*
X146039285Y-31079819D02*
X146134523Y-31127438D01*
X146134523Y-31127438D02*
X146182142Y-31175057D01*
X146182142Y-31175057D02*
X146229761Y-31270295D01*
X146229761Y-31270295D02*
X146229761Y-31365533D01*
X146229761Y-31365533D02*
X146182142Y-31460771D01*
X146182142Y-31460771D02*
X146134523Y-31508390D01*
X146134523Y-31508390D02*
X146039285Y-31556009D01*
X146039285Y-31556009D02*
X145705952Y-31556009D01*
X146563095Y-31079819D02*
X147134523Y-31079819D01*
X146848809Y-32079819D02*
X146848809Y-31079819D01*
X147991666Y-32079819D02*
X147420238Y-32079819D01*
X147705952Y-32079819D02*
X147705952Y-31079819D01*
X147705952Y-31079819D02*
X147610714Y-31222676D01*
X147610714Y-31222676D02*
X147515476Y-31317914D01*
X147515476Y-31317914D02*
X147420238Y-31365533D01*
X111791666Y-59579819D02*
X111791666Y-60294104D01*
X111791666Y-60294104D02*
X111744047Y-60436961D01*
X111744047Y-60436961D02*
X111648809Y-60532200D01*
X111648809Y-60532200D02*
X111505952Y-60579819D01*
X111505952Y-60579819D02*
X111410714Y-60579819D01*
X112791666Y-60579819D02*
X112220238Y-60579819D01*
X112505952Y-60579819D02*
X112505952Y-59579819D01*
X112505952Y-59579819D02*
X112410714Y-59722676D01*
X112410714Y-59722676D02*
X112315476Y-59817914D01*
X112315476Y-59817914D02*
X112220238Y-59865533D01*
X97705952Y-78879819D02*
X97229762Y-78879819D01*
X97229762Y-78879819D02*
X97229762Y-77879819D01*
X98039286Y-78356009D02*
X98372619Y-78356009D01*
X98515476Y-78879819D02*
X98039286Y-78879819D01*
X98039286Y-78879819D02*
X98039286Y-77879819D01*
X98039286Y-77879819D02*
X98515476Y-77879819D01*
X98944048Y-78879819D02*
X98944048Y-77879819D01*
X98944048Y-77879819D02*
X99182143Y-77879819D01*
X99182143Y-77879819D02*
X99325000Y-77927438D01*
X99325000Y-77927438D02*
X99420238Y-78022676D01*
X99420238Y-78022676D02*
X99467857Y-78117914D01*
X99467857Y-78117914D02*
X99515476Y-78308390D01*
X99515476Y-78308390D02*
X99515476Y-78451247D01*
X99515476Y-78451247D02*
X99467857Y-78641723D01*
X99467857Y-78641723D02*
X99420238Y-78736961D01*
X99420238Y-78736961D02*
X99325000Y-78832200D01*
X99325000Y-78832200D02*
X99182143Y-78879819D01*
X99182143Y-78879819D02*
X98944048Y-78879819D01*
X100467857Y-78879819D02*
X99896429Y-78879819D01*
X100182143Y-78879819D02*
X100182143Y-77879819D01*
X100182143Y-77879819D02*
X100086905Y-78022676D01*
X100086905Y-78022676D02*
X99991667Y-78117914D01*
X99991667Y-78117914D02*
X99896429Y-78165533D01*
X96010714Y-80779819D02*
X95439286Y-80779819D01*
X95725000Y-80779819D02*
X95725000Y-79779819D01*
X95725000Y-79779819D02*
X95629762Y-79922676D01*
X95629762Y-79922676D02*
X95534524Y-80017914D01*
X95534524Y-80017914D02*
X95439286Y-80065533D01*
X112058333Y-41629819D02*
X111725000Y-41153628D01*
X111486905Y-41629819D02*
X111486905Y-40629819D01*
X111486905Y-40629819D02*
X111867857Y-40629819D01*
X111867857Y-40629819D02*
X111963095Y-40677438D01*
X111963095Y-40677438D02*
X112010714Y-40725057D01*
X112010714Y-40725057D02*
X112058333Y-40820295D01*
X112058333Y-40820295D02*
X112058333Y-40963152D01*
X112058333Y-40963152D02*
X112010714Y-41058390D01*
X112010714Y-41058390D02*
X111963095Y-41106009D01*
X111963095Y-41106009D02*
X111867857Y-41153628D01*
X111867857Y-41153628D02*
X111486905Y-41153628D01*
X112915476Y-40963152D02*
X112915476Y-41629819D01*
X112677381Y-40582200D02*
X112439286Y-41296485D01*
X112439286Y-41296485D02*
X113058333Y-41296485D01*
X67582142Y-72984580D02*
X67534523Y-73032200D01*
X67534523Y-73032200D02*
X67391666Y-73079819D01*
X67391666Y-73079819D02*
X67296428Y-73079819D01*
X67296428Y-73079819D02*
X67153571Y-73032200D01*
X67153571Y-73032200D02*
X67058333Y-72936961D01*
X67058333Y-72936961D02*
X67010714Y-72841723D01*
X67010714Y-72841723D02*
X66963095Y-72651247D01*
X66963095Y-72651247D02*
X66963095Y-72508390D01*
X66963095Y-72508390D02*
X67010714Y-72317914D01*
X67010714Y-72317914D02*
X67058333Y-72222676D01*
X67058333Y-72222676D02*
X67153571Y-72127438D01*
X67153571Y-72127438D02*
X67296428Y-72079819D01*
X67296428Y-72079819D02*
X67391666Y-72079819D01*
X67391666Y-72079819D02*
X67534523Y-72127438D01*
X67534523Y-72127438D02*
X67582142Y-72175057D01*
X68534523Y-73079819D02*
X67963095Y-73079819D01*
X68248809Y-73079819D02*
X68248809Y-72079819D01*
X68248809Y-72079819D02*
X68153571Y-72222676D01*
X68153571Y-72222676D02*
X68058333Y-72317914D01*
X68058333Y-72317914D02*
X67963095Y-72365533D01*
X68867857Y-72079819D02*
X69486904Y-72079819D01*
X69486904Y-72079819D02*
X69153571Y-72460771D01*
X69153571Y-72460771D02*
X69296428Y-72460771D01*
X69296428Y-72460771D02*
X69391666Y-72508390D01*
X69391666Y-72508390D02*
X69439285Y-72556009D01*
X69439285Y-72556009D02*
X69486904Y-72651247D01*
X69486904Y-72651247D02*
X69486904Y-72889342D01*
X69486904Y-72889342D02*
X69439285Y-72984580D01*
X69439285Y-72984580D02*
X69391666Y-73032200D01*
X69391666Y-73032200D02*
X69296428Y-73079819D01*
X69296428Y-73079819D02*
X69010714Y-73079819D01*
X69010714Y-73079819D02*
X68915476Y-73032200D01*
X68915476Y-73032200D02*
X68867857Y-72984580D01*
X63182142Y-93264580D02*
X63134523Y-93312200D01*
X63134523Y-93312200D02*
X62991666Y-93359819D01*
X62991666Y-93359819D02*
X62896428Y-93359819D01*
X62896428Y-93359819D02*
X62753571Y-93312200D01*
X62753571Y-93312200D02*
X62658333Y-93216961D01*
X62658333Y-93216961D02*
X62610714Y-93121723D01*
X62610714Y-93121723D02*
X62563095Y-92931247D01*
X62563095Y-92931247D02*
X62563095Y-92788390D01*
X62563095Y-92788390D02*
X62610714Y-92597914D01*
X62610714Y-92597914D02*
X62658333Y-92502676D01*
X62658333Y-92502676D02*
X62753571Y-92407438D01*
X62753571Y-92407438D02*
X62896428Y-92359819D01*
X62896428Y-92359819D02*
X62991666Y-92359819D01*
X62991666Y-92359819D02*
X63134523Y-92407438D01*
X63134523Y-92407438D02*
X63182142Y-92455057D01*
X64134523Y-93359819D02*
X63563095Y-93359819D01*
X63848809Y-93359819D02*
X63848809Y-92359819D01*
X63848809Y-92359819D02*
X63753571Y-92502676D01*
X63753571Y-92502676D02*
X63658333Y-92597914D01*
X63658333Y-92597914D02*
X63563095Y-92645533D01*
X64515476Y-92455057D02*
X64563095Y-92407438D01*
X64563095Y-92407438D02*
X64658333Y-92359819D01*
X64658333Y-92359819D02*
X64896428Y-92359819D01*
X64896428Y-92359819D02*
X64991666Y-92407438D01*
X64991666Y-92407438D02*
X65039285Y-92455057D01*
X65039285Y-92455057D02*
X65086904Y-92550295D01*
X65086904Y-92550295D02*
X65086904Y-92645533D01*
X65086904Y-92645533D02*
X65039285Y-92788390D01*
X65039285Y-92788390D02*
X64467857Y-93359819D01*
X64467857Y-93359819D02*
X65086904Y-93359819D01*
X89558333Y-78579819D02*
X89225000Y-78103628D01*
X88986905Y-78579819D02*
X88986905Y-77579819D01*
X88986905Y-77579819D02*
X89367857Y-77579819D01*
X89367857Y-77579819D02*
X89463095Y-77627438D01*
X89463095Y-77627438D02*
X89510714Y-77675057D01*
X89510714Y-77675057D02*
X89558333Y-77770295D01*
X89558333Y-77770295D02*
X89558333Y-77913152D01*
X89558333Y-77913152D02*
X89510714Y-78008390D01*
X89510714Y-78008390D02*
X89463095Y-78056009D01*
X89463095Y-78056009D02*
X89367857Y-78103628D01*
X89367857Y-78103628D02*
X88986905Y-78103628D01*
X90415476Y-77579819D02*
X90225000Y-77579819D01*
X90225000Y-77579819D02*
X90129762Y-77627438D01*
X90129762Y-77627438D02*
X90082143Y-77675057D01*
X90082143Y-77675057D02*
X89986905Y-77817914D01*
X89986905Y-77817914D02*
X89939286Y-78008390D01*
X89939286Y-78008390D02*
X89939286Y-78389342D01*
X89939286Y-78389342D02*
X89986905Y-78484580D01*
X89986905Y-78484580D02*
X90034524Y-78532200D01*
X90034524Y-78532200D02*
X90129762Y-78579819D01*
X90129762Y-78579819D02*
X90320238Y-78579819D01*
X90320238Y-78579819D02*
X90415476Y-78532200D01*
X90415476Y-78532200D02*
X90463095Y-78484580D01*
X90463095Y-78484580D02*
X90510714Y-78389342D01*
X90510714Y-78389342D02*
X90510714Y-78151247D01*
X90510714Y-78151247D02*
X90463095Y-78056009D01*
X90463095Y-78056009D02*
X90415476Y-78008390D01*
X90415476Y-78008390D02*
X90320238Y-77960771D01*
X90320238Y-77960771D02*
X90129762Y-77960771D01*
X90129762Y-77960771D02*
X90034524Y-78008390D01*
X90034524Y-78008390D02*
X89986905Y-78056009D01*
X89986905Y-78056009D02*
X89939286Y-78151247D01*
X55858333Y-47084580D02*
X55810714Y-47132200D01*
X55810714Y-47132200D02*
X55667857Y-47179819D01*
X55667857Y-47179819D02*
X55572619Y-47179819D01*
X55572619Y-47179819D02*
X55429762Y-47132200D01*
X55429762Y-47132200D02*
X55334524Y-47036961D01*
X55334524Y-47036961D02*
X55286905Y-46941723D01*
X55286905Y-46941723D02*
X55239286Y-46751247D01*
X55239286Y-46751247D02*
X55239286Y-46608390D01*
X55239286Y-46608390D02*
X55286905Y-46417914D01*
X55286905Y-46417914D02*
X55334524Y-46322676D01*
X55334524Y-46322676D02*
X55429762Y-46227438D01*
X55429762Y-46227438D02*
X55572619Y-46179819D01*
X55572619Y-46179819D02*
X55667857Y-46179819D01*
X55667857Y-46179819D02*
X55810714Y-46227438D01*
X55810714Y-46227438D02*
X55858333Y-46275057D01*
X56810714Y-47179819D02*
X56239286Y-47179819D01*
X56525000Y-47179819D02*
X56525000Y-46179819D01*
X56525000Y-46179819D02*
X56429762Y-46322676D01*
X56429762Y-46322676D02*
X56334524Y-46417914D01*
X56334524Y-46417914D02*
X56239286Y-46465533D01*
X67658333Y-67284580D02*
X67610714Y-67332200D01*
X67610714Y-67332200D02*
X67467857Y-67379819D01*
X67467857Y-67379819D02*
X67372619Y-67379819D01*
X67372619Y-67379819D02*
X67229762Y-67332200D01*
X67229762Y-67332200D02*
X67134524Y-67236961D01*
X67134524Y-67236961D02*
X67086905Y-67141723D01*
X67086905Y-67141723D02*
X67039286Y-66951247D01*
X67039286Y-66951247D02*
X67039286Y-66808390D01*
X67039286Y-66808390D02*
X67086905Y-66617914D01*
X67086905Y-66617914D02*
X67134524Y-66522676D01*
X67134524Y-66522676D02*
X67229762Y-66427438D01*
X67229762Y-66427438D02*
X67372619Y-66379819D01*
X67372619Y-66379819D02*
X67467857Y-66379819D01*
X67467857Y-66379819D02*
X67610714Y-66427438D01*
X67610714Y-66427438D02*
X67658333Y-66475057D01*
X67991667Y-66379819D02*
X68658333Y-66379819D01*
X68658333Y-66379819D02*
X68229762Y-67379819D01*
X51046905Y-63449819D02*
X51046905Y-62449819D01*
X51046905Y-62449819D02*
X51380238Y-63164104D01*
X51380238Y-63164104D02*
X51713571Y-62449819D01*
X51713571Y-62449819D02*
X51713571Y-63449819D01*
X52380238Y-62449819D02*
X52570714Y-62449819D01*
X52570714Y-62449819D02*
X52665952Y-62497438D01*
X52665952Y-62497438D02*
X52761190Y-62592676D01*
X52761190Y-62592676D02*
X52808809Y-62783152D01*
X52808809Y-62783152D02*
X52808809Y-63116485D01*
X52808809Y-63116485D02*
X52761190Y-63306961D01*
X52761190Y-63306961D02*
X52665952Y-63402200D01*
X52665952Y-63402200D02*
X52570714Y-63449819D01*
X52570714Y-63449819D02*
X52380238Y-63449819D01*
X52380238Y-63449819D02*
X52285000Y-63402200D01*
X52285000Y-63402200D02*
X52189762Y-63306961D01*
X52189762Y-63306961D02*
X52142143Y-63116485D01*
X52142143Y-63116485D02*
X52142143Y-62783152D01*
X52142143Y-62783152D02*
X52189762Y-62592676D01*
X52189762Y-62592676D02*
X52285000Y-62497438D01*
X52285000Y-62497438D02*
X52380238Y-62449819D01*
X53713571Y-63449819D02*
X53237381Y-63449819D01*
X53237381Y-63449819D02*
X53237381Y-62449819D01*
X53999286Y-62545057D02*
X54046905Y-62497438D01*
X54046905Y-62497438D02*
X54142143Y-62449819D01*
X54142143Y-62449819D02*
X54380238Y-62449819D01*
X54380238Y-62449819D02*
X54475476Y-62497438D01*
X54475476Y-62497438D02*
X54523095Y-62545057D01*
X54523095Y-62545057D02*
X54570714Y-62640295D01*
X54570714Y-62640295D02*
X54570714Y-62735533D01*
X54570714Y-62735533D02*
X54523095Y-62878390D01*
X54523095Y-62878390D02*
X53951667Y-63449819D01*
X53951667Y-63449819D02*
X54570714Y-63449819D01*
X51046905Y-54309819D02*
X51046905Y-53309819D01*
X51046905Y-53309819D02*
X51380238Y-54024104D01*
X51380238Y-54024104D02*
X51713571Y-53309819D01*
X51713571Y-53309819D02*
X51713571Y-54309819D01*
X52380238Y-53309819D02*
X52570714Y-53309819D01*
X52570714Y-53309819D02*
X52665952Y-53357438D01*
X52665952Y-53357438D02*
X52761190Y-53452676D01*
X52761190Y-53452676D02*
X52808809Y-53643152D01*
X52808809Y-53643152D02*
X52808809Y-53976485D01*
X52808809Y-53976485D02*
X52761190Y-54166961D01*
X52761190Y-54166961D02*
X52665952Y-54262200D01*
X52665952Y-54262200D02*
X52570714Y-54309819D01*
X52570714Y-54309819D02*
X52380238Y-54309819D01*
X52380238Y-54309819D02*
X52285000Y-54262200D01*
X52285000Y-54262200D02*
X52189762Y-54166961D01*
X52189762Y-54166961D02*
X52142143Y-53976485D01*
X52142143Y-53976485D02*
X52142143Y-53643152D01*
X52142143Y-53643152D02*
X52189762Y-53452676D01*
X52189762Y-53452676D02*
X52285000Y-53357438D01*
X52285000Y-53357438D02*
X52380238Y-53309819D01*
X53713571Y-54309819D02*
X53237381Y-54309819D01*
X53237381Y-54309819D02*
X53237381Y-53309819D01*
X54570714Y-54309819D02*
X53999286Y-54309819D01*
X54285000Y-54309819D02*
X54285000Y-53309819D01*
X54285000Y-53309819D02*
X54189762Y-53452676D01*
X54189762Y-53452676D02*
X54094524Y-53547914D01*
X54094524Y-53547914D02*
X53999286Y-53595533D01*
X63282142Y-94779819D02*
X62948809Y-94303628D01*
X62710714Y-94779819D02*
X62710714Y-93779819D01*
X62710714Y-93779819D02*
X63091666Y-93779819D01*
X63091666Y-93779819D02*
X63186904Y-93827438D01*
X63186904Y-93827438D02*
X63234523Y-93875057D01*
X63234523Y-93875057D02*
X63282142Y-93970295D01*
X63282142Y-93970295D02*
X63282142Y-94113152D01*
X63282142Y-94113152D02*
X63234523Y-94208390D01*
X63234523Y-94208390D02*
X63186904Y-94256009D01*
X63186904Y-94256009D02*
X63091666Y-94303628D01*
X63091666Y-94303628D02*
X62710714Y-94303628D01*
X64234523Y-94779819D02*
X63663095Y-94779819D01*
X63948809Y-94779819D02*
X63948809Y-93779819D01*
X63948809Y-93779819D02*
X63853571Y-93922676D01*
X63853571Y-93922676D02*
X63758333Y-94017914D01*
X63758333Y-94017914D02*
X63663095Y-94065533D01*
X64853571Y-93779819D02*
X64948809Y-93779819D01*
X64948809Y-93779819D02*
X65044047Y-93827438D01*
X65044047Y-93827438D02*
X65091666Y-93875057D01*
X65091666Y-93875057D02*
X65139285Y-93970295D01*
X65139285Y-93970295D02*
X65186904Y-94160771D01*
X65186904Y-94160771D02*
X65186904Y-94398866D01*
X65186904Y-94398866D02*
X65139285Y-94589342D01*
X65139285Y-94589342D02*
X65091666Y-94684580D01*
X65091666Y-94684580D02*
X65044047Y-94732200D01*
X65044047Y-94732200D02*
X64948809Y-94779819D01*
X64948809Y-94779819D02*
X64853571Y-94779819D01*
X64853571Y-94779819D02*
X64758333Y-94732200D01*
X64758333Y-94732200D02*
X64710714Y-94684580D01*
X64710714Y-94684580D02*
X64663095Y-94589342D01*
X64663095Y-94589342D02*
X64615476Y-94398866D01*
X64615476Y-94398866D02*
X64615476Y-94160771D01*
X64615476Y-94160771D02*
X64663095Y-93970295D01*
X64663095Y-93970295D02*
X64710714Y-93875057D01*
X64710714Y-93875057D02*
X64758333Y-93827438D01*
X64758333Y-93827438D02*
X64853571Y-93779819D01*
X104458333Y-43029819D02*
X104125000Y-42553628D01*
X103886905Y-43029819D02*
X103886905Y-42029819D01*
X103886905Y-42029819D02*
X104267857Y-42029819D01*
X104267857Y-42029819D02*
X104363095Y-42077438D01*
X104363095Y-42077438D02*
X104410714Y-42125057D01*
X104410714Y-42125057D02*
X104458333Y-42220295D01*
X104458333Y-42220295D02*
X104458333Y-42363152D01*
X104458333Y-42363152D02*
X104410714Y-42458390D01*
X104410714Y-42458390D02*
X104363095Y-42506009D01*
X104363095Y-42506009D02*
X104267857Y-42553628D01*
X104267857Y-42553628D02*
X103886905Y-42553628D01*
X105410714Y-43029819D02*
X104839286Y-43029819D01*
X105125000Y-43029819D02*
X105125000Y-42029819D01*
X105125000Y-42029819D02*
X105029762Y-42172676D01*
X105029762Y-42172676D02*
X104934524Y-42267914D01*
X104934524Y-42267914D02*
X104839286Y-42315533D01*
X87663095Y-46679819D02*
X87663095Y-47489342D01*
X87663095Y-47489342D02*
X87710714Y-47584580D01*
X87710714Y-47584580D02*
X87758333Y-47632200D01*
X87758333Y-47632200D02*
X87853571Y-47679819D01*
X87853571Y-47679819D02*
X88044047Y-47679819D01*
X88044047Y-47679819D02*
X88139285Y-47632200D01*
X88139285Y-47632200D02*
X88186904Y-47584580D01*
X88186904Y-47584580D02*
X88234523Y-47489342D01*
X88234523Y-47489342D02*
X88234523Y-46679819D01*
X89234523Y-47679819D02*
X88663095Y-47679819D01*
X88948809Y-47679819D02*
X88948809Y-46679819D01*
X88948809Y-46679819D02*
X88853571Y-46822676D01*
X88853571Y-46822676D02*
X88758333Y-46917914D01*
X88758333Y-46917914D02*
X88663095Y-46965533D01*
X112186905Y-35879819D02*
X112186905Y-34879819D01*
X112186905Y-34879819D02*
X112425000Y-34879819D01*
X112425000Y-34879819D02*
X112567857Y-34927438D01*
X112567857Y-34927438D02*
X112663095Y-35022676D01*
X112663095Y-35022676D02*
X112710714Y-35117914D01*
X112710714Y-35117914D02*
X112758333Y-35308390D01*
X112758333Y-35308390D02*
X112758333Y-35451247D01*
X112758333Y-35451247D02*
X112710714Y-35641723D01*
X112710714Y-35641723D02*
X112663095Y-35736961D01*
X112663095Y-35736961D02*
X112567857Y-35832200D01*
X112567857Y-35832200D02*
X112425000Y-35879819D01*
X112425000Y-35879819D02*
X112186905Y-35879819D01*
X113139286Y-34975057D02*
X113186905Y-34927438D01*
X113186905Y-34927438D02*
X113282143Y-34879819D01*
X113282143Y-34879819D02*
X113520238Y-34879819D01*
X113520238Y-34879819D02*
X113615476Y-34927438D01*
X113615476Y-34927438D02*
X113663095Y-34975057D01*
X113663095Y-34975057D02*
X113710714Y-35070295D01*
X113710714Y-35070295D02*
X113710714Y-35165533D01*
X113710714Y-35165533D02*
X113663095Y-35308390D01*
X113663095Y-35308390D02*
X113091667Y-35879819D01*
X113091667Y-35879819D02*
X113710714Y-35879819D01*
X63358333Y-47784580D02*
X63310714Y-47832200D01*
X63310714Y-47832200D02*
X63167857Y-47879819D01*
X63167857Y-47879819D02*
X63072619Y-47879819D01*
X63072619Y-47879819D02*
X62929762Y-47832200D01*
X62929762Y-47832200D02*
X62834524Y-47736961D01*
X62834524Y-47736961D02*
X62786905Y-47641723D01*
X62786905Y-47641723D02*
X62739286Y-47451247D01*
X62739286Y-47451247D02*
X62739286Y-47308390D01*
X62739286Y-47308390D02*
X62786905Y-47117914D01*
X62786905Y-47117914D02*
X62834524Y-47022676D01*
X62834524Y-47022676D02*
X62929762Y-46927438D01*
X62929762Y-46927438D02*
X63072619Y-46879819D01*
X63072619Y-46879819D02*
X63167857Y-46879819D01*
X63167857Y-46879819D02*
X63310714Y-46927438D01*
X63310714Y-46927438D02*
X63358333Y-46975057D01*
X63691667Y-46879819D02*
X64310714Y-46879819D01*
X64310714Y-46879819D02*
X63977381Y-47260771D01*
X63977381Y-47260771D02*
X64120238Y-47260771D01*
X64120238Y-47260771D02*
X64215476Y-47308390D01*
X64215476Y-47308390D02*
X64263095Y-47356009D01*
X64263095Y-47356009D02*
X64310714Y-47451247D01*
X64310714Y-47451247D02*
X64310714Y-47689342D01*
X64310714Y-47689342D02*
X64263095Y-47784580D01*
X64263095Y-47784580D02*
X64215476Y-47832200D01*
X64215476Y-47832200D02*
X64120238Y-47879819D01*
X64120238Y-47879819D02*
X63834524Y-47879819D01*
X63834524Y-47879819D02*
X63739286Y-47832200D01*
X63739286Y-47832200D02*
X63691667Y-47784580D01*
X68658333Y-94779819D02*
X68325000Y-94303628D01*
X68086905Y-94779819D02*
X68086905Y-93779819D01*
X68086905Y-93779819D02*
X68467857Y-93779819D01*
X68467857Y-93779819D02*
X68563095Y-93827438D01*
X68563095Y-93827438D02*
X68610714Y-93875057D01*
X68610714Y-93875057D02*
X68658333Y-93970295D01*
X68658333Y-93970295D02*
X68658333Y-94113152D01*
X68658333Y-94113152D02*
X68610714Y-94208390D01*
X68610714Y-94208390D02*
X68563095Y-94256009D01*
X68563095Y-94256009D02*
X68467857Y-94303628D01*
X68467857Y-94303628D02*
X68086905Y-94303628D01*
X69134524Y-94779819D02*
X69325000Y-94779819D01*
X69325000Y-94779819D02*
X69420238Y-94732200D01*
X69420238Y-94732200D02*
X69467857Y-94684580D01*
X69467857Y-94684580D02*
X69563095Y-94541723D01*
X69563095Y-94541723D02*
X69610714Y-94351247D01*
X69610714Y-94351247D02*
X69610714Y-93970295D01*
X69610714Y-93970295D02*
X69563095Y-93875057D01*
X69563095Y-93875057D02*
X69515476Y-93827438D01*
X69515476Y-93827438D02*
X69420238Y-93779819D01*
X69420238Y-93779819D02*
X69229762Y-93779819D01*
X69229762Y-93779819D02*
X69134524Y-93827438D01*
X69134524Y-93827438D02*
X69086905Y-93875057D01*
X69086905Y-93875057D02*
X69039286Y-93970295D01*
X69039286Y-93970295D02*
X69039286Y-94208390D01*
X69039286Y-94208390D02*
X69086905Y-94303628D01*
X69086905Y-94303628D02*
X69134524Y-94351247D01*
X69134524Y-94351247D02*
X69229762Y-94398866D01*
X69229762Y-94398866D02*
X69420238Y-94398866D01*
X69420238Y-94398866D02*
X69515476Y-94351247D01*
X69515476Y-94351247D02*
X69563095Y-94303628D01*
X69563095Y-94303628D02*
X69610714Y-94208390D01*
X96858333Y-63884580D02*
X96810714Y-63932200D01*
X96810714Y-63932200D02*
X96667857Y-63979819D01*
X96667857Y-63979819D02*
X96572619Y-63979819D01*
X96572619Y-63979819D02*
X96429762Y-63932200D01*
X96429762Y-63932200D02*
X96334524Y-63836961D01*
X96334524Y-63836961D02*
X96286905Y-63741723D01*
X96286905Y-63741723D02*
X96239286Y-63551247D01*
X96239286Y-63551247D02*
X96239286Y-63408390D01*
X96239286Y-63408390D02*
X96286905Y-63217914D01*
X96286905Y-63217914D02*
X96334524Y-63122676D01*
X96334524Y-63122676D02*
X96429762Y-63027438D01*
X96429762Y-63027438D02*
X96572619Y-62979819D01*
X96572619Y-62979819D02*
X96667857Y-62979819D01*
X96667857Y-62979819D02*
X96810714Y-63027438D01*
X96810714Y-63027438D02*
X96858333Y-63075057D01*
X97715476Y-62979819D02*
X97525000Y-62979819D01*
X97525000Y-62979819D02*
X97429762Y-63027438D01*
X97429762Y-63027438D02*
X97382143Y-63075057D01*
X97382143Y-63075057D02*
X97286905Y-63217914D01*
X97286905Y-63217914D02*
X97239286Y-63408390D01*
X97239286Y-63408390D02*
X97239286Y-63789342D01*
X97239286Y-63789342D02*
X97286905Y-63884580D01*
X97286905Y-63884580D02*
X97334524Y-63932200D01*
X97334524Y-63932200D02*
X97429762Y-63979819D01*
X97429762Y-63979819D02*
X97620238Y-63979819D01*
X97620238Y-63979819D02*
X97715476Y-63932200D01*
X97715476Y-63932200D02*
X97763095Y-63884580D01*
X97763095Y-63884580D02*
X97810714Y-63789342D01*
X97810714Y-63789342D02*
X97810714Y-63551247D01*
X97810714Y-63551247D02*
X97763095Y-63456009D01*
X97763095Y-63456009D02*
X97715476Y-63408390D01*
X97715476Y-63408390D02*
X97620238Y-63360771D01*
X97620238Y-63360771D02*
X97429762Y-63360771D01*
X97429762Y-63360771D02*
X97334524Y-63408390D01*
X97334524Y-63408390D02*
X97286905Y-63456009D01*
X97286905Y-63456009D02*
X97239286Y-63551247D01*
X59858333Y-47184580D02*
X59810714Y-47232200D01*
X59810714Y-47232200D02*
X59667857Y-47279819D01*
X59667857Y-47279819D02*
X59572619Y-47279819D01*
X59572619Y-47279819D02*
X59429762Y-47232200D01*
X59429762Y-47232200D02*
X59334524Y-47136961D01*
X59334524Y-47136961D02*
X59286905Y-47041723D01*
X59286905Y-47041723D02*
X59239286Y-46851247D01*
X59239286Y-46851247D02*
X59239286Y-46708390D01*
X59239286Y-46708390D02*
X59286905Y-46517914D01*
X59286905Y-46517914D02*
X59334524Y-46422676D01*
X59334524Y-46422676D02*
X59429762Y-46327438D01*
X59429762Y-46327438D02*
X59572619Y-46279819D01*
X59572619Y-46279819D02*
X59667857Y-46279819D01*
X59667857Y-46279819D02*
X59810714Y-46327438D01*
X59810714Y-46327438D02*
X59858333Y-46375057D01*
X60239286Y-46375057D02*
X60286905Y-46327438D01*
X60286905Y-46327438D02*
X60382143Y-46279819D01*
X60382143Y-46279819D02*
X60620238Y-46279819D01*
X60620238Y-46279819D02*
X60715476Y-46327438D01*
X60715476Y-46327438D02*
X60763095Y-46375057D01*
X60763095Y-46375057D02*
X60810714Y-46470295D01*
X60810714Y-46470295D02*
X60810714Y-46565533D01*
X60810714Y-46565533D02*
X60763095Y-46708390D01*
X60763095Y-46708390D02*
X60191667Y-47279819D01*
X60191667Y-47279819D02*
X60810714Y-47279819D01*
X119286905Y-26679819D02*
X119286905Y-25679819D01*
X119286905Y-25679819D02*
X119620238Y-26394104D01*
X119620238Y-26394104D02*
X119953571Y-25679819D01*
X119953571Y-25679819D02*
X119953571Y-26679819D01*
X120620238Y-25679819D02*
X120810714Y-25679819D01*
X120810714Y-25679819D02*
X120905952Y-25727438D01*
X120905952Y-25727438D02*
X121001190Y-25822676D01*
X121001190Y-25822676D02*
X121048809Y-26013152D01*
X121048809Y-26013152D02*
X121048809Y-26346485D01*
X121048809Y-26346485D02*
X121001190Y-26536961D01*
X121001190Y-26536961D02*
X120905952Y-26632200D01*
X120905952Y-26632200D02*
X120810714Y-26679819D01*
X120810714Y-26679819D02*
X120620238Y-26679819D01*
X120620238Y-26679819D02*
X120525000Y-26632200D01*
X120525000Y-26632200D02*
X120429762Y-26536961D01*
X120429762Y-26536961D02*
X120382143Y-26346485D01*
X120382143Y-26346485D02*
X120382143Y-26013152D01*
X120382143Y-26013152D02*
X120429762Y-25822676D01*
X120429762Y-25822676D02*
X120525000Y-25727438D01*
X120525000Y-25727438D02*
X120620238Y-25679819D01*
X121953571Y-26679819D02*
X121477381Y-26679819D01*
X121477381Y-26679819D02*
X121477381Y-25679819D01*
X122715476Y-26013152D02*
X122715476Y-26679819D01*
X122477381Y-25632200D02*
X122239286Y-26346485D01*
X122239286Y-26346485D02*
X122858333Y-26346485D01*
X104858333Y-52484580D02*
X104810714Y-52532200D01*
X104810714Y-52532200D02*
X104667857Y-52579819D01*
X104667857Y-52579819D02*
X104572619Y-52579819D01*
X104572619Y-52579819D02*
X104429762Y-52532200D01*
X104429762Y-52532200D02*
X104334524Y-52436961D01*
X104334524Y-52436961D02*
X104286905Y-52341723D01*
X104286905Y-52341723D02*
X104239286Y-52151247D01*
X104239286Y-52151247D02*
X104239286Y-52008390D01*
X104239286Y-52008390D02*
X104286905Y-51817914D01*
X104286905Y-51817914D02*
X104334524Y-51722676D01*
X104334524Y-51722676D02*
X104429762Y-51627438D01*
X104429762Y-51627438D02*
X104572619Y-51579819D01*
X104572619Y-51579819D02*
X104667857Y-51579819D01*
X104667857Y-51579819D02*
X104810714Y-51627438D01*
X104810714Y-51627438D02*
X104858333Y-51675057D01*
X105715476Y-51913152D02*
X105715476Y-52579819D01*
X105477381Y-51532200D02*
X105239286Y-52246485D01*
X105239286Y-52246485D02*
X105858333Y-52246485D01*
X63558333Y-76879819D02*
X63225000Y-76403628D01*
X62986905Y-76879819D02*
X62986905Y-75879819D01*
X62986905Y-75879819D02*
X63367857Y-75879819D01*
X63367857Y-75879819D02*
X63463095Y-75927438D01*
X63463095Y-75927438D02*
X63510714Y-75975057D01*
X63510714Y-75975057D02*
X63558333Y-76070295D01*
X63558333Y-76070295D02*
X63558333Y-76213152D01*
X63558333Y-76213152D02*
X63510714Y-76308390D01*
X63510714Y-76308390D02*
X63463095Y-76356009D01*
X63463095Y-76356009D02*
X63367857Y-76403628D01*
X63367857Y-76403628D02*
X62986905Y-76403628D01*
X63891667Y-75879819D02*
X64558333Y-75879819D01*
X64558333Y-75879819D02*
X64129762Y-76879819D01*
X80758333Y-81179819D02*
X80425000Y-80703628D01*
X80186905Y-81179819D02*
X80186905Y-80179819D01*
X80186905Y-80179819D02*
X80567857Y-80179819D01*
X80567857Y-80179819D02*
X80663095Y-80227438D01*
X80663095Y-80227438D02*
X80710714Y-80275057D01*
X80710714Y-80275057D02*
X80758333Y-80370295D01*
X80758333Y-80370295D02*
X80758333Y-80513152D01*
X80758333Y-80513152D02*
X80710714Y-80608390D01*
X80710714Y-80608390D02*
X80663095Y-80656009D01*
X80663095Y-80656009D02*
X80567857Y-80703628D01*
X80567857Y-80703628D02*
X80186905Y-80703628D01*
X81663095Y-80179819D02*
X81186905Y-80179819D01*
X81186905Y-80179819D02*
X81139286Y-80656009D01*
X81139286Y-80656009D02*
X81186905Y-80608390D01*
X81186905Y-80608390D02*
X81282143Y-80560771D01*
X81282143Y-80560771D02*
X81520238Y-80560771D01*
X81520238Y-80560771D02*
X81615476Y-80608390D01*
X81615476Y-80608390D02*
X81663095Y-80656009D01*
X81663095Y-80656009D02*
X81710714Y-80751247D01*
X81710714Y-80751247D02*
X81710714Y-80989342D01*
X81710714Y-80989342D02*
X81663095Y-81084580D01*
X81663095Y-81084580D02*
X81615476Y-81132200D01*
X81615476Y-81132200D02*
X81520238Y-81179819D01*
X81520238Y-81179819D02*
X81282143Y-81179819D01*
X81282143Y-81179819D02*
X81186905Y-81132200D01*
X81186905Y-81132200D02*
X81139286Y-81084580D01*
X76086905Y-88019819D02*
X76086905Y-87019819D01*
X76086905Y-87019819D02*
X76325000Y-87019819D01*
X76325000Y-87019819D02*
X76467857Y-87067438D01*
X76467857Y-87067438D02*
X76563095Y-87162676D01*
X76563095Y-87162676D02*
X76610714Y-87257914D01*
X76610714Y-87257914D02*
X76658333Y-87448390D01*
X76658333Y-87448390D02*
X76658333Y-87591247D01*
X76658333Y-87591247D02*
X76610714Y-87781723D01*
X76610714Y-87781723D02*
X76563095Y-87876961D01*
X76563095Y-87876961D02*
X76467857Y-87972200D01*
X76467857Y-87972200D02*
X76325000Y-88019819D01*
X76325000Y-88019819D02*
X76086905Y-88019819D01*
X76991667Y-87019819D02*
X77610714Y-87019819D01*
X77610714Y-87019819D02*
X77277381Y-87400771D01*
X77277381Y-87400771D02*
X77420238Y-87400771D01*
X77420238Y-87400771D02*
X77515476Y-87448390D01*
X77515476Y-87448390D02*
X77563095Y-87496009D01*
X77563095Y-87496009D02*
X77610714Y-87591247D01*
X77610714Y-87591247D02*
X77610714Y-87829342D01*
X77610714Y-87829342D02*
X77563095Y-87924580D01*
X77563095Y-87924580D02*
X77515476Y-87972200D01*
X77515476Y-87972200D02*
X77420238Y-88019819D01*
X77420238Y-88019819D02*
X77134524Y-88019819D01*
X77134524Y-88019819D02*
X77039286Y-87972200D01*
X77039286Y-87972200D02*
X76991667Y-87924580D01*
X100258333Y-87279819D02*
X99925000Y-86803628D01*
X99686905Y-87279819D02*
X99686905Y-86279819D01*
X99686905Y-86279819D02*
X100067857Y-86279819D01*
X100067857Y-86279819D02*
X100163095Y-86327438D01*
X100163095Y-86327438D02*
X100210714Y-86375057D01*
X100210714Y-86375057D02*
X100258333Y-86470295D01*
X100258333Y-86470295D02*
X100258333Y-86613152D01*
X100258333Y-86613152D02*
X100210714Y-86708390D01*
X100210714Y-86708390D02*
X100163095Y-86756009D01*
X100163095Y-86756009D02*
X100067857Y-86803628D01*
X100067857Y-86803628D02*
X99686905Y-86803628D01*
X100591667Y-86279819D02*
X101210714Y-86279819D01*
X101210714Y-86279819D02*
X100877381Y-86660771D01*
X100877381Y-86660771D02*
X101020238Y-86660771D01*
X101020238Y-86660771D02*
X101115476Y-86708390D01*
X101115476Y-86708390D02*
X101163095Y-86756009D01*
X101163095Y-86756009D02*
X101210714Y-86851247D01*
X101210714Y-86851247D02*
X101210714Y-87089342D01*
X101210714Y-87089342D02*
X101163095Y-87184580D01*
X101163095Y-87184580D02*
X101115476Y-87232200D01*
X101115476Y-87232200D02*
X101020238Y-87279819D01*
X101020238Y-87279819D02*
X100734524Y-87279819D01*
X100734524Y-87279819D02*
X100639286Y-87232200D01*
X100639286Y-87232200D02*
X100591667Y-87184580D01*
X74201190Y-70579819D02*
X73867857Y-70103628D01*
X73629762Y-70579819D02*
X73629762Y-69579819D01*
X73629762Y-69579819D02*
X74010714Y-69579819D01*
X74010714Y-69579819D02*
X74105952Y-69627438D01*
X74105952Y-69627438D02*
X74153571Y-69675057D01*
X74153571Y-69675057D02*
X74201190Y-69770295D01*
X74201190Y-69770295D02*
X74201190Y-69913152D01*
X74201190Y-69913152D02*
X74153571Y-70008390D01*
X74153571Y-70008390D02*
X74105952Y-70056009D01*
X74105952Y-70056009D02*
X74010714Y-70103628D01*
X74010714Y-70103628D02*
X73629762Y-70103628D01*
X74582143Y-70532200D02*
X74725000Y-70579819D01*
X74725000Y-70579819D02*
X74963095Y-70579819D01*
X74963095Y-70579819D02*
X75058333Y-70532200D01*
X75058333Y-70532200D02*
X75105952Y-70484580D01*
X75105952Y-70484580D02*
X75153571Y-70389342D01*
X75153571Y-70389342D02*
X75153571Y-70294104D01*
X75153571Y-70294104D02*
X75105952Y-70198866D01*
X75105952Y-70198866D02*
X75058333Y-70151247D01*
X75058333Y-70151247D02*
X74963095Y-70103628D01*
X74963095Y-70103628D02*
X74772619Y-70056009D01*
X74772619Y-70056009D02*
X74677381Y-70008390D01*
X74677381Y-70008390D02*
X74629762Y-69960771D01*
X74629762Y-69960771D02*
X74582143Y-69865533D01*
X74582143Y-69865533D02*
X74582143Y-69770295D01*
X74582143Y-69770295D02*
X74629762Y-69675057D01*
X74629762Y-69675057D02*
X74677381Y-69627438D01*
X74677381Y-69627438D02*
X74772619Y-69579819D01*
X74772619Y-69579819D02*
X75010714Y-69579819D01*
X75010714Y-69579819D02*
X75153571Y-69627438D01*
X75439286Y-69579819D02*
X76010714Y-69579819D01*
X75725000Y-70579819D02*
X75725000Y-69579819D01*
X76867857Y-70579819D02*
X76296429Y-70579819D01*
X76582143Y-70579819D02*
X76582143Y-69579819D01*
X76582143Y-69579819D02*
X76486905Y-69722676D01*
X76486905Y-69722676D02*
X76391667Y-69817914D01*
X76391667Y-69817914D02*
X76296429Y-69865533D01*
X105491666Y-26156009D02*
X105634523Y-26203628D01*
X105634523Y-26203628D02*
X105682142Y-26251247D01*
X105682142Y-26251247D02*
X105729761Y-26346485D01*
X105729761Y-26346485D02*
X105729761Y-26489342D01*
X105729761Y-26489342D02*
X105682142Y-26584580D01*
X105682142Y-26584580D02*
X105634523Y-26632200D01*
X105634523Y-26632200D02*
X105539285Y-26679819D01*
X105539285Y-26679819D02*
X105158333Y-26679819D01*
X105158333Y-26679819D02*
X105158333Y-25679819D01*
X105158333Y-25679819D02*
X105491666Y-25679819D01*
X105491666Y-25679819D02*
X105586904Y-25727438D01*
X105586904Y-25727438D02*
X105634523Y-25775057D01*
X105634523Y-25775057D02*
X105682142Y-25870295D01*
X105682142Y-25870295D02*
X105682142Y-25965533D01*
X105682142Y-25965533D02*
X105634523Y-26060771D01*
X105634523Y-26060771D02*
X105586904Y-26108390D01*
X105586904Y-26108390D02*
X105491666Y-26156009D01*
X105491666Y-26156009D02*
X105158333Y-26156009D01*
X106348809Y-25679819D02*
X106539285Y-25679819D01*
X106539285Y-25679819D02*
X106634523Y-25727438D01*
X106634523Y-25727438D02*
X106729761Y-25822676D01*
X106729761Y-25822676D02*
X106777380Y-26013152D01*
X106777380Y-26013152D02*
X106777380Y-26346485D01*
X106777380Y-26346485D02*
X106729761Y-26536961D01*
X106729761Y-26536961D02*
X106634523Y-26632200D01*
X106634523Y-26632200D02*
X106539285Y-26679819D01*
X106539285Y-26679819D02*
X106348809Y-26679819D01*
X106348809Y-26679819D02*
X106253571Y-26632200D01*
X106253571Y-26632200D02*
X106158333Y-26536961D01*
X106158333Y-26536961D02*
X106110714Y-26346485D01*
X106110714Y-26346485D02*
X106110714Y-26013152D01*
X106110714Y-26013152D02*
X106158333Y-25822676D01*
X106158333Y-25822676D02*
X106253571Y-25727438D01*
X106253571Y-25727438D02*
X106348809Y-25679819D01*
X107396428Y-25679819D02*
X107586904Y-25679819D01*
X107586904Y-25679819D02*
X107682142Y-25727438D01*
X107682142Y-25727438D02*
X107777380Y-25822676D01*
X107777380Y-25822676D02*
X107824999Y-26013152D01*
X107824999Y-26013152D02*
X107824999Y-26346485D01*
X107824999Y-26346485D02*
X107777380Y-26536961D01*
X107777380Y-26536961D02*
X107682142Y-26632200D01*
X107682142Y-26632200D02*
X107586904Y-26679819D01*
X107586904Y-26679819D02*
X107396428Y-26679819D01*
X107396428Y-26679819D02*
X107301190Y-26632200D01*
X107301190Y-26632200D02*
X107205952Y-26536961D01*
X107205952Y-26536961D02*
X107158333Y-26346485D01*
X107158333Y-26346485D02*
X107158333Y-26013152D01*
X107158333Y-26013152D02*
X107205952Y-25822676D01*
X107205952Y-25822676D02*
X107301190Y-25727438D01*
X107301190Y-25727438D02*
X107396428Y-25679819D01*
X108110714Y-25679819D02*
X108682142Y-25679819D01*
X108396428Y-26679819D02*
X108396428Y-25679819D01*
X109539285Y-26679819D02*
X108967857Y-26679819D01*
X109253571Y-26679819D02*
X109253571Y-25679819D01*
X109253571Y-25679819D02*
X109158333Y-25822676D01*
X109158333Y-25822676D02*
X109063095Y-25917914D01*
X109063095Y-25917914D02*
X108967857Y-25965533D01*
X62058333Y-70979819D02*
X61725000Y-70503628D01*
X61486905Y-70979819D02*
X61486905Y-69979819D01*
X61486905Y-69979819D02*
X61867857Y-69979819D01*
X61867857Y-69979819D02*
X61963095Y-70027438D01*
X61963095Y-70027438D02*
X62010714Y-70075057D01*
X62010714Y-70075057D02*
X62058333Y-70170295D01*
X62058333Y-70170295D02*
X62058333Y-70313152D01*
X62058333Y-70313152D02*
X62010714Y-70408390D01*
X62010714Y-70408390D02*
X61963095Y-70456009D01*
X61963095Y-70456009D02*
X61867857Y-70503628D01*
X61867857Y-70503628D02*
X61486905Y-70503628D01*
X62629762Y-70408390D02*
X62534524Y-70360771D01*
X62534524Y-70360771D02*
X62486905Y-70313152D01*
X62486905Y-70313152D02*
X62439286Y-70217914D01*
X62439286Y-70217914D02*
X62439286Y-70170295D01*
X62439286Y-70170295D02*
X62486905Y-70075057D01*
X62486905Y-70075057D02*
X62534524Y-70027438D01*
X62534524Y-70027438D02*
X62629762Y-69979819D01*
X62629762Y-69979819D02*
X62820238Y-69979819D01*
X62820238Y-69979819D02*
X62915476Y-70027438D01*
X62915476Y-70027438D02*
X62963095Y-70075057D01*
X62963095Y-70075057D02*
X63010714Y-70170295D01*
X63010714Y-70170295D02*
X63010714Y-70217914D01*
X63010714Y-70217914D02*
X62963095Y-70313152D01*
X62963095Y-70313152D02*
X62915476Y-70360771D01*
X62915476Y-70360771D02*
X62820238Y-70408390D01*
X62820238Y-70408390D02*
X62629762Y-70408390D01*
X62629762Y-70408390D02*
X62534524Y-70456009D01*
X62534524Y-70456009D02*
X62486905Y-70503628D01*
X62486905Y-70503628D02*
X62439286Y-70598866D01*
X62439286Y-70598866D02*
X62439286Y-70789342D01*
X62439286Y-70789342D02*
X62486905Y-70884580D01*
X62486905Y-70884580D02*
X62534524Y-70932200D01*
X62534524Y-70932200D02*
X62629762Y-70979819D01*
X62629762Y-70979819D02*
X62820238Y-70979819D01*
X62820238Y-70979819D02*
X62915476Y-70932200D01*
X62915476Y-70932200D02*
X62963095Y-70884580D01*
X62963095Y-70884580D02*
X63010714Y-70789342D01*
X63010714Y-70789342D02*
X63010714Y-70598866D01*
X63010714Y-70598866D02*
X62963095Y-70503628D01*
X62963095Y-70503628D02*
X62915476Y-70456009D01*
X62915476Y-70456009D02*
X62820238Y-70408390D01*
X76758333Y-81179819D02*
X76425000Y-80703628D01*
X76186905Y-81179819D02*
X76186905Y-80179819D01*
X76186905Y-80179819D02*
X76567857Y-80179819D01*
X76567857Y-80179819D02*
X76663095Y-80227438D01*
X76663095Y-80227438D02*
X76710714Y-80275057D01*
X76710714Y-80275057D02*
X76758333Y-80370295D01*
X76758333Y-80370295D02*
X76758333Y-80513152D01*
X76758333Y-80513152D02*
X76710714Y-80608390D01*
X76710714Y-80608390D02*
X76663095Y-80656009D01*
X76663095Y-80656009D02*
X76567857Y-80703628D01*
X76567857Y-80703628D02*
X76186905Y-80703628D01*
X77139286Y-80275057D02*
X77186905Y-80227438D01*
X77186905Y-80227438D02*
X77282143Y-80179819D01*
X77282143Y-80179819D02*
X77520238Y-80179819D01*
X77520238Y-80179819D02*
X77615476Y-80227438D01*
X77615476Y-80227438D02*
X77663095Y-80275057D01*
X77663095Y-80275057D02*
X77710714Y-80370295D01*
X77710714Y-80370295D02*
X77710714Y-80465533D01*
X77710714Y-80465533D02*
X77663095Y-80608390D01*
X77663095Y-80608390D02*
X77091667Y-81179819D01*
X77091667Y-81179819D02*
X77710714Y-81179819D01*
X50986905Y-72579819D02*
X50986905Y-71579819D01*
X50986905Y-71579819D02*
X51320238Y-72294104D01*
X51320238Y-72294104D02*
X51653571Y-71579819D01*
X51653571Y-71579819D02*
X51653571Y-72579819D01*
X52320238Y-71579819D02*
X52510714Y-71579819D01*
X52510714Y-71579819D02*
X52605952Y-71627438D01*
X52605952Y-71627438D02*
X52701190Y-71722676D01*
X52701190Y-71722676D02*
X52748809Y-71913152D01*
X52748809Y-71913152D02*
X52748809Y-72246485D01*
X52748809Y-72246485D02*
X52701190Y-72436961D01*
X52701190Y-72436961D02*
X52605952Y-72532200D01*
X52605952Y-72532200D02*
X52510714Y-72579819D01*
X52510714Y-72579819D02*
X52320238Y-72579819D01*
X52320238Y-72579819D02*
X52225000Y-72532200D01*
X52225000Y-72532200D02*
X52129762Y-72436961D01*
X52129762Y-72436961D02*
X52082143Y-72246485D01*
X52082143Y-72246485D02*
X52082143Y-71913152D01*
X52082143Y-71913152D02*
X52129762Y-71722676D01*
X52129762Y-71722676D02*
X52225000Y-71627438D01*
X52225000Y-71627438D02*
X52320238Y-71579819D01*
X53653571Y-72579819D02*
X53177381Y-72579819D01*
X53177381Y-72579819D02*
X53177381Y-71579819D01*
X53891667Y-71579819D02*
X54510714Y-71579819D01*
X54510714Y-71579819D02*
X54177381Y-71960771D01*
X54177381Y-71960771D02*
X54320238Y-71960771D01*
X54320238Y-71960771D02*
X54415476Y-72008390D01*
X54415476Y-72008390D02*
X54463095Y-72056009D01*
X54463095Y-72056009D02*
X54510714Y-72151247D01*
X54510714Y-72151247D02*
X54510714Y-72389342D01*
X54510714Y-72389342D02*
X54463095Y-72484580D01*
X54463095Y-72484580D02*
X54415476Y-72532200D01*
X54415476Y-72532200D02*
X54320238Y-72579819D01*
X54320238Y-72579819D02*
X54034524Y-72579819D01*
X54034524Y-72579819D02*
X53939286Y-72532200D01*
X53939286Y-72532200D02*
X53891667Y-72484580D01*
X57715476Y-80304819D02*
X58382142Y-81304819D01*
X58382142Y-80304819D02*
X57715476Y-81304819D01*
X58715476Y-80400057D02*
X58763095Y-80352438D01*
X58763095Y-80352438D02*
X58858333Y-80304819D01*
X58858333Y-80304819D02*
X59096428Y-80304819D01*
X59096428Y-80304819D02*
X59191666Y-80352438D01*
X59191666Y-80352438D02*
X59239285Y-80400057D01*
X59239285Y-80400057D02*
X59286904Y-80495295D01*
X59286904Y-80495295D02*
X59286904Y-80590533D01*
X59286904Y-80590533D02*
X59239285Y-80733390D01*
X59239285Y-80733390D02*
X58667857Y-81304819D01*
X58667857Y-81304819D02*
X59286904Y-81304819D01*
X91058333Y-83984580D02*
X91010714Y-84032200D01*
X91010714Y-84032200D02*
X90867857Y-84079819D01*
X90867857Y-84079819D02*
X90772619Y-84079819D01*
X90772619Y-84079819D02*
X90629762Y-84032200D01*
X90629762Y-84032200D02*
X90534524Y-83936961D01*
X90534524Y-83936961D02*
X90486905Y-83841723D01*
X90486905Y-83841723D02*
X90439286Y-83651247D01*
X90439286Y-83651247D02*
X90439286Y-83508390D01*
X90439286Y-83508390D02*
X90486905Y-83317914D01*
X90486905Y-83317914D02*
X90534524Y-83222676D01*
X90534524Y-83222676D02*
X90629762Y-83127438D01*
X90629762Y-83127438D02*
X90772619Y-83079819D01*
X90772619Y-83079819D02*
X90867857Y-83079819D01*
X90867857Y-83079819D02*
X91010714Y-83127438D01*
X91010714Y-83127438D02*
X91058333Y-83175057D01*
X91534524Y-84079819D02*
X91725000Y-84079819D01*
X91725000Y-84079819D02*
X91820238Y-84032200D01*
X91820238Y-84032200D02*
X91867857Y-83984580D01*
X91867857Y-83984580D02*
X91963095Y-83841723D01*
X91963095Y-83841723D02*
X92010714Y-83651247D01*
X92010714Y-83651247D02*
X92010714Y-83270295D01*
X92010714Y-83270295D02*
X91963095Y-83175057D01*
X91963095Y-83175057D02*
X91915476Y-83127438D01*
X91915476Y-83127438D02*
X91820238Y-83079819D01*
X91820238Y-83079819D02*
X91629762Y-83079819D01*
X91629762Y-83079819D02*
X91534524Y-83127438D01*
X91534524Y-83127438D02*
X91486905Y-83175057D01*
X91486905Y-83175057D02*
X91439286Y-83270295D01*
X91439286Y-83270295D02*
X91439286Y-83508390D01*
X91439286Y-83508390D02*
X91486905Y-83603628D01*
X91486905Y-83603628D02*
X91534524Y-83651247D01*
X91534524Y-83651247D02*
X91629762Y-83698866D01*
X91629762Y-83698866D02*
X91820238Y-83698866D01*
X91820238Y-83698866D02*
X91915476Y-83651247D01*
X91915476Y-83651247D02*
X91963095Y-83603628D01*
X91963095Y-83603628D02*
X92010714Y-83508390D01*
X93286905Y-89479819D02*
X93286905Y-88479819D01*
X93286905Y-88479819D02*
X93525000Y-88479819D01*
X93525000Y-88479819D02*
X93667857Y-88527438D01*
X93667857Y-88527438D02*
X93763095Y-88622676D01*
X93763095Y-88622676D02*
X93810714Y-88717914D01*
X93810714Y-88717914D02*
X93858333Y-88908390D01*
X93858333Y-88908390D02*
X93858333Y-89051247D01*
X93858333Y-89051247D02*
X93810714Y-89241723D01*
X93810714Y-89241723D02*
X93763095Y-89336961D01*
X93763095Y-89336961D02*
X93667857Y-89432200D01*
X93667857Y-89432200D02*
X93525000Y-89479819D01*
X93525000Y-89479819D02*
X93286905Y-89479819D01*
X94810714Y-89479819D02*
X94239286Y-89479819D01*
X94525000Y-89479819D02*
X94525000Y-88479819D01*
X94525000Y-88479819D02*
X94429762Y-88622676D01*
X94429762Y-88622676D02*
X94334524Y-88717914D01*
X94334524Y-88717914D02*
X94239286Y-88765533D01*
D12*
%TO.C,J2*%
X78920000Y-97005000D02*
X78920000Y-95675000D01*
X80250000Y-97005000D02*
X78920000Y-97005000D01*
X81520000Y-94345000D02*
X114600000Y-94345000D01*
X81520000Y-97005000D02*
X81520000Y-94345000D01*
X81520000Y-97005000D02*
X114600000Y-97005000D01*
X114600000Y-97005000D02*
X114600000Y-94345000D01*
%TO.C,C5*%
X96790580Y-51715000D02*
X96509420Y-51715000D01*
X96790580Y-52735000D02*
X96509420Y-52735000D01*
%TO.C,U4*%
X65975000Y-80815000D02*
X69735000Y-80815000D01*
X65975000Y-87635000D02*
X69735000Y-87635000D01*
X69735000Y-80815000D02*
X69735000Y-82075000D01*
X69735000Y-87635000D02*
X69735000Y-86375000D01*
X64695000Y-80915000D02*
X64455000Y-80585000D01*
X64935000Y-80585000D01*
X64695000Y-80915000D01*
G36*
X64695000Y-80915000D02*
G01*
X64455000Y-80585000D01*
X64935000Y-80585000D01*
X64695000Y-80915000D01*
G37*
%TO.C,C8*%
X84490000Y-84586252D02*
X84490000Y-84063748D01*
X85960000Y-84586252D02*
X85960000Y-84063748D01*
D13*
%TO.C,U2*%
X94910323Y-73927000D02*
X98339675Y-73927000D01*
X98339677Y-67323000D02*
X94910325Y-67323000D01*
X96929800Y-67323000D02*
G75*
G02*
X96320200Y-67323000I-304800J0D01*
G01*
D14*
G36*
X92713400Y-73740498D02*
G01*
X92459400Y-73740498D01*
X92459400Y-73359498D01*
X92713400Y-73359498D01*
X92713400Y-73740498D01*
G37*
G36*
X100790600Y-67890502D02*
G01*
X100536600Y-67890502D01*
X100536600Y-67509502D01*
X100790600Y-67509502D01*
X100790600Y-67890502D01*
G37*
D13*
%TO.C,U3*%
X94890923Y-61155401D02*
X98320275Y-61155401D01*
X98320277Y-54551401D02*
X94890925Y-54551401D01*
X96910400Y-54551401D02*
G75*
G02*
X96300800Y-54551401I-304800J0D01*
G01*
D14*
G36*
X92694000Y-60968899D02*
G01*
X92440000Y-60968899D01*
X92440000Y-60587899D01*
X92694000Y-60587899D01*
X92694000Y-60968899D01*
G37*
G36*
X100771200Y-55118903D02*
G01*
X100517200Y-55118903D01*
X100517200Y-54737903D01*
X100771200Y-54737903D01*
X100771200Y-55118903D01*
G37*
D15*
%TO.C,BT1*%
X117640000Y-32960000D02*
X121925000Y-32960000D01*
X117640000Y-92890000D02*
X117640000Y-32960000D01*
X121125000Y-28175000D02*
X121125000Y-29175000D01*
X121375000Y-96675000D02*
X121375000Y-97675000D01*
X121625000Y-28675000D02*
X120625000Y-28675000D01*
X121925000Y-92890000D02*
X117640000Y-92890000D01*
X128905000Y-32960000D02*
X136345000Y-32960000D01*
X135625000Y-28175000D02*
X135625000Y-29175000D01*
X135625000Y-96675000D02*
X135625000Y-97675000D01*
X136125000Y-97175000D02*
X135125000Y-97175000D01*
X136345000Y-92890000D02*
X128905000Y-92890000D01*
X143325000Y-32960000D02*
X147610000Y-32960000D01*
X147610000Y-32960000D02*
X147610000Y-34175000D01*
X147610000Y-36805000D02*
X147610000Y-92890000D01*
X147610000Y-92890000D02*
X143325000Y-92890000D01*
D12*
%TO.C,J1*%
X101945000Y-65845000D02*
X101945000Y-66845000D01*
X101945000Y-66845000D02*
X102945000Y-66345000D01*
X102945000Y-66345000D02*
X101945000Y-65845000D01*
X103335000Y-61135000D02*
X112455000Y-61135000D01*
X103335000Y-73185000D02*
X104645000Y-73185000D01*
X103335000Y-89335000D02*
X103335000Y-61135000D01*
X104645000Y-62435000D02*
X111145000Y-62435000D01*
X104645000Y-73185000D02*
X104645000Y-62435000D01*
X104645000Y-77285000D02*
X103335000Y-77285000D01*
X104645000Y-77285000D02*
X104645000Y-77285000D01*
X104645000Y-88035000D02*
X104645000Y-77285000D01*
X111145000Y-62435000D02*
X111145000Y-88035000D01*
X111145000Y-88035000D02*
X104645000Y-88035000D01*
X112455000Y-61135000D02*
X112455000Y-89335000D01*
X112455000Y-89335000D02*
X103335000Y-89335000D01*
%TO.C,LED1*%
X93175000Y-79325000D02*
X100475000Y-79325000D01*
X93175000Y-84825000D02*
X100475000Y-84825000D01*
X100475000Y-84825000D02*
X100475000Y-83675000D01*
%TO.C,R4*%
X112452064Y-42090000D02*
X111997936Y-42090000D01*
X112452064Y-43560000D02*
X111997936Y-43560000D01*
%TO.C,C13*%
X65090000Y-74286252D02*
X65090000Y-73763748D01*
X66560000Y-74286252D02*
X66560000Y-73763748D01*
%TO.C,C12*%
X64086252Y-90490000D02*
X63563748Y-90490000D01*
X64086252Y-91960000D02*
X63563748Y-91960000D01*
%TO.C,R6*%
X86990000Y-79147936D02*
X86990000Y-79602064D01*
X88460000Y-79147936D02*
X88460000Y-79602064D01*
%TO.C,C1*%
X53290000Y-47763748D02*
X53290000Y-48286252D01*
X54760000Y-47763748D02*
X54760000Y-48286252D01*
%TO.C,C7*%
X65090000Y-67963748D02*
X65090000Y-68486252D01*
X66560000Y-67963748D02*
X66560000Y-68486252D01*
%TO.C,MOL2*%
X51095000Y-64045000D02*
X51095000Y-69345000D01*
X51095000Y-66225000D02*
X51695000Y-66225000D01*
X51095000Y-68765000D02*
X51695000Y-68765000D01*
X51095000Y-69345000D02*
X57115000Y-69345000D01*
X51695000Y-64625000D02*
X51095000Y-64625000D01*
X51695000Y-66225000D02*
X51695000Y-64625000D01*
X51695000Y-67165000D02*
X51095000Y-67165000D01*
X51695000Y-68765000D02*
X51695000Y-67165000D01*
X52125000Y-69635000D02*
X56125000Y-69635000D01*
X55585000Y-65675000D02*
X56115000Y-65425000D01*
X55585000Y-67715000D02*
X55585000Y-65675000D01*
X56115000Y-65425000D02*
X57115000Y-65425000D01*
X56115000Y-67965000D02*
X55585000Y-67715000D01*
X56115000Y-67965000D02*
X56115000Y-65425000D01*
X57115000Y-64045000D02*
X51095000Y-64045000D01*
X57115000Y-65675000D02*
X56115000Y-65675000D01*
X57115000Y-67715000D02*
X56115000Y-67715000D01*
X57115000Y-67965000D02*
X56115000Y-67965000D01*
X57115000Y-69345000D02*
X57115000Y-64045000D01*
%TO.C,MOL1*%
X51095000Y-54905000D02*
X51095000Y-60205000D01*
X51095000Y-57085000D02*
X51695000Y-57085000D01*
X51095000Y-59625000D02*
X51695000Y-59625000D01*
X51095000Y-60205000D02*
X57115000Y-60205000D01*
X51695000Y-55485000D02*
X51095000Y-55485000D01*
X51695000Y-57085000D02*
X51695000Y-55485000D01*
X51695000Y-58025000D02*
X51095000Y-58025000D01*
X51695000Y-59625000D02*
X51695000Y-58025000D01*
X52125000Y-60495000D02*
X56125000Y-60495000D01*
X55585000Y-56535000D02*
X56115000Y-56285000D01*
X55585000Y-58575000D02*
X55585000Y-56535000D01*
X56115000Y-56285000D02*
X57115000Y-56285000D01*
X56115000Y-58825000D02*
X55585000Y-58575000D01*
X56115000Y-58825000D02*
X56115000Y-56285000D01*
X57115000Y-54905000D02*
X51095000Y-54905000D01*
X57115000Y-56535000D02*
X56115000Y-56535000D01*
X57115000Y-58575000D02*
X56115000Y-58575000D01*
X57115000Y-58825000D02*
X56115000Y-58825000D01*
X57115000Y-60205000D02*
X57115000Y-54905000D01*
%TO.C,R10*%
X60740000Y-95852064D02*
X60740000Y-95397936D01*
X62210000Y-95852064D02*
X62210000Y-95397936D01*
%TO.C,R1*%
X104852064Y-43490000D02*
X104397936Y-43490000D01*
X104852064Y-44960000D02*
X104397936Y-44960000D01*
%TO.C,U1*%
X68025000Y-39775000D02*
X68025000Y-45975000D01*
X68025000Y-39775000D02*
X86425000Y-39775000D01*
X68025000Y-64625000D02*
X68025000Y-65625000D01*
X68025000Y-65625000D02*
X69525000Y-65625000D01*
X86425000Y-39775000D02*
X86425000Y-45975000D01*
X86425000Y-65625000D02*
X84925000Y-65625000D01*
X86425000Y-65625000D02*
X86425000Y-64625000D01*
X68025000Y-46650000D02*
X67525000Y-46650000D01*
X68025000Y-46150000D01*
X68025000Y-46650000D01*
G36*
X68025000Y-46650000D02*
G01*
X67525000Y-46650000D01*
X68025000Y-46150000D01*
X68025000Y-46650000D01*
G37*
%TO.C,D2*%
X110490000Y-34840000D02*
X110490000Y-37125000D01*
X111960000Y-34840000D02*
X110490000Y-34840000D01*
X111960000Y-37125000D02*
X111960000Y-34840000D01*
%TO.C,C3*%
X61315000Y-48465580D02*
X61315000Y-48184420D01*
X62335000Y-48465580D02*
X62335000Y-48184420D01*
%TO.C,R9*%
X65490000Y-95377936D02*
X65490000Y-95832064D01*
X66960000Y-95377936D02*
X66960000Y-95832064D01*
%TO.C,C6*%
X97165580Y-64515000D02*
X96884420Y-64515000D01*
X97165580Y-65535000D02*
X96884420Y-65535000D01*
%TO.C,C2*%
X57290000Y-47773748D02*
X57290000Y-48296252D01*
X58760000Y-47773748D02*
X58760000Y-48296252D01*
%TO.C,MOL4*%
X112805000Y-27075000D02*
X112805000Y-31075000D01*
X113095000Y-26045000D02*
X113095000Y-32065000D01*
X113095000Y-32065000D02*
X118395000Y-32065000D01*
X113675000Y-26045000D02*
X113675000Y-26645000D01*
X113675000Y-26645000D02*
X115275000Y-26645000D01*
X114475000Y-31065000D02*
X114725000Y-30535000D01*
X114475000Y-31065000D02*
X117015000Y-31065000D01*
X114475000Y-32065000D02*
X114475000Y-31065000D01*
X114725000Y-30535000D02*
X116765000Y-30535000D01*
X114725000Y-32065000D02*
X114725000Y-31065000D01*
X115275000Y-26645000D02*
X115275000Y-26045000D01*
X116215000Y-26045000D02*
X116215000Y-26645000D01*
X116215000Y-26645000D02*
X117815000Y-26645000D01*
X116765000Y-30535000D02*
X117015000Y-31065000D01*
X116765000Y-32065000D02*
X116765000Y-31065000D01*
X117015000Y-31065000D02*
X117015000Y-32065000D01*
X117815000Y-26645000D02*
X117815000Y-26045000D01*
X118395000Y-26045000D02*
X113095000Y-26045000D01*
X118395000Y-32065000D02*
X118395000Y-26045000D01*
%TO.C,C4*%
X104290000Y-54886252D02*
X104290000Y-54363748D01*
X105760000Y-54886252D02*
X105760000Y-54363748D01*
%TO.C,R7*%
X61090000Y-77852064D02*
X61090000Y-77397936D01*
X62560000Y-77852064D02*
X62560000Y-77397936D01*
%TO.C,R5*%
X78190000Y-82252064D02*
X78190000Y-81797936D01*
X79660000Y-82252064D02*
X79660000Y-81797936D01*
%TO.C,D3*%
X76025000Y-89760000D02*
X78310000Y-89760000D01*
X78310000Y-88290000D02*
X76025000Y-88290000D01*
X78310000Y-89760000D02*
X78310000Y-88290000D01*
%TO.C,R3*%
X97690000Y-88252064D02*
X97690000Y-87797936D01*
X99160000Y-88252064D02*
X99160000Y-87797936D01*
%TO.C,RST1*%
X71075000Y-73425000D02*
X71075000Y-74925000D01*
X72325000Y-77425000D02*
X76825000Y-77425000D01*
X76825000Y-70925000D02*
X72325000Y-70925000D01*
X78075000Y-74925000D02*
X78075000Y-73425000D01*
%TO.C,BOOT1*%
X102625000Y-29425000D02*
X102625000Y-33925000D01*
X105125000Y-35175000D02*
X106625000Y-35175000D01*
X106625000Y-28175000D02*
X105125000Y-28175000D01*
X109125000Y-33925000D02*
X109125000Y-29425000D01*
%TO.C,R8*%
X59490000Y-72052064D02*
X59490000Y-71597936D01*
X60960000Y-72052064D02*
X60960000Y-71597936D01*
%TO.C,R2*%
X74290000Y-81797936D02*
X74290000Y-82252064D01*
X75760000Y-81797936D02*
X75760000Y-82252064D01*
%TO.C,MOL3*%
X51035000Y-73175000D02*
X51035000Y-78475000D01*
X51035000Y-75355000D02*
X51635000Y-75355000D01*
X51035000Y-77895000D02*
X51635000Y-77895000D01*
X51035000Y-78475000D02*
X57055000Y-78475000D01*
X51635000Y-73755000D02*
X51035000Y-73755000D01*
X51635000Y-75355000D02*
X51635000Y-73755000D01*
X51635000Y-76295000D02*
X51035000Y-76295000D01*
X51635000Y-77895000D02*
X51635000Y-76295000D01*
X52065000Y-78765000D02*
X56065000Y-78765000D01*
X55525000Y-74805000D02*
X56055000Y-74555000D01*
X55525000Y-76845000D02*
X55525000Y-74805000D01*
X56055000Y-74555000D02*
X57055000Y-74555000D01*
X56055000Y-77095000D02*
X55525000Y-76845000D01*
X56055000Y-77095000D02*
X56055000Y-74555000D01*
X57055000Y-73175000D02*
X51035000Y-73175000D01*
X57055000Y-74805000D02*
X56055000Y-74805000D01*
X57055000Y-76845000D02*
X56055000Y-76845000D01*
X57055000Y-77095000D02*
X56055000Y-77095000D01*
X57055000Y-78475000D02*
X57055000Y-73175000D01*
D15*
%TO.C,X2*%
X52650000Y-82250000D02*
X52650000Y-91200000D01*
X52650000Y-82250000D02*
X53220000Y-82250000D01*
X52650000Y-91200000D02*
X53220000Y-91200000D01*
X56250000Y-82250000D02*
X55560000Y-82250000D01*
X56250000Y-91200000D02*
X55560000Y-91200000D01*
X59290000Y-82250000D02*
X59310000Y-82250000D01*
X59310000Y-82250000D02*
X59310000Y-83105000D01*
X59310000Y-90345000D02*
X59310000Y-91200000D01*
X59310000Y-91200000D02*
X59290000Y-91200000D01*
D16*
X60125000Y-83750000D02*
G75*
G02*
X59925000Y-83750000I-100000J0D01*
G01*
X59925000Y-83750000D02*
G75*
G02*
X60125000Y-83750000I100000J0D01*
G01*
D12*
%TO.C,C9*%
X88965000Y-84384420D02*
X88965000Y-84665580D01*
X89985000Y-84384420D02*
X89985000Y-84665580D01*
%TO.C,D1*%
X91490000Y-88440000D02*
X91490000Y-90725000D01*
X92960000Y-88440000D02*
X91490000Y-88440000D01*
X92960000Y-90725000D02*
X92960000Y-88440000D01*
%TD*%
%LPC*%
D17*
%TO.C,J2*%
X80250000Y-95675000D03*
D18*
X82790000Y-95675000D03*
X85330000Y-95675000D03*
X87870000Y-95675000D03*
X90410000Y-95675000D03*
X92950000Y-95675000D03*
X95490000Y-95675000D03*
X98030000Y-95675000D03*
X100570000Y-95675000D03*
X103110000Y-95675000D03*
X105650000Y-95675000D03*
X108190000Y-95675000D03*
X110730000Y-95675000D03*
X113270000Y-95675000D03*
%TD*%
D19*
%TO.C,C5*%
X97425000Y-52225000D03*
X95875000Y-52225000D03*
%TD*%
D20*
%TO.C,U4*%
X64675000Y-81925000D03*
X64675000Y-84225000D03*
D21*
X70975000Y-84225000D03*
D20*
X64675000Y-86525000D03*
%TD*%
D22*
%TO.C,C8*%
X85225000Y-85362500D03*
X85225000Y-83287500D03*
%TD*%
D23*
%TO.C,U2*%
X93805600Y-67700000D03*
X93805600Y-68350001D03*
X93805600Y-68999999D03*
X93805600Y-69650001D03*
X93805600Y-70299999D03*
X93805600Y-70949998D03*
X93805600Y-71599999D03*
X93805600Y-72249998D03*
X93805600Y-72899999D03*
X93805600Y-73549998D03*
X99444400Y-73550000D03*
X99444400Y-72900002D03*
X99444400Y-72250001D03*
X99444400Y-71600002D03*
X99444400Y-70950001D03*
X99444400Y-70300002D03*
X99444400Y-69650001D03*
X99444400Y-69000002D03*
X99444400Y-68350001D03*
X99444400Y-67700002D03*
%TD*%
%TO.C,U3*%
X93786200Y-54928401D03*
X93786200Y-55578402D03*
X93786200Y-56228400D03*
X93786200Y-56878402D03*
X93786200Y-57528400D03*
X93786200Y-58178399D03*
X93786200Y-58828400D03*
X93786200Y-59478399D03*
X93786200Y-60128400D03*
X93786200Y-60778399D03*
X99425000Y-60778401D03*
X99425000Y-60128403D03*
X99425000Y-59478402D03*
X99425000Y-58828403D03*
X99425000Y-58178402D03*
X99425000Y-57528403D03*
X99425000Y-56878402D03*
X99425000Y-56228403D03*
X99425000Y-55578402D03*
X99425000Y-54928403D03*
%TD*%
D24*
%TO.C,BT1*%
X146565000Y-35490000D03*
D25*
X139835000Y-31820000D03*
X125415000Y-94030000D03*
X139835000Y-94030000D03*
X125415000Y-31820000D03*
%TD*%
D26*
%TO.C,J1*%
X106625000Y-66345000D03*
D27*
X109165000Y-66345000D03*
X106625000Y-68885000D03*
X109165000Y-68885000D03*
X106625000Y-71425000D03*
X109165000Y-71425000D03*
X106625000Y-73965000D03*
X109165000Y-73965000D03*
X106625000Y-76505000D03*
X109165000Y-76505000D03*
X106625000Y-79045000D03*
X109165000Y-79045000D03*
X106625000Y-81585000D03*
X109165000Y-81585000D03*
X106625000Y-84125000D03*
X109165000Y-84125000D03*
%TD*%
D28*
%TO.C,LED1*%
X94375000Y-80425000D03*
X94375000Y-83725000D03*
X99275000Y-83725000D03*
X99275000Y-80425000D03*
%TD*%
D29*
%TO.C,R4*%
X113225000Y-42825000D03*
X111225000Y-42825000D03*
%TD*%
D22*
%TO.C,C13*%
X65825000Y-75062500D03*
X65825000Y-72987500D03*
%TD*%
D30*
%TO.C,C12*%
X64862500Y-91225000D03*
X62787500Y-91225000D03*
%TD*%
D31*
%TO.C,R6*%
X87725000Y-78375000D03*
X87725000Y-80375000D03*
%TD*%
D32*
%TO.C,C1*%
X54025000Y-46987500D03*
X54025000Y-49062500D03*
%TD*%
%TO.C,C7*%
X65825000Y-67187500D03*
X65825000Y-69262500D03*
%TD*%
D33*
%TO.C,MOL2*%
X54125000Y-67965000D03*
D34*
X54125000Y-65425000D03*
%TD*%
D33*
%TO.C,MOL1*%
X54125000Y-58825000D03*
D34*
X54125000Y-56285000D03*
%TD*%
D35*
%TO.C,R10*%
X61475000Y-96625000D03*
X61475000Y-94625000D03*
%TD*%
D29*
%TO.C,R1*%
X105625000Y-44225000D03*
X103625000Y-44225000D03*
%TD*%
D28*
%TO.C,U1*%
X68475000Y-47415000D03*
X68475000Y-48685000D03*
X68475000Y-49955000D03*
X68475000Y-51225000D03*
X68475000Y-52495000D03*
X68475000Y-53765000D03*
X68475000Y-55035000D03*
X68475000Y-56305000D03*
X68475000Y-57575000D03*
X68475000Y-58845000D03*
X68475000Y-60115000D03*
X68475000Y-61385000D03*
X68475000Y-62655000D03*
X68475000Y-63925000D03*
D36*
X70240000Y-65175000D03*
X71510000Y-65175000D03*
X72780000Y-65175000D03*
X74050000Y-65175000D03*
X75320000Y-65175000D03*
X76590000Y-65175000D03*
X77860000Y-65175000D03*
X79130000Y-65175000D03*
X80400000Y-65175000D03*
X81670000Y-65175000D03*
X82940000Y-65175000D03*
X84210000Y-65175000D03*
D28*
X85975000Y-63925000D03*
X85975000Y-62655000D03*
X85975000Y-61385000D03*
X85975000Y-60115000D03*
X85975000Y-58845000D03*
X85975000Y-57575000D03*
X85975000Y-56305000D03*
X85975000Y-55035000D03*
X85975000Y-53765000D03*
X85975000Y-52495000D03*
X85975000Y-51225000D03*
X85975000Y-49955000D03*
X85975000Y-48685000D03*
X85975000Y-47415000D03*
D37*
X74325000Y-54435000D03*
X74325000Y-55835000D03*
X75025000Y-53735000D03*
X75025000Y-55135000D03*
X75025000Y-56535000D03*
X75725000Y-54435000D03*
D38*
X75725000Y-55135000D03*
D37*
X75725000Y-55835000D03*
X76425000Y-53735000D03*
X76425000Y-55135000D03*
X76425000Y-56535000D03*
X77125000Y-54435000D03*
X77125000Y-55835000D03*
%TD*%
D39*
%TO.C,D2*%
X111225000Y-35537500D03*
X111225000Y-37112500D03*
%TD*%
D40*
%TO.C,C3*%
X61825000Y-49100000D03*
X61825000Y-47550000D03*
%TD*%
D31*
%TO.C,R9*%
X66225000Y-94605000D03*
X66225000Y-96605000D03*
%TD*%
D19*
%TO.C,C6*%
X97800000Y-65025000D03*
X96250000Y-65025000D03*
%TD*%
D32*
%TO.C,C2*%
X58025000Y-46997500D03*
X58025000Y-49072500D03*
%TD*%
D41*
%TO.C,MOL4*%
X114475000Y-29075000D03*
D42*
X117015000Y-29075000D03*
%TD*%
D22*
%TO.C,C4*%
X105025000Y-55662500D03*
X105025000Y-53587500D03*
%TD*%
D35*
%TO.C,R7*%
X61825000Y-78625000D03*
X61825000Y-76625000D03*
%TD*%
%TO.C,R5*%
X78925000Y-83025000D03*
X78925000Y-81025000D03*
%TD*%
D43*
%TO.C,D3*%
X77612500Y-89025000D03*
X76037500Y-89025000D03*
%TD*%
D35*
%TO.C,R3*%
X98425000Y-89025000D03*
X98425000Y-87025000D03*
%TD*%
D44*
%TO.C,RST1*%
X77825000Y-76425000D03*
X71325000Y-76425000D03*
X77825000Y-71925000D03*
X71325000Y-71925000D03*
%TD*%
%TO.C,BOOT1*%
X108125000Y-28425000D03*
X108125000Y-34925000D03*
X103625000Y-28425000D03*
X103625000Y-34925000D03*
%TD*%
D35*
%TO.C,R8*%
X60225000Y-72825000D03*
X60225000Y-70825000D03*
%TD*%
D31*
%TO.C,R2*%
X75025000Y-81025000D03*
X75025000Y-83025000D03*
%TD*%
D33*
%TO.C,MOL3*%
X54065000Y-77095000D03*
D34*
X54065000Y-74555000D03*
%TD*%
D45*
%TO.C,X2*%
X58750000Y-83750000D03*
D46*
X58750000Y-84600000D03*
X58750000Y-85450000D03*
X58750000Y-86300000D03*
X58750000Y-87150000D03*
X58750000Y-88000000D03*
X58750000Y-88850000D03*
X58750000Y-89700000D03*
X57400000Y-89700000D03*
X57400000Y-88850000D03*
X57400000Y-88000000D03*
X57400000Y-87150000D03*
X57400000Y-86300000D03*
X57400000Y-85450000D03*
X57400000Y-84600000D03*
X57400000Y-83750000D03*
D47*
X54390000Y-82400000D03*
X54390000Y-91050000D03*
D48*
X57770000Y-82400000D03*
X57770000Y-91050000D03*
%TD*%
D49*
%TO.C,C9*%
X89475000Y-83750000D03*
X89475000Y-85300000D03*
%TD*%
D39*
%TO.C,D1*%
X92225000Y-89137500D03*
X92225000Y-90712500D03*
%TD*%
%LPD*%
M02*
