M48
; DRILL file {KiCad 8.0.5} date 2025-11-06T18:04:07-0500
; FORMAT={-:-/ absolute / metric / decimal}
; #@! TF.CreationDate,2025-11-06T18:04:07-05:00
; #@! TF.GenerationSoftware,Kicad,Pcbnew,8.0.5
; #@! TF.FileFunction,Plated,1,2,PTH
FMAT,2
METRIC
; #@! TA.AperFunction,Plated,PTH,ComponentDrill
T1C0.200
; #@! TA.AperFunction,Plated,PTH,ViaDrill
T2C0.300
; #@! TA.AperFunction,Plated,PTH,ComponentDrill
T3C0.400
; #@! TA.AperFunction,Plated,PTH,ComponentDrill
T4C0.600
; #@! TA.AperFunction,Plated,PTH,ComponentDrill
T5C1.000
; #@! TA.AperFunction,Plated,PTH,ComponentDrill
T6C1.100
; #@! TA.AperFunction,Plated,PTH,ComponentDrill
T7C1.190
%
G90
G05
T1
X74.325Y-54.435
X74.325Y-55.835
X75.025Y-53.735
X75.025Y-55.135
X75.025Y-56.535
X75.725Y-54.435
X75.725Y-55.835
X76.425Y-53.735
X76.425Y-55.135
X76.425Y-56.535
X77.125Y-54.435
X77.125Y-55.835
T2
X61.275Y-66.875
X61.825Y-73.825
X64.601Y-63.901
X66.075Y-63.275
X66.405Y-58.845
X66.425Y-56.3
X66.425Y-57.575
X74.475Y-67.825
X87.725Y-66.825
X87.725Y-74.36
X88.025Y-62.405
X89.225Y-53.825
X89.225Y-88.825
X90.625Y-53.825
X90.625Y-88.825
X92.125Y-79.075
X101.075Y-66.475
X101.725Y-54.928
T3
X57.4Y-83.75
X57.4Y-84.6
X57.4Y-85.45
X57.4Y-86.3
X57.4Y-87.15
X57.4Y-88.0
X57.4Y-88.85
X57.4Y-89.7
X58.75Y-83.75
X58.75Y-84.6
X58.75Y-85.45
X58.75Y-86.3
X58.75Y-87.15
X58.75Y-88.0
X58.75Y-88.85
X58.75Y-89.7
T5
X80.25Y-95.675
X82.79Y-95.675
X85.33Y-95.675
X87.87Y-95.675
X90.41Y-95.675
X92.95Y-95.675
X95.49Y-95.675
X98.03Y-95.675
X100.57Y-95.675
X103.11Y-95.675
X105.65Y-95.675
X106.625Y-66.345
X106.625Y-68.885
X106.625Y-71.425
X106.625Y-73.965
X106.625Y-76.505
X106.625Y-79.045
X106.625Y-81.585
X106.625Y-84.125
X108.19Y-95.675
X109.165Y-66.345
X109.165Y-68.885
X109.165Y-71.425
X109.165Y-73.965
X109.165Y-76.505
X109.165Y-79.045
X109.165Y-81.585
X109.165Y-84.125
X110.73Y-95.675
X113.27Y-95.675
T6
X71.325Y-71.925
X71.325Y-76.425
X77.825Y-71.925
X77.825Y-76.425
X103.625Y-28.425
X103.625Y-34.925
X108.125Y-28.425
X108.125Y-34.925
T7
X54.065Y-74.555
X54.065Y-77.095
X54.125Y-56.285
X54.125Y-58.825
X54.125Y-65.425
X54.125Y-67.965
X114.475Y-29.075
X117.015Y-29.075
T4
X54.79Y-82.4G85X53.99Y-82.4
G05
X54.79Y-91.05G85X53.99Y-91.05
G05
X58.52Y-82.4G85X57.02Y-82.4
G05
X58.52Y-91.05G85X57.02Y-91.05
G05
M30
