%TF.GenerationSoftware,KiCad,Pcbnew,8.0.5*%
%TF.CreationDate,2025-11-06T18:03:11-05:00*%
%TF.ProjectId,DisplayDriver,44697370-6c61-4794-9472-697665722e6b,1.1*%
%TF.SameCoordinates,PX2fe5f68PY5f33568*%
%TF.FileFunction,Legend,Bot*%
%TF.FilePolarity,Positive*%
%FSLAX46Y46*%
G04 Gerber Fmt 4.6, Leading zero omitted, Abs format (unit mm)*
G04 Created by KiCad (PCBNEW 8.0.5) date 2025-11-06 18:03:11*
%MOMM*%
%LPD*%
G01*
G04 APERTURE LIST*
G04 Aperture macros list*
%AMRoundRect*
0 Rectangle with rounded corners*
0 $1 Rounding radius*
0 $2 $3 $4 $5 $6 $7 $8 $9 X,Y pos of 4 corners*
0 Add a 4 corners polygon primitive as box body*
4,1,4,$2,$3,$4,$5,$6,$7,$8,$9,$2,$3,0*
0 Add four circle primitives for the rounded corners*
1,1,$1+$1,$2,$3*
1,1,$1+$1,$4,$5*
1,1,$1+$1,$6,$7*
1,1,$1+$1,$8,$9*
0 Add four rect primitives between the rounded corners*
20,1,$1+$1,$2,$3,$4,$5,0*
20,1,$1+$1,$4,$5,$6,$7,0*
20,1,$1+$1,$6,$7,$8,$9,0*
20,1,$1+$1,$8,$9,$2,$3,0*%
G04 Aperture macros list end*
%ADD10R,1.700000X1.700000*%
%ADD11O,1.700000X1.700000*%
%ADD12C,1.980000*%
%ADD13RoundRect,0.250000X-0.600000X-0.600000X0.600000X-0.600000X0.600000X0.600000X-0.600000X0.600000X0*%
%ADD14C,1.700000*%
%ADD15RoundRect,0.250000X0.845000X-0.620000X0.845000X0.620000X-0.845000X0.620000X-0.845000X-0.620000X0*%
%ADD16O,2.190000X1.740000*%
%ADD17RoundRect,0.250000X-0.620000X-0.845000X0.620000X-0.845000X0.620000X0.845000X-0.620000X0.845000X0*%
%ADD18O,1.740000X2.190000*%
%ADD19C,2.000000*%
%ADD20RoundRect,0.102000X-0.325000X0.325000X-0.325000X-0.325000X0.325000X-0.325000X0.325000X0.325000X0*%
%ADD21C,0.854000*%
%ADD22O,1.904000X1.104000*%
%ADD23O,2.604000X1.104000*%
G04 APERTURE END LIST*
%LPC*%
D10*
%TO.C,J2*%
X30025000Y4150000D03*
D11*
X32565000Y4150000D03*
X35105000Y4150000D03*
X37645000Y4150000D03*
X40185000Y4150000D03*
X42725000Y4150000D03*
X45265000Y4150000D03*
X47805000Y4150000D03*
X50345000Y4150000D03*
X52885000Y4150000D03*
X55425000Y4150000D03*
X57965000Y4150000D03*
X60505000Y4150000D03*
X63045000Y4150000D03*
%TD*%
D12*
%TO.C,BT1*%
X96340000Y64335000D03*
%TD*%
D13*
%TO.C,J1*%
X56400000Y33480000D03*
D14*
X58940000Y33480000D03*
X56400000Y30940000D03*
X58940000Y30940000D03*
X56400000Y28400000D03*
X58940000Y28400000D03*
X56400000Y25860000D03*
X58940000Y25860000D03*
X56400000Y23320000D03*
X58940000Y23320000D03*
X56400000Y20780000D03*
X58940000Y20780000D03*
X56400000Y18240000D03*
X58940000Y18240000D03*
X56400000Y15700000D03*
X58940000Y15700000D03*
%TD*%
D15*
%TO.C,MOL2*%
X3900000Y31860000D03*
D16*
X3900000Y34400000D03*
%TD*%
D15*
%TO.C,MOL1*%
X3900000Y41000000D03*
D16*
X3900000Y43540000D03*
%TD*%
D17*
%TO.C,MOL4*%
X64250000Y70750000D03*
D18*
X66790000Y70750000D03*
%TD*%
D19*
%TO.C,RST1*%
X27600000Y23400000D03*
X21100000Y23400000D03*
X27600000Y27900000D03*
X21100000Y27900000D03*
%TD*%
%TO.C,BOOT1*%
X57900000Y71400000D03*
X57900000Y64900000D03*
X53400000Y71400000D03*
X53400000Y64900000D03*
%TD*%
D15*
%TO.C,MOL3*%
X3840000Y22730000D03*
D16*
X3840000Y25270000D03*
%TD*%
D20*
%TO.C,X2*%
X8525000Y16075000D03*
D21*
X8525000Y15225000D03*
X8525000Y14375000D03*
X8525000Y13525000D03*
X8525000Y12675000D03*
X8525000Y11825000D03*
X8525000Y10975000D03*
X8525000Y10125000D03*
X7175000Y10125000D03*
X7175000Y10975000D03*
X7175000Y11825000D03*
X7175000Y12675000D03*
X7175000Y13525000D03*
X7175000Y14375000D03*
X7175000Y15225000D03*
X7175000Y16075000D03*
D22*
X4165000Y17425000D03*
X4165000Y8775000D03*
D23*
X7545000Y17425000D03*
X7545000Y8775000D03*
%TD*%
%LPD*%
M02*
