%TF.GenerationSoftware,KiCad,Pcbnew,9.0.6*%
%TF.CreationDate,2025-12-10T13:08:18-05:00*%
%TF.ProjectId,DisplayDriver,44697370-6c61-4794-9472-697665722e6b,1.1*%
%TF.SameCoordinates,Original*%
%TF.FileFunction,Copper,L2,Bot*%
%TF.FilePolarity,Positive*%
%FSLAX46Y46*%
G04 Gerber Fmt 4.6, Leading zero omitted, Abs format (unit mm)*
G04 Created by KiCad (PCBNEW 9.0.6) date 2025-12-10 13:08:18*
%MOMM*%
%LPD*%
G01*
G04 APERTURE LIST*
G04 Aperture macros list*
%AMRoundRect*
0 Rectangle with rounded corners*
0 $1 Rounding radius*
0 $2 $3 $4 $5 $6 $7 $8 $9 X,Y pos of 4 corners*
0 Add a 4 corners polygon primitive as box body*
4,1,4,$2,$3,$4,$5,$6,$7,$8,$9,$2,$3,0*
0 Add four circle primitives for the rounded corners*
1,1,$1+$1,$2,$3*
1,1,$1+$1,$4,$5*
1,1,$1+$1,$6,$7*
1,1,$1+$1,$8,$9*
0 Add four rect primitives between the rounded corners*
20,1,$1+$1,$2,$3,$4,$5,0*
20,1,$1+$1,$4,$5,$6,$7,0*
20,1,$1+$1,$6,$7,$8,$9,0*
20,1,$1+$1,$8,$9,$2,$3,0*%
G04 Aperture macros list end*
%TA.AperFunction,ComponentPad*%
%ADD10R,1.700000X1.700000*%
%TD*%
%TA.AperFunction,ComponentPad*%
%ADD11O,1.700000X1.700000*%
%TD*%
%TA.AperFunction,ComponentPad*%
%ADD12RoundRect,0.250000X-0.600000X-0.600000X0.600000X-0.600000X0.600000X0.600000X-0.600000X0.600000X0*%
%TD*%
%TA.AperFunction,ComponentPad*%
%ADD13C,1.700000*%
%TD*%
%TA.AperFunction,ComponentPad*%
%ADD14RoundRect,0.250000X0.845000X-0.620000X0.845000X0.620000X-0.845000X0.620000X-0.845000X-0.620000X0*%
%TD*%
%TA.AperFunction,ComponentPad*%
%ADD15O,2.190000X1.740000*%
%TD*%
%TA.AperFunction,HeatsinkPad*%
%ADD16C,0.600000*%
%TD*%
%TA.AperFunction,ComponentPad*%
%ADD17RoundRect,0.250000X-0.620000X-0.845000X0.620000X-0.845000X0.620000X0.845000X-0.620000X0.845000X0*%
%TD*%
%TA.AperFunction,ComponentPad*%
%ADD18O,1.740000X2.190000*%
%TD*%
%TA.AperFunction,ComponentPad*%
%ADD19C,2.000000*%
%TD*%
%TA.AperFunction,ComponentPad*%
%ADD20R,0.650000X0.650000*%
%TD*%
%TA.AperFunction,ComponentPad*%
%ADD21C,0.650000*%
%TD*%
%TA.AperFunction,ComponentPad*%
%ADD22O,1.700000X0.900000*%
%TD*%
%TA.AperFunction,ComponentPad*%
%ADD23O,2.400000X0.900000*%
%TD*%
%TA.AperFunction,ViaPad*%
%ADD24C,0.600000*%
%TD*%
%TA.AperFunction,Conductor*%
%ADD25C,0.400000*%
%TD*%
%TA.AperFunction,Conductor*%
%ADD26C,0.200000*%
%TD*%
%TA.AperFunction,Conductor*%
%ADD27C,0.600000*%
%TD*%
%TA.AperFunction,Conductor*%
%ADD28C,1.000000*%
%TD*%
%TA.AperFunction,Conductor*%
%ADD29C,0.310000*%
%TD*%
G04 APERTURE END LIST*
D10*
%TO.P,J2,1,Pin_1*%
%TO.N,/~{RESET}*%
X80250000Y-95675000D03*
D11*
%TO.P,J2,2,Pin_2*%
%TO.N,/BOOT0*%
X82790000Y-95675000D03*
%TO.P,J2,3,Pin_3*%
%TO.N,/UART_RX*%
X85330000Y-95675000D03*
%TO.P,J2,4,Pin_4*%
%TO.N,/UART_TX*%
X87870000Y-95675000D03*
%TO.P,J2,5,Pin_5*%
%TO.N,/D9*%
X90410000Y-95675000D03*
%TO.P,J2,6,Pin_6*%
%TO.N,/NEOPIX*%
X92950000Y-95675000D03*
%TO.P,J2,7,Pin_7*%
%TO.N,unconnected-(J2-Pin_7-Pad7)*%
X95490000Y-95675000D03*
%TO.P,J2,8,Pin_8*%
%TO.N,unconnected-(J2-Pin_8-Pad8)*%
X98030000Y-95675000D03*
%TO.P,J2,9,Pin_9*%
%TO.N,unconnected-(J2-Pin_9-Pad9)*%
X100570000Y-95675000D03*
%TO.P,J2,10,Pin_10*%
%TO.N,unconnected-(J2-Pin_10-Pad10)*%
X103110000Y-95675000D03*
%TO.P,J2,11,Pin_11*%
%TO.N,unconnected-(J2-Pin_11-Pad11)*%
X105650000Y-95675000D03*
%TO.P,J2,12,Pin_12*%
%TO.N,3.3V*%
X108190000Y-95675000D03*
%TO.P,J2,13,Pin_13*%
%TO.N,+5V*%
X110730000Y-95675000D03*
%TO.P,J2,14,Pin_14*%
%TO.N,GND*%
X113270000Y-95675000D03*
%TD*%
D12*
%TO.P,J1,01,01*%
%TO.N,/M1_R1*%
X106625000Y-66345000D03*
D13*
%TO.P,J1,02,02*%
%TO.N,/M1_G1*%
X109165000Y-66345000D03*
%TO.P,J1,03,03*%
%TO.N,/M1_B1*%
X106625000Y-68885000D03*
%TO.P,J1,04,04*%
%TO.N,GND*%
X109165000Y-68885000D03*
%TO.P,J1,05,05*%
%TO.N,/M1_R2*%
X106625000Y-71425000D03*
%TO.P,J1,06,06*%
%TO.N,/M1_G2*%
X109165000Y-71425000D03*
%TO.P,J1,07,07*%
%TO.N,/M1_B2*%
X106625000Y-73965000D03*
%TO.P,J1,08,08*%
%TO.N,GND*%
X109165000Y-73965000D03*
%TO.P,J1,09,09*%
%TO.N,/M1_A*%
X106625000Y-76505000D03*
%TO.P,J1,10,10*%
%TO.N,/M1_B*%
X109165000Y-76505000D03*
%TO.P,J1,11,11*%
%TO.N,/M1_C*%
X106625000Y-79045000D03*
%TO.P,J1,12,12*%
%TO.N,/M1_D*%
X109165000Y-79045000D03*
%TO.P,J1,13,13*%
%TO.N,/CLK*%
X106625000Y-81585000D03*
%TO.P,J1,14,14*%
%TO.N,/LAT*%
X109165000Y-81585000D03*
%TO.P,J1,15,15*%
%TO.N,/OE*%
X106625000Y-84125000D03*
%TO.P,J1,16,16*%
%TO.N,GND*%
X109165000Y-84125000D03*
%TD*%
D14*
%TO.P,MOL2,1,1*%
%TO.N,GND*%
X54125000Y-67965000D03*
D15*
%TO.P,MOL2,2,2*%
%TO.N,/A1*%
X54125000Y-65425000D03*
%TD*%
D14*
%TO.P,MOL1,1,1*%
%TO.N,GND*%
X54125000Y-58825000D03*
D15*
%TO.P,MOL1,2,2*%
%TO.N,/A0*%
X54125000Y-56285000D03*
%TD*%
D16*
%TO.P,U1,41,GND*%
%TO.N,GND*%
X74325000Y-54435000D03*
X74325000Y-55835000D03*
X75025000Y-53735000D03*
X75025000Y-55135000D03*
X75025000Y-56535000D03*
X75725000Y-54435000D03*
X75725000Y-55835000D03*
X76425000Y-53735000D03*
X76425000Y-55135000D03*
X76425000Y-56535000D03*
X77125000Y-54435000D03*
X77125000Y-55835000D03*
%TD*%
D17*
%TO.P,MOL4,1,Pin_1*%
%TO.N,+5V*%
X114475000Y-29075000D03*
D18*
%TO.P,MOL4,2,Pin_2*%
%TO.N,GND*%
X117015000Y-29075000D03*
%TD*%
D19*
%TO.P,RST1,1,1*%
%TO.N,GND*%
X77825000Y-76425000D03*
X71325000Y-76425000D03*
%TO.P,RST1,2,2*%
%TO.N,/~{RESET}*%
X77825000Y-71925000D03*
X71325000Y-71925000D03*
%TD*%
%TO.P,BOOT1,1,1*%
%TO.N,/BOOT0*%
X108125000Y-28425000D03*
X108125000Y-34925000D03*
%TO.P,BOOT1,2,2*%
%TO.N,GND*%
X103625000Y-28425000D03*
X103625000Y-34925000D03*
%TD*%
D14*
%TO.P,MOL3,1,1*%
%TO.N,GND*%
X54065000Y-77095000D03*
D15*
%TO.P,MOL3,2,2*%
%TO.N,/A2*%
X54065000Y-74555000D03*
%TD*%
D20*
%TO.P,X2,A1,GND*%
%TO.N,GND*%
X58750000Y-83750000D03*
D21*
%TO.P,X2,A4,VBUS*%
%TO.N,+5V*%
X58750000Y-84600000D03*
%TO.P,X2,A5,CC1*%
%TO.N,/CC1B*%
X58750000Y-85450000D03*
%TO.P,X2,A6,DP1*%
%TO.N,/DP_B*%
X58750000Y-86300000D03*
%TO.P,X2,A7,DN1*%
%TO.N,/DN_B*%
X58750000Y-87150000D03*
%TO.P,X2,A8,SBU1*%
%TO.N,unconnected-(X2-SBU1-PadA8)*%
X58750000Y-88000000D03*
%TO.P,X2,A9,VBUS*%
%TO.N,+5V*%
X58750000Y-88850000D03*
%TO.P,X2,A12,GND*%
%TO.N,GND*%
X58750000Y-89700000D03*
%TO.P,X2,B1,GND*%
X57400000Y-89700000D03*
%TO.P,X2,B4,VBUS*%
%TO.N,+5V*%
X57400000Y-88850000D03*
%TO.P,X2,B5,CC2*%
%TO.N,/CC2B*%
X57400000Y-88000000D03*
%TO.P,X2,B6,DP2*%
%TO.N,/DP_B*%
X57400000Y-87150000D03*
%TO.P,X2,B7,DN2*%
%TO.N,/DN_B*%
X57400000Y-86300000D03*
%TO.P,X2,B8,SBU2*%
%TO.N,unconnected-(X2-SBU2-PadB8)*%
X57400000Y-85450000D03*
%TO.P,X2,B9,VBUS*%
%TO.N,+5V*%
X57400000Y-84600000D03*
%TO.P,X2,B12,GND*%
%TO.N,GND*%
X57400000Y-83750000D03*
D22*
%TO.P,X2,SH1,SHIELD*%
X54390000Y-82400000D03*
%TO.P,X2,SH2,SHIELD*%
X54390000Y-91050000D03*
D23*
%TO.P,X2,SH3,SHIELD*%
X57770000Y-82400000D03*
%TO.P,X2,SH4,SHIELD*%
X57770000Y-91050000D03*
%TD*%
D24*
%TO.N,/UART_TX*%
X90625000Y-88825000D03*
X90625000Y-53825000D03*
%TO.N,/UART_RX*%
X89225000Y-88825000D03*
X89225000Y-53825000D03*
%TO.N,/BOOT0*%
X88025000Y-62405000D03*
%TO.N,/NEOPIX*%
X87725000Y-74360000D03*
X92125000Y-79075000D03*
X87725000Y-66825000D03*
%TO.N,+5V*%
X101075000Y-66475000D03*
X101725000Y-54928403D03*
%TO.N,/DB-*%
X61825000Y-73825000D03*
X66075000Y-63275000D03*
%TO.N,/DB+*%
X61275000Y-66875000D03*
X64600735Y-63900735D03*
%TO.N,/D9*%
X74475000Y-67825000D03*
%TO.N,/A0*%
X66425000Y-56300000D03*
%TO.N,/A1*%
X66425000Y-57575000D03*
%TO.N,/A2*%
X66405000Y-58845000D03*
%TD*%
D25*
%TO.N,GND*%
X58815000Y-92000000D02*
X57465000Y-92000000D01*
D26*
X103625000Y-34925000D02*
X103625000Y-28425000D01*
X71325000Y-76425000D02*
X77825000Y-76425000D01*
D25*
X58750000Y-83750000D02*
X57400000Y-83750000D01*
D26*
%TO.N,/~{RESET}*%
X71325000Y-71925000D02*
X77825000Y-71925000D01*
%TO.N,unconnected-(J2-Pin_10-Pad10)*%
X103085000Y-95650000D02*
X103110000Y-95675000D01*
%TO.N,/UART_TX*%
X90625000Y-88825000D02*
X90625000Y-53825000D01*
%TO.N,/UART_RX*%
X89225000Y-88825000D02*
X89225000Y-53825000D01*
%TO.N,/BOOT0*%
X88025000Y-52625000D02*
X91025000Y-49625000D01*
X88025000Y-62405000D02*
X87195000Y-61575000D01*
X73225000Y-64325000D02*
X73225000Y-68075000D01*
X91025000Y-49625000D02*
X99225000Y-49625000D01*
X88025000Y-62405000D02*
X88025000Y-52625000D01*
X107925000Y-35125000D02*
X108125000Y-34925000D01*
X99225000Y-49625000D02*
X107925000Y-40925000D01*
X107925000Y-40925000D02*
X107925000Y-35125000D01*
X73225000Y-68075000D02*
X74475000Y-69325000D01*
X74475000Y-69325000D02*
X77475000Y-69325000D01*
X108125000Y-28425000D02*
X108125000Y-34925000D01*
X87195000Y-61575000D02*
X75975000Y-61575000D01*
X75975000Y-61575000D02*
X73225000Y-64325000D01*
X77475000Y-69325000D02*
X82725000Y-74575000D01*
X82725000Y-74575000D02*
X82725000Y-95610000D01*
%TO.N,/NEOPIX*%
X87725000Y-66825000D02*
X87725000Y-74360000D01*
X92125000Y-79075000D02*
X92950000Y-79900000D01*
X92950000Y-79900000D02*
X92950000Y-95675000D01*
X92925000Y-95700000D02*
X92950000Y-95675000D01*
D27*
%TO.N,+5V*%
X56450000Y-88850000D02*
X57400000Y-88850000D01*
D28*
X108832032Y-97225000D02*
X110382032Y-95675000D01*
X110382032Y-95675000D02*
X110730000Y-95675000D01*
D27*
X55025000Y-87425000D02*
X53325000Y-87425000D01*
X53325000Y-87425000D02*
X54175000Y-86575000D01*
X51725000Y-89025000D02*
X53325000Y-87425000D01*
X57400000Y-84600000D02*
X58750000Y-84600000D01*
X54175000Y-86575000D02*
X56150000Y-84600000D01*
X56450000Y-88850000D02*
X55025000Y-87425000D01*
X53325000Y-93225000D02*
X51725000Y-91625000D01*
D29*
X101725000Y-65825000D02*
X101725000Y-54928403D01*
D27*
X56150000Y-84600000D02*
X57400000Y-84600000D01*
X55825000Y-93225000D02*
X53325000Y-93225000D01*
X51725000Y-91625000D02*
X51725000Y-89025000D01*
X57400000Y-88850000D02*
X58750000Y-88850000D01*
D28*
X59825000Y-97225000D02*
X108832032Y-97225000D01*
D29*
X101075000Y-66475000D02*
X101725000Y-65825000D01*
D27*
X59825000Y-97225000D02*
X55825000Y-93225000D01*
D26*
%TO.N,/DN_B*%
X58716116Y-87150000D02*
X58750000Y-87150000D01*
X57400000Y-86300000D02*
X57866116Y-86300000D01*
X57866116Y-86300000D02*
X58716116Y-87150000D01*
%TO.N,/DB-*%
X61825000Y-73825000D02*
X61825000Y-67525000D01*
X61825000Y-67525000D02*
X66075000Y-63275000D01*
%TO.N,/DB+*%
X64600735Y-63900735D02*
X64249265Y-63900735D01*
X64249265Y-63900735D02*
X61275000Y-66875000D01*
%TO.N,/D9*%
X74475000Y-67825000D02*
X77475000Y-67825000D01*
X77475000Y-67825000D02*
X83725000Y-74075000D01*
X83725000Y-88990000D02*
X90410000Y-95675000D01*
X83725000Y-74075000D02*
X83725000Y-88990000D01*
%TO.N,/A0*%
X66425000Y-56300000D02*
X66410000Y-56285000D01*
X66410000Y-56285000D02*
X53975000Y-56285000D01*
%TO.N,/A1*%
X66425000Y-57575000D02*
X61975000Y-57575000D01*
X54125000Y-65425000D02*
X54125000Y-65385000D01*
X61975000Y-57575000D02*
X54125000Y-65425000D01*
%TO.N,/A2*%
X57625000Y-63825000D02*
X57625000Y-70995000D01*
X66405000Y-58845000D02*
X62605000Y-58845000D01*
X62605000Y-58845000D02*
X57625000Y-63825000D01*
X57625000Y-70995000D02*
X54065000Y-74555000D01*
%TD*%
%TA.AperFunction,Conductor*%
%TO.N,GND*%
G36*
X53168039Y-25345185D02*
G01*
X53213794Y-25397989D01*
X53225000Y-25449500D01*
X53225000Y-45925000D01*
X101225000Y-45925000D01*
X101225000Y-34806947D01*
X102125000Y-34806947D01*
X102125000Y-35043052D01*
X102161934Y-35276247D01*
X102234897Y-35500802D01*
X102342087Y-35711174D01*
X102402338Y-35794104D01*
X102402340Y-35794105D01*
X103101212Y-35095233D01*
X103112482Y-35137292D01*
X103184890Y-35262708D01*
X103287292Y-35365110D01*
X103412708Y-35437518D01*
X103454765Y-35448787D01*
X102755893Y-36147658D01*
X102838828Y-36207914D01*
X103049197Y-36315102D01*
X103273752Y-36388065D01*
X103273751Y-36388065D01*
X103506948Y-36425000D01*
X103743052Y-36425000D01*
X103976247Y-36388065D01*
X104200802Y-36315102D01*
X104411163Y-36207918D01*
X104411169Y-36207914D01*
X104494104Y-36147658D01*
X104494105Y-36147658D01*
X103795233Y-35448787D01*
X103837292Y-35437518D01*
X103962708Y-35365110D01*
X104065110Y-35262708D01*
X104137518Y-35137292D01*
X104148787Y-35095234D01*
X104847658Y-35794105D01*
X104847658Y-35794104D01*
X104907914Y-35711169D01*
X104907918Y-35711163D01*
X105015102Y-35500802D01*
X105088065Y-35276247D01*
X105125000Y-35043052D01*
X105125000Y-34806947D01*
X105088065Y-34573752D01*
X105015102Y-34349197D01*
X104907914Y-34138828D01*
X104847658Y-34055894D01*
X104847658Y-34055893D01*
X104148787Y-34754765D01*
X104137518Y-34712708D01*
X104065110Y-34587292D01*
X103962708Y-34484890D01*
X103837292Y-34412482D01*
X103795234Y-34401212D01*
X104494105Y-33702340D01*
X104494104Y-33702338D01*
X104411174Y-33642087D01*
X104200802Y-33534897D01*
X103976247Y-33461934D01*
X103976248Y-33461934D01*
X103743052Y-33425000D01*
X103506948Y-33425000D01*
X103273752Y-33461934D01*
X103049197Y-33534897D01*
X102838830Y-33642084D01*
X102755894Y-33702340D01*
X103454766Y-34401212D01*
X103412708Y-34412482D01*
X103287292Y-34484890D01*
X103184890Y-34587292D01*
X103112482Y-34712708D01*
X103101212Y-34754766D01*
X102402340Y-34055894D01*
X102342084Y-34138830D01*
X102234897Y-34349197D01*
X102161934Y-34573752D01*
X102125000Y-34806947D01*
X101225000Y-34806947D01*
X101225000Y-28306947D01*
X102125000Y-28306947D01*
X102125000Y-28543052D01*
X102161934Y-28776247D01*
X102234897Y-29000802D01*
X102342087Y-29211174D01*
X102402338Y-29294104D01*
X102402340Y-29294105D01*
X103101212Y-28595233D01*
X103112482Y-28637292D01*
X103184890Y-28762708D01*
X103287292Y-28865110D01*
X103412708Y-28937518D01*
X103454765Y-28948787D01*
X102755893Y-29647658D01*
X102838828Y-29707914D01*
X103049197Y-29815102D01*
X103273752Y-29888065D01*
X103273751Y-29888065D01*
X103506948Y-29925000D01*
X103743052Y-29925000D01*
X103976247Y-29888065D01*
X104200802Y-29815102D01*
X104411163Y-29707918D01*
X104411169Y-29707914D01*
X104494104Y-29647658D01*
X104494105Y-29647658D01*
X103795233Y-28948787D01*
X103837292Y-28937518D01*
X103962708Y-28865110D01*
X104065110Y-28762708D01*
X104137518Y-28637292D01*
X104148787Y-28595234D01*
X104847658Y-29294105D01*
X104847658Y-29294104D01*
X104907914Y-29211169D01*
X104907918Y-29211163D01*
X105015102Y-29000802D01*
X105088065Y-28776247D01*
X105125000Y-28543052D01*
X105125000Y-28306947D01*
X105088065Y-28073752D01*
X105015102Y-27849197D01*
X104907914Y-27638828D01*
X104847658Y-27555894D01*
X104847658Y-27555893D01*
X104148787Y-28254765D01*
X104137518Y-28212708D01*
X104065110Y-28087292D01*
X103962708Y-27984890D01*
X103837292Y-27912482D01*
X103795234Y-27901212D01*
X104494105Y-27202340D01*
X104494104Y-27202338D01*
X104411174Y-27142087D01*
X104200802Y-27034897D01*
X103976247Y-26961934D01*
X103976248Y-26961934D01*
X103743052Y-26925000D01*
X103506948Y-26925000D01*
X103273752Y-26961934D01*
X103049197Y-27034897D01*
X102838830Y-27142084D01*
X102755894Y-27202340D01*
X103454766Y-27901212D01*
X103412708Y-27912482D01*
X103287292Y-27984890D01*
X103184890Y-28087292D01*
X103112482Y-28212708D01*
X103101212Y-28254766D01*
X102402340Y-27555894D01*
X102342084Y-27638830D01*
X102234897Y-27849197D01*
X102161934Y-28073752D01*
X102125000Y-28306947D01*
X101225000Y-28306947D01*
X101225000Y-25449500D01*
X101244685Y-25382461D01*
X101297489Y-25336706D01*
X101349000Y-25325500D01*
X145339078Y-25325500D01*
X145406117Y-25345185D01*
X145451872Y-25397989D01*
X145461816Y-25467147D01*
X145432791Y-25530703D01*
X145405050Y-25554494D01*
X145243920Y-25655738D01*
X144989217Y-25858856D01*
X144758856Y-26089217D01*
X144555738Y-26343920D01*
X144382413Y-26619765D01*
X144241066Y-26913274D01*
X144133471Y-27220761D01*
X144133467Y-27220773D01*
X144060976Y-27538379D01*
X144060974Y-27538395D01*
X144024500Y-27862106D01*
X144024500Y-28187893D01*
X144060974Y-28511604D01*
X144060976Y-28511620D01*
X144133467Y-28829226D01*
X144133471Y-28829238D01*
X144241066Y-29136725D01*
X144382413Y-29430234D01*
X144382415Y-29430237D01*
X144555739Y-29706081D01*
X144675624Y-29856412D01*
X144750357Y-29950125D01*
X144758857Y-29960783D01*
X144989217Y-30191143D01*
X145243919Y-30394261D01*
X145519763Y-30567585D01*
X145813278Y-30708935D01*
X146044217Y-30789744D01*
X146120761Y-30816528D01*
X146120773Y-30816532D01*
X146438383Y-30889024D01*
X146762106Y-30925499D01*
X146762107Y-30925500D01*
X146762111Y-30925500D01*
X147087893Y-30925500D01*
X147087893Y-30925499D01*
X147411617Y-30889024D01*
X147729227Y-30816532D01*
X148036722Y-30708935D01*
X148330237Y-30567585D01*
X148606081Y-30394261D01*
X148860783Y-30191143D01*
X149091143Y-29960783D01*
X149294261Y-29706081D01*
X149467585Y-29430237D01*
X149486844Y-29390244D01*
X149533666Y-29338386D01*
X149601093Y-29320073D01*
X149667717Y-29341120D01*
X149712385Y-29394846D01*
X149722564Y-29444043D01*
X149724431Y-94938964D01*
X149704748Y-95006004D01*
X149651946Y-95051761D01*
X149582787Y-95061706D01*
X149519231Y-95032683D01*
X149495437Y-95004940D01*
X149394261Y-94843919D01*
X149191143Y-94589217D01*
X148960783Y-94358857D01*
X148706081Y-94155739D01*
X148430237Y-93982415D01*
X148430234Y-93982413D01*
X148136725Y-93841066D01*
X147829238Y-93733471D01*
X147829226Y-93733467D01*
X147511620Y-93660976D01*
X147511604Y-93660974D01*
X147187893Y-93624500D01*
X147187889Y-93624500D01*
X146862111Y-93624500D01*
X146862107Y-93624500D01*
X146538395Y-93660974D01*
X146538379Y-93660976D01*
X146220773Y-93733467D01*
X146220761Y-93733471D01*
X145913274Y-93841066D01*
X145619765Y-93982413D01*
X145343920Y-94155738D01*
X145089217Y-94358856D01*
X144858856Y-94589217D01*
X144655738Y-94843920D01*
X144482413Y-95119765D01*
X144341066Y-95413274D01*
X144233471Y-95720761D01*
X144233467Y-95720773D01*
X144160976Y-96038379D01*
X144160974Y-96038395D01*
X144124500Y-96362106D01*
X144124500Y-96687893D01*
X144160974Y-97011604D01*
X144160976Y-97011620D01*
X144233467Y-97329226D01*
X144233471Y-97329238D01*
X144341066Y-97636725D01*
X144482413Y-97930234D01*
X144482415Y-97930237D01*
X144655739Y-98206081D01*
X144753453Y-98328610D01*
X144829279Y-98423694D01*
X144858857Y-98460783D01*
X145089217Y-98691143D01*
X145343919Y-98894261D01*
X145619763Y-99067585D01*
X145619765Y-99067586D01*
X145663774Y-99088780D01*
X145715633Y-99135603D01*
X145733946Y-99203030D01*
X145712898Y-99269654D01*
X145659172Y-99314322D01*
X145609972Y-99324500D01*
X55110922Y-99324500D01*
X55043883Y-99304815D01*
X54998128Y-99252011D01*
X54988184Y-99182853D01*
X55017209Y-99119297D01*
X55044950Y-99095506D01*
X55206081Y-98994261D01*
X55460783Y-98791143D01*
X55691143Y-98560783D01*
X55894261Y-98306081D01*
X56067585Y-98030237D01*
X56208935Y-97736722D01*
X56316532Y-97429227D01*
X56389024Y-97111617D01*
X56425500Y-96787889D01*
X56425500Y-96462111D01*
X56389024Y-96138383D01*
X56316532Y-95820773D01*
X56208935Y-95513278D01*
X56067585Y-95219763D01*
X55894261Y-94943919D01*
X55691143Y-94689217D01*
X55460783Y-94458857D01*
X55206081Y-94255739D01*
X54930237Y-94082415D01*
X54930234Y-94082413D01*
X54678575Y-93961220D01*
X54626716Y-93914397D01*
X54608403Y-93846970D01*
X54629451Y-93780346D01*
X54683177Y-93735678D01*
X54732377Y-93725500D01*
X55566324Y-93725500D01*
X55633363Y-93745185D01*
X55654005Y-93761819D01*
X59088181Y-97195994D01*
X59121666Y-97257317D01*
X59124500Y-97283675D01*
X59124500Y-97293993D01*
X59124500Y-97293995D01*
X59124499Y-97293995D01*
X59151418Y-97429322D01*
X59151421Y-97429332D01*
X59204221Y-97556804D01*
X59204228Y-97556817D01*
X59280885Y-97671541D01*
X59280888Y-97671545D01*
X59378454Y-97769111D01*
X59378458Y-97769114D01*
X59493182Y-97845771D01*
X59493195Y-97845778D01*
X59620667Y-97898578D01*
X59620672Y-97898580D01*
X59620676Y-97898580D01*
X59620677Y-97898581D01*
X59756004Y-97925500D01*
X59756007Y-97925500D01*
X108901028Y-97925500D01*
X108992072Y-97907389D01*
X109036360Y-97898580D01*
X109100101Y-97872177D01*
X109163839Y-97845777D01*
X109163840Y-97845776D01*
X109163843Y-97845775D01*
X109278575Y-97769114D01*
X110325817Y-96721870D01*
X110387138Y-96688387D01*
X110437687Y-96687936D01*
X110626532Y-96725499D01*
X110626534Y-96725500D01*
X110626535Y-96725500D01*
X110833466Y-96725500D01*
X110833467Y-96725499D01*
X111036420Y-96685130D01*
X111227598Y-96605941D01*
X111399655Y-96490977D01*
X111545977Y-96344655D01*
X111660941Y-96172598D01*
X111729165Y-96007889D01*
X111773004Y-95953488D01*
X111839298Y-95931423D01*
X111906998Y-95948702D01*
X111954609Y-95999839D01*
X111961656Y-96017026D01*
X112018904Y-96193216D01*
X112115379Y-96382557D01*
X112240272Y-96554459D01*
X112240276Y-96554464D01*
X112390535Y-96704723D01*
X112390540Y-96704727D01*
X112562442Y-96829620D01*
X112751782Y-96926095D01*
X112953871Y-96991757D01*
X113020000Y-97002231D01*
X113020000Y-96108012D01*
X113077007Y-96140925D01*
X113204174Y-96175000D01*
X113335826Y-96175000D01*
X113462993Y-96140925D01*
X113520000Y-96108012D01*
X113520000Y-97002230D01*
X113586126Y-96991757D01*
X113586129Y-96991757D01*
X113788217Y-96926095D01*
X113977557Y-96829620D01*
X114149459Y-96704727D01*
X114149464Y-96704723D01*
X114299723Y-96554464D01*
X114299727Y-96554459D01*
X114424620Y-96382557D01*
X114521095Y-96193217D01*
X114586757Y-95991129D01*
X114586757Y-95991126D01*
X114597231Y-95925000D01*
X113703012Y-95925000D01*
X113735925Y-95867993D01*
X113770000Y-95740826D01*
X113770000Y-95609174D01*
X113735925Y-95482007D01*
X113703012Y-95425000D01*
X114597231Y-95425000D01*
X114586757Y-95358873D01*
X114586757Y-95358870D01*
X114521095Y-95156782D01*
X114424620Y-94967442D01*
X114299727Y-94795540D01*
X114299723Y-94795535D01*
X114149464Y-94645276D01*
X114149459Y-94645272D01*
X113977557Y-94520379D01*
X113788215Y-94423903D01*
X113586124Y-94358241D01*
X113520000Y-94347768D01*
X113520000Y-95241988D01*
X113462993Y-95209075D01*
X113335826Y-95175000D01*
X113204174Y-95175000D01*
X113077007Y-95209075D01*
X113020000Y-95241988D01*
X113020000Y-94347768D01*
X113019999Y-94347768D01*
X112953875Y-94358241D01*
X112751784Y-94423903D01*
X112562442Y-94520379D01*
X112390540Y-94645272D01*
X112390535Y-94645276D01*
X112240276Y-94795535D01*
X112240272Y-94795540D01*
X112115379Y-94967442D01*
X112018905Y-95156781D01*
X111961656Y-95332974D01*
X111922218Y-95390649D01*
X111857859Y-95417847D01*
X111789013Y-95405932D01*
X111737537Y-95358688D01*
X111729164Y-95342107D01*
X111718198Y-95315633D01*
X111696718Y-95263774D01*
X111660943Y-95177405D01*
X111545975Y-95005342D01*
X111399657Y-94859024D01*
X111304638Y-94795535D01*
X111227598Y-94744059D01*
X111227593Y-94744057D01*
X111036420Y-94664870D01*
X111036412Y-94664868D01*
X110833469Y-94624500D01*
X110833465Y-94624500D01*
X110626535Y-94624500D01*
X110626530Y-94624500D01*
X110423587Y-94664868D01*
X110423579Y-94664870D01*
X110232403Y-94744058D01*
X110060342Y-94859024D01*
X109914022Y-95005344D01*
X109799062Y-95177395D01*
X109799059Y-95177402D01*
X109744917Y-95308109D01*
X109718037Y-95348336D01*
X109446737Y-95619636D01*
X109385414Y-95653121D01*
X109315722Y-95648137D01*
X109259789Y-95606265D01*
X109237439Y-95556146D01*
X109220243Y-95469694D01*
X109200130Y-95368580D01*
X109120941Y-95177402D01*
X109005977Y-95005345D01*
X109005976Y-95005344D01*
X109005975Y-95005342D01*
X108859657Y-94859024D01*
X108764638Y-94795535D01*
X108687598Y-94744059D01*
X108687593Y-94744057D01*
X108496420Y-94664870D01*
X108496412Y-94664868D01*
X108293469Y-94624500D01*
X108293465Y-94624500D01*
X108086535Y-94624500D01*
X108086530Y-94624500D01*
X107883587Y-94664868D01*
X107883579Y-94664870D01*
X107692403Y-94744058D01*
X107520342Y-94859024D01*
X107374024Y-95005342D01*
X107259058Y-95177403D01*
X107179870Y-95368579D01*
X107179868Y-95368587D01*
X107139500Y-95571530D01*
X107139500Y-95778469D01*
X107179868Y-95981412D01*
X107179870Y-95981420D01*
X107259059Y-96172599D01*
X107259059Y-96172600D01*
X107365306Y-96331610D01*
X107386184Y-96398287D01*
X107367699Y-96465667D01*
X107315720Y-96512357D01*
X107262204Y-96524500D01*
X106577796Y-96524500D01*
X106510757Y-96504815D01*
X106465002Y-96452011D01*
X106455058Y-96382853D01*
X106474694Y-96331610D01*
X106580940Y-96172600D01*
X106580940Y-96172599D01*
X106580941Y-96172598D01*
X106660130Y-95981420D01*
X106700500Y-95778465D01*
X106700500Y-95571535D01*
X106660130Y-95368580D01*
X106580941Y-95177402D01*
X106465977Y-95005345D01*
X106465976Y-95005344D01*
X106465975Y-95005342D01*
X106319657Y-94859024D01*
X106224638Y-94795535D01*
X106147598Y-94744059D01*
X106147593Y-94744057D01*
X105956420Y-94664870D01*
X105956412Y-94664868D01*
X105753469Y-94624500D01*
X105753465Y-94624500D01*
X105546535Y-94624500D01*
X105546530Y-94624500D01*
X105343587Y-94664868D01*
X105343579Y-94664870D01*
X105152403Y-94744058D01*
X104980342Y-94859024D01*
X104834024Y-95005342D01*
X104719058Y-95177403D01*
X104639870Y-95368579D01*
X104639868Y-95368587D01*
X104599500Y-95571530D01*
X104599500Y-95778469D01*
X104639868Y-95981412D01*
X104639870Y-95981420D01*
X104719059Y-96172599D01*
X104719059Y-96172600D01*
X104825306Y-96331610D01*
X104846184Y-96398287D01*
X104827699Y-96465667D01*
X104775720Y-96512357D01*
X104722204Y-96524500D01*
X104037796Y-96524500D01*
X103970757Y-96504815D01*
X103925002Y-96452011D01*
X103915058Y-96382853D01*
X103934694Y-96331610D01*
X104040940Y-96172600D01*
X104040940Y-96172599D01*
X104040941Y-96172598D01*
X104120130Y-95981420D01*
X104160500Y-95778465D01*
X104160500Y-95571535D01*
X104120130Y-95368580D01*
X104040941Y-95177402D01*
X103925977Y-95005345D01*
X103925976Y-95005344D01*
X103925975Y-95005342D01*
X103779657Y-94859024D01*
X103684638Y-94795535D01*
X103607598Y-94744059D01*
X103607593Y-94744057D01*
X103416420Y-94664870D01*
X103416412Y-94664868D01*
X103213469Y-94624500D01*
X103213465Y-94624500D01*
X103006535Y-94624500D01*
X103006530Y-94624500D01*
X102803587Y-94664868D01*
X102803579Y-94664870D01*
X102612403Y-94744058D01*
X102440342Y-94859024D01*
X102294024Y-95005342D01*
X102179058Y-95177403D01*
X102099870Y-95368579D01*
X102099868Y-95368587D01*
X102059500Y-95571530D01*
X102059500Y-95778469D01*
X102099868Y-95981412D01*
X102099870Y-95981420D01*
X102179059Y-96172599D01*
X102179059Y-96172600D01*
X102285306Y-96331610D01*
X102306184Y-96398287D01*
X102287699Y-96465667D01*
X102235720Y-96512357D01*
X102182204Y-96524500D01*
X101497796Y-96524500D01*
X101430757Y-96504815D01*
X101385002Y-96452011D01*
X101375058Y-96382853D01*
X101394694Y-96331610D01*
X101500940Y-96172600D01*
X101500940Y-96172599D01*
X101500941Y-96172598D01*
X101580130Y-95981420D01*
X101620500Y-95778465D01*
X101620500Y-95571535D01*
X101580130Y-95368580D01*
X101500941Y-95177402D01*
X101385977Y-95005345D01*
X101385976Y-95005344D01*
X101385975Y-95005342D01*
X101239657Y-94859024D01*
X101144638Y-94795535D01*
X101067598Y-94744059D01*
X101067593Y-94744057D01*
X100876420Y-94664870D01*
X100876412Y-94664868D01*
X100673469Y-94624500D01*
X100673465Y-94624500D01*
X100466535Y-94624500D01*
X100466530Y-94624500D01*
X100263587Y-94664868D01*
X100263579Y-94664870D01*
X100072403Y-94744058D01*
X99900342Y-94859024D01*
X99754024Y-95005342D01*
X99639058Y-95177403D01*
X99559870Y-95368579D01*
X99559868Y-95368587D01*
X99519500Y-95571530D01*
X99519500Y-95778469D01*
X99559868Y-95981412D01*
X99559870Y-95981420D01*
X99639059Y-96172599D01*
X99639059Y-96172600D01*
X99745306Y-96331610D01*
X99766184Y-96398287D01*
X99747699Y-96465667D01*
X99695720Y-96512357D01*
X99642204Y-96524500D01*
X98957796Y-96524500D01*
X98890757Y-96504815D01*
X98845002Y-96452011D01*
X98835058Y-96382853D01*
X98854694Y-96331610D01*
X98960940Y-96172600D01*
X98960940Y-96172599D01*
X98960941Y-96172598D01*
X99040130Y-95981420D01*
X99080500Y-95778465D01*
X99080500Y-95571535D01*
X99040130Y-95368580D01*
X98960941Y-95177402D01*
X98845977Y-95005345D01*
X98845976Y-95005344D01*
X98845975Y-95005342D01*
X98699657Y-94859024D01*
X98604638Y-94795535D01*
X98527598Y-94744059D01*
X98527593Y-94744057D01*
X98336420Y-94664870D01*
X98336412Y-94664868D01*
X98133469Y-94624500D01*
X98133465Y-94624500D01*
X97926535Y-94624500D01*
X97926530Y-94624500D01*
X97723587Y-94664868D01*
X97723579Y-94664870D01*
X97532403Y-94744058D01*
X97360342Y-94859024D01*
X97214024Y-95005342D01*
X97099058Y-95177403D01*
X97019870Y-95368579D01*
X97019868Y-95368587D01*
X96979500Y-95571530D01*
X96979500Y-95778469D01*
X97019868Y-95981412D01*
X97019870Y-95981420D01*
X97099059Y-96172599D01*
X97099059Y-96172600D01*
X97205306Y-96331610D01*
X97226184Y-96398287D01*
X97207699Y-96465667D01*
X97155720Y-96512357D01*
X97102204Y-96524500D01*
X96417796Y-96524500D01*
X96350757Y-96504815D01*
X96305002Y-96452011D01*
X96295058Y-96382853D01*
X96314694Y-96331610D01*
X96420940Y-96172600D01*
X96420940Y-96172599D01*
X96420941Y-96172598D01*
X96500130Y-95981420D01*
X96540500Y-95778465D01*
X96540500Y-95571535D01*
X96500130Y-95368580D01*
X96420941Y-95177402D01*
X96305977Y-95005345D01*
X96305976Y-95005344D01*
X96305975Y-95005342D01*
X96159657Y-94859024D01*
X96064638Y-94795535D01*
X95987598Y-94744059D01*
X95987593Y-94744057D01*
X95796420Y-94664870D01*
X95796412Y-94664868D01*
X95593469Y-94624500D01*
X95593465Y-94624500D01*
X95386535Y-94624500D01*
X95386530Y-94624500D01*
X95183587Y-94664868D01*
X95183579Y-94664870D01*
X94992403Y-94744058D01*
X94820342Y-94859024D01*
X94674024Y-95005342D01*
X94559058Y-95177403D01*
X94479870Y-95368579D01*
X94479868Y-95368587D01*
X94439500Y-95571530D01*
X94439500Y-95778469D01*
X94479868Y-95981412D01*
X94479870Y-95981420D01*
X94559059Y-96172599D01*
X94559059Y-96172600D01*
X94665306Y-96331610D01*
X94686184Y-96398287D01*
X94667699Y-96465667D01*
X94615720Y-96512357D01*
X94562204Y-96524500D01*
X93877796Y-96524500D01*
X93810757Y-96504815D01*
X93765002Y-96452011D01*
X93755058Y-96382853D01*
X93774694Y-96331610D01*
X93880940Y-96172600D01*
X93880940Y-96172599D01*
X93880941Y-96172598D01*
X93960130Y-95981420D01*
X94000500Y-95778465D01*
X94000500Y-95571535D01*
X93960130Y-95368580D01*
X93880941Y-95177402D01*
X93765977Y-95005345D01*
X93765976Y-95005344D01*
X93765975Y-95005342D01*
X93619657Y-94859024D01*
X93447595Y-94744057D01*
X93327047Y-94694124D01*
X93272643Y-94650282D01*
X93250579Y-94583988D01*
X93250500Y-94579563D01*
X93250500Y-84021530D01*
X105574500Y-84021530D01*
X105574500Y-84228469D01*
X105614868Y-84431412D01*
X105614870Y-84431420D01*
X105680939Y-84590925D01*
X105694059Y-84622598D01*
X105707836Y-84643217D01*
X105809024Y-84794657D01*
X105955342Y-84940975D01*
X105955345Y-84940977D01*
X106127402Y-85055941D01*
X106318580Y-85135130D01*
X106508911Y-85172989D01*
X106521530Y-85175499D01*
X106521534Y-85175500D01*
X106521535Y-85175500D01*
X106728466Y-85175500D01*
X106728467Y-85175499D01*
X106931420Y-85135130D01*
X107122598Y-85055941D01*
X107294655Y-84940977D01*
X107440977Y-84794655D01*
X107555941Y-84622598D01*
X107624165Y-84457889D01*
X107668004Y-84403488D01*
X107734298Y-84381423D01*
X107801998Y-84398702D01*
X107849609Y-84449839D01*
X107856656Y-84467026D01*
X107913904Y-84643216D01*
X108010375Y-84832550D01*
X108049728Y-84886716D01*
X108682037Y-84254408D01*
X108699075Y-84317993D01*
X108764901Y-84432007D01*
X108857993Y-84525099D01*
X108972007Y-84590925D01*
X109035590Y-84607962D01*
X108403282Y-85240269D01*
X108403282Y-85240270D01*
X108457449Y-85279624D01*
X108646782Y-85376095D01*
X108848870Y-85441757D01*
X109058754Y-85475000D01*
X109271246Y-85475000D01*
X109481127Y-85441757D01*
X109481130Y-85441757D01*
X109683217Y-85376095D01*
X109872554Y-85279622D01*
X109926716Y-85240270D01*
X109926717Y-85240270D01*
X109294408Y-84607962D01*
X109357993Y-84590925D01*
X109472007Y-84525099D01*
X109565099Y-84432007D01*
X109630925Y-84317993D01*
X109647962Y-84254409D01*
X110280270Y-84886717D01*
X110280270Y-84886716D01*
X110319622Y-84832554D01*
X110416095Y-84643217D01*
X110481757Y-84441130D01*
X110481757Y-84441127D01*
X110515000Y-84231246D01*
X110515000Y-84018753D01*
X110481757Y-83808872D01*
X110481757Y-83808869D01*
X110416095Y-83606782D01*
X110319624Y-83417449D01*
X110280270Y-83363282D01*
X110280269Y-83363282D01*
X109647962Y-83995590D01*
X109630925Y-83932007D01*
X109565099Y-83817993D01*
X109472007Y-83724901D01*
X109357993Y-83659075D01*
X109294409Y-83642037D01*
X109926716Y-83009728D01*
X109872550Y-82970375D01*
X109683216Y-82873904D01*
X109507026Y-82816656D01*
X109449350Y-82777218D01*
X109422152Y-82712860D01*
X109434067Y-82644013D01*
X109481311Y-82592538D01*
X109497882Y-82584168D01*
X109662598Y-82515941D01*
X109834655Y-82400977D01*
X109980977Y-82254655D01*
X110095941Y-82082598D01*
X110175130Y-81891420D01*
X110215500Y-81688465D01*
X110215500Y-81481535D01*
X110175130Y-81278580D01*
X110095941Y-81087402D01*
X109980977Y-80915345D01*
X109980975Y-80915342D01*
X109834657Y-80769024D01*
X109748626Y-80711541D01*
X109662598Y-80654059D01*
X109471420Y-80574870D01*
X109471412Y-80574868D01*
X109268469Y-80534500D01*
X109268465Y-80534500D01*
X109061535Y-80534500D01*
X109061530Y-80534500D01*
X108858587Y-80574868D01*
X108858579Y-80574870D01*
X108667403Y-80654058D01*
X108495342Y-80769024D01*
X108349024Y-80915342D01*
X108234058Y-81087403D01*
X108154870Y-81278579D01*
X108154868Y-81278587D01*
X108114500Y-81481530D01*
X108114500Y-81688469D01*
X108154868Y-81891412D01*
X108154870Y-81891420D01*
X108234058Y-82082596D01*
X108349024Y-82254657D01*
X108495342Y-82400975D01*
X108667405Y-82515943D01*
X108770043Y-82558456D01*
X108832108Y-82584164D01*
X108886511Y-82628005D01*
X108908576Y-82694299D01*
X108891297Y-82761998D01*
X108840160Y-82809609D01*
X108822974Y-82816656D01*
X108646781Y-82873905D01*
X108457439Y-82970380D01*
X108403282Y-83009727D01*
X108403282Y-83009728D01*
X109035591Y-83642037D01*
X108972007Y-83659075D01*
X108857993Y-83724901D01*
X108764901Y-83817993D01*
X108699075Y-83932007D01*
X108682037Y-83995591D01*
X108049728Y-83363282D01*
X108049727Y-83363282D01*
X108010380Y-83417439D01*
X107913905Y-83606781D01*
X107856656Y-83782974D01*
X107817218Y-83840649D01*
X107752859Y-83867847D01*
X107684013Y-83855932D01*
X107632537Y-83808688D01*
X107624164Y-83792107D01*
X107621062Y-83784619D01*
X107583547Y-83694048D01*
X107555943Y-83627405D01*
X107440975Y-83455342D01*
X107294657Y-83309024D01*
X107194160Y-83241875D01*
X107122598Y-83194059D01*
X106987050Y-83137913D01*
X106931420Y-83114870D01*
X106931412Y-83114868D01*
X106728469Y-83074500D01*
X106728465Y-83074500D01*
X106521535Y-83074500D01*
X106521530Y-83074500D01*
X106318587Y-83114868D01*
X106318579Y-83114870D01*
X106127403Y-83194058D01*
X105955342Y-83309024D01*
X105809024Y-83455342D01*
X105694058Y-83627403D01*
X105614870Y-83818579D01*
X105614868Y-83818587D01*
X105574500Y-84021530D01*
X93250500Y-84021530D01*
X93250500Y-81481530D01*
X105574500Y-81481530D01*
X105574500Y-81688469D01*
X105614868Y-81891412D01*
X105614870Y-81891420D01*
X105694058Y-82082596D01*
X105809024Y-82254657D01*
X105955342Y-82400975D01*
X105955345Y-82400977D01*
X106127402Y-82515941D01*
X106318580Y-82595130D01*
X106483855Y-82628005D01*
X106521530Y-82635499D01*
X106521534Y-82635500D01*
X106521535Y-82635500D01*
X106728466Y-82635500D01*
X106728467Y-82635499D01*
X106931420Y-82595130D01*
X107122598Y-82515941D01*
X107294655Y-82400977D01*
X107440977Y-82254655D01*
X107555941Y-82082598D01*
X107635130Y-81891420D01*
X107675500Y-81688465D01*
X107675500Y-81481535D01*
X107635130Y-81278580D01*
X107555941Y-81087402D01*
X107440977Y-80915345D01*
X107440975Y-80915342D01*
X107294657Y-80769024D01*
X107208626Y-80711541D01*
X107122598Y-80654059D01*
X106931420Y-80574870D01*
X106931412Y-80574868D01*
X106728469Y-80534500D01*
X106728465Y-80534500D01*
X106521535Y-80534500D01*
X106521530Y-80534500D01*
X106318587Y-80574868D01*
X106318579Y-80574870D01*
X106127403Y-80654058D01*
X105955342Y-80769024D01*
X105809024Y-80915342D01*
X105694058Y-81087403D01*
X105614870Y-81278579D01*
X105614868Y-81278587D01*
X105574500Y-81481530D01*
X93250500Y-81481530D01*
X93250500Y-79860439D01*
X93230020Y-79784009D01*
X93230017Y-79784004D01*
X93190464Y-79715495D01*
X93190458Y-79715487D01*
X92661819Y-79186848D01*
X92649791Y-79164821D01*
X92634307Y-79145065D01*
X92631762Y-79131803D01*
X92628334Y-79125525D01*
X92626042Y-79110752D01*
X92625500Y-79104976D01*
X92625500Y-79009108D01*
X92607393Y-78941530D01*
X105574500Y-78941530D01*
X105574500Y-79148469D01*
X105614868Y-79351412D01*
X105614870Y-79351420D01*
X105694058Y-79542596D01*
X105809024Y-79714657D01*
X105955342Y-79860975D01*
X105955345Y-79860977D01*
X106127402Y-79975941D01*
X106318580Y-80055130D01*
X106521530Y-80095499D01*
X106521534Y-80095500D01*
X106521535Y-80095500D01*
X106728466Y-80095500D01*
X106728467Y-80095499D01*
X106931420Y-80055130D01*
X107122598Y-79975941D01*
X107294655Y-79860977D01*
X107440977Y-79714655D01*
X107555941Y-79542598D01*
X107635130Y-79351420D01*
X107675500Y-79148465D01*
X107675500Y-78941535D01*
X107675499Y-78941530D01*
X108114500Y-78941530D01*
X108114500Y-79148469D01*
X108154868Y-79351412D01*
X108154870Y-79351420D01*
X108234058Y-79542596D01*
X108349024Y-79714657D01*
X108495342Y-79860975D01*
X108495345Y-79860977D01*
X108667402Y-79975941D01*
X108858580Y-80055130D01*
X109061530Y-80095499D01*
X109061534Y-80095500D01*
X109061535Y-80095500D01*
X109268466Y-80095500D01*
X109268467Y-80095499D01*
X109471420Y-80055130D01*
X109662598Y-79975941D01*
X109834655Y-79860977D01*
X109980977Y-79714655D01*
X110095941Y-79542598D01*
X110175130Y-79351420D01*
X110215500Y-79148465D01*
X110215500Y-78941535D01*
X110175130Y-78738580D01*
X110095941Y-78547402D01*
X109980977Y-78375345D01*
X109980975Y-78375342D01*
X109834657Y-78229024D01*
X109748626Y-78171541D01*
X109662598Y-78114059D01*
X109471420Y-78034870D01*
X109471412Y-78034868D01*
X109268469Y-77994500D01*
X109268465Y-77994500D01*
X109061535Y-77994500D01*
X109061530Y-77994500D01*
X108858587Y-78034868D01*
X108858579Y-78034870D01*
X108667403Y-78114058D01*
X108495342Y-78229024D01*
X108349024Y-78375342D01*
X108234058Y-78547403D01*
X108154870Y-78738579D01*
X108154868Y-78738587D01*
X108114500Y-78941530D01*
X107675499Y-78941530D01*
X107635130Y-78738580D01*
X107555941Y-78547402D01*
X107440977Y-78375345D01*
X107440975Y-78375342D01*
X107294657Y-78229024D01*
X107208626Y-78171541D01*
X107122598Y-78114059D01*
X106931420Y-78034870D01*
X106931412Y-78034868D01*
X106728469Y-77994500D01*
X106728465Y-77994500D01*
X106521535Y-77994500D01*
X106521530Y-77994500D01*
X106318587Y-78034868D01*
X106318579Y-78034870D01*
X106127403Y-78114058D01*
X105955342Y-78229024D01*
X105809024Y-78375342D01*
X105694058Y-78547403D01*
X105614870Y-78738579D01*
X105614868Y-78738587D01*
X105574500Y-78941530D01*
X92607393Y-78941530D01*
X92591392Y-78881814D01*
X92525500Y-78767686D01*
X92432314Y-78674500D01*
X92375250Y-78641554D01*
X92318187Y-78608608D01*
X92254539Y-78591554D01*
X92190892Y-78574500D01*
X92059108Y-78574500D01*
X91931812Y-78608608D01*
X91817686Y-78674500D01*
X91817683Y-78674502D01*
X91724502Y-78767683D01*
X91724500Y-78767686D01*
X91658608Y-78881812D01*
X91642607Y-78941530D01*
X91624500Y-79009108D01*
X91624500Y-79140892D01*
X91630912Y-79164821D01*
X91658608Y-79268187D01*
X91691554Y-79325250D01*
X91724500Y-79382314D01*
X91817686Y-79475500D01*
X91931814Y-79541392D01*
X92059108Y-79575500D01*
X92059110Y-79575500D01*
X92149167Y-79575500D01*
X92216206Y-79595185D01*
X92236848Y-79611819D01*
X92613181Y-79988152D01*
X92646666Y-80049475D01*
X92649500Y-80075833D01*
X92649500Y-94579563D01*
X92629815Y-94646602D01*
X92577011Y-94692357D01*
X92572953Y-94694124D01*
X92452404Y-94744057D01*
X92280342Y-94859024D01*
X92134024Y-95005342D01*
X92019058Y-95177403D01*
X91939870Y-95368579D01*
X91939868Y-95368587D01*
X91899500Y-95571530D01*
X91899500Y-95778469D01*
X91939868Y-95981412D01*
X91939870Y-95981420D01*
X92019059Y-96172599D01*
X92019059Y-96172600D01*
X92125306Y-96331610D01*
X92146184Y-96398287D01*
X92127699Y-96465667D01*
X92075720Y-96512357D01*
X92022204Y-96524500D01*
X91337796Y-96524500D01*
X91270757Y-96504815D01*
X91225002Y-96452011D01*
X91215058Y-96382853D01*
X91234694Y-96331610D01*
X91340940Y-96172600D01*
X91340940Y-96172599D01*
X91340941Y-96172598D01*
X91420130Y-95981420D01*
X91460500Y-95778465D01*
X91460500Y-95571535D01*
X91420130Y-95368580D01*
X91340941Y-95177402D01*
X91225977Y-95005345D01*
X91225976Y-95005344D01*
X91225975Y-95005342D01*
X91079657Y-94859024D01*
X90984638Y-94795535D01*
X90907598Y-94744059D01*
X90907593Y-94744057D01*
X90716420Y-94664870D01*
X90716412Y-94664868D01*
X90513469Y-94624500D01*
X90513465Y-94624500D01*
X90306535Y-94624500D01*
X90306530Y-94624500D01*
X90103587Y-94664868D01*
X90103579Y-94664870D01*
X89983029Y-94714804D01*
X89913559Y-94722273D01*
X89851080Y-94690998D01*
X89847895Y-94687924D01*
X84061819Y-88901848D01*
X84028334Y-88840525D01*
X84025500Y-88814167D01*
X84025500Y-74035440D01*
X84025499Y-74035436D01*
X84018553Y-74009511D01*
X84005022Y-73959012D01*
X83965460Y-73890489D01*
X77659511Y-67584540D01*
X77659510Y-67584539D01*
X77659507Y-67584537D01*
X77650065Y-67579086D01*
X77650064Y-67579086D01*
X77633649Y-67569609D01*
X77590991Y-67544980D01*
X77590990Y-67544979D01*
X77562025Y-67537218D01*
X77514562Y-67524500D01*
X77514560Y-67524500D01*
X74933676Y-67524500D01*
X74866637Y-67504815D01*
X74845995Y-67488181D01*
X74782316Y-67424502D01*
X74782314Y-67424500D01*
X74697442Y-67375499D01*
X74668187Y-67358608D01*
X74600564Y-67340489D01*
X74540892Y-67324500D01*
X74409108Y-67324500D01*
X74281812Y-67358608D01*
X74167686Y-67424500D01*
X74167683Y-67424502D01*
X74074502Y-67517683D01*
X74074500Y-67517686D01*
X74008608Y-67631812D01*
X73974500Y-67759108D01*
X73974500Y-67890891D01*
X74008608Y-68018187D01*
X74037959Y-68069023D01*
X74074500Y-68132314D01*
X74167686Y-68225500D01*
X74281814Y-68291392D01*
X74409108Y-68325500D01*
X74409110Y-68325500D01*
X74540890Y-68325500D01*
X74540892Y-68325500D01*
X74668186Y-68291392D01*
X74782314Y-68225500D01*
X74845995Y-68161819D01*
X74907318Y-68128334D01*
X74933676Y-68125500D01*
X77299167Y-68125500D01*
X77366206Y-68145185D01*
X77386848Y-68161819D01*
X83388181Y-74163152D01*
X83421666Y-74224475D01*
X83424500Y-74250833D01*
X83424500Y-89029562D01*
X83444979Y-89105989D01*
X83483474Y-89172665D01*
X83483477Y-89172670D01*
X83483476Y-89172670D01*
X83484536Y-89174506D01*
X83484541Y-89174512D01*
X89422924Y-95112895D01*
X89456409Y-95174218D01*
X89451425Y-95243910D01*
X89449804Y-95248029D01*
X89399870Y-95368579D01*
X89399868Y-95368587D01*
X89359500Y-95571530D01*
X89359500Y-95778469D01*
X89399868Y-95981412D01*
X89399870Y-95981420D01*
X89479059Y-96172599D01*
X89479059Y-96172600D01*
X89585306Y-96331610D01*
X89606184Y-96398287D01*
X89587699Y-96465667D01*
X89535720Y-96512357D01*
X89482204Y-96524500D01*
X88797796Y-96524500D01*
X88730757Y-96504815D01*
X88685002Y-96452011D01*
X88675058Y-96382853D01*
X88694694Y-96331610D01*
X88800940Y-96172600D01*
X88800940Y-96172599D01*
X88800941Y-96172598D01*
X88880130Y-95981420D01*
X88920500Y-95778465D01*
X88920500Y-95571535D01*
X88880130Y-95368580D01*
X88800941Y-95177402D01*
X88685977Y-95005345D01*
X88685976Y-95005344D01*
X88685975Y-95005342D01*
X88539657Y-94859024D01*
X88444638Y-94795535D01*
X88367598Y-94744059D01*
X88367593Y-94744057D01*
X88176420Y-94664870D01*
X88176412Y-94664868D01*
X87973469Y-94624500D01*
X87973465Y-94624500D01*
X87766535Y-94624500D01*
X87766530Y-94624500D01*
X87563587Y-94664868D01*
X87563579Y-94664870D01*
X87372403Y-94744058D01*
X87200342Y-94859024D01*
X87054024Y-95005342D01*
X86939058Y-95177403D01*
X86859870Y-95368579D01*
X86859868Y-95368587D01*
X86819500Y-95571530D01*
X86819500Y-95778469D01*
X86859868Y-95981412D01*
X86859870Y-95981420D01*
X86939059Y-96172599D01*
X86939059Y-96172600D01*
X87045306Y-96331610D01*
X87066184Y-96398287D01*
X87047699Y-96465667D01*
X86995720Y-96512357D01*
X86942204Y-96524500D01*
X86257796Y-96524500D01*
X86190757Y-96504815D01*
X86145002Y-96452011D01*
X86135058Y-96382853D01*
X86154694Y-96331610D01*
X86260940Y-96172600D01*
X86260940Y-96172599D01*
X86260941Y-96172598D01*
X86340130Y-95981420D01*
X86380500Y-95778465D01*
X86380500Y-95571535D01*
X86340130Y-95368580D01*
X86260941Y-95177402D01*
X86145977Y-95005345D01*
X86145976Y-95005344D01*
X86145975Y-95005342D01*
X85999657Y-94859024D01*
X85904638Y-94795535D01*
X85827598Y-94744059D01*
X85827593Y-94744057D01*
X85636420Y-94664870D01*
X85636412Y-94664868D01*
X85433469Y-94624500D01*
X85433465Y-94624500D01*
X85226535Y-94624500D01*
X85226530Y-94624500D01*
X85023587Y-94664868D01*
X85023579Y-94664870D01*
X84832403Y-94744058D01*
X84660342Y-94859024D01*
X84514024Y-95005342D01*
X84399058Y-95177403D01*
X84319870Y-95368579D01*
X84319868Y-95368587D01*
X84279500Y-95571530D01*
X84279500Y-95778469D01*
X84319868Y-95981412D01*
X84319870Y-95981420D01*
X84399059Y-96172599D01*
X84399059Y-96172600D01*
X84505306Y-96331610D01*
X84526184Y-96398287D01*
X84507699Y-96465667D01*
X84455720Y-96512357D01*
X84402204Y-96524500D01*
X83717796Y-96524500D01*
X83650757Y-96504815D01*
X83605002Y-96452011D01*
X83595058Y-96382853D01*
X83614694Y-96331610D01*
X83720940Y-96172600D01*
X83720940Y-96172599D01*
X83720941Y-96172598D01*
X83800130Y-95981420D01*
X83840500Y-95778465D01*
X83840500Y-95571535D01*
X83800130Y-95368580D01*
X83720941Y-95177402D01*
X83605977Y-95005345D01*
X83605976Y-95005344D01*
X83605975Y-95005342D01*
X83459657Y-94859024D01*
X83287595Y-94744057D01*
X83102047Y-94667200D01*
X83047643Y-94623359D01*
X83025579Y-94557064D01*
X83025500Y-94552639D01*
X83025500Y-74535439D01*
X83011507Y-74483217D01*
X83005021Y-74459011D01*
X82999567Y-74449564D01*
X82965464Y-74390495D01*
X82965458Y-74390487D01*
X77659512Y-69084541D01*
X77659504Y-69084535D01*
X77590995Y-69044982D01*
X77590990Y-69044979D01*
X77565513Y-69038152D01*
X77514562Y-69024500D01*
X77514560Y-69024500D01*
X74650833Y-69024500D01*
X74583794Y-69004815D01*
X74563152Y-68988181D01*
X73561819Y-67986848D01*
X73528334Y-67925525D01*
X73525500Y-67899167D01*
X73525500Y-66759108D01*
X87224500Y-66759108D01*
X87224500Y-66890891D01*
X87258608Y-67018187D01*
X87263047Y-67025875D01*
X87324500Y-67132314D01*
X87324502Y-67132316D01*
X87388181Y-67195995D01*
X87421666Y-67257318D01*
X87424500Y-67283676D01*
X87424500Y-73901323D01*
X87404815Y-73968362D01*
X87388182Y-73989004D01*
X87324500Y-74052686D01*
X87258608Y-74166812D01*
X87224500Y-74294108D01*
X87224500Y-74425891D01*
X87258608Y-74553187D01*
X87291554Y-74610250D01*
X87324500Y-74667314D01*
X87417686Y-74760500D01*
X87531814Y-74826392D01*
X87659108Y-74860500D01*
X87659110Y-74860500D01*
X87790890Y-74860500D01*
X87790892Y-74860500D01*
X87918186Y-74826392D01*
X88032314Y-74760500D01*
X88125500Y-74667314D01*
X88191392Y-74553186D01*
X88225500Y-74425892D01*
X88225500Y-74294108D01*
X88191392Y-74166814D01*
X88125500Y-74052686D01*
X88061818Y-73989004D01*
X88028334Y-73927680D01*
X88025500Y-73901323D01*
X88025500Y-67283676D01*
X88045185Y-67216637D01*
X88061819Y-67195995D01*
X88075501Y-67182313D01*
X88125500Y-67132314D01*
X88191392Y-67018186D01*
X88225500Y-66890892D01*
X88225500Y-66759108D01*
X88191392Y-66631814D01*
X88125500Y-66517686D01*
X88032314Y-66424500D01*
X87972207Y-66389797D01*
X87918187Y-66358608D01*
X87854539Y-66341554D01*
X87790892Y-66324500D01*
X87659108Y-66324500D01*
X87531812Y-66358608D01*
X87417686Y-66424500D01*
X87417683Y-66424502D01*
X87324502Y-66517683D01*
X87324500Y-66517686D01*
X87258608Y-66631812D01*
X87224500Y-66759108D01*
X73525500Y-66759108D01*
X73525500Y-64500833D01*
X73545185Y-64433794D01*
X73561819Y-64413152D01*
X76063152Y-61911819D01*
X76124475Y-61878334D01*
X76150833Y-61875500D01*
X87019167Y-61875500D01*
X87086206Y-61895185D01*
X87106848Y-61911819D01*
X87488181Y-62293152D01*
X87521666Y-62354475D01*
X87524500Y-62380833D01*
X87524500Y-62470891D01*
X87558608Y-62598187D01*
X87591554Y-62655250D01*
X87624500Y-62712314D01*
X87717686Y-62805500D01*
X87831814Y-62871392D01*
X87959108Y-62905500D01*
X87959110Y-62905500D01*
X88090890Y-62905500D01*
X88090892Y-62905500D01*
X88218186Y-62871392D01*
X88332314Y-62805500D01*
X88425500Y-62712314D01*
X88491392Y-62598186D01*
X88525500Y-62470892D01*
X88525500Y-62339108D01*
X88491392Y-62211814D01*
X88425500Y-62097686D01*
X88361818Y-62034004D01*
X88328334Y-61972680D01*
X88325500Y-61946323D01*
X88325500Y-53759108D01*
X88724500Y-53759108D01*
X88724500Y-53890891D01*
X88758608Y-54018187D01*
X88790085Y-54072705D01*
X88824500Y-54132314D01*
X88824502Y-54132316D01*
X88888181Y-54195995D01*
X88921666Y-54257318D01*
X88924500Y-54283676D01*
X88924500Y-88366323D01*
X88904815Y-88433362D01*
X88888182Y-88454004D01*
X88824500Y-88517686D01*
X88758608Y-88631812D01*
X88754495Y-88647164D01*
X88724500Y-88759108D01*
X88724500Y-88890892D01*
X88741554Y-88954539D01*
X88758608Y-89018187D01*
X88778613Y-89052836D01*
X88824500Y-89132314D01*
X88917686Y-89225500D01*
X89016521Y-89282563D01*
X89018449Y-89283676D01*
X89031814Y-89291392D01*
X89159108Y-89325500D01*
X89159110Y-89325500D01*
X89290890Y-89325500D01*
X89290892Y-89325500D01*
X89418186Y-89291392D01*
X89532314Y-89225500D01*
X89625500Y-89132314D01*
X89691392Y-89018186D01*
X89725500Y-88890892D01*
X89725500Y-88759108D01*
X89691392Y-88631814D01*
X89625500Y-88517686D01*
X89561818Y-88454004D01*
X89528334Y-88392680D01*
X89525500Y-88366323D01*
X89525500Y-54283676D01*
X89545185Y-54216637D01*
X89561819Y-54195995D01*
X89625500Y-54132314D01*
X89691392Y-54018186D01*
X89725500Y-53890892D01*
X89725500Y-53759108D01*
X90124500Y-53759108D01*
X90124500Y-53890891D01*
X90158608Y-54018187D01*
X90190085Y-54072705D01*
X90224500Y-54132314D01*
X90224502Y-54132316D01*
X90288181Y-54195995D01*
X90321666Y-54257318D01*
X90324500Y-54283676D01*
X90324500Y-88366323D01*
X90304815Y-88433362D01*
X90288182Y-88454004D01*
X90224500Y-88517686D01*
X90158608Y-88631812D01*
X90154495Y-88647164D01*
X90124500Y-88759108D01*
X90124500Y-88890892D01*
X90141554Y-88954539D01*
X90158608Y-89018187D01*
X90178613Y-89052836D01*
X90224500Y-89132314D01*
X90317686Y-89225500D01*
X90416521Y-89282563D01*
X90418449Y-89283676D01*
X90431814Y-89291392D01*
X90559108Y-89325500D01*
X90559110Y-89325500D01*
X90690890Y-89325500D01*
X90690892Y-89325500D01*
X90818186Y-89291392D01*
X90932314Y-89225500D01*
X91025500Y-89132314D01*
X91091392Y-89018186D01*
X91125500Y-88890892D01*
X91125500Y-88759108D01*
X91091392Y-88631814D01*
X91025500Y-88517686D01*
X90961818Y-88454004D01*
X90928334Y-88392680D01*
X90925500Y-88366323D01*
X90925500Y-76401530D01*
X105574500Y-76401530D01*
X105574500Y-76608469D01*
X105614868Y-76811412D01*
X105614870Y-76811420D01*
X105694058Y-77002596D01*
X105809024Y-77174657D01*
X105955342Y-77320975D01*
X105955345Y-77320977D01*
X106127402Y-77435941D01*
X106318580Y-77515130D01*
X106521530Y-77555499D01*
X106521534Y-77555500D01*
X106521535Y-77555500D01*
X106728466Y-77555500D01*
X106728467Y-77555499D01*
X106931420Y-77515130D01*
X107122598Y-77435941D01*
X107294655Y-77320977D01*
X107440977Y-77174655D01*
X107555941Y-77002598D01*
X107635130Y-76811420D01*
X107675500Y-76608465D01*
X107675500Y-76401535D01*
X107635130Y-76198580D01*
X107555941Y-76007402D01*
X107440977Y-75835345D01*
X107440975Y-75835342D01*
X107294657Y-75689024D01*
X107192604Y-75620835D01*
X107122598Y-75574059D01*
X107122593Y-75574057D01*
X106931420Y-75494870D01*
X106931412Y-75494868D01*
X106728469Y-75454500D01*
X106728465Y-75454500D01*
X106521535Y-75454500D01*
X106521530Y-75454500D01*
X106318587Y-75494868D01*
X106318579Y-75494870D01*
X106127403Y-75574058D01*
X105955342Y-75689024D01*
X105809024Y-75835342D01*
X105694058Y-76007403D01*
X105614870Y-76198579D01*
X105614868Y-76198587D01*
X105574500Y-76401530D01*
X90925500Y-76401530D01*
X90925500Y-71321530D01*
X105574500Y-71321530D01*
X105574500Y-71528469D01*
X105614868Y-71731412D01*
X105614870Y-71731420D01*
X105694058Y-71922596D01*
X105809024Y-72094657D01*
X105955342Y-72240975D01*
X105955345Y-72240977D01*
X106127402Y-72355941D01*
X106318580Y-72435130D01*
X106483855Y-72468005D01*
X106521530Y-72475499D01*
X106521534Y-72475500D01*
X106521535Y-72475500D01*
X106728466Y-72475500D01*
X106728467Y-72475499D01*
X106931420Y-72435130D01*
X107122598Y-72355941D01*
X107294655Y-72240977D01*
X107440977Y-72094655D01*
X107555941Y-71922598D01*
X107635130Y-71731420D01*
X107675500Y-71528465D01*
X107675500Y-71321535D01*
X107635130Y-71118580D01*
X107555941Y-70927402D01*
X107440977Y-70755345D01*
X107440975Y-70755342D01*
X107294657Y-70609024D01*
X107208626Y-70551541D01*
X107122598Y-70494059D01*
X107122593Y-70494057D01*
X106931420Y-70414870D01*
X106931412Y-70414868D01*
X106728469Y-70374500D01*
X106728465Y-70374500D01*
X106521535Y-70374500D01*
X106521530Y-70374500D01*
X106318587Y-70414868D01*
X106318579Y-70414870D01*
X106127403Y-70494058D01*
X105955342Y-70609024D01*
X105809024Y-70755342D01*
X105694058Y-70927403D01*
X105614870Y-71118579D01*
X105614868Y-71118587D01*
X105574500Y-71321530D01*
X90925500Y-71321530D01*
X90925500Y-68781530D01*
X105574500Y-68781530D01*
X105574500Y-68988469D01*
X105614868Y-69191412D01*
X105614870Y-69191420D01*
X105680939Y-69350925D01*
X105694059Y-69382598D01*
X105707836Y-69403217D01*
X105809024Y-69554657D01*
X105955342Y-69700975D01*
X105955345Y-69700977D01*
X106127402Y-69815941D01*
X106318580Y-69895130D01*
X106521530Y-69935499D01*
X106521534Y-69935500D01*
X106521535Y-69935500D01*
X106728466Y-69935500D01*
X106728467Y-69935499D01*
X106931420Y-69895130D01*
X107122598Y-69815941D01*
X107294655Y-69700977D01*
X107440977Y-69554655D01*
X107555941Y-69382598D01*
X107624165Y-69217889D01*
X107668004Y-69163488D01*
X107734298Y-69141423D01*
X107801998Y-69158702D01*
X107849609Y-69209839D01*
X107856656Y-69227026D01*
X107913904Y-69403216D01*
X108010375Y-69592550D01*
X108049728Y-69646716D01*
X108682037Y-69014408D01*
X108699075Y-69077993D01*
X108764901Y-69192007D01*
X108857993Y-69285099D01*
X108972007Y-69350925D01*
X109035590Y-69367962D01*
X108403282Y-70000269D01*
X108403282Y-70000270D01*
X108457449Y-70039624D01*
X108646782Y-70136095D01*
X108822973Y-70193343D01*
X108880648Y-70232780D01*
X108907847Y-70297139D01*
X108895932Y-70365985D01*
X108848688Y-70417461D01*
X108832108Y-70425835D01*
X108667403Y-70494057D01*
X108495342Y-70609024D01*
X108349024Y-70755342D01*
X108234058Y-70927403D01*
X108154870Y-71118579D01*
X108154868Y-71118587D01*
X108114500Y-71321530D01*
X108114500Y-71528469D01*
X108154868Y-71731412D01*
X108154870Y-71731420D01*
X108234058Y-71922596D01*
X108349024Y-72094657D01*
X108495342Y-72240975D01*
X108667405Y-72355943D01*
X108739574Y-72385836D01*
X108832108Y-72424164D01*
X108886511Y-72468005D01*
X108908576Y-72534299D01*
X108891297Y-72601998D01*
X108840160Y-72649609D01*
X108822974Y-72656656D01*
X108646781Y-72713905D01*
X108457439Y-72810380D01*
X108403282Y-72849727D01*
X108403282Y-72849728D01*
X109035591Y-73482037D01*
X108972007Y-73499075D01*
X108857993Y-73564901D01*
X108764901Y-73657993D01*
X108699075Y-73772007D01*
X108682037Y-73835591D01*
X108049728Y-73203282D01*
X108049727Y-73203282D01*
X108010380Y-73257439D01*
X107913905Y-73446781D01*
X107856656Y-73622974D01*
X107817218Y-73680649D01*
X107752859Y-73707847D01*
X107684013Y-73695932D01*
X107632537Y-73648688D01*
X107624164Y-73632107D01*
X107613490Y-73606338D01*
X107596327Y-73564901D01*
X107555943Y-73467405D01*
X107440975Y-73295342D01*
X107294657Y-73149024D01*
X107127815Y-73037545D01*
X107122598Y-73034059D01*
X106931420Y-72954870D01*
X106931412Y-72954868D01*
X106728469Y-72914500D01*
X106728465Y-72914500D01*
X106521535Y-72914500D01*
X106521530Y-72914500D01*
X106318587Y-72954868D01*
X106318579Y-72954870D01*
X106127403Y-73034058D01*
X105955342Y-73149024D01*
X105809024Y-73295342D01*
X105694058Y-73467403D01*
X105614870Y-73658579D01*
X105614868Y-73658587D01*
X105574500Y-73861530D01*
X105574500Y-74068469D01*
X105614868Y-74271412D01*
X105614870Y-74271420D01*
X105688660Y-74449565D01*
X105694059Y-74462598D01*
X105751541Y-74548626D01*
X105809024Y-74634657D01*
X105955342Y-74780975D01*
X105955345Y-74780977D01*
X106127402Y-74895941D01*
X106318580Y-74975130D01*
X106521530Y-75015499D01*
X106521534Y-75015500D01*
X106521535Y-75015500D01*
X106728466Y-75015500D01*
X106728467Y-75015499D01*
X106931420Y-74975130D01*
X107122598Y-74895941D01*
X107294655Y-74780977D01*
X107440977Y-74634655D01*
X107555941Y-74462598D01*
X107624165Y-74297889D01*
X107668004Y-74243488D01*
X107734298Y-74221423D01*
X107801998Y-74238702D01*
X107849609Y-74289839D01*
X107856656Y-74307026D01*
X107913904Y-74483216D01*
X108010375Y-74672550D01*
X108049728Y-74726716D01*
X108682037Y-74094408D01*
X108699075Y-74157993D01*
X108764901Y-74272007D01*
X108857993Y-74365099D01*
X108972007Y-74430925D01*
X109035590Y-74447962D01*
X108403282Y-75080269D01*
X108403282Y-75080270D01*
X108457449Y-75119624D01*
X108646782Y-75216095D01*
X108822973Y-75273343D01*
X108880648Y-75312780D01*
X108907847Y-75377139D01*
X108895932Y-75445985D01*
X108848688Y-75497461D01*
X108832108Y-75505835D01*
X108667403Y-75574057D01*
X108495342Y-75689024D01*
X108349024Y-75835342D01*
X108234058Y-76007403D01*
X108154870Y-76198579D01*
X108154868Y-76198587D01*
X108114500Y-76401530D01*
X108114500Y-76608469D01*
X108154868Y-76811412D01*
X108154870Y-76811420D01*
X108234058Y-77002596D01*
X108349024Y-77174657D01*
X108495342Y-77320975D01*
X108495345Y-77320977D01*
X108667402Y-77435941D01*
X108858580Y-77515130D01*
X109061530Y-77555499D01*
X109061534Y-77555500D01*
X109061535Y-77555500D01*
X109268466Y-77555500D01*
X109268467Y-77555499D01*
X109471420Y-77515130D01*
X109662598Y-77435941D01*
X109834655Y-77320977D01*
X109980977Y-77174655D01*
X110095941Y-77002598D01*
X110175130Y-76811420D01*
X110215500Y-76608465D01*
X110215500Y-76401535D01*
X110175130Y-76198580D01*
X110095941Y-76007402D01*
X109980977Y-75835345D01*
X109980975Y-75835342D01*
X109834657Y-75689024D01*
X109732604Y-75620835D01*
X109662598Y-75574059D01*
X109662593Y-75574057D01*
X109600891Y-75548499D01*
X109497890Y-75505834D01*
X109443488Y-75461994D01*
X109421423Y-75395700D01*
X109438702Y-75328001D01*
X109489839Y-75280390D01*
X109507026Y-75273343D01*
X109683217Y-75216095D01*
X109872554Y-75119622D01*
X109926716Y-75080270D01*
X109926717Y-75080270D01*
X109294408Y-74447962D01*
X109357993Y-74430925D01*
X109472007Y-74365099D01*
X109565099Y-74272007D01*
X109630925Y-74157993D01*
X109647962Y-74094409D01*
X110280270Y-74726717D01*
X110280270Y-74726716D01*
X110319622Y-74672554D01*
X110416095Y-74483217D01*
X110481757Y-74281130D01*
X110481757Y-74281127D01*
X110515000Y-74071246D01*
X110515000Y-73858753D01*
X110481757Y-73648872D01*
X110481757Y-73648869D01*
X110416095Y-73446782D01*
X110319624Y-73257449D01*
X110280270Y-73203282D01*
X110280269Y-73203282D01*
X109647962Y-73835590D01*
X109630925Y-73772007D01*
X109565099Y-73657993D01*
X109472007Y-73564901D01*
X109357993Y-73499075D01*
X109294409Y-73482037D01*
X109926716Y-72849728D01*
X109872550Y-72810375D01*
X109683216Y-72713904D01*
X109507026Y-72656656D01*
X109449350Y-72617218D01*
X109422152Y-72552860D01*
X109434067Y-72484013D01*
X109481311Y-72432538D01*
X109497882Y-72424168D01*
X109662598Y-72355941D01*
X109834655Y-72240977D01*
X109980977Y-72094655D01*
X110095941Y-71922598D01*
X110175130Y-71731420D01*
X110215500Y-71528465D01*
X110215500Y-71321535D01*
X110175130Y-71118580D01*
X110095941Y-70927402D01*
X109980977Y-70755345D01*
X109980975Y-70755342D01*
X109834657Y-70609024D01*
X109748626Y-70551541D01*
X109662598Y-70494059D01*
X109662593Y-70494057D01*
X109600891Y-70468499D01*
X109497890Y-70425834D01*
X109443488Y-70381994D01*
X109421423Y-70315700D01*
X109438702Y-70248001D01*
X109489839Y-70200390D01*
X109507026Y-70193343D01*
X109683217Y-70136095D01*
X109872554Y-70039622D01*
X109926716Y-70000270D01*
X109926717Y-70000270D01*
X109294408Y-69367962D01*
X109357993Y-69350925D01*
X109472007Y-69285099D01*
X109565099Y-69192007D01*
X109630925Y-69077993D01*
X109647962Y-69014409D01*
X110280270Y-69646717D01*
X110280270Y-69646716D01*
X110319622Y-69592554D01*
X110416095Y-69403217D01*
X110481757Y-69201130D01*
X110481757Y-69201127D01*
X110515000Y-68991246D01*
X110515000Y-68778753D01*
X110481757Y-68568872D01*
X110481757Y-68568869D01*
X110416095Y-68366782D01*
X110319624Y-68177449D01*
X110280270Y-68123282D01*
X110280269Y-68123282D01*
X109647962Y-68755590D01*
X109630925Y-68692007D01*
X109565099Y-68577993D01*
X109472007Y-68484901D01*
X109357993Y-68419075D01*
X109294409Y-68402037D01*
X109926716Y-67769728D01*
X109872550Y-67730375D01*
X109683216Y-67633904D01*
X109507026Y-67576656D01*
X109449350Y-67537218D01*
X109422152Y-67472860D01*
X109434067Y-67404013D01*
X109481311Y-67352538D01*
X109497882Y-67344168D01*
X109662598Y-67275941D01*
X109834655Y-67160977D01*
X109980977Y-67014655D01*
X110095941Y-66842598D01*
X110175130Y-66651420D01*
X110215500Y-66448465D01*
X110215500Y-66241535D01*
X110175130Y-66038580D01*
X110095941Y-65847402D01*
X109980977Y-65675345D01*
X109980975Y-65675342D01*
X109834657Y-65529024D01*
X109748626Y-65471541D01*
X109662598Y-65414059D01*
X109471420Y-65334870D01*
X109471412Y-65334868D01*
X109268469Y-65294500D01*
X109268465Y-65294500D01*
X109061535Y-65294500D01*
X109061530Y-65294500D01*
X108858587Y-65334868D01*
X108858579Y-65334870D01*
X108667403Y-65414058D01*
X108495342Y-65529024D01*
X108349024Y-65675342D01*
X108234058Y-65847403D01*
X108154870Y-66038579D01*
X108154868Y-66038587D01*
X108114500Y-66241530D01*
X108114500Y-66448469D01*
X108150970Y-66631814D01*
X108154870Y-66651420D01*
X108234059Y-66842598D01*
X108266327Y-66890891D01*
X108349024Y-67014657D01*
X108495342Y-67160975D01*
X108495345Y-67160977D01*
X108666740Y-67275499D01*
X108667405Y-67275943D01*
X108770043Y-67318456D01*
X108832108Y-67344164D01*
X108886511Y-67388005D01*
X108908576Y-67454299D01*
X108891297Y-67521998D01*
X108840160Y-67569609D01*
X108822974Y-67576656D01*
X108646781Y-67633905D01*
X108457439Y-67730380D01*
X108403282Y-67769727D01*
X108403282Y-67769728D01*
X109035591Y-68402037D01*
X108972007Y-68419075D01*
X108857993Y-68484901D01*
X108764901Y-68577993D01*
X108699075Y-68692007D01*
X108682037Y-68755591D01*
X108049728Y-68123282D01*
X108049727Y-68123282D01*
X108010380Y-68177439D01*
X107913905Y-68366781D01*
X107856656Y-68542974D01*
X107817218Y-68600649D01*
X107752859Y-68627847D01*
X107684013Y-68615932D01*
X107632537Y-68568688D01*
X107624164Y-68552107D01*
X107555943Y-68387405D01*
X107440975Y-68215342D01*
X107294657Y-68069024D01*
X107208626Y-68011541D01*
X107122598Y-67954059D01*
X107053711Y-67925525D01*
X106931420Y-67874870D01*
X106931412Y-67874868D01*
X106728469Y-67834500D01*
X106728465Y-67834500D01*
X106521535Y-67834500D01*
X106521530Y-67834500D01*
X106318587Y-67874868D01*
X106318579Y-67874870D01*
X106127403Y-67954058D01*
X105955342Y-68069024D01*
X105809024Y-68215342D01*
X105694058Y-68387403D01*
X105614870Y-68578579D01*
X105614868Y-68578587D01*
X105574500Y-68781530D01*
X90925500Y-68781530D01*
X90925500Y-66409108D01*
X100574500Y-66409108D01*
X100574500Y-66540892D01*
X100583724Y-66575315D01*
X100608608Y-66668187D01*
X100616475Y-66681812D01*
X100674500Y-66782314D01*
X100767686Y-66875500D01*
X100881814Y-66941392D01*
X101009108Y-66975500D01*
X101009110Y-66975500D01*
X101140890Y-66975500D01*
X101140892Y-66975500D01*
X101268186Y-66941392D01*
X101382314Y-66875500D01*
X101475500Y-66782314D01*
X101541392Y-66668186D01*
X101575500Y-66540892D01*
X101575500Y-66528615D01*
X101595185Y-66461576D01*
X101611819Y-66440934D01*
X101796241Y-66256512D01*
X102009471Y-66043282D01*
X102056274Y-65962218D01*
X102080500Y-65871803D01*
X102080500Y-65778197D01*
X102080500Y-65690730D01*
X105574500Y-65690730D01*
X105574500Y-66999269D01*
X105577353Y-67029699D01*
X105577353Y-67029701D01*
X105613260Y-67132314D01*
X105622207Y-67157882D01*
X105702850Y-67267150D01*
X105812118Y-67347793D01*
X105843026Y-67358608D01*
X105940299Y-67392646D01*
X105970730Y-67395500D01*
X105970734Y-67395500D01*
X107279270Y-67395500D01*
X107309699Y-67392646D01*
X107309701Y-67392646D01*
X107375018Y-67369790D01*
X107437882Y-67347793D01*
X107547150Y-67267150D01*
X107627793Y-67157882D01*
X107659179Y-67068186D01*
X107672646Y-67029701D01*
X107672646Y-67029699D01*
X107675500Y-66999269D01*
X107675500Y-65690730D01*
X107672646Y-65660300D01*
X107672646Y-65660298D01*
X107627793Y-65532119D01*
X107627792Y-65532117D01*
X107626554Y-65530439D01*
X107547150Y-65422850D01*
X107437882Y-65342207D01*
X107437880Y-65342206D01*
X107309700Y-65297353D01*
X107279270Y-65294500D01*
X107279266Y-65294500D01*
X105970734Y-65294500D01*
X105970730Y-65294500D01*
X105940300Y-65297353D01*
X105940298Y-65297353D01*
X105812119Y-65342206D01*
X105812117Y-65342207D01*
X105702850Y-65422850D01*
X105622207Y-65532117D01*
X105622206Y-65532119D01*
X105577353Y-65660298D01*
X105577353Y-65660300D01*
X105574500Y-65690730D01*
X102080500Y-65690730D01*
X102080500Y-55332079D01*
X102100185Y-55265040D01*
X102116819Y-55244398D01*
X102125500Y-55235717D01*
X102191392Y-55121589D01*
X102225500Y-54994295D01*
X102225500Y-54862511D01*
X102191392Y-54735217D01*
X102125500Y-54621089D01*
X102032314Y-54527903D01*
X101975250Y-54494957D01*
X101918187Y-54462011D01*
X101817382Y-54435001D01*
X101790892Y-54427903D01*
X101659108Y-54427903D01*
X101531812Y-54462011D01*
X101417686Y-54527903D01*
X101417683Y-54527905D01*
X101324502Y-54621086D01*
X101324500Y-54621089D01*
X101258608Y-54735215D01*
X101224500Y-54862511D01*
X101224500Y-54994294D01*
X101258608Y-55121590D01*
X101266351Y-55135001D01*
X101324500Y-55235717D01*
X101324502Y-55235719D01*
X101333181Y-55244398D01*
X101366666Y-55305721D01*
X101369500Y-55332079D01*
X101369500Y-65626385D01*
X101349815Y-65693424D01*
X101333181Y-65714066D01*
X101109066Y-65938181D01*
X101047743Y-65971666D01*
X101021385Y-65974500D01*
X101009108Y-65974500D01*
X100881812Y-66008608D01*
X100767686Y-66074500D01*
X100767683Y-66074502D01*
X100674502Y-66167683D01*
X100674500Y-66167686D01*
X100608608Y-66281812D01*
X100579674Y-66389797D01*
X100574500Y-66409108D01*
X90925500Y-66409108D01*
X90925500Y-54283676D01*
X90945185Y-54216637D01*
X90961819Y-54195995D01*
X91025500Y-54132314D01*
X91091392Y-54018186D01*
X91125500Y-53890892D01*
X91125500Y-53759108D01*
X91091392Y-53631814D01*
X91025500Y-53517686D01*
X90932314Y-53424500D01*
X90870052Y-53388553D01*
X90818187Y-53358608D01*
X90754539Y-53341554D01*
X90690892Y-53324500D01*
X90559108Y-53324500D01*
X90431812Y-53358608D01*
X90317686Y-53424500D01*
X90317683Y-53424502D01*
X90224502Y-53517683D01*
X90224500Y-53517686D01*
X90158608Y-53631812D01*
X90124500Y-53759108D01*
X89725500Y-53759108D01*
X89691392Y-53631814D01*
X89625500Y-53517686D01*
X89532314Y-53424500D01*
X89470052Y-53388553D01*
X89418187Y-53358608D01*
X89354539Y-53341554D01*
X89290892Y-53324500D01*
X89159108Y-53324500D01*
X89031812Y-53358608D01*
X88917686Y-53424500D01*
X88917683Y-53424502D01*
X88824502Y-53517683D01*
X88824500Y-53517686D01*
X88758608Y-53631812D01*
X88724500Y-53759108D01*
X88325500Y-53759108D01*
X88325500Y-52800833D01*
X88345185Y-52733794D01*
X88361819Y-52713152D01*
X91113152Y-49961819D01*
X91174475Y-49928334D01*
X91200833Y-49925500D01*
X99264560Y-49925500D01*
X99264562Y-49925500D01*
X99340989Y-49905021D01*
X99409511Y-49865460D01*
X99465460Y-49809511D01*
X108165460Y-41109511D01*
X108205021Y-41040989D01*
X108225500Y-40964562D01*
X108225500Y-36230452D01*
X108245185Y-36163413D01*
X108297989Y-36117658D01*
X108330095Y-36107980D01*
X108406118Y-36095940D01*
X108585832Y-36037547D01*
X108754199Y-35951760D01*
X108907073Y-35840690D01*
X109040690Y-35707073D01*
X109151760Y-35554199D01*
X109234218Y-35392365D01*
X145324500Y-35392365D01*
X145324500Y-35587634D01*
X145355045Y-35780485D01*
X145415381Y-35966184D01*
X145415382Y-35966187D01*
X145475629Y-36084426D01*
X145496071Y-36124546D01*
X145504031Y-36140167D01*
X145618793Y-36298125D01*
X145618797Y-36298130D01*
X145756869Y-36436202D01*
X145756874Y-36436206D01*
X145894653Y-36536307D01*
X145914836Y-36550971D01*
X146028565Y-36608919D01*
X146088812Y-36639617D01*
X146088815Y-36639618D01*
X146181664Y-36669786D01*
X146274516Y-36699955D01*
X146363835Y-36714101D01*
X146467366Y-36730500D01*
X146467371Y-36730500D01*
X146662634Y-36730500D01*
X146756125Y-36715691D01*
X146855484Y-36699955D01*
X147041187Y-36639617D01*
X147215164Y-36550971D01*
X147373132Y-36436201D01*
X147511201Y-36298132D01*
X147625971Y-36140164D01*
X147714617Y-35966187D01*
X147774955Y-35780484D01*
X147790691Y-35681125D01*
X147805500Y-35587634D01*
X147805500Y-35392365D01*
X147787108Y-35276247D01*
X147774955Y-35199516D01*
X147724117Y-35043052D01*
X147714618Y-35013815D01*
X147714617Y-35013812D01*
X147669364Y-34924999D01*
X147625971Y-34839836D01*
X147602076Y-34806947D01*
X147511206Y-34681874D01*
X147511202Y-34681869D01*
X147373130Y-34543797D01*
X147373125Y-34543793D01*
X147215167Y-34429031D01*
X147215166Y-34429030D01*
X147215164Y-34429029D01*
X147159426Y-34400629D01*
X147041187Y-34340382D01*
X147041184Y-34340381D01*
X146855485Y-34280045D01*
X146662634Y-34249500D01*
X146662629Y-34249500D01*
X146467371Y-34249500D01*
X146467366Y-34249500D01*
X146274514Y-34280045D01*
X146088815Y-34340381D01*
X146088812Y-34340382D01*
X145914832Y-34429031D01*
X145756874Y-34543793D01*
X145756869Y-34543797D01*
X145618797Y-34681869D01*
X145618793Y-34681874D01*
X145504031Y-34839832D01*
X145415382Y-35013812D01*
X145415381Y-35013815D01*
X145355045Y-35199514D01*
X145324500Y-35392365D01*
X109234218Y-35392365D01*
X109237547Y-35385832D01*
X109295940Y-35206118D01*
X109321767Y-35043052D01*
X109325500Y-35019486D01*
X109325500Y-34830513D01*
X109295940Y-34643881D01*
X109237545Y-34464163D01*
X109192114Y-34375000D01*
X109151760Y-34295801D01*
X109040690Y-34142927D01*
X108907073Y-34009310D01*
X108754199Y-33898240D01*
X108585837Y-33812455D01*
X108585834Y-33812454D01*
X108585832Y-33812453D01*
X108511178Y-33788196D01*
X108453505Y-33748758D01*
X108426308Y-33684399D01*
X108425500Y-33670266D01*
X108425500Y-29679733D01*
X108445185Y-29612694D01*
X108497989Y-29566939D01*
X108511183Y-29561802D01*
X108585827Y-29537549D01*
X108585829Y-29537547D01*
X108585832Y-29537547D01*
X108754199Y-29451760D01*
X108907073Y-29340690D01*
X109040690Y-29207073D01*
X109151760Y-29054199D01*
X109237547Y-28885832D01*
X109295940Y-28706118D01*
X109307113Y-28635574D01*
X109325500Y-28519486D01*
X109325500Y-28330513D01*
X109303598Y-28192233D01*
X109303598Y-28192232D01*
X109300984Y-28175730D01*
X113404500Y-28175730D01*
X113404500Y-29974269D01*
X113407353Y-30004699D01*
X113407353Y-30004701D01*
X113452206Y-30132880D01*
X113452207Y-30132882D01*
X113532850Y-30242150D01*
X113642118Y-30322793D01*
X113684845Y-30337744D01*
X113770299Y-30367646D01*
X113800730Y-30370500D01*
X113800734Y-30370500D01*
X115149270Y-30370500D01*
X115179699Y-30367646D01*
X115179701Y-30367646D01*
X115244492Y-30344974D01*
X115307882Y-30322793D01*
X115417150Y-30242150D01*
X115497793Y-30132882D01*
X115520219Y-30068790D01*
X115542646Y-30004701D01*
X115542646Y-30004699D01*
X115545500Y-29974269D01*
X115545500Y-29950125D01*
X115565185Y-29883086D01*
X115617989Y-29837331D01*
X115687147Y-29827387D01*
X115750703Y-29856412D01*
X115779985Y-29893830D01*
X115843271Y-30018036D01*
X115970025Y-30192496D01*
X115970025Y-30192497D01*
X116122502Y-30344974D01*
X116296963Y-30471728D01*
X116489098Y-30569627D01*
X116694190Y-30636266D01*
X116765000Y-30647481D01*
X116765000Y-29617709D01*
X116785339Y-29629452D01*
X116936667Y-29670000D01*
X117093333Y-29670000D01*
X117244661Y-29629452D01*
X117265000Y-29617709D01*
X117265000Y-30647480D01*
X117335809Y-30636266D01*
X117540901Y-30569627D01*
X117733036Y-30471728D01*
X117907496Y-30344974D01*
X117907497Y-30344974D01*
X118059974Y-30192497D01*
X118059974Y-30192496D01*
X118186728Y-30018036D01*
X118284627Y-29825901D01*
X118351265Y-29620809D01*
X118385000Y-29407820D01*
X118385000Y-29325000D01*
X117557709Y-29325000D01*
X117569452Y-29304661D01*
X117610000Y-29153333D01*
X117610000Y-28996667D01*
X117569452Y-28845339D01*
X117557709Y-28825000D01*
X118385000Y-28825000D01*
X118385000Y-28742179D01*
X118351265Y-28529190D01*
X118284627Y-28324098D01*
X118186728Y-28131963D01*
X118059974Y-27957503D01*
X118059974Y-27957502D01*
X117907497Y-27805025D01*
X117733036Y-27678271D01*
X117540899Y-27580372D01*
X117335805Y-27513733D01*
X117265000Y-27502518D01*
X117265000Y-28532290D01*
X117244661Y-28520548D01*
X117093333Y-28480000D01*
X116936667Y-28480000D01*
X116785339Y-28520548D01*
X116765000Y-28532290D01*
X116765000Y-27502518D01*
X116764999Y-27502518D01*
X116694194Y-27513733D01*
X116489100Y-27580372D01*
X116296963Y-27678271D01*
X116122503Y-27805025D01*
X116122502Y-27805025D01*
X115970025Y-27957502D01*
X115970025Y-27957503D01*
X115843271Y-28131963D01*
X115779985Y-28256169D01*
X115732010Y-28306965D01*
X115664189Y-28323760D01*
X115598054Y-28301222D01*
X115554603Y-28246507D01*
X115545500Y-28199874D01*
X115545500Y-28175730D01*
X115542646Y-28145300D01*
X115542646Y-28145298D01*
X115497793Y-28017119D01*
X115497792Y-28017117D01*
X115417150Y-27907850D01*
X115307882Y-27827207D01*
X115307880Y-27827206D01*
X115179700Y-27782353D01*
X115149270Y-27779500D01*
X115149266Y-27779500D01*
X113800734Y-27779500D01*
X113800730Y-27779500D01*
X113770300Y-27782353D01*
X113770298Y-27782353D01*
X113642119Y-27827206D01*
X113642117Y-27827207D01*
X113532850Y-27907850D01*
X113452207Y-28017117D01*
X113452206Y-28017119D01*
X113407353Y-28145298D01*
X113407353Y-28145300D01*
X113404500Y-28175730D01*
X109300984Y-28175730D01*
X109295940Y-28143882D01*
X109295940Y-28143881D01*
X109254752Y-28017119D01*
X109237547Y-27964168D01*
X109237545Y-27964165D01*
X109237545Y-27964163D01*
X109192114Y-27875000D01*
X109151760Y-27795801D01*
X109040690Y-27642927D01*
X108907073Y-27509310D01*
X108754199Y-27398240D01*
X108585836Y-27312454D01*
X108406118Y-27254059D01*
X108219486Y-27224500D01*
X108219481Y-27224500D01*
X108030519Y-27224500D01*
X108030514Y-27224500D01*
X107843881Y-27254059D01*
X107664163Y-27312454D01*
X107495800Y-27398240D01*
X107408579Y-27461610D01*
X107342927Y-27509310D01*
X107342925Y-27509312D01*
X107342924Y-27509312D01*
X107209312Y-27642924D01*
X107209312Y-27642925D01*
X107209310Y-27642927D01*
X107183631Y-27678271D01*
X107098240Y-27795800D01*
X107012454Y-27964163D01*
X106954059Y-28143881D01*
X106924500Y-28330513D01*
X106924500Y-28519486D01*
X106954059Y-28706118D01*
X107012454Y-28885836D01*
X107038788Y-28937518D01*
X107098240Y-29054199D01*
X107209310Y-29207073D01*
X107342927Y-29340690D01*
X107495801Y-29451760D01*
X107664168Y-29537547D01*
X107664172Y-29537549D01*
X107738817Y-29561802D01*
X107796493Y-29601238D01*
X107823692Y-29665597D01*
X107824500Y-29679733D01*
X107824500Y-33670266D01*
X107804815Y-33737305D01*
X107752011Y-33783060D01*
X107738825Y-33788194D01*
X107664168Y-33812453D01*
X107664162Y-33812455D01*
X107495800Y-33898240D01*
X107408579Y-33961610D01*
X107342927Y-34009310D01*
X107342925Y-34009312D01*
X107342924Y-34009312D01*
X107209312Y-34142924D01*
X107209312Y-34142925D01*
X107209310Y-34142927D01*
X107161610Y-34208579D01*
X107098240Y-34295800D01*
X107012454Y-34464163D01*
X106954059Y-34643881D01*
X106924500Y-34830513D01*
X106924500Y-35019486D01*
X106954059Y-35206118D01*
X107012454Y-35385836D01*
X107038788Y-35437518D01*
X107098240Y-35554199D01*
X107209310Y-35707073D01*
X107342927Y-35840690D01*
X107457582Y-35923992D01*
X107495802Y-35951761D01*
X107524110Y-35966184D01*
X107556794Y-35982837D01*
X107607590Y-36030810D01*
X107624500Y-36093322D01*
X107624500Y-40749167D01*
X107604815Y-40816206D01*
X107588181Y-40836848D01*
X99136848Y-49288181D01*
X99075525Y-49321666D01*
X99049167Y-49324500D01*
X90985438Y-49324500D01*
X90909010Y-49344978D01*
X90840489Y-49384540D01*
X90840486Y-49384542D01*
X87784541Y-52440487D01*
X87784535Y-52440495D01*
X87744982Y-52509004D01*
X87744979Y-52509009D01*
X87724500Y-52585439D01*
X87724500Y-61380167D01*
X87704815Y-61447206D01*
X87652011Y-61492961D01*
X87582853Y-61502905D01*
X87519297Y-61473880D01*
X87512819Y-61467848D01*
X87379512Y-61334541D01*
X87379504Y-61334535D01*
X87310995Y-61294982D01*
X87310990Y-61294979D01*
X87285513Y-61288152D01*
X87234562Y-61274500D01*
X75935438Y-61274500D01*
X75897224Y-61284739D01*
X75859009Y-61294979D01*
X75859004Y-61294982D01*
X75790495Y-61334535D01*
X75790487Y-61334541D01*
X72984541Y-64140487D01*
X72984535Y-64140495D01*
X72944982Y-64209004D01*
X72944979Y-64209009D01*
X72931326Y-64259962D01*
X72924500Y-64285438D01*
X72924500Y-68114562D01*
X72932706Y-68145185D01*
X72944979Y-68190990D01*
X72947099Y-68194661D01*
X72959041Y-68215345D01*
X72984540Y-68259511D01*
X74234540Y-69509511D01*
X74290489Y-69565460D01*
X74290491Y-69565461D01*
X74290495Y-69565464D01*
X74337410Y-69592550D01*
X74359011Y-69605021D01*
X74435438Y-69625500D01*
X77299167Y-69625500D01*
X77366206Y-69645185D01*
X77386848Y-69661819D01*
X78293383Y-70568354D01*
X78326868Y-70629677D01*
X78321884Y-70699369D01*
X78280012Y-70755302D01*
X78214548Y-70779719D01*
X78167384Y-70773966D01*
X78106120Y-70754060D01*
X77919486Y-70724500D01*
X77919481Y-70724500D01*
X77730519Y-70724500D01*
X77730514Y-70724500D01*
X77543881Y-70754059D01*
X77364163Y-70812454D01*
X77195800Y-70898240D01*
X77108579Y-70961610D01*
X77042927Y-71009310D01*
X77042925Y-71009312D01*
X77042924Y-71009312D01*
X76909312Y-71142924D01*
X76909312Y-71142925D01*
X76909310Y-71142927D01*
X76861610Y-71208579D01*
X76798240Y-71295800D01*
X76712451Y-71464170D01*
X76688197Y-71538818D01*
X76648759Y-71596494D01*
X76584401Y-71623692D01*
X76570266Y-71624500D01*
X72579734Y-71624500D01*
X72512695Y-71604815D01*
X72466940Y-71552011D01*
X72461803Y-71538818D01*
X72437548Y-71464170D01*
X72364872Y-71321535D01*
X72351760Y-71295801D01*
X72240690Y-71142927D01*
X72107073Y-71009310D01*
X71954199Y-70898240D01*
X71930579Y-70886205D01*
X71785836Y-70812454D01*
X71606118Y-70754059D01*
X71419486Y-70724500D01*
X71419481Y-70724500D01*
X71230519Y-70724500D01*
X71230514Y-70724500D01*
X71043881Y-70754059D01*
X70864163Y-70812454D01*
X70695800Y-70898240D01*
X70608579Y-70961610D01*
X70542927Y-71009310D01*
X70542925Y-71009312D01*
X70542924Y-71009312D01*
X70409312Y-71142924D01*
X70409312Y-71142925D01*
X70409310Y-71142927D01*
X70361610Y-71208579D01*
X70298240Y-71295800D01*
X70212454Y-71464163D01*
X70154059Y-71643881D01*
X70124500Y-71830513D01*
X70124500Y-72019486D01*
X70154059Y-72206118D01*
X70212454Y-72385836D01*
X70288100Y-72534299D01*
X70298240Y-72554199D01*
X70409310Y-72707073D01*
X70542927Y-72840690D01*
X70695801Y-72951760D01*
X70775347Y-72992290D01*
X70864163Y-73037545D01*
X70864165Y-73037545D01*
X70864168Y-73037547D01*
X70960497Y-73068846D01*
X71043881Y-73095940D01*
X71230514Y-73125500D01*
X71230519Y-73125500D01*
X71419486Y-73125500D01*
X71606118Y-73095940D01*
X71785832Y-73037547D01*
X71954199Y-72951760D01*
X72107073Y-72840690D01*
X72240690Y-72707073D01*
X72351760Y-72554199D01*
X72437547Y-72385832D01*
X72447259Y-72355941D01*
X72461803Y-72311182D01*
X72501241Y-72253506D01*
X72565599Y-72226308D01*
X72579734Y-72225500D01*
X76570266Y-72225500D01*
X76637305Y-72245185D01*
X76683060Y-72297989D01*
X76688197Y-72311182D01*
X76712451Y-72385829D01*
X76788100Y-72534299D01*
X76798240Y-72554199D01*
X76909310Y-72707073D01*
X77042927Y-72840690D01*
X77195801Y-72951760D01*
X77275347Y-72992290D01*
X77364163Y-73037545D01*
X77364165Y-73037545D01*
X77364168Y-73037547D01*
X77460497Y-73068846D01*
X77543881Y-73095940D01*
X77730514Y-73125500D01*
X77730519Y-73125500D01*
X77919486Y-73125500D01*
X78106118Y-73095940D01*
X78285832Y-73037547D01*
X78454199Y-72951760D01*
X78607073Y-72840690D01*
X78740690Y-72707073D01*
X78851760Y-72554199D01*
X78937547Y-72385832D01*
X78995940Y-72206118D01*
X79025500Y-72019486D01*
X79025500Y-71830513D01*
X78995940Y-71643881D01*
X78983246Y-71604815D01*
X78976032Y-71582614D01*
X78974037Y-71512775D01*
X79010117Y-71452942D01*
X79072818Y-71422113D01*
X79142232Y-71430077D01*
X79181645Y-71456616D01*
X82388181Y-74663152D01*
X82421666Y-74724475D01*
X82424500Y-74750833D01*
X82424500Y-94606487D01*
X82404815Y-94673526D01*
X82352011Y-94719281D01*
X82347954Y-94721048D01*
X82292402Y-94744059D01*
X82292395Y-94744062D01*
X82120344Y-94859022D01*
X81974024Y-95005342D01*
X81859058Y-95177403D01*
X81779870Y-95368579D01*
X81779868Y-95368587D01*
X81739500Y-95571530D01*
X81739500Y-95778469D01*
X81779868Y-95981412D01*
X81779870Y-95981420D01*
X81859059Y-96172599D01*
X81859059Y-96172600D01*
X81965306Y-96331610D01*
X81986184Y-96398287D01*
X81967699Y-96465667D01*
X81915720Y-96512357D01*
X81862204Y-96524500D01*
X81424500Y-96524500D01*
X81357461Y-96504815D01*
X81311706Y-96452011D01*
X81300500Y-96400500D01*
X81300500Y-94805249D01*
X81300499Y-94805247D01*
X81288868Y-94746770D01*
X81288867Y-94746769D01*
X81244552Y-94680447D01*
X81178230Y-94636132D01*
X81178229Y-94636131D01*
X81119752Y-94624500D01*
X81119748Y-94624500D01*
X79380252Y-94624500D01*
X79380247Y-94624500D01*
X79321770Y-94636131D01*
X79321769Y-94636132D01*
X79255447Y-94680447D01*
X79211132Y-94746769D01*
X79211131Y-94746770D01*
X79199500Y-94805247D01*
X79199500Y-96400500D01*
X79179815Y-96467539D01*
X79127011Y-96513294D01*
X79075500Y-96524500D01*
X59883675Y-96524500D01*
X59816636Y-96504815D01*
X59795994Y-96488181D01*
X57981339Y-94673526D01*
X56132314Y-92824500D01*
X56075250Y-92791554D01*
X56018187Y-92758608D01*
X55954539Y-92741554D01*
X55890892Y-92724500D01*
X55890891Y-92724500D01*
X53583676Y-92724500D01*
X53516637Y-92704815D01*
X53495995Y-92688181D01*
X52261819Y-91454005D01*
X52247115Y-91427077D01*
X52230523Y-91401259D01*
X52229631Y-91395058D01*
X52228334Y-91392682D01*
X52225500Y-91366324D01*
X52225500Y-90799999D01*
X53071115Y-90799999D01*
X53071116Y-90800000D01*
X53823012Y-90800000D01*
X53805795Y-90809940D01*
X53749940Y-90865795D01*
X53710444Y-90934204D01*
X53690000Y-91010504D01*
X53690000Y-91089496D01*
X53710444Y-91165796D01*
X53749940Y-91234205D01*
X53805795Y-91290060D01*
X53823012Y-91300000D01*
X53071116Y-91300000D01*
X53076506Y-91327100D01*
X53076507Y-91327103D01*
X53148119Y-91499991D01*
X53148124Y-91500000D01*
X53252086Y-91655589D01*
X53252089Y-91655593D01*
X53384406Y-91787910D01*
X53384410Y-91787913D01*
X53539999Y-91891875D01*
X53540008Y-91891880D01*
X53712894Y-91963491D01*
X53712902Y-91963493D01*
X53896428Y-91999999D01*
X53896431Y-92000000D01*
X54140000Y-92000000D01*
X54140000Y-91350000D01*
X54640000Y-91350000D01*
X54640000Y-92000000D01*
X54883569Y-92000000D01*
X54883571Y-91999999D01*
X55067097Y-91963493D01*
X55067105Y-91963491D01*
X55239991Y-91891880D01*
X55240000Y-91891875D01*
X55395589Y-91787913D01*
X55395593Y-91787910D01*
X55527910Y-91655593D01*
X55527913Y-91655589D01*
X55631875Y-91500000D01*
X55631880Y-91499991D01*
X55703492Y-91327103D01*
X55703493Y-91327100D01*
X55708884Y-91300000D01*
X54956988Y-91300000D01*
X54974205Y-91290060D01*
X55030060Y-91234205D01*
X55069556Y-91165796D01*
X55090000Y-91089496D01*
X55090000Y-91010504D01*
X55069556Y-90934204D01*
X55030060Y-90865795D01*
X54974205Y-90809940D01*
X54956988Y-90800000D01*
X55708884Y-90800000D01*
X55708884Y-90799999D01*
X55703493Y-90772899D01*
X55703492Y-90772896D01*
X55631880Y-90600008D01*
X55631875Y-90599999D01*
X55527913Y-90444410D01*
X55527910Y-90444406D01*
X55395593Y-90312089D01*
X55395589Y-90312086D01*
X55240000Y-90208124D01*
X55239991Y-90208119D01*
X55067105Y-90136508D01*
X55067097Y-90136506D01*
X54883570Y-90100000D01*
X54640000Y-90100000D01*
X54640000Y-90750000D01*
X54140000Y-90750000D01*
X54140000Y-90100000D01*
X53896430Y-90100000D01*
X53712902Y-90136506D01*
X53712894Y-90136508D01*
X53540008Y-90208119D01*
X53539999Y-90208124D01*
X53384410Y-90312086D01*
X53384406Y-90312089D01*
X53252089Y-90444406D01*
X53252086Y-90444410D01*
X53148124Y-90599999D01*
X53148119Y-90600008D01*
X53076507Y-90772896D01*
X53076506Y-90772899D01*
X53071115Y-90799999D01*
X52225500Y-90799999D01*
X52225500Y-89283676D01*
X52245185Y-89216637D01*
X52261819Y-89195995D01*
X53495995Y-87961819D01*
X53557318Y-87928334D01*
X53583676Y-87925500D01*
X54766324Y-87925500D01*
X54833363Y-87945185D01*
X54854005Y-87961819D01*
X56045159Y-89152972D01*
X56045169Y-89152983D01*
X56049499Y-89157313D01*
X56049500Y-89157314D01*
X56142686Y-89250500D01*
X56256814Y-89316392D01*
X56384107Y-89350500D01*
X56384108Y-89350500D01*
X56896261Y-89350500D01*
X56963300Y-89370185D01*
X57009055Y-89422989D01*
X57018999Y-89492147D01*
X57006517Y-89528211D01*
X57007075Y-89528442D01*
X57003964Y-89535953D01*
X56975000Y-89644048D01*
X56975000Y-89755951D01*
X57003963Y-89864045D01*
X57032805Y-89913999D01*
X57049278Y-89981899D01*
X57026426Y-90047926D01*
X56971505Y-90091117D01*
X56932418Y-90098650D01*
X56932493Y-90099403D01*
X56926428Y-90100000D01*
X56742902Y-90136506D01*
X56742894Y-90136508D01*
X56570008Y-90208119D01*
X56569999Y-90208124D01*
X56414410Y-90312086D01*
X56414406Y-90312089D01*
X56282089Y-90444406D01*
X56282086Y-90444410D01*
X56178124Y-90599999D01*
X56178119Y-90600008D01*
X56106507Y-90772896D01*
X56106506Y-90772899D01*
X56101115Y-90799999D01*
X56101116Y-90800000D01*
X56853012Y-90800000D01*
X56835795Y-90809940D01*
X56779940Y-90865795D01*
X56740444Y-90934204D01*
X56720000Y-91010504D01*
X56720000Y-91089496D01*
X56740444Y-91165796D01*
X56779940Y-91234205D01*
X56835795Y-91290060D01*
X56853012Y-91300000D01*
X56101116Y-91300000D01*
X56106506Y-91327100D01*
X56106507Y-91327103D01*
X56178119Y-91499991D01*
X56178124Y-91500000D01*
X56282086Y-91655589D01*
X56282089Y-91655593D01*
X56414406Y-91787910D01*
X56414410Y-91787913D01*
X56569999Y-91891875D01*
X56570008Y-91891880D01*
X56742894Y-91963491D01*
X56742902Y-91963493D01*
X56926428Y-91999999D01*
X56926431Y-92000000D01*
X57520000Y-92000000D01*
X57520000Y-91350000D01*
X58020000Y-91350000D01*
X58020000Y-92000000D01*
X58613569Y-92000000D01*
X58613571Y-91999999D01*
X58797097Y-91963493D01*
X58797105Y-91963491D01*
X58969991Y-91891880D01*
X58970000Y-91891875D01*
X59125589Y-91787913D01*
X59125593Y-91787910D01*
X59257910Y-91655593D01*
X59257913Y-91655589D01*
X59361875Y-91500000D01*
X59361880Y-91499991D01*
X59433492Y-91327103D01*
X59433493Y-91327100D01*
X59438884Y-91300000D01*
X58686988Y-91300000D01*
X58704205Y-91290060D01*
X58760060Y-91234205D01*
X58799556Y-91165796D01*
X58820000Y-91089496D01*
X58820000Y-91010504D01*
X58799556Y-90934204D01*
X58760060Y-90865795D01*
X58704205Y-90809940D01*
X58686988Y-90800000D01*
X59438884Y-90800000D01*
X59438884Y-90799999D01*
X59433493Y-90772899D01*
X59433492Y-90772896D01*
X59361880Y-90600008D01*
X59361875Y-90599999D01*
X59257913Y-90444410D01*
X59257910Y-90444406D01*
X59125593Y-90312089D01*
X59125589Y-90312086D01*
X59004026Y-90230860D01*
X58992551Y-90231991D01*
X58990857Y-90231669D01*
X58989243Y-90232272D01*
X58956666Y-90225185D01*
X58923905Y-90218972D01*
X58922115Y-90217669D01*
X58920970Y-90217420D01*
X58892716Y-90196269D01*
X58868793Y-90172346D01*
X58868791Y-90172343D01*
X58660904Y-89964457D01*
X58627419Y-89903134D01*
X58630280Y-89863123D01*
X58636709Y-89869552D01*
X58710218Y-89900000D01*
X58789782Y-89900000D01*
X58863291Y-89869552D01*
X58919552Y-89813291D01*
X58950000Y-89739782D01*
X58950000Y-89700000D01*
X59103553Y-89700000D01*
X59103553Y-89700001D01*
X59171724Y-89768172D01*
X59171725Y-89768171D01*
X59175000Y-89755954D01*
X59175000Y-89644047D01*
X59171725Y-89631827D01*
X59103553Y-89700000D01*
X58950000Y-89700000D01*
X58950000Y-89660218D01*
X58919552Y-89586709D01*
X58863291Y-89530448D01*
X58789782Y-89500000D01*
X58710218Y-89500000D01*
X58636709Y-89530448D01*
X58628177Y-89538979D01*
X58632403Y-89479889D01*
X58660904Y-89435542D01*
X58684627Y-89411819D01*
X58745950Y-89378334D01*
X58772308Y-89375500D01*
X58819181Y-89375500D01*
X58819183Y-89375500D01*
X58952836Y-89339688D01*
X59072665Y-89270505D01*
X59170505Y-89172665D01*
X59170507Y-89172660D01*
X59170509Y-89172659D01*
X59209000Y-89105989D01*
X59239688Y-89052836D01*
X59275500Y-88919183D01*
X59275500Y-88780817D01*
X59239688Y-88647164D01*
X59170505Y-88527335D01*
X59155851Y-88512681D01*
X59122366Y-88451358D01*
X59127350Y-88381666D01*
X59155851Y-88337319D01*
X59162210Y-88330960D01*
X59170505Y-88322665D01*
X59239688Y-88202836D01*
X59275500Y-88069183D01*
X59275500Y-87930817D01*
X59239688Y-87797164D01*
X59170505Y-87677335D01*
X59155851Y-87662681D01*
X59122366Y-87601358D01*
X59127350Y-87531666D01*
X59155851Y-87487319D01*
X59170505Y-87472665D01*
X59239688Y-87352836D01*
X59275500Y-87219183D01*
X59275500Y-87080817D01*
X59239688Y-86947164D01*
X59170505Y-86827335D01*
X59155851Y-86812681D01*
X59122366Y-86751358D01*
X59127350Y-86681666D01*
X59155851Y-86637319D01*
X59170505Y-86622665D01*
X59239688Y-86502836D01*
X59275500Y-86369183D01*
X59275500Y-86230817D01*
X59239688Y-86097164D01*
X59170505Y-85977335D01*
X59155851Y-85962681D01*
X59122366Y-85901358D01*
X59127350Y-85831666D01*
X59155851Y-85787319D01*
X59170505Y-85772665D01*
X59239688Y-85652836D01*
X59275500Y-85519183D01*
X59275500Y-85380817D01*
X59239688Y-85247164D01*
X59175006Y-85135131D01*
X59170507Y-85127338D01*
X59170503Y-85127333D01*
X59155851Y-85112681D01*
X59122366Y-85051358D01*
X59127350Y-84981666D01*
X59155851Y-84937319D01*
X59170505Y-84922665D01*
X59239688Y-84802836D01*
X59275500Y-84669183D01*
X59275500Y-84530817D01*
X59239688Y-84397164D01*
X59170505Y-84277335D01*
X59072665Y-84179495D01*
X59072664Y-84179494D01*
X59072661Y-84179492D01*
X58952838Y-84110313D01*
X58952837Y-84110312D01*
X58952836Y-84110312D01*
X58819183Y-84074500D01*
X58724862Y-84074500D01*
X58657823Y-84054815D01*
X58612068Y-84002011D01*
X58602124Y-83932853D01*
X58617136Y-83899979D01*
X58636709Y-83919552D01*
X58710218Y-83950000D01*
X58789782Y-83950000D01*
X58863291Y-83919552D01*
X58919552Y-83863291D01*
X58950000Y-83789782D01*
X58950000Y-83710218D01*
X58919552Y-83636709D01*
X58863291Y-83580448D01*
X58789782Y-83550000D01*
X58710218Y-83550000D01*
X58636709Y-83580448D01*
X58608578Y-83608578D01*
X58607872Y-83607872D01*
X58574387Y-83546549D01*
X58579371Y-83476857D01*
X58607872Y-83432510D01*
X58987509Y-83052872D01*
X59048832Y-83019387D01*
X59118523Y-83024371D01*
X59162871Y-83052872D01*
X59186750Y-83076751D01*
X59257916Y-83005585D01*
X59361875Y-82850000D01*
X59361880Y-82849991D01*
X59433492Y-82677103D01*
X59433493Y-82677100D01*
X59438884Y-82650000D01*
X58686988Y-82650000D01*
X58704205Y-82640060D01*
X58760060Y-82584205D01*
X58799556Y-82515796D01*
X58820000Y-82439496D01*
X58820000Y-82360504D01*
X58799556Y-82284204D01*
X58760060Y-82215795D01*
X58704205Y-82159940D01*
X58686988Y-82150000D01*
X59438884Y-82150000D01*
X59438884Y-82149999D01*
X59433493Y-82122899D01*
X59433492Y-82122896D01*
X59361880Y-81950008D01*
X59361875Y-81949999D01*
X59257913Y-81794410D01*
X59257910Y-81794406D01*
X59125593Y-81662089D01*
X59125589Y-81662086D01*
X58970000Y-81558124D01*
X58969991Y-81558119D01*
X58797105Y-81486508D01*
X58797097Y-81486506D01*
X58613570Y-81450000D01*
X58020000Y-81450000D01*
X58020000Y-82100000D01*
X57520000Y-82100000D01*
X57520000Y-81450000D01*
X56926430Y-81450000D01*
X56742902Y-81486506D01*
X56742894Y-81486508D01*
X56570008Y-81558119D01*
X56569999Y-81558124D01*
X56414410Y-81662086D01*
X56414406Y-81662089D01*
X56282089Y-81794406D01*
X56282086Y-81794410D01*
X56178124Y-81949999D01*
X56178119Y-81950008D01*
X56106507Y-82122896D01*
X56106506Y-82122899D01*
X56101115Y-82149999D01*
X56101116Y-82150000D01*
X56853012Y-82150000D01*
X56835795Y-82159940D01*
X56779940Y-82215795D01*
X56740444Y-82284204D01*
X56720000Y-82360504D01*
X56720000Y-82439496D01*
X56740444Y-82515796D01*
X56779940Y-82584205D01*
X56835795Y-82640060D01*
X56853012Y-82650000D01*
X56101116Y-82650000D01*
X56106506Y-82677100D01*
X56106507Y-82677103D01*
X56178119Y-82849991D01*
X56178124Y-82850000D01*
X56282086Y-83005589D01*
X56282089Y-83005593D01*
X56414406Y-83137910D01*
X56414410Y-83137913D01*
X56569999Y-83241875D01*
X56570008Y-83241880D01*
X56742894Y-83313491D01*
X56742902Y-83313493D01*
X56926428Y-83349999D01*
X56932493Y-83350597D01*
X56932351Y-83352035D01*
X56992457Y-83369685D01*
X57038212Y-83422489D01*
X57048156Y-83491647D01*
X57032805Y-83536001D01*
X57003963Y-83585954D01*
X56975000Y-83694048D01*
X56975000Y-83805951D01*
X57003964Y-83914046D01*
X57007075Y-83921558D01*
X57005737Y-83922111D01*
X57020120Y-83981405D01*
X56997266Y-84047431D01*
X56942343Y-84090619D01*
X56896261Y-84099500D01*
X56084108Y-84099500D01*
X55956812Y-84133608D01*
X55842686Y-84199500D01*
X55842683Y-84199502D01*
X51324502Y-88717683D01*
X51324500Y-88717686D01*
X51258608Y-88831812D01*
X51224500Y-88959108D01*
X51224500Y-91690891D01*
X51258608Y-91818187D01*
X51291554Y-91875250D01*
X51324500Y-91932314D01*
X51324502Y-91932316D01*
X52973185Y-93580999D01*
X53006670Y-93642322D01*
X53001686Y-93712014D01*
X52959814Y-93767947D01*
X52913097Y-93789571D01*
X52720769Y-93833468D01*
X52720761Y-93833471D01*
X52413274Y-93941066D01*
X52119765Y-94082413D01*
X51843920Y-94255738D01*
X51589217Y-94458856D01*
X51358856Y-94689217D01*
X51155738Y-94943920D01*
X50982413Y-95219765D01*
X50961220Y-95263774D01*
X50914397Y-95315633D01*
X50846970Y-95333946D01*
X50780346Y-95312898D01*
X50735678Y-95259172D01*
X50725500Y-95209972D01*
X50725500Y-82149999D01*
X53071115Y-82149999D01*
X53071116Y-82150000D01*
X53823012Y-82150000D01*
X53805795Y-82159940D01*
X53749940Y-82215795D01*
X53710444Y-82284204D01*
X53690000Y-82360504D01*
X53690000Y-82439496D01*
X53710444Y-82515796D01*
X53749940Y-82584205D01*
X53805795Y-82640060D01*
X53823012Y-82650000D01*
X53071116Y-82650000D01*
X53076506Y-82677100D01*
X53076507Y-82677103D01*
X53148119Y-82849991D01*
X53148124Y-82850000D01*
X53252086Y-83005589D01*
X53252089Y-83005593D01*
X53384406Y-83137910D01*
X53384410Y-83137913D01*
X53539999Y-83241875D01*
X53540008Y-83241880D01*
X53712894Y-83313491D01*
X53712902Y-83313493D01*
X53896428Y-83349999D01*
X53896431Y-83350000D01*
X54140000Y-83350000D01*
X54140000Y-82700000D01*
X54640000Y-82700000D01*
X54640000Y-83350000D01*
X54883569Y-83350000D01*
X54883571Y-83349999D01*
X55067097Y-83313493D01*
X55067105Y-83313491D01*
X55239991Y-83241880D01*
X55240000Y-83241875D01*
X55395589Y-83137913D01*
X55395593Y-83137910D01*
X55527910Y-83005593D01*
X55527913Y-83005589D01*
X55631875Y-82850000D01*
X55631880Y-82849991D01*
X55703492Y-82677103D01*
X55703493Y-82677100D01*
X55708884Y-82650000D01*
X54956988Y-82650000D01*
X54974205Y-82640060D01*
X55030060Y-82584205D01*
X55069556Y-82515796D01*
X55090000Y-82439496D01*
X55090000Y-82360504D01*
X55069556Y-82284204D01*
X55030060Y-82215795D01*
X54974205Y-82159940D01*
X54956988Y-82150000D01*
X55708884Y-82150000D01*
X55708884Y-82149999D01*
X55703493Y-82122899D01*
X55703492Y-82122896D01*
X55631880Y-81950008D01*
X55631875Y-81949999D01*
X55527913Y-81794410D01*
X55527910Y-81794406D01*
X55395593Y-81662089D01*
X55395589Y-81662086D01*
X55240000Y-81558124D01*
X55239991Y-81558119D01*
X55067105Y-81486508D01*
X55067097Y-81486506D01*
X54883570Y-81450000D01*
X54640000Y-81450000D01*
X54640000Y-82100000D01*
X54140000Y-82100000D01*
X54140000Y-81450000D01*
X53896430Y-81450000D01*
X53712902Y-81486506D01*
X53712894Y-81486508D01*
X53540008Y-81558119D01*
X53539999Y-81558124D01*
X53384410Y-81662086D01*
X53384406Y-81662089D01*
X53252089Y-81794406D01*
X53252086Y-81794410D01*
X53148124Y-81949999D01*
X53148119Y-81950008D01*
X53076507Y-82122896D01*
X53076506Y-82122899D01*
X53071115Y-82149999D01*
X50725500Y-82149999D01*
X50725500Y-76425013D01*
X52470000Y-76425013D01*
X52470000Y-76845000D01*
X53522291Y-76845000D01*
X53510548Y-76865339D01*
X53470000Y-77016667D01*
X53470000Y-77173333D01*
X53510548Y-77324661D01*
X53522291Y-77345000D01*
X52470001Y-77345000D01*
X52470001Y-77764986D01*
X52480494Y-77867697D01*
X52535641Y-78034119D01*
X52535643Y-78034124D01*
X52627684Y-78183345D01*
X52751654Y-78307315D01*
X52900875Y-78399356D01*
X52900880Y-78399358D01*
X53067302Y-78454505D01*
X53067309Y-78454506D01*
X53170019Y-78464999D01*
X53814999Y-78464999D01*
X53815000Y-78464998D01*
X53815000Y-77637709D01*
X53835339Y-77649452D01*
X53986667Y-77690000D01*
X54143333Y-77690000D01*
X54294661Y-77649452D01*
X54315000Y-77637709D01*
X54315000Y-78464999D01*
X54959972Y-78464999D01*
X54959986Y-78464998D01*
X55062697Y-78454505D01*
X55229119Y-78399358D01*
X55229124Y-78399356D01*
X55378345Y-78307315D01*
X55502315Y-78183345D01*
X55594356Y-78034124D01*
X55594358Y-78034119D01*
X55649505Y-77867697D01*
X55649506Y-77867690D01*
X55659999Y-77764986D01*
X55660000Y-77764973D01*
X55660000Y-77345000D01*
X54607709Y-77345000D01*
X54619452Y-77324661D01*
X54660000Y-77173333D01*
X54660000Y-77016667D01*
X54619452Y-76865339D01*
X54607709Y-76845000D01*
X55659999Y-76845000D01*
X55659999Y-76425028D01*
X55659998Y-76425013D01*
X55649506Y-76322305D01*
X55649504Y-76322300D01*
X55644417Y-76306947D01*
X69825000Y-76306947D01*
X69825000Y-76543052D01*
X69861934Y-76776247D01*
X69934897Y-77000802D01*
X70042087Y-77211174D01*
X70102338Y-77294104D01*
X70102340Y-77294105D01*
X70801212Y-76595233D01*
X70812482Y-76637292D01*
X70884890Y-76762708D01*
X70987292Y-76865110D01*
X71112708Y-76937518D01*
X71154765Y-76948787D01*
X70455893Y-77647658D01*
X70538828Y-77707914D01*
X70749197Y-77815102D01*
X70973752Y-77888065D01*
X70973751Y-77888065D01*
X71206948Y-77925000D01*
X71443052Y-77925000D01*
X71676247Y-77888065D01*
X71900802Y-77815102D01*
X72111163Y-77707918D01*
X72111169Y-77707914D01*
X72194104Y-77647658D01*
X72194105Y-77647658D01*
X71495233Y-76948787D01*
X71537292Y-76937518D01*
X71662708Y-76865110D01*
X71765110Y-76762708D01*
X71837518Y-76637292D01*
X71848787Y-76595233D01*
X72547658Y-77294105D01*
X72547658Y-77294104D01*
X72607914Y-77211169D01*
X72607918Y-77211163D01*
X72715102Y-77000802D01*
X72788065Y-76776247D01*
X72825000Y-76543052D01*
X72825000Y-76306947D01*
X76325000Y-76306947D01*
X76325000Y-76543052D01*
X76361934Y-76776247D01*
X76434897Y-77000802D01*
X76542087Y-77211174D01*
X76602338Y-77294104D01*
X76602340Y-77294105D01*
X77301212Y-76595233D01*
X77312482Y-76637292D01*
X77384890Y-76762708D01*
X77487292Y-76865110D01*
X77612708Y-76937518D01*
X77654765Y-76948787D01*
X76955893Y-77647658D01*
X77038828Y-77707914D01*
X77249197Y-77815102D01*
X77473752Y-77888065D01*
X77473751Y-77888065D01*
X77706948Y-77925000D01*
X77943052Y-77925000D01*
X78176247Y-77888065D01*
X78400802Y-77815102D01*
X78611163Y-77707918D01*
X78611169Y-77707914D01*
X78694104Y-77647658D01*
X78694105Y-77647658D01*
X77995233Y-76948787D01*
X78037292Y-76937518D01*
X78162708Y-76865110D01*
X78265110Y-76762708D01*
X78337518Y-76637292D01*
X78348787Y-76595234D01*
X79047658Y-77294105D01*
X79047658Y-77294104D01*
X79107914Y-77211169D01*
X79107918Y-77211163D01*
X79215102Y-77000802D01*
X79288065Y-76776247D01*
X79325000Y-76543052D01*
X79325000Y-76306947D01*
X79288065Y-76073752D01*
X79215102Y-75849197D01*
X79107914Y-75638828D01*
X79047658Y-75555894D01*
X79047658Y-75555893D01*
X78348787Y-76254765D01*
X78337518Y-76212708D01*
X78265110Y-76087292D01*
X78162708Y-75984890D01*
X78037292Y-75912482D01*
X77995234Y-75901212D01*
X78694105Y-75202340D01*
X78694104Y-75202338D01*
X78611174Y-75142087D01*
X78400802Y-75034897D01*
X78176247Y-74961934D01*
X78176248Y-74961934D01*
X77943052Y-74925000D01*
X77706948Y-74925000D01*
X77473752Y-74961934D01*
X77249197Y-75034897D01*
X77038830Y-75142084D01*
X76955894Y-75202340D01*
X77654766Y-75901212D01*
X77612708Y-75912482D01*
X77487292Y-75984890D01*
X77384890Y-76087292D01*
X77312482Y-76212708D01*
X77301212Y-76254766D01*
X76602340Y-75555894D01*
X76542084Y-75638830D01*
X76434897Y-75849197D01*
X76361934Y-76073752D01*
X76325000Y-76306947D01*
X72825000Y-76306947D01*
X72788065Y-76073752D01*
X72715102Y-75849197D01*
X72607914Y-75638828D01*
X72547658Y-75555894D01*
X72547658Y-75555893D01*
X71848787Y-76254765D01*
X71837518Y-76212708D01*
X71765110Y-76087292D01*
X71662708Y-75984890D01*
X71537292Y-75912482D01*
X71495234Y-75901212D01*
X72194105Y-75202340D01*
X72194104Y-75202339D01*
X72111174Y-75142087D01*
X71900802Y-75034897D01*
X71676247Y-74961934D01*
X71676248Y-74961934D01*
X71443052Y-74925000D01*
X71206948Y-74925000D01*
X70973752Y-74961934D01*
X70749197Y-75034897D01*
X70538830Y-75142084D01*
X70455894Y-75202340D01*
X71154766Y-75901212D01*
X71112708Y-75912482D01*
X70987292Y-75984890D01*
X70884890Y-76087292D01*
X70812482Y-76212708D01*
X70801212Y-76254766D01*
X70102340Y-75555894D01*
X70042084Y-75638830D01*
X69934897Y-75849197D01*
X69861934Y-76073752D01*
X69825000Y-76306947D01*
X55644417Y-76306947D01*
X55594358Y-76155880D01*
X55594356Y-76155875D01*
X55502315Y-76006654D01*
X55378345Y-75882684D01*
X55229124Y-75790643D01*
X55229119Y-75790641D01*
X55062697Y-75735494D01*
X55062690Y-75735493D01*
X54959986Y-75725000D01*
X54874594Y-75725000D01*
X54807555Y-75705315D01*
X54761800Y-75652511D01*
X54751856Y-75583353D01*
X54780881Y-75519797D01*
X54805703Y-75497898D01*
X54972404Y-75386512D01*
X55121510Y-75237406D01*
X55121512Y-75237404D01*
X55238665Y-75062072D01*
X55319362Y-74867253D01*
X55360500Y-74660435D01*
X55360500Y-74449565D01*
X55319362Y-74242747D01*
X55238665Y-74047928D01*
X55198421Y-73987699D01*
X55177543Y-73921021D01*
X55196028Y-73853641D01*
X55213838Y-73831131D01*
X57865460Y-71179511D01*
X57905021Y-71110989D01*
X57925500Y-71034562D01*
X57925500Y-66809108D01*
X60774500Y-66809108D01*
X60774500Y-66940891D01*
X60808608Y-67068187D01*
X60841554Y-67125250D01*
X60874500Y-67182314D01*
X60967686Y-67275500D01*
X61081814Y-67341392D01*
X61209108Y-67375500D01*
X61209110Y-67375500D01*
X61340890Y-67375500D01*
X61340892Y-67375500D01*
X61368408Y-67368127D01*
X61438256Y-67369790D01*
X61496119Y-67408952D01*
X61523623Y-67473181D01*
X61524500Y-67487902D01*
X61524500Y-73366323D01*
X61504815Y-73433362D01*
X61488182Y-73454004D01*
X61424500Y-73517686D01*
X61358608Y-73631812D01*
X61334044Y-73723488D01*
X61324500Y-73759108D01*
X61324500Y-73890892D01*
X61332573Y-73921021D01*
X61358608Y-74018187D01*
X61387637Y-74068465D01*
X61424500Y-74132314D01*
X61517686Y-74225500D01*
X61631814Y-74291392D01*
X61759108Y-74325500D01*
X61759110Y-74325500D01*
X61890890Y-74325500D01*
X61890892Y-74325500D01*
X62018186Y-74291392D01*
X62132314Y-74225500D01*
X62225500Y-74132314D01*
X62291392Y-74018186D01*
X62325500Y-73890892D01*
X62325500Y-73759108D01*
X62291392Y-73631814D01*
X62225500Y-73517686D01*
X62161818Y-73454004D01*
X62128334Y-73392680D01*
X62125500Y-73366323D01*
X62125500Y-67700832D01*
X62145185Y-67633793D01*
X62161814Y-67613156D01*
X65963151Y-63811818D01*
X66024474Y-63778334D01*
X66050832Y-63775500D01*
X66140890Y-63775500D01*
X66140892Y-63775500D01*
X66268186Y-63741392D01*
X66382314Y-63675500D01*
X66475500Y-63582314D01*
X66541392Y-63468186D01*
X66575500Y-63340892D01*
X66575500Y-63209108D01*
X66541392Y-63081814D01*
X66475500Y-62967686D01*
X66382314Y-62874500D01*
X66325250Y-62841554D01*
X66268187Y-62808608D01*
X66204539Y-62791554D01*
X66140892Y-62774500D01*
X66009108Y-62774500D01*
X65881812Y-62808608D01*
X65767686Y-62874500D01*
X65767683Y-62874502D01*
X65674502Y-62967683D01*
X65674500Y-62967686D01*
X65608608Y-63081812D01*
X65574500Y-63209108D01*
X65574500Y-63299166D01*
X65554815Y-63366205D01*
X65538181Y-63386847D01*
X65236428Y-63688599D01*
X65175105Y-63722084D01*
X65105413Y-63717100D01*
X65049480Y-63675228D01*
X65041360Y-63662919D01*
X65028410Y-63640489D01*
X65001235Y-63593421D01*
X64908049Y-63500235D01*
X64850985Y-63467289D01*
X64793922Y-63434343D01*
X64730274Y-63417289D01*
X64666627Y-63400235D01*
X64534843Y-63400235D01*
X64407547Y-63434343D01*
X64293421Y-63500235D01*
X64293417Y-63500238D01*
X64210953Y-63582701D01*
X64176192Y-63607160D01*
X64166119Y-63611913D01*
X64133276Y-63620714D01*
X64074199Y-63654822D01*
X64069761Y-63657383D01*
X64069755Y-63657387D01*
X64064757Y-63660272D01*
X64064752Y-63660276D01*
X61386847Y-66338181D01*
X61325524Y-66371666D01*
X61299166Y-66374500D01*
X61209108Y-66374500D01*
X61081812Y-66408608D01*
X60967686Y-66474500D01*
X60967683Y-66474502D01*
X60874502Y-66567683D01*
X60874500Y-66567686D01*
X60808608Y-66681812D01*
X60774500Y-66809108D01*
X57925500Y-66809108D01*
X57925500Y-64000833D01*
X57945185Y-63933794D01*
X57961819Y-63913152D01*
X62693152Y-59181819D01*
X62754475Y-59148334D01*
X62780833Y-59145500D01*
X65946324Y-59145500D01*
X66013363Y-59165185D01*
X66034005Y-59181819D01*
X66097686Y-59245500D01*
X66211814Y-59311392D01*
X66339108Y-59345500D01*
X66339110Y-59345500D01*
X66470890Y-59345500D01*
X66470892Y-59345500D01*
X66598186Y-59311392D01*
X66712314Y-59245500D01*
X66805500Y-59152314D01*
X66871392Y-59038186D01*
X66905500Y-58910892D01*
X66905500Y-58779108D01*
X66871392Y-58651814D01*
X66805500Y-58537686D01*
X66712314Y-58444500D01*
X66655250Y-58411554D01*
X66598187Y-58378608D01*
X66534539Y-58361554D01*
X66470892Y-58344500D01*
X66339108Y-58344500D01*
X66211812Y-58378608D01*
X66097686Y-58444500D01*
X66097683Y-58444502D01*
X66034005Y-58508181D01*
X65972682Y-58541666D01*
X65946324Y-58544500D01*
X62565438Y-58544500D01*
X62489010Y-58564978D01*
X62420489Y-58604540D01*
X62420486Y-58604542D01*
X57384541Y-63640487D01*
X57384535Y-63640495D01*
X57344982Y-63709004D01*
X57344979Y-63709009D01*
X57324500Y-63785439D01*
X57324500Y-70819166D01*
X57304815Y-70886205D01*
X57288181Y-70906847D01*
X54705118Y-73489909D01*
X54643795Y-73523394D01*
X54593247Y-73523846D01*
X54422628Y-73489909D01*
X54395435Y-73484500D01*
X53734565Y-73484500D01*
X53734560Y-73484500D01*
X53527754Y-73525636D01*
X53527746Y-73525638D01*
X53332930Y-73606333D01*
X53332921Y-73606338D01*
X53157596Y-73723487D01*
X53157592Y-73723490D01*
X53008490Y-73872592D01*
X53008487Y-73872596D01*
X52891338Y-74047921D01*
X52891333Y-74047930D01*
X52810638Y-74242746D01*
X52810636Y-74242754D01*
X52769500Y-74449560D01*
X52769500Y-74660439D01*
X52810636Y-74867245D01*
X52810638Y-74867253D01*
X52891333Y-75062069D01*
X52891338Y-75062078D01*
X53008487Y-75237403D01*
X53008490Y-75237407D01*
X53157595Y-75386512D01*
X53324297Y-75497898D01*
X53369102Y-75551510D01*
X53377809Y-75620835D01*
X53347655Y-75683862D01*
X53288212Y-75720582D01*
X53255407Y-75725000D01*
X53170029Y-75725000D01*
X53170012Y-75725001D01*
X53067302Y-75735494D01*
X52900880Y-75790641D01*
X52900875Y-75790643D01*
X52751654Y-75882684D01*
X52627684Y-76006654D01*
X52535643Y-76155875D01*
X52535641Y-76155880D01*
X52480494Y-76322302D01*
X52480493Y-76322309D01*
X52470000Y-76425013D01*
X50725500Y-76425013D01*
X50725500Y-67295013D01*
X52530000Y-67295013D01*
X52530000Y-67715000D01*
X53582291Y-67715000D01*
X53570548Y-67735339D01*
X53530000Y-67886667D01*
X53530000Y-68043333D01*
X53570548Y-68194661D01*
X53582291Y-68215000D01*
X52530001Y-68215000D01*
X52530001Y-68634986D01*
X52540494Y-68737697D01*
X52595641Y-68904119D01*
X52595643Y-68904124D01*
X52687684Y-69053345D01*
X52811654Y-69177315D01*
X52960875Y-69269356D01*
X52960880Y-69269358D01*
X53127302Y-69324505D01*
X53127309Y-69324506D01*
X53230019Y-69334999D01*
X53874999Y-69334999D01*
X53875000Y-69334998D01*
X53875000Y-68507709D01*
X53895339Y-68519452D01*
X54046667Y-68560000D01*
X54203333Y-68560000D01*
X54354661Y-68519452D01*
X54375000Y-68507709D01*
X54375000Y-69334999D01*
X55019972Y-69334999D01*
X55019986Y-69334998D01*
X55122697Y-69324505D01*
X55289119Y-69269358D01*
X55289124Y-69269356D01*
X55438345Y-69177315D01*
X55562315Y-69053345D01*
X55654356Y-68904124D01*
X55654358Y-68904119D01*
X55709505Y-68737697D01*
X55709506Y-68737690D01*
X55719999Y-68634986D01*
X55720000Y-68634973D01*
X55720000Y-68215000D01*
X54667709Y-68215000D01*
X54679452Y-68194661D01*
X54720000Y-68043333D01*
X54720000Y-67886667D01*
X54679452Y-67735339D01*
X54667709Y-67715000D01*
X55719999Y-67715000D01*
X55719999Y-67295028D01*
X55719998Y-67295013D01*
X55709505Y-67192302D01*
X55654358Y-67025880D01*
X55654356Y-67025875D01*
X55562315Y-66876654D01*
X55438345Y-66752684D01*
X55289124Y-66660643D01*
X55289119Y-66660641D01*
X55122697Y-66605494D01*
X55122690Y-66605493D01*
X55019986Y-66595000D01*
X54934594Y-66595000D01*
X54867555Y-66575315D01*
X54821800Y-66522511D01*
X54811856Y-66453353D01*
X54840881Y-66389797D01*
X54865703Y-66367898D01*
X55032404Y-66256512D01*
X55181509Y-66107407D01*
X55181512Y-66107404D01*
X55298665Y-65932072D01*
X55379362Y-65737253D01*
X55420500Y-65530435D01*
X55420500Y-65319565D01*
X55379362Y-65112747D01*
X55298665Y-64917928D01*
X55258421Y-64857699D01*
X55237543Y-64791021D01*
X55256028Y-64723641D01*
X55273838Y-64701131D01*
X62063152Y-57911819D01*
X62124475Y-57878334D01*
X62150833Y-57875500D01*
X65966324Y-57875500D01*
X66033363Y-57895185D01*
X66054005Y-57911819D01*
X66117686Y-57975500D01*
X66231814Y-58041392D01*
X66359108Y-58075500D01*
X66359110Y-58075500D01*
X66490890Y-58075500D01*
X66490892Y-58075500D01*
X66618186Y-58041392D01*
X66732314Y-57975500D01*
X66825500Y-57882314D01*
X66891392Y-57768186D01*
X66925500Y-57640892D01*
X66925500Y-57509108D01*
X66891392Y-57381814D01*
X66876200Y-57355500D01*
X66828009Y-57272031D01*
X66828008Y-57272030D01*
X66825504Y-57267692D01*
X66825501Y-57267689D01*
X66825500Y-57267686D01*
X66808659Y-57250845D01*
X74662706Y-57250845D01*
X74791652Y-57304257D01*
X74791656Y-57304258D01*
X74946202Y-57334999D01*
X74946206Y-57335000D01*
X75103794Y-57335000D01*
X75103797Y-57334999D01*
X75258343Y-57304258D01*
X75258347Y-57304257D01*
X75387293Y-57250845D01*
X76062706Y-57250845D01*
X76191652Y-57304257D01*
X76191656Y-57304258D01*
X76346202Y-57334999D01*
X76346206Y-57335000D01*
X76503794Y-57335000D01*
X76503797Y-57334999D01*
X76658343Y-57304258D01*
X76658347Y-57304257D01*
X76787293Y-57250845D01*
X76425001Y-56888553D01*
X76425000Y-56888553D01*
X76062706Y-57250845D01*
X75387293Y-57250845D01*
X75025001Y-56888553D01*
X75025000Y-56888553D01*
X74662706Y-57250845D01*
X66808659Y-57250845D01*
X66732314Y-57174500D01*
X66675250Y-57141554D01*
X66618187Y-57108608D01*
X66554539Y-57091554D01*
X66490892Y-57074500D01*
X66359108Y-57074500D01*
X66231812Y-57108608D01*
X66117686Y-57174500D01*
X66117683Y-57174502D01*
X66054005Y-57238181D01*
X65992682Y-57271666D01*
X65966324Y-57274500D01*
X61935438Y-57274500D01*
X61884486Y-57288152D01*
X61859010Y-57294979D01*
X61799934Y-57329087D01*
X61799933Y-57329086D01*
X61790492Y-57334537D01*
X61790487Y-57334541D01*
X54765118Y-64359909D01*
X54703795Y-64393394D01*
X54653247Y-64393846D01*
X54482628Y-64359909D01*
X54455435Y-64354500D01*
X53794565Y-64354500D01*
X53794560Y-64354500D01*
X53587754Y-64395636D01*
X53587746Y-64395638D01*
X53392930Y-64476333D01*
X53392921Y-64476338D01*
X53217596Y-64593487D01*
X53217592Y-64593490D01*
X53068490Y-64742592D01*
X53068487Y-64742596D01*
X52951338Y-64917921D01*
X52951333Y-64917930D01*
X52870638Y-65112746D01*
X52870636Y-65112754D01*
X52829500Y-65319560D01*
X52829500Y-65530439D01*
X52870636Y-65737245D01*
X52870638Y-65737253D01*
X52951333Y-65932069D01*
X52951338Y-65932078D01*
X53068487Y-66107403D01*
X53068490Y-66107407D01*
X53217595Y-66256512D01*
X53384297Y-66367898D01*
X53429102Y-66421510D01*
X53437809Y-66490835D01*
X53407655Y-66553862D01*
X53348212Y-66590582D01*
X53315407Y-66595000D01*
X53230029Y-66595000D01*
X53230012Y-66595001D01*
X53127302Y-66605494D01*
X52960880Y-66660641D01*
X52960875Y-66660643D01*
X52811654Y-66752684D01*
X52687684Y-66876654D01*
X52595643Y-67025875D01*
X52595641Y-67025880D01*
X52540494Y-67192302D01*
X52540493Y-67192309D01*
X52530000Y-67295013D01*
X50725500Y-67295013D01*
X50725500Y-58155013D01*
X52530000Y-58155013D01*
X52530000Y-58575000D01*
X53582291Y-58575000D01*
X53570548Y-58595339D01*
X53530000Y-58746667D01*
X53530000Y-58903333D01*
X53570548Y-59054661D01*
X53582291Y-59075000D01*
X52530001Y-59075000D01*
X52530001Y-59494986D01*
X52540494Y-59597697D01*
X52595641Y-59764119D01*
X52595643Y-59764124D01*
X52687684Y-59913345D01*
X52811654Y-60037315D01*
X52960875Y-60129356D01*
X52960880Y-60129358D01*
X53127302Y-60184505D01*
X53127309Y-60184506D01*
X53230019Y-60194999D01*
X53874999Y-60194999D01*
X53875000Y-60194998D01*
X53875000Y-59367709D01*
X53895339Y-59379452D01*
X54046667Y-59420000D01*
X54203333Y-59420000D01*
X54354661Y-59379452D01*
X54375000Y-59367709D01*
X54375000Y-60194999D01*
X55019972Y-60194999D01*
X55019986Y-60194998D01*
X55122697Y-60184505D01*
X55289119Y-60129358D01*
X55289124Y-60129356D01*
X55438345Y-60037315D01*
X55562315Y-59913345D01*
X55654356Y-59764124D01*
X55654358Y-59764119D01*
X55709505Y-59597697D01*
X55709506Y-59597690D01*
X55719999Y-59494986D01*
X55720000Y-59494973D01*
X55720000Y-59075000D01*
X54667709Y-59075000D01*
X54679452Y-59054661D01*
X54720000Y-58903333D01*
X54720000Y-58746667D01*
X54679452Y-58595339D01*
X54667709Y-58575000D01*
X55719999Y-58575000D01*
X55719999Y-58155028D01*
X55719998Y-58155013D01*
X55709505Y-58052302D01*
X55654358Y-57885880D01*
X55654356Y-57885875D01*
X55562315Y-57736654D01*
X55438345Y-57612684D01*
X55289124Y-57520643D01*
X55289119Y-57520641D01*
X55122697Y-57465494D01*
X55122690Y-57465493D01*
X55019986Y-57455000D01*
X54934594Y-57455000D01*
X54867555Y-57435315D01*
X54821800Y-57382511D01*
X54811856Y-57313353D01*
X54840881Y-57249797D01*
X54865703Y-57227898D01*
X55032404Y-57116512D01*
X55181509Y-56967407D01*
X55181512Y-56967404D01*
X55298665Y-56792072D01*
X55352523Y-56662046D01*
X55396364Y-56607644D01*
X55462658Y-56585579D01*
X55467084Y-56585500D01*
X65951324Y-56585500D01*
X66018363Y-56605185D01*
X66039005Y-56621819D01*
X66117686Y-56700500D01*
X66231814Y-56766392D01*
X66359108Y-56800500D01*
X66359110Y-56800500D01*
X66490890Y-56800500D01*
X66490892Y-56800500D01*
X66618186Y-56766392D01*
X66732314Y-56700500D01*
X66825500Y-56607314D01*
X66858102Y-56550845D01*
X73962706Y-56550845D01*
X74091652Y-56604257D01*
X74091656Y-56604258D01*
X74147255Y-56615318D01*
X74209166Y-56647702D01*
X74243740Y-56708418D01*
X74244681Y-56712743D01*
X74255741Y-56768345D01*
X74255743Y-56768351D01*
X74309153Y-56897293D01*
X74671446Y-56535001D01*
X74671446Y-56534999D01*
X74651556Y-56515109D01*
X74925000Y-56515109D01*
X74925000Y-56554891D01*
X74940224Y-56591645D01*
X74968355Y-56619776D01*
X75005109Y-56635000D01*
X75044891Y-56635000D01*
X75081645Y-56619776D01*
X75109776Y-56591645D01*
X75125000Y-56554891D01*
X75125000Y-56535000D01*
X75378553Y-56535000D01*
X75725000Y-56881446D01*
X75725001Y-56881446D01*
X76071446Y-56535001D01*
X76071446Y-56534999D01*
X76051556Y-56515109D01*
X76325000Y-56515109D01*
X76325000Y-56554891D01*
X76340224Y-56591645D01*
X76368355Y-56619776D01*
X76405109Y-56635000D01*
X76444891Y-56635000D01*
X76481645Y-56619776D01*
X76509776Y-56591645D01*
X76525000Y-56554891D01*
X76525000Y-56535000D01*
X76778553Y-56535000D01*
X77140845Y-56897293D01*
X77194256Y-56768349D01*
X77194257Y-56768348D01*
X77205316Y-56712746D01*
X77237700Y-56650834D01*
X77298415Y-56616258D01*
X77302746Y-56615316D01*
X77358348Y-56604257D01*
X77358349Y-56604256D01*
X77487293Y-56550845D01*
X77125000Y-56188553D01*
X76778553Y-56535000D01*
X76525000Y-56535000D01*
X76525000Y-56515109D01*
X76509776Y-56478355D01*
X76481645Y-56450224D01*
X76444891Y-56435000D01*
X76405109Y-56435000D01*
X76368355Y-56450224D01*
X76340224Y-56478355D01*
X76325000Y-56515109D01*
X76051556Y-56515109D01*
X75725000Y-56188553D01*
X75378553Y-56535000D01*
X75125000Y-56535000D01*
X75125000Y-56515109D01*
X75109776Y-56478355D01*
X75081645Y-56450224D01*
X75044891Y-56435000D01*
X75005109Y-56435000D01*
X74968355Y-56450224D01*
X74940224Y-56478355D01*
X74925000Y-56515109D01*
X74651556Y-56515109D01*
X74481417Y-56344970D01*
X74325001Y-56188553D01*
X74325000Y-56188553D01*
X73962706Y-56550845D01*
X66858102Y-56550845D01*
X66891392Y-56493186D01*
X66925500Y-56365892D01*
X66925500Y-56234108D01*
X66891392Y-56106814D01*
X66825500Y-55992686D01*
X66732314Y-55899500D01*
X66732312Y-55899499D01*
X66732310Y-55899497D01*
X66659572Y-55857502D01*
X66645481Y-55849367D01*
X66618187Y-55833608D01*
X66549146Y-55815109D01*
X66490892Y-55799500D01*
X66359108Y-55799500D01*
X66231812Y-55833608D01*
X66117686Y-55899500D01*
X66117683Y-55899502D01*
X66069005Y-55948181D01*
X66007682Y-55981666D01*
X65981324Y-55984500D01*
X55467084Y-55984500D01*
X55400045Y-55964815D01*
X55354290Y-55912011D01*
X55352523Y-55907953D01*
X55349020Y-55899497D01*
X55314066Y-55815109D01*
X55298666Y-55777930D01*
X55298661Y-55777921D01*
X55284149Y-55756202D01*
X73525000Y-55756202D01*
X73525000Y-55913797D01*
X73555741Y-56068343D01*
X73555743Y-56068351D01*
X73609153Y-56197293D01*
X73971446Y-55835001D01*
X73971446Y-55834999D01*
X73951556Y-55815109D01*
X74225000Y-55815109D01*
X74225000Y-55854891D01*
X74240224Y-55891645D01*
X74268355Y-55919776D01*
X74305109Y-55935000D01*
X74344891Y-55935000D01*
X74381645Y-55919776D01*
X74409776Y-55891645D01*
X74425000Y-55854891D01*
X74425000Y-55835000D01*
X74678553Y-55835000D01*
X74836239Y-55992686D01*
X75025000Y-56181446D01*
X75213761Y-55992686D01*
X75371446Y-55835000D01*
X75371446Y-55834999D01*
X75351556Y-55815109D01*
X75625000Y-55815109D01*
X75625000Y-55854891D01*
X75640224Y-55891645D01*
X75668355Y-55919776D01*
X75705109Y-55935000D01*
X75744891Y-55935000D01*
X75781645Y-55919776D01*
X75809776Y-55891645D01*
X75825000Y-55854891D01*
X75825000Y-55835000D01*
X76078553Y-55835000D01*
X76236239Y-55992686D01*
X76425000Y-56181446D01*
X76613761Y-55992686D01*
X76771446Y-55835000D01*
X76771446Y-55834999D01*
X76751556Y-55815109D01*
X77025000Y-55815109D01*
X77025000Y-55854891D01*
X77040224Y-55891645D01*
X77068355Y-55919776D01*
X77105109Y-55935000D01*
X77144891Y-55935000D01*
X77181645Y-55919776D01*
X77209776Y-55891645D01*
X77225000Y-55854891D01*
X77225000Y-55834999D01*
X77478553Y-55834999D01*
X77478553Y-55835001D01*
X77840845Y-56197293D01*
X77894257Y-56068347D01*
X77894258Y-56068343D01*
X77924999Y-55913797D01*
X77925000Y-55913794D01*
X77925000Y-55756206D01*
X77924999Y-55756202D01*
X77894258Y-55601656D01*
X77894257Y-55601652D01*
X77840845Y-55472706D01*
X77478553Y-55834999D01*
X77225000Y-55834999D01*
X77225000Y-55815109D01*
X77209776Y-55778355D01*
X77181645Y-55750224D01*
X77144891Y-55735000D01*
X77105109Y-55735000D01*
X77068355Y-55750224D01*
X77040224Y-55778355D01*
X77025000Y-55815109D01*
X76751556Y-55815109D01*
X76425000Y-55488553D01*
X76078553Y-55835000D01*
X75825000Y-55835000D01*
X75825000Y-55815109D01*
X75809776Y-55778355D01*
X75781645Y-55750224D01*
X75744891Y-55735000D01*
X75705109Y-55735000D01*
X75668355Y-55750224D01*
X75640224Y-55778355D01*
X75625000Y-55815109D01*
X75351556Y-55815109D01*
X75025000Y-55488553D01*
X74678553Y-55835000D01*
X74425000Y-55835000D01*
X74425000Y-55815109D01*
X74409776Y-55778355D01*
X74381645Y-55750224D01*
X74344891Y-55735000D01*
X74305109Y-55735000D01*
X74268355Y-55750224D01*
X74240224Y-55778355D01*
X74225000Y-55815109D01*
X73951556Y-55815109D01*
X73609153Y-55472705D01*
X73555743Y-55601648D01*
X73555741Y-55601656D01*
X73525000Y-55756202D01*
X55284149Y-55756202D01*
X55181512Y-55602596D01*
X55181509Y-55602592D01*
X55032407Y-55453490D01*
X55032403Y-55453487D01*
X54857078Y-55336338D01*
X54857069Y-55336333D01*
X54662253Y-55255638D01*
X54662245Y-55255636D01*
X54455439Y-55214500D01*
X54455435Y-55214500D01*
X53794565Y-55214500D01*
X53794560Y-55214500D01*
X53587754Y-55255636D01*
X53587746Y-55255638D01*
X53392930Y-55336333D01*
X53392921Y-55336338D01*
X53217596Y-55453487D01*
X53217592Y-55453490D01*
X53068490Y-55602592D01*
X53068487Y-55602596D01*
X52951338Y-55777921D01*
X52951333Y-55777930D01*
X52870638Y-55972746D01*
X52870636Y-55972754D01*
X52829500Y-56179560D01*
X52829500Y-56390439D01*
X52870636Y-56597245D01*
X52870638Y-56597253D01*
X52951333Y-56792069D01*
X52951338Y-56792078D01*
X53068487Y-56967403D01*
X53068490Y-56967407D01*
X53217595Y-57116512D01*
X53384297Y-57227898D01*
X53429102Y-57281510D01*
X53437809Y-57350835D01*
X53407655Y-57413862D01*
X53348212Y-57450582D01*
X53315407Y-57455000D01*
X53230029Y-57455000D01*
X53230012Y-57455001D01*
X53127302Y-57465494D01*
X52960880Y-57520641D01*
X52960875Y-57520643D01*
X52811654Y-57612684D01*
X52687684Y-57736654D01*
X52595643Y-57885875D01*
X52595641Y-57885880D01*
X52540494Y-58052302D01*
X52540493Y-58052309D01*
X52530000Y-58155013D01*
X50725500Y-58155013D01*
X50725500Y-55135000D01*
X73978553Y-55135000D01*
X74325000Y-55481446D01*
X74325001Y-55481446D01*
X74498223Y-55308223D01*
X74671446Y-55135000D01*
X74671446Y-55134999D01*
X74651556Y-55115109D01*
X74925000Y-55115109D01*
X74925000Y-55154891D01*
X74940224Y-55191645D01*
X74968355Y-55219776D01*
X75005109Y-55235000D01*
X75044891Y-55235000D01*
X75081645Y-55219776D01*
X75109776Y-55191645D01*
X75125000Y-55154891D01*
X75125000Y-55135000D01*
X75378553Y-55135000D01*
X75551776Y-55308223D01*
X75725000Y-55481446D01*
X75725001Y-55481446D01*
X75898223Y-55308223D01*
X76071446Y-55135000D01*
X76071446Y-55134999D01*
X76051556Y-55115109D01*
X76325000Y-55115109D01*
X76325000Y-55154891D01*
X76340224Y-55191645D01*
X76368355Y-55219776D01*
X76405109Y-55235000D01*
X76444891Y-55235000D01*
X76481645Y-55219776D01*
X76509776Y-55191645D01*
X76525000Y-55154891D01*
X76525000Y-55135000D01*
X76778553Y-55135000D01*
X76951776Y-55308223D01*
X77125000Y-55481446D01*
X77125001Y-55481446D01*
X77471446Y-55135001D01*
X77471446Y-55134999D01*
X77125001Y-54788553D01*
X77125000Y-54788553D01*
X76778553Y-55135000D01*
X76525000Y-55135000D01*
X76525000Y-55115109D01*
X76509776Y-55078355D01*
X76481645Y-55050224D01*
X76444891Y-55035000D01*
X76405109Y-55035000D01*
X76368355Y-55050224D01*
X76340224Y-55078355D01*
X76325000Y-55115109D01*
X76051556Y-55115109D01*
X75725000Y-54788553D01*
X75378553Y-55135000D01*
X75125000Y-55135000D01*
X75125000Y-55115109D01*
X75109776Y-55078355D01*
X75081645Y-55050224D01*
X75044891Y-55035000D01*
X75005109Y-55035000D01*
X74968355Y-55050224D01*
X74940224Y-55078355D01*
X74925000Y-55115109D01*
X74651556Y-55115109D01*
X74325000Y-54788553D01*
X73978553Y-55135000D01*
X50725500Y-55135000D01*
X50725500Y-54356202D01*
X73525000Y-54356202D01*
X73525000Y-54513797D01*
X73555741Y-54668343D01*
X73555743Y-54668351D01*
X73609153Y-54797293D01*
X73971446Y-54435001D01*
X73971446Y-54434999D01*
X73951556Y-54415109D01*
X74225000Y-54415109D01*
X74225000Y-54454891D01*
X74240224Y-54491645D01*
X74268355Y-54519776D01*
X74305109Y-54535000D01*
X74344891Y-54535000D01*
X74381645Y-54519776D01*
X74409776Y-54491645D01*
X74425000Y-54454891D01*
X74425000Y-54435000D01*
X74678553Y-54435000D01*
X74851776Y-54608223D01*
X75025000Y-54781446D01*
X75025001Y-54781446D01*
X75198223Y-54608223D01*
X75371446Y-54435000D01*
X75371446Y-54434999D01*
X75351556Y-54415109D01*
X75625000Y-54415109D01*
X75625000Y-54454891D01*
X75640224Y-54491645D01*
X75668355Y-54519776D01*
X75705109Y-54535000D01*
X75744891Y-54535000D01*
X75781645Y-54519776D01*
X75809776Y-54491645D01*
X75825000Y-54454891D01*
X75825000Y-54435000D01*
X76078553Y-54435000D01*
X76251776Y-54608223D01*
X76425000Y-54781446D01*
X76425001Y-54781446D01*
X76598223Y-54608223D01*
X76771446Y-54435000D01*
X76771446Y-54434999D01*
X76751556Y-54415109D01*
X77025000Y-54415109D01*
X77025000Y-54454891D01*
X77040224Y-54491645D01*
X77068355Y-54519776D01*
X77105109Y-54535000D01*
X77144891Y-54535000D01*
X77181645Y-54519776D01*
X77209776Y-54491645D01*
X77225000Y-54454891D01*
X77225000Y-54434999D01*
X77478553Y-54434999D01*
X77478553Y-54435001D01*
X77840845Y-54797293D01*
X77894257Y-54668347D01*
X77894258Y-54668343D01*
X77924999Y-54513797D01*
X77925000Y-54513794D01*
X77925000Y-54356206D01*
X77924999Y-54356202D01*
X77894258Y-54201656D01*
X77894257Y-54201652D01*
X77840845Y-54072706D01*
X77478553Y-54434999D01*
X77225000Y-54434999D01*
X77225000Y-54415109D01*
X77209776Y-54378355D01*
X77181645Y-54350224D01*
X77144891Y-54335000D01*
X77105109Y-54335000D01*
X77068355Y-54350224D01*
X77040224Y-54378355D01*
X77025000Y-54415109D01*
X76751556Y-54415109D01*
X76425000Y-54088553D01*
X76078553Y-54435000D01*
X75825000Y-54435000D01*
X75825000Y-54415109D01*
X75809776Y-54378355D01*
X75781645Y-54350224D01*
X75744891Y-54335000D01*
X75705109Y-54335000D01*
X75668355Y-54350224D01*
X75640224Y-54378355D01*
X75625000Y-54415109D01*
X75351556Y-54415109D01*
X75025000Y-54088553D01*
X74678553Y-54435000D01*
X74425000Y-54435000D01*
X74425000Y-54415109D01*
X74409776Y-54378355D01*
X74381645Y-54350224D01*
X74344891Y-54335000D01*
X74305109Y-54335000D01*
X74268355Y-54350224D01*
X74240224Y-54378355D01*
X74225000Y-54415109D01*
X73951556Y-54415109D01*
X73609153Y-54072705D01*
X73555743Y-54201648D01*
X73555741Y-54201656D01*
X73525000Y-54356202D01*
X50725500Y-54356202D01*
X50725500Y-53719153D01*
X73962705Y-53719153D01*
X74324999Y-54081446D01*
X74515555Y-53890892D01*
X74671446Y-53735000D01*
X74671446Y-53734999D01*
X74651556Y-53715109D01*
X74925000Y-53715109D01*
X74925000Y-53754891D01*
X74940224Y-53791645D01*
X74968355Y-53819776D01*
X75005109Y-53835000D01*
X75044891Y-53835000D01*
X75081645Y-53819776D01*
X75109776Y-53791645D01*
X75125000Y-53754891D01*
X75125000Y-53735000D01*
X75378553Y-53735000D01*
X75534445Y-53890892D01*
X75725000Y-54081446D01*
X75915555Y-53890892D01*
X76071446Y-53735000D01*
X76071446Y-53734999D01*
X76051556Y-53715109D01*
X76325000Y-53715109D01*
X76325000Y-53754891D01*
X76340224Y-53791645D01*
X76368355Y-53819776D01*
X76405109Y-53835000D01*
X76444891Y-53835000D01*
X76481645Y-53819776D01*
X76509776Y-53791645D01*
X76525000Y-53754891D01*
X76525000Y-53734999D01*
X76778553Y-53734999D01*
X76778553Y-53735000D01*
X76934445Y-53890892D01*
X77125000Y-54081446D01*
X77125001Y-54081446D01*
X77487293Y-53719153D01*
X77358351Y-53665743D01*
X77358345Y-53665741D01*
X77302743Y-53654681D01*
X77240832Y-53622296D01*
X77206258Y-53561580D01*
X77205318Y-53557255D01*
X77194258Y-53501656D01*
X77194257Y-53501652D01*
X77140845Y-53372706D01*
X76778553Y-53734999D01*
X76525000Y-53734999D01*
X76525000Y-53715109D01*
X76509776Y-53678355D01*
X76481645Y-53650224D01*
X76444891Y-53635000D01*
X76405109Y-53635000D01*
X76368355Y-53650224D01*
X76340224Y-53678355D01*
X76325000Y-53715109D01*
X76051556Y-53715109D01*
X75725001Y-53388553D01*
X75725000Y-53388553D01*
X75378553Y-53735000D01*
X75125000Y-53735000D01*
X75125000Y-53715109D01*
X75109776Y-53678355D01*
X75081645Y-53650224D01*
X75044891Y-53635000D01*
X75005109Y-53635000D01*
X74968355Y-53650224D01*
X74940224Y-53678355D01*
X74925000Y-53715109D01*
X74651556Y-53715109D01*
X74309153Y-53372705D01*
X74255743Y-53501648D01*
X74255741Y-53501653D01*
X74244681Y-53557257D01*
X74212295Y-53619167D01*
X74151579Y-53653741D01*
X74147257Y-53654681D01*
X74091653Y-53665741D01*
X74091648Y-53665743D01*
X73962705Y-53719153D01*
X50725500Y-53719153D01*
X50725500Y-53019153D01*
X74662705Y-53019153D01*
X75025000Y-53381446D01*
X75025001Y-53381446D01*
X75387293Y-53019153D01*
X76062705Y-53019153D01*
X76425000Y-53381446D01*
X76425001Y-53381446D01*
X76787293Y-53019153D01*
X76658351Y-52965743D01*
X76658343Y-52965741D01*
X76503797Y-52935000D01*
X76346202Y-52935000D01*
X76191656Y-52965741D01*
X76191648Y-52965743D01*
X76062705Y-53019153D01*
X75387293Y-53019153D01*
X75258351Y-52965743D01*
X75258343Y-52965741D01*
X75103797Y-52935000D01*
X74946202Y-52935000D01*
X74791656Y-52965741D01*
X74791648Y-52965743D01*
X74662705Y-53019153D01*
X50725500Y-53019153D01*
X50725500Y-27329066D01*
X50725765Y-27320956D01*
X50729819Y-27259108D01*
X50742075Y-27072102D01*
X50744190Y-27056048D01*
X50792045Y-26815462D01*
X50796243Y-26799797D01*
X50824611Y-26716226D01*
X50875093Y-26567512D01*
X50881291Y-26552547D01*
X50989790Y-26332533D01*
X50997893Y-26318498D01*
X51134182Y-26114527D01*
X51144039Y-26101681D01*
X51305786Y-25917244D01*
X51317244Y-25905786D01*
X51501681Y-25744039D01*
X51514527Y-25734182D01*
X51718498Y-25597893D01*
X51732533Y-25589790D01*
X51952547Y-25481291D01*
X51967512Y-25475093D01*
X52194653Y-25397989D01*
X52199797Y-25396243D01*
X52215464Y-25392045D01*
X52224609Y-25390226D01*
X52456048Y-25344190D01*
X52472102Y-25342075D01*
X52720957Y-25325765D01*
X52729067Y-25325500D01*
X52790892Y-25325500D01*
X53101000Y-25325500D01*
X53168039Y-25345185D01*
G37*
%TD.AperFunction*%
%TA.AperFunction,Conductor*%
G36*
X58313300Y-89370185D02*
G01*
X58359055Y-89422989D01*
X58368999Y-89492147D01*
X58356517Y-89528211D01*
X58357075Y-89528442D01*
X58353964Y-89535953D01*
X58325000Y-89644048D01*
X58325000Y-89755951D01*
X58353963Y-89864045D01*
X58382805Y-89913999D01*
X58399278Y-89981899D01*
X58376426Y-90047926D01*
X58321505Y-90091117D01*
X58275418Y-90100000D01*
X58020000Y-90100000D01*
X58020000Y-90750000D01*
X57520000Y-90750000D01*
X57520000Y-90279619D01*
X57257871Y-90017490D01*
X57224386Y-89956167D01*
X57229370Y-89886475D01*
X57257871Y-89842128D01*
X57258578Y-89841421D01*
X57286709Y-89869552D01*
X57360218Y-89900000D01*
X57439782Y-89900000D01*
X57513291Y-89869552D01*
X57569552Y-89813291D01*
X57600000Y-89739782D01*
X57600000Y-89660218D01*
X57569552Y-89586709D01*
X57541421Y-89558578D01*
X57542128Y-89557871D01*
X57603451Y-89524386D01*
X57673143Y-89529370D01*
X57717490Y-89557871D01*
X57824999Y-89665380D01*
X57825000Y-89665379D01*
X57825000Y-89644050D01*
X57824999Y-89644048D01*
X57796035Y-89535953D01*
X57792925Y-89528442D01*
X57794262Y-89527888D01*
X57779880Y-89468595D01*
X57802734Y-89402569D01*
X57857657Y-89359381D01*
X57903739Y-89350500D01*
X58246261Y-89350500D01*
X58313300Y-89370185D01*
G37*
%TD.AperFunction*%
%TA.AperFunction,Conductor*%
G36*
X58020000Y-83350000D02*
G01*
X58201000Y-83350000D01*
X58268039Y-83369685D01*
X58313794Y-83422489D01*
X58325000Y-83474000D01*
X58325001Y-83975500D01*
X58305317Y-84042539D01*
X58252513Y-84088294D01*
X58201001Y-84099500D01*
X57903739Y-84099500D01*
X57836700Y-84079815D01*
X57790945Y-84027011D01*
X57781001Y-83957853D01*
X57793482Y-83921788D01*
X57792925Y-83921558D01*
X57796035Y-83914046D01*
X57824999Y-83805951D01*
X57825000Y-83805950D01*
X57825000Y-83784619D01*
X57824999Y-83784618D01*
X57717490Y-83892128D01*
X57656167Y-83925613D01*
X57586475Y-83920629D01*
X57542128Y-83892128D01*
X57541421Y-83891421D01*
X57569552Y-83863291D01*
X57600000Y-83789782D01*
X57600000Y-83710218D01*
X57569552Y-83636709D01*
X57513291Y-83580448D01*
X57439782Y-83550000D01*
X57360218Y-83550000D01*
X57286709Y-83580448D01*
X57258578Y-83608578D01*
X57257871Y-83607871D01*
X57224386Y-83546548D01*
X57229370Y-83476856D01*
X57257871Y-83432509D01*
X57519999Y-83170380D01*
X57520000Y-83170379D01*
X57520000Y-82700000D01*
X58020000Y-82700000D01*
X58020000Y-83350000D01*
G37*
%TD.AperFunction*%
%TD*%
M02*
