%TF.GenerationSoftware,KiCad,Pcbnew,8.0.5*%
%TF.CreationDate,2025-11-06T18:04:16-05:00*%
%TF.ProjectId,DisplayDriver,44697370-6c61-4794-9472-697665722e6b,1.1*%
%TF.SameCoordinates,Original*%
%TF.FileFunction,Drillmap*%
%TF.FilePolarity,Positive*%
%FSLAX45Y45*%
G04 Gerber Fmt 4.5, Leading zero omitted, Abs format (unit mm)*
G04 Created by KiCad (PCBNEW 8.0.5) date 2025-11-06 18:04:16*
%MOMM*%
%LPD*%
G01*
G04 APERTURE LIST*
%ADD10C,0.050000*%
%ADD11C,0.200000*%
%ADD12C,0.100000*%
%ADD13C,0.110000*%
%ADD14C,0.119000*%
G04 APERTURE END LIST*
D10*
X5592500Y-9662500D02*
G75*
G02*
X5112500Y-9662500I-240000J0D01*
G01*
X5112500Y-9662500D02*
G75*
G02*
X5592500Y-9662500I240000J0D01*
G01*
X14942500Y-9652500D02*
G75*
G02*
X14462500Y-9652500I-240000J0D01*
G01*
X14462500Y-9652500D02*
G75*
G02*
X14942500Y-9652500I240000J0D01*
G01*
X14932500Y-2802500D02*
G75*
G02*
X14452500Y-2802500I-240000J0D01*
G01*
X14452500Y-2802500D02*
G75*
G02*
X14932500Y-2802500I240000J0D01*
G01*
X5022500Y-2732500D02*
G75*
G02*
X5272500Y-2482500I250000J0D01*
G01*
X5022500Y-9732500D02*
X5022500Y-2732500D01*
X15022500Y-9732500D02*
X15022300Y-2722508D01*
X15022500Y-9732500D02*
G75*
G02*
X14772500Y-9982500I-250000J0D01*
G01*
X5272500Y-9982500D02*
G75*
G02*
X5022500Y-9732500I0J250000D01*
G01*
X14772500Y-2482500D02*
X5272500Y-2482500D01*
X14772500Y-9982500D02*
X5272500Y-9982500D01*
X14772500Y-2482500D02*
G75*
G02*
X15022300Y-2722508I0J-250000D01*
G01*
D11*
D12*
X7422500Y-5433500D02*
X7442500Y-5453500D01*
X7442500Y-5433500D02*
X7422500Y-5453500D01*
X7422500Y-5573500D02*
X7442500Y-5593500D01*
X7442500Y-5573500D02*
X7422500Y-5593500D01*
X7492500Y-5363500D02*
X7512500Y-5383500D01*
X7512500Y-5363500D02*
X7492500Y-5383500D01*
X7492500Y-5503500D02*
X7512500Y-5523500D01*
X7512500Y-5503500D02*
X7492500Y-5523500D01*
X7492500Y-5643500D02*
X7512500Y-5663500D01*
X7512500Y-5643500D02*
X7492500Y-5663500D01*
X7562500Y-5433500D02*
X7582500Y-5453500D01*
X7582500Y-5433500D02*
X7562500Y-5453500D01*
X7562500Y-5573500D02*
X7582500Y-5593500D01*
X7582500Y-5573500D02*
X7562500Y-5593500D01*
X7632500Y-5363500D02*
X7652500Y-5383500D01*
X7652500Y-5363500D02*
X7632500Y-5383500D01*
X7632500Y-5503500D02*
X7652500Y-5523500D01*
X7652500Y-5503500D02*
X7632500Y-5523500D01*
X7632500Y-5643500D02*
X7652500Y-5663500D01*
X7652500Y-5643500D02*
X7632500Y-5663500D01*
X7702500Y-5433500D02*
X7722500Y-5453500D01*
X7722500Y-5433500D02*
X7702500Y-5453500D01*
X7702500Y-5573500D02*
X7722500Y-5593500D01*
X7722500Y-5573500D02*
X7702500Y-5593500D01*
X6142500Y-6687500D02*
G75*
G02*
X6112500Y-6687500I-15000J0D01*
G01*
X6112500Y-6687500D02*
G75*
G02*
X6142500Y-6687500I15000J0D01*
G01*
X6197500Y-7382500D02*
G75*
G02*
X6167500Y-7382500I-15000J0D01*
G01*
X6167500Y-7382500D02*
G75*
G02*
X6197500Y-7382500I15000J0D01*
G01*
X6475073Y-6390073D02*
G75*
G02*
X6445073Y-6390073I-15000J0D01*
G01*
X6445073Y-6390073D02*
G75*
G02*
X6475073Y-6390073I15000J0D01*
G01*
X6622500Y-6327500D02*
G75*
G02*
X6592500Y-6327500I-15000J0D01*
G01*
X6592500Y-6327500D02*
G75*
G02*
X6622500Y-6327500I15000J0D01*
G01*
X6655500Y-5884500D02*
G75*
G02*
X6625500Y-5884500I-15000J0D01*
G01*
X6625500Y-5884500D02*
G75*
G02*
X6655500Y-5884500I15000J0D01*
G01*
X6657500Y-5630000D02*
G75*
G02*
X6627500Y-5630000I-15000J0D01*
G01*
X6627500Y-5630000D02*
G75*
G02*
X6657500Y-5630000I15000J0D01*
G01*
X6657500Y-5757500D02*
G75*
G02*
X6627500Y-5757500I-15000J0D01*
G01*
X6627500Y-5757500D02*
G75*
G02*
X6657500Y-5757500I15000J0D01*
G01*
X7462500Y-6782500D02*
G75*
G02*
X7432500Y-6782500I-15000J0D01*
G01*
X7432500Y-6782500D02*
G75*
G02*
X7462500Y-6782500I15000J0D01*
G01*
X8787500Y-6682500D02*
G75*
G02*
X8757500Y-6682500I-15000J0D01*
G01*
X8757500Y-6682500D02*
G75*
G02*
X8787500Y-6682500I15000J0D01*
G01*
X8787500Y-7436000D02*
G75*
G02*
X8757500Y-7436000I-15000J0D01*
G01*
X8757500Y-7436000D02*
G75*
G02*
X8787500Y-7436000I15000J0D01*
G01*
X8817500Y-6240500D02*
G75*
G02*
X8787500Y-6240500I-15000J0D01*
G01*
X8787500Y-6240500D02*
G75*
G02*
X8817500Y-6240500I15000J0D01*
G01*
X8937500Y-5382500D02*
G75*
G02*
X8907500Y-5382500I-15000J0D01*
G01*
X8907500Y-5382500D02*
G75*
G02*
X8937500Y-5382500I15000J0D01*
G01*
X8937500Y-8882500D02*
G75*
G02*
X8907500Y-8882500I-15000J0D01*
G01*
X8907500Y-8882500D02*
G75*
G02*
X8937500Y-8882500I15000J0D01*
G01*
X9077500Y-5382500D02*
G75*
G02*
X9047500Y-5382500I-15000J0D01*
G01*
X9047500Y-5382500D02*
G75*
G02*
X9077500Y-5382500I15000J0D01*
G01*
X9077500Y-8882500D02*
G75*
G02*
X9047500Y-8882500I-15000J0D01*
G01*
X9047500Y-8882500D02*
G75*
G02*
X9077500Y-8882500I15000J0D01*
G01*
X9227500Y-7907500D02*
G75*
G02*
X9197500Y-7907500I-15000J0D01*
G01*
X9197500Y-7907500D02*
G75*
G02*
X9227500Y-7907500I15000J0D01*
G01*
X10122500Y-6647500D02*
G75*
G02*
X10092500Y-6647500I-15000J0D01*
G01*
X10092500Y-6647500D02*
G75*
G02*
X10122500Y-6647500I15000J0D01*
G01*
X10187500Y-5492840D02*
G75*
G02*
X10157500Y-5492840I-15000J0D01*
G01*
X10157500Y-5492840D02*
G75*
G02*
X10187500Y-5492840I15000J0D01*
G01*
X5740000Y-8355000D02*
X5740000Y-8395000D01*
X5720000Y-8375000D02*
X5760000Y-8375000D01*
X5740000Y-8440000D02*
X5740000Y-8480000D01*
X5720000Y-8460000D02*
X5760000Y-8460000D01*
X5740000Y-8525000D02*
X5740000Y-8565000D01*
X5720000Y-8545000D02*
X5760000Y-8545000D01*
X5740000Y-8610000D02*
X5740000Y-8650000D01*
X5720000Y-8630000D02*
X5760000Y-8630000D01*
X5740000Y-8695000D02*
X5740000Y-8735000D01*
X5720000Y-8715000D02*
X5760000Y-8715000D01*
X5740000Y-8780000D02*
X5740000Y-8820000D01*
X5720000Y-8800000D02*
X5760000Y-8800000D01*
X5740000Y-8865000D02*
X5740000Y-8905000D01*
X5720000Y-8885000D02*
X5760000Y-8885000D01*
X5740000Y-8950000D02*
X5740000Y-8990000D01*
X5720000Y-8970000D02*
X5760000Y-8970000D01*
X5875000Y-8355000D02*
X5875000Y-8395000D01*
X5855000Y-8375000D02*
X5895000Y-8375000D01*
X5875000Y-8440000D02*
X5875000Y-8480000D01*
X5855000Y-8460000D02*
X5895000Y-8460000D01*
X5875000Y-8525000D02*
X5875000Y-8565000D01*
X5855000Y-8545000D02*
X5895000Y-8545000D01*
X5875000Y-8610000D02*
X5875000Y-8650000D01*
X5855000Y-8630000D02*
X5895000Y-8630000D01*
X5875000Y-8695000D02*
X5875000Y-8735000D01*
X5855000Y-8715000D02*
X5895000Y-8715000D01*
X5875000Y-8780000D02*
X5875000Y-8820000D01*
X5855000Y-8800000D02*
X5895000Y-8800000D01*
X5875000Y-8865000D02*
X5875000Y-8905000D01*
X5855000Y-8885000D02*
X5895000Y-8885000D01*
X5875000Y-8950000D02*
X5875000Y-8990000D01*
X5855000Y-8970000D02*
X5895000Y-8970000D01*
X5460213Y-8261213D02*
X5460213Y-8218787D01*
X5417787Y-8218787D01*
X5417787Y-8261213D01*
X5460213Y-8261213D01*
X5479000Y-8210000D02*
X5399000Y-8210000D01*
X5399000Y-8270000D02*
G75*
G02*
X5399000Y-8210000I0J30000D01*
G01*
X5399000Y-8270000D02*
X5479000Y-8270000D01*
X5479000Y-8270000D02*
G75*
G03*
X5479000Y-8210000I0J30000D01*
G01*
X5460213Y-9126213D02*
X5460213Y-9083787D01*
X5417787Y-9083787D01*
X5417787Y-9126213D01*
X5460213Y-9126213D01*
X5479000Y-9075000D02*
X5399000Y-9075000D01*
X5399000Y-9135000D02*
G75*
G02*
X5399000Y-9075000I0J30000D01*
G01*
X5399000Y-9135000D02*
X5479000Y-9135000D01*
X5479000Y-9135000D02*
G75*
G03*
X5479000Y-9075000I0J30000D01*
G01*
X5798213Y-8261213D02*
X5798213Y-8218787D01*
X5755787Y-8218787D01*
X5755787Y-8261213D01*
X5798213Y-8261213D01*
X5852000Y-8210000D02*
X5702000Y-8210000D01*
X5702000Y-8270000D02*
G75*
G02*
X5702000Y-8210000I0J30000D01*
G01*
X5702000Y-8270000D02*
X5852000Y-8270000D01*
X5852000Y-8270000D02*
G75*
G03*
X5852000Y-8210000I0J30000D01*
G01*
X5798213Y-9126213D02*
X5798213Y-9083787D01*
X5755787Y-9083787D01*
X5755787Y-9126213D01*
X5798213Y-9126213D01*
X5852000Y-9075000D02*
X5702000Y-9075000D01*
X5702000Y-9135000D02*
G75*
G02*
X5702000Y-9075000I0J30000D01*
G01*
X5702000Y-9135000D02*
X5852000Y-9135000D01*
X5852000Y-9135000D02*
G75*
G03*
X5852000Y-9075000I0J30000D01*
G01*
X8025000Y-9617500D02*
X8075000Y-9567500D01*
X8025000Y-9517500D01*
X7975000Y-9567500D01*
X8025000Y-9617500D01*
X8279000Y-9617500D02*
X8329000Y-9567500D01*
X8279000Y-9517500D01*
X8229000Y-9567500D01*
X8279000Y-9617500D01*
X8533000Y-9617500D02*
X8583000Y-9567500D01*
X8533000Y-9517500D01*
X8483000Y-9567500D01*
X8533000Y-9617500D01*
X8787000Y-9617500D02*
X8837000Y-9567500D01*
X8787000Y-9517500D01*
X8737000Y-9567500D01*
X8787000Y-9617500D01*
X9041000Y-9617500D02*
X9091000Y-9567500D01*
X9041000Y-9517500D01*
X8991000Y-9567500D01*
X9041000Y-9617500D01*
X9295000Y-9617500D02*
X9345000Y-9567500D01*
X9295000Y-9517500D01*
X9245000Y-9567500D01*
X9295000Y-9617500D01*
X9549000Y-9617500D02*
X9599000Y-9567500D01*
X9549000Y-9517500D01*
X9499000Y-9567500D01*
X9549000Y-9617500D01*
X9803000Y-9617500D02*
X9853000Y-9567500D01*
X9803000Y-9517500D01*
X9753000Y-9567500D01*
X9803000Y-9617500D01*
X10057000Y-9617500D02*
X10107000Y-9567500D01*
X10057000Y-9517500D01*
X10007000Y-9567500D01*
X10057000Y-9617500D01*
X10311000Y-9617500D02*
X10361000Y-9567500D01*
X10311000Y-9517500D01*
X10261000Y-9567500D01*
X10311000Y-9617500D01*
X10565000Y-9617500D02*
X10615000Y-9567500D01*
X10565000Y-9517500D01*
X10515000Y-9567500D01*
X10565000Y-9617500D01*
X10662500Y-6684500D02*
X10712500Y-6634500D01*
X10662500Y-6584500D01*
X10612500Y-6634500D01*
X10662500Y-6684500D01*
X10662500Y-6938500D02*
X10712500Y-6888500D01*
X10662500Y-6838500D01*
X10612500Y-6888500D01*
X10662500Y-6938500D01*
X10662500Y-7192500D02*
X10712500Y-7142500D01*
X10662500Y-7092500D01*
X10612500Y-7142500D01*
X10662500Y-7192500D01*
X10662500Y-7446500D02*
X10712500Y-7396500D01*
X10662500Y-7346500D01*
X10612500Y-7396500D01*
X10662500Y-7446500D01*
X10662500Y-7700500D02*
X10712500Y-7650500D01*
X10662500Y-7600500D01*
X10612500Y-7650500D01*
X10662500Y-7700500D01*
X10662500Y-7954500D02*
X10712500Y-7904500D01*
X10662500Y-7854500D01*
X10612500Y-7904500D01*
X10662500Y-7954500D01*
X10662500Y-8208500D02*
X10712500Y-8158500D01*
X10662500Y-8108500D01*
X10612500Y-8158500D01*
X10662500Y-8208500D01*
X10662500Y-8462500D02*
X10712500Y-8412500D01*
X10662500Y-8362500D01*
X10612500Y-8412500D01*
X10662500Y-8462500D01*
X10819000Y-9617500D02*
X10869000Y-9567500D01*
X10819000Y-9517500D01*
X10769000Y-9567500D01*
X10819000Y-9617500D01*
X10916500Y-6684500D02*
X10966500Y-6634500D01*
X10916500Y-6584500D01*
X10866500Y-6634500D01*
X10916500Y-6684500D01*
X10916500Y-6938500D02*
X10966500Y-6888500D01*
X10916500Y-6838500D01*
X10866500Y-6888500D01*
X10916500Y-6938500D01*
X10916500Y-7192500D02*
X10966500Y-7142500D01*
X10916500Y-7092500D01*
X10866500Y-7142500D01*
X10916500Y-7192500D01*
X10916500Y-7446500D02*
X10966500Y-7396500D01*
X10916500Y-7346500D01*
X10866500Y-7396500D01*
X10916500Y-7446500D01*
X10916500Y-7700500D02*
X10966500Y-7650500D01*
X10916500Y-7600500D01*
X10866500Y-7650500D01*
X10916500Y-7700500D01*
X10916500Y-7954500D02*
X10966500Y-7904500D01*
X10916500Y-7854500D01*
X10866500Y-7904500D01*
X10916500Y-7954500D01*
X10916500Y-8208500D02*
X10966500Y-8158500D01*
X10916500Y-8108500D01*
X10866500Y-8158500D01*
X10916500Y-8208500D01*
X10916500Y-8462500D02*
X10966500Y-8412500D01*
X10916500Y-8362500D01*
X10866500Y-8412500D01*
X10916500Y-8462500D01*
X11073000Y-9617500D02*
X11123000Y-9567500D01*
X11073000Y-9517500D01*
X11023000Y-9567500D01*
X11073000Y-9617500D01*
X11327000Y-9617500D02*
X11377000Y-9567500D01*
X11327000Y-9517500D01*
X11277000Y-9567500D01*
X11327000Y-9617500D01*
D13*
X7077500Y-7137500D02*
X7187500Y-7247500D01*
X7187500Y-7137500D02*
X7077500Y-7247500D01*
X7187500Y-7192500D02*
G75*
G02*
X7077500Y-7192500I-55000J0D01*
G01*
X7077500Y-7192500D02*
G75*
G02*
X7187500Y-7192500I55000J0D01*
G01*
X7077500Y-7587500D02*
X7187500Y-7697500D01*
X7187500Y-7587500D02*
X7077500Y-7697500D01*
X7187500Y-7642500D02*
G75*
G02*
X7077500Y-7642500I-55000J0D01*
G01*
X7077500Y-7642500D02*
G75*
G02*
X7187500Y-7642500I55000J0D01*
G01*
X7727500Y-7137500D02*
X7837500Y-7247500D01*
X7837500Y-7137500D02*
X7727500Y-7247500D01*
X7837500Y-7192500D02*
G75*
G02*
X7727500Y-7192500I-55000J0D01*
G01*
X7727500Y-7192500D02*
G75*
G02*
X7837500Y-7192500I55000J0D01*
G01*
X7727500Y-7587500D02*
X7837500Y-7697500D01*
X7837500Y-7587500D02*
X7727500Y-7697500D01*
X7837500Y-7642500D02*
G75*
G02*
X7727500Y-7642500I-55000J0D01*
G01*
X7727500Y-7642500D02*
G75*
G02*
X7837500Y-7642500I55000J0D01*
G01*
X10307500Y-2787500D02*
X10417500Y-2897500D01*
X10417500Y-2787500D02*
X10307500Y-2897500D01*
X10417500Y-2842500D02*
G75*
G02*
X10307500Y-2842500I-55000J0D01*
G01*
X10307500Y-2842500D02*
G75*
G02*
X10417500Y-2842500I55000J0D01*
G01*
X10307500Y-3437500D02*
X10417500Y-3547500D01*
X10417500Y-3437500D02*
X10307500Y-3547500D01*
X10417500Y-3492500D02*
G75*
G02*
X10307500Y-3492500I-55000J0D01*
G01*
X10307500Y-3492500D02*
G75*
G02*
X10417500Y-3492500I55000J0D01*
G01*
X10757500Y-2787500D02*
X10867500Y-2897500D01*
X10867500Y-2787500D02*
X10757500Y-2897500D01*
X10867500Y-2842500D02*
G75*
G02*
X10757500Y-2842500I-55000J0D01*
G01*
X10757500Y-2842500D02*
G75*
G02*
X10867500Y-2842500I55000J0D01*
G01*
X10757500Y-3437500D02*
X10867500Y-3547500D01*
X10867500Y-3437500D02*
X10757500Y-3547500D01*
X10867500Y-3492500D02*
G75*
G02*
X10757500Y-3492500I-55000J0D01*
G01*
X10757500Y-3492500D02*
G75*
G02*
X10867500Y-3492500I55000J0D01*
G01*
D14*
X5347000Y-7396000D02*
X5466000Y-7515000D01*
X5466000Y-7396000D02*
X5347000Y-7515000D01*
X5406500Y-7396000D02*
X5406500Y-7515000D01*
X5347000Y-7455500D02*
X5466000Y-7455500D01*
X5347000Y-7650000D02*
X5466000Y-7769000D01*
X5466000Y-7650000D02*
X5347000Y-7769000D01*
X5406500Y-7650000D02*
X5406500Y-7769000D01*
X5347000Y-7709500D02*
X5466000Y-7709500D01*
X5353000Y-5569000D02*
X5472000Y-5688000D01*
X5472000Y-5569000D02*
X5353000Y-5688000D01*
X5412500Y-5569000D02*
X5412500Y-5688000D01*
X5353000Y-5628500D02*
X5472000Y-5628500D01*
X5353000Y-5823000D02*
X5472000Y-5942000D01*
X5472000Y-5823000D02*
X5353000Y-5942000D01*
X5412500Y-5823000D02*
X5412500Y-5942000D01*
X5353000Y-5882500D02*
X5472000Y-5882500D01*
X5353000Y-6483000D02*
X5472000Y-6602000D01*
X5472000Y-6483000D02*
X5353000Y-6602000D01*
X5412500Y-6483000D02*
X5412500Y-6602000D01*
X5353000Y-6542500D02*
X5472000Y-6542500D01*
X5353000Y-6737000D02*
X5472000Y-6856000D01*
X5472000Y-6737000D02*
X5353000Y-6856000D01*
X5412500Y-6737000D02*
X5412500Y-6856000D01*
X5353000Y-6796500D02*
X5472000Y-6796500D01*
X11388000Y-2848000D02*
X11507000Y-2967000D01*
X11507000Y-2848000D02*
X11388000Y-2967000D01*
X11447500Y-2848000D02*
X11447500Y-2967000D01*
X11388000Y-2907500D02*
X11507000Y-2907500D01*
X11642000Y-2848000D02*
X11761000Y-2967000D01*
X11761000Y-2848000D02*
X11642000Y-2967000D01*
X11701500Y-2848000D02*
X11701500Y-2967000D01*
X11642000Y-2907500D02*
X11761000Y-2907500D01*
D11*
X5280777Y-10296484D02*
X5280777Y-10096484D01*
X5280777Y-10096484D02*
X5328396Y-10096484D01*
X5328396Y-10096484D02*
X5356967Y-10106008D01*
X5356967Y-10106008D02*
X5376015Y-10125055D01*
X5376015Y-10125055D02*
X5385539Y-10144103D01*
X5385539Y-10144103D02*
X5395063Y-10182198D01*
X5395063Y-10182198D02*
X5395063Y-10210770D01*
X5395063Y-10210770D02*
X5385539Y-10248865D01*
X5385539Y-10248865D02*
X5376015Y-10267912D01*
X5376015Y-10267912D02*
X5356967Y-10286960D01*
X5356967Y-10286960D02*
X5328396Y-10296484D01*
X5328396Y-10296484D02*
X5280777Y-10296484D01*
X5480777Y-10296484D02*
X5480777Y-10163150D01*
X5480777Y-10201246D02*
X5490301Y-10182198D01*
X5490301Y-10182198D02*
X5499824Y-10172674D01*
X5499824Y-10172674D02*
X5518872Y-10163150D01*
X5518872Y-10163150D02*
X5537920Y-10163150D01*
X5604586Y-10296484D02*
X5604586Y-10163150D01*
X5604586Y-10096484D02*
X5595062Y-10106008D01*
X5595062Y-10106008D02*
X5604586Y-10115531D01*
X5604586Y-10115531D02*
X5614110Y-10106008D01*
X5614110Y-10106008D02*
X5604586Y-10096484D01*
X5604586Y-10096484D02*
X5604586Y-10115531D01*
X5728396Y-10296484D02*
X5709348Y-10286960D01*
X5709348Y-10286960D02*
X5699824Y-10267912D01*
X5699824Y-10267912D02*
X5699824Y-10096484D01*
X5833158Y-10296484D02*
X5814110Y-10286960D01*
X5814110Y-10286960D02*
X5804586Y-10267912D01*
X5804586Y-10267912D02*
X5804586Y-10096484D01*
X6061729Y-10296484D02*
X6061729Y-10096484D01*
X6061729Y-10096484D02*
X6128396Y-10239341D01*
X6128396Y-10239341D02*
X6195062Y-10096484D01*
X6195062Y-10096484D02*
X6195062Y-10296484D01*
X6376015Y-10296484D02*
X6376015Y-10191722D01*
X6376015Y-10191722D02*
X6366491Y-10172674D01*
X6366491Y-10172674D02*
X6347443Y-10163150D01*
X6347443Y-10163150D02*
X6309348Y-10163150D01*
X6309348Y-10163150D02*
X6290301Y-10172674D01*
X6376015Y-10286960D02*
X6356967Y-10296484D01*
X6356967Y-10296484D02*
X6309348Y-10296484D01*
X6309348Y-10296484D02*
X6290301Y-10286960D01*
X6290301Y-10286960D02*
X6280777Y-10267912D01*
X6280777Y-10267912D02*
X6280777Y-10248865D01*
X6280777Y-10248865D02*
X6290301Y-10229817D01*
X6290301Y-10229817D02*
X6309348Y-10220293D01*
X6309348Y-10220293D02*
X6356967Y-10220293D01*
X6356967Y-10220293D02*
X6376015Y-10210770D01*
X6471253Y-10163150D02*
X6471253Y-10363150D01*
X6471253Y-10172674D02*
X6490301Y-10163150D01*
X6490301Y-10163150D02*
X6528396Y-10163150D01*
X6528396Y-10163150D02*
X6547443Y-10172674D01*
X6547443Y-10172674D02*
X6556967Y-10182198D01*
X6556967Y-10182198D02*
X6566491Y-10201246D01*
X6566491Y-10201246D02*
X6566491Y-10258389D01*
X6566491Y-10258389D02*
X6556967Y-10277436D01*
X6556967Y-10277436D02*
X6547443Y-10286960D01*
X6547443Y-10286960D02*
X6528396Y-10296484D01*
X6528396Y-10296484D02*
X6490301Y-10296484D01*
X6490301Y-10296484D02*
X6471253Y-10286960D01*
X6652205Y-10277436D02*
X6661729Y-10286960D01*
X6661729Y-10286960D02*
X6652205Y-10296484D01*
X6652205Y-10296484D02*
X6642682Y-10286960D01*
X6642682Y-10286960D02*
X6652205Y-10277436D01*
X6652205Y-10277436D02*
X6652205Y-10296484D01*
X6652205Y-10172674D02*
X6661729Y-10182198D01*
X6661729Y-10182198D02*
X6652205Y-10191722D01*
X6652205Y-10191722D02*
X6642682Y-10182198D01*
X6642682Y-10182198D02*
X6652205Y-10172674D01*
X6652205Y-10172674D02*
X6652205Y-10191722D01*
D12*
X5000000Y-10615000D02*
X5020000Y-10635000D01*
X5020000Y-10615000D02*
X5000000Y-10635000D01*
D11*
X5318872Y-10516484D02*
X5337920Y-10516484D01*
X5337920Y-10516484D02*
X5356967Y-10526008D01*
X5356967Y-10526008D02*
X5366491Y-10535531D01*
X5366491Y-10535531D02*
X5376015Y-10554579D01*
X5376015Y-10554579D02*
X5385539Y-10592674D01*
X5385539Y-10592674D02*
X5385539Y-10640293D01*
X5385539Y-10640293D02*
X5376015Y-10678389D01*
X5376015Y-10678389D02*
X5366491Y-10697436D01*
X5366491Y-10697436D02*
X5356967Y-10706960D01*
X5356967Y-10706960D02*
X5337920Y-10716484D01*
X5337920Y-10716484D02*
X5318872Y-10716484D01*
X5318872Y-10716484D02*
X5299824Y-10706960D01*
X5299824Y-10706960D02*
X5290301Y-10697436D01*
X5290301Y-10697436D02*
X5280777Y-10678389D01*
X5280777Y-10678389D02*
X5271253Y-10640293D01*
X5271253Y-10640293D02*
X5271253Y-10592674D01*
X5271253Y-10592674D02*
X5280777Y-10554579D01*
X5280777Y-10554579D02*
X5290301Y-10535531D01*
X5290301Y-10535531D02*
X5299824Y-10526008D01*
X5299824Y-10526008D02*
X5318872Y-10516484D01*
X5471253Y-10697436D02*
X5480777Y-10706960D01*
X5480777Y-10706960D02*
X5471253Y-10716484D01*
X5471253Y-10716484D02*
X5461729Y-10706960D01*
X5461729Y-10706960D02*
X5471253Y-10697436D01*
X5471253Y-10697436D02*
X5471253Y-10716484D01*
X5556967Y-10535531D02*
X5566491Y-10526008D01*
X5566491Y-10526008D02*
X5585539Y-10516484D01*
X5585539Y-10516484D02*
X5633158Y-10516484D01*
X5633158Y-10516484D02*
X5652205Y-10526008D01*
X5652205Y-10526008D02*
X5661729Y-10535531D01*
X5661729Y-10535531D02*
X5671253Y-10554579D01*
X5671253Y-10554579D02*
X5671253Y-10573627D01*
X5671253Y-10573627D02*
X5661729Y-10602198D01*
X5661729Y-10602198D02*
X5547444Y-10716484D01*
X5547444Y-10716484D02*
X5671253Y-10716484D01*
X5795062Y-10516484D02*
X5814110Y-10516484D01*
X5814110Y-10516484D02*
X5833158Y-10526008D01*
X5833158Y-10526008D02*
X5842682Y-10535531D01*
X5842682Y-10535531D02*
X5852205Y-10554579D01*
X5852205Y-10554579D02*
X5861729Y-10592674D01*
X5861729Y-10592674D02*
X5861729Y-10640293D01*
X5861729Y-10640293D02*
X5852205Y-10678389D01*
X5852205Y-10678389D02*
X5842682Y-10697436D01*
X5842682Y-10697436D02*
X5833158Y-10706960D01*
X5833158Y-10706960D02*
X5814110Y-10716484D01*
X5814110Y-10716484D02*
X5795062Y-10716484D01*
X5795062Y-10716484D02*
X5776015Y-10706960D01*
X5776015Y-10706960D02*
X5766491Y-10697436D01*
X5766491Y-10697436D02*
X5756967Y-10678389D01*
X5756967Y-10678389D02*
X5747443Y-10640293D01*
X5747443Y-10640293D02*
X5747443Y-10592674D01*
X5747443Y-10592674D02*
X5756967Y-10554579D01*
X5756967Y-10554579D02*
X5766491Y-10535531D01*
X5766491Y-10535531D02*
X5776015Y-10526008D01*
X5776015Y-10526008D02*
X5795062Y-10516484D01*
X5985539Y-10516484D02*
X6004586Y-10516484D01*
X6004586Y-10516484D02*
X6023634Y-10526008D01*
X6023634Y-10526008D02*
X6033158Y-10535531D01*
X6033158Y-10535531D02*
X6042682Y-10554579D01*
X6042682Y-10554579D02*
X6052205Y-10592674D01*
X6052205Y-10592674D02*
X6052205Y-10640293D01*
X6052205Y-10640293D02*
X6042682Y-10678389D01*
X6042682Y-10678389D02*
X6033158Y-10697436D01*
X6033158Y-10697436D02*
X6023634Y-10706960D01*
X6023634Y-10706960D02*
X6004586Y-10716484D01*
X6004586Y-10716484D02*
X5985539Y-10716484D01*
X5985539Y-10716484D02*
X5966491Y-10706960D01*
X5966491Y-10706960D02*
X5956967Y-10697436D01*
X5956967Y-10697436D02*
X5947443Y-10678389D01*
X5947443Y-10678389D02*
X5937920Y-10640293D01*
X5937920Y-10640293D02*
X5937920Y-10592674D01*
X5937920Y-10592674D02*
X5947443Y-10554579D01*
X5947443Y-10554579D02*
X5956967Y-10535531D01*
X5956967Y-10535531D02*
X5966491Y-10526008D01*
X5966491Y-10526008D02*
X5985539Y-10516484D01*
X6137920Y-10716484D02*
X6137920Y-10583150D01*
X6137920Y-10602198D02*
X6147443Y-10592674D01*
X6147443Y-10592674D02*
X6166491Y-10583150D01*
X6166491Y-10583150D02*
X6195063Y-10583150D01*
X6195063Y-10583150D02*
X6214110Y-10592674D01*
X6214110Y-10592674D02*
X6223634Y-10611722D01*
X6223634Y-10611722D02*
X6223634Y-10716484D01*
X6223634Y-10611722D02*
X6233158Y-10592674D01*
X6233158Y-10592674D02*
X6252205Y-10583150D01*
X6252205Y-10583150D02*
X6280777Y-10583150D01*
X6280777Y-10583150D02*
X6299824Y-10592674D01*
X6299824Y-10592674D02*
X6309348Y-10611722D01*
X6309348Y-10611722D02*
X6309348Y-10716484D01*
X6404586Y-10716484D02*
X6404586Y-10583150D01*
X6404586Y-10602198D02*
X6414110Y-10592674D01*
X6414110Y-10592674D02*
X6433158Y-10583150D01*
X6433158Y-10583150D02*
X6461729Y-10583150D01*
X6461729Y-10583150D02*
X6480777Y-10592674D01*
X6480777Y-10592674D02*
X6490301Y-10611722D01*
X6490301Y-10611722D02*
X6490301Y-10716484D01*
X6490301Y-10611722D02*
X6499824Y-10592674D01*
X6499824Y-10592674D02*
X6518872Y-10583150D01*
X6518872Y-10583150D02*
X6547443Y-10583150D01*
X6547443Y-10583150D02*
X6566491Y-10592674D01*
X6566491Y-10592674D02*
X6576015Y-10611722D01*
X6576015Y-10611722D02*
X6576015Y-10716484D01*
X6966491Y-10506960D02*
X6795063Y-10764103D01*
X7223634Y-10516484D02*
X7242682Y-10516484D01*
X7242682Y-10516484D02*
X7261729Y-10526008D01*
X7261729Y-10526008D02*
X7271253Y-10535531D01*
X7271253Y-10535531D02*
X7280777Y-10554579D01*
X7280777Y-10554579D02*
X7290301Y-10592674D01*
X7290301Y-10592674D02*
X7290301Y-10640293D01*
X7290301Y-10640293D02*
X7280777Y-10678389D01*
X7280777Y-10678389D02*
X7271253Y-10697436D01*
X7271253Y-10697436D02*
X7261729Y-10706960D01*
X7261729Y-10706960D02*
X7242682Y-10716484D01*
X7242682Y-10716484D02*
X7223634Y-10716484D01*
X7223634Y-10716484D02*
X7204586Y-10706960D01*
X7204586Y-10706960D02*
X7195063Y-10697436D01*
X7195063Y-10697436D02*
X7185539Y-10678389D01*
X7185539Y-10678389D02*
X7176015Y-10640293D01*
X7176015Y-10640293D02*
X7176015Y-10592674D01*
X7176015Y-10592674D02*
X7185539Y-10554579D01*
X7185539Y-10554579D02*
X7195063Y-10535531D01*
X7195063Y-10535531D02*
X7204586Y-10526008D01*
X7204586Y-10526008D02*
X7223634Y-10516484D01*
X7376015Y-10697436D02*
X7385539Y-10706960D01*
X7385539Y-10706960D02*
X7376015Y-10716484D01*
X7376015Y-10716484D02*
X7366491Y-10706960D01*
X7366491Y-10706960D02*
X7376015Y-10697436D01*
X7376015Y-10697436D02*
X7376015Y-10716484D01*
X7509348Y-10516484D02*
X7528396Y-10516484D01*
X7528396Y-10516484D02*
X7547444Y-10526008D01*
X7547444Y-10526008D02*
X7556967Y-10535531D01*
X7556967Y-10535531D02*
X7566491Y-10554579D01*
X7566491Y-10554579D02*
X7576015Y-10592674D01*
X7576015Y-10592674D02*
X7576015Y-10640293D01*
X7576015Y-10640293D02*
X7566491Y-10678389D01*
X7566491Y-10678389D02*
X7556967Y-10697436D01*
X7556967Y-10697436D02*
X7547444Y-10706960D01*
X7547444Y-10706960D02*
X7528396Y-10716484D01*
X7528396Y-10716484D02*
X7509348Y-10716484D01*
X7509348Y-10716484D02*
X7490301Y-10706960D01*
X7490301Y-10706960D02*
X7480777Y-10697436D01*
X7480777Y-10697436D02*
X7471253Y-10678389D01*
X7471253Y-10678389D02*
X7461729Y-10640293D01*
X7461729Y-10640293D02*
X7461729Y-10592674D01*
X7461729Y-10592674D02*
X7471253Y-10554579D01*
X7471253Y-10554579D02*
X7480777Y-10535531D01*
X7480777Y-10535531D02*
X7490301Y-10526008D01*
X7490301Y-10526008D02*
X7509348Y-10516484D01*
X7699825Y-10516484D02*
X7718872Y-10516484D01*
X7718872Y-10516484D02*
X7737920Y-10526008D01*
X7737920Y-10526008D02*
X7747444Y-10535531D01*
X7747444Y-10535531D02*
X7756967Y-10554579D01*
X7756967Y-10554579D02*
X7766491Y-10592674D01*
X7766491Y-10592674D02*
X7766491Y-10640293D01*
X7766491Y-10640293D02*
X7756967Y-10678389D01*
X7756967Y-10678389D02*
X7747444Y-10697436D01*
X7747444Y-10697436D02*
X7737920Y-10706960D01*
X7737920Y-10706960D02*
X7718872Y-10716484D01*
X7718872Y-10716484D02*
X7699825Y-10716484D01*
X7699825Y-10716484D02*
X7680777Y-10706960D01*
X7680777Y-10706960D02*
X7671253Y-10697436D01*
X7671253Y-10697436D02*
X7661729Y-10678389D01*
X7661729Y-10678389D02*
X7652206Y-10640293D01*
X7652206Y-10640293D02*
X7652206Y-10592674D01*
X7652206Y-10592674D02*
X7661729Y-10554579D01*
X7661729Y-10554579D02*
X7671253Y-10535531D01*
X7671253Y-10535531D02*
X7680777Y-10526008D01*
X7680777Y-10526008D02*
X7699825Y-10516484D01*
X7833158Y-10516484D02*
X7966491Y-10516484D01*
X7966491Y-10516484D02*
X7880777Y-10716484D01*
X8052206Y-10716484D02*
X8090301Y-10716484D01*
X8090301Y-10716484D02*
X8109348Y-10706960D01*
X8109348Y-10706960D02*
X8118872Y-10697436D01*
X8118872Y-10697436D02*
X8137920Y-10668865D01*
X8137920Y-10668865D02*
X8147444Y-10630770D01*
X8147444Y-10630770D02*
X8147444Y-10554579D01*
X8147444Y-10554579D02*
X8137920Y-10535531D01*
X8137920Y-10535531D02*
X8128396Y-10526008D01*
X8128396Y-10526008D02*
X8109348Y-10516484D01*
X8109348Y-10516484D02*
X8071253Y-10516484D01*
X8071253Y-10516484D02*
X8052206Y-10526008D01*
X8052206Y-10526008D02*
X8042682Y-10535531D01*
X8042682Y-10535531D02*
X8033158Y-10554579D01*
X8033158Y-10554579D02*
X8033158Y-10602198D01*
X8033158Y-10602198D02*
X8042682Y-10621246D01*
X8042682Y-10621246D02*
X8052206Y-10630770D01*
X8052206Y-10630770D02*
X8071253Y-10640293D01*
X8071253Y-10640293D02*
X8109348Y-10640293D01*
X8109348Y-10640293D02*
X8128396Y-10630770D01*
X8128396Y-10630770D02*
X8137920Y-10621246D01*
X8137920Y-10621246D02*
X8147444Y-10602198D01*
X8223634Y-10516484D02*
X8223634Y-10554579D01*
X8299825Y-10516484D02*
X8299825Y-10554579D01*
X8595063Y-10792674D02*
X8585539Y-10783150D01*
X8585539Y-10783150D02*
X8566491Y-10754579D01*
X8566491Y-10754579D02*
X8556968Y-10735531D01*
X8556968Y-10735531D02*
X8547444Y-10706960D01*
X8547444Y-10706960D02*
X8537920Y-10659341D01*
X8537920Y-10659341D02*
X8537920Y-10621246D01*
X8537920Y-10621246D02*
X8547444Y-10573627D01*
X8547444Y-10573627D02*
X8556968Y-10545055D01*
X8556968Y-10545055D02*
X8566491Y-10526008D01*
X8566491Y-10526008D02*
X8585539Y-10497436D01*
X8585539Y-10497436D02*
X8595063Y-10487912D01*
X8776015Y-10716484D02*
X8661730Y-10716484D01*
X8718872Y-10716484D02*
X8718872Y-10516484D01*
X8718872Y-10516484D02*
X8699825Y-10545055D01*
X8699825Y-10545055D02*
X8680777Y-10564103D01*
X8680777Y-10564103D02*
X8661730Y-10573627D01*
X8852206Y-10535531D02*
X8861730Y-10526008D01*
X8861730Y-10526008D02*
X8880777Y-10516484D01*
X8880777Y-10516484D02*
X8928396Y-10516484D01*
X8928396Y-10516484D02*
X8947444Y-10526008D01*
X8947444Y-10526008D02*
X8956968Y-10535531D01*
X8956968Y-10535531D02*
X8966491Y-10554579D01*
X8966491Y-10554579D02*
X8966491Y-10573627D01*
X8966491Y-10573627D02*
X8956968Y-10602198D01*
X8956968Y-10602198D02*
X8842682Y-10716484D01*
X8842682Y-10716484D02*
X8966491Y-10716484D01*
X9204587Y-10716484D02*
X9204587Y-10516484D01*
X9290301Y-10716484D02*
X9290301Y-10611722D01*
X9290301Y-10611722D02*
X9280777Y-10592674D01*
X9280777Y-10592674D02*
X9261730Y-10583150D01*
X9261730Y-10583150D02*
X9233158Y-10583150D01*
X9233158Y-10583150D02*
X9214111Y-10592674D01*
X9214111Y-10592674D02*
X9204587Y-10602198D01*
X9414111Y-10716484D02*
X9395063Y-10706960D01*
X9395063Y-10706960D02*
X9385539Y-10697436D01*
X9385539Y-10697436D02*
X9376015Y-10678389D01*
X9376015Y-10678389D02*
X9376015Y-10621246D01*
X9376015Y-10621246D02*
X9385539Y-10602198D01*
X9385539Y-10602198D02*
X9395063Y-10592674D01*
X9395063Y-10592674D02*
X9414111Y-10583150D01*
X9414111Y-10583150D02*
X9442682Y-10583150D01*
X9442682Y-10583150D02*
X9461730Y-10592674D01*
X9461730Y-10592674D02*
X9471253Y-10602198D01*
X9471253Y-10602198D02*
X9480777Y-10621246D01*
X9480777Y-10621246D02*
X9480777Y-10678389D01*
X9480777Y-10678389D02*
X9471253Y-10697436D01*
X9471253Y-10697436D02*
X9461730Y-10706960D01*
X9461730Y-10706960D02*
X9442682Y-10716484D01*
X9442682Y-10716484D02*
X9414111Y-10716484D01*
X9595063Y-10716484D02*
X9576015Y-10706960D01*
X9576015Y-10706960D02*
X9566492Y-10687912D01*
X9566492Y-10687912D02*
X9566492Y-10516484D01*
X9747444Y-10706960D02*
X9728396Y-10716484D01*
X9728396Y-10716484D02*
X9690301Y-10716484D01*
X9690301Y-10716484D02*
X9671253Y-10706960D01*
X9671253Y-10706960D02*
X9661730Y-10687912D01*
X9661730Y-10687912D02*
X9661730Y-10611722D01*
X9661730Y-10611722D02*
X9671253Y-10592674D01*
X9671253Y-10592674D02*
X9690301Y-10583150D01*
X9690301Y-10583150D02*
X9728396Y-10583150D01*
X9728396Y-10583150D02*
X9747444Y-10592674D01*
X9747444Y-10592674D02*
X9756968Y-10611722D01*
X9756968Y-10611722D02*
X9756968Y-10630770D01*
X9756968Y-10630770D02*
X9661730Y-10649817D01*
X9833158Y-10706960D02*
X9852206Y-10716484D01*
X9852206Y-10716484D02*
X9890301Y-10716484D01*
X9890301Y-10716484D02*
X9909349Y-10706960D01*
X9909349Y-10706960D02*
X9918873Y-10687912D01*
X9918873Y-10687912D02*
X9918873Y-10678389D01*
X9918873Y-10678389D02*
X9909349Y-10659341D01*
X9909349Y-10659341D02*
X9890301Y-10649817D01*
X9890301Y-10649817D02*
X9861730Y-10649817D01*
X9861730Y-10649817D02*
X9842682Y-10640293D01*
X9842682Y-10640293D02*
X9833158Y-10621246D01*
X9833158Y-10621246D02*
X9833158Y-10611722D01*
X9833158Y-10611722D02*
X9842682Y-10592674D01*
X9842682Y-10592674D02*
X9861730Y-10583150D01*
X9861730Y-10583150D02*
X9890301Y-10583150D01*
X9890301Y-10583150D02*
X9909349Y-10592674D01*
X9985539Y-10792674D02*
X9995063Y-10783150D01*
X9995063Y-10783150D02*
X10014111Y-10754579D01*
X10014111Y-10754579D02*
X10023634Y-10735531D01*
X10023634Y-10735531D02*
X10033158Y-10706960D01*
X10033158Y-10706960D02*
X10042682Y-10659341D01*
X10042682Y-10659341D02*
X10042682Y-10621246D01*
X10042682Y-10621246D02*
X10033158Y-10573627D01*
X10033158Y-10573627D02*
X10023634Y-10545055D01*
X10023634Y-10545055D02*
X10014111Y-10526008D01*
X10014111Y-10526008D02*
X9995063Y-10497436D01*
X9995063Y-10497436D02*
X9985539Y-10487912D01*
D12*
X5020000Y-10889000D02*
G75*
G02*
X4990000Y-10889000I-15000J0D01*
G01*
X4990000Y-10889000D02*
G75*
G02*
X5020000Y-10889000I15000J0D01*
G01*
D11*
X5318872Y-10780484D02*
X5337920Y-10780484D01*
X5337920Y-10780484D02*
X5356967Y-10790008D01*
X5356967Y-10790008D02*
X5366491Y-10799531D01*
X5366491Y-10799531D02*
X5376015Y-10818579D01*
X5376015Y-10818579D02*
X5385539Y-10856674D01*
X5385539Y-10856674D02*
X5385539Y-10904293D01*
X5385539Y-10904293D02*
X5376015Y-10942389D01*
X5376015Y-10942389D02*
X5366491Y-10961436D01*
X5366491Y-10961436D02*
X5356967Y-10970960D01*
X5356967Y-10970960D02*
X5337920Y-10980484D01*
X5337920Y-10980484D02*
X5318872Y-10980484D01*
X5318872Y-10980484D02*
X5299824Y-10970960D01*
X5299824Y-10970960D02*
X5290301Y-10961436D01*
X5290301Y-10961436D02*
X5280777Y-10942389D01*
X5280777Y-10942389D02*
X5271253Y-10904293D01*
X5271253Y-10904293D02*
X5271253Y-10856674D01*
X5271253Y-10856674D02*
X5280777Y-10818579D01*
X5280777Y-10818579D02*
X5290301Y-10799531D01*
X5290301Y-10799531D02*
X5299824Y-10790008D01*
X5299824Y-10790008D02*
X5318872Y-10780484D01*
X5471253Y-10961436D02*
X5480777Y-10970960D01*
X5480777Y-10970960D02*
X5471253Y-10980484D01*
X5471253Y-10980484D02*
X5461729Y-10970960D01*
X5461729Y-10970960D02*
X5471253Y-10961436D01*
X5471253Y-10961436D02*
X5471253Y-10980484D01*
X5547444Y-10780484D02*
X5671253Y-10780484D01*
X5671253Y-10780484D02*
X5604586Y-10856674D01*
X5604586Y-10856674D02*
X5633158Y-10856674D01*
X5633158Y-10856674D02*
X5652205Y-10866198D01*
X5652205Y-10866198D02*
X5661729Y-10875722D01*
X5661729Y-10875722D02*
X5671253Y-10894770D01*
X5671253Y-10894770D02*
X5671253Y-10942389D01*
X5671253Y-10942389D02*
X5661729Y-10961436D01*
X5661729Y-10961436D02*
X5652205Y-10970960D01*
X5652205Y-10970960D02*
X5633158Y-10980484D01*
X5633158Y-10980484D02*
X5576015Y-10980484D01*
X5576015Y-10980484D02*
X5556967Y-10970960D01*
X5556967Y-10970960D02*
X5547444Y-10961436D01*
X5795062Y-10780484D02*
X5814110Y-10780484D01*
X5814110Y-10780484D02*
X5833158Y-10790008D01*
X5833158Y-10790008D02*
X5842682Y-10799531D01*
X5842682Y-10799531D02*
X5852205Y-10818579D01*
X5852205Y-10818579D02*
X5861729Y-10856674D01*
X5861729Y-10856674D02*
X5861729Y-10904293D01*
X5861729Y-10904293D02*
X5852205Y-10942389D01*
X5852205Y-10942389D02*
X5842682Y-10961436D01*
X5842682Y-10961436D02*
X5833158Y-10970960D01*
X5833158Y-10970960D02*
X5814110Y-10980484D01*
X5814110Y-10980484D02*
X5795062Y-10980484D01*
X5795062Y-10980484D02*
X5776015Y-10970960D01*
X5776015Y-10970960D02*
X5766491Y-10961436D01*
X5766491Y-10961436D02*
X5756967Y-10942389D01*
X5756967Y-10942389D02*
X5747443Y-10904293D01*
X5747443Y-10904293D02*
X5747443Y-10856674D01*
X5747443Y-10856674D02*
X5756967Y-10818579D01*
X5756967Y-10818579D02*
X5766491Y-10799531D01*
X5766491Y-10799531D02*
X5776015Y-10790008D01*
X5776015Y-10790008D02*
X5795062Y-10780484D01*
X5985539Y-10780484D02*
X6004586Y-10780484D01*
X6004586Y-10780484D02*
X6023634Y-10790008D01*
X6023634Y-10790008D02*
X6033158Y-10799531D01*
X6033158Y-10799531D02*
X6042682Y-10818579D01*
X6042682Y-10818579D02*
X6052205Y-10856674D01*
X6052205Y-10856674D02*
X6052205Y-10904293D01*
X6052205Y-10904293D02*
X6042682Y-10942389D01*
X6042682Y-10942389D02*
X6033158Y-10961436D01*
X6033158Y-10961436D02*
X6023634Y-10970960D01*
X6023634Y-10970960D02*
X6004586Y-10980484D01*
X6004586Y-10980484D02*
X5985539Y-10980484D01*
X5985539Y-10980484D02*
X5966491Y-10970960D01*
X5966491Y-10970960D02*
X5956967Y-10961436D01*
X5956967Y-10961436D02*
X5947443Y-10942389D01*
X5947443Y-10942389D02*
X5937920Y-10904293D01*
X5937920Y-10904293D02*
X5937920Y-10856674D01*
X5937920Y-10856674D02*
X5947443Y-10818579D01*
X5947443Y-10818579D02*
X5956967Y-10799531D01*
X5956967Y-10799531D02*
X5966491Y-10790008D01*
X5966491Y-10790008D02*
X5985539Y-10780484D01*
X6137920Y-10980484D02*
X6137920Y-10847150D01*
X6137920Y-10866198D02*
X6147443Y-10856674D01*
X6147443Y-10856674D02*
X6166491Y-10847150D01*
X6166491Y-10847150D02*
X6195063Y-10847150D01*
X6195063Y-10847150D02*
X6214110Y-10856674D01*
X6214110Y-10856674D02*
X6223634Y-10875722D01*
X6223634Y-10875722D02*
X6223634Y-10980484D01*
X6223634Y-10875722D02*
X6233158Y-10856674D01*
X6233158Y-10856674D02*
X6252205Y-10847150D01*
X6252205Y-10847150D02*
X6280777Y-10847150D01*
X6280777Y-10847150D02*
X6299824Y-10856674D01*
X6299824Y-10856674D02*
X6309348Y-10875722D01*
X6309348Y-10875722D02*
X6309348Y-10980484D01*
X6404586Y-10980484D02*
X6404586Y-10847150D01*
X6404586Y-10866198D02*
X6414110Y-10856674D01*
X6414110Y-10856674D02*
X6433158Y-10847150D01*
X6433158Y-10847150D02*
X6461729Y-10847150D01*
X6461729Y-10847150D02*
X6480777Y-10856674D01*
X6480777Y-10856674D02*
X6490301Y-10875722D01*
X6490301Y-10875722D02*
X6490301Y-10980484D01*
X6490301Y-10875722D02*
X6499824Y-10856674D01*
X6499824Y-10856674D02*
X6518872Y-10847150D01*
X6518872Y-10847150D02*
X6547443Y-10847150D01*
X6547443Y-10847150D02*
X6566491Y-10856674D01*
X6566491Y-10856674D02*
X6576015Y-10875722D01*
X6576015Y-10875722D02*
X6576015Y-10980484D01*
X6966491Y-10770960D02*
X6795063Y-11028103D01*
X7223634Y-10780484D02*
X7242682Y-10780484D01*
X7242682Y-10780484D02*
X7261729Y-10790008D01*
X7261729Y-10790008D02*
X7271253Y-10799531D01*
X7271253Y-10799531D02*
X7280777Y-10818579D01*
X7280777Y-10818579D02*
X7290301Y-10856674D01*
X7290301Y-10856674D02*
X7290301Y-10904293D01*
X7290301Y-10904293D02*
X7280777Y-10942389D01*
X7280777Y-10942389D02*
X7271253Y-10961436D01*
X7271253Y-10961436D02*
X7261729Y-10970960D01*
X7261729Y-10970960D02*
X7242682Y-10980484D01*
X7242682Y-10980484D02*
X7223634Y-10980484D01*
X7223634Y-10980484D02*
X7204586Y-10970960D01*
X7204586Y-10970960D02*
X7195063Y-10961436D01*
X7195063Y-10961436D02*
X7185539Y-10942389D01*
X7185539Y-10942389D02*
X7176015Y-10904293D01*
X7176015Y-10904293D02*
X7176015Y-10856674D01*
X7176015Y-10856674D02*
X7185539Y-10818579D01*
X7185539Y-10818579D02*
X7195063Y-10799531D01*
X7195063Y-10799531D02*
X7204586Y-10790008D01*
X7204586Y-10790008D02*
X7223634Y-10780484D01*
X7376015Y-10961436D02*
X7385539Y-10970960D01*
X7385539Y-10970960D02*
X7376015Y-10980484D01*
X7376015Y-10980484D02*
X7366491Y-10970960D01*
X7366491Y-10970960D02*
X7376015Y-10961436D01*
X7376015Y-10961436D02*
X7376015Y-10980484D01*
X7509348Y-10780484D02*
X7528396Y-10780484D01*
X7528396Y-10780484D02*
X7547444Y-10790008D01*
X7547444Y-10790008D02*
X7556967Y-10799531D01*
X7556967Y-10799531D02*
X7566491Y-10818579D01*
X7566491Y-10818579D02*
X7576015Y-10856674D01*
X7576015Y-10856674D02*
X7576015Y-10904293D01*
X7576015Y-10904293D02*
X7566491Y-10942389D01*
X7566491Y-10942389D02*
X7556967Y-10961436D01*
X7556967Y-10961436D02*
X7547444Y-10970960D01*
X7547444Y-10970960D02*
X7528396Y-10980484D01*
X7528396Y-10980484D02*
X7509348Y-10980484D01*
X7509348Y-10980484D02*
X7490301Y-10970960D01*
X7490301Y-10970960D02*
X7480777Y-10961436D01*
X7480777Y-10961436D02*
X7471253Y-10942389D01*
X7471253Y-10942389D02*
X7461729Y-10904293D01*
X7461729Y-10904293D02*
X7461729Y-10856674D01*
X7461729Y-10856674D02*
X7471253Y-10818579D01*
X7471253Y-10818579D02*
X7480777Y-10799531D01*
X7480777Y-10799531D02*
X7490301Y-10790008D01*
X7490301Y-10790008D02*
X7509348Y-10780484D01*
X7766491Y-10980484D02*
X7652206Y-10980484D01*
X7709348Y-10980484D02*
X7709348Y-10780484D01*
X7709348Y-10780484D02*
X7690301Y-10809055D01*
X7690301Y-10809055D02*
X7671253Y-10828103D01*
X7671253Y-10828103D02*
X7652206Y-10837627D01*
X7956967Y-10980484D02*
X7842682Y-10980484D01*
X7899825Y-10980484D02*
X7899825Y-10780484D01*
X7899825Y-10780484D02*
X7880777Y-10809055D01*
X7880777Y-10809055D02*
X7861729Y-10828103D01*
X7861729Y-10828103D02*
X7842682Y-10837627D01*
X8071253Y-10866198D02*
X8052206Y-10856674D01*
X8052206Y-10856674D02*
X8042682Y-10847150D01*
X8042682Y-10847150D02*
X8033158Y-10828103D01*
X8033158Y-10828103D02*
X8033158Y-10818579D01*
X8033158Y-10818579D02*
X8042682Y-10799531D01*
X8042682Y-10799531D02*
X8052206Y-10790008D01*
X8052206Y-10790008D02*
X8071253Y-10780484D01*
X8071253Y-10780484D02*
X8109348Y-10780484D01*
X8109348Y-10780484D02*
X8128396Y-10790008D01*
X8128396Y-10790008D02*
X8137920Y-10799531D01*
X8137920Y-10799531D02*
X8147444Y-10818579D01*
X8147444Y-10818579D02*
X8147444Y-10828103D01*
X8147444Y-10828103D02*
X8137920Y-10847150D01*
X8137920Y-10847150D02*
X8128396Y-10856674D01*
X8128396Y-10856674D02*
X8109348Y-10866198D01*
X8109348Y-10866198D02*
X8071253Y-10866198D01*
X8071253Y-10866198D02*
X8052206Y-10875722D01*
X8052206Y-10875722D02*
X8042682Y-10885246D01*
X8042682Y-10885246D02*
X8033158Y-10904293D01*
X8033158Y-10904293D02*
X8033158Y-10942389D01*
X8033158Y-10942389D02*
X8042682Y-10961436D01*
X8042682Y-10961436D02*
X8052206Y-10970960D01*
X8052206Y-10970960D02*
X8071253Y-10980484D01*
X8071253Y-10980484D02*
X8109348Y-10980484D01*
X8109348Y-10980484D02*
X8128396Y-10970960D01*
X8128396Y-10970960D02*
X8137920Y-10961436D01*
X8137920Y-10961436D02*
X8147444Y-10942389D01*
X8147444Y-10942389D02*
X8147444Y-10904293D01*
X8147444Y-10904293D02*
X8137920Y-10885246D01*
X8137920Y-10885246D02*
X8128396Y-10875722D01*
X8128396Y-10875722D02*
X8109348Y-10866198D01*
X8223634Y-10780484D02*
X8223634Y-10818579D01*
X8299825Y-10780484D02*
X8299825Y-10818579D01*
X8595063Y-11056674D02*
X8585539Y-11047150D01*
X8585539Y-11047150D02*
X8566491Y-11018579D01*
X8566491Y-11018579D02*
X8556968Y-10999531D01*
X8556968Y-10999531D02*
X8547444Y-10970960D01*
X8547444Y-10970960D02*
X8537920Y-10923341D01*
X8537920Y-10923341D02*
X8537920Y-10885246D01*
X8537920Y-10885246D02*
X8547444Y-10837627D01*
X8547444Y-10837627D02*
X8556968Y-10809055D01*
X8556968Y-10809055D02*
X8566491Y-10790008D01*
X8566491Y-10790008D02*
X8585539Y-10761436D01*
X8585539Y-10761436D02*
X8595063Y-10751912D01*
X8776015Y-10980484D02*
X8661730Y-10980484D01*
X8718872Y-10980484D02*
X8718872Y-10780484D01*
X8718872Y-10780484D02*
X8699825Y-10809055D01*
X8699825Y-10809055D02*
X8680777Y-10828103D01*
X8680777Y-10828103D02*
X8661730Y-10837627D01*
X8890301Y-10866198D02*
X8871253Y-10856674D01*
X8871253Y-10856674D02*
X8861730Y-10847150D01*
X8861730Y-10847150D02*
X8852206Y-10828103D01*
X8852206Y-10828103D02*
X8852206Y-10818579D01*
X8852206Y-10818579D02*
X8861730Y-10799531D01*
X8861730Y-10799531D02*
X8871253Y-10790008D01*
X8871253Y-10790008D02*
X8890301Y-10780484D01*
X8890301Y-10780484D02*
X8928396Y-10780484D01*
X8928396Y-10780484D02*
X8947444Y-10790008D01*
X8947444Y-10790008D02*
X8956968Y-10799531D01*
X8956968Y-10799531D02*
X8966491Y-10818579D01*
X8966491Y-10818579D02*
X8966491Y-10828103D01*
X8966491Y-10828103D02*
X8956968Y-10847150D01*
X8956968Y-10847150D02*
X8947444Y-10856674D01*
X8947444Y-10856674D02*
X8928396Y-10866198D01*
X8928396Y-10866198D02*
X8890301Y-10866198D01*
X8890301Y-10866198D02*
X8871253Y-10875722D01*
X8871253Y-10875722D02*
X8861730Y-10885246D01*
X8861730Y-10885246D02*
X8852206Y-10904293D01*
X8852206Y-10904293D02*
X8852206Y-10942389D01*
X8852206Y-10942389D02*
X8861730Y-10961436D01*
X8861730Y-10961436D02*
X8871253Y-10970960D01*
X8871253Y-10970960D02*
X8890301Y-10980484D01*
X8890301Y-10980484D02*
X8928396Y-10980484D01*
X8928396Y-10980484D02*
X8947444Y-10970960D01*
X8947444Y-10970960D02*
X8956968Y-10961436D01*
X8956968Y-10961436D02*
X8966491Y-10942389D01*
X8966491Y-10942389D02*
X8966491Y-10904293D01*
X8966491Y-10904293D02*
X8956968Y-10885246D01*
X8956968Y-10885246D02*
X8947444Y-10875722D01*
X8947444Y-10875722D02*
X8928396Y-10866198D01*
X9204587Y-10980484D02*
X9204587Y-10780484D01*
X9290301Y-10980484D02*
X9290301Y-10875722D01*
X9290301Y-10875722D02*
X9280777Y-10856674D01*
X9280777Y-10856674D02*
X9261730Y-10847150D01*
X9261730Y-10847150D02*
X9233158Y-10847150D01*
X9233158Y-10847150D02*
X9214111Y-10856674D01*
X9214111Y-10856674D02*
X9204587Y-10866198D01*
X9414111Y-10980484D02*
X9395063Y-10970960D01*
X9395063Y-10970960D02*
X9385539Y-10961436D01*
X9385539Y-10961436D02*
X9376015Y-10942389D01*
X9376015Y-10942389D02*
X9376015Y-10885246D01*
X9376015Y-10885246D02*
X9385539Y-10866198D01*
X9385539Y-10866198D02*
X9395063Y-10856674D01*
X9395063Y-10856674D02*
X9414111Y-10847150D01*
X9414111Y-10847150D02*
X9442682Y-10847150D01*
X9442682Y-10847150D02*
X9461730Y-10856674D01*
X9461730Y-10856674D02*
X9471253Y-10866198D01*
X9471253Y-10866198D02*
X9480777Y-10885246D01*
X9480777Y-10885246D02*
X9480777Y-10942389D01*
X9480777Y-10942389D02*
X9471253Y-10961436D01*
X9471253Y-10961436D02*
X9461730Y-10970960D01*
X9461730Y-10970960D02*
X9442682Y-10980484D01*
X9442682Y-10980484D02*
X9414111Y-10980484D01*
X9595063Y-10980484D02*
X9576015Y-10970960D01*
X9576015Y-10970960D02*
X9566492Y-10951912D01*
X9566492Y-10951912D02*
X9566492Y-10780484D01*
X9747444Y-10970960D02*
X9728396Y-10980484D01*
X9728396Y-10980484D02*
X9690301Y-10980484D01*
X9690301Y-10980484D02*
X9671253Y-10970960D01*
X9671253Y-10970960D02*
X9661730Y-10951912D01*
X9661730Y-10951912D02*
X9661730Y-10875722D01*
X9661730Y-10875722D02*
X9671253Y-10856674D01*
X9671253Y-10856674D02*
X9690301Y-10847150D01*
X9690301Y-10847150D02*
X9728396Y-10847150D01*
X9728396Y-10847150D02*
X9747444Y-10856674D01*
X9747444Y-10856674D02*
X9756968Y-10875722D01*
X9756968Y-10875722D02*
X9756968Y-10894770D01*
X9756968Y-10894770D02*
X9661730Y-10913817D01*
X9833158Y-10970960D02*
X9852206Y-10980484D01*
X9852206Y-10980484D02*
X9890301Y-10980484D01*
X9890301Y-10980484D02*
X9909349Y-10970960D01*
X9909349Y-10970960D02*
X9918873Y-10951912D01*
X9918873Y-10951912D02*
X9918873Y-10942389D01*
X9918873Y-10942389D02*
X9909349Y-10923341D01*
X9909349Y-10923341D02*
X9890301Y-10913817D01*
X9890301Y-10913817D02*
X9861730Y-10913817D01*
X9861730Y-10913817D02*
X9842682Y-10904293D01*
X9842682Y-10904293D02*
X9833158Y-10885246D01*
X9833158Y-10885246D02*
X9833158Y-10875722D01*
X9833158Y-10875722D02*
X9842682Y-10856674D01*
X9842682Y-10856674D02*
X9861730Y-10847150D01*
X9861730Y-10847150D02*
X9890301Y-10847150D01*
X9890301Y-10847150D02*
X9909349Y-10856674D01*
X9985539Y-11056674D02*
X9995063Y-11047150D01*
X9995063Y-11047150D02*
X10014111Y-11018579D01*
X10014111Y-11018579D02*
X10023634Y-10999531D01*
X10023634Y-10999531D02*
X10033158Y-10970960D01*
X10033158Y-10970960D02*
X10042682Y-10923341D01*
X10042682Y-10923341D02*
X10042682Y-10885246D01*
X10042682Y-10885246D02*
X10033158Y-10837627D01*
X10033158Y-10837627D02*
X10023634Y-10809055D01*
X10023634Y-10809055D02*
X10014111Y-10790008D01*
X10014111Y-10790008D02*
X9995063Y-10761436D01*
X9995063Y-10761436D02*
X9985539Y-10751912D01*
D12*
X5000000Y-11133000D02*
X5000000Y-11173000D01*
X4980000Y-11153000D02*
X5020000Y-11153000D01*
D11*
X5318872Y-11044484D02*
X5337920Y-11044484D01*
X5337920Y-11044484D02*
X5356967Y-11054008D01*
X5356967Y-11054008D02*
X5366491Y-11063531D01*
X5366491Y-11063531D02*
X5376015Y-11082579D01*
X5376015Y-11082579D02*
X5385539Y-11120674D01*
X5385539Y-11120674D02*
X5385539Y-11168293D01*
X5385539Y-11168293D02*
X5376015Y-11206388D01*
X5376015Y-11206388D02*
X5366491Y-11225436D01*
X5366491Y-11225436D02*
X5356967Y-11234960D01*
X5356967Y-11234960D02*
X5337920Y-11244484D01*
X5337920Y-11244484D02*
X5318872Y-11244484D01*
X5318872Y-11244484D02*
X5299824Y-11234960D01*
X5299824Y-11234960D02*
X5290301Y-11225436D01*
X5290301Y-11225436D02*
X5280777Y-11206388D01*
X5280777Y-11206388D02*
X5271253Y-11168293D01*
X5271253Y-11168293D02*
X5271253Y-11120674D01*
X5271253Y-11120674D02*
X5280777Y-11082579D01*
X5280777Y-11082579D02*
X5290301Y-11063531D01*
X5290301Y-11063531D02*
X5299824Y-11054008D01*
X5299824Y-11054008D02*
X5318872Y-11044484D01*
X5471253Y-11225436D02*
X5480777Y-11234960D01*
X5480777Y-11234960D02*
X5471253Y-11244484D01*
X5471253Y-11244484D02*
X5461729Y-11234960D01*
X5461729Y-11234960D02*
X5471253Y-11225436D01*
X5471253Y-11225436D02*
X5471253Y-11244484D01*
X5652205Y-11111150D02*
X5652205Y-11244484D01*
X5604586Y-11034960D02*
X5556967Y-11177817D01*
X5556967Y-11177817D02*
X5680777Y-11177817D01*
X5795062Y-11044484D02*
X5814110Y-11044484D01*
X5814110Y-11044484D02*
X5833158Y-11054008D01*
X5833158Y-11054008D02*
X5842682Y-11063531D01*
X5842682Y-11063531D02*
X5852205Y-11082579D01*
X5852205Y-11082579D02*
X5861729Y-11120674D01*
X5861729Y-11120674D02*
X5861729Y-11168293D01*
X5861729Y-11168293D02*
X5852205Y-11206388D01*
X5852205Y-11206388D02*
X5842682Y-11225436D01*
X5842682Y-11225436D02*
X5833158Y-11234960D01*
X5833158Y-11234960D02*
X5814110Y-11244484D01*
X5814110Y-11244484D02*
X5795062Y-11244484D01*
X5795062Y-11244484D02*
X5776015Y-11234960D01*
X5776015Y-11234960D02*
X5766491Y-11225436D01*
X5766491Y-11225436D02*
X5756967Y-11206388D01*
X5756967Y-11206388D02*
X5747443Y-11168293D01*
X5747443Y-11168293D02*
X5747443Y-11120674D01*
X5747443Y-11120674D02*
X5756967Y-11082579D01*
X5756967Y-11082579D02*
X5766491Y-11063531D01*
X5766491Y-11063531D02*
X5776015Y-11054008D01*
X5776015Y-11054008D02*
X5795062Y-11044484D01*
X5985539Y-11044484D02*
X6004586Y-11044484D01*
X6004586Y-11044484D02*
X6023634Y-11054008D01*
X6023634Y-11054008D02*
X6033158Y-11063531D01*
X6033158Y-11063531D02*
X6042682Y-11082579D01*
X6042682Y-11082579D02*
X6052205Y-11120674D01*
X6052205Y-11120674D02*
X6052205Y-11168293D01*
X6052205Y-11168293D02*
X6042682Y-11206388D01*
X6042682Y-11206388D02*
X6033158Y-11225436D01*
X6033158Y-11225436D02*
X6023634Y-11234960D01*
X6023634Y-11234960D02*
X6004586Y-11244484D01*
X6004586Y-11244484D02*
X5985539Y-11244484D01*
X5985539Y-11244484D02*
X5966491Y-11234960D01*
X5966491Y-11234960D02*
X5956967Y-11225436D01*
X5956967Y-11225436D02*
X5947443Y-11206388D01*
X5947443Y-11206388D02*
X5937920Y-11168293D01*
X5937920Y-11168293D02*
X5937920Y-11120674D01*
X5937920Y-11120674D02*
X5947443Y-11082579D01*
X5947443Y-11082579D02*
X5956967Y-11063531D01*
X5956967Y-11063531D02*
X5966491Y-11054008D01*
X5966491Y-11054008D02*
X5985539Y-11044484D01*
X6137920Y-11244484D02*
X6137920Y-11111150D01*
X6137920Y-11130198D02*
X6147443Y-11120674D01*
X6147443Y-11120674D02*
X6166491Y-11111150D01*
X6166491Y-11111150D02*
X6195063Y-11111150D01*
X6195063Y-11111150D02*
X6214110Y-11120674D01*
X6214110Y-11120674D02*
X6223634Y-11139722D01*
X6223634Y-11139722D02*
X6223634Y-11244484D01*
X6223634Y-11139722D02*
X6233158Y-11120674D01*
X6233158Y-11120674D02*
X6252205Y-11111150D01*
X6252205Y-11111150D02*
X6280777Y-11111150D01*
X6280777Y-11111150D02*
X6299824Y-11120674D01*
X6299824Y-11120674D02*
X6309348Y-11139722D01*
X6309348Y-11139722D02*
X6309348Y-11244484D01*
X6404586Y-11244484D02*
X6404586Y-11111150D01*
X6404586Y-11130198D02*
X6414110Y-11120674D01*
X6414110Y-11120674D02*
X6433158Y-11111150D01*
X6433158Y-11111150D02*
X6461729Y-11111150D01*
X6461729Y-11111150D02*
X6480777Y-11120674D01*
X6480777Y-11120674D02*
X6490301Y-11139722D01*
X6490301Y-11139722D02*
X6490301Y-11244484D01*
X6490301Y-11139722D02*
X6499824Y-11120674D01*
X6499824Y-11120674D02*
X6518872Y-11111150D01*
X6518872Y-11111150D02*
X6547443Y-11111150D01*
X6547443Y-11111150D02*
X6566491Y-11120674D01*
X6566491Y-11120674D02*
X6576015Y-11139722D01*
X6576015Y-11139722D02*
X6576015Y-11244484D01*
X6966491Y-11034960D02*
X6795063Y-11292103D01*
X7223634Y-11044484D02*
X7242682Y-11044484D01*
X7242682Y-11044484D02*
X7261729Y-11054008D01*
X7261729Y-11054008D02*
X7271253Y-11063531D01*
X7271253Y-11063531D02*
X7280777Y-11082579D01*
X7280777Y-11082579D02*
X7290301Y-11120674D01*
X7290301Y-11120674D02*
X7290301Y-11168293D01*
X7290301Y-11168293D02*
X7280777Y-11206388D01*
X7280777Y-11206388D02*
X7271253Y-11225436D01*
X7271253Y-11225436D02*
X7261729Y-11234960D01*
X7261729Y-11234960D02*
X7242682Y-11244484D01*
X7242682Y-11244484D02*
X7223634Y-11244484D01*
X7223634Y-11244484D02*
X7204586Y-11234960D01*
X7204586Y-11234960D02*
X7195063Y-11225436D01*
X7195063Y-11225436D02*
X7185539Y-11206388D01*
X7185539Y-11206388D02*
X7176015Y-11168293D01*
X7176015Y-11168293D02*
X7176015Y-11120674D01*
X7176015Y-11120674D02*
X7185539Y-11082579D01*
X7185539Y-11082579D02*
X7195063Y-11063531D01*
X7195063Y-11063531D02*
X7204586Y-11054008D01*
X7204586Y-11054008D02*
X7223634Y-11044484D01*
X7376015Y-11225436D02*
X7385539Y-11234960D01*
X7385539Y-11234960D02*
X7376015Y-11244484D01*
X7376015Y-11244484D02*
X7366491Y-11234960D01*
X7366491Y-11234960D02*
X7376015Y-11225436D01*
X7376015Y-11225436D02*
X7376015Y-11244484D01*
X7509348Y-11044484D02*
X7528396Y-11044484D01*
X7528396Y-11044484D02*
X7547444Y-11054008D01*
X7547444Y-11054008D02*
X7556967Y-11063531D01*
X7556967Y-11063531D02*
X7566491Y-11082579D01*
X7566491Y-11082579D02*
X7576015Y-11120674D01*
X7576015Y-11120674D02*
X7576015Y-11168293D01*
X7576015Y-11168293D02*
X7566491Y-11206388D01*
X7566491Y-11206388D02*
X7556967Y-11225436D01*
X7556967Y-11225436D02*
X7547444Y-11234960D01*
X7547444Y-11234960D02*
X7528396Y-11244484D01*
X7528396Y-11244484D02*
X7509348Y-11244484D01*
X7509348Y-11244484D02*
X7490301Y-11234960D01*
X7490301Y-11234960D02*
X7480777Y-11225436D01*
X7480777Y-11225436D02*
X7471253Y-11206388D01*
X7471253Y-11206388D02*
X7461729Y-11168293D01*
X7461729Y-11168293D02*
X7461729Y-11120674D01*
X7461729Y-11120674D02*
X7471253Y-11082579D01*
X7471253Y-11082579D02*
X7480777Y-11063531D01*
X7480777Y-11063531D02*
X7490301Y-11054008D01*
X7490301Y-11054008D02*
X7509348Y-11044484D01*
X7766491Y-11244484D02*
X7652206Y-11244484D01*
X7709348Y-11244484D02*
X7709348Y-11044484D01*
X7709348Y-11044484D02*
X7690301Y-11073055D01*
X7690301Y-11073055D02*
X7671253Y-11092103D01*
X7671253Y-11092103D02*
X7652206Y-11101627D01*
X7947444Y-11044484D02*
X7852206Y-11044484D01*
X7852206Y-11044484D02*
X7842682Y-11139722D01*
X7842682Y-11139722D02*
X7852206Y-11130198D01*
X7852206Y-11130198D02*
X7871253Y-11120674D01*
X7871253Y-11120674D02*
X7918872Y-11120674D01*
X7918872Y-11120674D02*
X7937920Y-11130198D01*
X7937920Y-11130198D02*
X7947444Y-11139722D01*
X7947444Y-11139722D02*
X7956967Y-11158770D01*
X7956967Y-11158770D02*
X7956967Y-11206388D01*
X7956967Y-11206388D02*
X7947444Y-11225436D01*
X7947444Y-11225436D02*
X7937920Y-11234960D01*
X7937920Y-11234960D02*
X7918872Y-11244484D01*
X7918872Y-11244484D02*
X7871253Y-11244484D01*
X7871253Y-11244484D02*
X7852206Y-11234960D01*
X7852206Y-11234960D02*
X7842682Y-11225436D01*
X8023634Y-11044484D02*
X8156967Y-11044484D01*
X8156967Y-11044484D02*
X8071253Y-11244484D01*
X8223634Y-11044484D02*
X8223634Y-11082579D01*
X8299825Y-11044484D02*
X8299825Y-11082579D01*
X8595063Y-11320674D02*
X8585539Y-11311150D01*
X8585539Y-11311150D02*
X8566491Y-11282579D01*
X8566491Y-11282579D02*
X8556968Y-11263531D01*
X8556968Y-11263531D02*
X8547444Y-11234960D01*
X8547444Y-11234960D02*
X8537920Y-11187341D01*
X8537920Y-11187341D02*
X8537920Y-11149246D01*
X8537920Y-11149246D02*
X8547444Y-11101627D01*
X8547444Y-11101627D02*
X8556968Y-11073055D01*
X8556968Y-11073055D02*
X8566491Y-11054008D01*
X8566491Y-11054008D02*
X8585539Y-11025436D01*
X8585539Y-11025436D02*
X8595063Y-11015912D01*
X8776015Y-11244484D02*
X8661730Y-11244484D01*
X8718872Y-11244484D02*
X8718872Y-11044484D01*
X8718872Y-11044484D02*
X8699825Y-11073055D01*
X8699825Y-11073055D02*
X8680777Y-11092103D01*
X8680777Y-11092103D02*
X8661730Y-11101627D01*
X8947444Y-11044484D02*
X8909349Y-11044484D01*
X8909349Y-11044484D02*
X8890301Y-11054008D01*
X8890301Y-11054008D02*
X8880777Y-11063531D01*
X8880777Y-11063531D02*
X8861730Y-11092103D01*
X8861730Y-11092103D02*
X8852206Y-11130198D01*
X8852206Y-11130198D02*
X8852206Y-11206388D01*
X8852206Y-11206388D02*
X8861730Y-11225436D01*
X8861730Y-11225436D02*
X8871253Y-11234960D01*
X8871253Y-11234960D02*
X8890301Y-11244484D01*
X8890301Y-11244484D02*
X8928396Y-11244484D01*
X8928396Y-11244484D02*
X8947444Y-11234960D01*
X8947444Y-11234960D02*
X8956968Y-11225436D01*
X8956968Y-11225436D02*
X8966491Y-11206388D01*
X8966491Y-11206388D02*
X8966491Y-11158770D01*
X8966491Y-11158770D02*
X8956968Y-11139722D01*
X8956968Y-11139722D02*
X8947444Y-11130198D01*
X8947444Y-11130198D02*
X8928396Y-11120674D01*
X8928396Y-11120674D02*
X8890301Y-11120674D01*
X8890301Y-11120674D02*
X8871253Y-11130198D01*
X8871253Y-11130198D02*
X8861730Y-11139722D01*
X8861730Y-11139722D02*
X8852206Y-11158770D01*
X9204587Y-11244484D02*
X9204587Y-11044484D01*
X9290301Y-11244484D02*
X9290301Y-11139722D01*
X9290301Y-11139722D02*
X9280777Y-11120674D01*
X9280777Y-11120674D02*
X9261730Y-11111150D01*
X9261730Y-11111150D02*
X9233158Y-11111150D01*
X9233158Y-11111150D02*
X9214111Y-11120674D01*
X9214111Y-11120674D02*
X9204587Y-11130198D01*
X9414111Y-11244484D02*
X9395063Y-11234960D01*
X9395063Y-11234960D02*
X9385539Y-11225436D01*
X9385539Y-11225436D02*
X9376015Y-11206388D01*
X9376015Y-11206388D02*
X9376015Y-11149246D01*
X9376015Y-11149246D02*
X9385539Y-11130198D01*
X9385539Y-11130198D02*
X9395063Y-11120674D01*
X9395063Y-11120674D02*
X9414111Y-11111150D01*
X9414111Y-11111150D02*
X9442682Y-11111150D01*
X9442682Y-11111150D02*
X9461730Y-11120674D01*
X9461730Y-11120674D02*
X9471253Y-11130198D01*
X9471253Y-11130198D02*
X9480777Y-11149246D01*
X9480777Y-11149246D02*
X9480777Y-11206388D01*
X9480777Y-11206388D02*
X9471253Y-11225436D01*
X9471253Y-11225436D02*
X9461730Y-11234960D01*
X9461730Y-11234960D02*
X9442682Y-11244484D01*
X9442682Y-11244484D02*
X9414111Y-11244484D01*
X9595063Y-11244484D02*
X9576015Y-11234960D01*
X9576015Y-11234960D02*
X9566492Y-11215912D01*
X9566492Y-11215912D02*
X9566492Y-11044484D01*
X9747444Y-11234960D02*
X9728396Y-11244484D01*
X9728396Y-11244484D02*
X9690301Y-11244484D01*
X9690301Y-11244484D02*
X9671253Y-11234960D01*
X9671253Y-11234960D02*
X9661730Y-11215912D01*
X9661730Y-11215912D02*
X9661730Y-11139722D01*
X9661730Y-11139722D02*
X9671253Y-11120674D01*
X9671253Y-11120674D02*
X9690301Y-11111150D01*
X9690301Y-11111150D02*
X9728396Y-11111150D01*
X9728396Y-11111150D02*
X9747444Y-11120674D01*
X9747444Y-11120674D02*
X9756968Y-11139722D01*
X9756968Y-11139722D02*
X9756968Y-11158770D01*
X9756968Y-11158770D02*
X9661730Y-11177817D01*
X9833158Y-11234960D02*
X9852206Y-11244484D01*
X9852206Y-11244484D02*
X9890301Y-11244484D01*
X9890301Y-11244484D02*
X9909349Y-11234960D01*
X9909349Y-11234960D02*
X9918873Y-11215912D01*
X9918873Y-11215912D02*
X9918873Y-11206388D01*
X9918873Y-11206388D02*
X9909349Y-11187341D01*
X9909349Y-11187341D02*
X9890301Y-11177817D01*
X9890301Y-11177817D02*
X9861730Y-11177817D01*
X9861730Y-11177817D02*
X9842682Y-11168293D01*
X9842682Y-11168293D02*
X9833158Y-11149246D01*
X9833158Y-11149246D02*
X9833158Y-11139722D01*
X9833158Y-11139722D02*
X9842682Y-11120674D01*
X9842682Y-11120674D02*
X9861730Y-11111150D01*
X9861730Y-11111150D02*
X9890301Y-11111150D01*
X9890301Y-11111150D02*
X9909349Y-11120674D01*
X9985539Y-11320674D02*
X9995063Y-11311150D01*
X9995063Y-11311150D02*
X10014111Y-11282579D01*
X10014111Y-11282579D02*
X10023634Y-11263531D01*
X10023634Y-11263531D02*
X10033158Y-11234960D01*
X10033158Y-11234960D02*
X10042682Y-11187341D01*
X10042682Y-11187341D02*
X10042682Y-11149246D01*
X10042682Y-11149246D02*
X10033158Y-11101627D01*
X10033158Y-11101627D02*
X10023634Y-11073055D01*
X10023634Y-11073055D02*
X10014111Y-11054008D01*
X10014111Y-11054008D02*
X9995063Y-11025436D01*
X9995063Y-11025436D02*
X9985539Y-11015912D01*
D12*
X5011213Y-11438213D02*
X5011213Y-11395787D01*
X4968787Y-11395787D01*
X4968787Y-11438213D01*
X5011213Y-11438213D01*
D11*
X5318872Y-11308484D02*
X5337920Y-11308484D01*
X5337920Y-11308484D02*
X5356967Y-11318008D01*
X5356967Y-11318008D02*
X5366491Y-11327531D01*
X5366491Y-11327531D02*
X5376015Y-11346579D01*
X5376015Y-11346579D02*
X5385539Y-11384674D01*
X5385539Y-11384674D02*
X5385539Y-11432293D01*
X5385539Y-11432293D02*
X5376015Y-11470388D01*
X5376015Y-11470388D02*
X5366491Y-11489436D01*
X5366491Y-11489436D02*
X5356967Y-11498960D01*
X5356967Y-11498960D02*
X5337920Y-11508484D01*
X5337920Y-11508484D02*
X5318872Y-11508484D01*
X5318872Y-11508484D02*
X5299824Y-11498960D01*
X5299824Y-11498960D02*
X5290301Y-11489436D01*
X5290301Y-11489436D02*
X5280777Y-11470388D01*
X5280777Y-11470388D02*
X5271253Y-11432293D01*
X5271253Y-11432293D02*
X5271253Y-11384674D01*
X5271253Y-11384674D02*
X5280777Y-11346579D01*
X5280777Y-11346579D02*
X5290301Y-11327531D01*
X5290301Y-11327531D02*
X5299824Y-11318008D01*
X5299824Y-11318008D02*
X5318872Y-11308484D01*
X5471253Y-11489436D02*
X5480777Y-11498960D01*
X5480777Y-11498960D02*
X5471253Y-11508484D01*
X5471253Y-11508484D02*
X5461729Y-11498960D01*
X5461729Y-11498960D02*
X5471253Y-11489436D01*
X5471253Y-11489436D02*
X5471253Y-11508484D01*
X5652205Y-11308484D02*
X5614110Y-11308484D01*
X5614110Y-11308484D02*
X5595062Y-11318008D01*
X5595062Y-11318008D02*
X5585539Y-11327531D01*
X5585539Y-11327531D02*
X5566491Y-11356103D01*
X5566491Y-11356103D02*
X5556967Y-11394198D01*
X5556967Y-11394198D02*
X5556967Y-11470388D01*
X5556967Y-11470388D02*
X5566491Y-11489436D01*
X5566491Y-11489436D02*
X5576015Y-11498960D01*
X5576015Y-11498960D02*
X5595062Y-11508484D01*
X5595062Y-11508484D02*
X5633158Y-11508484D01*
X5633158Y-11508484D02*
X5652205Y-11498960D01*
X5652205Y-11498960D02*
X5661729Y-11489436D01*
X5661729Y-11489436D02*
X5671253Y-11470388D01*
X5671253Y-11470388D02*
X5671253Y-11422769D01*
X5671253Y-11422769D02*
X5661729Y-11403722D01*
X5661729Y-11403722D02*
X5652205Y-11394198D01*
X5652205Y-11394198D02*
X5633158Y-11384674D01*
X5633158Y-11384674D02*
X5595062Y-11384674D01*
X5595062Y-11384674D02*
X5576015Y-11394198D01*
X5576015Y-11394198D02*
X5566491Y-11403722D01*
X5566491Y-11403722D02*
X5556967Y-11422769D01*
X5795062Y-11308484D02*
X5814110Y-11308484D01*
X5814110Y-11308484D02*
X5833158Y-11318008D01*
X5833158Y-11318008D02*
X5842682Y-11327531D01*
X5842682Y-11327531D02*
X5852205Y-11346579D01*
X5852205Y-11346579D02*
X5861729Y-11384674D01*
X5861729Y-11384674D02*
X5861729Y-11432293D01*
X5861729Y-11432293D02*
X5852205Y-11470388D01*
X5852205Y-11470388D02*
X5842682Y-11489436D01*
X5842682Y-11489436D02*
X5833158Y-11498960D01*
X5833158Y-11498960D02*
X5814110Y-11508484D01*
X5814110Y-11508484D02*
X5795062Y-11508484D01*
X5795062Y-11508484D02*
X5776015Y-11498960D01*
X5776015Y-11498960D02*
X5766491Y-11489436D01*
X5766491Y-11489436D02*
X5756967Y-11470388D01*
X5756967Y-11470388D02*
X5747443Y-11432293D01*
X5747443Y-11432293D02*
X5747443Y-11384674D01*
X5747443Y-11384674D02*
X5756967Y-11346579D01*
X5756967Y-11346579D02*
X5766491Y-11327531D01*
X5766491Y-11327531D02*
X5776015Y-11318008D01*
X5776015Y-11318008D02*
X5795062Y-11308484D01*
X5985539Y-11308484D02*
X6004586Y-11308484D01*
X6004586Y-11308484D02*
X6023634Y-11318008D01*
X6023634Y-11318008D02*
X6033158Y-11327531D01*
X6033158Y-11327531D02*
X6042682Y-11346579D01*
X6042682Y-11346579D02*
X6052205Y-11384674D01*
X6052205Y-11384674D02*
X6052205Y-11432293D01*
X6052205Y-11432293D02*
X6042682Y-11470388D01*
X6042682Y-11470388D02*
X6033158Y-11489436D01*
X6033158Y-11489436D02*
X6023634Y-11498960D01*
X6023634Y-11498960D02*
X6004586Y-11508484D01*
X6004586Y-11508484D02*
X5985539Y-11508484D01*
X5985539Y-11508484D02*
X5966491Y-11498960D01*
X5966491Y-11498960D02*
X5956967Y-11489436D01*
X5956967Y-11489436D02*
X5947443Y-11470388D01*
X5947443Y-11470388D02*
X5937920Y-11432293D01*
X5937920Y-11432293D02*
X5937920Y-11384674D01*
X5937920Y-11384674D02*
X5947443Y-11346579D01*
X5947443Y-11346579D02*
X5956967Y-11327531D01*
X5956967Y-11327531D02*
X5966491Y-11318008D01*
X5966491Y-11318008D02*
X5985539Y-11308484D01*
X6137920Y-11508484D02*
X6137920Y-11375150D01*
X6137920Y-11394198D02*
X6147443Y-11384674D01*
X6147443Y-11384674D02*
X6166491Y-11375150D01*
X6166491Y-11375150D02*
X6195063Y-11375150D01*
X6195063Y-11375150D02*
X6214110Y-11384674D01*
X6214110Y-11384674D02*
X6223634Y-11403722D01*
X6223634Y-11403722D02*
X6223634Y-11508484D01*
X6223634Y-11403722D02*
X6233158Y-11384674D01*
X6233158Y-11384674D02*
X6252205Y-11375150D01*
X6252205Y-11375150D02*
X6280777Y-11375150D01*
X6280777Y-11375150D02*
X6299824Y-11384674D01*
X6299824Y-11384674D02*
X6309348Y-11403722D01*
X6309348Y-11403722D02*
X6309348Y-11508484D01*
X6404586Y-11508484D02*
X6404586Y-11375150D01*
X6404586Y-11394198D02*
X6414110Y-11384674D01*
X6414110Y-11384674D02*
X6433158Y-11375150D01*
X6433158Y-11375150D02*
X6461729Y-11375150D01*
X6461729Y-11375150D02*
X6480777Y-11384674D01*
X6480777Y-11384674D02*
X6490301Y-11403722D01*
X6490301Y-11403722D02*
X6490301Y-11508484D01*
X6490301Y-11403722D02*
X6499824Y-11384674D01*
X6499824Y-11384674D02*
X6518872Y-11375150D01*
X6518872Y-11375150D02*
X6547443Y-11375150D01*
X6547443Y-11375150D02*
X6566491Y-11384674D01*
X6566491Y-11384674D02*
X6576015Y-11403722D01*
X6576015Y-11403722D02*
X6576015Y-11508484D01*
X6966491Y-11298960D02*
X6795063Y-11556103D01*
X7223634Y-11308484D02*
X7242682Y-11308484D01*
X7242682Y-11308484D02*
X7261729Y-11318008D01*
X7261729Y-11318008D02*
X7271253Y-11327531D01*
X7271253Y-11327531D02*
X7280777Y-11346579D01*
X7280777Y-11346579D02*
X7290301Y-11384674D01*
X7290301Y-11384674D02*
X7290301Y-11432293D01*
X7290301Y-11432293D02*
X7280777Y-11470388D01*
X7280777Y-11470388D02*
X7271253Y-11489436D01*
X7271253Y-11489436D02*
X7261729Y-11498960D01*
X7261729Y-11498960D02*
X7242682Y-11508484D01*
X7242682Y-11508484D02*
X7223634Y-11508484D01*
X7223634Y-11508484D02*
X7204586Y-11498960D01*
X7204586Y-11498960D02*
X7195063Y-11489436D01*
X7195063Y-11489436D02*
X7185539Y-11470388D01*
X7185539Y-11470388D02*
X7176015Y-11432293D01*
X7176015Y-11432293D02*
X7176015Y-11384674D01*
X7176015Y-11384674D02*
X7185539Y-11346579D01*
X7185539Y-11346579D02*
X7195063Y-11327531D01*
X7195063Y-11327531D02*
X7204586Y-11318008D01*
X7204586Y-11318008D02*
X7223634Y-11308484D01*
X7376015Y-11489436D02*
X7385539Y-11498960D01*
X7385539Y-11498960D02*
X7376015Y-11508484D01*
X7376015Y-11508484D02*
X7366491Y-11498960D01*
X7366491Y-11498960D02*
X7376015Y-11489436D01*
X7376015Y-11489436D02*
X7376015Y-11508484D01*
X7509348Y-11308484D02*
X7528396Y-11308484D01*
X7528396Y-11308484D02*
X7547444Y-11318008D01*
X7547444Y-11318008D02*
X7556967Y-11327531D01*
X7556967Y-11327531D02*
X7566491Y-11346579D01*
X7566491Y-11346579D02*
X7576015Y-11384674D01*
X7576015Y-11384674D02*
X7576015Y-11432293D01*
X7576015Y-11432293D02*
X7566491Y-11470388D01*
X7566491Y-11470388D02*
X7556967Y-11489436D01*
X7556967Y-11489436D02*
X7547444Y-11498960D01*
X7547444Y-11498960D02*
X7528396Y-11508484D01*
X7528396Y-11508484D02*
X7509348Y-11508484D01*
X7509348Y-11508484D02*
X7490301Y-11498960D01*
X7490301Y-11498960D02*
X7480777Y-11489436D01*
X7480777Y-11489436D02*
X7471253Y-11470388D01*
X7471253Y-11470388D02*
X7461729Y-11432293D01*
X7461729Y-11432293D02*
X7461729Y-11384674D01*
X7461729Y-11384674D02*
X7471253Y-11346579D01*
X7471253Y-11346579D02*
X7480777Y-11327531D01*
X7480777Y-11327531D02*
X7490301Y-11318008D01*
X7490301Y-11318008D02*
X7509348Y-11308484D01*
X7652206Y-11327531D02*
X7661729Y-11318008D01*
X7661729Y-11318008D02*
X7680777Y-11308484D01*
X7680777Y-11308484D02*
X7728396Y-11308484D01*
X7728396Y-11308484D02*
X7747444Y-11318008D01*
X7747444Y-11318008D02*
X7756967Y-11327531D01*
X7756967Y-11327531D02*
X7766491Y-11346579D01*
X7766491Y-11346579D02*
X7766491Y-11365627D01*
X7766491Y-11365627D02*
X7756967Y-11394198D01*
X7756967Y-11394198D02*
X7642682Y-11508484D01*
X7642682Y-11508484D02*
X7766491Y-11508484D01*
X7833158Y-11308484D02*
X7956967Y-11308484D01*
X7956967Y-11308484D02*
X7890301Y-11384674D01*
X7890301Y-11384674D02*
X7918872Y-11384674D01*
X7918872Y-11384674D02*
X7937920Y-11394198D01*
X7937920Y-11394198D02*
X7947444Y-11403722D01*
X7947444Y-11403722D02*
X7956967Y-11422769D01*
X7956967Y-11422769D02*
X7956967Y-11470388D01*
X7956967Y-11470388D02*
X7947444Y-11489436D01*
X7947444Y-11489436D02*
X7937920Y-11498960D01*
X7937920Y-11498960D02*
X7918872Y-11508484D01*
X7918872Y-11508484D02*
X7861729Y-11508484D01*
X7861729Y-11508484D02*
X7842682Y-11498960D01*
X7842682Y-11498960D02*
X7833158Y-11489436D01*
X8128396Y-11308484D02*
X8090301Y-11308484D01*
X8090301Y-11308484D02*
X8071253Y-11318008D01*
X8071253Y-11318008D02*
X8061729Y-11327531D01*
X8061729Y-11327531D02*
X8042682Y-11356103D01*
X8042682Y-11356103D02*
X8033158Y-11394198D01*
X8033158Y-11394198D02*
X8033158Y-11470388D01*
X8033158Y-11470388D02*
X8042682Y-11489436D01*
X8042682Y-11489436D02*
X8052206Y-11498960D01*
X8052206Y-11498960D02*
X8071253Y-11508484D01*
X8071253Y-11508484D02*
X8109348Y-11508484D01*
X8109348Y-11508484D02*
X8128396Y-11498960D01*
X8128396Y-11498960D02*
X8137920Y-11489436D01*
X8137920Y-11489436D02*
X8147444Y-11470388D01*
X8147444Y-11470388D02*
X8147444Y-11422769D01*
X8147444Y-11422769D02*
X8137920Y-11403722D01*
X8137920Y-11403722D02*
X8128396Y-11394198D01*
X8128396Y-11394198D02*
X8109348Y-11384674D01*
X8109348Y-11384674D02*
X8071253Y-11384674D01*
X8071253Y-11384674D02*
X8052206Y-11394198D01*
X8052206Y-11394198D02*
X8042682Y-11403722D01*
X8042682Y-11403722D02*
X8033158Y-11422769D01*
X8223634Y-11308484D02*
X8223634Y-11346579D01*
X8299825Y-11308484D02*
X8299825Y-11346579D01*
X8595063Y-11584674D02*
X8585539Y-11575150D01*
X8585539Y-11575150D02*
X8566491Y-11546579D01*
X8566491Y-11546579D02*
X8556968Y-11527531D01*
X8556968Y-11527531D02*
X8547444Y-11498960D01*
X8547444Y-11498960D02*
X8537920Y-11451341D01*
X8537920Y-11451341D02*
X8537920Y-11413246D01*
X8537920Y-11413246D02*
X8547444Y-11365627D01*
X8547444Y-11365627D02*
X8556968Y-11337055D01*
X8556968Y-11337055D02*
X8566491Y-11318008D01*
X8566491Y-11318008D02*
X8585539Y-11289436D01*
X8585539Y-11289436D02*
X8595063Y-11279912D01*
X8709349Y-11308484D02*
X8728396Y-11308484D01*
X8728396Y-11308484D02*
X8747444Y-11318008D01*
X8747444Y-11318008D02*
X8756968Y-11327531D01*
X8756968Y-11327531D02*
X8766491Y-11346579D01*
X8766491Y-11346579D02*
X8776015Y-11384674D01*
X8776015Y-11384674D02*
X8776015Y-11432293D01*
X8776015Y-11432293D02*
X8766491Y-11470388D01*
X8766491Y-11470388D02*
X8756968Y-11489436D01*
X8756968Y-11489436D02*
X8747444Y-11498960D01*
X8747444Y-11498960D02*
X8728396Y-11508484D01*
X8728396Y-11508484D02*
X8709349Y-11508484D01*
X8709349Y-11508484D02*
X8690301Y-11498960D01*
X8690301Y-11498960D02*
X8680777Y-11489436D01*
X8680777Y-11489436D02*
X8671253Y-11470388D01*
X8671253Y-11470388D02*
X8661730Y-11432293D01*
X8661730Y-11432293D02*
X8661730Y-11384674D01*
X8661730Y-11384674D02*
X8671253Y-11346579D01*
X8671253Y-11346579D02*
X8680777Y-11327531D01*
X8680777Y-11327531D02*
X8690301Y-11318008D01*
X8690301Y-11318008D02*
X8709349Y-11308484D01*
X9014111Y-11508484D02*
X9014111Y-11308484D01*
X9099825Y-11508484D02*
X9099825Y-11403722D01*
X9099825Y-11403722D02*
X9090301Y-11384674D01*
X9090301Y-11384674D02*
X9071253Y-11375150D01*
X9071253Y-11375150D02*
X9042682Y-11375150D01*
X9042682Y-11375150D02*
X9023634Y-11384674D01*
X9023634Y-11384674D02*
X9014111Y-11394198D01*
X9223634Y-11508484D02*
X9204587Y-11498960D01*
X9204587Y-11498960D02*
X9195063Y-11489436D01*
X9195063Y-11489436D02*
X9185539Y-11470388D01*
X9185539Y-11470388D02*
X9185539Y-11413246D01*
X9185539Y-11413246D02*
X9195063Y-11394198D01*
X9195063Y-11394198D02*
X9204587Y-11384674D01*
X9204587Y-11384674D02*
X9223634Y-11375150D01*
X9223634Y-11375150D02*
X9252206Y-11375150D01*
X9252206Y-11375150D02*
X9271253Y-11384674D01*
X9271253Y-11384674D02*
X9280777Y-11394198D01*
X9280777Y-11394198D02*
X9290301Y-11413246D01*
X9290301Y-11413246D02*
X9290301Y-11470388D01*
X9290301Y-11470388D02*
X9280777Y-11489436D01*
X9280777Y-11489436D02*
X9271253Y-11498960D01*
X9271253Y-11498960D02*
X9252206Y-11508484D01*
X9252206Y-11508484D02*
X9223634Y-11508484D01*
X9404587Y-11508484D02*
X9385539Y-11498960D01*
X9385539Y-11498960D02*
X9376015Y-11479912D01*
X9376015Y-11479912D02*
X9376015Y-11308484D01*
X9556968Y-11498960D02*
X9537920Y-11508484D01*
X9537920Y-11508484D02*
X9499825Y-11508484D01*
X9499825Y-11508484D02*
X9480777Y-11498960D01*
X9480777Y-11498960D02*
X9471253Y-11479912D01*
X9471253Y-11479912D02*
X9471253Y-11403722D01*
X9471253Y-11403722D02*
X9480777Y-11384674D01*
X9480777Y-11384674D02*
X9499825Y-11375150D01*
X9499825Y-11375150D02*
X9537920Y-11375150D01*
X9537920Y-11375150D02*
X9556968Y-11384674D01*
X9556968Y-11384674D02*
X9566492Y-11403722D01*
X9566492Y-11403722D02*
X9566492Y-11422769D01*
X9566492Y-11422769D02*
X9471253Y-11441817D01*
X9642682Y-11498960D02*
X9661730Y-11508484D01*
X9661730Y-11508484D02*
X9699825Y-11508484D01*
X9699825Y-11508484D02*
X9718873Y-11498960D01*
X9718873Y-11498960D02*
X9728396Y-11479912D01*
X9728396Y-11479912D02*
X9728396Y-11470388D01*
X9728396Y-11470388D02*
X9718873Y-11451341D01*
X9718873Y-11451341D02*
X9699825Y-11441817D01*
X9699825Y-11441817D02*
X9671253Y-11441817D01*
X9671253Y-11441817D02*
X9652206Y-11432293D01*
X9652206Y-11432293D02*
X9642682Y-11413246D01*
X9642682Y-11413246D02*
X9642682Y-11403722D01*
X9642682Y-11403722D02*
X9652206Y-11384674D01*
X9652206Y-11384674D02*
X9671253Y-11375150D01*
X9671253Y-11375150D02*
X9699825Y-11375150D01*
X9699825Y-11375150D02*
X9718873Y-11384674D01*
X9966492Y-11432293D02*
X10118873Y-11432293D01*
X10042682Y-11508484D02*
X10042682Y-11356103D01*
X10452206Y-11375150D02*
X10452206Y-11508484D01*
X10404587Y-11298960D02*
X10356968Y-11441817D01*
X10356968Y-11441817D02*
X10480777Y-11441817D01*
X10699825Y-11498960D02*
X10718873Y-11508484D01*
X10718873Y-11508484D02*
X10756968Y-11508484D01*
X10756968Y-11508484D02*
X10776016Y-11498960D01*
X10776016Y-11498960D02*
X10785539Y-11479912D01*
X10785539Y-11479912D02*
X10785539Y-11470388D01*
X10785539Y-11470388D02*
X10776016Y-11451341D01*
X10776016Y-11451341D02*
X10756968Y-11441817D01*
X10756968Y-11441817D02*
X10728396Y-11441817D01*
X10728396Y-11441817D02*
X10709349Y-11432293D01*
X10709349Y-11432293D02*
X10699825Y-11413246D01*
X10699825Y-11413246D02*
X10699825Y-11403722D01*
X10699825Y-11403722D02*
X10709349Y-11384674D01*
X10709349Y-11384674D02*
X10728396Y-11375150D01*
X10728396Y-11375150D02*
X10756968Y-11375150D01*
X10756968Y-11375150D02*
X10776016Y-11384674D01*
X10899825Y-11508484D02*
X10880777Y-11498960D01*
X10880777Y-11498960D02*
X10871254Y-11479912D01*
X10871254Y-11479912D02*
X10871254Y-11308484D01*
X11004587Y-11508484D02*
X10985539Y-11498960D01*
X10985539Y-11498960D02*
X10976016Y-11489436D01*
X10976016Y-11489436D02*
X10966492Y-11470388D01*
X10966492Y-11470388D02*
X10966492Y-11413246D01*
X10966492Y-11413246D02*
X10976016Y-11394198D01*
X10976016Y-11394198D02*
X10985539Y-11384674D01*
X10985539Y-11384674D02*
X11004587Y-11375150D01*
X11004587Y-11375150D02*
X11033158Y-11375150D01*
X11033158Y-11375150D02*
X11052206Y-11384674D01*
X11052206Y-11384674D02*
X11061730Y-11394198D01*
X11061730Y-11394198D02*
X11071254Y-11413246D01*
X11071254Y-11413246D02*
X11071254Y-11470388D01*
X11071254Y-11470388D02*
X11061730Y-11489436D01*
X11061730Y-11489436D02*
X11052206Y-11498960D01*
X11052206Y-11498960D02*
X11033158Y-11508484D01*
X11033158Y-11508484D02*
X11004587Y-11508484D01*
X11128397Y-11375150D02*
X11204587Y-11375150D01*
X11156968Y-11308484D02*
X11156968Y-11479912D01*
X11156968Y-11479912D02*
X11166492Y-11498960D01*
X11166492Y-11498960D02*
X11185539Y-11508484D01*
X11185539Y-11508484D02*
X11204587Y-11508484D01*
X11261730Y-11498960D02*
X11280777Y-11508484D01*
X11280777Y-11508484D02*
X11318873Y-11508484D01*
X11318873Y-11508484D02*
X11337920Y-11498960D01*
X11337920Y-11498960D02*
X11347444Y-11479912D01*
X11347444Y-11479912D02*
X11347444Y-11470388D01*
X11347444Y-11470388D02*
X11337920Y-11451341D01*
X11337920Y-11451341D02*
X11318873Y-11441817D01*
X11318873Y-11441817D02*
X11290301Y-11441817D01*
X11290301Y-11441817D02*
X11271254Y-11432293D01*
X11271254Y-11432293D02*
X11261730Y-11413246D01*
X11261730Y-11413246D02*
X11261730Y-11403722D01*
X11261730Y-11403722D02*
X11271254Y-11384674D01*
X11271254Y-11384674D02*
X11290301Y-11375150D01*
X11290301Y-11375150D02*
X11318873Y-11375150D01*
X11318873Y-11375150D02*
X11337920Y-11384674D01*
X11414111Y-11584674D02*
X11423635Y-11575150D01*
X11423635Y-11575150D02*
X11442682Y-11546579D01*
X11442682Y-11546579D02*
X11452206Y-11527531D01*
X11452206Y-11527531D02*
X11461730Y-11498960D01*
X11461730Y-11498960D02*
X11471254Y-11451341D01*
X11471254Y-11451341D02*
X11471254Y-11413246D01*
X11471254Y-11413246D02*
X11461730Y-11365627D01*
X11461730Y-11365627D02*
X11452206Y-11337055D01*
X11452206Y-11337055D02*
X11442682Y-11318008D01*
X11442682Y-11318008D02*
X11423635Y-11289436D01*
X11423635Y-11289436D02*
X11414111Y-11279912D01*
D12*
X4970000Y-11731000D02*
X5020000Y-11681000D01*
X4970000Y-11631000D01*
X4920000Y-11681000D01*
X4970000Y-11731000D01*
D11*
X5385539Y-11772484D02*
X5271253Y-11772484D01*
X5328396Y-11772484D02*
X5328396Y-11572484D01*
X5328396Y-11572484D02*
X5309348Y-11601055D01*
X5309348Y-11601055D02*
X5290301Y-11620103D01*
X5290301Y-11620103D02*
X5271253Y-11629627D01*
X5471253Y-11753436D02*
X5480777Y-11762960D01*
X5480777Y-11762960D02*
X5471253Y-11772484D01*
X5471253Y-11772484D02*
X5461729Y-11762960D01*
X5461729Y-11762960D02*
X5471253Y-11753436D01*
X5471253Y-11753436D02*
X5471253Y-11772484D01*
X5604586Y-11572484D02*
X5623634Y-11572484D01*
X5623634Y-11572484D02*
X5642682Y-11582008D01*
X5642682Y-11582008D02*
X5652205Y-11591531D01*
X5652205Y-11591531D02*
X5661729Y-11610579D01*
X5661729Y-11610579D02*
X5671253Y-11648674D01*
X5671253Y-11648674D02*
X5671253Y-11696293D01*
X5671253Y-11696293D02*
X5661729Y-11734388D01*
X5661729Y-11734388D02*
X5652205Y-11753436D01*
X5652205Y-11753436D02*
X5642682Y-11762960D01*
X5642682Y-11762960D02*
X5623634Y-11772484D01*
X5623634Y-11772484D02*
X5604586Y-11772484D01*
X5604586Y-11772484D02*
X5585539Y-11762960D01*
X5585539Y-11762960D02*
X5576015Y-11753436D01*
X5576015Y-11753436D02*
X5566491Y-11734388D01*
X5566491Y-11734388D02*
X5556967Y-11696293D01*
X5556967Y-11696293D02*
X5556967Y-11648674D01*
X5556967Y-11648674D02*
X5566491Y-11610579D01*
X5566491Y-11610579D02*
X5576015Y-11591531D01*
X5576015Y-11591531D02*
X5585539Y-11582008D01*
X5585539Y-11582008D02*
X5604586Y-11572484D01*
X5795062Y-11572484D02*
X5814110Y-11572484D01*
X5814110Y-11572484D02*
X5833158Y-11582008D01*
X5833158Y-11582008D02*
X5842682Y-11591531D01*
X5842682Y-11591531D02*
X5852205Y-11610579D01*
X5852205Y-11610579D02*
X5861729Y-11648674D01*
X5861729Y-11648674D02*
X5861729Y-11696293D01*
X5861729Y-11696293D02*
X5852205Y-11734388D01*
X5852205Y-11734388D02*
X5842682Y-11753436D01*
X5842682Y-11753436D02*
X5833158Y-11762960D01*
X5833158Y-11762960D02*
X5814110Y-11772484D01*
X5814110Y-11772484D02*
X5795062Y-11772484D01*
X5795062Y-11772484D02*
X5776015Y-11762960D01*
X5776015Y-11762960D02*
X5766491Y-11753436D01*
X5766491Y-11753436D02*
X5756967Y-11734388D01*
X5756967Y-11734388D02*
X5747443Y-11696293D01*
X5747443Y-11696293D02*
X5747443Y-11648674D01*
X5747443Y-11648674D02*
X5756967Y-11610579D01*
X5756967Y-11610579D02*
X5766491Y-11591531D01*
X5766491Y-11591531D02*
X5776015Y-11582008D01*
X5776015Y-11582008D02*
X5795062Y-11572484D01*
X5985539Y-11572484D02*
X6004586Y-11572484D01*
X6004586Y-11572484D02*
X6023634Y-11582008D01*
X6023634Y-11582008D02*
X6033158Y-11591531D01*
X6033158Y-11591531D02*
X6042682Y-11610579D01*
X6042682Y-11610579D02*
X6052205Y-11648674D01*
X6052205Y-11648674D02*
X6052205Y-11696293D01*
X6052205Y-11696293D02*
X6042682Y-11734388D01*
X6042682Y-11734388D02*
X6033158Y-11753436D01*
X6033158Y-11753436D02*
X6023634Y-11762960D01*
X6023634Y-11762960D02*
X6004586Y-11772484D01*
X6004586Y-11772484D02*
X5985539Y-11772484D01*
X5985539Y-11772484D02*
X5966491Y-11762960D01*
X5966491Y-11762960D02*
X5956967Y-11753436D01*
X5956967Y-11753436D02*
X5947443Y-11734388D01*
X5947443Y-11734388D02*
X5937920Y-11696293D01*
X5937920Y-11696293D02*
X5937920Y-11648674D01*
X5937920Y-11648674D02*
X5947443Y-11610579D01*
X5947443Y-11610579D02*
X5956967Y-11591531D01*
X5956967Y-11591531D02*
X5966491Y-11582008D01*
X5966491Y-11582008D02*
X5985539Y-11572484D01*
X6137920Y-11772484D02*
X6137920Y-11639150D01*
X6137920Y-11658198D02*
X6147443Y-11648674D01*
X6147443Y-11648674D02*
X6166491Y-11639150D01*
X6166491Y-11639150D02*
X6195063Y-11639150D01*
X6195063Y-11639150D02*
X6214110Y-11648674D01*
X6214110Y-11648674D02*
X6223634Y-11667722D01*
X6223634Y-11667722D02*
X6223634Y-11772484D01*
X6223634Y-11667722D02*
X6233158Y-11648674D01*
X6233158Y-11648674D02*
X6252205Y-11639150D01*
X6252205Y-11639150D02*
X6280777Y-11639150D01*
X6280777Y-11639150D02*
X6299824Y-11648674D01*
X6299824Y-11648674D02*
X6309348Y-11667722D01*
X6309348Y-11667722D02*
X6309348Y-11772484D01*
X6404586Y-11772484D02*
X6404586Y-11639150D01*
X6404586Y-11658198D02*
X6414110Y-11648674D01*
X6414110Y-11648674D02*
X6433158Y-11639150D01*
X6433158Y-11639150D02*
X6461729Y-11639150D01*
X6461729Y-11639150D02*
X6480777Y-11648674D01*
X6480777Y-11648674D02*
X6490301Y-11667722D01*
X6490301Y-11667722D02*
X6490301Y-11772484D01*
X6490301Y-11667722D02*
X6499824Y-11648674D01*
X6499824Y-11648674D02*
X6518872Y-11639150D01*
X6518872Y-11639150D02*
X6547443Y-11639150D01*
X6547443Y-11639150D02*
X6566491Y-11648674D01*
X6566491Y-11648674D02*
X6576015Y-11667722D01*
X6576015Y-11667722D02*
X6576015Y-11772484D01*
X6966491Y-11562960D02*
X6795063Y-11820103D01*
X7223634Y-11572484D02*
X7242682Y-11572484D01*
X7242682Y-11572484D02*
X7261729Y-11582008D01*
X7261729Y-11582008D02*
X7271253Y-11591531D01*
X7271253Y-11591531D02*
X7280777Y-11610579D01*
X7280777Y-11610579D02*
X7290301Y-11648674D01*
X7290301Y-11648674D02*
X7290301Y-11696293D01*
X7290301Y-11696293D02*
X7280777Y-11734388D01*
X7280777Y-11734388D02*
X7271253Y-11753436D01*
X7271253Y-11753436D02*
X7261729Y-11762960D01*
X7261729Y-11762960D02*
X7242682Y-11772484D01*
X7242682Y-11772484D02*
X7223634Y-11772484D01*
X7223634Y-11772484D02*
X7204586Y-11762960D01*
X7204586Y-11762960D02*
X7195063Y-11753436D01*
X7195063Y-11753436D02*
X7185539Y-11734388D01*
X7185539Y-11734388D02*
X7176015Y-11696293D01*
X7176015Y-11696293D02*
X7176015Y-11648674D01*
X7176015Y-11648674D02*
X7185539Y-11610579D01*
X7185539Y-11610579D02*
X7195063Y-11591531D01*
X7195063Y-11591531D02*
X7204586Y-11582008D01*
X7204586Y-11582008D02*
X7223634Y-11572484D01*
X7376015Y-11753436D02*
X7385539Y-11762960D01*
X7385539Y-11762960D02*
X7376015Y-11772484D01*
X7376015Y-11772484D02*
X7366491Y-11762960D01*
X7366491Y-11762960D02*
X7376015Y-11753436D01*
X7376015Y-11753436D02*
X7376015Y-11772484D01*
X7509348Y-11572484D02*
X7528396Y-11572484D01*
X7528396Y-11572484D02*
X7547444Y-11582008D01*
X7547444Y-11582008D02*
X7556967Y-11591531D01*
X7556967Y-11591531D02*
X7566491Y-11610579D01*
X7566491Y-11610579D02*
X7576015Y-11648674D01*
X7576015Y-11648674D02*
X7576015Y-11696293D01*
X7576015Y-11696293D02*
X7566491Y-11734388D01*
X7566491Y-11734388D02*
X7556967Y-11753436D01*
X7556967Y-11753436D02*
X7547444Y-11762960D01*
X7547444Y-11762960D02*
X7528396Y-11772484D01*
X7528396Y-11772484D02*
X7509348Y-11772484D01*
X7509348Y-11772484D02*
X7490301Y-11762960D01*
X7490301Y-11762960D02*
X7480777Y-11753436D01*
X7480777Y-11753436D02*
X7471253Y-11734388D01*
X7471253Y-11734388D02*
X7461729Y-11696293D01*
X7461729Y-11696293D02*
X7461729Y-11648674D01*
X7461729Y-11648674D02*
X7471253Y-11610579D01*
X7471253Y-11610579D02*
X7480777Y-11591531D01*
X7480777Y-11591531D02*
X7490301Y-11582008D01*
X7490301Y-11582008D02*
X7509348Y-11572484D01*
X7642682Y-11572484D02*
X7766491Y-11572484D01*
X7766491Y-11572484D02*
X7699825Y-11648674D01*
X7699825Y-11648674D02*
X7728396Y-11648674D01*
X7728396Y-11648674D02*
X7747444Y-11658198D01*
X7747444Y-11658198D02*
X7756967Y-11667722D01*
X7756967Y-11667722D02*
X7766491Y-11686769D01*
X7766491Y-11686769D02*
X7766491Y-11734388D01*
X7766491Y-11734388D02*
X7756967Y-11753436D01*
X7756967Y-11753436D02*
X7747444Y-11762960D01*
X7747444Y-11762960D02*
X7728396Y-11772484D01*
X7728396Y-11772484D02*
X7671253Y-11772484D01*
X7671253Y-11772484D02*
X7652206Y-11762960D01*
X7652206Y-11762960D02*
X7642682Y-11753436D01*
X7861729Y-11772484D02*
X7899825Y-11772484D01*
X7899825Y-11772484D02*
X7918872Y-11762960D01*
X7918872Y-11762960D02*
X7928396Y-11753436D01*
X7928396Y-11753436D02*
X7947444Y-11724865D01*
X7947444Y-11724865D02*
X7956967Y-11686769D01*
X7956967Y-11686769D02*
X7956967Y-11610579D01*
X7956967Y-11610579D02*
X7947444Y-11591531D01*
X7947444Y-11591531D02*
X7937920Y-11582008D01*
X7937920Y-11582008D02*
X7918872Y-11572484D01*
X7918872Y-11572484D02*
X7880777Y-11572484D01*
X7880777Y-11572484D02*
X7861729Y-11582008D01*
X7861729Y-11582008D02*
X7852206Y-11591531D01*
X7852206Y-11591531D02*
X7842682Y-11610579D01*
X7842682Y-11610579D02*
X7842682Y-11658198D01*
X7842682Y-11658198D02*
X7852206Y-11677246D01*
X7852206Y-11677246D02*
X7861729Y-11686769D01*
X7861729Y-11686769D02*
X7880777Y-11696293D01*
X7880777Y-11696293D02*
X7918872Y-11696293D01*
X7918872Y-11696293D02*
X7937920Y-11686769D01*
X7937920Y-11686769D02*
X7947444Y-11677246D01*
X7947444Y-11677246D02*
X7956967Y-11658198D01*
X8128396Y-11639150D02*
X8128396Y-11772484D01*
X8080777Y-11562960D02*
X8033158Y-11705817D01*
X8033158Y-11705817D02*
X8156967Y-11705817D01*
X8223634Y-11572484D02*
X8223634Y-11610579D01*
X8299825Y-11572484D02*
X8299825Y-11610579D01*
X8595063Y-11848674D02*
X8585539Y-11839150D01*
X8585539Y-11839150D02*
X8566491Y-11810579D01*
X8566491Y-11810579D02*
X8556968Y-11791531D01*
X8556968Y-11791531D02*
X8547444Y-11762960D01*
X8547444Y-11762960D02*
X8537920Y-11715341D01*
X8537920Y-11715341D02*
X8537920Y-11677246D01*
X8537920Y-11677246D02*
X8547444Y-11629627D01*
X8547444Y-11629627D02*
X8556968Y-11601055D01*
X8556968Y-11601055D02*
X8566491Y-11582008D01*
X8566491Y-11582008D02*
X8585539Y-11553436D01*
X8585539Y-11553436D02*
X8595063Y-11543912D01*
X8652206Y-11572484D02*
X8776015Y-11572484D01*
X8776015Y-11572484D02*
X8709349Y-11648674D01*
X8709349Y-11648674D02*
X8737920Y-11648674D01*
X8737920Y-11648674D02*
X8756968Y-11658198D01*
X8756968Y-11658198D02*
X8766491Y-11667722D01*
X8766491Y-11667722D02*
X8776015Y-11686769D01*
X8776015Y-11686769D02*
X8776015Y-11734388D01*
X8776015Y-11734388D02*
X8766491Y-11753436D01*
X8766491Y-11753436D02*
X8756968Y-11762960D01*
X8756968Y-11762960D02*
X8737920Y-11772484D01*
X8737920Y-11772484D02*
X8680777Y-11772484D01*
X8680777Y-11772484D02*
X8661730Y-11762960D01*
X8661730Y-11762960D02*
X8652206Y-11753436D01*
X8899825Y-11572484D02*
X8918872Y-11572484D01*
X8918872Y-11572484D02*
X8937920Y-11582008D01*
X8937920Y-11582008D02*
X8947444Y-11591531D01*
X8947444Y-11591531D02*
X8956968Y-11610579D01*
X8956968Y-11610579D02*
X8966491Y-11648674D01*
X8966491Y-11648674D02*
X8966491Y-11696293D01*
X8966491Y-11696293D02*
X8956968Y-11734388D01*
X8956968Y-11734388D02*
X8947444Y-11753436D01*
X8947444Y-11753436D02*
X8937920Y-11762960D01*
X8937920Y-11762960D02*
X8918872Y-11772484D01*
X8918872Y-11772484D02*
X8899825Y-11772484D01*
X8899825Y-11772484D02*
X8880777Y-11762960D01*
X8880777Y-11762960D02*
X8871253Y-11753436D01*
X8871253Y-11753436D02*
X8861730Y-11734388D01*
X8861730Y-11734388D02*
X8852206Y-11696293D01*
X8852206Y-11696293D02*
X8852206Y-11648674D01*
X8852206Y-11648674D02*
X8861730Y-11610579D01*
X8861730Y-11610579D02*
X8871253Y-11591531D01*
X8871253Y-11591531D02*
X8880777Y-11582008D01*
X8880777Y-11582008D02*
X8899825Y-11572484D01*
X9204587Y-11772484D02*
X9204587Y-11572484D01*
X9290301Y-11772484D02*
X9290301Y-11667722D01*
X9290301Y-11667722D02*
X9280777Y-11648674D01*
X9280777Y-11648674D02*
X9261730Y-11639150D01*
X9261730Y-11639150D02*
X9233158Y-11639150D01*
X9233158Y-11639150D02*
X9214111Y-11648674D01*
X9214111Y-11648674D02*
X9204587Y-11658198D01*
X9414111Y-11772484D02*
X9395063Y-11762960D01*
X9395063Y-11762960D02*
X9385539Y-11753436D01*
X9385539Y-11753436D02*
X9376015Y-11734388D01*
X9376015Y-11734388D02*
X9376015Y-11677246D01*
X9376015Y-11677246D02*
X9385539Y-11658198D01*
X9385539Y-11658198D02*
X9395063Y-11648674D01*
X9395063Y-11648674D02*
X9414111Y-11639150D01*
X9414111Y-11639150D02*
X9442682Y-11639150D01*
X9442682Y-11639150D02*
X9461730Y-11648674D01*
X9461730Y-11648674D02*
X9471253Y-11658198D01*
X9471253Y-11658198D02*
X9480777Y-11677246D01*
X9480777Y-11677246D02*
X9480777Y-11734388D01*
X9480777Y-11734388D02*
X9471253Y-11753436D01*
X9471253Y-11753436D02*
X9461730Y-11762960D01*
X9461730Y-11762960D02*
X9442682Y-11772484D01*
X9442682Y-11772484D02*
X9414111Y-11772484D01*
X9595063Y-11772484D02*
X9576015Y-11762960D01*
X9576015Y-11762960D02*
X9566492Y-11743912D01*
X9566492Y-11743912D02*
X9566492Y-11572484D01*
X9747444Y-11762960D02*
X9728396Y-11772484D01*
X9728396Y-11772484D02*
X9690301Y-11772484D01*
X9690301Y-11772484D02*
X9671253Y-11762960D01*
X9671253Y-11762960D02*
X9661730Y-11743912D01*
X9661730Y-11743912D02*
X9661730Y-11667722D01*
X9661730Y-11667722D02*
X9671253Y-11648674D01*
X9671253Y-11648674D02*
X9690301Y-11639150D01*
X9690301Y-11639150D02*
X9728396Y-11639150D01*
X9728396Y-11639150D02*
X9747444Y-11648674D01*
X9747444Y-11648674D02*
X9756968Y-11667722D01*
X9756968Y-11667722D02*
X9756968Y-11686769D01*
X9756968Y-11686769D02*
X9661730Y-11705817D01*
X9833158Y-11762960D02*
X9852206Y-11772484D01*
X9852206Y-11772484D02*
X9890301Y-11772484D01*
X9890301Y-11772484D02*
X9909349Y-11762960D01*
X9909349Y-11762960D02*
X9918873Y-11743912D01*
X9918873Y-11743912D02*
X9918873Y-11734388D01*
X9918873Y-11734388D02*
X9909349Y-11715341D01*
X9909349Y-11715341D02*
X9890301Y-11705817D01*
X9890301Y-11705817D02*
X9861730Y-11705817D01*
X9861730Y-11705817D02*
X9842682Y-11696293D01*
X9842682Y-11696293D02*
X9833158Y-11677246D01*
X9833158Y-11677246D02*
X9833158Y-11667722D01*
X9833158Y-11667722D02*
X9842682Y-11648674D01*
X9842682Y-11648674D02*
X9861730Y-11639150D01*
X9861730Y-11639150D02*
X9890301Y-11639150D01*
X9890301Y-11639150D02*
X9909349Y-11648674D01*
X9985539Y-11848674D02*
X9995063Y-11839150D01*
X9995063Y-11839150D02*
X10014111Y-11810579D01*
X10014111Y-11810579D02*
X10023634Y-11791531D01*
X10023634Y-11791531D02*
X10033158Y-11762960D01*
X10033158Y-11762960D02*
X10042682Y-11715341D01*
X10042682Y-11715341D02*
X10042682Y-11677246D01*
X10042682Y-11677246D02*
X10033158Y-11629627D01*
X10033158Y-11629627D02*
X10023634Y-11601055D01*
X10023634Y-11601055D02*
X10014111Y-11582008D01*
X10014111Y-11582008D02*
X9995063Y-11553436D01*
X9995063Y-11553436D02*
X9985539Y-11543912D01*
D13*
X4910000Y-11890000D02*
X5020000Y-12000000D01*
X5020000Y-11890000D02*
X4910000Y-12000000D01*
X5020000Y-11945000D02*
G75*
G02*
X4910000Y-11945000I-55000J0D01*
G01*
X4910000Y-11945000D02*
G75*
G02*
X5020000Y-11945000I55000J0D01*
G01*
D11*
X5385539Y-12036484D02*
X5271253Y-12036484D01*
X5328396Y-12036484D02*
X5328396Y-11836484D01*
X5328396Y-11836484D02*
X5309348Y-11865055D01*
X5309348Y-11865055D02*
X5290301Y-11884103D01*
X5290301Y-11884103D02*
X5271253Y-11893627D01*
X5471253Y-12017436D02*
X5480777Y-12026960D01*
X5480777Y-12026960D02*
X5471253Y-12036484D01*
X5471253Y-12036484D02*
X5461729Y-12026960D01*
X5461729Y-12026960D02*
X5471253Y-12017436D01*
X5471253Y-12017436D02*
X5471253Y-12036484D01*
X5671253Y-12036484D02*
X5556967Y-12036484D01*
X5614110Y-12036484D02*
X5614110Y-11836484D01*
X5614110Y-11836484D02*
X5595062Y-11865055D01*
X5595062Y-11865055D02*
X5576015Y-11884103D01*
X5576015Y-11884103D02*
X5556967Y-11893627D01*
X5795062Y-11836484D02*
X5814110Y-11836484D01*
X5814110Y-11836484D02*
X5833158Y-11846008D01*
X5833158Y-11846008D02*
X5842682Y-11855531D01*
X5842682Y-11855531D02*
X5852205Y-11874579D01*
X5852205Y-11874579D02*
X5861729Y-11912674D01*
X5861729Y-11912674D02*
X5861729Y-11960293D01*
X5861729Y-11960293D02*
X5852205Y-11998388D01*
X5852205Y-11998388D02*
X5842682Y-12017436D01*
X5842682Y-12017436D02*
X5833158Y-12026960D01*
X5833158Y-12026960D02*
X5814110Y-12036484D01*
X5814110Y-12036484D02*
X5795062Y-12036484D01*
X5795062Y-12036484D02*
X5776015Y-12026960D01*
X5776015Y-12026960D02*
X5766491Y-12017436D01*
X5766491Y-12017436D02*
X5756967Y-11998388D01*
X5756967Y-11998388D02*
X5747443Y-11960293D01*
X5747443Y-11960293D02*
X5747443Y-11912674D01*
X5747443Y-11912674D02*
X5756967Y-11874579D01*
X5756967Y-11874579D02*
X5766491Y-11855531D01*
X5766491Y-11855531D02*
X5776015Y-11846008D01*
X5776015Y-11846008D02*
X5795062Y-11836484D01*
X5985539Y-11836484D02*
X6004586Y-11836484D01*
X6004586Y-11836484D02*
X6023634Y-11846008D01*
X6023634Y-11846008D02*
X6033158Y-11855531D01*
X6033158Y-11855531D02*
X6042682Y-11874579D01*
X6042682Y-11874579D02*
X6052205Y-11912674D01*
X6052205Y-11912674D02*
X6052205Y-11960293D01*
X6052205Y-11960293D02*
X6042682Y-11998388D01*
X6042682Y-11998388D02*
X6033158Y-12017436D01*
X6033158Y-12017436D02*
X6023634Y-12026960D01*
X6023634Y-12026960D02*
X6004586Y-12036484D01*
X6004586Y-12036484D02*
X5985539Y-12036484D01*
X5985539Y-12036484D02*
X5966491Y-12026960D01*
X5966491Y-12026960D02*
X5956967Y-12017436D01*
X5956967Y-12017436D02*
X5947443Y-11998388D01*
X5947443Y-11998388D02*
X5937920Y-11960293D01*
X5937920Y-11960293D02*
X5937920Y-11912674D01*
X5937920Y-11912674D02*
X5947443Y-11874579D01*
X5947443Y-11874579D02*
X5956967Y-11855531D01*
X5956967Y-11855531D02*
X5966491Y-11846008D01*
X5966491Y-11846008D02*
X5985539Y-11836484D01*
X6137920Y-12036484D02*
X6137920Y-11903150D01*
X6137920Y-11922198D02*
X6147443Y-11912674D01*
X6147443Y-11912674D02*
X6166491Y-11903150D01*
X6166491Y-11903150D02*
X6195063Y-11903150D01*
X6195063Y-11903150D02*
X6214110Y-11912674D01*
X6214110Y-11912674D02*
X6223634Y-11931722D01*
X6223634Y-11931722D02*
X6223634Y-12036484D01*
X6223634Y-11931722D02*
X6233158Y-11912674D01*
X6233158Y-11912674D02*
X6252205Y-11903150D01*
X6252205Y-11903150D02*
X6280777Y-11903150D01*
X6280777Y-11903150D02*
X6299824Y-11912674D01*
X6299824Y-11912674D02*
X6309348Y-11931722D01*
X6309348Y-11931722D02*
X6309348Y-12036484D01*
X6404586Y-12036484D02*
X6404586Y-11903150D01*
X6404586Y-11922198D02*
X6414110Y-11912674D01*
X6414110Y-11912674D02*
X6433158Y-11903150D01*
X6433158Y-11903150D02*
X6461729Y-11903150D01*
X6461729Y-11903150D02*
X6480777Y-11912674D01*
X6480777Y-11912674D02*
X6490301Y-11931722D01*
X6490301Y-11931722D02*
X6490301Y-12036484D01*
X6490301Y-11931722D02*
X6499824Y-11912674D01*
X6499824Y-11912674D02*
X6518872Y-11903150D01*
X6518872Y-11903150D02*
X6547443Y-11903150D01*
X6547443Y-11903150D02*
X6566491Y-11912674D01*
X6566491Y-11912674D02*
X6576015Y-11931722D01*
X6576015Y-11931722D02*
X6576015Y-12036484D01*
X6966491Y-11826960D02*
X6795063Y-12084103D01*
X7223634Y-11836484D02*
X7242682Y-11836484D01*
X7242682Y-11836484D02*
X7261729Y-11846008D01*
X7261729Y-11846008D02*
X7271253Y-11855531D01*
X7271253Y-11855531D02*
X7280777Y-11874579D01*
X7280777Y-11874579D02*
X7290301Y-11912674D01*
X7290301Y-11912674D02*
X7290301Y-11960293D01*
X7290301Y-11960293D02*
X7280777Y-11998388D01*
X7280777Y-11998388D02*
X7271253Y-12017436D01*
X7271253Y-12017436D02*
X7261729Y-12026960D01*
X7261729Y-12026960D02*
X7242682Y-12036484D01*
X7242682Y-12036484D02*
X7223634Y-12036484D01*
X7223634Y-12036484D02*
X7204586Y-12026960D01*
X7204586Y-12026960D02*
X7195063Y-12017436D01*
X7195063Y-12017436D02*
X7185539Y-11998388D01*
X7185539Y-11998388D02*
X7176015Y-11960293D01*
X7176015Y-11960293D02*
X7176015Y-11912674D01*
X7176015Y-11912674D02*
X7185539Y-11874579D01*
X7185539Y-11874579D02*
X7195063Y-11855531D01*
X7195063Y-11855531D02*
X7204586Y-11846008D01*
X7204586Y-11846008D02*
X7223634Y-11836484D01*
X7376015Y-12017436D02*
X7385539Y-12026960D01*
X7385539Y-12026960D02*
X7376015Y-12036484D01*
X7376015Y-12036484D02*
X7366491Y-12026960D01*
X7366491Y-12026960D02*
X7376015Y-12017436D01*
X7376015Y-12017436D02*
X7376015Y-12036484D01*
X7509348Y-11836484D02*
X7528396Y-11836484D01*
X7528396Y-11836484D02*
X7547444Y-11846008D01*
X7547444Y-11846008D02*
X7556967Y-11855531D01*
X7556967Y-11855531D02*
X7566491Y-11874579D01*
X7566491Y-11874579D02*
X7576015Y-11912674D01*
X7576015Y-11912674D02*
X7576015Y-11960293D01*
X7576015Y-11960293D02*
X7566491Y-11998388D01*
X7566491Y-11998388D02*
X7556967Y-12017436D01*
X7556967Y-12017436D02*
X7547444Y-12026960D01*
X7547444Y-12026960D02*
X7528396Y-12036484D01*
X7528396Y-12036484D02*
X7509348Y-12036484D01*
X7509348Y-12036484D02*
X7490301Y-12026960D01*
X7490301Y-12026960D02*
X7480777Y-12017436D01*
X7480777Y-12017436D02*
X7471253Y-11998388D01*
X7471253Y-11998388D02*
X7461729Y-11960293D01*
X7461729Y-11960293D02*
X7461729Y-11912674D01*
X7461729Y-11912674D02*
X7471253Y-11874579D01*
X7471253Y-11874579D02*
X7480777Y-11855531D01*
X7480777Y-11855531D02*
X7490301Y-11846008D01*
X7490301Y-11846008D02*
X7509348Y-11836484D01*
X7747444Y-11903150D02*
X7747444Y-12036484D01*
X7699825Y-11826960D02*
X7652206Y-11969817D01*
X7652206Y-11969817D02*
X7776015Y-11969817D01*
X7833158Y-11836484D02*
X7956967Y-11836484D01*
X7956967Y-11836484D02*
X7890301Y-11912674D01*
X7890301Y-11912674D02*
X7918872Y-11912674D01*
X7918872Y-11912674D02*
X7937920Y-11922198D01*
X7937920Y-11922198D02*
X7947444Y-11931722D01*
X7947444Y-11931722D02*
X7956967Y-11950769D01*
X7956967Y-11950769D02*
X7956967Y-11998388D01*
X7956967Y-11998388D02*
X7947444Y-12017436D01*
X7947444Y-12017436D02*
X7937920Y-12026960D01*
X7937920Y-12026960D02*
X7918872Y-12036484D01*
X7918872Y-12036484D02*
X7861729Y-12036484D01*
X7861729Y-12036484D02*
X7842682Y-12026960D01*
X7842682Y-12026960D02*
X7833158Y-12017436D01*
X8023634Y-11836484D02*
X8147444Y-11836484D01*
X8147444Y-11836484D02*
X8080777Y-11912674D01*
X8080777Y-11912674D02*
X8109348Y-11912674D01*
X8109348Y-11912674D02*
X8128396Y-11922198D01*
X8128396Y-11922198D02*
X8137920Y-11931722D01*
X8137920Y-11931722D02*
X8147444Y-11950769D01*
X8147444Y-11950769D02*
X8147444Y-11998388D01*
X8147444Y-11998388D02*
X8137920Y-12017436D01*
X8137920Y-12017436D02*
X8128396Y-12026960D01*
X8128396Y-12026960D02*
X8109348Y-12036484D01*
X8109348Y-12036484D02*
X8052206Y-12036484D01*
X8052206Y-12036484D02*
X8033158Y-12026960D01*
X8033158Y-12026960D02*
X8023634Y-12017436D01*
X8223634Y-11836484D02*
X8223634Y-11874579D01*
X8299825Y-11836484D02*
X8299825Y-11874579D01*
X8595063Y-12112674D02*
X8585539Y-12103150D01*
X8585539Y-12103150D02*
X8566491Y-12074579D01*
X8566491Y-12074579D02*
X8556968Y-12055531D01*
X8556968Y-12055531D02*
X8547444Y-12026960D01*
X8547444Y-12026960D02*
X8537920Y-11979341D01*
X8537920Y-11979341D02*
X8537920Y-11941246D01*
X8537920Y-11941246D02*
X8547444Y-11893627D01*
X8547444Y-11893627D02*
X8556968Y-11865055D01*
X8556968Y-11865055D02*
X8566491Y-11846008D01*
X8566491Y-11846008D02*
X8585539Y-11817436D01*
X8585539Y-11817436D02*
X8595063Y-11807912D01*
X8699825Y-11922198D02*
X8680777Y-11912674D01*
X8680777Y-11912674D02*
X8671253Y-11903150D01*
X8671253Y-11903150D02*
X8661730Y-11884103D01*
X8661730Y-11884103D02*
X8661730Y-11874579D01*
X8661730Y-11874579D02*
X8671253Y-11855531D01*
X8671253Y-11855531D02*
X8680777Y-11846008D01*
X8680777Y-11846008D02*
X8699825Y-11836484D01*
X8699825Y-11836484D02*
X8737920Y-11836484D01*
X8737920Y-11836484D02*
X8756968Y-11846008D01*
X8756968Y-11846008D02*
X8766491Y-11855531D01*
X8766491Y-11855531D02*
X8776015Y-11874579D01*
X8776015Y-11874579D02*
X8776015Y-11884103D01*
X8776015Y-11884103D02*
X8766491Y-11903150D01*
X8766491Y-11903150D02*
X8756968Y-11912674D01*
X8756968Y-11912674D02*
X8737920Y-11922198D01*
X8737920Y-11922198D02*
X8699825Y-11922198D01*
X8699825Y-11922198D02*
X8680777Y-11931722D01*
X8680777Y-11931722D02*
X8671253Y-11941246D01*
X8671253Y-11941246D02*
X8661730Y-11960293D01*
X8661730Y-11960293D02*
X8661730Y-11998388D01*
X8661730Y-11998388D02*
X8671253Y-12017436D01*
X8671253Y-12017436D02*
X8680777Y-12026960D01*
X8680777Y-12026960D02*
X8699825Y-12036484D01*
X8699825Y-12036484D02*
X8737920Y-12036484D01*
X8737920Y-12036484D02*
X8756968Y-12026960D01*
X8756968Y-12026960D02*
X8766491Y-12017436D01*
X8766491Y-12017436D02*
X8776015Y-11998388D01*
X8776015Y-11998388D02*
X8776015Y-11960293D01*
X8776015Y-11960293D02*
X8766491Y-11941246D01*
X8766491Y-11941246D02*
X8756968Y-11931722D01*
X8756968Y-11931722D02*
X8737920Y-11922198D01*
X9014111Y-12036484D02*
X9014111Y-11836484D01*
X9099825Y-12036484D02*
X9099825Y-11931722D01*
X9099825Y-11931722D02*
X9090301Y-11912674D01*
X9090301Y-11912674D02*
X9071253Y-11903150D01*
X9071253Y-11903150D02*
X9042682Y-11903150D01*
X9042682Y-11903150D02*
X9023634Y-11912674D01*
X9023634Y-11912674D02*
X9014111Y-11922198D01*
X9223634Y-12036484D02*
X9204587Y-12026960D01*
X9204587Y-12026960D02*
X9195063Y-12017436D01*
X9195063Y-12017436D02*
X9185539Y-11998388D01*
X9185539Y-11998388D02*
X9185539Y-11941246D01*
X9185539Y-11941246D02*
X9195063Y-11922198D01*
X9195063Y-11922198D02*
X9204587Y-11912674D01*
X9204587Y-11912674D02*
X9223634Y-11903150D01*
X9223634Y-11903150D02*
X9252206Y-11903150D01*
X9252206Y-11903150D02*
X9271253Y-11912674D01*
X9271253Y-11912674D02*
X9280777Y-11922198D01*
X9280777Y-11922198D02*
X9290301Y-11941246D01*
X9290301Y-11941246D02*
X9290301Y-11998388D01*
X9290301Y-11998388D02*
X9280777Y-12017436D01*
X9280777Y-12017436D02*
X9271253Y-12026960D01*
X9271253Y-12026960D02*
X9252206Y-12036484D01*
X9252206Y-12036484D02*
X9223634Y-12036484D01*
X9404587Y-12036484D02*
X9385539Y-12026960D01*
X9385539Y-12026960D02*
X9376015Y-12007912D01*
X9376015Y-12007912D02*
X9376015Y-11836484D01*
X9556968Y-12026960D02*
X9537920Y-12036484D01*
X9537920Y-12036484D02*
X9499825Y-12036484D01*
X9499825Y-12036484D02*
X9480777Y-12026960D01*
X9480777Y-12026960D02*
X9471253Y-12007912D01*
X9471253Y-12007912D02*
X9471253Y-11931722D01*
X9471253Y-11931722D02*
X9480777Y-11912674D01*
X9480777Y-11912674D02*
X9499825Y-11903150D01*
X9499825Y-11903150D02*
X9537920Y-11903150D01*
X9537920Y-11903150D02*
X9556968Y-11912674D01*
X9556968Y-11912674D02*
X9566492Y-11931722D01*
X9566492Y-11931722D02*
X9566492Y-11950769D01*
X9566492Y-11950769D02*
X9471253Y-11969817D01*
X9642682Y-12026960D02*
X9661730Y-12036484D01*
X9661730Y-12036484D02*
X9699825Y-12036484D01*
X9699825Y-12036484D02*
X9718873Y-12026960D01*
X9718873Y-12026960D02*
X9728396Y-12007912D01*
X9728396Y-12007912D02*
X9728396Y-11998388D01*
X9728396Y-11998388D02*
X9718873Y-11979341D01*
X9718873Y-11979341D02*
X9699825Y-11969817D01*
X9699825Y-11969817D02*
X9671253Y-11969817D01*
X9671253Y-11969817D02*
X9652206Y-11960293D01*
X9652206Y-11960293D02*
X9642682Y-11941246D01*
X9642682Y-11941246D02*
X9642682Y-11931722D01*
X9642682Y-11931722D02*
X9652206Y-11912674D01*
X9652206Y-11912674D02*
X9671253Y-11903150D01*
X9671253Y-11903150D02*
X9699825Y-11903150D01*
X9699825Y-11903150D02*
X9718873Y-11912674D01*
X9795063Y-12112674D02*
X9804587Y-12103150D01*
X9804587Y-12103150D02*
X9823634Y-12074579D01*
X9823634Y-12074579D02*
X9833158Y-12055531D01*
X9833158Y-12055531D02*
X9842682Y-12026960D01*
X9842682Y-12026960D02*
X9852206Y-11979341D01*
X9852206Y-11979341D02*
X9852206Y-11941246D01*
X9852206Y-11941246D02*
X9842682Y-11893627D01*
X9842682Y-11893627D02*
X9833158Y-11865055D01*
X9833158Y-11865055D02*
X9823634Y-11846008D01*
X9823634Y-11846008D02*
X9804587Y-11817436D01*
X9804587Y-11817436D02*
X9795063Y-11807912D01*
D14*
X4901000Y-12149500D02*
X5020000Y-12268500D01*
X5020000Y-12149500D02*
X4901000Y-12268500D01*
X4960500Y-12149500D02*
X4960500Y-12268500D01*
X4901000Y-12209000D02*
X5020000Y-12209000D01*
D11*
X5385539Y-12300484D02*
X5271253Y-12300484D01*
X5328396Y-12300484D02*
X5328396Y-12100484D01*
X5328396Y-12100484D02*
X5309348Y-12129055D01*
X5309348Y-12129055D02*
X5290301Y-12148103D01*
X5290301Y-12148103D02*
X5271253Y-12157627D01*
X5471253Y-12281436D02*
X5480777Y-12290960D01*
X5480777Y-12290960D02*
X5471253Y-12300484D01*
X5471253Y-12300484D02*
X5461729Y-12290960D01*
X5461729Y-12290960D02*
X5471253Y-12281436D01*
X5471253Y-12281436D02*
X5471253Y-12300484D01*
X5671253Y-12300484D02*
X5556967Y-12300484D01*
X5614110Y-12300484D02*
X5614110Y-12100484D01*
X5614110Y-12100484D02*
X5595062Y-12129055D01*
X5595062Y-12129055D02*
X5576015Y-12148103D01*
X5576015Y-12148103D02*
X5556967Y-12157627D01*
X5766491Y-12300484D02*
X5804586Y-12300484D01*
X5804586Y-12300484D02*
X5823634Y-12290960D01*
X5823634Y-12290960D02*
X5833158Y-12281436D01*
X5833158Y-12281436D02*
X5852205Y-12252865D01*
X5852205Y-12252865D02*
X5861729Y-12214769D01*
X5861729Y-12214769D02*
X5861729Y-12138579D01*
X5861729Y-12138579D02*
X5852205Y-12119531D01*
X5852205Y-12119531D02*
X5842682Y-12110008D01*
X5842682Y-12110008D02*
X5823634Y-12100484D01*
X5823634Y-12100484D02*
X5785539Y-12100484D01*
X5785539Y-12100484D02*
X5766491Y-12110008D01*
X5766491Y-12110008D02*
X5756967Y-12119531D01*
X5756967Y-12119531D02*
X5747443Y-12138579D01*
X5747443Y-12138579D02*
X5747443Y-12186198D01*
X5747443Y-12186198D02*
X5756967Y-12205246D01*
X5756967Y-12205246D02*
X5766491Y-12214769D01*
X5766491Y-12214769D02*
X5785539Y-12224293D01*
X5785539Y-12224293D02*
X5823634Y-12224293D01*
X5823634Y-12224293D02*
X5842682Y-12214769D01*
X5842682Y-12214769D02*
X5852205Y-12205246D01*
X5852205Y-12205246D02*
X5861729Y-12186198D01*
X5985539Y-12100484D02*
X6004586Y-12100484D01*
X6004586Y-12100484D02*
X6023634Y-12110008D01*
X6023634Y-12110008D02*
X6033158Y-12119531D01*
X6033158Y-12119531D02*
X6042682Y-12138579D01*
X6042682Y-12138579D02*
X6052205Y-12176674D01*
X6052205Y-12176674D02*
X6052205Y-12224293D01*
X6052205Y-12224293D02*
X6042682Y-12262388D01*
X6042682Y-12262388D02*
X6033158Y-12281436D01*
X6033158Y-12281436D02*
X6023634Y-12290960D01*
X6023634Y-12290960D02*
X6004586Y-12300484D01*
X6004586Y-12300484D02*
X5985539Y-12300484D01*
X5985539Y-12300484D02*
X5966491Y-12290960D01*
X5966491Y-12290960D02*
X5956967Y-12281436D01*
X5956967Y-12281436D02*
X5947443Y-12262388D01*
X5947443Y-12262388D02*
X5937920Y-12224293D01*
X5937920Y-12224293D02*
X5937920Y-12176674D01*
X5937920Y-12176674D02*
X5947443Y-12138579D01*
X5947443Y-12138579D02*
X5956967Y-12119531D01*
X5956967Y-12119531D02*
X5966491Y-12110008D01*
X5966491Y-12110008D02*
X5985539Y-12100484D01*
X6137920Y-12300484D02*
X6137920Y-12167150D01*
X6137920Y-12186198D02*
X6147443Y-12176674D01*
X6147443Y-12176674D02*
X6166491Y-12167150D01*
X6166491Y-12167150D02*
X6195063Y-12167150D01*
X6195063Y-12167150D02*
X6214110Y-12176674D01*
X6214110Y-12176674D02*
X6223634Y-12195722D01*
X6223634Y-12195722D02*
X6223634Y-12300484D01*
X6223634Y-12195722D02*
X6233158Y-12176674D01*
X6233158Y-12176674D02*
X6252205Y-12167150D01*
X6252205Y-12167150D02*
X6280777Y-12167150D01*
X6280777Y-12167150D02*
X6299824Y-12176674D01*
X6299824Y-12176674D02*
X6309348Y-12195722D01*
X6309348Y-12195722D02*
X6309348Y-12300484D01*
X6404586Y-12300484D02*
X6404586Y-12167150D01*
X6404586Y-12186198D02*
X6414110Y-12176674D01*
X6414110Y-12176674D02*
X6433158Y-12167150D01*
X6433158Y-12167150D02*
X6461729Y-12167150D01*
X6461729Y-12167150D02*
X6480777Y-12176674D01*
X6480777Y-12176674D02*
X6490301Y-12195722D01*
X6490301Y-12195722D02*
X6490301Y-12300484D01*
X6490301Y-12195722D02*
X6499824Y-12176674D01*
X6499824Y-12176674D02*
X6518872Y-12167150D01*
X6518872Y-12167150D02*
X6547443Y-12167150D01*
X6547443Y-12167150D02*
X6566491Y-12176674D01*
X6566491Y-12176674D02*
X6576015Y-12195722D01*
X6576015Y-12195722D02*
X6576015Y-12300484D01*
X6966491Y-12090960D02*
X6795063Y-12348103D01*
X7223634Y-12100484D02*
X7242682Y-12100484D01*
X7242682Y-12100484D02*
X7261729Y-12110008D01*
X7261729Y-12110008D02*
X7271253Y-12119531D01*
X7271253Y-12119531D02*
X7280777Y-12138579D01*
X7280777Y-12138579D02*
X7290301Y-12176674D01*
X7290301Y-12176674D02*
X7290301Y-12224293D01*
X7290301Y-12224293D02*
X7280777Y-12262388D01*
X7280777Y-12262388D02*
X7271253Y-12281436D01*
X7271253Y-12281436D02*
X7261729Y-12290960D01*
X7261729Y-12290960D02*
X7242682Y-12300484D01*
X7242682Y-12300484D02*
X7223634Y-12300484D01*
X7223634Y-12300484D02*
X7204586Y-12290960D01*
X7204586Y-12290960D02*
X7195063Y-12281436D01*
X7195063Y-12281436D02*
X7185539Y-12262388D01*
X7185539Y-12262388D02*
X7176015Y-12224293D01*
X7176015Y-12224293D02*
X7176015Y-12176674D01*
X7176015Y-12176674D02*
X7185539Y-12138579D01*
X7185539Y-12138579D02*
X7195063Y-12119531D01*
X7195063Y-12119531D02*
X7204586Y-12110008D01*
X7204586Y-12110008D02*
X7223634Y-12100484D01*
X7376015Y-12281436D02*
X7385539Y-12290960D01*
X7385539Y-12290960D02*
X7376015Y-12300484D01*
X7376015Y-12300484D02*
X7366491Y-12290960D01*
X7366491Y-12290960D02*
X7376015Y-12281436D01*
X7376015Y-12281436D02*
X7376015Y-12300484D01*
X7509348Y-12100484D02*
X7528396Y-12100484D01*
X7528396Y-12100484D02*
X7547444Y-12110008D01*
X7547444Y-12110008D02*
X7556967Y-12119531D01*
X7556967Y-12119531D02*
X7566491Y-12138579D01*
X7566491Y-12138579D02*
X7576015Y-12176674D01*
X7576015Y-12176674D02*
X7576015Y-12224293D01*
X7576015Y-12224293D02*
X7566491Y-12262388D01*
X7566491Y-12262388D02*
X7556967Y-12281436D01*
X7556967Y-12281436D02*
X7547444Y-12290960D01*
X7547444Y-12290960D02*
X7528396Y-12300484D01*
X7528396Y-12300484D02*
X7509348Y-12300484D01*
X7509348Y-12300484D02*
X7490301Y-12290960D01*
X7490301Y-12290960D02*
X7480777Y-12281436D01*
X7480777Y-12281436D02*
X7471253Y-12262388D01*
X7471253Y-12262388D02*
X7461729Y-12224293D01*
X7461729Y-12224293D02*
X7461729Y-12176674D01*
X7461729Y-12176674D02*
X7471253Y-12138579D01*
X7471253Y-12138579D02*
X7480777Y-12119531D01*
X7480777Y-12119531D02*
X7490301Y-12110008D01*
X7490301Y-12110008D02*
X7509348Y-12100484D01*
X7747444Y-12167150D02*
X7747444Y-12300484D01*
X7699825Y-12090960D02*
X7652206Y-12233817D01*
X7652206Y-12233817D02*
X7776015Y-12233817D01*
X7937920Y-12100484D02*
X7899825Y-12100484D01*
X7899825Y-12100484D02*
X7880777Y-12110008D01*
X7880777Y-12110008D02*
X7871253Y-12119531D01*
X7871253Y-12119531D02*
X7852206Y-12148103D01*
X7852206Y-12148103D02*
X7842682Y-12186198D01*
X7842682Y-12186198D02*
X7842682Y-12262388D01*
X7842682Y-12262388D02*
X7852206Y-12281436D01*
X7852206Y-12281436D02*
X7861729Y-12290960D01*
X7861729Y-12290960D02*
X7880777Y-12300484D01*
X7880777Y-12300484D02*
X7918872Y-12300484D01*
X7918872Y-12300484D02*
X7937920Y-12290960D01*
X7937920Y-12290960D02*
X7947444Y-12281436D01*
X7947444Y-12281436D02*
X7956967Y-12262388D01*
X7956967Y-12262388D02*
X7956967Y-12214769D01*
X7956967Y-12214769D02*
X7947444Y-12195722D01*
X7947444Y-12195722D02*
X7937920Y-12186198D01*
X7937920Y-12186198D02*
X7918872Y-12176674D01*
X7918872Y-12176674D02*
X7880777Y-12176674D01*
X7880777Y-12176674D02*
X7861729Y-12186198D01*
X7861729Y-12186198D02*
X7852206Y-12195722D01*
X7852206Y-12195722D02*
X7842682Y-12214769D01*
X8052206Y-12300484D02*
X8090301Y-12300484D01*
X8090301Y-12300484D02*
X8109348Y-12290960D01*
X8109348Y-12290960D02*
X8118872Y-12281436D01*
X8118872Y-12281436D02*
X8137920Y-12252865D01*
X8137920Y-12252865D02*
X8147444Y-12214769D01*
X8147444Y-12214769D02*
X8147444Y-12138579D01*
X8147444Y-12138579D02*
X8137920Y-12119531D01*
X8137920Y-12119531D02*
X8128396Y-12110008D01*
X8128396Y-12110008D02*
X8109348Y-12100484D01*
X8109348Y-12100484D02*
X8071253Y-12100484D01*
X8071253Y-12100484D02*
X8052206Y-12110008D01*
X8052206Y-12110008D02*
X8042682Y-12119531D01*
X8042682Y-12119531D02*
X8033158Y-12138579D01*
X8033158Y-12138579D02*
X8033158Y-12186198D01*
X8033158Y-12186198D02*
X8042682Y-12205246D01*
X8042682Y-12205246D02*
X8052206Y-12214769D01*
X8052206Y-12214769D02*
X8071253Y-12224293D01*
X8071253Y-12224293D02*
X8109348Y-12224293D01*
X8109348Y-12224293D02*
X8128396Y-12214769D01*
X8128396Y-12214769D02*
X8137920Y-12205246D01*
X8137920Y-12205246D02*
X8147444Y-12186198D01*
X8223634Y-12100484D02*
X8223634Y-12138579D01*
X8299825Y-12100484D02*
X8299825Y-12138579D01*
X8595063Y-12376674D02*
X8585539Y-12367150D01*
X8585539Y-12367150D02*
X8566491Y-12338579D01*
X8566491Y-12338579D02*
X8556968Y-12319531D01*
X8556968Y-12319531D02*
X8547444Y-12290960D01*
X8547444Y-12290960D02*
X8537920Y-12243341D01*
X8537920Y-12243341D02*
X8537920Y-12205246D01*
X8537920Y-12205246D02*
X8547444Y-12157627D01*
X8547444Y-12157627D02*
X8556968Y-12129055D01*
X8556968Y-12129055D02*
X8566491Y-12110008D01*
X8566491Y-12110008D02*
X8585539Y-12081436D01*
X8585539Y-12081436D02*
X8595063Y-12071912D01*
X8699825Y-12186198D02*
X8680777Y-12176674D01*
X8680777Y-12176674D02*
X8671253Y-12167150D01*
X8671253Y-12167150D02*
X8661730Y-12148103D01*
X8661730Y-12148103D02*
X8661730Y-12138579D01*
X8661730Y-12138579D02*
X8671253Y-12119531D01*
X8671253Y-12119531D02*
X8680777Y-12110008D01*
X8680777Y-12110008D02*
X8699825Y-12100484D01*
X8699825Y-12100484D02*
X8737920Y-12100484D01*
X8737920Y-12100484D02*
X8756968Y-12110008D01*
X8756968Y-12110008D02*
X8766491Y-12119531D01*
X8766491Y-12119531D02*
X8776015Y-12138579D01*
X8776015Y-12138579D02*
X8776015Y-12148103D01*
X8776015Y-12148103D02*
X8766491Y-12167150D01*
X8766491Y-12167150D02*
X8756968Y-12176674D01*
X8756968Y-12176674D02*
X8737920Y-12186198D01*
X8737920Y-12186198D02*
X8699825Y-12186198D01*
X8699825Y-12186198D02*
X8680777Y-12195722D01*
X8680777Y-12195722D02*
X8671253Y-12205246D01*
X8671253Y-12205246D02*
X8661730Y-12224293D01*
X8661730Y-12224293D02*
X8661730Y-12262388D01*
X8661730Y-12262388D02*
X8671253Y-12281436D01*
X8671253Y-12281436D02*
X8680777Y-12290960D01*
X8680777Y-12290960D02*
X8699825Y-12300484D01*
X8699825Y-12300484D02*
X8737920Y-12300484D01*
X8737920Y-12300484D02*
X8756968Y-12290960D01*
X8756968Y-12290960D02*
X8766491Y-12281436D01*
X8766491Y-12281436D02*
X8776015Y-12262388D01*
X8776015Y-12262388D02*
X8776015Y-12224293D01*
X8776015Y-12224293D02*
X8766491Y-12205246D01*
X8766491Y-12205246D02*
X8756968Y-12195722D01*
X8756968Y-12195722D02*
X8737920Y-12186198D01*
X9014111Y-12300484D02*
X9014111Y-12100484D01*
X9099825Y-12300484D02*
X9099825Y-12195722D01*
X9099825Y-12195722D02*
X9090301Y-12176674D01*
X9090301Y-12176674D02*
X9071253Y-12167150D01*
X9071253Y-12167150D02*
X9042682Y-12167150D01*
X9042682Y-12167150D02*
X9023634Y-12176674D01*
X9023634Y-12176674D02*
X9014111Y-12186198D01*
X9223634Y-12300484D02*
X9204587Y-12290960D01*
X9204587Y-12290960D02*
X9195063Y-12281436D01*
X9195063Y-12281436D02*
X9185539Y-12262388D01*
X9185539Y-12262388D02*
X9185539Y-12205246D01*
X9185539Y-12205246D02*
X9195063Y-12186198D01*
X9195063Y-12186198D02*
X9204587Y-12176674D01*
X9204587Y-12176674D02*
X9223634Y-12167150D01*
X9223634Y-12167150D02*
X9252206Y-12167150D01*
X9252206Y-12167150D02*
X9271253Y-12176674D01*
X9271253Y-12176674D02*
X9280777Y-12186198D01*
X9280777Y-12186198D02*
X9290301Y-12205246D01*
X9290301Y-12205246D02*
X9290301Y-12262388D01*
X9290301Y-12262388D02*
X9280777Y-12281436D01*
X9280777Y-12281436D02*
X9271253Y-12290960D01*
X9271253Y-12290960D02*
X9252206Y-12300484D01*
X9252206Y-12300484D02*
X9223634Y-12300484D01*
X9404587Y-12300484D02*
X9385539Y-12290960D01*
X9385539Y-12290960D02*
X9376015Y-12271912D01*
X9376015Y-12271912D02*
X9376015Y-12100484D01*
X9556968Y-12290960D02*
X9537920Y-12300484D01*
X9537920Y-12300484D02*
X9499825Y-12300484D01*
X9499825Y-12300484D02*
X9480777Y-12290960D01*
X9480777Y-12290960D02*
X9471253Y-12271912D01*
X9471253Y-12271912D02*
X9471253Y-12195722D01*
X9471253Y-12195722D02*
X9480777Y-12176674D01*
X9480777Y-12176674D02*
X9499825Y-12167150D01*
X9499825Y-12167150D02*
X9537920Y-12167150D01*
X9537920Y-12167150D02*
X9556968Y-12176674D01*
X9556968Y-12176674D02*
X9566492Y-12195722D01*
X9566492Y-12195722D02*
X9566492Y-12214769D01*
X9566492Y-12214769D02*
X9471253Y-12233817D01*
X9642682Y-12290960D02*
X9661730Y-12300484D01*
X9661730Y-12300484D02*
X9699825Y-12300484D01*
X9699825Y-12300484D02*
X9718873Y-12290960D01*
X9718873Y-12290960D02*
X9728396Y-12271912D01*
X9728396Y-12271912D02*
X9728396Y-12262388D01*
X9728396Y-12262388D02*
X9718873Y-12243341D01*
X9718873Y-12243341D02*
X9699825Y-12233817D01*
X9699825Y-12233817D02*
X9671253Y-12233817D01*
X9671253Y-12233817D02*
X9652206Y-12224293D01*
X9652206Y-12224293D02*
X9642682Y-12205246D01*
X9642682Y-12205246D02*
X9642682Y-12195722D01*
X9642682Y-12195722D02*
X9652206Y-12176674D01*
X9652206Y-12176674D02*
X9671253Y-12167150D01*
X9671253Y-12167150D02*
X9699825Y-12167150D01*
X9699825Y-12167150D02*
X9718873Y-12176674D01*
X9795063Y-12376674D02*
X9804587Y-12367150D01*
X9804587Y-12367150D02*
X9823634Y-12338579D01*
X9823634Y-12338579D02*
X9833158Y-12319531D01*
X9833158Y-12319531D02*
X9842682Y-12290960D01*
X9842682Y-12290960D02*
X9852206Y-12243341D01*
X9852206Y-12243341D02*
X9852206Y-12205246D01*
X9852206Y-12205246D02*
X9842682Y-12157627D01*
X9842682Y-12157627D02*
X9833158Y-12129055D01*
X9833158Y-12129055D02*
X9823634Y-12110008D01*
X9823634Y-12110008D02*
X9804587Y-12081436D01*
X9804587Y-12081436D02*
X9795063Y-12071912D01*
M02*
